<?xml version="1.0" encoding="UTF-8" standalone="no"?>
<!-- Created with Inkscape (http://www.inkscape.org/) -->

<svg
   width="114.93881mm"
   height="136.36267mm"
   viewBox="0 0 114.93881 136.36267"
   version="1.1"
   id="svg1"
   xml:space="preserve"
   xmlns="http://www.w3.org/2000/svg"
   xmlns:svg="http://www.w3.org/2000/svg"><defs
     id="defs1" /><g
     id="layer1"
     transform="translate(-236.71449,-21.431916)"><g
       id="g158"
       transform="matrix(0.26458333,0,0,0.26458333,-139.7,-150.01875)">
		<g
   id="g118">
			<path
   style="fill:#2c2323"
   d="m 1600.822,920.914 c -0.922,0 -1.841,-0.195 -2.696,-0.584 l -158.09,-71.824 c -2.543,-1.156 -4.069,-3.805 -3.789,-6.586 0.279,-2.78 2.299,-5.074 5.022,-5.701 l 41.639,-9.587 c 0.48,-0.11 0.97,-0.166 1.463,-0.166 h 346.693 c 3.315,0 6.102,2.488 6.476,5.782 0.374,3.294 -1.783,6.344 -5.013,7.088 l -41.202,9.486 -188.183,71.664 c -0.748,0.286 -1.535,0.428 -2.32,0.428 z m -137.861,-76.311 138.082,62.734 178.125,-67.834 h -294.056 z"
   id="path117" />
		</g>
		<g
   id="g119">
			<polygon
   style="fill:#8a2c44"
   points="1831.063,832.986 1789.424,842.572 1600.822,914.396 1442.732,842.572 1484.371,832.986 "
   id="polygon118" />
		</g>
		<g
   id="g120">
			<path
   style="fill:#2c2323"
   d="m 1720.02,890.063 c -1.922,0 -3.769,-0.852 -5.017,-2.359 -1.458,-1.759 -1.888,-4.153 -1.134,-6.309 L 1779.31,694.12 c 0.805,-2.305 2.831,-3.966 5.249,-4.305 l 38.547,-5.397 c 1.176,-0.166 2.381,-0.004 3.477,0.466 l 26.554,11.406 c 3.104,1.333 4.675,4.817 3.618,8.026 l -55.194,167.721 c -0.712,2.163 -2.5,3.797 -4.719,4.312 l -27.102,6.283 c -0.166,0.039 -0.334,0.071 -0.502,0.096 l -48.246,7.261 c -0.326,0.05 -0.649,0.074 -0.972,0.074 z m 70.283,-187.89 -60.564,173.318 37.304,-5.615 23.28,-5.397 52.182,-158.568 -19.397,-8.332 z"
   id="path119" />
		</g>
		<g
   id="g121">
			<polygon
   style="fill:#f9a35a"
   points="1768.27,876.28 1824.013,708.17 1785.456,696.273 1720.019,883.551 "
   id="polygon120" />
		</g>
		<g
   id="g122">
			<polygon
   style="fill:#fece60"
   points="1824.013,708.17 1850.562,702.277 1824.013,690.875 1785.456,696.273 "
   id="polygon121" />
		</g>
		<g
   id="g123">
			<polygon
   style="fill:#df8562"
   points="1850.562,702.277 1795.37,870.001 1768.27,876.28 1824.013,708.17 "
   id="polygon122" />
		</g>
		<g
   id="g124">
			<path
   style="fill:#2c2323"
   d="m 1696.243,884.575 c -1.321,0 -2.637,-0.401 -3.757,-1.192 -2.013,-1.419 -3.054,-3.852 -2.69,-6.288 l 31.926,-213.843 c 0.505,-3.388 3.554,-5.813 6.96,-5.535 l 46.056,3.637 c 1.78,0.141 3.425,1.005 4.549,2.392 1.125,1.386 1.632,3.174 1.403,4.944 l -25.343,195.54 c -0.421,3.249 -3.189,5.68 -6.465,5.68 h -23.528 l -26.042,13.898 c -0.962,0.513 -2.017,0.767 -3.069,0.767 z m 37.475,-213.385 -29.116,195.017 16.052,-8.566 c 0.945,-0.504 1.999,-0.768 3.069,-0.768 h 19.432 l 23.726,-183.064 z"
   id="path123" />
		</g>
		<g
   id="g125">
			<polygon
   style="fill:#fece60"
   points="1728.171,664.215 1748.881,679.969 1774.219,667.851 "
   id="polygon124" />
		</g>
		<g
   id="g126">
			<polygon
   style="fill:#f9a35a"
   points="1748.881,679.969 1723.725,863.391 1696.24,878.059 1728.171,664.215 "
   id="polygon125" />
		</g>
		<g
   id="g127">
			<polygon
   style="fill:#df8562"
   points="1774.219,667.851 1748.881,863.391 1723.725,863.391 1748.881,679.969 "
   id="polygon126" />
		</g>
		<g
   id="g128">
			<path
   style="fill:#2c2323"
   d="m 1653.26,912.102 c -1.551,0 -3.064,-0.554 -4.257,-1.582 -1.469,-1.267 -2.298,-3.124 -2.26,-5.065 l 4.957,-251.063 c 0.034,-1.736 0.76,-3.388 2.016,-4.587 1.256,-1.199 2.951,-1.848 4.676,-1.8 l 53.208,1.432 c 1.744,0.046 3.397,0.791 4.587,2.065 1.192,1.275 1.822,2.974 1.751,4.717 l -9.915,241.478 c -0.127,3.078 -2.39,5.647 -5.427,6.16 l -48.251,8.153 c -0.361,0.062 -0.724,0.092 -1.085,0.092 z m 11.344,-250.889 -4.672,236.633 35.284,-5.962 9.426,-229.594 z"
   id="path127" />
		</g>
		<g
   id="g129">
			<polygon
   style="fill:#f9a35a"
   points="1653.26,905.583 1658.217,654.521 1711.426,655.953 1701.511,897.431 "
   id="polygon128" />
		</g>
		<g
   id="g130">
			<path
   style="fill:#2c2323"
   d="m 1699.535,926.642 c -0.186,0 -0.373,-0.008 -0.563,-0.024 l -46.265,-3.962 c -1.745,-0.15 -3.357,-0.996 -4.472,-2.347 -1.114,-1.351 -1.638,-3.095 -1.453,-4.837 l 24.234,-227.818 c 0.265,-2.489 1.931,-4.607 4.288,-5.449 l 33.933,-12.123 c 1.262,-0.45 2.631,-0.502 3.922,-0.146 l 28.861,7.939 c 3.079,0.847 5.091,3.799 4.752,6.975 l -18.29,171.632 c -0.353,3.314 -3.148,5.827 -6.481,5.827 h -9.056 L 1706,920.89 c -0.39,3.305 -3.196,5.751 -6.465,5.752 z m -39.086,-16.408 33.35,2.857 6.883,-58.067 c 0.388,-3.28 3.169,-5.751 6.472,-5.751 h 8.988 l 17.082,-160.298 -21.539,-5.924 -28.139,10.053 z"
   id="path129" />
		</g>
		<g
   id="g131">
			<polygon
   style="fill:#fece60"
   points="1677.495,688.341 1711.426,676.223 1740.289,684.155 1725.967,697.264 "
   id="polygon130" />
		</g>
		<g
   id="g132">
			<polygon
   style="fill:#f9a35a"
   points="1725.967,697.264 1699.528,920.125 1653.26,916.159 1677.495,688.341 "
   id="polygon131" />
		</g>
		<g
   id="g133">
			<polygon
   style="fill:#df8562"
   points="1740.289,684.155 1722.001,855.789 1707.161,855.789 1725.967,697.264 "
   id="polygon132" />
		</g>
		<g
   id="g134">
			<path
   style="fill:#2c2323"
   d="m 1511.809,859.333 c -2.592,0 -4.95,-1.54 -5.983,-3.935 l -59.488,-137.815 c -0.729,-1.691 -0.71,-3.61 0.053,-5.286 0.764,-1.675 2.2,-2.95 3.955,-3.508 l 43.625,-13.881 c 3.3,-1.05 6.853,0.668 8.075,3.914 l 56.513,150.043 c 0.738,1.958 0.49,4.151 -0.665,5.896 -1.156,1.745 -3.08,2.829 -5.17,2.914 l -40.65,1.652 c -0.088,0.004 -0.177,0.006 -0.265,0.006 z m -50.649,-140.304 54.861,127.092 27.159,-1.104 -51.151,-135.809 z"
   id="path133" />
		</g>
		<g
   id="g135">
			<polygon
   style="fill:#f9a35a"
   points="1495.946,701.12 1552.46,851.163 1511.81,852.815 1452.321,715.001 "
   id="polygon134" />
		</g>
		<g
   id="g136">
			<path
   style="fill:#2c2323"
   d="m 1499.906,869.909 c -2.153,0 -4.184,-1.067 -5.404,-2.875 l -70.72,-104.927 c -1.078,-1.6 -1.393,-3.596 -0.857,-5.45 0.535,-1.854 1.864,-3.376 3.629,-4.155 l 50.893,-22.474 c 2.829,-1.25 6.146,-0.339 7.941,2.181 l 53.318,74.853 c 1.537,2.156 1.615,5.029 0.2,7.266 l -5.463,8.636 22.672,31.68 c 1.355,1.894 1.596,4.368 0.634,6.489 -0.964,2.12 -2.985,3.566 -5.303,3.792 l -50.907,4.954 c -0.212,0.02 -0.423,0.03 -0.633,0.03 z m -60.961,-108.629 64.197,95.247 35.797,-3.484 -18.651,-26.063 c -1.543,-2.157 -1.626,-5.035 -0.207,-7.277 l 5.469,-8.645 -47.696,-66.96 z"
   id="path135" />
		</g>
		<g
   id="g137">
			<polygon
   style="fill:#fece60"
   points="1429.187,758.46 1474.299,751.52 1480.083,735.987 "
   id="polygon136" />
		</g>
		<g
   id="g138">
			<polygon
   style="fill:#f9a35a"
   points="1429.187,758.46 1499.912,863.391 1550.807,858.433 1474.299,751.52 "
   id="polygon137" />
		</g>
		<g
   id="g139">
			<polygon
   style="fill:#df8562"
   points="1480.083,735.987 1533.402,810.843 1525.588,823.192 1474.299,751.52 "
   id="polygon138" />
		</g>
		<g
   id="g140">
			<path
   style="fill:#2c2323"
   d="m 1603.909,912.106 c -1.201,0 -2.402,-0.331 -3.462,-0.995 l -25.595,-16.041 -52.478,-31.022 c -1.677,-0.992 -2.822,-2.681 -3.123,-4.606 l -23.465,-150.37 c -0.47,-3.013 1.212,-5.949 4.048,-7.068 l 42.185,-16.647 c 1.016,-0.401 2.116,-0.541 3.202,-0.405 l 24.677,3.09 c 2.864,0.359 5.152,2.559 5.622,5.407 l 34.819,211.079 c 0.416,2.529 -0.686,5.067 -2.82,6.487 -1.091,0.726 -2.35,1.091 -3.61,1.091 z m -72.251,-57.714 49.901,29.499 c 0.048,0.029 0.095,0.058 0.144,0.088 l 13.423,8.412 -31.676,-192.019 -18.194,-2.278 -35.784,14.121 z"
   id="path139" />
		</g>
		<g
   id="g141">
			<polygon
   style="fill:#f9a35a"
   points="1525.69,858.433 1502.225,708.06 1550.807,708.06 1578.238,889.502 "
   id="polygon140" />
		</g>
		<g
   id="g142">
			<polygon
   style="fill:#fece60"
   points="1502.225,708.06 1544.418,691.426 1569.095,694.51 1550.807,708.06 "
   id="polygon141" />
		</g>
		<g
   id="g143">
			<polygon
   style="fill:#df8562"
   points="1569.095,694.51 1603.906,905.583 1578.238,889.502 1550.807,708.06 "
   id="polygon142" />
		</g>
		<g
   id="g144">
			<path
   style="fill:#2c2323"
   d="m 1613.816,951.319 c -0.834,0 -1.674,-0.16 -2.475,-0.488 -2.353,-0.966 -3.929,-3.214 -4.036,-5.755 l -11.459,-272.323 c -0.121,-2.87 1.651,-5.481 4.364,-6.428 l 47.373,-16.53 c 3.393,-1.186 7.099,0.599 8.294,3.984 l 5.292,14.991 c 0.225,0.638 0.35,1.306 0.369,1.982 l 6.61,229.356 c 0.054,1.874 -0.701,3.681 -2.075,4.959 l -47.816,44.505 c -1.228,1.144 -2.823,1.747 -4.441,1.747 z m -4.742,-274.28 10.661,253.35 35.298,-32.854 -6.495,-225.387 -2.79,-7.905 z"
   id="path143" />
		</g>
		<g
   id="g145">
			<polygon
   style="fill:#fece60"
   points="1655.022,670.935 1602.364,672.478 1649.734,655.953 "
   id="polygon144" />
		</g>
		<g
   id="g146">
			<polygon
   style="fill:#f9a35a"
   points="1655.022,670.935 1661.632,900.296 1613.821,944.802 1602.364,672.478 "
   id="polygon145" />
		</g>
		<g
   id="g147">
			<path
   style="fill:#2c2323"
   d="m 1550.814,933.694 c -1.582,0 -3.128,-0.577 -4.332,-1.649 -1.524,-1.356 -2.326,-3.346 -2.166,-5.38 l 18.276,-232.667 c 0.192,-2.455 1.753,-4.592 4.033,-5.524 l 19.945,-8.147 c 0.966,-0.395 2.013,-0.551 3.053,-0.457 l 33.933,3.076 c 3.507,0.318 6.128,3.365 5.918,6.88 l -13.78,230.685 c -0.122,2.042 -1.195,3.908 -2.9,5.041 -1.703,1.132 -3.842,1.398 -5.771,0.719 l -6.467,-2.276 -48.48,9.575 c -0.419,0.083 -0.842,0.124 -1.262,0.124 z m 24.459,-234.67 -17.288,220.091 41.793,-8.255 c 1.141,-0.227 2.322,-0.143 3.419,0.244 l 12.887,-215.746 -26.056,-2.362 z"
   id="path146" />
		</g>
		<g
   id="g148">
			<polygon
   style="fill:#fece60"
   points="1569.095,694.51 1589.034,686.358 1622.965,689.443 1616.024,697.264 "
   id="polygon147" />
		</g>
		<g
   id="g149">
			<polygon
   style="fill:#f9a35a"
   points="1601.042,917.261 1616.024,697.264 1569.095,694.51 1550.807,927.175 "
   id="polygon148" />
		</g>
		<g
   id="g150">
			<polygon
   style="fill:#df8562"
   points="1622.965,689.443 1609.194,920.125 1601.042,917.261 1616.024,697.264 "
   id="polygon149" />
		</g>
		<g
   id="g151">
			<path
   style="fill:#2c2323"
   d="m 1727.295,1163.389 c -1.674,0 -3.307,-0.646 -4.537,-1.838 -1.586,-1.538 -2.285,-3.776 -1.857,-5.944 l 62.13,-314.298 c 0.498,-2.519 2.429,-4.512 4.932,-5.088 l 41.639,-9.587 c 2.151,-0.494 4.411,0.133 6,1.672 1.586,1.538 2.285,3.776 1.857,5.944 l -62.13,314.299 c -0.498,2.519 -2.429,4.512 -4.932,5.087 l -41.639,9.586 c -0.485,0.112 -0.977,0.167 -1.463,0.167 z m 67.706,-315.412 -59.359,300.284 27.717,-6.382 59.359,-300.283 z"
   id="path150" />
		</g>
		<g
   id="g152">
			<polygon
   style="fill:#8a2c44"
   points="1727.295,1156.87 1768.934,1147.284 1831.063,832.986 1789.424,842.572 "
   id="polygon151" />
		</g>
		<g
   id="g153">
			<path
   style="fill:#2c2323"
   d="m 1727.295,1163.389 h -213.178 c -3.044,0 -5.682,-2.107 -6.356,-5.074 l -71.385,-314.298 c -0.439,-1.933 0.025,-3.961 1.263,-5.51 1.236,-1.549 3.111,-2.451 5.093,-2.451 h 124.937 c 3.6,0 6.518,2.918 6.518,6.518 0,22.283 21.462,40.412 47.842,40.412 26.38,0 47.842,-18.129 47.842,-40.412 0,-3.6 2.918,-6.518 6.518,-6.518 h 113.035 c 1.95,0 3.797,0.873 5.036,2.38 1.237,1.507 1.736,3.489 1.358,5.402 l -62.13,314.298 c -0.602,3.052 -3.28,5.253 -6.393,5.253 z m -207.974,-13.036 h 202.618 l 59.553,-301.262 h -99.035 c -3.672,26.409 -29.372,46.93 -60.428,46.93 -31.056,0 -56.756,-20.52 -60.428,-46.93 h -110.705 z"
   id="path152" />
		</g>
		<g
   id="g154">
			<path
   style="fill:#dc7056"
   d="m 1789.424,842.572 -62.13,314.298 h -213.178 l -71.385,-314.298 h 124.937 c 0,25.915 24.338,46.93 54.36,46.93 30.022,0 54.36,-21.014 54.36,-46.93 z"
   id="path153" />
		</g>
		<g
   id="g155">
			<ellipse
   style="fill:#fece60"
   cx="1613.821"
   cy="1002.307"
   rx="110.824"
   ry="39.438"
   id="ellipse154" />
		</g>
		<g
   style="opacity:0.25"
   id="g156">
			<polygon
   style="fill:#ffffff"
   points="1555.754,1156.87 1514.117,1156.87 1442.732,842.572 1484.369,842.572 "
   id="polygon155" />
		</g>
		<g
   style="opacity:0.25"
   id="g157">
			<polygon
   points="1789.424,842.572 1727.295,1156.87 1678.162,1156.87 1740.292,842.572 "
   id="polygon156" />
		</g>
	</g></g></svg>
