<?xml version="1.0" encoding="UTF-8" standalone="no"?>
<!-- Created with Inkscape (http://www.inkscape.org/) -->

<svg
   width="105.6992mm"
   height="157.70656mm"
   viewBox="0 0 105.6992 157.70656"
   version="1.1"
   id="svg1"
   xml:space="preserve"
   xmlns="http://www.w3.org/2000/svg"
   xmlns:svg="http://www.w3.org/2000/svg"><defs
     id="defs1" /><g
     id="layer1"
     transform="translate(-74.916759,-0.08670132)"><g
       id="g180"
       transform="matrix(0.26458333,0,0,0.26458333,-139.7,-150.01875)">
		<g
   id="g159">
			<path
   style="fill:#2c2323"
   d="m 1010.896,1163.384 c -86.898,0 -129.654,-40.267 -131.432,-41.98 -0.993,-0.957 -1.656,-2.205 -1.895,-3.563 L 822.708,805.858 c -0.334,-1.897 0.189,-3.844 1.427,-5.32 1.239,-1.475 3.066,-2.327 4.992,-2.327 h 363.54 c 1.926,0 3.754,0.852 4.992,2.327 1.239,1.476 1.762,3.423 1.428,5.32 l -54.862,311.983 c -0.239,1.358 -0.903,2.606 -1.896,3.563 -1.777,1.713 -44.534,41.98 -131.433,41.98 z m -120.885,-50.057 c 8.027,6.723 48.254,37.02 120.885,37.02 72.946,0 112.885,-30.255 120.884,-37.006 l 53.123,-302.095 H 836.891 Z"
   id="path158" />
		</g>
		<g
   id="g160">
			<path
   style="fill:#dc7056"
   d="m 1192.666,804.728 -54.861,311.983 c 0,0 -41.642,40.155 -126.908,40.155 -85.266,0 -126.908,-40.155 -126.908,-40.155 L 829.128,804.728 Z"
   id="path159" />
		</g>
		<g
   id="g161">
			<ellipse
   style="fill:#fece60"
   cx="1010.899"
   cy="967.21899"
   rx="131.53799"
   ry="45.717999"
   id="ellipse160" />
		</g>
		<g
   style="opacity:0.25"
   id="g162">
			<path
   d="m 1192.669,804.729 -54.869,311.978 c 0,0 -41.637,40.164 -126.905,40.164 -82.492,0 -124.155,-37.596 -126.775,-40.033 20.884,8.956 50.449,17.116 88.88,17.116 61.763,0 100.634,-21.065 117.371,-32.679 5.993,-4.159 10.072,-10.53 11.336,-17.715 l 49.039,-278.83 h 41.923 z"
   id="path161" />
		</g>
		<g
   id="g163">
			<path
   style="fill:#2c2323"
   d="m 1010.9,864.46 c -52.25,0 -101.464,-6.389 -138.578,-17.99 -40.019,-12.509 -61.172,-29.427 -61.172,-48.924 v -57.671 c 0,-3.599 2.918,-6.518 6.518,-6.518 h 386.453 c 3.6,0 6.518,2.919 6.518,6.518 v 57.671 c 0,19.497 -21.151,36.415 -61.166,48.924 -37.111,11.601 -86.324,17.99 -138.573,17.99 z M 824.186,746.393 v 51.153 c 0,25.483 76.681,53.878 186.714,53.878 110.027,0 186.703,-28.395 186.703,-53.878 v -51.153 z"
   id="path162" />
		</g>
		<g
   id="g164">
			<path
   style="fill:#ede9e0"
   d="m 1204.12,739.875 v 57.671 c 0,33.346 -86.507,60.396 -193.22,60.396 -106.713,0 -193.233,-27.05 -193.233,-60.396 v -57.671 z"
   id="path163" />
		</g>
		<g
   style="opacity:0.25"
   id="g165">
			<path
   d="m 1204.114,739.875 v 57.671 c 0,33.346 -86.507,60.396 -193.22,60.396 -82.531,0 -152.991,-16.178 -180.679,-38.939 34.037,17.221 94.98,28.692 164.488,28.692 106.713,0 193.22,-27.05 193.22,-60.396 v -47.425 h 16.191 z"
   id="path164" />
		</g>
		<g
   id="g166">
			<path
   style="fill:#2c2323"
   d="m 1010.898,806.785 c -52.254,0 -101.468,-6.388 -138.576,-17.987 -40.016,-12.508 -61.168,-29.427 -61.168,-48.928 0,-19.501 21.152,-36.421 61.168,-48.928 37.108,-11.599 86.322,-17.987 138.576,-17.987 52.255,0 101.468,6.388 138.576,17.987 40.017,12.508 61.169,29.427 61.169,48.928 0,19.501 -21.152,36.421 -61.169,48.928 -37.107,11.599 -86.321,17.987 -138.576,17.987 z m 0,-120.794 c -110.03,0 -186.708,28.395 -186.708,53.879 0,25.484 76.678,53.879 186.708,53.879 110.031,0 186.709,-28.395 186.709,-53.879 0,-25.484 -76.678,-53.879 -186.709,-53.879 z"
   id="path165" />
		</g>
		<g
   id="g167">
			<ellipse
   style="fill:#ede9e0"
   cx="1010.899"
   cy="739.87"
   rx="193.22701"
   ry="60.396999"
   id="ellipse166" />
		</g>
		<g
   id="g168">
			<path
   style="fill:#2c2323"
   d="m 1010.898,793.069 c -48.299,0 -93.787,-5.223 -128.086,-14.707 -37.366,-10.332 -57.117,-24.586 -57.117,-41.219 0,-16.634 19.751,-30.887 57.117,-41.219 34.299,-9.484 79.788,-14.707 128.086,-14.707 48.299,0 93.788,5.223 128.086,14.707 37.367,10.333 57.117,24.586 57.117,41.219 0,16.634 -19.75,30.887 -57.117,41.219 -34.298,9.484 -79.786,14.707 -128.086,14.707 z m 0,-98.816 c -106.669,0 -172.167,24.981 -172.167,42.89 0,17.909 65.498,42.89 172.167,42.89 106.669,0 172.167,-24.981 172.167,-42.89 0,-17.909 -65.498,-42.89 -172.167,-42.89 z"
   id="path167" />
		</g>
		<g
   id="g169">
			<ellipse
   style="fill:#ccd6d5"
   cx="1010.899"
   cy="737.14301"
   rx="178.685"
   ry="49.408001"
   id="ellipse168" />
		</g>
		<g
   style="opacity:0.25"
   id="g170">
			<path
   d="m 1189.579,737.137 c 0,9.973 -10.689,19.267 -29.07,27.037 4.289,-4.237 6.57,-8.695 6.57,-13.31 0,-27.297 -80.002,-49.419 -178.685,-49.419 -62.625,0 -117.728,8.904 -149.64,22.396 20.988,-20.819 90.105,-36.11 172.14,-36.11 98.696,0 178.685,22.122 178.685,49.406 z"
   id="path169" />
		</g>
		<g
   id="g171">
			<path
   style="fill:#2c2323"
   d="m 1024.301,746.393 h -50.227 c -3.314,0 -6.1,-2.487 -6.476,-5.779 l -17.742,-155.52 c -0.408,-3.577 2.16,-6.807 5.737,-7.215 l 49.575,-5.658 c 3.602,-0.41 6.807,2.161 7.216,5.737 l 18.394,161.178 c 0.21,1.845 -0.377,3.693 -1.613,5.078 -1.237,1.386 -3.007,2.179 -4.864,2.179 z M 979.89,733.357 h 37.107 l -16.828,-147.444 -36.624,4.18 z"
   id="path170" />
		</g>
		<g
   id="g172">
			<polygon
   style="fill:#dc7056"
   points="1005.902,578.697 1020.997,710.948 1024.296,739.875 974.068,739.875 956.326,584.355 972.634,582.491 994.404,580.014 "
   id="polygon171" />
		</g>
		<g
   id="g173">
			<path
   style="fill:#fece60"
   d="m 1005.907,578.698 7.751,67.933 c -11.638,20.812 -27.398,38.04 -44.724,48.217 l -5.803,-50.862 c 18.265,-15.742 33.594,-39.167 42.323,-65.236 z"
   id="path172" />
		</g>
		<g
   id="g174">
			<path
   style="fill:#fece60"
   d="m 1024.301,739.875 h -33.437 c 10.911,-7.861 21.184,-17.703 30.139,-28.927 z"
   id="path173" />
		</g>
		<g
   style="opacity:0.25"
   id="g175">
			<path
   style="fill:#ffffff"
   d="m 862.124,898.583 24.878,164.414 c 1.036,6.847 6.034,12.418 12.731,14.182 19.271,5.077 62.021,12.054 115.792,-5.296 7.092,-2.288 11.972,-8.803 12.095,-16.254 l 2.531,-153.488 c 0.166,-10.048 -8.21,-18.145 -18.245,-17.611 -28.648,1.524 -84.967,2.962 -129.269,-5.56 -11.796,-2.27 -22.31,7.735 -20.513,19.613 z"
   id="path174" />
		</g>
		<g
   style="opacity:0.25"
   id="g176">
			<polygon
   points="994.404,580.014 1005.902,578.697 1020.997,710.948 1024.296,739.875 1011.911,739.875 "
   id="polygon175" />
		</g>
		<g
   style="opacity:0.25"
   id="g177">
			<polygon
   style="fill:#ffffff"
   points="989.88,739.875 974.068,739.875 956.326,584.355 972.634,582.491 "
   id="polygon176" />
		</g>
		<g
   id="g178">
			<path
   style="fill:#2c2323"
   d="m 972.575,595.732 c -9.669,0 -21.721,-1.804 -22.729,-10.636 -0.407,-3.573 1.111,-8.666 10.658,-12.636 5.077,-2.111 11.844,-3.726 19.056,-4.549 7.211,-0.823 14.168,-0.774 19.59,0.14 10.195,1.717 12.823,6.336 13.23,9.909 v 0 c 0.409,3.573 -1.109,8.666 -10.658,12.637 -5.076,2.111 -11.843,3.727 -19.055,4.55 -2.207,0.251 -5.929,0.585 -10.092,0.585 z m -1.453,-13.064 c 2.848,0.079 6.237,-0.037 10.067,-0.474 3.831,-0.437 7.158,-1.088 9.916,-1.806 -2.843,-0.08 -6.236,0.037 -10.067,0.474 -3.831,0.437 -7.159,1.089 -9.916,1.806 z m 28.306,-3.228 h 0.013 z"
   id="path177" />
		</g>
		<g
   id="g179">
			<path
   style="fill:#8a2c44"
   d="m 1005.905,578.699 c 0.45,3.944 -10.285,8.408 -23.976,9.971 -13.692,1.562 -25.156,-0.369 -25.606,-4.313 -0.45,-3.944 10.284,-8.408 23.976,-9.97 13.691,-1.563 25.156,0.368 25.606,4.312 z"
   id="path178" />
		</g>
	</g></g></svg>
