<?xml version="1.0" encoding="UTF-8" standalone="no"?>
<!-- Created with Inkscape (http://www.inkscape.org/) -->

<svg
   width="34.291801mm"
   height="35.848072mm"
   viewBox="0 0 34.291801 35.848072"
   version="1.1"
   id="svg1"
   xml:space="preserve"
   xmlns:xlink="http://www.w3.org/1999/xlink"
   xmlns="http://www.w3.org/2000/svg"
   xmlns:svg="http://www.w3.org/2000/svg"><defs
     id="defs1"><path
       id="SVGID_00000126287247658762208690000002698823706501686201_"
       d="m 321.681,408.749 c -1.309,-8.137 -4.193,-16.015 -8.104,-23.099 -2.207,-4.118 -5.506,-7.371 -8.553,-10.765 -8.304,-7.846 -13.827,-18.643 -22.905,-25.563 -5.27,-3.56 -11.443,-5.539 -17.54,-6.788 -7.715,-1.318 -15.775,-2.867 -23.399,-0.083 -9.276,2.947 -17.773,8.434 -24.196,16.249 -3.898,4.185 -7.094,8.959 -9.895,14.036 -3.001,4.577 -4.824,9.814 -6.739,14.969 -1.793,5.133 -4.079,10.107 -5.331,15.431 -1.697,6.83 -2.297,13.938 -1.916,20.975 0.072,3.221 0.213,6.435 0.338,9.652 0.152,2.722 0.391,5.479 1.572,7.935 2.088,4.399 4.607,8.561 7.328,12.532 4.186,6.476 9.38,12.593 16.42,15.442 1.728,0.739 0.983,0.572 4.078,2.177 2.378,1.211 4.895,1.993 7.462,2.597 3.897,0.917 7.905,1.221 11.885,1.487 3.281,0.585 7.067,0.455 7.246,0.405 5.673,-0.145 8.856,-0.165 13.058,-0.244 3.84,0.123 7.692,-0.052 11.504,-0.654 2.686,-0.44 5.318,-1.181 7.912,-2.049 5.735,-1.448 11.151,-4.316 15.653,-8.421 3.644,-3.083 7.147,-6.436 9.873,-10.49 0.282,-0.532 0.553,-1.075 0.82,-1.615 0.991,-1.465 1.905,-2.998 2.849,-4.492 2.066,-3.515 4.258,-6.983 5.822,-10.797 3.736,-8.98 5.733,-19.026 4.758,-28.827" /></defs><g
     id="layer1"
     transform="translate(-414.89861,-492.35276)"><g
       id="g634"
       transform="matrix(0.26458333,0,0,0.26458333,364.01398,402.15702)">
		<path
   style="fill:#bbd7ff"
   d="m 321.681,408.749 c -1.309,-8.137 -4.193,-16.015 -8.104,-23.099 -2.207,-4.118 -5.506,-7.371 -8.553,-10.765 -8.304,-7.846 -13.827,-18.643 -22.905,-25.563 -5.27,-3.56 -11.443,-5.539 -17.54,-6.788 -7.715,-1.318 -15.775,-2.867 -23.399,-0.083 -9.276,2.947 -17.773,8.434 -24.196,16.249 -3.898,4.185 -7.094,8.959 -9.895,14.036 -3.001,4.577 -4.824,9.814 -6.739,14.969 -1.793,5.133 -4.079,10.107 -5.331,15.431 -1.697,6.83 -2.297,13.938 -1.916,20.975 0.072,3.221 0.213,6.435 0.338,9.652 0.152,2.722 0.391,5.479 1.572,7.935 2.088,4.399 4.607,8.561 7.328,12.532 4.186,6.476 9.38,12.593 16.42,15.442 1.728,0.739 0.983,0.572 4.078,2.177 2.378,1.211 4.895,1.993 7.462,2.597 3.897,0.917 7.905,1.221 11.885,1.487 3.281,0.585 7.067,0.455 7.246,0.405 5.673,-0.145 8.856,-0.165 13.058,-0.244 3.84,0.123 7.692,-0.052 11.504,-0.654 2.686,-0.44 5.318,-1.181 7.912,-2.049 5.735,-1.448 11.151,-4.316 15.653,-8.421 3.644,-3.083 7.147,-6.436 9.873,-10.49 0.282,-0.532 0.553,-1.075 0.82,-1.615 0.991,-1.465 1.905,-2.998 2.849,-4.492 2.066,-3.515 4.258,-6.983 5.822,-10.797 3.736,-8.98 5.733,-19.026 4.758,-28.827"
   id="path563-3" />
		<g
   id="g616">
			<g
   id="g586">
				<path
   style="fill:#ffffff"
   d="m 293.465,378.781 c -0.481,-1.726 -1.546,-3.099 -2.695,-4.348 -1.585,-1.783 -3.433,-2.961 -5.189,-3.798 -1.252,-0.55 -2.551,-0.994 -3.88,-1.221 -1.724,-0.188 -3.456,-0.124 -5.182,-0.222 0.004,-0.066 0,-0.129 0.008,-0.196 0.12,-1.018 0.253,-2.052 0.052,-3.077 -0.11,-1.839 -0.936,-3.904 -2.569,-5.512 -2.787,-2.621 -6.844,-2.267 -10.049,-0.938 -1.004,0.193 -1.247,0.387 -1.962,0.362 -0.14,-1.254 -0.699,-2.359 -1.408,-3.348 -0.898,-1.428 -2.225,-2.4 -3.681,-3.012 -1.169,-0.472 -2.422,-0.598 -3.633,-0.847 -0.905,-0.213 -1.821,-0.305 -2.729,-0.086 -1.437,0.367 -2.511,1.001 -3.916,2 -0.982,0.539 -1.996,1.045 -2.868,1.784 -0.487,0.366 -1.055,1.145 -1.499,1.835 -0.879,-0.162 -1.783,-0.149 -2.676,-0.157 -1.901,0.009 -3.67,0.821 -5.345,1.724 -1.068,0.729 -2.181,1.465 -2.956,2.574 -0.764,1.248 -1.206,2.744 -1.434,4.226 -0.028,0.229 -0.052,0.464 -0.076,0.696 -0.161,0.716 -0.298,1.365 -0.451,1.801 -0.071,0.173 -0.161,0.339 -0.248,0.499 -0.052,-0.03 -0.099,-0.07 -0.155,-0.095 -0.43,-0.213 -0.923,-0.175 -1.384,-0.158 -2.41,0.127 -4.329,0.667 -6.259,1.96 -2.311,1.401 -4.863,3.316 -5.285,6.408 -0.09,0.733 -0.314,1.69 -0.274,1.837 -0.421,0.229 -1.55,0.316 -2.257,0.622 -1.97,0.758 -4.068,1.664 -5.342,3.574 -1.706,2.612 -2.587,6.698 -0.645,9.466 1.466,1.723 3.924,2.351 5.979,1.919 1.185,-0.268 2.186,-1.03 3.242,-1.632 0.159,-0.087 0.315,-0.18 0.473,-0.271 0.655,2.097 4.974,3.661 7.526,3.486 2.228,-0.08 4.225,-1.411 5.835,-3.003 0.125,-0.105 0.299,-0.266 0.438,-0.385 0.08,0.087 0.163,0.189 0.182,0.246 0.234,0.33 0.536,0.59 0.831,0.85 1.495,1.233 3.204,2.179 5,2.724 1.376,0.659 2.908,0.681 4.188,-0.213 2.141,-1.149 3.913,-2.979 5.5,-4.386 0.002,0 0.006,0 0.008,0 0.3,0.101 0.099,0.018 0.371,0.191 0.679,0.796 2.374,2.146 3.825,2.469 1.624,0.407 3.359,0.757 5.009,0.436 3.033,-0.703 5.759,-2.631 7.828,-5.126 0.092,-0.116 0.165,-0.249 0.242,-0.378 1.188,0.904 2.748,2.382 4.282,2.824 1.123,0.312 2.271,0.608 3.429,0.594 1.248,-0.146 2.462,-0.514 3.676,-0.828 1.538,-0.487 2.434,-0.926 3.989,-1.566 1.199,-0.603 2.416,-1.474 2.626,-3.031 0.079,-0.411 0.137,-0.828 0.192,-1.245 0.885,0.153 1.352,0.814 2.458,1.351 1.725,0.918 3.778,1.204 5.568,0.419 1.393,-0.47 2.679,-1.482 3.207,-3.018 0.666,-2.184 0.947,-4.588 0.083,-6.78"
   id="path564-7" />
				<g
   id="g574">
					<path
   style="fill:#627eb5"
   d="m 320.567,390.363 c -0.464,-3.788 -3.691,-6.408 -6.704,-8.573 -0.027,-0.026 -0.115,-0.083 -0.209,-0.138 0.076,-0.075 0.157,-0.15 0.21,-0.173 2.867,-2.074 3.396,-4.581 1.042,-7.311 -1.19,-1.037 -2.3,-2.173 -3.573,-3.118 -1.472,-0.913 -3.088,-1.7 -4.789,-2.138 -2.214,-0.587 -5.858,-1.194 -5.833,-1.898 -0.221,-0.623 0.057,-1.621 0.097,-2.807 -0.185,-1.377 -0.828,-2.751 -1.795,-3.791 -1.45,-1.634 -3.938,-2.305 -6,-1.395 -0.067,-0.484 -0.155,-0.967 -0.349,-1.417 -0.707,-1.91 -2.917,-2.529 -4.799,-2.916 -2.873,-0.823 -4.994,1.017 -6.005,3.339 -1.477,0.126 -2.965,0.647 -4.323,1.091 -3.124,1.785 -5.083,5.621 -3.753,8.995 0.009,0.029 0.012,0.055 0.019,0.075 0.004,0.041 0.006,0.078 0.005,0.118 -0.003,0.02 -0.005,0.029 -0.006,0.043 -0.146,0.094 -0.435,0.289 -0.539,0.31 -1.165,0.57 -2.41,1.021 -3.373,1.902 -1.401,1.265 -2.529,3.012 -2.634,4.88 -0.137,1.075 0.1,2.387 0.421,3.188 -2.047,0.243 -3.904,1.298 -5.527,2.456 -1.834,1.235 -3.256,2.91 -4.207,4.841 -1.166,2.335 -1.894,5.274 -0.223,7.553 3.515,4.94 8.396,2.724 12.882,0.503 0.168,-0.085 0.325,-0.155 0.668,-0.242 0.186,0.231 0.372,0.466 0.586,0.676 1.072,1.28 2.66,2.005 4.3,2.412 1.063,0.283 2.182,0.547 3.285,0.357 3.318,-0.492 5.462,-3.179 7.391,-3.817 0.035,-0.019 0.055,-0.024 0.079,-0.033 0.49,0.496 1.173,1.61 2.232,2.181 3.162,1.775 7.12,1.052 10.132,-0.673 1.022,-0.559 3.049,-1.782 3.553,-2.138 0.483,0.302 0.923,1.146 1.874,1.885 1.79,1.41 3.897,2.549 6.252,2.753 4.166,0.038 10.673,-1.983 9.613,-6.98"
   id="path565-2" />
					<g
   id="g573">
						<path
   style="fill:#92c4fc"
   d="m 264.284,389.93 c -0.095,0 -0.185,0.033 -0.268,0.078 -2.045,-0.27 -2.149,-1.28 0.125,-3.702 0.134,-0.084 0.57,-0.385 0.56,-0.554 0.132,-0.438 -0.374,-0.846 -0.75,-0.601 -1.117,0.84 -2.145,2.084 -2.542,3.471 -0.129,0.718 0.202,1.522 0.746,1.971 0.81,0.484 1.564,0.565 2.149,0.591 0.729,-0.065 0.74,-1.256 -0.02,-1.254"
   id="path566-7" />
						<path
   style="fill:#92c4fc"
   d="m 278.289,372.431 c -1.337,-0.092 -2.849,0.494 -3.714,1.57 -0.772,1.044 -0.729,2.546 0.392,3.29 0.454,0.233 0.985,-0.271 0.84,-0.764 -0.264,-0.562 -0.295,-0.328 -0.493,-0.763 -0.01,-0.031 -0.021,-0.084 -0.041,-0.162 0.01,-0.21 0.058,-0.426 0.217,-0.723 0.171,-0.525 1.633,-1.148 2.251,-1.208 0.329,-0.019 0.722,0.121 0.979,-0.166 0.379,-0.366 0.093,-1.092 -0.431,-1.074"
   id="path567-0" />
						<path
   style="fill:#92c4fc"
   d="m 279.952,391.556 c -0.425,-0.146 -0.813,-0.471 -0.856,-0.757 -0.011,0.092 -0.006,-0.34 0.22,-0.871 0.039,-0.17 1.16,-2.178 1.41,-2.335 0.178,-0.224 0.464,-0.411 0.46,-0.735 0.016,-0.482 -0.607,-0.752 -0.923,-0.398 -1.085,1.285 -3.381,4.188 -1.599,5.675 0.517,0.475 1.19,0.678 1.865,0.738 0.301,0.069 0.669,-0.016 0.778,-0.348 0.217,-1.104 -0.897,-0.755 -1.355,-0.969"
   id="path568-6" />
						<path
   style="fill:#92c4fc"
   d="m 289.513,362.167 c -0.158,-0.514 -0.72,-0.639 -1.174,-0.7 -1.45,-0.373 -2.767,0.473 -3.736,1.525 -0.482,0.532 -1.177,1.318 -0.936,2.092 0.225,0.432 0.897,0.341 1.009,-0.137 0.158,-0.963 1.995,-2.357 2.556,-2.361 0.297,-0.121 1.15,0.134 1.282,0.133 0.38,0.455 1.169,0.068 0.999,-0.552"
   id="path569-4" />
						<path
   style="fill:#92c4fc"
   d="m 292.974,371.427 c -1.182,0.383 -2.241,1.029 -3.161,1.881 -0.597,0.482 -1.131,1.172 -1.002,1.998 0.101,1.125 1.01,2.445 2.171,2.423 0.402,-0.105 0.596,-0.62 0.384,-0.988 -0.341,-0.42 -0.852,-0.52 -0.906,-0.671 -0.263,-0.328 -0.415,-0.595 -0.405,-1.148 -0.117,-0.092 1.737,-1.818 2.626,-2.054 0.321,-0.17 0.76,-0.194 0.966,-0.529 0.272,-0.456 -0.179,-1.069 -0.673,-0.912"
   id="path570-70" />
						<path
   style="fill:#92c4fc"
   d="m 298.657,388.947 c -0.421,-0.229 -0.878,0.103 -1.3,0.186 -0.822,0.121 -0.754,0.323 -1.415,-0.446 -0.111,-0.043 -0.522,-1.315 -0.363,-1.546 0.357,-0.917 -0.738,-1.572 -1.131,-0.616 -0.368,1.491 0.281,3.352 1.723,3.931 0.788,0.191 1.594,-0.087 2.34,-0.34 0.514,-0.127 0.612,-0.906 0.146,-1.169"
   id="path571-2" />
						<path
   style="fill:#92c4fc"
   d="m 306.5,378.543 c -0.298,0.036 -0.599,0.08 -0.901,0.054 -0.007,-0.002 -0.018,-0.004 -0.022,-0.007 0,0 0,0 -0.002,0 -0.027,-0.025 -0.051,-0.051 -0.071,-0.074 -0.081,-0.116 -0.154,-0.239 -0.214,-0.366 -0.314,-0.679 -0.396,-1.831 0.165,-3.097 0.222,-0.786 -0.976,-1.131 -1.177,-0.338 -1.061,2.125 -0.346,6.37 2.673,4.956 0.4,-0.39 0.098,-1.148 -0.451,-1.128"
   id="path572-9" />
						<path
   style="fill:#92c4fc"
   d="m 313.553,389.195 c -0.15,0.074 -0.684,0.261 -0.996,0.237 -0.023,-0.009 -0.051,-0.016 -0.086,-0.028 -0.351,-0.16 -1.538,-1.082 -1.858,-1.82 -0.426,-0.785 -1.602,-0.071 -1.154,0.704 0.302,0.682 0.871,1.162 1.408,1.644 0.447,0.391 0.941,0.797 1.537,0.881 0.631,0.072 1.268,-0.148 1.836,-0.419 0.273,-0.154 0.616,-0.285 0.698,-0.634 0.147,-0.957 -0.803,-1.057 -1.385,-0.565"
   id="path573-1" />
					</g>
				</g>
				<g
   id="g585">
					<path
   style="fill:#92c4fc"
   d="m 264.596,362.567 c -1.292,-1.371 -3.026,-2.089 -4.705,-2.81 -1.849,-0.646 -3.729,-1.368 -5.707,-1.368 -0.049,-0.001 -0.097,-0.007 -0.146,-0.009 0.326,-1.077 0.644,-2.152 0.362,-3.299 -1.314,-4.167 -5.484,-6.691 -9.6,-6.599 -0.105,0.008 -0.174,0.011 -0.226,0.013 -0.282,-0.319 -0.559,-0.646 -0.847,-0.963 -1.369,-1.599 -3.418,-2.618 -5.445,-2.906 -1.922,-0.157 -3.755,0.592 -5.206,1.853 -1.474,-0.528 -3.094,-0.724 -4.601,-0.688 -2.449,0.445 -3.944,2.936 -5.063,5.034 -0.11,0.24 -0.206,0.486 -0.296,0.734 -0.325,0.028 -0.957,0.056 -1.5,0.031 -5.167,-0.14 -10.43,1.566 -11.805,7.354 -0.253,0.845 -0.4,1.735 -0.395,2.624 -4.623,0.4 -9.996,2.368 -11.511,7.317 -0.553,1.5 -0.489,3.192 0.328,4.524 -0.875,0.294 -1.681,0.868 -2.429,1.392 -1.479,1.06 -2.769,2.515 -3.248,4.35 -0.594,2.044 -0.045,4.389 1.398,5.91 1.313,1.247 3.075,1.793 4.743,2.319 2.802,0.439 5.814,-0.054 8.671,-1.606 2.099,-1.134 4.291,-2.193 6.097,-3.806 0.498,-0.411 0.924,-0.763 1.157,-0.925 0.277,0.985 0.783,1.887 1.586,2.506 3.643,3.198 8.48,0.652 11.501,-2.225 0.282,-0.234 0.556,-0.479 0.831,-0.72 0.306,0.297 0.675,0.808 1.101,1.258 0.63,0.598 1.366,1.063 2.148,1.412 1.448,0.881 3.166,0.393 4.677,-0.06 1.504,-0.534 3.063,-1.242 4.171,-2.453 1.57,2.508 5.972,4.323 9.375,3.591 3.443,-0.93 6.674,-3.487 7.528,-7.207 0.213,-1.103 0.048,-2.287 -0.379,-3.341 2.618,0.745 6.886,1.476 9.282,-0.87 2.947,-3.3 0.834,-7.706 -1.847,-10.367"
   id="path574-6" />
					<g
   id="g584">
						<path
   style="fill:#627eb5"
   d="m 202.913,383.057 c -0.067,-0.07 -0.563,-0.133 -0.728,-0.149 -1.85,-0.533 -2.581,-0.524 -2.083,-1.666 0.419,-1.055 1.106,-2.23 2.095,-2.985 0.485,-0.436 -0.188,-1.22 -0.661,-0.767 -0.913,0.696 -1.563,1.704 -2.081,2.737 -0.274,0.612 -0.61,1.291 -0.467,1.982 0.177,0.707 0.871,1.069 1.486,1.289 0.757,0.192 1.55,0.556 2.333,0.462 0.376,-0.114 0.434,-0.69 0.106,-0.903"
   id="path575-3" />
						<path
   style="fill:#627eb5"
   d="m 210.752,364.333 c -1.868,0.304 -4.004,1.525 -4.64,3.467 -0.181,1.483 1.008,2.598 2.291,2.95 0.316,0.066 0.661,0.266 0.973,0.117 0.25,-0.125 0.355,-0.471 0.225,-0.724 -0.23,-0.404 -0.78,-0.308 -1.146,-0.512 -2.204,-0.855 -1.495,-2.511 0.839,-3.76 0.632,-0.297 0.747,-0.389 1.298,-0.473 0.242,-0.048 0.532,-0.039 0.676,-0.282 0.25,-0.36 -0.098,-0.892 -0.516,-0.783"
   id="path576-8" />
						<path
   style="fill:#627eb5"
   d="m 224.36,356.59 c -1.429,-0.037 -2.881,0.23 -4.139,0.963 -0.531,0.314 -1.107,0.681 -1.328,1.304 -0.5,2.127 1.766,3.28 3.412,3.703 0.503,0.121 1.049,0.357 1.563,0.262 0.349,-0.1 0.462,-0.606 0.216,-0.875 -0.38,-0.313 -0.575,-0.16 -0.753,-0.255 -2.036,-0.563 -3.554,-1.214 -3.418,-2.467 0.005,-0.017 0.011,-0.033 0.014,-0.049 0.216,-0.355 0.855,-0.757 1.741,-1.108 0.514,-0.241 1.858,-0.423 2.834,-0.452 0.518,-0.156 0.398,-1.017 -0.142,-1.026"
   id="path577-2" />
						<path
   style="fill:#627eb5"
   d="m 225.003,377.394 c -1.376,0.089 -2.009,0.462 -3.268,0.234 -0.046,-0.011 -0.107,-0.027 -0.166,-0.052 -0.021,-0.016 -0.059,-0.043 -0.083,-0.056 -0.249,-0.3 -0.052,-1.652 0.128,-2.952 0.049,-0.222 0.199,-0.889 0.294,-1.009 0.181,-0.518 0.535,-1.02 0.585,-1.568 -0.011,-0.628 -0.94,-0.745 -1.111,-0.143 -0.861,1.814 -1.421,3.965 -1.094,5.982 0.73,1.716 3.247,1.081 4.648,0.785 0.593,-0.115 0.641,-1.035 0.067,-1.221"
   id="path578-8" />
						<path
   style="fill:#627eb5"
   d="m 241.293,351.053 c -2.496,-0.557 -5.579,0.906 -6.634,3.361 -0.317,1.575 1.273,2.643 2.461,3.223 0.511,0.195 1.072,0.727 1.63,0.522 0.446,-0.221 0.394,-0.952 -0.08,-1.102 -1.598,-0.599 -3.052,-1.761 -2.945,-2.261 0.27,-0.819 1.669,-2.178 3.022,-2.465 1.281,-0.328 1.446,-0.343 2.413,-0.178 0.577,-0.009 0.685,-0.932 0.133,-1.1"
   id="path579-5" />
						<path
   style="fill:#627eb5"
   d="m 238.674,375.477 c -0.31,-0.082 -0.632,0.061 -0.946,0.071 -0.644,0.051 -1.674,0.073 -2.532,-0.391 -0.084,-0.047 -0.224,-0.129 -0.275,-0.175 -0.025,-0.02 -0.04,-0.033 -0.053,-0.044 -0.011,-0.013 -0.034,-0.039 -0.081,-0.088 -0.003,-0.007 -0.006,-0.013 -0.009,-0.02 -0.204,-0.91 0.385,-2.067 1.472,-2.888 0.558,-0.499 -0.214,-1.394 -0.755,-0.877 -1.184,0.894 -2.187,2.495 -1.83,4.065 0.643,1.54 2.658,1.699 4.073,1.6 0.407,-0.087 0.954,0.013 1.226,-0.37 0.207,-0.309 0.053,-0.769 -0.29,-0.883"
   id="path580-9" />
						<path
   style="fill:#627eb5"
   d="m 212.801,373.608 c -1.243,0.918 -2.483,2.184 -2.699,3.821 -0.033,0.319 0.04,0.755 0.405,0.805 0.687,0.106 0.566,-0.785 0.566,-0.747 0.037,-0.471 0.38,-1.205 1.006,-1.924 0.116,-0.134 0.46,-0.519 0.554,-0.571 0.279,-0.289 0.695,-0.456 0.912,-0.799 0.25,-0.461 -0.378,-0.951 -0.744,-0.585"
   id="path581-2" />
						<path
   style="fill:#627eb5"
   d="m 245.399,364.334 c -0.121,-0.008 -0.582,-0.176 -0.715,-0.222 -0.42,-0.267 -0.594,-0.547 -0.679,-0.909 -0.072,-0.307 0.5,-1.736 1.035,-2.197 0.33,-0.393 0.95,-0.626 1.075,-1.155 0.034,-0.415 -0.488,-0.679 -0.78,-0.389 -1.23,0.942 -2.875,2.888 -2.072,4.56 0.411,0.781 1.344,1.425 2.203,1.258 0.382,-0.189 0.338,-0.817 -0.067,-0.946"
   id="path582-0" />
						<path
   style="fill:#627eb5"
   d="m 251.42,377.672 c -0.026,0.017 -0.033,0.025 -0.051,0.033 -0.019,0.015 -0.046,0.032 -0.089,0.061 -0.058,0.047 -0.174,0.11 -0.251,0.155 -0.184,-0.068 -0.094,-0.016 -0.455,-0.272 -0.605,-0.496 -1.189,-1.056 -1.555,-1.899 0,-0.006 -0.002,-0.014 -0.004,-0.016 -0.028,-0.43 0.076,-0.915 -0.186,-1.269 -0.345,-0.43 -1.081,-0.163 -1.091,0.398 0.036,0.573 -0.051,1.184 0.253,1.697 0.622,1.107 1.548,2.194 2.727,2.646 0.526,0.181 1.005,-0.145 1.418,-0.453 0.273,-0.239 0.687,-0.429 0.701,-0.849 -0.052,-0.935 -0.956,-0.77 -1.417,-0.232"
   id="path583-3" />
						<path
   style="fill:#627eb5"
   d="m 263.395,366.831 c -1.007,-0.034 -1.146,0.209 -2.082,0.165 -0.393,0 -0.443,-0.13 -0.593,-0.33 -0.065,-0.073 -0.198,-0.396 -0.252,-0.52 -0.001,-0.003 -0.003,-0.008 -0.004,-0.011 -0.011,-0.06 -0.014,-0.097 -0.021,-0.123 0,-0.049 0.007,-0.094 0.01,-0.141 0.008,-0.016 0.013,-0.027 0.024,-0.059 0.002,-0.008 0.002,-0.008 0.004,-0.015 0.587,-0.791 -0.309,-1.747 -0.973,-0.944 -0.768,1.113 -0.125,2.766 0.984,3.337 0.634,0.262 1.331,0.113 1.993,0.084 0.418,-0.099 0.975,-0.022 1.247,-0.427 0.24,-0.355 0.059,-0.884 -0.337,-1.016"
   id="path584-4" />
					</g>
				</g>
			</g>
			<g
   id="g615">
				<path
   style="fill:#ffffff"
   d="m 220.048,403.026 c -0.54,-0.29 -1.193,-0.433 -1.739,-0.086 -0.604,0.467 -1.273,1.11 -1.345,1.967 -0.119,1.208 1.032,1.851 1.957,1.541 0.481,0.108 1.037,-0.024 1.459,-0.486 0.253,-0.285 0.293,-0.695 0.226,-1.082 0.343,-0.605 0.269,-1.391 -0.558,-1.854"
   id="path586-7" />
				<path
   style="fill:#ffffff"
   d="m 220.566,417.912 c -0.248,-0.607 -0.823,-1.125 -1.442,-1.288 -0.335,-0.161 -0.724,-0.188 -1.05,0.034 -1.295,0.627 -1.64,2.847 -0.483,3.823 1.521,1.473 3.433,-0.77 2.975,-2.569"
   id="path587-7" />
				<path
   style="fill:#ffffff"
   d="m 236.272,403.116 c -0.851,-0.632 -2.191,-0.693 -2.906,0.207 -0.778,1.049 -0.788,2.806 0.085,3.795 1.018,1.012 2.38,0.298 2.756,-0.896 0.109,-0.27 0.181,-0.562 0.203,-0.849 0.029,-0.015 0.062,-0.023 0.09,-0.044 0.761,-0.551 0.581,-1.828 -0.228,-2.213"
   id="path588-1" />
				<path
   style="fill:#ffffff"
   d="m 236.685,417.547 c 0.04,-0.78 -0.266,-1.565 -0.983,-1.866 -1.795,-0.637 -3.479,2.75 -1.803,3.936 0.68,0.542 1.746,0.361 2.311,-0.299 0.394,-0.496 0.559,-1.174 0.475,-1.771"
   id="path589-6" />
				<path
   style="fill:#ffffff"
   d="m 228.01,428.153 c -0.03,-1.001 -1.136,-1.362 -1.899,-1.375 -1.214,0.148 -1.865,1.819 -1.694,3.035 0.199,1.107 1.35,1.487 2.154,0.866 0.495,-0.4 0.874,-1.012 1.059,-1.673 0.202,-0.199 0.348,-0.48 0.38,-0.853"
   id="path590-5" />
				<path
   style="fill:#ffffff"
   d="m 208.223,418.72 c 0.027,-0.752 -0.534,-1.36 -1.205,-1.441 -0.257,-0.327 -0.807,-0.198 -0.929,0.218 -0.435,0.242 -0.796,0.655 -0.998,1.138 -0.976,2.151 1.893,3.244 2.902,1.481 0.328,-0.516 0.361,-1.002 0.23,-1.396"
   id="path591-5" />
				<path
   style="fill:#ffffff"
   d="m 214.055,431.81 c -0.333,-1.179 -1.513,-2.176 -2.651,-1.814 -0.437,0.197 -0.922,0.596 -1.03,1.127 -0.001,0.012 0.002,0.022 0,0.035 -0.576,0.752 -1.116,1.647 -0.857,2.608 0.335,0.774 0.971,1.524 1.752,1.713 0.779,0.154 1.436,-0.487 1.997,-0.994 0.663,-0.661 1.046,-1.703 0.789,-2.675"
   id="path592-4" />
				<path
   style="fill:#ffffff"
   d="m 226.541,444.035 c -0.319,-0.652 -1.239,-0.673 -1.682,-0.177 -0.128,0.057 -0.248,0.137 -0.359,0.232 -0.049,-0.022 -0.104,-0.033 -0.168,-0.033 -0.365,-0.01 -0.463,0.441 -0.302,0.692 -0.118,0.285 -0.176,0.617 -0.143,0.984 0.014,1.507 1.879,1.826 2.488,0.574 0.372,-0.668 0.558,-1.566 0.166,-2.272"
   id="path593-6" />
				<path
   style="fill:#ffffff"
   d="m 242.176,432.006 c -0.411,-0.419 -1.024,-0.57 -1.715,-0.158 -0.112,0.095 -0.201,0.215 -0.287,0.335 -0.045,0.035 -0.097,0.055 -0.141,0.098 -0.397,0.411 -0.527,1.06 -0.4,1.629 -0.003,0.038 -0.009,0.077 -0.012,0.113 0.068,1.123 1.019,1.901 1.976,2.038 1.226,0.313 1.797,-1.283 1.878,-2.373 -0.039,-0.798 -0.636,-1.416 -1.299,-1.682"
   id="path594-8" />
				<path
   style="fill:#ffffff"
   d="m 250.438,421.835 c -1.264,-1.439 -2.898,0.818 -2.807,2.268 0.023,0.424 0.249,0.775 0.548,0.985 0.271,0.603 0.971,0.882 1.595,0.497 0.625,-0.491 0.908,-1.371 0.98,-2.188 0.072,-0.539 0.029,-1.14 -0.316,-1.562"
   id="path595-1" />
				<path
   style="fill:#ffffff"
   d="m 250.537,407.715 c -0.149,-1.08 -1.465,-1.792 -2.382,-1.688 -0.348,0.021 -0.604,0.308 -0.79,0.607 -0.384,0.657 -0.724,1.421 -0.661,2.223 0.029,0.605 0.364,1.036 0.804,1.282 0.215,0.269 0.543,0.418 0.889,0.301 0.035,-0.017 0.076,-0.041 0.115,-0.063 0.293,-0.02 0.578,-0.109 0.825,-0.278 0.467,-0.259 0.743,-0.657 0.861,-1.103 0.243,-0.376 0.387,-0.826 0.339,-1.281"
   id="path596-0" />
				<path
   style="fill:#ffffff"
   d="m 247.721,445.58 c -0.523,-0.193 -0.984,0.012 -1.333,0.408 -0.17,0.123 -0.332,0.287 -0.465,0.487 -0.142,0.173 -0.271,0.395 -0.363,0.631 -0.19,0.146 -0.309,0.399 -0.225,0.72 -0.106,0.517 1.216,2.531 2.396,1.885 1.444,-0.847 1.722,-3.484 -0.01,-4.131"
   id="path597-5" />
				<path
   style="fill:#ffffff"
   d="m 261.169,436.392 c 0.151,-1.026 -0.367,-2.027 -1.583,-2.372 -1.255,-0.193 -1.92,0.753 -2.02,1.808 -0.025,0.069 -0.055,0.139 -0.077,0.204 -0.154,0.561 -0.336,1.182 -0.063,1.736 0.142,0.383 0.459,0.604 0.813,0.705 0.36,0.424 0.972,0.447 1.824,-0.265 0.79,-0.338 1.123,-1.065 1.106,-1.816"
   id="path598-1" />
				<path
   style="fill:#ffffff"
   d="m 264.283,411.633 c -0.25,0.149 -0.473,0.357 -0.665,0.601 -0.112,0.077 -0.216,0.19 -0.282,0.384 -0.008,0.026 -0.009,0.053 -0.016,0.079 -0.315,0.597 -0.466,1.311 -0.358,1.966 0.394,1.533 1.482,1.339 2.183,0.524 0.258,-0.14 0.52,-0.401 0.762,-0.811 0.833,-1.185 -0.233,-3.346 -1.624,-2.743"
   id="path599-8" />
				<path
   style="fill:#ffffff"
   d="m 283.511,442.685 c -0.009,-0.006 -0.016,-0.014 -0.021,-0.021 -0.108,-0.066 -0.351,-0.224 0.021,0.021"
   id="path600-9" />
				<path
   style="fill:#ffffff"
   d="m 305.456,431.253 v 0 c 0.012,0.009 0.018,0.013 0,0"
   id="path601-1" />
				<g
   id="g604">
					<path
   style="fill:#ffffff"
   d="m 293.361,408.638 c 0.338,-0.25 0.214,-0.879 -0.175,-0.981 -0.805,-0.051 -1.441,0.462 -1.809,1.175 -0.395,-0.134 -0.823,-0.294 -1.27,-0.462 0.131,-0.531 0.209,-1.074 0.171,-1.623 -0.123,-0.999 -0.555,-2.025 -1.256,-2.686 -0.066,-0.069 -0.142,-0.138 -0.216,-0.206 0.284,-0.327 0.565,-0.638 0.841,-0.951 0.36,0.328 0.863,0.567 1.309,0.419 0.35,-0.131 0.439,-0.688 0.174,-0.962 -0.391,-0.307 -0.351,-0.099 -0.609,-0.226 -0.04,-0.02 -0.078,-0.044 -0.118,-0.065 0.201,-0.222 0.408,-0.452 0.602,-0.66 0.256,-0.629 -0.604,-1.076 -0.916,-0.484 -10e-4,0 -0.005,0.002 -0.006,0.003 -0.005,-0.172 -0.004,-0.376 0,-0.665 10e-4,-0.156 -0.057,-0.307 -0.154,-0.413 -0.313,-0.369 -0.918,-0.092 -0.903,0.413 10e-4,0.507 -0.013,1.073 0.092,1.591 -0.371,0.404 -0.767,0.87 -1.146,1.341 -0.552,-0.379 -1.101,-0.674 -1.336,-0.712 -0.802,-0.392 -1.509,-0.554 -2.179,-0.528 -0.048,-0.553 -0.098,-1.121 -0.147,-1.676 0.255,-0.042 0.499,-0.146 0.729,-0.351 0.354,-0.376 1.061,-0.601 0.677,-1.329 -0.384,-0.604 -1.11,0.185 -1.058,0.131 -0.148,0.115 -0.299,0.225 -0.462,0.312 -0.021,-0.203 -0.04,-0.409 -0.061,-0.592 -0.169,-0.525 -0.936,-0.358 -0.919,0.202 0.006,0.06 0.012,0.118 0.015,0.176 -0.341,-0.134 -0.713,-0.282 -1.032,-0.323 -0.586,0.05 -0.644,1.046 -0.075,1.194 0.38,0.154 0.796,0.353 1.212,0.478 0.052,0.656 0.099,1.311 0.156,1.964 -0.057,0.021 -0.115,0.025 -0.172,0.051 -0.794,0.445 -1.435,1.086 -1.521,1.696 0,0.023 0.012,0.042 0.014,0.065 -0.559,0.604 -1.106,1.315 -1.497,2.108 -0.476,-0.189 -0.906,-0.403 -1.36,-0.634 0.009,-0.118 0.02,-0.236 0.011,-0.36 0.017,-0.396 0.113,-1.003 -0.385,-1.061 -0.523,-0.005 -0.587,0.493 -0.602,0.938 -0.195,-0.093 -0.387,-0.186 -0.608,-0.281 -0.651,-0.142 -0.988,0.935 -0.399,1.281 0.191,0.098 0.388,0.197 0.581,0.299 -0.242,0.291 -0.567,0.579 -0.904,0.845 -0.348,0.445 0.201,1.126 0.647,0.813 0.461,-0.293 0.897,-0.695 1.206,-1.179 0.445,0.222 0.898,0.435 1.357,0.622 -0.034,0.141 -0.064,0.284 -0.081,0.429 -0.064,1.27 0.093,2.677 0.692,3.778 0.061,0.1 0.137,0.188 0.206,0.281 -0.521,0.617 -1.045,1.234 -1.564,1.852 -0.422,-0.241 -0.867,-0.432 -1.314,-0.528 -0.948,-0.206 -1.292,1.154 -0.308,1.307 0.181,-0.049 0.48,0.058 0.793,0.226 -0.174,0.209 -0.351,0.417 -0.523,0.63 -0.222,0.507 0.433,0.999 0.783,0.582 0.188,-0.216 0.386,-0.444 0.577,-0.665 0.096,0.077 0.189,0.153 0.261,0.22 0.198,0.199 0.186,0.282 0.438,0.795 0.009,0.021 0.013,0.028 0.02,0.043 0.006,0.018 0.014,0.042 0.027,0.08 0.081,0.72 1.033,0.85 1.213,0.13 0.082,-0.565 -0.322,-1.069 -0.525,-1.558 -0.176,-0.244 -0.381,-0.465 -0.607,-0.668 0.479,-0.556 0.962,-1.126 1.445,-1.698 0.894,0.724 2.033,1.075 3.134,0.935 0.18,-0.024 0.382,-0.057 0.596,-0.098 0.065,0.433 0.134,0.884 0.212,1.349 -0.388,0.283 -0.761,0.602 -0.98,1.053 -0.267,0.601 0.511,1.176 0.926,0.688 0.086,-0.146 0.217,-0.288 0.366,-0.428 0.363,0.483 1.081,0.007 0.882,-0.649 0.201,-0.124 0.382,-0.219 0.505,-0.272 h 0.012 c 0.017,0.006 0.04,0.013 0.059,0.022 0.03,0.018 0.059,0.039 0.087,0.06 0.053,0.071 0.177,0.222 0.223,0.273 0.126,0.17 0.329,0.28 0.527,0.234 1.208,-0.38 -0.038,-1.907 -0.828,-1.868 -0.292,-0.018 -0.561,0.094 -0.818,0.241 -0.054,-0.333 -0.104,-0.659 -0.15,-0.985 0.413,-0.142 0.84,-0.319 1.259,-0.583 0.9,-0.707 1.814,-1.567 2.241,-2.723 0.019,-0.048 0.034,-0.099 0.05,-0.147 0.454,0.179 0.884,0.348 1.341,0.493 0,0.056 -0.01,0.112 -0.008,0.168 0.022,0.44 -0.172,0.986 0.102,1.354 0.281,0.331 0.827,0.082 0.816,-0.374 0.006,-0.347 0.02,-0.648 0.041,-0.916 0.215,0.04 0.433,0.079 0.671,0.105 0.808,0.012 0.814,-1.395 0,-1.382 -0.079,0 -0.184,-0.024 -0.279,-0.036 0.113,-0.124 0.254,-0.207 0.433,-0.259 0.176,-0.075 0.396,-0.052 0.548,-0.198 m -10.525,-4.115 c 0.264,-0.349 0.516,-0.454 0.808,-0.733 0.106,1.037 0.248,2.066 0.405,3.093 -0.851,-0.127 -1.703,-0.257 -2.547,-0.44 -0.027,-0.008 -0.049,-0.015 -0.073,-0.02 0.355,-0.629 0.85,-1.306 1.407,-1.9 m -1.33,6.318 c -0.452,-0.737 -0.676,-1.745 -0.604,-3.001 0.002,-0.039 0.016,-0.089 0.022,-0.132 0.044,0.012 0.085,0.032 0.131,0.043 0.89,0.2 1.789,0.337 2.689,0.473 -0.572,0.658 -1.143,1.314 -1.703,1.983 -0.176,0.213 -0.358,0.423 -0.535,0.634 m 2.222,1.38 c -0.595,-0.056 -1.102,-0.271 -1.527,-0.604 0.739,-0.874 1.478,-1.753 2.217,-2.63 0.049,0.245 0.095,0.497 0.15,0.744 0.142,0.788 0.254,1.582 0.366,2.407 -0.385,0.065 -0.789,0.088 -1.206,0.083 m 1.292,-5.488 c -0.13,-0.679 -0.246,-1.359 -0.32,-2.049 -0.037,-0.365 -0.079,-0.838 -0.125,-1.368 0.711,0.035 1.711,0.371 2.584,0.895 -0.082,0.101 -0.164,0.204 -0.237,0.3 -0.624,0.752 -1.264,1.487 -1.902,2.222 m 3.339,2.992 c -0.033,0.063 -0.088,0.15 -0.126,0.21 -0.738,1.013 -1.489,1.591 -2.285,1.915 -0.093,-0.624 -0.192,-1.28 -0.316,-2.014 -0.08,-0.453 -0.174,-0.901 -0.267,-1.35 0.805,0.138 1.605,0.29 2.392,0.518 0.289,0.078 0.549,0.164 0.803,0.25 -0.054,0.166 -0.096,0.279 -0.201,0.471 m 0.599,-1.774 c -0.219,-0.074 -0.437,-0.146 -0.648,-0.205 -0.778,-0.25 -1.57,-0.422 -2.367,-0.564 0.689,-0.813 1.371,-1.615 2.034,-2.378 0.372,0.333 0.679,0.704 0.85,1.114 0.173,0.452 0.27,0.601 0.275,1.251 -0.041,0.264 -0.086,0.524 -0.144,0.782"
   id="path602-8" />
					<path
   style="fill:#ffffff"
   d="m 287.392,430.95 c -0.035,0.011 -0.069,0.022 -0.102,0.035 0.139,-0.351 0.304,-0.743 0.467,-1.136 0.097,-0.531 -0.622,-0.8 -0.85,-0.325 -0.246,0.534 -0.609,1.197 -0.791,1.858 -1.086,0.36 -2.155,0.703 -3.138,1.092 -0.023,-0.108 -0.035,-0.221 -0.063,-0.322 -0.197,-0.656 -0.586,-1.185 -1.034,-1.648 0.267,-0.262 0.528,-0.509 0.789,-0.755 0.02,0.023 0.033,0.048 0.058,0.067 0.495,0.363 1.959,0.88 2.174,-0.02 -0.055,-0.914 -0.76,-0.443 -0.958,-0.522 -0.013,-0.002 -0.026,-0.004 -0.038,-0.004 -0.225,-0.044 -0.451,-0.147 -0.515,-0.178 0.164,-0.144 0.329,-0.299 0.486,-0.431 0.384,-0.665 -0.353,-1.125 -0.82,-0.68 -0.014,-0.431 -0.007,-0.905 0.031,-1.21 -0.033,-0.51 -0.749,-0.56 -0.857,-0.063 -0.053,0.607 -0.146,1.414 -0.016,2.096 -0.343,0.334 -0.685,0.668 -1.027,1.004 -0.506,-0.455 -1.067,-0.824 -1.699,-1.056 -0.788,-0.338 -1.621,-0.664 -2.48,-0.601 0,-0.62 0.023,-1.242 0.044,-1.864 0.004,0 0.006,0.002 0.01,0 0.455,-0.059 0.854,-0.345 1.26,-0.556 0.208,-0.093 0.396,-0.317 0.345,-0.585 -0.075,-0.578 -0.665,-0.488 -0.985,-0.207 -0.354,0.172 -0.459,0.265 -0.602,0.304 0.018,-0.444 0.033,-0.893 0.042,-1.335 -0.158,-0.485 -0.873,-0.334 -0.854,0.189 -0.019,0.213 -0.024,0.431 -0.042,0.644 -0.207,-0.236 -0.409,-0.526 -0.511,-0.813 -0.289,-0.569 -1.097,-0.052 -0.788,0.508 0.277,0.561 0.69,1.222 1.219,1.584 -0.039,0.84 -0.063,1.679 -0.068,2.516 -0.063,0.099 -0.106,0.204 -0.11,0.316 -0.724,0.281 -1.391,0.715 -1.983,1.256 -0.48,-0.742 -0.952,-1.492 -1.407,-2.253 0.02,-0.021 0.047,-0.032 0.065,-0.056 0.136,-0.212 0.263,-0.464 0.321,-0.716 0.072,-0.398 -0.366,-0.707 -0.671,-0.496 -0.123,0.077 -0.184,0.207 -0.239,0.345 -0.148,-0.27 -0.313,-0.526 -0.452,-0.802 -0.268,-0.528 -1.033,-0.051 -0.743,0.479 0.159,0.306 0.334,0.597 0.503,0.896 -0.564,0.213 -1.015,0.231 -1.44,0.475 -0.28,0.288 -0.072,0.856 0.316,0.843 0.518,-0.102 1.096,-0.224 1.605,-0.461 0.482,0.824 0.978,1.634 1.487,2.439 -0.323,0.385 -0.619,0.798 -0.87,1.245 -0.155,-0.038 -0.307,-0.079 -0.468,-0.11 -1.109,-0.285 -2.214,-0.576 -3.324,-0.854 -0.127,-0.649 -0.329,-1.282 -0.669,-1.797 -0.326,-0.313 -0.825,0.175 -0.597,0.576 0.137,0.205 0.263,0.59 0.366,0.995 -0.002,0 -0.005,0 -0.007,0 -0.135,-0.042 -0.281,-0.02 -0.4,0.056 -0.389,0.236 -0.315,0.938 0.123,1.055 0.175,0.046 0.352,0.088 0.523,0.133 0.009,0.075 0.011,0.135 0.004,0.161 -0.041,0.39 -0.281,0.649 -0.49,1.222 -0.257,0.414 0.068,0.993 0.515,0.738 0.287,-0.275 0.146,-0.308 0.388,-0.727 0.179,-0.372 0.382,-0.752 0.398,-1.189 1.044,0.263 2.093,0.526 3.132,0.814 -0.293,0.744 -0.479,1.535 -0.551,2.335 -0.941,0.327 -1.881,0.67 -2.809,1.032 -0.442,-0.383 -0.949,-0.791 -1.408,-0.776 -0.395,0.107 -0.473,0.751 -0.111,0.967 0.145,0.102 0.265,0.185 0.387,0.265 -0.025,0.012 -0.049,0.02 -0.075,0.03 -0.392,0.298 -0.066,1.032 0.395,0.873 0.186,-0.074 0.375,-0.143 0.563,-0.216 0.169,0.225 0.164,0.478 0.093,1.044 -0.006,0.351 -0.18,0.206 -0.129,0.734 0.101,0.465 0.72,0.554 0.927,0.135 0.273,-0.671 0.37,-1.589 0.062,-2.276 0.696,-0.256 1.392,-0.502 2.081,-0.722 0.034,0.653 0.153,1.303 0.37,1.931 0.005,0.01 0.011,0.02 0.014,0.031 -0.204,0.171 -0.403,0.355 -0.607,0.524 -0.716,0.649 -1.434,1.292 -2.147,1.941 -0.475,-0.227 -0.999,-0.338 -1.492,-0.3 -0.715,-0.022 -0.689,1.144 0.031,0.993 0.169,-0.062 0.411,-0.026 0.669,0.057 -0.286,0.27 -0.581,0.529 -0.858,0.809 -0.081,0.087 -0.125,0.208 -0.125,0.33 -0.012,0.406 0.475,0.632 0.726,0.334 0.37,-0.354 0.74,-0.684 1.108,-1.023 0.231,0.178 0.403,0.369 0.432,0.527 0.336,0.7 0.147,1.346 0.624,1.653 0.391,0.21 0.763,-0.304 0.608,-0.682 -0.104,-0.464 -0.225,-0.921 -0.402,-1.358 -0.127,-0.309 -0.32,-0.572 -0.549,-0.799 0.8,-0.725 1.595,-1.436 2.39,-2.13 0.815,1.329 2.485,2.433 4.039,2.27 0.054,-0.005 0.1,-0.007 0.153,-0.011 0.069,0.915 0.116,1.743 0.131,2.66 -0.497,0.226 -0.968,0.571 -1.306,0.871 -0.298,0.382 0.17,0.963 0.556,0.694 0.245,-0.218 0.507,-0.387 0.753,-0.517 0,0.168 0,0.318 -0.003,0.497 0.15,1.013 1.273,0.621 1.05,-0.392 0.005,-0.15 0,-0.285 0,-0.431 0.021,0.003 0.043,0.005 0.049,0.013 0.255,0.117 0.406,0.703 0.805,0.93 0.365,0.124 0.701,-0.357 0.5,-0.715 -0.176,-0.306 -0.388,-0.586 -0.626,-0.831 -0.219,-0.22 -0.472,-0.322 -0.74,-0.347 -0.034,-0.889 -0.112,-1.695 -0.193,-2.519 0.767,-0.085 1.425,-0.272 2.671,-1.066 0.088,-0.055 0.166,-0.104 0.249,-0.155 0.17,0.169 0.34,0.337 0.501,0.514 0.221,0.257 0.472,0.651 0.745,1.097 -0.4,0.271 -0.758,0.619 -1.023,1.006 -0.217,0.496 0.423,0.969 0.762,0.567 0.228,-0.267 0.515,-0.515 0.804,-0.706 0.144,0.226 0.292,0.446 0.441,0.657 0.173,0.254 0.353,0.578 0.673,0.566 0.48,0.016 0.747,-0.685 0.397,-1.047 -0.076,-0.094 -0.193,-0.272 -0.338,-0.5 0.016,0.007 0.037,0.008 0.05,0.018 0.122,0.087 0.182,0.128 0.216,0.155 0.003,0 0.005,0.002 0.005,0.005 0,0 0,0 0,0.002 0.021,0.015 0.03,0.024 0.042,0.034 -0.012,-0.008 -0.013,-0.011 -0.021,-0.016 0.269,0.266 0.51,0.528 0.801,0.362 0.96,-0.65 -0.585,-1.647 -1.2,-1.671 -0.181,0.002 -0.365,0.034 -0.544,0.078 -0.343,-0.535 -0.705,-1.081 -1.001,-1.436 -0.12,-0.12 -0.24,-0.238 -0.359,-0.354 0.451,-0.378 0.819,-0.819 1.257,-1.564 0.118,-0.32 0.22,-0.652 0.31,-0.988 0.694,0.279 1.373,0.582 2.052,0.906 -0.051,0.293 -0.088,0.586 -0.1,0.883 -0.008,0.23 -0.056,0.493 0.116,0.669 0.26,0.306 0.765,0.075 0.751,-0.343 -0.004,-0.258 0.02,-0.527 0.057,-0.792 0.247,0.127 0.497,0.24 0.747,0.376 0.687,0.142 0.98,-1.016 0.332,-1.306 -0.228,-0.131 -0.457,-0.248 -0.684,-0.366 0.024,-0.027 0.045,-0.054 0.066,-0.065 0.245,-0.183 0.547,-0.083 1.197,0.015 0.457,0.222 0.902,-0.41 0.538,-0.818 -0.338,-0.271 -0.825,-0.183 -1.224,-0.268 -0.556,-0.072 -1.085,0.228 -1.382,0.735 -0.728,-0.343 -1.454,-0.645 -2.192,-0.916 0.115,-0.762 0.141,-1.54 0.08,-2.303 0.959,-0.382 1.944,-0.688 2.926,-0.993 0.058,0.262 0.166,0.515 0.378,0.739 0.373,0.324 1.145,0.899 1.545,0.379 0.348,-0.531 -0.178,-0.904 -0.614,-0.996 -0.148,-0.119 -0.319,-0.14 -0.384,-0.42 0.204,-0.065 0.408,-0.129 0.608,-0.198 0.902,0.068 0.949,-1.437 -0.199,-1.08 m -11.702,-0.71 c 0.126,-0.061 0.256,-0.099 0.39,-0.146 0.008,1.12 0.042,2.24 0.073,3.363 -0.304,-0.438 -0.598,-0.874 -0.865,-1.304 -0.222,-0.362 -0.456,-0.721 -0.685,-1.078 0.39,-0.413 0.775,-0.715 1.087,-0.835 m -1.713,1.587 c 0.194,0.308 0.378,0.622 0.566,0.931 -0.306,-0.13 -0.612,-0.265 -0.938,-0.38 0.118,-0.19 0.244,-0.374 0.372,-0.551 m -0.917,1.614 c 0.393,0.124 0.788,0.244 1.179,0.381 0.3,0.133 0.764,0.377 1.28,0.633 -0.853,0.158 -1.804,0.355 -2.905,0.643 0.079,-0.531 0.224,-1.083 0.446,-1.657 m -0.52,2.76 c 0.865,-0.25 1.716,-0.471 2.516,-0.621 0.003,0 0.007,-0.002 0.013,-0.003 -0.769,0.696 -1.534,1.396 -2.3,2.06 -0.139,-0.442 -0.215,-0.922 -0.229,-1.436 m 2.978,4.071 c -1.016,-0.21 -1.843,-0.841 -2.368,-1.754 1.025,-0.894 2.047,-1.787 3.061,-2.693 0.041,1.484 0.075,2.962 0.067,4.442 -0.231,0.005 -0.48,0.005 -0.76,0.005 m 6.288,-7.462 c -0.904,0.226 -1.813,0.432 -2.71,0.69 -0.147,0.027 -0.29,0.065 -0.434,0.098 0.762,-0.696 1.526,-1.439 2.277,-2.176 0.412,0.461 0.828,1.019 0.867,1.388 m -4.816,-3 c 0.106,-0.025 0.214,-0.058 0.321,-0.081 0.02,-0.005 0.022,-0.005 0.027,-0.006 l 0.021,-0.003 c 0.177,-0.031 0.376,-0.041 0.542,-0.113 0.777,0.199 1.702,0.632 2.348,1.121 -1.062,1.032 -2.123,2.049 -3.185,3.04 -0.046,-1.318 -0.087,-2.636 -0.074,-3.958 m 1.361,10.088 c -0.059,0.023 -0.152,0.068 -0.216,0.101 -0.31,0.099 -0.588,0.16 -0.881,0.203 0.002,-1.219 -0.035,-2.434 -0.083,-3.649 0.476,0.643 0.939,1.272 1.372,1.918 0.23,0.318 0.491,0.607 0.756,0.89 -0.401,0.249 -0.777,0.467 -0.948,0.537 m 2.223,-1.44 c -0.071,0.067 -0.189,0.163 -0.331,0.268 -0.139,-0.134 -0.272,-0.264 -0.406,-0.397 -0.671,-0.88 -1.505,-1.925 -2.343,-3.032 0.062,0.019 0.126,0.046 0.184,0.061 1.43,0.435 2.709,0.849 3.921,1.3 -0.223,0.825 -0.561,1.515 -1.025,1.8 m 1.261,-3.06 c -0.865,-0.286 -1.767,-0.563 -2.696,-0.846 0.921,-0.246 1.846,-0.471 2.767,-0.703 0.014,0.487 -0.005,1.017 -0.071,1.549"
   id="path603-1" />
					<path
   style="fill:#ffffff"
   d="m 314.092,420.489 c -0.537,-0.37 -1.359,0.036 -1.924,0.205 -0.337,0.091 -0.68,0.326 -0.685,0.747 0,0.017 0.002,0.033 0.002,0.05 -0.314,-0.092 -0.658,-0.201 -1.002,-0.315 -0.014,-1.229 -0.398,-2.396 -1.016,-3.409 0.676,-0.366 1.309,-0.719 1.776,-0.939 0.193,0.213 0.485,0.423 0.892,0.637 0.279,0.211 0.178,0.132 0.309,0.254 0.066,0.05 0.264,0.28 0.317,0.336 0.092,0.203 0.304,0.353 0.512,0.301 1.129,-0.527 -0.194,-1.491 -1.005,-1.987 0.105,-0.047 0.231,-0.096 0.396,-0.162 0.161,-0.052 0.321,-0.129 0.404,-0.302 0.296,-0.589 -0.366,-1.096 -0.836,-0.741 -0.015,0.006 -0.037,0.017 -0.054,0.023 0.218,-0.425 0.694,-0.824 0.647,-1.29 -0.077,-0.331 -0.485,-0.454 -0.701,-0.202 -0.514,0.79 -1.056,1.461 -1.187,2.076 -0.677,0.338 -1.392,0.722 -2.101,1.108 -0.384,-0.462 -0.815,-0.878 -1.284,-1.227 0.471,-0.623 1.022,-1.278 1.58,-1.955 0.049,-0.011 0.097,-0.023 0.142,-0.035 -0.006,-0.054 1.191,-0.016 1.208,0.03 0.364,0.127 0.824,0.052 0.838,-0.462 -0.045,-0.633 -0.766,-0.615 -1.316,-0.609 0.094,-0.126 0.197,-0.249 0.293,-0.374 0.147,-0.161 0.199,-0.425 0.108,-0.632 -0.313,-0.699 -0.846,-0.226 -1.369,0.432 0.028,-0.4 0.057,-0.739 0.057,-0.69 0.262,-0.742 -0.526,-1.281 -0.844,-0.511 -0.09,0.809 -0.214,1.64 -0.181,2.453 0.001,0.004 0.003,0.006 0.004,0.012 -0.058,0.066 -0.114,0.126 -0.162,0.168 -0.46,0.564 -0.876,1.099 -1.282,1.619 -0.94,-0.471 -1.964,-0.757 -2.992,-0.932 -0.012,-0.652 -0.022,-1.3 -0.029,-1.95 0.284,-0.2 0.5,-0.462 0.627,-0.536 0.528,-0.327 0.592,-0.371 1.271,-0.564 0.22,-0.032 0.435,-0.22 0.45,-0.478 0.056,-0.849 -0.877,-0.612 -1.326,-0.377 -0.353,0.144 -0.711,0.306 -1.015,0.555 -0.005,0.004 -0.02,0.02 -0.032,0.028 -0.007,-0.364 -0.012,-0.733 -0.019,-1.1 -0.158,-0.482 -0.87,-0.329 -0.853,0.191 -0.002,0.343 0.004,0.685 0.004,1.027 -0.327,-0.288 -0.803,-0.718 -1.161,-0.988 -0.494,-0.268 -0.962,0.511 -0.563,0.921 0.518,0.387 1.128,1.129 1.731,1.424 0.003,0.575 0.002,1.148 0.005,1.722 -0.074,-0.008 -0.147,-0.023 -0.224,-0.03 -0.372,-0.017 -0.736,0.042 -1.097,0.127 -0.13,-0.068 -0.285,-0.075 -0.423,0.02 -0.024,0.017 -0.053,0.032 -0.08,0.048 -0.039,0.009 -0.077,0.018 -0.107,0.028 -0.157,0.084 -0.301,0.132 -0.114,0.054 -0.11,0.044 -0.237,0.068 -0.325,0.167 -0.064,0.047 -0.113,0.107 -0.148,0.176 -0.418,0.255 -0.83,0.523 -1.232,0.812 -0.345,-0.415 -0.693,-0.828 -1.038,-1.244 0.022,-0.056 0.052,-0.105 0.07,-0.168 0.096,-0.479 0.711,-0.983 0.39,-1.456 -0.568,-0.543 -0.881,0.16 -1.153,0.798 -0.138,-0.161 -0.271,-0.327 -0.41,-0.488 -0.438,-0.498 -1.154,0.273 -0.692,0.767 0.141,0.173 0.295,0.359 0.44,0.535 -0.324,0.102 -0.842,0.248 -0.985,0.216 -0.649,-0.013 -0.649,1.113 0,1.102 0.566,-0.052 1.189,-0.166 1.673,-0.486 0.296,0.361 0.585,0.71 0.886,1.073 -0.603,0.533 -1.138,1.149 -1.525,1.901 -0.087,0.188 -0.158,0.382 -0.228,0.571 -0.6,-0.096 -1.198,-0.193 -1.794,-0.293 -0.025,-0.09 -0.052,-0.179 -0.08,-0.266 -0.213,-0.607 -0.375,-1.253 -0.632,-1.836 -0.266,-0.427 -0.913,-0.068 -0.772,0.426 0.139,0.463 0.358,1.04 0.511,1.516 -0.232,-0.037 -0.463,-0.076 -0.695,-0.113 -0.548,0.047 -0.612,0.991 -0.068,1.133 0.233,0.047 0.466,0.084 0.7,0.128 -0.142,0.156 -0.554,0.398 -0.885,0.765 -0.109,0.132 -0.176,0.258 -0.266,0.392 -0.254,0.449 0.248,1.003 0.657,0.724 0.393,-0.399 0.237,-0.442 0.624,-0.752 -0.137,0.121 0.588,-0.429 0.86,-0.949 0.504,0.09 1.003,0.188 1.506,0.274 -0.181,0.931 -0.182,1.897 -0.02,2.831 -0.616,0.274 -1.23,0.548 -1.843,0.834 -0.292,-0.327 -0.614,-0.613 -0.912,-0.833 -0.575,-0.604 -1.364,0.263 -0.707,0.807 0.207,0.15 0.41,0.308 0.596,0.475 -0.195,0.087 -0.383,0.19 -0.525,0.354 -0.203,0.359 0.133,0.851 0.506,0.723 0.223,-0.106 0.453,-0.199 0.68,-0.306 0.179,0.308 0.267,0.638 0.219,1.001 -0.198,0.532 0.493,1.017 0.848,0.571 0.338,-0.679 0.204,-1.37 -0.131,-1.99 0.502,-0.224 1.002,-0.458 1.508,-0.676 0.145,0.47 0.331,0.922 0.573,1.347 0.243,0.524 0.551,0.987 0.889,1.411 -0.398,0.508 -0.796,1.016 -1.197,1.525 -0.297,-0.187 -0.607,-0.338 -0.914,-0.443 -0.292,-0.041 -0.609,-0.253 -0.893,-0.081 -0.35,0.21 -0.275,0.84 0.112,0.941 0.4,0.071 0.748,0.224 1.065,0.406 -0.21,0.285 -0.452,0.582 -0.39,0.95 0.094,0.417 0.646,0.503 0.837,0.123 0.108,-0.155 0.23,-0.314 0.344,-0.472 0.15,0.159 0.278,0.324 0.382,0.491 0.174,0.207 -0.007,0.362 0.353,0.683 0.351,0.248 0.83,-0.156 0.706,-0.598 -0.143,-0.542 -0.451,-1.006 -0.834,-1.394 0.352,-0.468 0.719,-0.941 1.088,-1.419 1.257,1.178 2.898,1.81 4.601,1.804 0.007,0.512 0.009,1.021 0.011,1.533 -0.607,0.238 -1.259,0.465 -1.744,0.935 -0.315,0.403 0.179,1.017 0.585,0.732 0.414,-0.281 0.745,-0.444 1.161,-0.601 0.023,0.604 0.584,1.029 0.987,0.43 0.014,-0.203 0.027,-0.427 0.035,-0.662 0.012,0.003 0.022,0.01 0.034,0.013 0.008,0.004 0.018,0.011 0.025,0.017 0.004,0.003 0.004,0.003 0.01,0.008 0.244,0.143 0.385,1.027 1.017,1.113 0.342,0.009 0.607,-0.38 0.511,-0.738 -0.191,-0.307 -0.195,-0.31 -0.198,-0.314 0.007,0.009 0.007,0.007 0.011,0.011 0.002,0.002 0.002,0.002 0.004,0.004 0.014,0.011 0.023,0.019 0.041,0.035 -0.011,-0.008 -0.016,-0.016 -0.024,-0.024 0.07,0.049 0.003,-0.008 -0.035,-0.036 -0.351,-0.354 -0.32,-0.507 -0.784,-0.91 -0.179,-0.139 -0.383,-0.192 -0.593,-0.211 0.003,-0.455 -0.002,-0.929 -0.013,-1.421 1.443,-0.258 2.564,-0.879 3.746,-1.938 0.192,0.302 0.395,0.628 0.704,1.044 -0.007,0.026 -0.026,0.05 -0.032,0.075 -0.106,0.586 -0.374,1.319 -0.231,1.898 0.178,0.358 0.704,0.281 0.791,-0.115 0.049,-0.471 0.105,-0.832 0.18,-1.127 0.222,0.201 0.411,0.363 0.504,0.476 0.334,0.393 0.986,0.098 0.966,-0.442 -0.096,-0.504 -0.065,-0.307 -0.357,-0.671 -0.139,-0.091 -0.267,-0.204 -0.393,-0.324 0.251,-0.066 0.565,-0.056 0.979,0.005 0.361,0.023 0.742,0.317 1.089,0.122 1.026,-1.18 -1.333,-1.259 -1.961,-1.157 -0.271,0.02 -0.522,0.125 -0.754,0.27 -0.21,-0.289 -0.425,-0.602 -0.658,-0.941 0.675,-1.038 1.317,-2.14 1.703,-3.342 0.42,0.158 0.844,0.303 1.271,0.402 0.044,0.324 0.091,0.647 0.134,0.971 0.059,0.236 0.057,0.537 0.272,0.672 0.295,0.206 0.696,-0.134 0.595,-0.503 -0.076,-0.317 -0.13,-0.675 -0.178,-1.023 0.178,0.01 0.348,0.02 0.522,0.002 0.628,-0.256 0.392,-1.352 -0.272,-1.3 -0.092,0.006 -0.221,-0.013 -0.379,-0.043 -0.002,-0.029 -0.003,-0.055 -0.005,-0.079 0.186,-0.054 0.612,-0.207 0.854,-0.245 0.031,-0.001 0.317,-0.033 0.407,-0.035 0.188,-0.009 0.401,0.017 0.543,-0.153 0.172,-0.186 0.171,-0.519 0,-0.702 M 300.5,415.633 c 0.026,0.011 0.049,0.026 0.075,0.034 0.086,0.077 0.364,-0.017 0.517,-0.074 0.02,-0.013 0.041,-0.017 0.061,-0.022 0.01,0 0.01,0 0.026,0.002 0.788,-0.111 0.867,-0.228 1.57,-0.168 0.02,1.411 0.05,2.824 0.077,4.238 -0.027,-0.005 -0.054,-0.013 -0.088,-0.018 -0.008,-0.008 -0.012,-0.016 -0.022,-0.024 -1.072,-1.066 -2.081,-2.203 -3.069,-3.363 0.283,-0.206 0.566,-0.415 0.853,-0.605 m -1.691,1.238 c 0.678,0.808 1.366,1.615 2.06,2.414 -0.071,-0.016 -0.143,-0.023 -0.216,-0.038 -1.081,-0.168 -2.163,-0.342 -3.247,-0.519 0.306,-0.781 0.765,-1.327 1.403,-1.857 m -1.726,3.01 c 1.255,0.206 2.506,0.405 3.758,0.607 -1.258,0.522 -2.518,1.047 -3.768,1.593 -0.117,-0.721 -0.117,-1.462 0.01,-2.2 m 0.228,3.179 c 1.467,-0.619 2.939,-1.224 4.411,-1.826 -1.077,1.352 -2.152,2.705 -3.221,4.066 -0.535,-0.675 -0.933,-1.438 -1.19,-2.24 m 3.164,3.973 c -0.489,-0.288 -0.919,-0.638 -1.314,-1.018 1.177,-1.482 2.422,-3.001 3.671,-4.516 0.013,0.014 0.023,0.026 0.039,0.037 0.03,1.471 0.067,2.94 0.101,4.407 0.009,0.519 0.017,1.036 0.023,1.555 -0.828,0.007 -1.654,-0.178 -2.52,-0.465 m 6.287,-10.321 c 0.015,0.012 0.028,0.021 0.042,0.032 0.288,0.238 0.58,0.497 0.857,0.767 -0.59,0.311 -1.154,0.595 -1.656,0.816 -0.283,0.123 -0.57,0.236 -0.851,0.358 0.545,-0.663 1.087,-1.324 1.608,-1.973 m -3.049,0.398 c -0.021,-0.51 -0.025,-1.023 -0.039,-1.534 0.619,0.136 1.437,0.342 2.116,0.606 -0.619,0.8 -1.258,1.603 -2.023,2.48 -0.015,-0.515 -0.029,-1.035 -0.054,-1.552 m 0.299,10.267 c -0.032,-0.819 -0.075,-1.633 -0.122,-2.371 -0.023,-0.809 -0.031,-1.616 -0.045,-2.424 1.03,1.084 2.045,2.094 3.019,2.96 0.065,0.066 0.121,0.128 0.179,0.191 -1.076,0.934 -2.067,1.442 -3.031,1.644 m 5.077,-4.958 c -0.346,0.795 -0.854,1.762 -1.261,2.409 -1.218,-1.221 -2.588,-2.406 -3.897,-3.82 1.765,0.313 3.521,0.663 5.258,1.095 -0.027,0.128 -0.058,0.241 -0.1,0.316 m -0.274,-1.801 c -1.34,-0.253 -2.69,-0.458 -4.036,-0.669 1.021,-0.434 2.04,-0.878 3.048,-1.35 0.178,-0.082 0.362,-0.171 0.548,-0.263 0.114,0.163 0.222,0.328 0.305,0.501 0.316,0.483 0.491,1.224 0.552,1.92 -0.147,-0.05 -0.29,-0.099 -0.417,-0.139"
   id="path604-0" />
				</g>
				<path
   style="fill:#627eb5"
   d="m 206.176,400.457 c -0.5,-0.229 -1.109,-0.186 -1.579,0.319 -0.43,0.384 -0.795,1.082 -0.349,1.598 0.318,0.387 0.848,0.595 1.359,0.591 0.582,0.311 1.247,0.16 1.451,-0.859 0.018,-0.13 0.008,-0.254 -0.003,-0.377 0.071,-0.608 -0.269,-1.207 -0.879,-1.272"
   id="path605-9" />
				<path
   style="fill:#627eb5"
   d="m 229.558,411.425 c -0.087,-0.439 -0.391,-0.697 -0.729,-0.788 -0.217,-0.143 -0.479,-0.205 -0.733,-0.133 -0.784,0.287 -1.1,1.396 -0.85,2.166 0.222,0.713 1.146,0.917 1.725,0.55 0.549,-0.379 0.71,-1.153 0.587,-1.795"
   id="path606-7" />
				<path
   style="fill:#627eb5"
   d="m 203.662,429.36 c -0.153,-0.208 -0.407,-0.339 -0.671,-0.382 -0.43,-0.275 -0.98,-0.248 -1.498,0.372 -0.787,0.712 -0.823,2.243 0.268,2.648 0.291,0.085 0.556,0.021 0.783,-0.097 0.387,0.05 0.799,-0.127 0.994,-0.534 0.104,-0.188 0.164,-0.388 0.194,-0.59 0.244,-0.453 0.307,-0.991 -0.07,-1.417"
   id="path607-3" />
				<path
   style="fill:#627eb5"
   d="m 213.287,442.1 c -0.048,-0.014 -0.092,-0.016 -0.136,-0.019 0.045,-0.537 -0.441,-0.987 -1.059,-0.527 -0.113,0.097 -0.211,0.213 -0.3,0.338 -1.098,0.342 -1.317,2.308 -0.11,2.698 0.106,0.032 0.223,0.032 0.342,0.017 0.134,0.085 0.286,0.132 0.466,0.073 0.364,-0.145 0.612,-0.436 0.755,-0.78 0.564,-0.604 0.824,-1.423 0.042,-1.8"
   id="path608-9" />
				<path
   style="fill:#627eb5"
   d="m 257.709,413.555 c -1.267,-0.837 -2.809,0.361 -2.087,1.811 0.19,0.34 0.508,0.492 0.841,0.5 0.005,0.002 0.007,0.006 0.011,0.01 0.606,0.385 1.444,0.106 1.723,-0.575 0.282,-0.599 0.092,-1.42 -0.488,-1.746"
   id="path609-1" />
				<path
   style="fill:#627eb5"
   d="m 262.629,426.406 c 0.146,-0.42 -0.108,-0.948 -0.713,-0.834 -0.063,0.018 -0.12,0.048 -0.18,0.075 -0.791,-0.088 -1.737,0.632 -1.717,1.161 -0.108,0.411 0.117,0.676 0.425,0.794 0.009,0.054 0.005,0.109 0.017,0.163 0.058,0.374 0.248,0.786 0.669,0.773 0.754,-0.184 1.561,-0.928 1.599,-1.775 -0.028,-0.132 -0.061,-0.251 -0.1,-0.357"
   id="path610-2" />
				<path
   style="fill:#627eb5"
   d="m 263.871,403.026 c -0.064,-0.562 -0.482,-0.729 -0.945,-0.697 -0.546,-0.212 -1.32,0.026 -1.618,0.722 -0.647,1.179 0.875,2.57 1.903,1.69 0.52,-0.37 0.89,-1.059 0.66,-1.715"
   id="path611-6" />
				<path
   style="fill:#627eb5"
   d="m 298.691,441.524 c -0.415,-0.482 -1.082,-0.767 -1.692,-0.564 -0.745,0.253 -1.439,1.267 -0.811,1.986 0.136,0.162 0.315,0.267 0.511,0.336 0.23,0.348 0.581,0.587 1.032,0.559 0.946,-0.082 1.663,-1.548 0.96,-2.317"
   id="path612-2" />
				<path
   style="fill:#627eb5"
   d="m 309.02,437.133 c -1.019,-0.53 -2.222,0.716 -2.064,1.783 0.225,0.795 1.002,0.955 1.635,0.697 1.208,-0.146 1.642,-1.786 0.429,-2.48"
   id="path613-6" />
				<path
   style="fill:#627eb5"
   d="m 305.824,401.568 c -0.208,-0.108 -0.439,-0.133 -0.667,-0.121 -0.685,-0.144 -1.487,0.082 -1.701,0.758 -0.223,0.533 0.053,1.31 0.664,1.232 0.05,0.102 0.126,0.196 0.24,0.264 0.354,0.209 0.779,0.201 1.165,0.091 1.069,-0.342 1.295,-1.621 0.299,-2.224"
   id="path614-6" />
				<path
   style="fill:#627eb5"
   d="m 317.278,406.565 c -0.121,0.009 -0.223,0.057 -0.305,0.127 -0.03,-0.01 -0.053,-0.028 -0.087,-0.033 -0.798,-0.18 -1.581,0.671 -1.652,1.461 -0.003,0.867 0.992,1.473 1.736,1.138 0.638,-0.365 1.301,-1.013 1.423,-1.787 -0.003,-0.563 -0.622,-0.944 -1.115,-0.906"
   id="path615-5" />
			</g>
		</g>
		<g
   id="g633">
			<defs
   id="defs616" />
			<clipPath
   id="SVGID_00000036237026304973730070000001071329639595601594_">
				<use
   xlink:href="#SVGID_00000126287247658762208690000002698823706501686201_"
   style="overflow:visible"
   id="use616" />
			</clipPath>
			<g
   clip-path="url(#SVGID_00000036237026304973730070000001071329639595601594_)"
   id="g632">
				<path
   style="fill:#669cd3"
   d="m 313.597,450.93 c -0.278,-0.628 -0.532,-0.473 -0.825,-0.551 -0.266,-0.052 -0.519,0.071 -0.736,0.218 -0.944,0.171 -0.979,0.126 -2.1,0.255 -2.596,0.438 -7.215,0.784 -9.813,0.409 -3.667,-0.915 -8.648,-2.282 -12.219,-4.238 -3.185,-1.452 -5.825,-4.896 -8.375,-6.813 -1.686,-1.227 -3.393,-2.446 -5.19,-3.5 -3.149,-1.617 -6.537,-2.706 -9.907,-3.73 -2.166,-0.761 -4.463,-0.942 -6.727,-1.23 -3.717,-0.408 -7.467,-0.74 -11.195,-0.265 -4.108,0.541 -8.055,1.919 -11.848,3.574 -2.942,1.157 -6.744,2.877 -9.772,5.096 -2.95,2.004 -6.043,3.761 -9.061,5.646 -3.13,2.041 -5.72,3.768 -9.298,4.243 -2.239,0.453 -6.826,-0.761 -9.155,-1.793 -0.416,-0.15 -0.795,-0.493 -1.21,-0.635 0.004,-0.02 0.009,-0.04 0.01,-0.063 0.019,-0.052 0.025,-0.088 0.018,-0.104 -0.022,-0.503 -0.554,-1.023 -1.135,-0.587 -0.099,0.064 -0.165,0.161 -0.212,0.271 -0.007,0.023 -0.021,0.051 -0.04,0.105 -0.152,0.455 -0.197,0.932 -0.113,1.402 -0.393,1.096 0.401,1.247 0.493,1.912 1.204,4.818 3.931,8.344 6.749,11.896 2.454,3.448 6.585,8.506 11.186,10.491 3.942,1.327 8.139,1.844 11.742,0.665 6.921,-2.818 11.583,-7.704 17.253,-12.253 4.719,-3.946 11.423,-7.103 17.849,-8.436 2.946,-0.466 5.145,-1.365 7.86,-1.015 3.698,-0.035 7.34,1.354 11.256,2.523 2.822,0.859 5.17,1.52 7.512,2.718 1.32,0.578 4.184,2.311 6.004,3.403 2.907,1.322 5.958,2.247 8.451,3.384 1.274,0.541 2.487,1.281 3.872,1.487 0.207,0.024 0.421,-0.072 0.567,-0.215 2.046,-2.035 2.891,-5.416 4.554,-7.965 0.822,-1.697 1.939,-3.218 2.861,-4.857 0.057,-0.063 0.14,-0.156 0.182,-0.207 0.306,-0.331 0.61,-0.768 0.512,-1.241"
   id="path616-0" />
				<path
   style="fill:#92c4fc"
   d="m 309.271,457.396 c -0.77,-1.6 -2.71,-1.05 -4.136,-1.142 -1.95,-0.138 -5.05,-0.44 -7.599,-0.572 -1.595,-0.161 -4.485,-1.223 -6.612,-1.882 -5.001,-1.509 -9.442,-5.882 -14.254,-8.863 -3.248,-2.179 -6.978,-3.298 -10.716,-4.253 -4.407,-1.217 -9.061,-0.88 -13.497,-0.005 -7.95,1.757 -15.298,5.682 -21.9,10.446 -4.983,3.569 -9.282,8.102 -13.811,11.045 -2.35,1.574 -5.091,3.011 -7.42,3.265 -0.338,-0.172 -0.747,-0.397 -1.237,-0.603 -0.926,-0.216 -1.9,-0.302 -2.832,-0.083 -2.003,0.374 -3.1,1.488 -1.577,3 0.999,1.25 2.105,2.393 3.333,3.409 0.938,0.925 2.202,1.348 3.226,2.142 2.73,1.904 5.98,2.943 9.254,3.302 3.03,0.454 7.611,1.065 11.291,0.236 4.382,-0.89 7.963,-3.777 11.725,-6.066 4.773,-2.826 9.202,-5.657 14.128,-7.256 5.498,-2.008 10.672,-1.579 16.574,-1.219 5.164,0.443 10.248,0.698 15.591,2.016 3.89,1.209 8.128,1.758 11.317,2.853 2.563,1.058 4.409,2.773 5.85,0.192 1.925,-2.858 4.373,-6.328 3.302,-9.962"
   id="path617-5" />
				<g
   id="g625">
					<path
   style="fill:#627eb5"
   d="m 304.878,462.632 c -1.91,-0.468 -3.783,-1.073 -5.731,-1.379 -1.906,-0.552 -3.122,-1.302 -5.14,-2.139 -5.213,-2.621 -10.517,-5.224 -16.356,-5.977 -8.151,-1.604 -16.607,-2.096 -24.637,0.449 -5.407,1.253 -10.268,3.938 -14.825,7.083 -4.689,3.025 -9.232,6.284 -13.77,9.542 -2.449,1.564 -5.547,3.285 -7.785,4.105 -0.333,0.145 -0.762,0.146 -0.966,0.484 -0.067,0.111 -0.087,0.236 -0.072,0.356 -0.049,-0.004 -0.095,-0.016 -0.143,-0.018 -0.349,-0.005 -0.753,0.08 -0.879,0.456 -0.148,0.313 -0.006,0.717 0.286,0.892 0.21,0.138 0.445,0.082 0.679,0.082 0.102,0.033 0.472,0.121 0.563,0.148 0.418,0.07 0.836,0.152 1.25,0.248 3.871,0.915 7.103,1.92 10.318,2.307 2.727,0.754 5.56,0.564 7.835,1.003 4.893,0.76 9.008,1.157 14.361,1.379 6.307,0.396 12.653,0.472 18.931,-0.315 7.73,-0.531 15.56,-2.371 22.322,-6.319 3.512,-1.813 7.567,-4.538 10.645,-5.787 0.737,-0.255 1.491,-0.48 2.256,-0.642 0.682,-0.052 1.241,-0.601 1.131,-1.334 0.016,-1.154 0.185,-1.517 0.599,-2.768 0.257,-0.997 0.286,-1.574 -0.872,-1.856"
   id="path618-4" />
					<g
   id="g624">
						<path
   style="fill:#ffffff"
   d="m 248.151,466.389 c -0.938,-0.438 -2.05,-0.329 -2.732,-0.445 -2.104,-0.041 -3.961,0.804 -5.92,1.99 -2.162,1.274 -3.955,2.802 -5.671,4.461 -0.438,0.411 -0.841,0.796 -1.312,1.035 -0.724,0.457 -1.787,1.214 -2.257,1.393 -1.264,0.584 -2.604,0.841 -3.658,1.104 -0.357,0.253 -0.063,0.876 0.362,0.743 2.865,-0.268 6.475,-2.427 8.606,-4.753 0.872,-0.657 1.501,-1.202 2.491,-2.016 0.956,-0.6 2.273,-1.417 3.379,-2.039 1.339,-0.636 2.895,-1.21 4.549,-0.972 0.886,0.019 1.396,0.032 2.142,0.456 0.547,0.477 0.743,1.01 0.723,1.831 -0.006,0.643 -0.089,1.324 -0.501,2.061 -0.598,1.479 -1.946,2.362 -3.4,2.755 -1.189,0.229 -1.525,0.39 -2.519,0.143 -0.448,-0.064 -0.78,-0.271 -0.94,-0.487 -0.208,-0.587 -0.015,-1.724 0.934,-2.276 0.651,-0.447 1.17,-0.37 1.921,-0.404 0.185,-0.064 0.273,-0.284 0.224,-0.469 -0.239,-0.549 -1.208,-0.291 -1.674,-0.208 -1.511,0.384 -2.658,1.956 -2.247,3.55 0.606,1.484 2.827,1.392 4.108,1.043 2.602,-0.453 4.77,-2.728 4.901,-5.454 0.111,-1.198 -0.326,-2.574 -1.509,-3.042"
   id="path619-3" />
						<path
   style="fill:#ffffff"
   d="m 274.99,459.079 c -0.664,-1.415 -2.041,-2.499 -3.483,-2.997 -7.088,-1.616 -14.654,-0.355 -21.266,2.549 -0.839,0.5 -1.969,0.728 -2.627,1.442 -0.091,0.316 0.271,0.603 0.547,0.429 6.921,-3.73 16.661,-5.67 23.726,-3.297 1.009,0.653 1.706,1.169 2.22,2.203 0.429,0.868 0.546,3.001 0.038,3.799 -0.863,1.945 -2.53,2.545 -4.745,3.169 -2.59,0.716 -5.678,0.958 -7.832,0.646 -1.377,-0.212 -2.796,-0.446 -3.316,-1.047 -0.695,-0.73 -0.834,-1.979 -0.153,-3.029 0.672,-1.288 3.21,-1.856 4.913,-2.014 1.253,-0.133 3.036,0.226 3.286,0.275 0.002,0.01 0.006,0.028 0.01,0.039 0,0.057 0,0.143 -0.004,0.215 -0.017,0.053 -0.05,0.189 -0.061,0.248 -0.007,0.015 -0.013,0.031 -0.02,0.044 -0.295,0.498 -0.536,0.81 -0.701,0.998 -0.027,0.028 -0.03,0.028 -0.045,0.043 -0.753,0.323 -0.386,1.433 0.397,1.067 0.975,-0.662 2.271,-2.641 0.977,-3.563 -2.311,-0.657 -6.153,-0.53 -8.616,1.094 -1.537,1.085 -2.118,3.344 -1.065,4.973 0.911,1.29 2.579,1.463 4.011,1.688 2.824,0.427 5.696,0.043 8.447,-0.654 2.114,-0.538 4.373,-1.539 5.204,-3.337 0.86,-1.486 0.784,-3.417 0.158,-4.983"
   id="path620-1" />
						<path
   style="fill:#ffffff"
   d="m 269.536,472.927 c -1.738,-1.686 -4.487,-1.646 -6.705,-1.208 -2.565,0.603 -5.142,1.345 -7.534,2.478 -2.374,1.3 -4.745,2.613 -7.074,3.998 -0.401,0.233 -0.044,0.894 0.369,0.644 3.95,-2.264 7.766,-4.726 12.202,-5.775 2.729,-0.764 5.071,-1.244 7.51,-0.007 1.121,0.638 1.389,2.036 1.304,2.739 -0.186,0.654 -0.819,1.36 -1.61,1.854 -1.608,0.997 -4.076,1.001 -5.576,0.334 -0.653,-0.508 -0.801,-0.771 -0.362,-1.207 0.657,-0.528 1.682,-0.808 3.1,-0.674 0.809,0.006 0.663,0.157 1.277,0.16 0.308,-0.078 0.457,-0.465 0.296,-0.737 -0.34,-0.439 -1.003,-0.346 -1.494,-0.432 -1.739,-0.279 -5.467,0.553 -4.187,3.027 0.542,0.765 1.424,1.136 2.322,1.212 1.901,0.38 3.979,0.061 5.551,-1.134 0.655,-0.518 1.24,-1.209 1.549,-2 0.21,-1.156 -0.12,-2.426 -0.938,-3.272"
   id="path621-9" />
						<path
   style="fill:#ffffff"
   d="m 285.663,471.816 c -0.239,-3.057 -2.758,-3.387 -4.559,-2.518 -2.172,0.703 -3.715,3.213 -4.534,5.844 -0.284,0.841 -0.565,1.689 -0.697,2.599 -0.028,0.142 0.012,0.313 0.104,0.396 0.147,0.167 0.4,0.05 0.446,-0.196 0.617,-3.304 2.238,-6.883 4.575,-7.717 1.374,-0.639 3.056,-0.633 3.553,0.413 0.59,1.064 0.43,2.517 -0.033,3.661 -0.105,0.442 -1.189,1.056 -1.533,1.039 -1.053,0.126 -1.294,-0.1 -1.474,-0.686 -0.091,-0.465 -0.054,-0.57 0.897,-0.909 0.013,-0.002 0.017,-0.003 0.028,-0.006 0.16,-0.015 0.331,-0.085 0.388,-0.302 0.254,-1.431 -2.017,-0.199 -2.064,0.63 -0.153,0.682 0.12,1.422 0.479,1.906 0.81,0.85 2.154,0.495 3.033,-0.036 1.156,-0.725 1.484,-2.562 1.391,-4.118"
   id="path622-8" />
						<path
   style="fill:#ffffff"
   d="m 300.611,466.855 c -0.177,-1.924 -2.022,-2.131 -3.342,-1.585 -1.591,0.443 -2.72,2.02 -3.32,3.675 -0.208,0.527 -0.413,1.061 -0.51,1.633 -0.021,0.089 0.008,0.196 0.076,0.248 0.107,0.105 0.294,0.034 0.326,-0.123 0.454,-2.074 1.64,-4.329 3.351,-4.852 1.008,-0.401 2.239,-0.396 2.604,0.26 0.431,0.668 0.315,1.581 -0.025,2.301 -0.078,0.278 -0.87,0.666 -1.122,0.655 -0.772,0.079 -0.947,-0.065 -1.082,-0.432 -0.063,-0.294 -0.036,-0.358 0.658,-0.572 0.012,-0.003 0.015,-0.004 0.023,-0.006 0.117,-0.007 0.243,-0.051 0.281,-0.188 0.188,-0.899 -1.476,-0.126 -1.51,0.396 -0.111,0.428 0.088,0.893 0.353,1.198 0.592,0.533 1.579,0.313 2.22,-0.022 0.846,-0.454 1.087,-1.61 1.019,-2.586"
   id="path623-7" />
						<path
   style="fill:#ffffff"
   d="m 294.189,462.149 c -0.857,-1.008 -2.632,-1.272 -4.033,-1.7 -1.458,-0.461 -2.978,-0.856 -4.58,-0.9 -1.404,-0.035 -2.836,-0.091 -4.214,0.134 -0.13,0.027 -0.243,0.115 -0.252,0.215 -0.047,0.176 0.208,0.337 0.438,0.284 2.785,-0.364 5.898,-0.122 8.713,0.876 1.307,0.308 3.066,0.854 3.333,1.402 0.536,1.02 -0.047,2.109 -1.09,2.355 -0.875,0.197 -2.725,-0.002 -3.105,-0.275 -0.658,-0.462 -0.081,-1.091 1.154,-0.802 0.155,0.037 0.241,0.131 0.566,0.451 0.522,0.263 0.964,-0.244 0.564,-0.565 -0.386,-0.468 -1.14,-0.648 -1.853,-0.625 -1.136,-0.012 -2.031,0.956 -1.386,1.701 0.566,0.679 1.799,0.752 2.782,0.773 0.81,0.021 1.672,-0.039 2.289,-0.469 1.102,-0.661 1.232,-1.944 0.674,-2.855"
   id="path624-7" />
					</g>
				</g>
				<g
   id="g631">
					<path
   style="fill:#92c4fc"
   d="m 217.171,449.088 c -1.837,0.646 -3.467,2.217 -4.712,3.165 -0.956,0.668 -1.849,1.44 -2.834,2.053 -1.046,0.486 -2.328,0.983 -3.553,1.374 -0.812,0.314 -1.45,0.26 -2.288,0.296 -0.398,0.146 -0.274,0.805 0.155,0.789 2.229,0.108 4.691,-1.027 6.63,-2.081 2.391,-1.62 4.064,-3.425 6.587,-4.653 6.024,-2.087 1.404,4.217 -0.824,8.042 -0.408,0.654 -2.516,1.598 -2.939,1.19 -0.009,-0.006 -0.017,-0.019 -0.027,-0.026 -0.005,-0.012 -0.01,-0.021 -0.019,-0.033 -0.005,-0.017 -0.009,-0.034 -0.015,-0.058 -0.146,-1.276 1.319,-2.282 2.622,-2.83 0.455,-0.065 0.949,-0.375 0.675,-0.901 -0.115,-0.207 -0.378,-0.315 -0.605,-0.252 -0.984,0.227 -1.821,0.842 -2.595,1.476 -0.912,0.736 -1.578,2.296 -0.781,3.333 1.271,1.09 3.751,-0.242 4.6,-1.461 0.96,-1.773 2.159,-3.407 3.02,-5.239 1.764,-3.177 0.596,-5.476 -3.097,-4.184"
   id="path625-6" />
					<path
   style="fill:#92c4fc"
   d="m 232.024,438.849 c -2.37,0.535 -4.179,2.525 -5.212,4.685 -0.741,1.836 -0.915,3.881 -0.961,5.852 0.063,0.452 -0.004,1.084 0.371,1.393 0.35,0.223 0.819,-0.145 0.698,-0.549 -0.606,-4.026 1.106,-9.485 5.352,-10.409 1.476,-0.332 2.201,-0.214 2.142,0.819 -0.158,1.528 -1.142,4.14 -2.331,4.323 -0.007,0.003 -0.013,0.003 -0.02,0.005 0.197,-0.784 0.608,-1.085 1.416,-1.646 0.313,-0.363 0.005,-0.975 -0.461,-0.962 -0.987,0.212 -1.703,1.171 -2.061,2.083 -0.366,0.967 0.176,2.013 1.28,1.723 2.241,-0.644 2.935,-3.333 3.232,-5.418 0.131,-2.136 -1.842,-2.4 -3.445,-1.899"
   id="path626-8" />
					<path
   style="fill:#92c4fc"
   d="m 251.673,433.521 c -1.578,-0.168 -3.171,0.031 -4.682,0.532 -2.335,0.678 -4.266,2.334 -5.825,4.181 -0.256,0.461 -0.803,0.905 -0.764,1.459 0.098,0.401 0.673,0.48 0.87,0.115 2.62,-4.532 8.825,-6.46 12.671,-4.539 -0.01,0.033 -0.02,0.065 -0.02,0.074 -0.086,0.133 -0.294,0.346 -0.384,0.434 -0.724,0.488 -1.588,0.922 -2.41,1.27 -0.257,-0.536 -1.008,-0.311 -1.49,-0.299 -0.652,0.073 -1.32,0.168 -1.88,0.536 -0.535,0.31 -0.616,1.16 -0.071,1.501 0.764,0.438 1.688,0.106 2.471,-0.124 1.416,-0.555 2.884,-1.106 4.118,-2.024 2.326,-2.207 -0.83,-2.894 -2.604,-3.116"
   id="path627-7" />
					<path
   style="fill:#92c4fc"
   d="m 272.419,438.279 c -0.06,-0.25 -0.29,-0.393 -0.429,-0.454 -1.725,-1.044 -3.69,-1.736 -5.675,-2.044 -1.356,-0.13 -2.734,-0.156 -4.09,-0.054 -0.482,0.12 -1.143,0.028 -1.448,0.494 -0.3,0.491 0.195,1.153 0.739,0.98 3.182,-0.583 6.926,-0.017 9.864,1.776 0.124,0.084 -0.014,-0.018 -0.064,-0.06 0.098,0.107 0.241,0.185 0.384,0.191 0.446,0.097 0.85,-0.396 0.719,-0.829"
   id="path628-3" />
					<path
   style="fill:#92c4fc"
   d="m 298.993,452.865 c -2.196,-0.371 -4.793,-0.423 -6.672,-1.433 -1.375,-0.728 -2.498,-1.451 -3.441,-2.277 -0.506,-0.251 -0.992,0.486 -0.578,0.876 2.176,1.989 4.918,3.239 7.824,3.533 1.315,0.179 2.363,0.332 3.378,0.453 0.215,0.033 0.458,0.04 0.616,-0.138 0.631,-1.005 -0.777,-0.962 -1.127,-1.014"
   id="path629-2" />
					<path
   style="fill:#92c4fc"
   d="m 280.278,443.789 c -0.691,-0.453 -1.361,-0.948 -2.047,-1.412 -0.692,-0.48 -1.39,-0.957 -2.085,-1.436 -0.14,-0.086 -0.312,-0.107 -0.472,-0.061 -0.509,0.123 -0.604,0.88 -0.143,1.135 1.547,1.041 3.052,2.154 4.637,3.146 0.202,0.119 0.485,0.113 0.664,-0.049 0.603,-0.507 -0.052,-1.093 -0.554,-1.323"
   id="path630-5" />
					<path
   style="fill:#92c4fc"
   d="m 309.686,452.701 c -0.906,-0.197 -1.89,0.154 -2.821,0.135 -0.955,0.154 -2.063,-0.017 -2.933,0.411 -0.36,0.344 -0.092,1.013 0.402,0.996 1.218,-0.172 2.448,-0.224 3.671,-0.332 0.581,-0.133 1.29,0.037 1.793,-0.301 0.265,-0.255 0.201,-0.731 -0.112,-0.909"
   id="path631-4" />
				</g>
			</g>
		</g>
	</g></g></svg>
