<?xml version="1.0" encoding="UTF-8" standalone="no"?>
<!-- Created with Inkscape (http://www.inkscape.org/) -->

<svg
   width="34.675079mm"
   height="33.515591mm"
   viewBox="0 0 34.675079 33.515591"
   version="1.1"
   id="svg1"
   xml:space="preserve"
   xmlns:xlink="http://www.w3.org/1999/xlink"
   xmlns="http://www.w3.org/2000/svg"
   xmlns:svg="http://www.w3.org/2000/svg"><defs
     id="defs1"><path
       id="SVGID_00000008134576385432958580000005597367152405062824_"
       d="m 321.89,95.393 c -0.386,-3.341 -0.943,-6.64 -1.904,-9.869 -0.888,-3.88 -1.382,-7.866 -2.898,-11.581 -1.451,-3.913 -3.904,-7.313 -6.176,-10.789 -3.353,-5.214 -7.106,-10.171 -11.294,-14.761 -5.197,-5.576 -11.754,-9.557 -17.978,-13.881 -6,-3.555 -12.057,-7.853 -19.12,-8.866 -1.157,-0.073 -2.318,-0.077 -3.479,-0.032 -0.206,-0.054 -0.412,-0.113 -0.618,-0.165 -2.663,-0.719 -5.468,-0.896 -8.145,-0.158 -4.212,1.329 -8.092,3.49 -11.843,5.764 -2.688,1.497 -5.268,3.176 -7.757,4.976 -1.174,0.738 -2.33,1.502 -3.441,2.329 -0.728,0.642 -1.424,1.313 -2.078,1.972 -7.334,6.048 -13.809,13.125 -18.874,21.132 -2.578,4.752 -5.174,9.52 -7.407,14.44 -1.356,3.683 -2.567,7.415 -3.88,11.115 -1.177,2.995 -1.56,6.208 -1.985,9.375 -0.69,2.112 -0.93,4.323 -1.227,6.517 -0.25,2.545 -0.209,5.11 -0.116,7.663 0.32,2.019 -0.035,4.614 0.657,8.486 0.249,1.358 0.69,2.684 1.193,3.975 0.477,1.741 0.932,3.49 1.516,5.2 0.557,1.675 0.51,1.171 1.418,3.473 0.086,0.294 0.314,1.002 0.468,1.406 0.153,0.464 0.3,0.933 0.571,1.342 0.722,1.085 1.556,2.078 2.46,3.01 1.122,1.829 2.533,3.497 4.177,4.894 -0.146,-0.114 -0.179,-0.129 0.142,0.145 1.238,1.248 2.825,2.029 4.391,2.797 1.051,0.607 2.174,1.002 3.369,1.175 -0.367,-0.08 -0.709,-0.188 -0.212,-0.052 0.085,0.022 0.171,0.038 0.255,0.059 0.136,0.018 0.267,0.048 0.404,0.061 -0.072,0.001 -0.185,-0.015 -0.303,-0.038 2.846,0.678 5.797,0.827 8.714,0.825 4.257,-0.101 8.369,-1.34 12.52,-2.139 1.811,-0.177 3.49,-0.909 5.259,-1.277 2.61,-0.604 5.279,-0.888 7.896,-1.467 3.937,-0.71 7.905,-1.248 11.814,-2.092 -0.336,0.026 -0.675,0.051 -1.012,0.076 5.755,-0.41 6.609,-0.917 11.47,-0.624 6.467,0.28 8.805,0.455 15.55,3.21 1.373,0.589 2.768,1.117 4.237,1.399 -0.114,-0.028 -0.079,-0.026 0.201,0.038 0.18,0.031 0.354,0.075 0.534,0.098 -0.129,-0.018 -0.251,-0.038 -0.361,-0.059 0.014,0.005 0.021,0.005 0.036,0.008 1.834,0.437 3.682,0.778 5.567,0.476 -0.338,0.025 -0.675,0.051 -1.011,0.077 2.938,-0.331 3.066,0.292 7.278,-1.014 3.56,-1.329 7.332,-2.563 10.045,-5.324 3.177,-3.016 5.451,-6.918 7.401,-10.79 0.841,-2.004 1.083,-4.188 1.776,-6.239 1.01,-2.828 1.326,-5.817 1.871,-8.751 1.025,-5.805 0.836,-11.738 -0.071,-17.545" /></defs><g
     id="layer1"
     transform="translate(-414.70756,-407.623)"><g
       id="g301"
       transform="matrix(0.26458333,0,0,0.26458333,364.01398,402.15702)">
		<path
   style="fill:#faf4d2"
   d="m 321.89,95.393 c -0.386,-3.341 -0.943,-6.64 -1.904,-9.869 -0.888,-3.88 -1.382,-7.866 -2.898,-11.581 -1.451,-3.913 -3.904,-7.313 -6.176,-10.789 -3.353,-5.214 -7.106,-10.171 -11.294,-14.761 -5.197,-5.576 -11.754,-9.557 -17.978,-13.881 -6,-3.555 -12.057,-7.853 -19.12,-8.866 -1.157,-0.073 -2.318,-0.077 -3.479,-0.032 -0.206,-0.054 -0.412,-0.113 -0.618,-0.165 -2.663,-0.719 -5.468,-0.896 -8.145,-0.158 -4.212,1.329 -8.092,3.49 -11.843,5.764 -2.688,1.497 -5.268,3.176 -7.757,4.976 -1.174,0.738 -2.33,1.502 -3.441,2.329 -0.728,0.642 -1.424,1.313 -2.078,1.972 -7.334,6.048 -13.809,13.125 -18.874,21.132 -2.578,4.752 -5.174,9.52 -7.407,14.44 -1.356,3.683 -2.567,7.415 -3.88,11.115 -1.177,2.995 -1.56,6.208 -1.985,9.375 -0.69,2.112 -0.93,4.323 -1.227,6.517 -0.25,2.545 -0.209,5.11 -0.116,7.663 0.32,2.019 -0.035,4.614 0.657,8.486 0.249,1.358 0.69,2.684 1.193,3.975 0.477,1.741 0.932,3.49 1.516,5.2 0.557,1.675 0.51,1.171 1.418,3.473 0.086,0.294 0.314,1.002 0.468,1.406 0.153,0.464 0.3,0.933 0.571,1.342 0.722,1.085 1.556,2.078 2.46,3.01 1.122,1.829 2.533,3.497 4.177,4.894 -0.146,-0.114 -0.179,-0.129 0.142,0.145 1.238,1.248 2.825,2.029 4.391,2.797 1.051,0.607 2.174,1.002 3.369,1.175 -0.367,-0.08 -0.709,-0.188 -0.212,-0.052 0.085,0.022 0.171,0.038 0.255,0.059 0.136,0.018 0.267,0.048 0.404,0.061 -0.072,0.001 -0.185,-0.015 -0.303,-0.038 2.846,0.678 5.797,0.827 8.714,0.825 4.257,-0.101 8.369,-1.34 12.52,-2.139 1.811,-0.177 3.49,-0.909 5.259,-1.277 2.61,-0.604 5.279,-0.888 7.896,-1.467 3.937,-0.71 7.905,-1.248 11.814,-2.092 -0.336,0.026 -0.675,0.051 -1.012,0.076 5.755,-0.41 6.609,-0.917 11.47,-0.624 6.467,0.28 8.805,0.455 15.55,3.21 1.373,0.589 2.768,1.117 4.237,1.399 -0.114,-0.028 -0.079,-0.026 0.201,0.038 0.18,0.031 0.354,0.075 0.534,0.098 -0.129,-0.018 -0.251,-0.038 -0.361,-0.059 0.014,0.005 0.021,0.005 0.036,0.008 1.834,0.437 3.682,0.778 5.567,0.476 -0.338,0.025 -0.675,0.051 -1.011,0.077 2.938,-0.331 3.066,0.292 7.278,-1.014 3.56,-1.329 7.332,-2.563 10.045,-5.324 3.177,-3.016 5.451,-6.918 7.401,-10.79 0.841,-2.004 1.083,-4.188 1.776,-6.239 1.01,-2.828 1.326,-5.817 1.871,-8.751 1.025,-5.805 0.836,-11.738 -0.071,-17.545"
   id="path202-8" />
		<g
   id="g230">
			<path
   style="fill:#fccb7c"
   d="m 239.465,66.489 c -0.152,-0.525 -0.756,-1.729 -0.906,-1.775 -0.163,-0.339 -0.434,-0.622 -0.967,-0.759 -0.077,-0.052 -0.171,-0.066 -0.261,-0.04 -0.314,0.021 -0.743,0.135 -0.856,0.4 -3.857,1.853 -7.809,3.868 -10.425,7.253 -2.439,3.435 -4.534,7.161 -5.802,11.155 -0.324,1.133 -0.822,2.334 -0.752,3.251 0.254,0.579 0.863,0.204 1.256,-0.007 0.624,-0.349 1.285,-0.626 1.924,-0.945 1.941,-0.892 3.533,-1.097 5.495,-1.925 1.99,-0.845 3.471,-2.007 4.759,-2.958 1.707,-1.376 2.926,-2.604 4.011,-4.402 0.741,-1.276 1.603,-2.509 2.023,-3.931 0.222,-0.913 0.688,-1.752 0.889,-2.669 0.104,-0.891 -0.119,-1.798 -0.388,-2.648"
   id="path203-1" />
			<path
   style="fill:#fccb7c"
   d="m 237.081,64.851 c -0.005,0.002 -0.01,0.004 -0.015,0.006 -0.001,0.001 -0.002,0.001 -0.002,0.002 -0.006,0.002 -0.015,0.005 -0.02,0.009 0.017,0.004 0.028,-0.004 0.037,-0.017"
   id="path204-0" />
			<path
   style="fill:#fccb7c"
   d="m 249.868,73.999 c -0.057,-1.352 -0.396,-2.808 -0.986,-4.036 -0.263,-0.487 -0.724,-0.899 -1.271,-1.063 -0.372,-0.12 -0.74,0.04 -0.715,0.01 -0.058,-0.002 -0.111,0.015 -0.166,0.033 0.014,-0.001 0.025,-0.002 0.037,-0.002 -0.014,0.002 -0.027,0.002 -0.041,0.004 -0.035,0.012 -0.071,0.026 -0.105,0.039 0.02,-0.019 0.049,-0.029 0.076,-0.036 -0.104,0.016 -0.189,0.048 -0.257,0.091 -0.037,0.007 -0.072,0.022 -0.11,0.033 -0.204,-0.031 -0.414,-0.029 -0.611,0.018 -1.253,0.083 -2.318,0.762 -3.246,1.527 -1.335,1.045 -2.39,2.33 -3.246,3.739 -1.482,2.142 -2.525,4.632 -3.227,7.014 -0.707,2.263 -0.645,4.664 -0.623,7.005 0.124,1.522 -0.037,2.963 0.515,4.684 0.364,0.805 1.133,0.902 1.58,0.088 0.015,-0.104 0.867,-0.759 1.288,-1.107 3.052,-2.381 6.091,-4.907 8.191,-8.148 1.836,-2.963 3.179,-6.388 2.917,-9.893"
   id="path205-7" />
			<path
   style="fill:#fccb7c"
   d="m 246.73,68.943 c -0.012,0.001 -0.021,0.002 -0.033,0.006 0.01,-0.001 0.02,-0.003 0.029,-0.004 0.002,0 0.004,-0.002 0.004,-0.002"
   id="path206-2" />
			<path
   style="fill:#fccb7c"
   d="m 263.82,98.946 c -0.181,-1.102 -0.309,-2.031 -0.316,-3.38 0.025,-3.994 -0.147,-7.997 -0.741,-11.955 -0.107,-0.731 -0.093,-1.476 -0.326,-2.495 -0.284,-1.318 -0.814,-2.573 -1.236,-3.854 -0.261,-0.664 -0.516,-1.378 -0.81,-2.078 -0.349,-1.428 -0.873,-2.875 -2.114,-3.765 -0.002,-0.006 -0.012,-0.018 -0.054,-0.052 -0.269,-0.326 -0.63,-0.609 -1.064,-0.688 -1.049,-0.379 -1.911,0.259 -2.454,1.079 -0.146,-0.004 -0.291,0.05 -0.379,0.192 -1.069,1.836 -2.104,3.766 -2.433,5.871 -0.296,1.39 0.051,3.357 0.159,4.283 0.34,2.521 1.062,5.029 2.099,7.37 1.13,2.138 2.498,4.156 3.963,6.095 0.524,0.714 1.06,1.42 1.61,2.115 0.359,0.507 0.732,1.004 1.18,1.44 0.018,0.021 0.041,0.034 0.061,0.054 0.468,0.535 0.947,1.059 1.459,1.558 0.291,0.316 0.738,0.543 1.172,0.375 0.842,-0.358 0.233,-1.497 0.224,-2.165"
   id="path207-4" />
			<path
   style="fill:#fccb7c"
   d="m 277.513,89.424 c -0.667,-1.893 -1.163,-3.828 -1.476,-5.803 -0.819,-3.524 -1.499,-7.188 -3.331,-10.384 -0.857,-1.472 -1.889,-2.959 -3.398,-3.871 -0.456,-0.343 -0.97,-0.685 -1.57,-0.672 -1.786,0.135 -3.37,1.611 -3.878,3.225 -0.014,0.054 -0.016,0.105 -0.029,0.159 -2.244,4.623 2.775,10.017 5.762,13.668 1.059,1.433 2.34,2.685 3.878,3.639 0.612,0.504 1.267,0.941 1.947,1.348 0.672,0.425 0.741,0.6 1.512,1.036 0.306,0.219 1.053,0.555 1.236,-0.25 -0.089,-0.718 -0.449,-1.397 -0.653,-2.095"
   id="path208-9" />
			<path
   style="fill:#fccb7c"
   d="m 239.211,54.75 c 0.004,-0.174 -0.067,-0.347 -0.239,-0.45 -1.222,-1.099 -2.724,-1.825 -4.226,-2.502 -1.605,-0.733 -3.316,-1.237 -5.104,-1.162 -2.233,-0.228 -4.425,0.234 -6.583,0.726 -3.247,0.697 -6.639,1.852 -9.424,2.603 -1.79,0.841 0.835,1.736 1.579,2.186 1.808,0.852 2.945,1.464 4.822,2.213 1.856,0.751 3.797,1.259 5.738,1.754 2.561,0.811 5.168,1.466 7.88,1.449 1.729,0.222 3.466,-0.144 4.881,-1.139 0.48,-0.289 0.988,-0.564 1.324,-1.019 0.419,-0.593 0.604,-1.324 0.697,-2.031 0.029,-1.054 -0.493,-1.922 -1.345,-2.628"
   id="path209-9" />
			<path
   style="fill:#fccb7c"
   d="m 227.706,63.428 c -0.51,-0.261 -1.077,-0.428 -1.634,-0.551 -1.114,-0.246 -2.232,-0.47 -3.381,-0.451 -0.146,-0.004 -0.288,-0.007 -0.433,-0.011 -0.177,-0.015 -0.354,-0.042 -0.53,-0.054 -2.145,-0.14 -4.275,0.4 -6.282,1.076 -0.639,0.273 -2.433,0.791 -2.871,1.05 -0.259,0.111 -0.561,0.251 -0.565,0.567 0.059,0.813 1.223,0.702 1.831,0.871 0.973,0.131 2.183,0.379 3.488,0.685 2.417,0.478 4.911,0.721 7.361,0.392 1.005,-0.006 2.143,-0.308 2.672,-0.538 0.555,-0.239 1.154,-0.426 1.638,-0.79 1.371,-1.218 0.11,-1.891 -1.294,-2.246 m -7.593,2.52 c -0.03,-0.004 -0.064,-0.008 -0.095,-0.009 1.443,0.078 2.888,0.084 4.331,-0.023 0.689,-0.069 1.379,-0.157 2.066,-0.25 -0.2,0.062 -0.434,0.122 -0.768,0.19 -1.951,0.177 -3.416,0.383 -5.534,0.092"
   id="path210-23" />
			<path
   style="fill:#fccb7c"
   d="m 250.168,88.041 c -1.337,-2.129 -2.391,1.952 -2.833,2.839 -0.027,0.065 -0.052,0.131 -0.08,0.197 -0.733,1.395 -1.469,2.797 -1.872,4.319 -0.434,2.006 -0.701,4.163 0.013,6.142 0.129,0.399 0.394,0.783 0.936,0.445 0.421,-0.551 0.643,-1.229 0.947,-1.845 0.936,-2.027 1.533,-3.334 2.24,-5.196 0.365,-1.043 0.793,-2.07 0.888,-3.176 0.085,-1.431 0.061,-2.571 -0.239,-3.725"
   id="path211-6" />
			<path
   style="fill:#fccb7c"
   d="m 272.725,94.06 c -0.351,-0.67 -0.75,-1.217 -1.246,-1.812 -0.222,-0.364 -0.726,-0.979 -0.601,-0.804 -0.177,-0.298 -0.378,-0.584 -0.669,-0.791 -0.095,-0.064 -0.179,-0.107 -0.265,-0.16 -0.196,-0.299 -0.403,-0.603 -0.75,-0.754 -0.358,-0.257 -0.913,-0.071 -0.935,0.381 -0.002,0.021 0.01,0.035 0.011,0.054 -0.188,0.344 -0.302,0.789 -0.301,1.061 0.014,1.222 0.022,2.437 0.218,3.647 0.229,0.944 0.457,1.364 0.646,1.956 0.243,0.868 1.595,3.746 2.573,4.736 0.073,0.078 0.169,0.133 0.268,0.178 0.007,0.006 0.009,0.012 0.015,0.018 0.354,0.401 1.029,0.168 1.102,-0.337 0.188,-1.012 0.248,-2.04 0.321,-3.064 0.153,-1.444 0.255,-2.946 -0.387,-4.309"
   id="path212-6" />
			<path
   style="fill:#fccb7c"
   d="m 218.857,71.196 c -0.001,0 -0.002,0.001 -0.003,0.002 -0.065,-0.021 -0.136,-0.031 -0.214,-0.013 -1.49,0.359 -3.092,0.65 -4.286,1.644 -2.122,1.954 -2.669,3.679 -4.055,6.026 -0.079,0.153 -0.152,0.31 -0.174,0.479 -0.025,0.314 0.304,0.55 0.612,0.479 0.268,-0.093 0.506,-0.26 0.774,-0.362 0.736,-0.303 0.959,-0.41 2.014,-0.696 1.619,-0.474 2.836,-1.515 3.931,-2.963 1.1,-1.363 1.692,-2.382 2.016,-3.893 0.09,-0.356 -0.195,-0.812 -0.615,-0.703"
   id="path213-7" />
			<path
   style="fill:#fccb7c"
   d="m 210.299,78.856 c -0.009,0.015 -0.016,0.027 -0.023,0.042 -0.045,0.1 -0.005,0.011 0.023,-0.042"
   id="path214-7" />
			<polyline
   style="fill:#fccb7c"
   points="210.299,78.856 210.299,78.856 210.3,78.854 210.299,78.856    "
   id="polyline214" />
			<path
   style="fill:#fccb7c"
   d="m 246.378,44.503 c -0.208,-5.912 -7.46,-9.968 -12.089,-12.03 -1.566,-0.812 -3.201,-1.47 -4.806,-2.204 -1.153,-0.494 -1.882,-1.005 -3.3,-1.389 -0.316,-0.068 -0.615,-0.284 -0.944,-0.232 -0.587,0.1 -0.559,0.792 -0.225,1.149 0.696,0.849 1.387,2.205 2.053,3.498 1.248,2.687 2.201,5.941 4.091,8.748 0.694,1.226 1.757,2.195 2.698,3.241 1.091,1.354 3.096,2.955 4.311,3.34 1.824,0.868 3.873,2.032 5.954,1.392 1.228,-0.531 2.244,-1.657 2.574,-2.922 0.18,-0.811 0.001,-1.749 -0.317,-2.591 m -7.11,-8.276 c 1.343,0.845 2.561,1.773 3.559,2.806 -1.092,-1.005 -2.284,-1.919 -3.559,-2.806 m 5.512,5.594 c -0.164,-0.23 -0.34,-0.463 -0.522,-0.699 -0.286,-0.57 -0.614,-1.115 -1.002,-1.623 0.628,0.722 1.151,1.492 1.524,2.322"
   id="path215-4" />
			<path
   style="fill:#fccb7c"
   d="m 229.844,46.76 c 0.02,-0.801 -0.256,-1.533 -0.682,-2.209 -1.025,-3.439 -3.139,-4.252 -6.834,-6.027 -1.115,-0.542 -3.45,-1.61 -4.996,-2.275 -0.498,-0.216 -1.028,-0.349 -1.552,-0.495 -0.211,-0.073 -0.454,-0.134 -0.666,-0.03 -0.679,0.449 0.175,1.12 0.59,1.427 0.537,0.432 1.047,0.839 1.694,1.478 2.637,2.749 5.128,6.372 7.786,8.552 0.608,0.401 1.321,0.716 2.059,0.86 0.143,0.074 0.284,0.15 0.432,0.216 0.555,0.167 1.201,-0.087 1.515,-0.546 0.326,-0.238 0.581,-0.557 0.654,-0.951"
   id="path216-6" />
			<path
   style="fill:#fccb7c"
   d="m 299.657,83.224 c -0.279,-1.162 -2.176,-2.635 -3.199,-3.897 -2.694,-3.999 -7.348,-7.682 -10.946,-10.711 -2.478,-1.666 -4.468,-4.279 -7.895,-4.793 -0.698,-0.108 -1.405,-0.057 -2.084,0.116 -0.429,0.065 -0.876,0.197 -1.179,0.513 -0.37,0.366 -0.434,0.923 -0.404,1.411 0.03,0.22 0.145,0.411 0.271,0.594 0.745,2.485 1.952,4.89 3.576,6.945 1.302,1.438 2.948,2.549 4.545,3.657 4.131,3.013 8.683,4.154 13.613,5.85 0.818,0.169 3.923,1.991 3.702,0.315"
   id="path217-9" />
			<path
   style="fill:#fccb7c"
   d="m 289.985,92.31 c -0.979,-2.709 -2.787,-5.955 -4.508,-7.783 -0.82,-1.158 -1.84,-2.192 -3.023,-3.007 -0.603,-0.456 -1.412,-0.906 -2.167,-1.033 -0.38,0.072 -0.524,0.264 -0.506,0.528 -0.142,0.072 -0.238,0.214 -0.191,0.41 0.841,3.163 2.509,6.026 4.876,8.363 1.027,1.101 3.127,2.118 4.074,2.586 0.314,0.138 0.583,0.398 0.927,0.46 0.304,0.045 0.593,-0.226 0.518,-0.524"
   id="path218-6" />
			<path
   style="fill:#fccb7c"
   d="m 295.065,66.867 c -1.831,-1.424 -3.665,-2.853 -5.568,-4.185 -0.986,-0.622 -2.141,-0.905 -3.243,-1.27 -0.77,-0.09 -2.858,-0.682 -2.814,0.547 0.395,0.781 1.02,1.416 1.75,1.964 2.021,2.134 4.454,4.059 7.53,4.191 0.985,0.054 1.949,0.264 2.93,0.354 0.109,0.016 -0.112,-0.02 -0.053,-0.011 0.169,0.046 0.355,0.024 0.491,-0.087 0.604,-0.628 -0.594,-1.167 -1.023,-1.503"
   id="path219-09" />
			<path
   style="fill:#fccb7c"
   d="m 302.238,51.473 c -2.224,-0.441 -3.85,-0.573 -5.931,-0.783 -3.91,-0.447 -7.184,-1.369 -11.228,-1.405 -2.945,0.058 -6.02,0.381 -8.753,1.478 -1.392,0.7 -2.624,1.653 -3.885,2.547 -0.084,0.072 -0.136,0.176 -0.142,0.284 -0.009,0.12 0.04,0.223 0.119,0.299 -0.262,0.286 -0.457,0.624 -0.443,1.015 0.002,0.578 0.352,1.099 0.522,1.644 0.241,0.682 0.66,1.297 1.285,1.708 0.567,0.371 1.246,0.484 1.915,0.57 1.904,0.207 3.065,0.048 4.936,-0.211 3.028,-0.436 5.98,-1.263 8.958,-1.945 3.362,-0.824 6.593,-2.076 9.934,-2.964 1.222,-0.418 2.903,-0.48 3.943,-1.148 0.678,-0.863 -0.605,-0.989 -1.23,-1.089"
   id="path220-9" />
			<path
   style="fill:#fccb7c"
   d="m 288.35,28.581 c -0.102,-0.015 -0.234,0.063 -0.368,0.167 -0.103,0.045 -0.21,0.08 -0.315,0.122 -0.179,0.066 -0.352,0.139 -0.528,0.207 -0.172,-0.055 -0.374,-0.042 -0.543,0.08 -0.327,0.145 -0.627,0.328 -0.914,0.525 -2.456,1.079 -4.801,2.375 -7.191,3.585 -1.518,0.89 -3.135,1.617 -4.608,2.573 -0.652,0.445 -1.268,0.934 -1.868,1.444 -3.74,2.628 -6.867,6.075 -5.265,10.144 0.179,0.253 0.254,0.625 0.583,0.735 0.014,0.005 0.028,0.004 0.043,0.008 0.159,0.334 0.368,0.627 0.699,0.805 2.121,0.555 4.185,-0.903 5.955,-2.774 0.04,-0.029 0.08,-0.061 0.12,-0.09 1.581,-1.123 2.972,-2.466 4.244,-3.903 2.158,-2.772 4.359,-5.509 6.609,-8.215 1.144,-1.523 3.19,-3.95 3.621,-4.394 v -0.001 c 0.038,-0.024 0.081,-0.041 0.12,-0.066 0.401,-0.314 0.137,-1.016 -0.394,-0.952"
   id="path221-5" />
			<path
   style="fill:#fccb7c"
   d="m 264.284,23.677 c 0.011,-0.041 0.027,-0.078 0.037,-0.12 0.054,-0.465 -0.568,-0.776 -0.926,-0.451 -0.062,0.138 -0.109,0.288 -0.155,0.438 -0.009,0.006 -0.025,0.001 -0.032,0.008 l -0.003,-0.001 c 0.002,-0.015 0.008,-0.044 0.013,-0.074 0.015,-0.026 0.029,-0.056 0.035,-0.067 -0.01,0.012 -0.018,0.023 -0.026,0.036 0.005,-0.021 0.004,-0.02 -0.004,0.004 -0.022,0.027 -0.041,0.055 -0.063,0.082 -0.139,-0.035 -0.311,-0.013 -0.527,0.088 -0.453,0.563 -0.523,0.664 -1.086,1.173 -3.558,2.947 -7.068,7.358 -8.969,11.177 -0.584,1.12 -0.776,2.492 -0.47,3.716 0.266,0.788 0.642,1.536 1.027,2.279 0.109,0.4 0.235,0.792 0.528,1.104 0.028,0.025 0.058,0.044 0.084,0.068 0.094,0.174 0.206,0.331 0.402,0.401 0.06,0.022 0.12,0.03 0.179,0.029 2.368,1.493 4.65,-0.352 5.929,-2.595 0.788,-1.295 1.512,-3.978 1.786,-5.586 0.442,-1.728 0.842,-3.468 1.09,-5.232 0.759,-2.005 0.808,-4.2 1.121,-6.306 0.006,-0.029 0.009,-0.044 0.012,-0.062 0.006,-0.022 0.016,-0.054 0.025,-0.107 -10e-4,-10e-4 -0.005,-0.002 -0.007,-0.002"
   id="path222-1" />
			<path
   style="fill:#fccb7c"
   d="m 267.477,37.334 c -0.006,0.003 -0.012,0.006 -0.017,0.01 -0.008,0.004 -0.014,0.01 -0.021,0.014 0.008,-0.004 0.022,-0.013 0.038,-0.024"
   id="path223-7" />
			<path
   style="fill:#fccb7c"
   d="m 274.165,27.234 c -0.273,0.026 -1.152,0.651 -1.025,0.581 -1.565,0.929 -3.184,1.871 -4.392,3.226 -1.254,1.736 -2.012,3.826 -2.589,5.849 0.007,0.275 0.288,0.402 0.522,0.352 0.188,0.214 0.527,0.276 0.78,0.104 0.056,-0.036 0.108,-0.073 0.164,-0.11 0.004,-0.002 0.024,-0.012 0.068,-0.041 0.1,-0.05 0.203,-0.091 0.3,-0.145 0.53,-0.299 0.929,-0.751 1.355,-1.169 0.937,-0.906 1.393,-1.476 2.165,-2.419 1.192,-1.636 1.997,-3.677 2.789,-5.109 0.116,-0.201 0.257,-0.391 0.332,-0.611 0.105,-0.274 -0.174,-0.579 -0.469,-0.508"
   id="path224-30" />
			<path
   style="fill:#fccb7c"
   d="m 267.477,37.334 c 0.013,-0.01 0.027,-0.015 0.039,-0.026 0.04,-0.026 -0.002,0.002 -0.039,0.026"
   id="path225-85" />
			<path
   style="fill:#fccb7c"
   d="m 248.782,34.46 c 0.135,-0.187 0.218,-0.41 0.214,-0.66 -0.004,-0.229 -0.032,-0.458 -0.044,-0.687 0.221,-2.045 0.213,-4.14 -0.129,-6.155 -0.789,-2.255 -2.521,-4.644 -3.758,-6.159 -0.888,-0.487 -1.264,0.394 -1.037,1.13 0.123,0.672 0.071,0.744 0.148,1.724 0.167,1.511 0.16,3.024 0.064,4.536 0.131,1.231 0.265,1.805 0.425,2.902 0.293,1.404 0.843,3.033 2.177,3.82 0.469,0.255 1.075,0.184 1.528,-0.093 0.194,-0.032 0.366,-0.162 0.412,-0.358"
   id="path226-4" />
			<path
   style="fill:#e0a955"
   d="m 255.417,38.417 v 0 c -0.046,-0.012 -0.093,-0.024 0,0"
   id="path227-3" />
			<g
   id="g229">
				<path
   style="fill:#e0a955"
   d="m 280.359,57.364 c -0.494,-1.521 -0.849,-3.086 -1.61,-4.516 -0.844,-1.701 -1.911,-2.47 -2.825,-4.023 -0.375,-0.604 -0.91,-1.088 -1.374,-1.626 -0.615,-0.827 -1.261,-1.631 -2.087,-2.275 -0.924,-0.718 -1.853,-1.439 -2.846,-2.069 -0.888,-0.534 -1.863,-0.926 -2.723,-1.506 -2.07,-1.214 -4.972,-1.994 -7.693,-2.649 -0.593,-0.108 -1.505,-0.061 -1.647,-0.12 -0.952,-0.144 -1.433,-0.069 -2.137,-0.164 0.049,0.012 0.097,0.024 -0.022,-0.002 -0.074,-0.014 -0.15,-0.03 -0.226,-0.042 -0.248,-0.014 -0.497,0.016 -0.745,-0.025 -0.101,-0.02 -0.371,-0.072 -0.463,-0.095 -0.084,-0.025 -0.302,0.009 -0.379,0.029 -0.05,10e-4 -0.1,0.004 -0.149,0 -0.919,0.022 -1.188,0.252 -2.162,0.484 -0.221,0.139 -0.567,0.216 -0.875,0.325 -1.987,0.363 -3.945,0.893 -5.612,2.008 -1.206,0.822 -2.142,1.96 -3.188,2.957 -3.401,3.385 -5.631,6.945 -6.949,11.435 -0.748,3.229 -1.061,6.695 -0.046,9.909 0.463,1.85 1.249,3.625 2.546,5.085 1.662,1.228 2.661,2.341 4.37,3.692 0.962,0.728 2.004,1.331 3.044,1.947 0.732,0.473 1.438,1.001 2.277,1.291 1.704,0.621 3.51,1.055 5.329,1.15 1.802,-0.104 2.894,-0.006 4.555,-0.303 4.114,-0.548 8.051,-1.775 11.861,-3.34 2.1,-0.709 4.539,-2.464 6.508,-3.876 2.602,-2.282 3.946,-5.576 4.961,-8.757 0.583,-1.57 0.472,-3.29 0.307,-4.924"
   id="path228-9" />
				<path
   style="fill:#fccb7c"
   d="m 272.613,57.096 c -0.397,-3.069 -1.205,-6.324 -3.833,-8.279 -1.518,-1.26 -2.814,-1.367 -4.348,-2.485 -1.53,-1.185 -3.225,-2.103 -5.094,-2.634 -2.332,-0.909 -4.925,-1.077 -7.347,-0.454 -1.951,0.061 -3.577,1.332 -5.117,2.258 -1.237,0.807 -2.323,0.96 -3.59,1.875 -1.658,1.416 -3.088,3.182 -4.026,5.144 -0.635,1.587 -0.983,3.323 -1.03,5.02 0.117,0.368 0.693,0.28 0.707,-0.101 0.186,-1.814 0.378,-3.204 1.149,-4.923 0.585,-1.164 1.775,-2.536 2.372,-3.268 1.33,-1.606 2.726,-1.928 4.46,-2.827 0.944,-0.562 2.716,-1.586 3.302,-1.801 1.354,-0.389 2.442,-0.367 4.026,-0.635 0.395,-0.097 2.914,0.272 3.273,0.356 1.289,0.426 3.164,1.042 3.897,1.454 1.147,0.593 2.113,1.472 3.243,2.093 0.998,0.631 1.942,0.893 2.628,1.337 0.82,0.482 1.997,1.614 2.458,2.423 1.457,2.543 1.856,5.747 1.741,8.784 0.129,2.86 -1.163,5.104 -2.996,6.898 -0.342,0.308 -0.675,0.626 -1.036,0.911 -0.157,0.126 -0.314,0.25 -0.464,0.385 -0.009,0.007 -0.018,0.014 -0.027,0.021 -1.071,0.623 -2.268,1.001 -3.359,1.583 -0.609,0.317 -0.636,0.309 -1.361,0.417 -1.168,0.267 -1.432,0.441 -2.899,0.823 -1.401,0.5 -1.472,0.855 -2.652,0.796 -1.068,-0.01 -2.11,-0.342 -3.176,-0.447 -1.217,-0.231 -2.385,-0.24 -3.168,-0.564 -1.376,-0.538 -2.005,-0.763 -2.87,-1.789 -0.787,-1.404 -1.563,-3.64 -1.985,-5.768 -0.325,-1.976 -0.379,-5.594 0.547,-7.355 1.174,-2.156 3.188,-3.569 5.286,-4.16 1.467,-0.196 2.327,-0.755 3.577,-0.955 0.555,0.06 3.079,0.147 3.681,0.384 0.169,0.087 0.909,0.539 1.186,0.869 0.468,0.587 1.863,1.555 2.083,1.689 0.431,0.328 0.628,1.137 1.049,1.853 0.615,1.242 0.667,3.041 0.307,4.862 -0.077,0.772 -0.679,1.821 -1.432,2.894 -0.343,0.431 -1.78,1.626 -2.347,1.867 -0.779,0.369 -1.435,0.306 -2.564,0.402 -0.661,0.098 -0.672,0.117 -1.396,0.03 -1.208,-0.18 -2.524,-0.809 -2.88,-1.168 -1.155,-1.115 -1.566,-3.66 -1.034,-4.799 0.92,-1.503 2.284,-2.491 3.874,-2.331 0.767,0.143 1.617,1.159 1.346,2.527 -0.084,0.773 -0.54,1.272 -1.142,1.467 -0.029,0.004 -0.047,0.005 -0.064,0.008 -0.034,10e-4 -0.067,10e-4 -0.101,-0.002 0.012,0.002 0.015,0.002 0.023,0.003 -0.099,-0.01 -0.266,-0.015 -0.326,0.044 -0.545,0.272 -0.224,1.084 0.361,0.991 2.292,-0.261 2.828,-3.634 1.398,-5.113 -1.063,-1.132 -2.395,-0.902 -3.581,-0.481 -1.43,0.766 -2.808,2.068 -2.984,3.745 -0.328,1.729 0.285,3.616 1.523,4.871 1.466,1.079 3.462,1.582 5.264,1.217 0.433,-0.047 1.924,-0.069 2.736,-0.537 1.105,-0.669 2.188,-1.497 2.929,-2.562 1.855,-2.625 2.199,-6.323 0.586,-9.149 -0.506,-1.57 -2.079,-1.963 -2.861,-2.962 -0.527,-0.552 -1.181,-1.013 -1.902,-1.273 -1.025,-0.191 -2.079,-0.162 -3.112,-0.31 -1.417,-0.15 -2.318,0.529 -3.431,0.757 -2.812,0.437 -5.409,2.237 -6.807,4.685 -0.821,1.677 -1.049,3.63 -1.023,5.476 0.15,2.333 0.49,4.799 1.564,7.236 0.284,0.524 0.456,1.106 0.764,1.616 0.519,0.762 1.276,1.366 2.081,1.811 1.96,1.006 4.19,1.007 6.322,1.397 1.171,0.26 2.092,0.242 2.928,0.11 0.674,-0.192 1.614,-0.787 1.855,-0.798 1.209,-0.304 1.991,-0.781 3.436,-0.986 1.311,-0.553 2.585,-1.209 3.881,-1.805 1.906,-1.243 3.502,-3.06 4.561,-5.058 1.243,-2.315 1.081,-5.063 0.961,-7.61"
   id="path229-4" />
			</g>
		</g>
		<g
   id="g239">
			<path
   style="fill:#ffffff"
   d="m 205.331,116.009 c -0.4,0.541 -0.092,1.393 0.657,1.257 0.261,-0.054 0.465,-0.272 0.523,-0.527 0,-0.001 0,-0.001 0,-0.002 -0.006,0.032 -0.008,0.047 0.009,-0.016 0.05,-0.096 0.098,-0.192 0.155,-0.285 0.036,-0.066 0.123,-0.178 0.18,-0.249 0.059,-0.066 0.121,-0.13 0.19,-0.186 0.195,-0.127 0.52,-0.231 0.859,0.004 0.002,0.004 0.005,0.006 0.007,0.01 0.035,0.072 0.057,0.117 0.071,0.144 0.005,0.017 0.009,0.027 0.018,0.053 0.015,0.058 0.023,0.116 0.032,0.174 -0.001,0.029 -0.004,0.06 -0.008,0.087 -0.115,0.598 -1.175,2.196 -1.325,2.377 -1.235,1.479 -3.669,2.211 -4.591,2 -1.129,-0.15 -1.988,-2.187 -2.13,-3.145 -0.11,-0.61 0.675,-2.738 0.827,-3.105 0.594,-1.06 1.465,-1.938 2.225,-2.878 1.281,-1.583 2.854,-3.146 3.009,-5.283 0.046,-0.568 0.183,-1.135 0.088,-1.705 -0.157,-0.693 -0.563,-1.327 -1.084,-1.81 -0.891,-0.941 -2.812,-1.248 -3.508,-1.049 -1.284,-0.06 -3.256,0.878 -3.475,2.836 -0.133,0.955 -0.459,2.09 -0.071,2.998 0.314,0.376 0.98,0.143 0.992,-0.344 -0.137,-2.682 0.573,-4.332 2.367,-4.335 1.549,-0.277 3.227,0.638 3.545,1.806 0.104,0.513 -0.076,1.691 -0.254,2.316 -0.71,2.278 -3.439,4.315 -4.889,6.731 -0.524,1.139 -0.973,2.369 -1.095,3.622 -0.007,0.95 0.409,1.854 0.808,2.698 1.409,2.933 4.674,2.208 6.934,0.734 1.465,-0.975 2.482,-2.597 2.991,-4.247 0.275,-2.651 -3.149,-2.922 -4.057,-0.681"
   id="path230-6" />
			<path
   style="fill:#ffffff"
   d="m 213.181,85.574 c -2.496,-0.811 -5.268,-1.055 -7.862,-0.616 -1.849,0.528 -3.189,2.097 -4.412,3.487 -0.694,0.854 -1.346,1.772 -1.768,2.784 -0.036,0.126 -0.003,0.271 0.077,0.373 0.177,0.29 0.645,0.281 0.824,-0.004 1.396,-2.542 3.48,-5.151 5.804,-5.671 3.566,-0.292 7.771,0.198 8.883,2.597 1.083,1.85 0.991,3.414 0.682,5.884 -0.289,1.824 -1.334,3.034 -3.725,3.278 -1.58,0.456 -3.099,0.431 -3.659,0.124 -2.048,-1.006 -2.012,-2.779 -1.326,-4.213 0.549,-0.906 1.375,-1.094 2.521,-0.749 0.546,0.202 0.7,0.289 0.877,0.446 0.003,0.005 0.006,0.011 0.01,0.015 0.009,0.079 0.011,0.082 0.01,0.064 0.011,0.168 0.044,0.333 0.165,0.46 0.289,0.336 0.862,0.291 1.102,-0.077 0.623,-1.666 -1.795,-2.415 -3.075,-2.46 -3.162,-0.054 -4.426,4.323 -2.553,6.48 1.563,1.855 3.973,1.911 6.151,1.272 0.957,-0.175 1.938,-0.368 2.775,-0.889 0.738,-0.5 1.268,-1.277 1.672,-2.058 1.238,-3.57 0.933,-8.999 -3.173,-10.527"
   id="path231-2" />
			<path
   style="fill:#ffffff"
   d="m 235.746,102.304 c -0.105,-2.66 0.037,-6.102 -2.641,-7.605 -2.294,-1.039 -5.256,-1.514 -7.225,-1.132 -2.122,0.532 -3.778,2.161 -5.204,3.73 -1.106,1.23 -1.512,2.896 -1.917,4.455 -0.419,2.026 -0.973,4.058 -0.836,6.146 0.076,1.602 0.341,3.686 0.801,4.752 0.078,0.288 0.228,0.592 0.566,0.605 0.347,0.027 0.642,-0.317 0.563,-0.652 -1.552,-4.159 -0.755,-9.985 1.313,-13.995 1.902,-2.279 4.198,-4.386 7.294,-3.775 2.115,0.331 4.577,0.742 5.194,2.402 0.64,1.292 0.621,2.595 0.68,4.282 0.146,2.359 -0.076,4.265 -1.225,5.293 -2.021,1.858 -6.465,1.326 -7.092,-0.681 -0.145,-0.722 -0.11,-1.313 0.11,-2.012 0.727,-0.732 0.918,-0.935 0.95,-0.976 0.045,-0.034 0.086,-0.066 0.136,-0.103 1.902,-1.127 3.473,-1.175 4.157,0.342 0.082,0.171 0.133,0.414 0.136,0.562 -0.018,0.234 0,0.483 0.172,0.661 0.287,0.337 0.859,0.291 1.099,-0.076 0.313,-0.673 -0.014,-1.494 -0.335,-2.112 -1.638,-2.729 -5.65,-1.405 -7.298,0.65 -0.687,0.966 -0.702,2.315 -0.465,3.438 1.28,3.251 5.957,3.515 8.622,1.854 2.125,-1.176 2.528,-3.844 2.445,-6.053"
   id="path232-3" />
			<path
   style="fill:#ffffff"
   d="m 258.934,101.428 c -2.815,-3.072 -7.368,0.24 -9.686,2.428 -0.302,0.502 -1.031,0.891 -0.998,1.516 0.087,0.464 0.753,0.59 1.005,0.189 1.774,-2.413 6.041,-4.837 7.854,-3.969 1.063,0.763 2.286,2.33 2.478,3.5 0.549,1.916 -1.327,3.77 -3.059,3.766 -1.441,-0.087 -1.52,-0.902 -0.717,-1.764 0.094,-0.059 0.197,-0.107 0.302,-0.146 0.136,-0.026 0.397,-0.083 0.522,-0.113 0.261,-0.009 0.541,0.013 0.743,-0.183 0.338,-0.286 0.29,-0.852 -0.079,-1.091 -0.487,-0.247 -1.107,-0.057 -1.609,0.077 -0.706,0.204 -1.278,0.762 -1.543,1.439 -0.809,1.86 0.716,3.262 2.571,3.155 2.021,-0.152 3.952,-1.709 4.263,-3.739 0.344,-1.956 -0.756,-3.697 -2.047,-5.065"
   id="path233-8" />
			<path
   style="fill:#ffffff"
   d="m 278.462,100.079 c -2.185,0.605 -3.955,2.107 -5.478,3.716 -1.282,1.392 -2.52,2.854 -3.439,4.511 -0.136,0.2 -0.143,0.495 0.011,0.688 0.22,0.362 0.803,0.349 1.025,-0.005 3.132,-5.306 8.858,-10.461 13.908,-6.604 3.189,2.166 5.001,7.914 3.181,10.986 -1.443,2.364 -3.123,3.625 -5.711,3.332 -0.456,-0.168 -2.446,-0.427 -2.726,-0.644 -1.731,-1.139 -2.137,-1.756 -1.716,-4.003 0.143,-1.111 1.553,-2.334 3.153,-2.162 0.616,0.029 1.397,0.247 1.739,0.441 0.025,0.027 0.051,0.054 0.074,0.082 0.074,0.121 0.144,0.248 0.199,0.378 0.158,0.354 0.079,0.641 0.128,1.536 0.315,0.824 1.441,0.436 1.379,-0.389 0.102,-1.229 -0.371,-2.759 -1.717,-3.079 -2.417,-0.96 -5.692,0.066 -6.281,2.789 -0.279,1.301 -0.426,2.721 0.41,3.862 0.986,1.609 2.956,2.216 4.17,2.313 1.986,0.665 4.139,0.218 5.771,-1.061 7.44,-5.272 0.815,-19.416 -8.08,-16.687"
   id="path234-6" />
			<path
   style="fill:#ffffff"
   d="m 309.514,69.286 c -1.46,-2.233 -4.408,-1.404 -6.646,-1.275 -0.667,0.134 -1.618,0.195 -1.994,0.819 -0.177,0.467 0.369,0.935 0.811,0.696 1.445,-0.613 5.61,-0.867 6.262,-0.154 1.907,1.798 1.825,4.642 0.376,6.734 -0.903,1.463 -3.728,2.056 -4.973,1.41 -0.591,-0.22 -0.333,-2.165 0.87,-2.636 0.236,-0.113 0.945,-0.203 1.203,-0.083 0.236,0.037 0.17,0.225 0.73,0.188 1.029,-0.403 0.482,-1.38 -0.47,-1.54 -1.089,-0.246 -2.33,0.084 -3.067,0.937 -0.871,0.891 -1.207,2.275 -0.743,3.444 0.376,0.951 1.5,1.22 2.428,1.285 1.87,0.147 3.791,-0.54 4.962,-2.031 1.729,-2.178 1.964,-5.533 0.251,-7.794"
   id="path235-2" />
			<path
   style="fill:#ffffff"
   d="m 304.637,102.324 c -1.968,-0.029 -3.734,1.682 -3.36,3.677 0.418,1.236 1.854,1.852 3.075,1.985 0.59,0.02 1.212,0.037 1.791,-0.061 0.531,-0.15 0.613,-0.927 0.151,-1.212 -0.679,-0.281 -1.474,0.027 -2.192,-0.15 -0.136,-0.047 -0.497,-0.164 -0.619,-0.198 -0.19,-0.097 -0.554,-0.368 -0.663,-0.451 -0.049,-0.044 -0.097,-0.094 -0.132,-0.134 -0.022,-0.039 -0.041,-0.077 -0.057,-0.117 -0.095,-0.503 0.325,-1.458 0.889,-1.676 -0.022,-0.037 1.109,-0.34 0.974,-0.287 0.092,10e-4 0.185,0.018 0.278,0.033 0.237,0.049 1.002,0.366 1.157,0.423 2.305,1.183 2.773,3.943 1.484,5.273 -1.153,1.043 -1.194,1.002 -2.738,1.443 -1.847,0.451 -2.467,0.292 -4.377,-0.382 -4.586,-1.566 -5.977,-7.674 -3.76,-12.434 1.51,-3.342 6.064,-4.45 9.897,-3.488 0.212,0.014 0.575,0.389 1.153,0.594 0.697,0.183 1.115,-0.848 0.504,-1.217 -1.283,-0.938 -2.931,-1.018 -4.469,-1.025 -3.215,-0.119 -6.518,1.261 -8.104,4.147 -2.501,4.589 -1.785,11.731 3.298,14.264 2.008,1.045 4.338,1.54 6.532,0.792 6.141,-1.473 5.105,-8.862 -0.712,-9.799"
   id="path236-7" />
			<path
   style="fill:#ffffff"
   d="m 308.395,119.839 c -1.348,-3.545 -6.139,-3.878 -9.057,-2.123 -2.107,1.389 -3.109,3.919 -3.802,6.241 -0.024,0.442 -0.328,0.97 -0.007,1.354 0.332,0.393 1.034,0.151 1.049,-0.363 0.465,-2.361 1.721,-5.419 3.813,-6.404 1.973,-0.936 4.869,-0.859 6.072,0.71 1.904,1.939 0.112,5.128 -2.142,5.207 -0.105,0 -0.213,-0.008 -0.317,-0.022 -0.014,-0.005 -0.029,-0.01 -0.041,-0.014 -0.009,-0.01 -0.017,-0.02 -0.024,-0.029 -0.326,-0.547 0.091,-0.967 1.822,-1.345 0.563,0.031 1.079,-0.475 0.799,-1.029 -0.416,-0.704 -1.382,-0.229 -1.996,-0.083 -0.911,0.285 -1.954,0.832 -2.097,1.867 -0.156,2.806 3.084,2.243 4.538,0.922 1.419,-1.104 1.968,-3.215 1.39,-4.889"
   id="path237-0" />
			<path
   style="fill:#ffffff"
   d="m 315.175,83.513 c -0.886,-0.405 -1.892,-0.124 -2.774,0.151 -1.173,0.398 -2.094,0.882 -2.517,1.79 -0.139,0.551 0.672,0.874 0.969,0.397 0.446,-0.73 2.215,-1.528 3.613,-1.449 0.38,-0.022 1.285,0.851 1.407,1.433 0.077,1.984 -0.971,4.554 -2.434,4.398 -0.359,-0.041 -0.39,-0.344 0.024,-0.64 0.128,-0.224 1.704,-0.047 1.271,-1.191 -0.261,-0.521 -0.909,-0.365 -1.365,-0.243 -0.82,0.229 -1.53,0.932 -1.551,1.808 -0.02,1.609 2.086,1.901 3.139,1.045 1.316,-0.858 1.789,-2.488 1.931,-3.968 0.415,-1.4 -0.406,-2.93 -1.713,-3.531"
   id="path238-7" />
			<path
   style="fill:#ffffff"
   d="m 208.357,71.739 c -0.02,-0.635 -0.118,-1.378 -0.632,-1.812 -0.528,-0.327 -1.241,-0.356 -1.832,-0.198 -1.034,0.356 -1.476,1.471 -1.939,2.365 -0.655,1.54 -1.414,3.125 -1.444,4.823 -0.221,0.765 0.775,1.171 0.955,0.344 -0.025,-2.017 1.324,-4.92 2.214,-6.23 0.439,-0.593 1.105,-0.348 1.346,-0.341 0.339,0.059 0.296,1.766 0.159,3.156 -0.014,10e-4 -0.027,-0.005 -0.04,-0.002 -0.781,0.319 -0.966,1.367 -0.878,2.117 0.11,0.44 0.559,0.742 1.012,0.658 0.332,-0.089 0.595,-0.374 0.677,-0.703 0.438,-1.354 0.428,-2.77 0.402,-4.177"
   id="path239-6" />
		</g>
		<g
   id="g300">
			<defs
   id="defs239" />
			<clipPath
   id="SVGID_00000170983884144603213570000009839890606908268220_">
				<use
   xlink:href="#SVGID_00000008134576385432958580000005597367152405062824_"
   style="overflow:visible"
   id="use239" />
			</clipPath>
			<g
   clip-path="url(#SVGID_00000170983884144603213570000009839890606908268220_)"
   id="g264">
				<path
   style="fill:#677724"
   d="m 320.558,121.295 c -0.201,-0.136 -0.481,-0.151 -0.699,-0.039 -0.568,0.264 -1.123,0.578 -1.614,0.968 -0.126,0.284 -0.801,0.48 -1.392,0.829 -0.931,0.525 -1.812,1.13 -2.783,1.586 -2.356,1.228 -3.957,1.871 -6.395,2.452 -1.936,0.514 -2.867,1.192 -4.682,1.445 -2.909,0.464 -6.383,0.532 -9.232,-0.186 -2.853,-0.772 -5.458,-2.365 -8.086,-4.373 -5.291,-4.216 -11.194,-7.742 -17.647,-9.88 -8.477,-2.707 -17.576,-3.904 -26.441,-2.844 -7.626,1.279 -15.038,3.872 -21.722,7.742 -2.748,1.51 -5.807,3.766 -7.84,5.281 -2.979,1.749 -6.192,3.873 -8.894,4.898 -2.438,0.764 -4.629,0.32 -6.938,-0.21 -0.678,-0.164 -1.346,-0.363 -1.995,-0.615 -0.024,-0.007 -0.051,-0.003 -0.075,-0.008 -0.272,-0.303 -0.767,-0.396 -1.059,-0.03 -0.266,0.405 -0.457,0.889 -0.55,1.366 -0.06,0.634 0.339,0.994 0.391,1.249 0.525,1.578 0.828,3.236 1.699,4.678 0.838,1.606 1.661,2.172 2.279,3.839 0.232,1.543 1.969,4.5 3.558,6.071 2.351,2.543 5.96,-1.124 8.029,-2.51 3.259,-2.212 6.018,-4.88 9.052,-6.625 8.018,-4.725 16.019,-8.689 24.886,-10.607 6.962,-0.974 13.882,-1.278 21.164,0.024 4.02,0.256 7.264,1.29 11.139,2.964 5.85,2.37 11.043,5.785 17.125,8.499 2.869,0.894 5.723,1.863 8.587,2.749 2.49,0.517 5.047,0.466 7.572,0.672 1.881,0.245 3.761,0.377 5.655,0.202 0.838,-0.112 1.828,0.27 2.506,-0.363 1.373,-2.022 2.791,-4.926 3.371,-7.294 0.507,-2.847 0.668,-5.748 1.017,-8.621 0.103,-0.837 0.227,-1.668 0.356,-2.5 0.015,-0.309 -0.067,-0.631 -0.342,-0.809"
   id="path240-7" />
				<g
   id="g263">
					<path
   style="fill:#faf4d2"
   d="m 210.679,133.959 c 0.244,0.059 0.26,0.052 0,0"
   id="path241-43" />
					<path
   style="fill:#faf4d2"
   d="m 212.2,143.481 c 0.049,0.012 0.096,0.021 0.144,0.029 -0.033,-0.006 -0.066,-0.014 -0.101,-0.023 z"
   id="path242-1" />
					<path
   style="fill:#8ca05c"
   d="m 202.862,135.654 c -0.617,-0.403 -1.182,-0.874 -1.781,-1.302 -0.483,-0.33 -0.994,0.434 -0.501,0.751 0.645,0.453 1.246,0.968 1.922,1.376 0.281,0.229 0.785,0.24 0.86,-0.19 0.087,-0.333 -0.26,-0.496 -0.5,-0.635"
   id="path243-2" />
					<path
   style="fill:#8ca05c"
   d="m 204.212,132.014 c -0.135,-0.272 -0.148,-0.67 -0.48,-0.776 -0.393,-0.148 -0.788,0.307 -0.586,0.672 0.39,0.979 0.754,1.995 1.355,2.869 0.26,0.308 0.81,0.117 0.819,-0.284 -0.083,-0.448 -0.749,-1.444 -1.108,-2.481"
   id="path244-4" />
					<path
   style="fill:#8ca05c"
   d="m 206.799,133.348 c -0.131,-1.014 -0.203,-2.036 -0.293,-3.054 -0.024,-0.115 -0.096,-0.217 -0.194,-0.282 -0.322,-0.229 -0.795,0.09 -0.7,0.473 0.067,0.823 0.127,1.646 0.209,2.466 0.119,0.479 -0.033,1.131 0.35,1.489 0.245,0.171 0.609,0.043 0.702,-0.237 0.066,-0.283 -0.064,-0.571 -0.074,-0.855"
   id="path245-75" />
					<path
   style="fill:#8ca05c"
   d="m 217.686,125.097 c -0.393,-0.173 -0.786,-0.459 -1.218,-0.493 -0.496,0.008 -0.586,0.762 -0.113,0.902 0.696,0.245 0.803,0.387 1.409,0.629 0.174,0.048 0.369,-0.044 0.467,-0.189 0.269,-0.427 -0.198,-0.704 -0.545,-0.849"
   id="path246-5" />
					<path
   style="fill:#8ca05c"
   d="m 219.106,122.773 c -0.379,-0.365 -1.017,0.135 -0.763,0.59 0.341,0.366 0.549,1.253 1.176,1.08 0.775,-0.396 -0.07,-1.102 -0.413,-1.67"
   id="path247-8" />
					<path
   style="fill:#8ca05c"
   d="m 222.498,121.291 c -0.152,-0.516 -0.979,-0.395 -0.988,0.14 -0.162,1.427 -0.458,2.893 -0.339,4.327 0.112,0.396 0.699,0.457 0.914,0.114 0.162,-0.276 0.044,-0.626 0.084,-0.931 0.039,-1.217 0.31,-2.449 0.329,-3.65"
   id="path248-07" />
					<path
   style="fill:#8ca05c"
   d="m 237.325,117.655 c -0.377,-0.544 -0.691,-1.145 -1.1,-1.662 -0.375,-0.36 -1.007,0.135 -0.754,0.585 0.458,0.666 0.855,1.387 1.345,2.027 0.09,0.089 0.23,0.135 0.354,0.115 0.609,-0.064 0.48,-0.736 0.155,-1.065"
   id="path249-7" />
					<path
   style="fill:#8ca05c"
   d="m 239.145,116.563 c -0.189,-0.386 -0.269,-0.859 -0.545,-1.191 -0.369,-0.355 -0.991,0.131 -0.741,0.576 0.288,0.563 0.433,1.229 0.79,1.744 0.229,0.226 0.658,0.101 0.75,-0.2 0.087,-0.327 -0.167,-0.623 -0.254,-0.929"
   id="path250-3" />
					<path
   style="fill:#8ca05c"
   d="m 242.182,114.258 c -0.421,1.492 -0.857,2.979 -1.265,4.475 -0.092,0.253 0.059,0.557 0.319,0.64 0.517,0.161 0.7,-0.378 0.768,-0.78 0.35,-1.246 0.702,-2.492 1.054,-3.737 0.4,-0.712 -0.469,-1.369 -0.876,-0.598"
   id="path251-7" />
					<path
   style="fill:#8ca05c"
   d="m 256.608,118.354 c -0.193,-0.682 -0.28,-1.415 -0.541,-2.071 -0.287,-0.471 -1.071,-0.133 -0.936,0.398 0.262,0.707 0.218,1.619 0.691,2.205 0.363,0.257 0.893,-0.103 0.786,-0.532"
   id="path252-7" />
					<path
   style="fill:#8ca05c"
   d="m 259.165,116.96 c 0.046,-0.64 -0.97,-0.698 -0.998,-0.057 0.002,0.629 -0.046,1.281 0.044,1.901 0.067,0.236 0.337,0.367 0.572,0.32 0.745,-0.247 0.23,-1.541 0.382,-2.164"
   id="path253-9" />
					<path
   style="fill:#8ca05c"
   d="m 262.492,115.941 c -0.508,1.151 -0.96,2.324 -1.416,3.495 -0.111,0.303 0.125,0.643 0.447,0.657 0.218,0.016 0.437,-0.131 0.504,-0.337 0.456,-1.171 0.903,-2.347 1.41,-3.498 0.215,-0.603 -0.747,-0.927 -0.945,-0.317"
   id="path254-32" />
					<path
   style="fill:#8ca05c"
   d="m 271.35,119.685 c 0.045,-0.622 -0.941,-0.678 -0.97,-0.055 -0.105,0.877 -0.143,1.76 -0.189,2.644 -0.012,0.183 0.095,0.381 0.27,0.45 0.429,0.218 0.763,-0.237 0.705,-0.636 0.055,-0.802 0.081,-1.605 0.184,-2.403"
   id="path255-0" />
					<path
   style="fill:#8ca05c"
   d="m 273.651,120.558 c -0.291,-0.347 -0.908,-0.134 -0.92,0.317 -0.058,0.82 -0.369,1.653 -0.342,2.461 0.097,0.339 0.573,0.45 0.825,0.212 0.289,-0.34 0.229,-0.879 0.407,-1.579 0.01,-0.458 0.331,-1.008 0.03,-1.411"
   id="path256-78" />
					<path
   style="fill:#8ca05c"
   d="m 277.665,121.379 c -0.081,-0.446 -0.728,-0.568 -0.969,-0.183 -0.532,0.829 -1.084,1.645 -1.604,2.479 -0.246,0.544 -0.811,1.038 -0.815,1.646 0.27,0.752 0.996,0.362 1.192,-0.224 0.661,-1.132 1.405,-2.213 2.118,-3.313 0.08,-0.117 0.108,-0.265 0.078,-0.405"
   id="path257-2" />
					<path
   style="fill:#8ca05c"
   d="m 286.938,130.099 c -0.053,-0.788 -0.056,-1.592 -0.16,-2.369 -0.154,-0.52 -0.983,-0.398 -0.993,0.14 0.077,0.857 0.081,1.732 0.191,2.58 0.033,0.123 0.131,0.231 0.25,0.279 0.41,0.216 0.823,-0.218 0.712,-0.63"
   id="path258-0" />
					<path
   style="fill:#8ca05c"
   d="m 289.406,129.224 c -0.146,-0.49 -0.928,-0.374 -0.938,0.133 0.009,0.533 -0.456,1.697 0.452,1.633 0.308,-0.057 0.386,-0.369 0.399,-0.636 0.017,-0.371 0.166,-0.766 0.087,-1.13"
   id="path259-7" />
					<path
   style="fill:#8ca05c"
   d="m 291.083,129.611 c -0.481,0.886 -0.917,1.793 -1.352,2.701 -0.084,0.23 0.054,0.505 0.289,0.58 0.233,0.077 0.506,-0.051 0.583,-0.286 0.49,-1.034 0.773,-1.623 1.238,-2.494 0.335,-0.483 -0.439,-0.993 -0.758,-0.501"
   id="path260-1" />
					<path
   style="fill:#8ca05c"
   d="m 304.667,132.006 c -0.286,-0.456 -0.475,-0.997 -0.813,-1.415 -0.409,-0.393 -1.096,0.145 -0.822,0.638 0.337,0.559 0.597,1.187 0.994,1.702 0.146,0.147 0.395,0.167 0.579,0.074 0.415,-0.211 0.291,-0.69 0.062,-0.999"
   id="path261-4" />
					<path
   style="fill:#8ca05c"
   d="m 308.275,132.133 c -0.04,-0.386 -0.074,-1.266 -0.128,-2.08 0.028,-0.912 -1.395,-0.806 -1.224,0.092 0.096,0.862 0.044,1.376 0.239,2.473 0.048,0.34 0.369,0.618 0.723,0.535 0.499,-0.108 0.503,-0.624 0.39,-1.02"
   id="path262-6" />
					<path
   style="fill:#8ca05c"
   d="m 311.957,127.841 c -0.531,1.522 -0.98,3.068 -1.462,4.605 -0.15,0.395 0.315,0.792 0.688,0.589 0.73,-1.042 1.081,-3.537 1.673,-4.893 0.204,-0.573 -0.709,-0.881 -0.899,-0.301"
   id="path263-1" />
				</g>
			</g>
			<g
   clip-path="url(#SVGID_00000170983884144603213570000009839890606908268220_)"
   id="g299">
				<path
   style="fill:#8ca05c"
   d="m 314.961,137.217 c -0.746,-0.876 -1.962,-1.493 -3.075,-1.986 -1.66,-0.446 -3.455,-0.263 -5.17,-0.428 -1.509,0.037 -2.968,0.453 -4.474,0.573 -3.515,0.461 -7.255,-0.222 -10.929,-1.567 -5.821,-2.292 -10.266,-3.863 -15.346,-6.371 -3.839,-1.299 -5.934,-2.321 -9.563,-3.648 -2.268,-0.68 -5.271,-1.494 -7.011,-1.809 -2.589,-0.407 -5.207,-0.644 -7.799,-1.06 -7.087,-0.607 -14.181,0.63 -20.785,2.666 -8.442,3.008 -16.581,8.724 -23.135,13.157 -2.299,1.322 -3.653,2.476 -6.143,3.579 -0.912,0.466 -1.87,0.881 -2.804,1.321 -0.464,0.12 -0.928,0.342 -1.289,0.641 -0.008,0.004 -0.018,0.008 -0.025,0.012 -0.011,0.011 -0.015,0.023 -0.023,0.034 -0.3,0.259 -0.52,0.564 -0.599,0.897 -0.232,0.272 -0.312,0.637 -0.18,0.964 0.189,0.946 1.312,1.348 2.176,1.802 1.52,0.966 3.056,1.894 4.781,2.574 1.364,0.387 2.742,0.785 4.137,1.09 3.012,0.256 6.024,-0.236 9.022,-0.395 2.227,-0.189 6.471,-0.119 9.318,-0.767 8.487,-1.659 16.88,-3.772 25.546,-4.733 5.29,-0.498 9.699,-1.311 14.904,-0.637 3.035,0.226 6.075,1.384 9.483,1.971 2.386,0.521 4.679,1.304 7.04,1.894 2.203,0.503 4.443,0.872 6.659,1.328 4.427,0.728 9,0.63 13.373,-0.167 2.872,-0.533 6.082,-0.519 8.553,-1.995 1.399,-1.279 2.649,-2.753 3.533,-4.34 0.967,-1.434 0.64,-3.144 -0.175,-4.6"
   id="path264-12" />
				<g
   id="g298">
					<path
   style="fill:#faf4d2"
   d="m 288.002,140.046 c 0.074,0.018 0.209,0.046 0.374,0.076 -0.066,-0.015 -0.12,-0.027 -0.171,-0.039 -0.067,-0.012 -0.137,-0.024 -0.203,-0.037"
   id="path265-8" />
					<path
   style="fill:#677724"
   d="m 210.022,143.512 c -0.813,-0.783 -1.12,-0.899 -1.925,-1.72 -0.113,-0.126 -0.277,-0.206 -0.446,-0.214 -0.556,-0.05 -0.903,0.667 -0.521,1.069 0.984,1.002 1.621,1.355 2.396,2.251 0.196,0.268 0.532,0.501 0.873,0.351 0.972,-0.448 0.115,-1.285 -0.377,-1.737"
   id="path266-87" />
					<path
   style="fill:#677724"
   d="m 212.331,140.549 c -0.51,-0.773 -0.996,-1.561 -1.481,-2.349 -0.353,-0.712 -1.472,-0.145 -1.101,0.557 0.587,0.914 1.123,1.881 1.768,2.749 0.112,0.113 0.29,0.17 0.447,0.147 0.568,-0.026 0.723,-0.729 0.367,-1.104"
   id="path267-10" />
					<path
   style="fill:#677724"
   d="m 215.684,138.02 c 0.011,-0.172 -0.051,-0.343 -0.165,-0.471 -0.362,-0.431 -1.133,-0.166 -1.146,0.396 -0.039,1.133 -0.018,2.271 0.002,3.404 -0.06,0.833 1.263,0.909 1.3,0.074 -0.017,-1.133 -0.034,-2.271 0.009,-3.403"
   id="path268-1" />
					<path
   style="fill:#677724"
   d="m 228.735,128.747 c -0.42,-0.521 -0.795,-1.131 -1.318,-1.546 -0.51,-0.285 -1.049,0.43 -0.646,0.846 0.502,0.577 0.978,1.177 1.423,1.8 0.096,0.106 0.234,0.175 0.378,0.182 0.839,-0.06 0.599,-0.862 0.163,-1.282"
   id="path269-07" />
					<path
   style="fill:#677724"
   d="m 231.748,127.393 c -0.156,-0.453 -0.196,-0.963 -0.407,-1.391 -0.322,-0.526 -1.197,-0.148 -1.046,0.445 0.257,0.664 0.407,2.896 1.515,1.882 0.201,-0.294 0.009,-0.629 -0.062,-0.936"
   id="path270-90" />
					<path
   style="fill:#677724"
   d="m 235.531,124.824 c 0.059,-0.821 -1.244,-0.895 -1.28,-0.073 -0.084,1.036 -0.128,2.074 -0.169,3.112 -0.011,0.17 0.05,0.34 0.164,0.468 0.357,0.425 1.118,0.161 1.131,-0.393 0.036,-1.037 0.076,-2.077 0.154,-3.114"
   id="path271-76" />
					<path
   style="fill:#677724"
   d="m 227.613,140.094 c -0.32,-0.332 -0.556,-0.787 -0.945,-1.037 -0.59,-0.33 -1.217,0.497 -0.75,0.982 0.564,0.48 1.235,2.121 2.072,1.208 0.3,-0.433 -0.106,-0.832 -0.377,-1.153"
   id="path272-93" />
					<path
   style="fill:#677724"
   d="m 231.661,139.564 c -0.609,-1.634 -1.196,-3.337 -1.977,-4.879 -0.43,-0.412 -1.151,0.153 -0.862,0.669 0.376,0.975 1.168,3.003 1.356,3.446 0.359,0.758 0.177,1.015 0.673,1.614 0.554,0.354 1.119,-0.318 0.81,-0.85"
   id="path273-3" />
					<path
   style="fill:#677724"
   d="m 234.346,136.334 c 0.056,-0.766 -1.159,-0.835 -1.193,-0.067 0.084,1.007 -0.355,2.657 0.016,3.485 1.55,1.138 1.025,-2.605 1.177,-3.418"
   id="path274-6" />
					<path
   style="fill:#677724"
   d="m 248.068,125.854 c -0.202,-0.727 -0.395,-1.456 -0.562,-2.192 -0.141,-0.702 -1.248,-0.465 -1.087,0.233 0.211,0.918 0.438,1.833 0.727,2.73 0.045,0.206 0.222,0.396 0.438,0.419 0.756,0.101 0.72,-0.704 0.484,-1.19"
   id="path275-4" />
					<path
   style="fill:#677724"
   d="m 251.436,126.129 c 0.052,-0.915 0.119,-1.828 0.139,-2.742 0.053,-0.719 -1.091,-0.784 -1.122,-0.064 0.015,1.06 -0.206,2.139 -0.13,3.187 0.038,0.139 0.149,0.262 0.282,0.315 0.467,0.244 0.902,-0.236 0.831,-0.696"
   id="path276-9" />
					<path
   style="fill:#677724"
   d="m 254.665,122.395 c -0.285,0.804 -0.495,1.632 -0.73,2.452 -0.063,0.487 -0.402,1.002 -0.223,1.483 0.166,0.342 0.655,0.428 0.936,0.174 0.369,-0.668 0.888,-2.994 1.174,-3.963 -0.014,-0.626 -0.978,-0.742 -1.157,-0.146"
   id="path277-8" />
					<path
   style="fill:#677724"
   d="m 242.803,137.34 c -0.493,-0.526 -0.797,-1.557 -1.509,-1.758 -0.494,-0.046 -0.804,0.593 -0.463,0.95 0.781,1.093 1.132,1.587 1.794,2.651 0.137,0.279 0.509,0.397 0.783,0.251 0.848,-0.579 -0.323,-1.483 -0.605,-2.094"
   id="path278-4" />
					<path
   style="fill:#677724"
   d="m 246.641,136.415 c -0.35,-1.02 -0.662,-2.069 -1.064,-3.065 -0.322,-0.532 -1.204,-0.151 -1.054,0.447 0.373,1.151 0.803,2.286 1.124,3.453 0.089,0.499 0.809,0.635 1.079,0.204 0.219,-0.328 -0.005,-0.701 -0.085,-1.039"
   id="path279-6" />
					<path
   style="fill:#677724"
   d="m 248.864,133.746 c -0.313,1.058 -0.548,2.14 -0.788,3.215 -0.18,0.477 0.378,0.954 0.828,0.709 0.373,-0.192 0.333,-0.662 0.438,-1.015 0.178,-0.93 0.497,-1.846 0.661,-2.767 -0.012,-0.617 -0.963,-0.731 -1.139,-0.142"
   id="path280-9" />
					<path
   style="fill:#677724"
   d="m 259.744,136.787 c -0.16,-1.036 -0.28,-2.08 -0.395,-3.123 -0.089,-0.486 -0.791,-0.618 -1.054,-0.197 -0.212,0.444 -0.011,0.753 0.014,1.491 0.134,0.752 0.084,1.58 0.359,2.287 0.331,0.543 1.232,0.153 1.076,-0.458"
   id="path281-9" />
					<path
   style="fill:#677724"
   d="m 261.524,134.396 c -0.489,0.095 -0.496,0.629 -0.553,1.023 -0.026,0.46 -0.192,0.951 -0.088,1.402 0.192,0.648 1.229,0.496 1.243,-0.176 -0.063,-0.719 0.626,-2.32 -0.602,-2.249"
   id="path282-7" />
					<path
   style="fill:#677724"
   d="m 266.109,134.92 c -1.002,-1.215 -2.115,1.912 -2.628,2.574 -0.468,0.678 0.617,1.393 1.067,0.702 0.475,-0.975 1.19,-1.835 1.66,-2.795 0.046,-0.162 0.007,-0.351 -0.099,-0.481"
   id="path283-8" />
					<path
   style="fill:#677724"
   d="m 262.207,126.035 c -0.059,-0.214 -0.279,-0.364 -0.499,-0.377 -0.529,-0.025 -0.653,0.517 -0.602,0.939 0.028,0.623 -0.08,1.27 0.009,1.882 0.173,0.584 1.105,0.447 1.118,-0.157 -0.009,-0.758 0.069,-1.54 -0.026,-2.287"
   id="path284-0" />
					<path
   style="fill:#677724"
   d="m 264.004,126.483 c -0.4,0.261 -0.438,0.819 -0.614,1.231 -0.066,0.282 -0.232,0.595 -0.085,0.877 0.209,0.44 0.912,0.388 1.056,-0.077 0.082,-0.542 0.415,-1.036 0.472,-1.569 -0.003,-0.391 -0.489,-0.647 -0.829,-0.462"
   id="path285-1" />
					<path
   style="fill:#677724"
   d="m 268.475,127.29 c -0.196,-0.592 -0.977,-0.523 -1.271,-0.047 -0.672,0.689 -1.347,1.378 -2.002,2.082 -0.681,0.581 0.261,1.629 0.923,1.027 0.757,-0.865 1.617,-1.661 2.321,-2.559 0.086,-0.148 0.097,-0.347 0.029,-0.503"
   id="path286-4" />
					<path
   style="fill:#677724"
   d="m 273.985,137.549 c -0.043,-0.46 -0.12,-1.188 -0.76,-1.064 -0.378,0.08 -0.505,0.48 -0.402,0.817 0.147,0.942 0.22,1.895 0.298,2.847 0.132,0.692 -0.102,0.847 0.224,1.56 0.31,0.368 0.965,0.141 0.978,-0.338 -0.086,-1.275 -0.184,-2.551 -0.338,-3.822"
   id="path287-3" />
					<path
   style="fill:#677724"
   d="m 277.853,138.249 c -0.326,-0.318 -0.932,-0.145 -1.063,0.282 -0.361,0.93 -0.637,1.895 -0.778,2.882 -0.011,0.18 0.055,0.363 0.176,0.497 0.38,0.453 1.191,0.172 1.206,-0.418 0.086,-0.681 0.288,-1.498 0.658,-2.537 0.085,-0.243 0.014,-0.549 -0.199,-0.706"
   id="path288-5" />
					<path
   style="fill:#677724"
   d="m 281.834,139.907 c -0.395,-0.025 -0.625,0.331 -0.886,0.564 -0.704,0.77 -1.541,1.528 -1.91,2.515 -0.171,0.668 0.821,1.065 1.181,0.482 0.66,-1.247 1.254,-1.548 2.163,-2.628 0.227,-0.388 -0.102,-0.923 -0.548,-0.933"
   id="path289-9" />
					<path
   style="fill:#677724"
   d="m 276.098,130.563 c -0.101,-0.36 -0.608,-0.479 -0.878,-0.225 -0.406,0.573 -0.091,1.506 -0.128,2.186 -0.052,0.72 1.089,0.785 1.12,0.064 -0.078,-0.669 -0.018,-1.363 -0.114,-2.025"
   id="path290-43" />
					<path
   style="fill:#677724"
   d="m 278.662,131.167 c -0.563,-0.355 -0.952,0.239 -1.142,0.702 -0.185,0.452 -0.547,0.891 -0.571,1.384 0.013,0.654 1.021,0.774 1.208,0.151 0.275,-0.678 0.421,-0.793 0.766,-1.609 0.065,-0.234 -0.061,-0.496 -0.261,-0.628"
   id="path291-8" />
					<path
   style="fill:#677724"
   d="m 281.527,133.308 c 0.03,-0.391 -0.36,-0.715 -0.742,-0.63 -0.486,0.253 -0.866,0.73 -1.23,1.171 -0.092,0.083 -0.173,0.178 -0.237,0.28 -0.013,0.015 -0.025,0.032 -0.038,0.046 -0.007,0.012 -0.007,0.026 -0.013,0.04 -0.039,0.07 -0.073,0.14 -0.094,0.208 -0.134,0.515 0.532,0.899 0.936,0.584 0.051,-0.024 0.101,-0.051 0.146,-0.096 0.389,-0.546 1.087,-0.955 1.272,-1.603"
   id="path292-5" />
					<path
   style="fill:#677724"
   d="m 290.931,144.812 c -0.44,-1.301 -0.973,-2.706 -1.162,-3.268 -0.054,-0.255 -0.272,-0.487 -0.537,-0.518 -1.316,-0.073 -0.613,1.344 -0.371,2.037 0.354,0.738 0.478,1.909 1.007,2.47 0.488,0.348 1.208,-0.138 1.063,-0.721"
   id="path293-5" />
					<path
   style="fill:#677724"
   d="m 293.523,144.847 c -0.18,-0.855 -0.337,-1.716 -0.395,-2.589 -0.105,-0.569 -0.924,-0.721 -1.23,-0.231 -0.229,0.536 -0.059,0.381 -0.063,1.054 0.105,0.761 0.141,1.591 0.439,2.299 0.383,0.628 1.431,0.177 1.249,-0.533"
   id="path294-2" />
					<path
   style="fill:#677724"
   d="m 297.744,142.491 c -0.737,-0.826 -1.27,0.148 -1.538,0.814 -0.497,1.019 -0.593,1.228 -1.074,2.19 -0.546,0.865 0.885,1.566 1.239,0.604 0.373,-0.747 1.305,-2.71 1.384,-2.852 0.147,-0.22 0.16,-0.545 -0.011,-0.756"
   id="path295-8" />
					<path
   style="fill:#677724"
   d="m 306.724,143.938 c -0.282,-0.354 -0.929,-1.478 -1.391,-2.324 -0.119,-0.229 -0.387,-0.395 -0.648,-0.355 -1.545,0.28 0.399,2.418 0.737,3.163 0.473,1.137 1.956,0.552 1.302,-0.484"
   id="path296-3" />
					<path
   style="fill:#677724"
   d="m 308.598,142.937 c -0.111,-0.814 -0.218,-1.63 -0.298,-2.448 -0.048,-0.221 -0.238,-0.423 -0.47,-0.45 -0.817,-0.127 -0.724,0.815 -0.635,1.349 0.117,0.66 0.061,1.394 0.314,2.011 0.335,0.548 1.244,0.155 1.089,-0.462"
   id="path297-1" />
					<path
   style="fill:#677724"
   d="m 310.558,140.721 c -0.36,0.79 -0.642,1.613 -0.95,2.423 -0.057,0.171 -0.043,0.364 0.04,0.526 0.25,0.527 1.089,0.466 1.26,-0.091 0.249,-0.671 0.484,-1.347 0.752,-2.013 0.68,-0.953 -0.538,-1.901 -1.102,-0.845"
   id="path298-8" />
				</g>
			</g>
		</g>
	</g></g></svg>
