<?xml version="1.0" encoding="UTF-8" standalone="no"?>
<!-- Created with Inkscape (http://www.inkscape.org/) -->

<svg
   width="14.242929mm"
   height="27.056923mm"
   viewBox="0 0 14.242929 27.056923"
   version="1.1"
   id="svg1"
   xml:space="preserve"
   xmlns="http://www.w3.org/2000/svg"
   xmlns:svg="http://www.w3.org/2000/svg"><defs
     id="defs1" /><g
     id="g274"
     transform="matrix(0.26458333,0,0,0.26458333,-84.678948,-62.602022)">
		<path
   style="fill:#db351f"
   d="m 338.848,326.399 c -1.37,2.32 -2.73,4.65 -4.1,6.97 -0.04,0.06 -0.06,0.13 -0.08,0.19 -0.92,1.22 -1.84,2.24 -3.27,2.92 -1.42,0.68 -3.1,0.91 -4.64,0.51 -1.54,-0.39 -2.89,-1.38 -3.83,-2.66 -0.04,-0.05 -0.07,-0.1 -0.11,-0.15 -0.81,-1.16 -1.04,-2.33 -1.33,-3.6 3.17,-0.62 6.29,-1.41 9.42,-2.2 0.57,-0.14 1.13,-0.29 1.7,-0.43 1.09,-0.28 2.19,-0.56 3.28,-0.84 0.97,-0.25 1.97,-0.46 2.96,-0.71 z"
   id="path256-1" />
		<path
   style="fill:#ffffff"
   d="m 360.701,248.997 c 0.928,-0.776 1.872,-1.532 2.829,-2.271 0.744,-0.574 1.486,-1.2 2.293,-1.701 -4.156,-4.245 -9.951,-6.688 -15.887,-6.866 0.416,2.247 0.362,4.704 0.349,6.963 -0.012,2.225 0.04,4.695 -0.561,6.878 2.006,-0.111 4.02,0.441 5.769,1.892 1.552,-1.797 3.393,-3.377 5.208,-4.895 z"
   id="path257-3" />
		<path
   style="fill:#ffffff"
   d="m 346.348,313.649 c -2.18,3.7 -4.35,7.39 -6.53,11.09 -1.43,0.3 -2.86,0.76 -4.27,1.12 l -2.07,0.54 c -0.97,0.25 -1.94,0.5 -2.91,0.75 -2.84,0.74 -5.68,1.47 -8.49,2.35 2.46,-4.25 4.9,-8.51 7.31,-12.79 2.96,-0.25 5.88,-0.9 8.78,-1.46 0.62,-0.11 1.23,-0.23 1.85,-0.36 0.94,-0.18 1.88,-0.36 2.82,-0.55 0.81,-0.16 1.62,-0.32 2.44,-0.48 0.35,-0.07 0.72,-0.12 1.07,-0.21 z"
   id="path258-8" />
		<path
   style="fill:#db351f"
   d="m 348.442,238.163 c -1.102,0.038 -2.204,0.153 -3.297,0.352 -3.39,0.618 -6.48,1.991 -9.176,3.915 1.387,1.802 2.401,4.023 3.496,6.009 1.187,2.154 2.269,4.345 3.395,6.527 0.004,0.008 0.005,0.015 0.009,0.022 1.664,-1.471 3.708,-2.519 5.812,-2.872 -0.225,-2.295 0.095,-4.691 0.084,-6.993 -0.012,-2.317 -0.331,-4.651 -0.323,-6.96 z"
   id="path259-0" />
		<path
   style="fill:#db351f"
   d="m 354.108,300.449 c -0.26,0.44 -0.52,0.88 -0.77,1.32 -2.06,3.48 -4.1,6.97 -6.15,10.45 -1.33,-0.31 -3.02,0.36 -4.33,0.62 -0.62,0.12 -1.25,0.25 -1.87,0.38 -0.93,0.18 -1.86,0.37 -2.8,0.56 -2.72,0.56 -5.49,1.04 -8.16,1.82 2.24,-3.99 4.47,-7.99 6.67,-12.01 3.18,-0.32 6.33,-1.05 9.46,-1.64 0.52,-0.1 1.05,-0.2 1.57,-0.29 2.12,-0.39 4.27,-0.74 6.38,-1.21 z"
   id="path260-9" />
		<path
   style="fill:#ffffff"
   d="m 338.131,249.218 c -1.107,-1.912 -2.454,-3.875 -3.288,-5.935 -3.283,2.641 -5.906,6.126 -7.671,10.044 0.038,0.094 0.048,0.202 0.011,0.32 -0.004,0.012 -0.007,0.025 -0.01,0.037 0.052,-0.002 0.104,0 0.155,0.013 0.997,0.247 1.681,1.493 2.355,2.213 0.758,0.809 1.553,1.584 2.382,2.321 1.69,1.502 3.619,2.679 5.342,4.127 0.006,-0.008 0.013,-0.016 0.019,-0.024 1.621,-2.118 2.848,-4.492 4.497,-6.596 0.049,-0.062 0.107,-0.095 0.167,-0.108 -0.045,-0.037 -0.088,-0.082 -0.125,-0.142 -1.286,-2.088 -2.603,-4.144 -3.834,-6.27 z"
   id="path261-7" />
		<path
   style="fill:#ffffff"
   d="m 361.698,287.649 c -2.13,3.71 -4.35,7.37 -6.54,11.04 -2.14,0.31 -4.27,0.76 -6.39,1.21 -0.87,0.19 -1.74,0.38 -2.6,0.55 -2.91,0.59 -5.88,1.07 -8.76,1.84 2.03,-3.71 4.04,-7.42 6.03,-11.15 0.15,-0.27 0.29,-0.54 0.44,-0.81 3.11,0.02 6.31,-0.63 9.37,-1.12 0.71,-0.11 1.42,-0.24 2.13,-0.36 0.9,-0.16 1.79,-0.33 2.69,-0.5 1.19,-0.23 2.43,-0.41 3.63,-0.7 z"
   id="path262-9" />
		<path
   style="fill:#db351f"
   d="m 372.288,260.539 c -0.09,-0.2 -0.29,-0.35 -0.56,-0.38 -1.13,-0.11 -2.39,0.4 -3.5,0.64 -0.58,0.13 -1.16,0.25 -1.74,0.36 -0.66,0.13 -1.31,0.25 -1.97,0.37 -2.26,0.4 -4.54,0.69 -6.79,1.12 0.75,-2.81 0.7,-5.6 -1.31,-7.87 1.78,-1.47 3.45,-3.09 5.22,-4.58 0.97,-0.81 1.96,-1.61 2.97,-2.38 0.52,-0.4 1.07,-0.78 1.6,-1.19 0.21,-0.16 0.43,-0.32 0.63,-0.5 0.48,0.57 0.93,1.16 1.36,1.78 2.44,3.56 3.92,7.79 4.08,12.12 0.01,0.17 0.01,0.34 0.01,0.51 z"
   id="path263-9" />
		<path
   style="fill:#ffffff"
   d="m 372.288,261.079 c -0.04,3.4 -0.9,6.72 -2.12,9.89 -1.41,0.09 -2.86,0.62 -4.21,0.94 -0.74,0.18 -1.47,0.36 -2.21,0.53 -0.99,0.24 -1.98,0.48 -2.96,0.71 -1.72,0.42 -3.44,0.84 -5.17,1.26 -1.22,0.3 -2.66,0.51 -3.9,0.97 0.68,-1.32 1.36,-2.64 2.04,-3.97 1.1,-2.15 2.66,-4.83 3.6,-7.56 2.48,-0.02 4.93,-0.37 7.38,-0.79 0.5,-0.08 1,-0.17 1.5,-0.27 0.74,-0.14 1.48,-0.28 2.21,-0.44 1.16,-0.24 2.61,-0.35 3.6,-1.01 0.12,-0.07 0.19,-0.16 0.24,-0.26 z"
   id="path264-3" />
		<path
   style="fill:#db351f"
   d="m 369.478,272.659 c -0.19,0.43 -0.38,0.86 -0.57,1.29 -1.87,4.05 -3.97,8 -6.17,11.89 -0.03,0 -0.06,0 -0.1,0.01 -1.54,0.18 -3.07,0.59 -4.6,0.89 -0.52,0.1 -1.03,0.2 -1.55,0.29 -1.08,0.21 -2.17,0.4 -3.26,0.6 -2.86,0.5 -5.84,0.78 -8.69,1.44 2.18,-4.09 4.34,-8.2 6.47,-12.32 h 0.03 c 1.61,0.06 3.41,-0.58 4.97,-0.95 1.72,-0.4 3.45,-0.81 5.18,-1.21 0.65,-0.15 1.29,-0.31 1.94,-0.46 1.08,-0.26 2.16,-0.52 3.23,-0.78 0.99,-0.23 2.09,-0.4 3.12,-0.69 z"
   id="path265-2" />
		<path
   style="fill:#db351f"
   d="m 328.467,256.878 c -0.521,-0.555 -1.278,-1.194 -1.626,-1.935 -0.07,0.275 -0.143,0.55 -0.237,0.823 -0.239,0.695 -0.454,1.398 -0.607,2.117 -0.275,1.291 -0.354,2.652 -0.049,3.945 0.559,2.371 2.313,4.37 4.881,4.404 2.339,0.031 4.32,-1.311 5.837,-2.989 -2.045,-0.863 -3.899,-2.378 -5.552,-3.816 -0.924,-0.804 -1.809,-1.655 -2.647,-2.549 z"
   id="path266-4" />
		<path
   style="fill:#1e0202"
   d="m 346.886,236.725 c -9.526,0.941 -18.417,7.818 -21.026,17.153 -0.28,0.472 -0.546,0.933 -0.742,1.479 -0.289,0.805 -0.525,1.633 -0.683,2.474 -0.275,1.458 -0.327,2.96 0.015,4.412 0.608,2.586 2.483,4.939 5.193,5.432 2.981,0.542 5.813,-0.981 7.766,-3.14 1.968,-2.176 3.118,-4.817 4.501,-7.35 1.689,-1.685 3.653,-3.111 6.021,-3.653 2.524,-0.578 5.361,0.085 7.169,1.996 2.224,2.352 1.634,5.743 0.562,8.484 -1.232,3.15 -2.98,6.14 -4.528,9.143 -6.245,12.112 -12.686,24.122 -19.321,36.025 -3.744,6.718 -7.551,13.4 -11.414,20.05 -0.08,0.137 -0.11,0.271 -0.109,0.398 -0.017,0.03 -0.033,0.062 -0.045,0.096 -0.614,1.77 0.299,4.077 1.327,5.523 1.174,1.651 2.886,2.947 4.876,3.418 3.41,0.808 7.968,-0.83 9.438,-4.214 0.096,-0.063 0.184,-0.15 0.255,-0.271 1.659,-2.821 3.318,-5.642 4.978,-8.463 0.283,-0.131 0.391,-0.379 0.361,-0.614 4.137,-7.034 8.274,-14.068 12.406,-21.105 0.803,-1.368 1.616,-2.734 2.431,-4.1 0.242,-0.118 0.363,-0.37 0.373,-0.624 4.793,-8.019 9.682,-16.056 13.58,-24.525 2.079,-4.516 3.72,-9.371 3.602,-14.402 -0.104,-4.437 -1.49,-8.835 -3.879,-12.57 -4.935,-7.714 -14.017,-11.95 -23.107,-11.052 z m -16.057,29.508 c -2.567,-0.034 -4.322,-2.033 -4.881,-4.404 -0.305,-1.293 -0.225,-2.654 0.049,-3.945 0.153,-0.719 0.368,-1.422 0.607,-2.117 0.094,-0.273 0.167,-0.548 0.237,-0.823 0.347,0.741 1.105,1.379 1.626,1.935 0.838,0.894 1.723,1.745 2.647,2.55 1.653,1.438 3.507,2.954 5.552,3.816 -1.517,1.677 -3.498,3.019 -5.837,2.988 z m 11.093,-10.495 c -1.649,2.104 -2.876,4.478 -4.497,6.596 -0.006,0.008 -0.013,0.016 -0.019,0.024 -1.723,-1.448 -3.652,-2.625 -5.342,-4.127 -0.829,-0.737 -1.624,-1.511 -2.382,-2.321 -0.675,-0.72 -1.358,-1.966 -2.355,-2.213 -0.052,-0.013 -0.104,-0.015 -0.155,-0.013 0.004,-0.012 0.007,-0.025 0.01,-0.037 0.037,-0.119 0.027,-0.227 -0.011,-0.32 1.766,-3.918 4.389,-7.403 7.671,-10.044 0.834,2.06 2.181,4.023 3.288,5.935 1.231,2.126 2.548,4.181 3.835,6.27 0.036,0.059 0.079,0.104 0.125,0.142 -0.06,0.013 -0.119,0.045 -0.168,0.108 z m 6.759,-3.622 c -2.105,0.353 -4.148,1.401 -5.812,2.872 -0.003,-0.008 -0.005,-0.015 -0.009,-0.022 -1.126,-2.182 -2.208,-4.373 -3.395,-6.527 -1.094,-1.986 -2.108,-4.206 -3.496,-6.009 2.696,-1.924 5.785,-3.297 9.176,-3.915 1.093,-0.199 2.196,-0.314 3.297,-0.352 -0.008,2.309 0.311,4.643 0.323,6.959 0.012,2.303 -0.309,4.698 -0.084,6.994 z M 349.725,252 c 0.6,-2.182 0.548,-4.653 0.561,-6.878 0.012,-2.259 0.067,-4.716 -0.349,-6.963 5.936,0.178 11.731,2.621 15.887,6.866 -0.807,0.5 -1.549,1.127 -2.293,1.701 -0.958,0.739 -1.902,1.495 -2.829,2.271 -1.815,1.518 -3.655,3.098 -5.206,4.896 -1.751,-1.452 -3.765,-2.004 -5.771,-1.893 z m -14.977,81.367 c -0.038,0.065 -0.064,0.13 -0.083,0.193 -0.915,1.216 -1.841,2.242 -3.264,2.922 -1.427,0.682 -3.101,0.91 -4.64,0.51 -1.606,-0.417 -2.998,-1.46 -3.943,-2.813 -0.81,-1.161 -1.042,-2.333 -1.332,-3.602 3.17,-0.613 6.29,-1.409 9.424,-2.2 1.66,-0.419 3.32,-0.841 4.978,-1.266 0.97,-0.249 1.969,-0.463 2.956,-0.711 -1.365,2.323 -2.731,4.645 -4.096,6.967 z m 5.073,-8.628 c -1.437,0.304 -2.865,0.758 -4.277,1.121 -1.658,0.426 -3.315,0.856 -4.972,1.288 -2.848,0.743 -5.689,1.475 -8.495,2.348 2.464,-4.246 4.9,-8.508 7.314,-12.783 2.952,-0.256 5.874,-0.908 8.78,-1.461 1.558,-0.296 3.113,-0.606 4.668,-0.914 0.811,-0.161 1.623,-0.321 2.434,-0.482 0.356,-0.07 0.719,-0.12 1.069,-0.205 -2.173,3.696 -4.348,7.391 -6.521,11.088 z m 13.512,-22.972 c -2.052,3.484 -4.1,6.97 -6.15,10.455 -1.326,-0.311 -3.018,0.36 -4.328,0.62 -1.555,0.309 -3.111,0.613 -4.663,0.935 -2.721,0.563 -5.494,1.041 -8.169,1.818 2.247,-3.989 4.471,-7.99 6.674,-12.003 3.176,-0.325 6.33,-1.052 9.462,-1.648 2.629,-0.501 5.324,-0.908 7.953,-1.493 -0.26,0.439 -0.52,0.878 -0.779,1.316 z m 1.828,-3.08 c -3.011,0.433 -6.015,1.164 -8.99,1.764 -2.91,0.586 -5.888,1.066 -8.763,1.84 2.029,-3.707 4.043,-7.423 6.034,-11.15 0.145,-0.271 0.288,-0.543 0.432,-0.814 3.111,0.027 6.314,-0.629 9.373,-1.121 1.61,-0.259 3.214,-0.546 4.816,-0.853 1.196,-0.229 2.438,-0.413 3.637,-0.699 -2.137,3.706 -4.353,7.37 -6.539,11.033 z m 13.744,-24.735 c -1.863,4.051 -3.963,7.999 -6.17,11.892 -0.031,0 -0.06,-0.002 -0.093,0.002 -1.545,0.181 -3.076,0.594 -4.603,0.891 -1.599,0.311 -3.203,0.603 -4.807,0.888 -2.866,0.509 -5.845,0.784 -8.69,1.445 2.178,-4.095 4.333,-8.202 6.467,-12.32 0.01,10e-4 0.019,0.003 0.029,0.004 1.608,0.061 3.406,-0.585 4.967,-0.951 1.726,-0.404 3.452,-0.812 5.178,-1.218 1.726,-0.406 3.449,-0.82 5.173,-1.232 0.995,-0.238 2.094,-0.4 3.123,-0.698 -0.186,0.436 -0.377,0.868 -0.574,1.297 z m 1.262,-2.979 c -1.411,0.087 -2.863,0.621 -4.207,0.941 -1.724,0.411 -3.449,0.821 -5.172,1.239 -1.723,0.418 -3.446,0.833 -5.168,1.254 -1.228,0.3 -2.663,0.515 -3.904,0.977 0.683,-1.322 1.364,-2.645 2.042,-3.97 1.1,-2.15 2.655,-4.831 3.595,-7.567 2.481,-0.018 4.938,-0.37 7.383,-0.783 1.242,-0.21 2.48,-0.45 3.712,-0.71 1.154,-0.243 2.604,-0.356 3.601,-1.012 0.113,-0.075 0.191,-0.167 0.24,-0.266 -0.04,3.403 -0.897,6.724 -2.122,9.897 z m 2.125,-10.433 c -0.095,-0.198 -0.293,-0.355 -0.561,-0.381 -1.134,-0.11 -2.394,0.403 -3.503,0.641 -1.232,0.265 -2.468,0.504 -3.709,0.724 -2.262,0.401 -4.539,0.699 -6.796,1.123 0.756,-2.807 0.703,-5.598 -1.303,-7.863 1.78,-1.477 3.447,-3.091 5.219,-4.58 0.972,-0.816 1.96,-1.614 2.967,-2.386 0.734,-0.564 1.523,-1.081 2.228,-1.686 0.481,0.565 0.937,1.155 1.361,1.773 2.441,3.565 3.922,7.796 4.086,12.124 0.007,0.17 0.008,0.341 0.011,0.511 z"
   id="path267-3" />
		<path
   style="fill:#aa1d45"
   d="m 335.888,327.109 c 0.97,-0.25 1.97,-0.46 2.96,-0.71 -1.37,2.32 -2.73,4.65 -4.1,6.97 -0.04,0.06 -0.06,0.13 -0.08,0.19 -0.92,1.22 -1.84,2.24 -3.27,2.92 -1.42,0.68 -3.1,0.91 -4.64,0.51 -1.54,-0.39 -2.89,-1.38 -3.83,-2.66 7.24,-1.11 9.43,-5.94 9.43,-5.94 0,0 0.08,-0.15 0.25,-0.44 1.09,-0.28 2.19,-0.56 3.28,-0.84 z"
   id="path268-7" />
		<path
   style="fill:#caddea"
   d="m 345.278,313.859 c 0.35,-0.07 0.72,-0.12 1.07,-0.21 -2.18,3.7 -4.35,7.39 -6.53,11.09 -1.43,0.3 -2.86,0.76 -4.27,1.12 l -2.07,0.54 c 1.26,-2.26 3.55,-6.31 6.54,-11.51 0.94,-0.18 1.88,-0.36 2.82,-0.55 0.81,-0.16 1.62,-0.32 2.44,-0.48 z"
   id="path269-1" />
		<path
   style="fill:#aa1d45"
   d="m 347.728,301.659 c 2.12,-0.39 4.27,-0.74 6.38,-1.21 -0.26,0.44 -0.52,0.88 -0.77,1.32 -2.06,3.48 -4.1,6.97 -6.15,10.45 -1.33,-0.31 -3.02,0.36 -4.33,0.62 -0.62,0.12 -1.25,0.25 -1.87,0.38 2,-3.47 4.27,-7.38 6.74,-11.56 z"
   id="path270-2" />
		<path
   style="fill:#caddea"
   d="m 358.068,288.349 c 1.19,-0.23 2.43,-0.41 3.63,-0.7 -2.13,3.71 -4.35,7.37 -6.54,11.04 -2.14,0.31 -4.27,0.76 -6.39,1.21 2.1,-3.55 4.32,-7.26 6.61,-11.05 0.9,-0.16 1.79,-0.33 2.69,-0.5 z"
   id="path271-2" />
		<path
   style="fill:#aa1d45"
   d="m 366.358,273.349 c 0.99,-0.23 2.09,-0.4 3.12,-0.69 -0.19,0.43 -0.38,0.86 -0.57,1.29 -1.87,4.05 -3.97,8 -6.17,11.89 -0.03,0 -0.06,0 -0.1,0.01 -1.54,0.18 -3.07,0.59 -4.6,0.89 -0.52,0.1 -1.03,0.2 -1.55,0.29 0.4,-0.66 0.8,-1.31 1.2,-1.97 2.33,-3.8 4.1,-7.46 5.44,-10.93 1.08,-0.26 2.16,-0.52 3.23,-0.78 z"
   id="path272-0" />
		<path
   style="fill:#caddea"
   d="m 372.288,261.079 c -0.04,3.4 -0.9,6.72 -2.12,9.89 -1.41,0.09 -2.86,0.62 -4.21,0.94 -0.74,0.18 -1.47,0.36 -2.21,0.53 1.21,-3.46 2,-6.7 2.49,-9.65 0.74,-0.14 1.48,-0.28 2.21,-0.44 1.16,-0.24 2.61,-0.35 3.6,-1.01 0.12,-0.07 0.19,-0.16 0.24,-0.26 z"
   id="path273-2" />
		<path
   style="fill:#aa1d45"
   d="m 366.208,246.629 c 0.21,-0.16 0.43,-0.32 0.63,-0.5 0.48,0.57 0.93,1.16 1.36,1.78 2.44,3.56 3.92,7.79 4.08,12.12 0.01,0.17 0.01,0.34 0.01,0.51 -0.09,-0.2 -0.29,-0.35 -0.56,-0.38 -1.13,-0.11 -2.39,0.4 -3.5,0.64 -0.58,0.13 -1.16,0.25 -1.74,0.36 0.92,-6.91 0.22,-12.07 -0.28,-14.53 z"
   id="path274-1" />
	</g></svg>
