<?xml version="1.0" encoding="UTF-8" standalone="no"?>
<!-- Created with Inkscape (http://www.inkscape.org/) -->

<svg
   width="64.102028mm"
   height="92.61573mm"
   viewBox="0 0 64.102028 92.61573"
   version="1.1"
   id="svg1"
   xml:space="preserve"
   xmlns="http://www.w3.org/2000/svg"
   xmlns:svg="http://www.w3.org/2000/svg"><defs
     id="defs1" /><g
     id="layer1"
     transform="translate(-694.50548,-722.54668)"><g
       id="g107"
       transform="matrix(0.47278949,0,0,0.47278949,393.38325,528.19028)">
		<path
   style="fill:#f29d6d"
   d="m 737.22,443.324 c 9.905,7.776 14.501,20.738 12.343,33.1 -0.075,0.422 -0.178,0.844 -0.272,1.266 -1.407,-0.244 -2.786,-0.431 -4.071,-0.563 -7.4,-0.76 -14.96,0.066 -22.276,1.247 -0.91,0.15 -0.703,1.66 0.216,1.604 6.641,-0.375 13.234,-0.9 19.894,-0.403 1.867,0.141 3.733,0.375 5.581,0.722 -1.266,4.286 -3.33,8.282 -5.975,11.884 -4.887,-3.377 -10.815,-5.525 -16.358,-6.35 -0.825,-0.131 -1.21,1.079 -0.356,1.285 5.947,1.426 10.636,3.921 15.063,7.175 -3.864,4.633 -8.714,8.507 -14.032,11.293 -13.084,6.866 -28.851,6.978 -42.78,2.767 -10.177,-3.076 -20.091,-8.732 -25.522,-17.746 2.636,-1.426 5.487,-2.354 8.395,-3.067 0.713,-0.169 0.572,-1.341 -0.178,-1.294 -3.255,0.216 -6.331,1.079 -9.248,2.486 -1.004,-1.979 -1.801,-4.099 -2.345,-6.378 -0.591,-2.448 -0.929,-4.971 -1.032,-7.504 1.172,-0.141 2.364,-0.234 3.611,-0.234 6.875,-0.009 13.216,2.007 19.153,5.412 0.957,0.553 1.688,-0.816 0.844,-1.454 -6.284,-4.755 -15.176,-7.316 -23.636,-6.8 0.122,-4.793 0.994,-9.586 2.42,-14.079 1.257,-3.958 3.001,-7.738 5.159,-11.284 1.201,-1.96 5.993,-10.496 8.592,-9.267 0.76,0.366 1.501,-0.525 0.91,-1.172 -0.403,-0.441 -0.816,-0.741 -1.238,-0.938 0.103,-0.328 0.084,-0.722 -0.131,-1.135 -3.105,-6.059 -4.643,-12.39 -3.93,-19.144 8.62,-0.038 13.075,7.429 17.512,13.966 -0.328,0.038 -0.647,0.075 -0.966,0.131 -1.351,0.206 -0.929,2.195 0.3,2.26 12.503,0.713 24.677,1.126 37.04,3.349 2.232,0.403 3.217,-2.964 0.947,-3.452 -0.169,-0.038 -0.347,-0.075 -0.516,-0.113 2.645,-1.951 5.309,-3.883 8.057,-5.693 2.673,-1.745 6.772,-5.121 9.933,-5.768 3.545,-0.741 2.692,1.069 2.682,3.348 -0.009,2.589 -0.225,5.168 -0.657,7.71 -0.582,3.433 -1.876,6.65 -2.692,9.999 -1.041,0.564 -1.604,1.915 -0.441,2.834 z m -2.72,-8.141 c 1.717,-2.88 2.317,-6.462 2.307,-9.773 0,-1.426 -1.613,-1.866 -2.598,-1.069 -3.039,2.448 -5.89,5.159 -8.76,7.813 -0.732,0.666 0.234,1.979 1.079,1.398 2.298,-1.595 4.615,-3.17 6.875,-4.821 -0.356,1.782 -0.966,3.489 -1.66,5.29 -0.62,1.631 1.913,2.587 2.757,1.162 z m -15.233,28.542 c 0.159,-1.191 0.038,-2.467 0.028,-3.602 0.019,-2.223 -3.433,-2.223 -3.452,0 0,0.084 0,0.178 -0.009,0.263 -0.338,0.178 -0.61,0.45 -0.685,0.872 -0.291,1.66 0.197,3.33 0.985,4.793 0.816,1.51 3.039,0.741 3.105,-0.844 0.01,-0.497 0.019,-0.995 0.028,-1.482 z m -11.48,32.668 c 0.882,-0.497 0.544,-1.623 -0.263,-1.96 -0.656,-0.272 -1.398,-0.225 -2.063,-0.525 -0.694,-0.31 -1.276,-0.844 -1.726,-1.444 -0.694,-0.929 -1.041,-1.988 -0.957,-3.077 1.979,-2.429 3.358,-5.234 4.033,-8.329 0.206,-0.947 -0.441,-2.064 -1.529,-2.007 -2.776,0.15 -5.562,0.216 -8.348,0.309 -1.369,0.047 -1.491,1.838 -0.394,2.26 -0.31,1.097 0.206,2.298 0.591,3.452 0.581,1.735 1.341,3.395 2.223,4.99 0.131,0.234 0.319,0.413 0.535,0.544 -0.084,0.685 -0.291,1.332 -0.722,1.866 -0.863,1.079 -2.11,0.647 -3.058,1.482 -0.263,0.244 -0.403,0.722 -0.281,1.06 0.891,2.467 4.146,0.938 5.262,-0.544 0.234,-0.319 0.431,-0.647 0.572,-0.985 0.084,0.15 0.169,0.31 0.263,0.45 1.144,1.708 3.761,3.65 5.862,2.458 z m -19.537,-32.94 c 0.122,-1.041 0.581,-2.017 0.394,-3.114 -0.056,-0.319 -0.272,-0.582 -0.553,-0.76 -0.009,-0.113 -0.009,-0.216 -0.019,-0.328 -0.019,-1.885 -2.814,-1.867 -2.917,0 -0.037,0.741 -0.066,1.473 -0.084,2.204 -0.244,0.741 -0.319,1.576 -0.291,2.382 -0.028,0.066 -0.038,0.131 -0.066,0.197 -0.225,0.516 -0.056,1.004 0.253,1.313 0.009,0.047 0.019,0.094 0.028,0.141 0.413,1.848 3.508,1.482 3.358,-0.45 -0.047,-0.525 -0.075,-1.06 -0.103,-1.585 z m -11.659,-34.714 c 0.891,1.079 2.289,-0.3 1.801,-1.397 -1.604,-3.574 -5.412,-6.04 -9.004,-7.232 -0.619,-0.206 -1.454,0.235 -1.576,0.891 -0.938,5.102 1.36,9.877 6.162,11.828 0.45,0.188 0.872,-0.535 0.488,-0.835 -2.654,-2.064 -4.427,-5.478 -4.343,-8.864 2.701,1.248 4.502,3.227 6.472,5.609 z"
   id="path96" />
		<path
   style="fill:#f29d6d"
   d="m 676.647,532.777 c -0.666,7.982 -0.882,16.02 -1.135,23.777 -0.272,8.535 -0.516,17.352 0.422,25.962 -6.059,5.759 -13.281,10.017 -21.357,12.259 -1.66,0.46 -3.339,0.844 -5.037,1.125 -1.304,0.225 -2.617,0.385 -3.93,0.46 -1.041,0.178 -1.829,0.028 -2.382,-0.441 2.054,-0.638 3.846,-1.726 5.534,-3.161 0.685,-0.591 -0.375,-1.679 -1.004,-1.004 -1.416,1.501 -3.227,2.57 -5.159,3.255 -0.225,-0.544 -0.319,-1.266 -0.3,-2.12 0.807,-0.385 1.613,-0.76 2.411,-1.144 0.61,-0.281 0.075,-1.229 -0.525,-0.91 -0.61,0.319 -1.21,0.638 -1.81,0.957 0.047,-0.394 0.103,-0.816 0.188,-1.266 1.125,-1.557 4.924,-2.495 6.612,-3.02 2.336,-0.722 4.708,-1.088 7.147,-1.257 1.529,-0.112 2.429,-2.307 0.844,-3.114 -11.856,-6.022 -14.238,-22.623 -11.058,-34.376 3.873,-14.332 18.196,-14.885 30.539,-15.982 z"
   id="path97" />
		<path
   style="fill:#f29d6d"
   d="m 767.703,539.117 c 6.247,15.936 -11.227,31.853 -22.117,41.017 -1.032,0.872 -0.46,2.72 0.797,3.011 4.577,1.079 9.07,2.429 13.431,4.193 1.341,0.544 5.637,1.857 6.425,3.414 -0.084,0.375 -0.159,0.741 -0.234,1.107 -1.998,-0.75 -4.136,-1.304 -6.134,-1.97 -0.657,-0.216 -0.891,0.779 -0.281,1.022 1.773,0.703 3.574,1.576 5.403,2.251 -0.544,0.037 -1.088,0.075 -1.604,0.094 -1.519,0.047 -3.03,0.113 -4.549,0.169 -0.788,0.028 -0.788,1.191 0,1.219 1.519,0.056 3.03,0.122 4.549,0.169 0.647,0.019 1.323,0.094 1.989,0.122 -0.085,0.394 -0.16,0.797 -0.244,1.191 -1.126,0.234 -2.251,0.469 -3.377,0.703 -1.632,0.047 -3.386,-0.46 -4.952,-0.853 -8.845,-2.27 -16.986,-6.434 -24.237,-11.959 -0.263,-0.197 -0.553,-0.281 -0.825,-0.272 1.069,-10.392 0.919,-21.048 0.066,-31.262 -0.403,-4.784 -0.947,-9.698 -1.716,-14.604 0.347,0.038 0.713,-0.084 0.919,-0.422 8.712,-14.154 30.154,-15.026 36.691,1.66 z"
   id="path98" />
		<path
   style="fill:#f29d6d"
   d="m 727.54,545.58 c 1.379,11.19 1.66,22.52 0.816,33.757 -0.413,5.609 -0.694,11.668 -2.251,17.099 -0.188,1.426 -0.816,2.57 -1.895,3.442 -0.131,0.263 -0.281,0.469 -0.432,0.638 0.056,-1.538 0.113,-3.067 0.169,-4.605 0.037,-0.966 -1.538,-0.966 -1.501,0 0.066,1.707 0.122,3.405 0.188,5.112 -0.46,-0.066 -0.957,-0.385 -1.501,-0.975 0.103,-2.073 0.197,-4.183 -0.141,-6.181 -0.103,-0.61 -1.116,-0.61 -1.219,0 -0.291,1.679 -0.263,3.442 -0.188,5.196 -1.154,-0.694 -1.144,-1.06 -1.482,-2.842 -0.638,-3.452 -1.022,-6.978 -1.416,-10.468 -1.351,-12.203 -1.632,-24.471 -1.069,-36.74 0.094,-2.082 -3.114,-2.063 -3.236,0 -0.75,13.422 -0.6,27.219 1.172,40.651 -5.262,3.911 -11.874,4.718 -17.68,1.988 -0.328,-0.15 -0.657,-0.319 -0.976,-0.497 1.932,-15.176 2.12,-30.662 0.807,-45.885 -0.159,-1.867 -3.048,-1.914 -2.945,0 0.675,12.794 0.685,25.625 -0.403,38.39 -0.206,2.401 -1.004,17.708 -5.065,19.331 -0.094,-2.654 0.225,-5.234 1.069,-7.804 0.366,-1.107 -1.416,-1.604 -1.745,-0.478 -0.797,2.711 -1.097,5.478 -0.835,8.254 -0.141,-0.047 -0.281,-0.112 -0.431,-0.188 -0.703,-0.394 -1.285,-1.229 -1.773,-2.232 -0.131,-3.18 -0.357,-6.397 -1.135,-9.483 -0.178,-0.732 -1.323,-0.582 -1.313,0.178 0.009,0.544 0.038,1.097 0.084,1.641 -0.694,-2.617 -1.21,-5.271 -1.585,-7.954 -1.698,-12.024 -1.041,-24.424 -0.432,-36.514 0.619,-12.259 2.551,-24.527 2.889,-36.786 12.315,3.902 26.019,4.174 38.175,0.497 2.647,11.153 5.864,22.005 7.28,33.458 z"
   id="path99" />
		<path
   style="fill:#3c3c3b"
   d="m 768.041,532.598 c 12.54,17.371 -4.061,36.261 -17.408,47.939 8.873,2.486 28.364,9.239 17.371,17.887 -5.243,4.118 -13.525,0.825 -18.9,-1.229 -6.416,-2.457 -12.306,-5.843 -17.765,-9.97 -0.394,2.926 -0.872,5.834 -1.482,8.695 -0.891,4.193 -3.198,8.892 -8.123,9.107 -4.615,0.197 -6.331,-4.071 -7.016,-7.869 -0.263,-1.435 -0.497,-2.88 -0.713,-4.324 -5.712,4.08 -13.347,4.211 -19.416,0.797 l 1.285,-1.979 c 5.806,2.729 12.418,1.923 17.68,-1.988 -1.773,-13.432 -1.923,-27.229 -1.172,-40.651 0.122,-2.063 3.33,-2.082 3.236,0 -0.563,12.268 -0.281,24.537 1.069,36.74 0.394,3.489 0.778,7.016 1.416,10.468 0.338,1.782 0.328,2.148 1.482,2.842 -0.075,-1.754 -0.103,-3.517 0.188,-5.196 0.103,-0.61 1.116,-0.61 1.219,0 0.338,1.998 0.244,4.108 0.141,6.181 0.544,0.591 1.041,0.91 1.501,0.975 -0.066,-1.707 -0.122,-3.405 -0.188,-5.112 -0.037,-0.966 1.538,-0.966 1.501,0 -0.056,1.538 -0.113,3.067 -0.169,4.605 0.15,-0.169 0.3,-0.375 0.432,-0.638 1.079,-0.872 1.707,-2.017 1.895,-3.442 1.557,-5.431 1.838,-11.49 2.251,-17.099 0.844,-11.237 0.563,-22.567 -0.816,-33.757 -1.416,-11.452 -4.633,-22.305 -7.279,-33.457 l 2.514,-0.825 c 3.358,7.635 5.515,15.992 6.96,24.415 7.053,-15.261 28.542,-16.64 38.306,-3.115 z m -22.455,47.536 c 10.89,-9.164 28.364,-25.081 22.117,-41.017 -6.538,-16.686 -27.979,-15.814 -36.693,-1.66 -0.206,0.338 -0.572,0.46 -0.919,0.422 0.769,4.906 1.313,9.82 1.716,14.604 0.854,10.214 1.004,20.869 -0.066,31.262 0.272,-0.009 0.563,0.075 0.825,0.272 7.25,5.524 15.392,9.689 24.237,11.959 1.566,0.394 3.32,0.9 4.952,0.853 1.126,-0.234 2.251,-0.469 3.377,-0.703 0.084,-0.394 0.159,-0.797 0.244,-1.191 -0.666,-0.028 -1.341,-0.103 -1.989,-0.122 -1.519,-0.047 -3.03,-0.112 -4.549,-0.169 -0.788,-0.028 -0.788,-1.191 0,-1.219 1.519,-0.056 3.03,-0.122 4.549,-0.169 0.516,-0.019 1.06,-0.056 1.604,-0.094 -1.829,-0.675 -3.63,-1.548 -5.403,-2.251 -0.61,-0.244 -0.375,-1.238 0.281,-1.022 1.998,0.666 4.136,1.219 6.134,1.97 0.075,-0.366 0.15,-0.732 0.234,-1.107 -0.788,-1.557 -5.084,-2.87 -6.425,-3.414 -4.362,-1.763 -8.854,-3.114 -13.431,-4.193 -1.254,-0.291 -1.826,-2.139 -0.795,-3.011 z"
   id="path100" />
		<path
   style="fill:#3c3c3b"
   d="m 763.079,484.022 c 0.535,0.61 0.038,1.876 -0.882,1.519 -3.077,-1.219 -5.74,-3.067 -8.929,-4.099 -0.328,-0.103 -0.666,-0.188 -0.994,-0.281 -0.328,1.144 -0.703,2.279 -1.144,3.386 -1.445,3.695 -3.292,7.016 -5.45,10.008 1.566,1.407 2.964,2.955 4.127,4.662 0.628,0.938 -0.732,1.838 -1.491,1.154 -1.435,-1.304 -2.842,-2.542 -4.258,-3.705 -5.618,6.857 -13.028,11.706 -21.282,14.632 l -2.514,0.825 c -12.156,3.677 -25.859,3.405 -38.175,-0.497 l -2.092,-0.497 c 0.019,-0.056 0.028,-0.122 0.047,-0.178 -3.695,-1.313 -7.241,-2.945 -10.571,-4.905 -5.984,-3.536 -10.533,-8.141 -13.675,-13.478 -1.838,1.566 -3.452,3.461 -5.515,4.521 -0.647,0.338 -1.594,-0.225 -1.323,-1.013 0.835,-2.382 3.32,-4.277 5.656,-5.684 -2.279,-4.568 -3.592,-9.595 -3.939,-14.932 -3.714,0.854 -7.213,2.26 -10.955,3.827 -1.341,0.553 -1.82,-1.416 -0.891,-2.129 3.386,-2.598 7.447,-4.211 11.743,-4.962 0.019,-2.092 0.178,-4.211 0.478,-6.369 1.116,-7.982 3.996,-15.795 8.46,-22.52 1.285,-1.923 4.521,-6.819 7.719,-8.179 -4.446,-6.706 -5.74,-14.716 -4.587,-22.605 0.131,-0.835 1.041,-1.266 1.773,-1.341 10.74,-1.154 18.45,8.132 22.83,16.827 0.047,0.094 0.075,0.178 0.113,0.263 10.13,-0.882 20.625,0.178 30.577,2.138 0.019,-0.019 0.028,-0.038 0.037,-0.056 3.902,-4.418 8.507,-8.123 13.563,-11.152 2.523,-1.51 7.841,-5.693 10.993,-3.696 3.311,2.101 2.026,9.136 1.716,12.203 -0.46,4.53 -1.276,9.595 -3.461,13.703 10.636,8.957 14.97,23.655 12.156,37.077 3.912,1.04 7.702,2.728 10.14,5.533 z m -13.516,-7.597 c 2.157,-12.362 -2.439,-25.325 -12.343,-33.1 -1.163,-0.919 -0.6,-2.27 0.441,-2.833 0.816,-3.349 2.11,-6.566 2.692,-9.999 0.431,-2.542 0.647,-5.121 0.657,-7.71 0.009,-2.279 0.863,-4.089 -2.682,-3.348 -3.161,0.647 -7.26,4.024 -9.933,5.768 -2.748,1.81 -5.412,3.742 -8.057,5.693 0.169,0.038 0.347,0.075 0.516,0.113 2.27,0.488 1.285,3.855 -0.947,3.452 -12.362,-2.223 -24.537,-2.636 -37.04,-3.349 -1.229,-0.066 -1.651,-2.054 -0.3,-2.26 0.319,-0.056 0.638,-0.094 0.966,-0.131 -4.436,-6.538 -8.892,-14.004 -17.512,-13.966 -0.713,6.753 0.825,13.084 3.93,19.144 0.216,0.413 0.234,0.807 0.131,1.135 0.422,0.197 0.835,0.497 1.238,0.938 0.591,0.647 -0.15,1.538 -0.91,1.172 -2.598,-1.229 -7.391,7.307 -8.592,9.267 -2.157,3.546 -3.902,7.325 -5.159,11.284 -1.426,4.493 -2.298,9.286 -2.42,14.079 8.46,-0.516 17.352,2.045 23.636,6.8 0.844,0.638 0.113,2.007 -0.844,1.454 -5.937,-3.405 -12.278,-5.421 -19.153,-5.412 -1.247,0 -2.439,0.094 -3.611,0.234 0.103,2.533 0.441,5.056 1.032,7.504 0.544,2.279 1.341,4.399 2.345,6.378 2.917,-1.407 5.993,-2.27 9.248,-2.486 0.75,-0.047 0.891,1.125 0.178,1.294 -2.908,0.713 -5.759,1.641 -8.395,3.067 5.431,9.014 15.345,14.669 25.522,17.746 13.929,4.211 29.695,4.099 42.78,-2.767 5.318,-2.786 10.167,-6.659 14.032,-11.293 -4.427,-3.255 -9.117,-5.75 -15.063,-7.175 -0.854,-0.206 -0.469,-1.416 0.356,-1.285 5.543,0.825 11.471,2.973 16.358,6.35 2.645,-3.602 4.708,-7.597 5.975,-11.884 -1.848,-0.347 -3.714,-0.582 -5.581,-0.722 -6.659,-0.497 -13.253,0.028 -19.894,0.403 -0.919,0.056 -1.126,-1.454 -0.216,-1.604 7.316,-1.182 14.876,-2.007 22.276,-1.247 1.285,0.131 2.664,0.319 4.071,0.563 0.094,-0.423 0.197,-0.845 0.272,-1.267 z"
   id="path101" />
		<path
   style="fill:#3c3c3b"
   d="m 736.807,425.409 c 0.009,3.311 -0.591,6.894 -2.307,9.773 -0.844,1.426 -3.377,0.469 -2.758,-1.163 0.694,-1.801 1.304,-3.508 1.66,-5.29 -2.26,1.651 -4.577,3.227 -6.875,4.821 -0.844,0.582 -1.81,-0.732 -1.079,-1.398 2.87,-2.654 5.721,-5.365 8.76,-7.813 0.986,-0.796 2.599,-0.355 2.599,1.07 z"
   id="path102" />
		<path
   style="fill:#3c3c3b"
   d="m 719.296,460.123 c 0.009,1.135 0.131,2.411 -0.028,3.602 -0.009,0.488 -0.019,0.985 -0.028,1.482 -0.066,1.585 -2.289,2.354 -3.105,0.844 -0.788,-1.463 -1.276,-3.133 -0.985,-4.793 0.075,-0.422 0.347,-0.694 0.685,-0.872 0.009,-0.084 0.009,-0.178 0.009,-0.263 0.019,-2.223 3.47,-2.223 3.452,0 z"
   id="path103" />
		<path
   style="fill:#3c3c3b"
   d="m 707.524,494.433 c 0.807,0.338 1.144,1.463 0.263,1.96 -2.101,1.191 -4.718,-0.75 -5.862,-2.457 -0.094,-0.141 -0.178,-0.3 -0.263,-0.45 -0.141,0.338 -0.338,0.666 -0.572,0.985 -1.116,1.482 -4.371,3.011 -5.262,0.544 -0.122,-0.338 0.019,-0.816 0.281,-1.06 0.947,-0.835 2.195,-0.403 3.058,-1.482 0.432,-0.535 0.638,-1.182 0.722,-1.866 -0.216,-0.131 -0.403,-0.31 -0.535,-0.544 -0.882,-1.595 -1.641,-3.255 -2.223,-4.99 -0.385,-1.154 -0.901,-2.354 -0.591,-3.452 -1.097,-0.422 -0.975,-2.214 0.394,-2.26 2.786,-0.094 5.571,-0.159 8.348,-0.309 1.088,-0.056 1.735,1.06 1.529,2.007 -0.675,3.095 -2.054,5.9 -4.033,8.329 -0.084,1.088 0.263,2.148 0.957,3.077 0.45,0.6 1.032,1.135 1.726,1.444 0.666,0.299 1.407,0.252 2.063,0.524 z"
   id="path104" />
		<path
   style="fill:#3c3c3b"
   d="m 695.706,545.27 c 1.313,15.223 1.125,30.708 -0.807,45.885 0.319,0.178 0.647,0.347 0.976,0.497 l -1.285,1.979 c -0.6,4.343 -1.951,12.522 -7.091,13.291 -4.052,0.61 -6.359,-4.043 -7.56,-7.119 -1.679,-4.324 -2.776,-8.817 -3.489,-13.385 -4.596,4.024 -9.736,7.26 -15.429,9.558 -5.365,2.167 -13.572,5.065 -19.387,3.236 -4.324,-1.369 -6.369,-6.05 -3.161,-9.67 3.067,-3.442 8.263,-5.206 13.122,-6.059 -10.045,-8.16 -12.146,-24.537 -8.554,-36.374 4.474,-14.707 20.204,-17.999 33.794,-16.499 0.61,-6.613 1.576,-13.178 3.161,-19.481 l 2.092,0.497 c -0.338,12.259 -2.27,24.527 -2.889,36.786 -0.61,12.09 -1.266,24.49 0.432,36.514 0.375,2.683 0.891,5.337 1.585,7.954 -0.047,-0.544 -0.075,-1.097 -0.084,-1.641 -0.009,-0.76 1.135,-0.91 1.313,-0.178 0.779,3.086 1.004,6.303 1.135,9.483 0.488,1.004 1.069,1.838 1.773,2.232 0.15,0.075 0.291,0.141 0.431,0.188 -0.263,-2.776 0.038,-5.543 0.835,-8.254 0.328,-1.125 2.11,-0.628 1.745,0.478 -0.844,2.57 -1.163,5.149 -1.069,7.804 4.061,-1.623 4.859,-16.93 5.065,-19.331 1.088,-12.766 1.079,-25.597 0.403,-38.39 -0.105,-1.914 2.784,-1.867 2.943,-10e-4 z m -20.194,11.284 c 0.253,-7.757 0.469,-15.795 1.135,-23.777 -12.343,1.097 -26.666,1.651 -30.54,15.983 -3.18,11.753 -0.797,28.354 11.058,34.376 1.585,0.807 0.685,3.002 -0.844,3.114 -2.439,0.169 -4.812,0.535 -7.147,1.257 -1.688,0.525 -5.487,1.463 -6.612,3.02 -0.084,0.45 -0.141,0.872 -0.188,1.266 0.6,-0.319 1.201,-0.638 1.81,-0.957 0.6,-0.319 1.135,0.628 0.525,0.91 -0.797,0.385 -1.604,0.76 -2.411,1.144 -0.019,0.854 0.075,1.576 0.3,2.12 1.932,-0.685 3.742,-1.754 5.159,-3.255 0.628,-0.675 1.688,0.413 1.004,1.004 -1.688,1.435 -3.48,2.523 -5.534,3.161 0.553,0.469 1.341,0.619 2.382,0.441 1.313,-0.075 2.626,-0.234 3.93,-0.46 1.698,-0.281 3.377,-0.666 5.037,-1.125 8.076,-2.242 15.298,-6.5 21.357,-12.259 -0.937,-8.611 -0.693,-17.428 -0.421,-25.963 z"
   id="path105" />
		<path
   style="fill:#3c3c3b"
   d="m 688.643,460.339 c 0.188,1.097 -0.272,2.073 -0.394,3.114 0.028,0.525 0.056,1.06 0.103,1.585 0.15,1.932 -2.945,2.298 -3.358,0.45 -0.009,-0.047 -0.019,-0.094 -0.028,-0.141 -0.309,-0.31 -0.478,-0.797 -0.253,-1.313 0.028,-0.066 0.037,-0.131 0.066,-0.197 -0.028,-0.807 0.047,-1.642 0.291,-2.382 0.019,-0.732 0.047,-1.463 0.084,-2.204 0.103,-1.867 2.898,-1.885 2.917,0 0.009,0.112 0.009,0.216 0.019,0.328 0.281,0.178 0.497,0.441 0.553,0.76 z"
   id="path106" />
		<path
   style="fill:#3c3c3b"
   d="m 678.392,427.342 c 0.488,1.097 -0.91,2.476 -1.801,1.397 -1.97,-2.382 -3.771,-4.361 -6.472,-5.609 -0.084,3.386 1.688,6.8 4.343,8.864 0.384,0.3 -0.038,1.022 -0.488,0.835 -4.802,-1.951 -7.1,-6.725 -6.162,-11.828 0.122,-0.656 0.957,-1.097 1.576,-0.891 3.592,1.191 7.4,3.658 9.004,7.232 z"
   id="path107" />
	</g></g></svg>
