<?xml version="1.0" encoding="UTF-8" standalone="no"?>
<!-- Created with Inkscape (http://www.inkscape.org/) -->

<svg
   width="101.17292mm"
   height="74.240234mm"
   viewBox="0 0 101.17292 74.240234"
   version="1.1"
   id="svg1"
   xml:space="preserve"
   xmlns="http://www.w3.org/2000/svg"
   xmlns:svg="http://www.w3.org/2000/svg"><defs
     id="defs1" /><g
     id="layer1"
     transform="translate(-482.37148,-567.3174)"><g
       id="g213"
       transform="matrix(0.38386508,0,0,0.40014079,481.0075,558.62295)">
		<path
   style="fill:#f599cb"
   d="m 262.213,47.048 c 1.726,3.724 3.095,7.138 1.932,11.602 -0.872,3.339 -2.889,6.087 -5.525,8.17 -0.525,-1.154 -1.191,-2.27 -2.035,-3.33 -0.131,-0.178 -0.291,-0.319 -0.431,-0.478 4.746,-3.405 7.878,-10.365 6.059,-15.964 z"
   id="path183" />
		<path
   style="fill:#3c3c3b"
   d="m 264.145,58.65 c 1.163,-4.465 -0.206,-7.879 -1.932,-11.602 1.82,5.6 -1.313,12.559 -6.059,15.964 L 255,61.849 c 2.035,-1.792 3.583,-3.949 4.474,-6.622 1.097,-3.33 0.535,-5.947 0.066,-9.267 -0.141,-1.004 1.051,-1.735 1.717,-0.975 0,-0.009 -0.009,-0.019 -0.009,-0.028 -0.263,-0.563 0.338,-1.444 0.966,-0.966 8.442,6.331 4.924,18.628 -2.561,24.021 l -1.032,-1.191 c 2.635,-2.083 4.652,-4.832 5.524,-8.171 z"
   id="path184" />
		<path
   style="fill:#3c3c3b"
   d="m 258.62,66.82 1.032,1.191 c -0.141,0.103 -0.281,0.206 -0.431,0.3 4.934,14.491 -12.315,33.147 -26.141,24.612 l 1.191,-1.669 c 10.552,4.108 21.498,-5.224 22.22,-16.527 0.103,-1.67 -0.113,-3.414 -0.6,-5.084 -0.15,-0.16 -0.235,-0.394 -0.197,-0.619 -1.651,-4.784 -5.684,-8.61 -11.302,-7.072 -4.155,1.135 -7.485,5.722 -5.224,10.017 1.557,2.945 4.662,3.742 7.738,3.583 0.216,-0.009 0.403,0.066 0.563,0.178 l 0.309,-0.009 0.056,1.529 c -0.084,0.131 -0.197,0.253 -0.375,0.328 -7.457,3.302 -14.36,-5.74 -11.246,-12.597 3.527,-7.748 13.047,-8.198 18.787,-3.133 l 1.154,1.163 c 0.141,0.159 0.3,0.3 0.431,0.478 0.844,1.061 1.51,2.177 2.035,3.331 z"
   id="path185" />
		<path
   style="fill:#f599cb"
   d="m 255.891,69.643 c 0.488,1.67 0.703,3.414 0.6,5.084 -0.722,11.302 -11.668,20.635 -22.22,16.527 -0.581,-0.235 -1.163,-0.497 -1.735,-0.807 -0.15,-0.591 -0.309,-1.191 -0.46,-1.782 5.056,0.741 10.027,-0.75 13.966,-4.099 4.033,-3.414 7.532,-9.605 5.853,-15.026 -0.994,-3.198 -5.937,-6.256 -8.404,-2.626 -2.007,2.964 0.994,7.025 4.286,6.294 1.144,-0.253 0.872,-2.007 -0.272,-2.007 -0.037,-3.63 0.441,-4.099 1.416,-1.388 0.788,0.835 1.088,1.782 0.91,2.851 0.019,0.985 -0.253,2.035 -0.581,3.001 -0.028,0 -0.056,0 -0.084,0 l -1.388,0.056 -0.309,0.009 c -0.159,-0.113 -0.347,-0.188 -0.563,-0.178 -3.076,0.159 -6.181,-0.638 -7.738,-3.583 -2.26,-4.296 1.069,-8.882 5.224,-10.017 5.618,-1.538 9.652,2.289 11.302,7.072 -0.038,0.225 0.047,0.459 0.197,0.619 z"
   id="path186" />
		<path
   style="fill:#3c3c3b"
   d="m 251.895,69.54 c 1.679,5.421 -1.82,11.612 -5.853,15.026 -3.939,3.348 -8.91,4.84 -13.966,4.099 l 0.131,-1.763 c 4.615,0.291 9.117,-1.229 12.587,-4.38 1.623,-1.473 2.908,-3.255 3.799,-5.243 l -0.76,-0.028 -0.056,-1.529 1.388,-0.056 c 0.028,0 0.056,0 0.084,0 0.328,-0.966 0.6,-2.017 0.581,-3.001 0.178,-1.069 -0.122,-2.017 -0.91,-2.851 -0.975,-2.711 -1.454,-2.242 -1.416,1.388 1.144,0 1.416,1.754 0.272,2.007 -3.292,0.732 -6.294,-3.33 -4.286,-6.294 2.468,-3.631 7.411,-0.574 8.405,2.625 z"
   id="path187" />
		<path
   style="fill:#3c3c3b"
   d="m 235.143,107.002 c 1.904,23.899 -4.971,51.165 -28.467,61.811 0.647,1.313 1.266,2.654 1.848,4.024 1.735,4.071 3.977,8.573 2.992,13.103 -1.585,7.232 -10.111,10.046 -16.198,12.278 -5.027,1.848 -13.928,5.872 -17.662,1.163 -0.037,0.028 -0.066,0.056 -0.112,0.075 -6.294,3.086 -16.424,5.984 -23.486,4.08 -3.001,-0.807 -2.955,-3.17 -3.377,-5.975 -0.619,-4.108 -1.323,-8.207 -1.791,-12.334 -5.206,1.116 -10.458,1.998 -15.748,2.654 -13.722,1.707 -27.679,1.923 -41.307,-0.563 l 0.094,-2.307 c 13.169,0.553 26.385,0.769 39.506,-0.76 7.532,-0.882 14.998,-2.279 22.342,-4.165 6.509,-1.66 13.188,-4.999 19.791,-5.9 0.253,-0.037 0.488,-0.009 0.703,0.047 0.131,-2.795 0.385,-5.534 0.76,-8.16 0.272,-1.988 3.48,-1.454 3.433,0.46 -0.178,6.885 -0.31,13.657 0.45,20.476 l 0.919,1.585 c -0.234,0.094 -0.469,0.188 -0.704,0.291 0.009,0.028 0.009,0.056 0.019,0.084 0.431,3.189 0.113,8.207 3.855,8.413 3.199,0.178 7.438,-1.763 10.402,-2.842 0.497,-0.178 1.013,-0.366 1.529,-0.553 6.641,-2.382 14.051,-5.234 12.193,-13.675 0,-0.037 -0.009,-0.075 -0.019,-0.113 -1.529,-6.716 -5.009,-13.535 -7.898,-19.753 -0.647,-1.379 1.219,-2.523 2.063,-1.201 1.304,2.035 2.514,4.089 3.649,6.181 27.051,-11.762 29.874,-46.972 24.237,-72.194 C 224.544,72.578 213.523,52.516 196.115,39.994 175.217,24.968 148.626,24.724 123.94,25.765 98.831,26.825 73.703,31.327 53.969,47.976 37.002,62.308 27.978,81.076 22.698,102.199 L 20.184,102.03 C 21.188,85.963 28.701,70.393 39.29,57.684 38.765,57.215 38.249,56.737 37.752,56.24 l 2.214,-1.501 c 0.319,0.347 0.638,0.685 0.966,1.022 2.748,-3.123 5.675,-6.059 8.732,-8.77 -0.197,-0.009 -0.403,-0.047 -0.61,-0.178 -2.814,-1.82 -4.999,-4.512 -7.888,-6.322 -1.679,-1.05 -5.684,-2.026 -6.191,-4.071 -0.009,-0.037 0,-0.075 0.028,-0.103 1.792,-1.632 5.815,0.807 7.588,1.735 2.945,1.538 6.706,3.921 8.263,6.96 0.141,0.281 0.169,0.581 0.113,0.863 1.67,-1.426 3.367,-2.786 5.093,-4.08 1.107,-0.825 2.232,-1.623 3.367,-2.382 22.774,-15.354 51.118,-17.361 77.812,-17.671 26.066,-0.3 51.944,4.296 70.947,23.496 11.349,11.462 19.144,26.075 23.421,41.617 0.197,0.019 0.394,0.037 0.6,0.047 l -0.131,1.763 c 0.15,0.591 0.31,1.191 0.46,1.782 0.572,0.31 1.154,0.572 1.735,0.807 l -1.191,1.669 c 0.994,4.652 1.688,9.361 2.063,14.079 z m -58.781,89.649 c -0.478,-1.829 -0.872,-3.724 -1.191,-5.656 -0.732,-4.437 -1.041,-9.079 -0.985,-13.647 -5.703,3.62 -13.779,5.102 -20.213,6.697 -1.032,0.263 -2.082,0.488 -3.123,0.722 0.619,2.495 1.116,5.009 1.632,7.532 3.076,0.085 5.909,-1.782 9.014,-1.341 2.861,0.413 3.47,3.152 5.318,4.512 1.135,-2.908 3.639,-5.562 6.922,-5.234 0.497,0.047 0.854,0.422 0.938,0.835 0.075,0.347 -0.056,0.722 -0.45,0.957 -2.504,1.529 -4.587,2.373 -5.337,5.656 -0.113,0.488 -0.572,0.854 -1.069,0.938 -0.178,0.037 -0.366,0.028 -0.544,-0.028 -3.489,-1.097 -4.005,-5.224 -8.113,-5.346 -2.373,-0.075 -4.277,0.797 -6.397,0.469 0.028,0.131 0.056,0.263 0.084,0.403 0.722,3.508 0.3,6.434 4.493,6.415 3.667,-0.009 7.166,-0.506 10.608,-1.332 2.823,-0.667 5.609,-1.558 8.413,-2.552 z"
   id="path188" />
		<path
   style="fill:#f599cb"
   d="m 229.159,93.232 c 5.637,25.222 2.814,60.432 -24.237,72.194 -1.135,-2.092 -2.345,-4.146 -3.649,-6.181 -0.844,-1.323 -2.711,-0.178 -2.063,1.201 2.889,6.219 6.369,13.038 7.898,19.753 0.009,0.038 0.019,0.075 0.019,0.113 l -0.028,0.009 c -0.16,-0.816 -0.91,-1.585 -1.96,-1.426 -3.123,0.478 -6.537,1.398 -8.967,3.546 -0.882,0.779 -1.594,1.651 -2.054,2.748 -0.253,0.591 -0.281,2.045 -0.422,3.283 -3.508,-4.371 -9.623,-4.033 -14.782,-1.463 -0.76,-6.819 -0.628,-13.591 -0.45,-20.476 0.047,-1.913 -3.161,-2.448 -3.433,-0.46 -0.375,2.626 -0.628,5.365 -0.76,8.16 -0.216,-0.056 -0.45,-0.084 -0.703,-0.047 -6.603,0.9 -13.281,4.24 -19.791,5.9 -7.344,1.885 -14.81,3.283 -22.342,4.165 -13.122,1.529 -26.338,1.313 -39.506,0.76 -0.216,-0.009 -0.422,-0.019 -0.638,-0.028 -0.9,-3.808 -1.979,-7.738 -3.911,-10.965 -0.741,-1.219 -3.133,-0.835 -2.926,0.788 0.816,6.219 3.442,12.315 4.746,18.487 0.047,0.234 0.103,0.469 0.159,0.713 -0.056,-0.047 -0.094,-0.103 -0.159,-0.15 -2.307,-1.623 -5.375,-1.491 -7.898,-0.356 -0.947,0.422 -1.866,0.966 -2.626,1.679 -0.366,0.338 -0.966,1.445 -1.369,1.641 -0.375,0.929 -1.051,0.844 -2.017,-0.244 -1.904,-0.206 -2.373,-1.229 -1.407,-3.076 0.15,-0.919 -0.375,-1.848 -1.397,-1.848 -3.086,0 -6.153,-0.403 -9.22,-0.713 1.163,-6.219 3.02,-12.343 5.487,-18.168 0.629,-1.473 -1.388,-2.786 -2.223,-1.294 -1.304,2.345 -2.523,4.812 -3.592,7.344 -0.234,-0.15 -0.506,-0.263 -0.825,-0.3 -16.236,-1.979 -30.155,-13.844 -36.505,-28.729 0,-0.047 0,-0.084 0,-0.131 10.271,2.936 22.52,2.579 32.125,-1.407 9.802,-4.061 18.084,-13.919 16.63,-25.072 -1.21,-9.257 -9.089,-15.804 -17.652,-18.421 -0.066,-0.038 -0.131,-0.084 -0.197,-0.122 C 46.178,98.252 34.078,99.34 22.701,102.2 27.982,81.077 37.005,62.309 53.972,47.977 73.707,31.328 98.834,26.826 123.943,25.766 c 24.687,-1.041 51.278,-0.797 72.175,14.229 17.406,12.521 28.427,32.584 33.041,53.237 z M 103.089,61.98 c 1.885,-4.859 1.491,-10.908 0.732,-15.983 -0.441,-2.964 -1.079,-7.823 -4.877,-8.348 -3.489,-0.478 -7.56,3.48 -9.82,5.675 -3.292,3.208 -5.656,7.091 -7.41,11.312 -0.45,1.088 1.36,1.829 1.904,0.797 2.429,-4.671 7.485,-12.053 12.897,-13.666 6.734,-2.017 3.752,16.405 3.742,19.828 -0.01,1.717 2.27,1.829 2.832,0.385 z m -7.062,-4.193 c 2.523,-3.048 1.229,-8.545 -0.422,-11.724 -0.431,-0.825 -1.754,-0.253 -1.491,0.628 0.488,1.698 0.76,3.527 0.619,5.309 -0.122,1.67 -0.957,3.189 -0.938,4.859 0.009,1.05 1.481,1.838 2.232,0.928 z M 54.644,89.753 c 0.047,-0.741 0.009,-1.51 0.009,-2.251 -0.009,-2.504 -3.902,-2.514 -3.902,0 0,0.741 -0.038,1.51 0.009,2.251 0.009,0.938 0.019,1.876 0.047,2.804 -0.037,1.248 0.929,1.848 1.895,1.829 0.966,0.019 1.932,-0.581 1.895,-1.829 0.028,-0.928 0.038,-1.866 0.047,-2.804 z m -15.992,2.363 c 0.094,-0.75 0.103,-1.473 0.019,-2.185 0,-0.291 0,-0.582 -0.019,-0.872 -0.028,-0.516 -0.206,-0.91 -0.469,-1.21 -0.206,-0.553 -0.46,-1.097 -0.769,-1.651 -0.825,-1.454 -3.011,-0.76 -3.058,0.835 -0.047,1.172 0.028,2.336 0.075,3.508 0.009,0.366 0.169,0.657 0.394,0.882 0.009,0.234 0.009,0.478 0.009,0.713 0.038,2.063 3.377,2.701 3.752,0.507 0.028,-0.169 0.047,-0.338 0.066,-0.507 0,-10e-4 0,-0.01 0,-0.02 z"
   id="path189" />
		<path
   style="fill:#eb3398"
   d="m 207.127,180.312 c 1.857,8.442 -5.553,11.293 -12.193,13.675 l -0.291,-0.825 c 2.045,-0.966 1.763,-2.495 2.12,-4.437 0.929,-5.018 4.755,-5.909 9.22,-6.772 0.947,-0.188 1.247,-0.919 1.116,-1.632 z"
   id="path190" />
		<path
   style="fill:#3c3c3b"
   d="m 207.099,180.321 c 0.131,0.713 -0.169,1.444 -1.116,1.632 -4.465,0.863 -8.291,1.754 -9.22,6.772 -0.356,1.942 -0.075,3.47 -2.12,4.437 -0.975,0.46 -1.941,0.075 -2.317,-0.938 -2.045,-5.478 -7.945,-5.365 -12.493,-3.63 l -0.919,-1.585 c 5.159,-2.57 11.274,-2.908 14.782,1.463 0.141,-1.238 0.169,-2.692 0.422,-3.283 0.46,-1.097 1.172,-1.97 2.054,-2.748 2.429,-2.148 5.843,-3.067 8.967,-3.546 1.05,-0.159 1.8,0.61 1.96,1.426 z"
   id="path191" />
		<path
   style="fill:#eb3398"
   d="m 194.643,193.162 0.291,0.825 c -0.516,0.188 -1.032,0.375 -1.529,0.553 -2.964,1.079 -7.203,3.02 -10.402,2.842 -3.742,-0.206 -3.423,-5.224 -3.855,-8.413 -0.009,-0.028 -0.009,-0.056 -0.019,-0.084 0.235,-0.103 0.469,-0.197 0.704,-0.291 4.549,-1.735 10.449,-1.848 12.493,3.63 0.375,1.013 1.341,1.397 2.317,0.938 z"
   id="path192" />
		<path
   style="fill:#eb3398"
   d="m 175.171,190.995 c 0.319,1.932 0.713,3.827 1.191,5.656 -2.804,0.994 -5.59,1.885 -8.413,2.551 l -0.131,-0.582 c 0.497,-0.084 0.957,-0.45 1.069,-0.938 0.75,-3.283 2.833,-4.127 5.337,-5.656 0.394,-0.234 0.525,-0.61 0.45,-0.957 z"
   id="path193" />
		<path
   style="fill:#f599cb"
   d="m 175.171,190.995 -0.497,0.075 c -0.084,-0.413 -0.441,-0.788 -0.938,-0.835 -3.283,-0.328 -5.787,2.326 -6.922,5.234 -1.848,-1.36 -2.457,-4.099 -5.318,-4.512 -3.105,-0.441 -5.937,1.426 -9.014,1.341 -0.516,-2.523 -1.013,-5.037 -1.632,-7.532 1.041,-0.235 2.092,-0.46 3.123,-0.722 6.434,-1.595 14.51,-3.077 20.213,-6.697 -0.056,4.569 0.253,9.212 0.985,13.648 z"
   id="path194" />
		<path
   style="fill:#eb3398"
   d="m 167.817,198.621 0.131,0.582 c -3.442,0.825 -6.941,1.323 -10.608,1.332 -4.193,0.019 -3.771,-2.908 -4.493,-6.415 -0.028,-0.141 -0.056,-0.272 -0.084,-0.403 2.12,0.328 4.024,-0.544 6.397,-0.469 4.108,0.122 4.624,4.249 8.113,5.346 0.179,0.055 0.366,0.064 0.544,0.027 z"
   id="path195" />
		<path
   style="fill:#3c3c3b"
   d="m 103.821,45.997 c 0.76,5.074 1.154,11.124 -0.732,15.983 -0.563,1.444 -2.842,1.332 -2.833,-0.384 0.009,-3.424 2.992,-21.845 -3.742,-19.828 -5.412,1.613 -10.467,8.995 -12.897,13.666 -0.544,1.032 -2.354,0.291 -1.904,-0.797 1.754,-4.221 4.118,-8.104 7.41,-11.312 2.26,-2.195 6.331,-6.153 9.82,-5.675 3.799,0.525 4.437,5.383 4.878,8.347 z"
   id="path196" />
		<path
   style="fill:#3c3c3b"
   d="m 95.605,46.063 c 1.651,3.18 2.945,8.676 0.422,11.724 -0.75,0.91 -2.223,0.122 -2.232,-0.929 -0.019,-1.669 0.815,-3.188 0.937,-4.858 0.141,-1.782 -0.131,-3.611 -0.619,-5.309 -0.262,-0.881 1.06,-1.454 1.492,-0.628 z"
   id="path197" />
		<path
   style="fill:#3c3c3b"
   d="m 92.181,188.791 c 0.872,3.677 2.767,8.789 1.791,12.625 -1.904,7.466 -14.21,5.722 -19.725,5.553 -4.915,-0.15 -11.537,0.038 -14.426,-3.611 -4.605,0.703 -9.323,0.497 -13.919,-0.366 -3.564,-0.675 -9.201,-1.717 -11.696,-4.755 -2.589,-3.17 -0.263,-7.954 0.985,-11.18 1.716,-4.455 4.033,-8.395 6.884,-12.175 -8.713,-5.684 -15.345,-14.276 -17.98,-24.753 l 1.51,-0.338 c 6.35,14.885 20.269,26.75 36.505,28.729 0.319,0.038 0.591,0.15 0.825,0.3 1.069,-2.533 2.289,-4.999 3.592,-7.344 0.835,-1.491 2.851,-0.178 2.223,1.294 -2.467,5.825 -4.324,11.949 -5.487,18.168 l -0.347,1.96 c -0.009,0.103 -0.037,0.197 -0.047,0.3 -0.638,3.977 -1.66,8.338 3.264,9.295 3.039,0.591 6.34,0.563 9.445,0.6 0.15,0.009 0.31,0.009 0.46,0.009 3.564,0.066 7.55,0.375 11.04,-0.403 3.742,-0.835 3.292,-4.258 2.607,-7.288 l -0.328,-1.407 c -0.056,-0.244 -0.113,-0.478 -0.159,-0.713 -1.304,-6.172 -3.93,-12.268 -4.746,-18.487 -0.206,-1.623 2.186,-2.007 2.926,-0.788 1.932,3.227 3.011,7.156 3.911,10.965 0.216,0.009 0.422,0.019 0.638,0.028 l -0.094,2.307 c 0.114,0.499 0.226,0.987 0.348,1.475 z m -33.072,2.607 c 0.572,-3.161 1.444,-6.294 2.551,-9.333 -6.444,-0.835 -12.559,-2.973 -17.971,-6.181 -1.745,3.405 -3.283,6.931 -4.587,10.533 -0.028,0.094 -0.066,0.188 -0.103,0.291 2.833,0.3 5.768,0.947 7.963,2.776 1.173,0.975 2.007,2.11 2.401,3.62 0.216,0.835 0,2.242 0.056,3.424 1.163,-1.979 1.182,-4.652 3.986,-5.834 1.999,-0.843 4.213,-0.684 5.704,0.704 z m -0.385,2.477 c -0.084,0 -0.178,0 -0.272,-0.019 -1.82,-0.366 -3.986,-0.882 -5.44,0.9 -0.572,0.703 -0.628,1.941 -1.022,2.776 -0.544,1.135 -0.957,1.81 -1.773,2.486 2.795,0.141 5.628,0 8.226,-0.197 -0.047,-0.46 -0.075,-0.938 -0.066,-1.454 0.038,-1.5 0.16,-3.001 0.347,-4.492 z m -11.208,5.909 c -0.929,-1.313 -0.75,-2.382 -0.844,-4.09 -0.291,-5.131 -3.996,-6.688 -8.216,-7.522 -1.21,3.245 -2.317,6.903 1.004,9.004 2.316,1.463 5.111,2.232 8.056,2.608 z"
   id="path198" />
		<path
   style="fill:#eb3398"
   d="m 89.686,195.413 c 0.685,3.03 1.135,6.453 -2.607,7.288 -3.489,0.779 -7.475,0.469 -11.04,0.403 -0.15,0 -0.31,0 -0.46,-0.009 l 0.019,-1.21 c 1.379,0 2.195,-0.713 3.17,-1.782 0.938,-1.032 1.416,-2.476 2.626,-3.33 2.185,-1.529 4.437,-1.06 6.838,-0.629 0.704,0.122 1.238,-0.234 1.454,-0.731 z"
   id="path199" />
		<path
   style="fill:#3c3c3b"
   d="m 89.358,194.006 0.328,1.407 c -0.216,0.497 -0.75,0.854 -1.454,0.732 -2.401,-0.431 -4.652,-0.9 -6.838,0.629 -1.21,0.854 -1.688,2.298 -2.626,3.33 -0.976,1.069 -1.792,1.782 -3.17,1.782 -0.216,0 -0.431,-0.019 -0.675,-0.056 -3.874,-0.544 -4.352,-4.38 -4.052,-7.588 -2.617,-0.572 -5.29,-0.929 -7.954,-1.341 l 0.347,-1.96 c 3.067,0.31 6.134,0.713 9.22,0.713 1.022,0 1.548,0.928 1.397,1.848 -0.966,1.848 -0.497,2.87 1.407,3.076 0.966,1.088 1.641,1.172 2.017,0.244 0.403,-0.197 1.004,-1.304 1.369,-1.641 0.76,-0.713 1.679,-1.257 2.626,-1.679 2.523,-1.135 5.59,-1.266 7.898,0.356 0.066,0.045 0.103,0.101 0.16,0.148 z"
   id="path200" />
		<path
   style="fill:#eb3398"
   d="m 75.598,201.885 -0.019,1.21 c -3.105,-0.038 -6.406,-0.009 -9.445,-0.6 -4.924,-0.957 -3.902,-5.318 -3.264,-9.295 0.009,-0.103 0.038,-0.197 0.047,-0.3 2.664,0.413 5.337,0.769 7.954,1.341 -0.3,3.208 0.178,7.044 4.052,7.588 0.244,0.037 0.459,0.056 0.675,0.056 z"
   id="path201" />
		<path
   style="fill:#3c3c3b"
   d="m 74.36,123.181 c 1.454,11.152 -6.828,21.01 -16.63,25.072 -9.605,3.986 -21.854,4.343 -32.125,1.407 0,0.047 0,0.084 0,0.131 l -1.51,0.338 c -0.084,-0.338 -0.169,-0.685 -0.244,-1.022 -0.844,-0.281 -1.688,-0.572 -2.504,-0.9 -7.269,-2.917 -13.563,-8.695 -15.401,-16.067 -0.141,-0.281 -0.291,-0.553 -0.422,-0.844 -3.968,-8.929 -1.923,-20.138 5.947,-26.169 0.328,-0.253 0.647,-0.141 0.844,0.103 0.028,-0.009 0.056,-0.028 0.094,-0.038 2.514,-0.807 5.112,-1.604 7.757,-2.326 -0.009,-0.075 -0.037,-0.131 -0.028,-0.206 0.009,-0.206 0.019,-0.422 0.047,-0.628 l 2.514,0.169 c 11.377,-2.861 23.477,-3.949 33.813,2.439 0.066,0.038 0.131,0.084 0.197,0.122 8.562,2.615 16.441,9.162 17.651,18.419 z m -19.706,23.721 c 9.436,-3.189 18.168,-11.706 17.493,-22.361 -0.413,-6.444 -4.343,-11.237 -9.455,-14.416 4.971,6.162 6.988,14.632 3.161,22.032 -5.984,11.612 -20.729,14.154 -32.566,13.882 -6.997,-0.169 -14.444,-1.763 -20.157,-5.703 10.046,9.558 28.965,10.806 41.524,6.566 z m -0.507,-8.123 c 6.219,-3.255 10.861,-9.286 10.092,-16.574 -0.694,-6.584 -5.046,-12.156 -10.777,-15.251 -12.175,-6.566 -26.45,-2.607 -38.953,0.976 -1.069,1.069 -2.767,1.763 -3.864,2.711 -0.741,0.638 -1.426,1.323 -2.073,2.045 -3.583,9.023 -1.613,19.866 7.278,25.493 10.252,6.491 27.764,6.097 38.297,0.6 z"
   id="path202" />
		<path
   style="fill:#facce5"
   d="m 72.146,124.541 c 0.675,10.655 -8.057,19.172 -17.493,22.361 -12.559,4.24 -31.478,2.992 -41.523,-6.566 5.712,3.939 13.159,5.534 20.157,5.703 11.837,0.272 26.581,-2.27 32.566,-13.882 3.827,-7.4 1.81,-15.87 -3.161,-22.032 5.112,3.18 9.042,7.973 9.454,14.416 z"
   id="path203" />
		<path
   style="fill:#facce5"
   d="m 64.24,122.206 c 0.769,7.288 -3.874,13.319 -10.092,16.574 -10.533,5.496 -28.045,5.89 -38.296,-0.6 -8.892,-5.628 -10.861,-16.47 -7.278,-25.493 0.647,-0.722 1.332,-1.407 2.073,-2.045 1.097,-0.947 2.795,-1.641 3.864,-2.711 12.503,-3.583 26.778,-7.541 38.953,-0.976 5.729,3.095 10.081,8.666 10.776,15.251 z m -19.369,6.293 c 1.463,-4.315 0.403,-10.036 0.122,-14.501 -0.141,-2.139 -3.198,-2.148 -3.339,0 -0.281,4.465 -1.341,10.195 0.122,14.501 0.515,1.52 2.579,1.52 3.095,0 z m -19.603,1.895 c 0.779,-2.307 0.357,-4.962 0.291,-7.372 -0.066,-2.701 -0.234,-5.393 -0.338,-8.085 -0.084,-2.045 -3.105,-2.054 -3.189,0 -0.103,2.692 -0.272,5.384 -0.338,8.085 -0.066,2.429 -0.497,5.046 0.291,7.372 0.553,1.613 2.729,1.613 3.283,0 z"
   id="path204" />
		<path
   style="fill:#f599cb"
   d="m 61.66,182.066 c -1.107,3.039 -1.979,6.172 -2.551,9.333 -1.491,-1.388 -3.705,-1.548 -5.703,-0.704 -2.805,1.182 -2.823,3.855 -3.986,5.834 -0.056,-1.182 0.159,-2.589 -0.056,-3.424 -0.394,-1.51 -1.229,-2.645 -2.401,-3.62 -2.195,-1.829 -5.13,-2.476 -7.963,-2.776 0.038,-0.103 0.075,-0.197 0.103,-0.291 1.304,-3.602 2.842,-7.128 4.587,-10.533 5.411,3.207 11.526,5.346 17.97,6.181 z"
   id="path205" />
		<path
   style="fill:#eb3398"
   d="m 58.452,193.856 c 0.094,0.019 0.188,0.019 0.272,0.019 -0.188,1.491 -0.31,2.992 -0.347,4.493 -0.009,0.516 0.019,0.994 0.066,1.454 -2.598,0.197 -5.431,0.338 -8.226,0.197 0.816,-0.675 1.229,-1.351 1.773,-2.486 0.394,-0.835 0.45,-2.073 1.022,-2.776 1.454,-1.783 3.621,-1.267 5.44,-0.901 z"
   id="path206" />
		<path
   style="fill:#3c3c3b"
   d="m 56.389,39.572 c 0.431,0.713 0.113,1.576 -0.488,2.017 -0.441,0.328 -1.032,0.422 -1.576,0.047 -3.405,-2.364 -20.129,-17.052 -22.351,-8.61 -1.032,3.949 0.985,10.008 2.589,13.6 1.351,3.011 3.208,5.693 5.403,8.113 l -2.214,1.501 c -3.461,-3.47 -6.069,-7.644 -7.701,-12.325 -1.388,-3.968 -3.47,-11.762 -0.507,-15.429 3.039,-3.761 9.276,-0.938 12.737,0.544 5.103,2.185 11.153,5.693 14.108,10.542 z"
   id="path207" />
		<path
   style="fill:#f599cb"
   d="m 55.901,41.589 0.16,0.206 c -1.726,1.294 -3.424,2.654 -5.093,4.08 0.056,-0.281 0.028,-0.582 -0.113,-0.863 -1.557,-3.039 -5.318,-5.421 -8.263,-6.96 -1.773,-0.929 -5.796,-3.367 -7.588,-1.735 -0.028,0.028 -0.038,0.066 -0.028,0.103 0.507,2.045 4.512,3.02 6.191,4.071 2.889,1.81 5.074,4.502 7.888,6.322 0.206,0.131 0.413,0.169 0.61,0.178 -3.058,2.711 -5.984,5.646 -8.732,8.77 -0.328,-0.338 -0.647,-0.675 -0.966,-1.022 -2.195,-2.42 -4.052,-5.102 -5.403,-8.113 -1.604,-3.592 -3.62,-9.652 -2.589,-13.6 2.223,-8.442 18.947,6.247 22.351,8.61 0.543,0.375 1.134,0.281 1.575,-0.047 z"
   id="path208" />
		<path
   style="fill:#3c3c3b"
   d="m 54.654,87.502 c 0,0.741 0.038,1.51 -0.009,2.251 -0.009,0.938 -0.019,1.876 -0.047,2.804 0.037,1.248 -0.929,1.848 -1.895,1.829 -0.966,0.019 -1.932,-0.581 -1.895,-1.829 -0.028,-0.928 -0.037,-1.867 -0.047,-2.804 -0.047,-0.741 -0.009,-1.51 -0.009,-2.251 0,-2.514 3.892,-2.505 3.902,0 z"
   id="path209" />
		<path
   style="fill:#eb3398"
   d="m 46.672,195.694 c 0.094,1.707 -0.084,2.776 0.844,4.09 -2.945,-0.375 -5.74,-1.144 -8.057,-2.608 -3.32,-2.101 -2.214,-5.759 -1.004,-9.004 4.221,0.835 7.926,2.392 8.217,7.522 z"
   id="path210" />
		<path
   style="fill:#3c3c3b"
   d="m 44.993,113.999 c 0.281,4.465 1.341,10.186 -0.122,14.501 -0.516,1.52 -2.579,1.52 -3.095,0 -1.463,-4.305 -0.403,-10.036 -0.122,-14.501 0.14,-2.148 3.198,-2.139 3.339,0 z"
   id="path211" />
		<path
   style="fill:#3c3c3b"
   d="m 38.671,89.931 c 0.084,0.713 0.075,1.435 -0.019,2.185 0,0.009 0,0.019 0,0.019 -0.019,0.169 -0.037,0.338 -0.066,0.507 -0.375,2.195 -3.714,1.557 -3.752,-0.507 0,-0.235 0,-0.478 -0.009,-0.713 -0.225,-0.225 -0.385,-0.516 -0.394,-0.882 -0.047,-1.172 -0.122,-2.335 -0.075,-3.508 0.047,-1.594 2.232,-2.289 3.058,-0.835 0.309,0.553 0.563,1.097 0.769,1.651 0.263,0.3 0.441,0.694 0.469,1.21 0.019,0.291 0.019,0.582 0.019,0.873 z"
   id="path212" />
		<path
   style="fill:#3c3c3b"
   d="m 25.558,123.022 c 0.066,2.41 0.488,5.065 -0.291,7.372 -0.553,1.613 -2.729,1.613 -3.283,0 -0.788,-2.326 -0.356,-4.943 -0.291,-7.372 0.066,-2.701 0.234,-5.393 0.338,-8.085 0.084,-2.054 3.105,-2.045 3.189,0 0.104,2.692 0.273,5.384 0.338,8.085 z"
   id="path213" />
	</g></g></svg>
