<?xml version="1.0" encoding="UTF-8" standalone="no"?>
<!-- Created with Inkscape (http://www.inkscape.org/) -->

<svg
   width="86.562157mm"
   height="70.953682mm"
   viewBox="0 0 86.562157 70.953682"
   version="1.1"
   id="svg1"
   xml:space="preserve"
   xmlns="http://www.w3.org/2000/svg"
   xmlns:svg="http://www.w3.org/2000/svg"><defs
     id="defs1" /><g
     id="layer1"
     transform="translate(-681.73267,-567.70225)"><g
       id="g75"
       transform="matrix(0.44518638,0,0,0.44518638,429.37733,552.73802)">
		<path
   style="fill:#ee6a71"
   d="m 645.69,143.238 c 0.019,3.864 -3.114,6.237 -6.819,6.256 -7.138,0.047 -10.111,-5.693 -11.302,-11.612 0.657,-0.178 1.304,-0.432 1.923,-0.732 0.91,2.317 2.401,4.371 4.315,5.984 1.988,1.679 4.821,3.564 7.513,3.198 1.088,-0.15 1.041,-1.679 0.281,-2.176 -1.951,-1.266 -4.324,-1.548 -6.266,-2.992 -1.791,-1.332 -3.151,-3.067 -4.24,-4.98 0.835,-0.61 1.594,-1.351 2.242,-2.232 1.96,2.617 5.299,3.677 8.47,3.17 0.056,0.103 0.122,0.206 0.216,0.3 1.857,1.849 3.657,2.833 3.667,5.816 z"
   id="path56" />
		<path
   style="fill:#ca9e67"
   d="m 678.434,60.961 c 0.338,7.55 -6.772,6.575 -8.151,1.21 -0.403,-1.585 -2.739,-1.201 -2.795,0.385 -0.037,0.872 0.094,1.679 0.328,2.429 -0.206,0.478 -0.131,1.097 0.403,1.388 0.15,0.075 0.281,0.188 0.394,0.3 0.084,0.122 0.178,0.234 0.272,0.356 0.328,0.563 0.366,1.304 0.15,1.97 -0.15,0.46 -0.422,0.882 -0.797,1.172 -2.11,1.679 -4.502,-1.491 -4.671,-3.386 -0.178,-1.998 -3.161,-2.073 -3.161,0 0,1.088 0.131,2.495 -0.497,3.452 -0.657,1.004 -1.182,0.581 -2.045,0.863 -0.253,0.084 -0.469,0.197 -0.656,0.319 -1.688,-3.996 -3.536,-7.916 -5.581,-11.696 -1.051,-1.941 -3.789,-0.234 -2.908,1.698 6.65,14.613 12.362,29.283 15.795,45.012 1.388,6.359 3.442,13.619 2.073,20.157 -1.979,9.473 -12.343,8.751 -17.221,1.857 -0.797,-1.135 -2.786,-1.144 -3.151,0.403 -1.491,6.406 -8.367,6.5 -11.377,2.157 0.16,-0.46 0.291,-0.929 0.385,-1.416 0.291,-1.388 -0.91,-2.27 -1.97,-2.185 -0.563,-0.441 -1.651,-0.084 -1.66,0.788 -0.009,0.375 0.009,0.741 0.038,1.088 -0.863,2.608 -2.636,4.286 -4.68,5.009 -0.234,-0.403 -0.854,-0.581 -1.107,-0.047 -0.056,0.113 -0.103,0.235 -0.15,0.357 -2.917,0.45 -6.087,-0.957 -7.813,-4.418 -0.553,-1.116 -2.467,-1.163 -3.011,0 -3.17,6.828 -11.209,6.875 -15.11,1.613 -0.6,-0.825 -1.107,-1.763 -1.482,-2.833 -0.019,-0.056 -0.056,-0.084 -0.075,-0.131 -0.019,-0.047 -0.028,-0.103 -0.047,-0.15 -0.432,-1.276 -2.636,-1.576 -2.908,0 -0.891,5.14 -5.628,7.832 -9.98,4.155 -2.973,-2.523 -3.846,-6.472 -4.024,-10.186 -0.328,-6.856 1.06,-13.938 2.729,-20.56 3.245,-12.812 8.798,-24.921 13.9,-37.068 0.647,-1.529 -1.951,-2.617 -2.683,-1.135 -0.91,1.848 -1.829,3.714 -2.729,5.6 -0.638,-0.178 -1.276,-0.328 -1.895,-0.619 -1.294,-0.629 -2.223,-1.642 -2.908,-2.889 -1.182,-1.735 -3.874,-0.216 -2.851,1.669 1.257,1.848 -1.313,4.53 -3.217,3.245 -0.591,-0.394 -0.957,-0.966 -1.154,-1.604 -0.234,-0.741 -0.225,-1.576 -0.047,-2.354 0.478,-0.647 0.947,-1.257 1.416,-1.801 1.06,-1.229 -0.253,-2.955 -1.716,-2.223 -1.06,0.516 -1.613,1.013 -2.345,1.941 -0.45,0.572 -0.75,1.482 -1.266,1.979 -0.206,0.328 -0.422,0.657 -0.628,0.994 -1.66,-0.084 -3.32,-0.169 -4.981,-0.263 -0.947,-0.994 -0.291,-4.699 0.038,-6.059 0.234,-0.975 0.638,-1.942 0.994,-2.88 0.9,-2.354 1.979,-4.69 3.339,-6.819 4.802,-7.579 16.02,-12.953 22.689,-4.211 0.966,1.266 2.88,0.216 2.167,-1.266 -0.037,-0.075 -0.084,-0.15 -0.122,-0.225 0,-0.009 0.009,-0.009 0.019,-0.009 7.41,-3.611 15.495,-6.247 23.796,-6.444 4.005,-0.094 8.01,0.291 11.912,1.201 3.471,0.816 6.669,2.598 10.177,3.048 0.347,0.038 0.628,-0.084 0.854,-0.281 0.169,0.169 0.338,0.328 0.535,0.46 0.647,0.46 1.669,0.807 2.457,0.591 0.9,-0.253 0.91,-1.501 0.216,-1.876 1.107,-3.921 5.234,-6.125 9.248,-5.703 4.418,0.478 7.926,3.883 10.477,7.26 2.185,2.898 3.996,6.153 5.646,9.389 1.069,2.082 3.02,4.887 3.123,7.222 z m -51.578,53.341 c 1.613,-2.504 5.177,-7.644 1.904,-10.271 -1.351,-1.088 -3.142,-0.994 -4.774,-0.957 -3.076,0.066 -6.153,0.234 -9.22,0.45 -1.369,0.094 -1.548,1.81 -0.525,2.307 -0.769,3.47 2.017,8.207 4.09,10.721 3.291,3.988 6.377,1.099 8.525,-2.25 z m -0.901,-29.93 c 0.891,0.047 1.763,-0.854 1.219,-1.895 -0.947,-1.829 -1.276,-3.592 -1.369,-5.628 -0.094,-2.167 -3.348,-2.185 -3.386,0 -0.028,1.266 -0.056,2.523 -0.075,3.78 -0.319,1.219 -0.188,2.72 0,3.677 0.366,1.886 3.124,1.67 3.611,0.066 z m -9.267,-0.562 c 0.019,-0.947 0.197,-2.251 -0.056,-3.302 -0.019,-0.9 -0.038,-1.801 -0.084,-2.701 0.141,-1.172 -0.825,-1.745 -1.792,-1.688 -0.957,-0.056 -1.923,0.525 -1.773,1.688 -0.047,0.9 -0.066,1.81 -0.084,2.711 -0.253,1.05 -0.075,2.345 -0.056,3.292 -0.028,1.257 0.947,1.867 1.923,1.857 0.975,0.019 1.951,-0.601 1.922,-1.857 z"
   id="path57" />
		<path
   style="fill:#ca9e67"
   d="m 757.006,72.095 c 2.26,3.508 -0.666,6.509 -4.211,6.266 -0.863,-0.056 -1.369,1.173 -0.722,1.745 0.15,0.131 0.31,0.244 0.469,0.347 0.103,0.234 0.319,0.441 0.647,0.544 1.51,0.478 2.72,1.97 3.001,3.555 0.178,1.05 -0.047,2.129 -0.863,2.973 -0.854,0.891 -2.223,1.172 -3.405,0.994 -1.36,-0.206 -2.148,-1.144 -3.245,-1.848 -1.041,-0.666 -2.11,0.431 -1.923,1.482 0.019,0.084 0.038,0.169 0.056,0.253 -0.872,0.075 -1.069,1.323 -0.15,1.707 4.596,1.913 3.574,8.704 -1.548,8.61 -0.047,0 -0.084,0.009 -0.131,0.009 -1.482,-0.91 -3.039,-1.67 -4.633,-2.307 0.028,-0.206 0.047,-0.422 0.066,-0.629 0.6,-6.875 -3.339,-13.056 -2.626,-19.866 0.61,-5.918 5.759,-7.541 10.927,-7.316 3.001,0.123 6.509,0.695 8.291,3.481 z"
   id="path58" />
		<path
   style="fill:#ca9e67"
   d="m 718.128,178.364 c 0.413,2.739 1.116,5.628 2.682,7.945 -0.506,0.572 -1.154,1.004 -2.185,1.116 -1.388,0.141 -2.561,-0.497 -3.367,-1.482 -0.76,-0.938 -1.191,-2.176 -1.154,-3.367 0.009,-0.375 -0.216,-0.647 -0.506,-0.769 -0.122,-0.263 -0.253,-0.516 -0.413,-0.76 -0.863,-1.304 -3.236,-0.516 -2.673,1.126 0.732,2.11 0.947,5.206 -1.96,5.675 -0.91,0.141 -1.867,-0.122 -2.373,-0.891 0.619,-0.985 0.863,-2.148 0.563,-3.358 0.403,-0.525 0.075,-1.248 -0.525,-1.285 -0.009,-0.019 -0.019,-0.038 -0.028,-0.056 -0.947,-1.548 -2.945,-0.441 -2.73,1.154 0.432,3.161 -2.87,4.052 -4.943,1.979 -1.463,-1.473 -1.698,-3.517 -1.82,-5.487 -0.122,-1.988 -0.037,-3.939 -0.216,-5.9 1.876,-0.131 3.667,-0.366 5.243,-0.638 5.806,-0.966 10.786,-3.114 15.326,-6.406 -0.206,3.76 0.516,7.756 1.079,11.404 z"
   id="path59" />
		<path
   style="fill:#ca9e67"
   d="m 754.586,142.919 c 0.328,8.282 0.225,16.574 -0.319,24.837 -0.272,4.202 -0.3,8.798 -1.351,12.869 -0.882,3.414 -6.209,10.261 -8.976,4.202 -0.525,-1.144 -1.97,-1.032 -2.767,-0.31 -0.319,0.122 -0.591,0.413 -0.647,0.872 -0.094,0.882 -0.544,1.717 -1.201,2.336 -0.76,0.722 -1.792,1.144 -2.861,0.975 -1.285,-0.197 -1.951,-0.985 -2.448,-1.942 0.159,-0.356 0.3,-0.722 0.394,-1.125 0.197,-0.788 -0.769,-1.36 -1.323,-0.919 -0.638,-0.882 -1.97,-0.863 -2.392,0.319 -0.225,0.647 -0.263,1.294 -0.169,1.913 -1.313,0.469 -2.861,0.413 -4.211,-0.122 -0.506,-0.197 -0.938,-0.488 -1.341,-0.797 0.169,-0.666 0.122,-1.379 -0.263,-2.12 -0.263,-0.516 -1.079,-0.76 -1.566,-0.413 -0.037,0.028 -0.084,0.066 -0.122,0.103 -0.591,-1.144 -0.994,-2.411 -1.266,-3.62 -1.097,-4.821 -0.478,-10.13 -2.176,-14.773 -0.019,-0.056 -0.066,-0.113 -0.094,-0.16 0.432,-0.366 0.863,-0.722 1.294,-1.116 0.713,-0.657 -0.225,-1.904 -1.05,-1.36 -5.393,3.564 -11.856,6.2 -18.224,7.307 -3.161,0.553 -6.406,0.713 -9.595,0.507 -3.339,-0.216 -6.566,-1.445 -9.877,-1.463 -1.107,0 -1.51,1.116 -1.097,1.923 -0.047,0.122 -0.084,0.253 -0.084,0.413 0,0.403 0.009,0.825 0.028,1.266 0.15,3.902 0.844,8.911 -0.722,12.306 -0.985,2.139 -2.851,2.851 -4.952,1.735 -1.557,-0.835 -1.773,-2.307 -2.504,-3.733 -0.45,-0.9 -2.035,-0.985 -2.476,-0.019 -0.431,-0.544 -1.426,-0.084 -1.21,0.647 0.891,2.983 -2.232,7.213 -5.515,6.04 -1.351,-0.478 -2.289,-1.801 -2.617,-3.151 -0.338,-1.388 0.253,-2.683 0.056,-4.052 -0.084,-0.582 -0.9,-1.022 -1.426,-0.816 -1.895,0.76 -2.317,2.889 -2.063,4.802 -0.675,0.975 -1.473,1.829 -2.382,2.167 -4.258,1.623 -4.155,-3.949 -4.202,-6.022 -0.112,-4.559 0.216,-9.173 0.3,-13.732 0.103,-5.093 -0.366,-12.794 -7.363,-12.175 -0.563,0.047 -0.966,0.328 -1.219,0.694 -0.178,-0.075 -0.356,-0.141 -0.535,-0.197 -3.386,-1.088 -7.494,1.444 -9.098,4.859 -1.726,3.639 -1.36,7.926 -1.219,11.827 0.094,2.955 0.328,5.937 0.31,8.901 0,0.882 0.234,2.42 -0.197,3.198 -3.583,1.257 -5.328,0.685 -5.234,-1.707 -0.141,-0.797 -0.169,-1.595 -0.103,-2.401 0.009,-1.173 -1.763,-1.754 -2.307,-0.619 -0.506,1.06 -0.694,2.186 -0.619,3.292 l -0.563,0.047 c 0.037,-0.413 -0.647,-0.516 -0.722,-0.103 -0.019,0.15 -0.066,0.291 -0.103,0.431 -0.319,0.103 -0.469,0.432 -0.75,0.694 -0.535,0.507 -1.369,0.994 -2.082,1.154 -1.397,0.309 -2.626,-0.413 -3.029,-1.782 -0.206,-0.703 -0.131,-1.304 0.131,-1.979 0.244,-0.657 0.497,-1.238 0.066,-1.895 -0.957,-1.454 -2.532,-0.066 -2.964,1.041 -0.197,0.525 -0.281,1.079 -0.319,1.632 -2.476,2.57 -5.703,3.771 -7.213,-1.913 -0.403,-1.491 -0.075,-3.423 -0.103,-4.999 -0.066,-4.54 -0.141,-9.089 -0.206,-13.628 -0.122,-7.945 0.741,-16.846 -0.75,-24.668 3.996,0.807 8.488,-0.535 11.387,-4.08 2.176,2.692 5.318,3.967 8.423,3.939 -0.572,8.404 8.648,16.452 17.08,14.332 4.221,-1.069 7.185,-4.559 7.316,-8.939 0.084,-2.626 -1.144,-6.528 -3.649,-7.991 1.135,-0.75 2.139,-1.754 2.889,-3.058 3.817,3.883 9.408,6.265 14.716,4.014 6.556,-2.767 7.729,-10.58 7.241,-16.864 -0.694,-9.033 -3.039,-18.177 -5.618,-26.882 22.173,14.463 51.24,-2.57 74.989,7.325 7.832,3.255 11.049,9.455 12.437,17.474 1.431,8.313 2.059,16.839 2.397,25.252 z"
   id="path60" />
		<path
   style="fill:#3c3c3b"
   d="m 750.187,65.219 c 5.478,0.516 12.053,4.315 10.993,10.749 -0.375,2.26 -2.035,4.174 -4.014,4.971 0.853,0.947 1.435,2.157 1.669,3.414 l -2.645,0.197 c -0.281,-1.585 -1.491,-3.076 -3.001,-3.555 -0.328,-0.103 -0.544,-0.31 -0.647,-0.544 -0.159,-0.103 -0.319,-0.216 -0.469,-0.347 -0.647,-0.572 -0.141,-1.801 0.722,-1.745 3.546,0.244 6.472,-2.757 4.211,-6.266 -1.782,-2.786 -5.29,-3.358 -8.291,-3.48 -5.168,-0.225 -10.318,1.398 -10.927,7.316 -0.713,6.81 3.227,12.991 2.626,19.866 l -2.42,-0.216 c -0.094,-7.888 -5.787,-15.232 -2.992,-23.233 2.232,-6.395 9.145,-7.689 15.185,-7.127 z"
   id="path61" />
		<path
   style="fill:#3c3c3b"
   d="m 758.835,84.354 c 0.319,1.67 0.028,3.424 -1.022,4.84 -1.36,1.829 -3.667,2.673 -5.9,2.495 -0.094,0 -0.188,-0.019 -0.281,-0.028 0.741,1.229 1.107,2.682 0.957,4.193 -0.244,2.514 -1.932,4.483 -4.099,5.496 8.32,7.748 8.367,21.864 9.201,32.378 1.219,15.279 1.923,32.059 -1.135,47.169 -0.863,4.249 -3.095,8.573 -7.691,9.483 -2.748,0.544 -5.271,-0.225 -6.894,-2.138 l -2.645,-0.516 c 0.656,-0.619 1.107,-1.454 1.201,-2.336 0.056,-0.46 0.328,-0.75 0.647,-0.872 0.797,-0.722 2.242,-0.835 2.767,0.31 2.767,6.059 8.094,-0.788 8.976,-4.202 1.05,-4.071 1.079,-8.667 1.351,-12.869 0.544,-8.263 0.647,-16.555 0.319,-24.837 -0.338,-8.413 -0.966,-16.939 -2.401,-25.25 -1.388,-8.019 -4.605,-14.219 -12.437,-17.474 C 716,90.301 686.933,107.334 664.76,92.871 l 1.116,-2.26 c 12.456,6.631 27.501,5.084 41.176,3.761 9.83,-0.947 21.151,-1.913 30.943,1.21 l 2.42,0.216 c -0.019,0.206 -0.037,0.422 -0.066,0.629 1.594,0.638 3.151,1.397 4.633,2.307 0.047,0 0.084,-0.009 0.131,-0.009 5.121,0.094 6.144,-6.697 1.548,-8.61 -0.919,-0.385 -0.722,-1.632 0.15,-1.707 -0.019,-0.084 -0.037,-0.169 -0.056,-0.253 -0.188,-1.05 0.882,-2.148 1.923,-1.482 1.097,0.703 1.885,1.641 3.245,1.848 1.182,0.178 2.551,-0.103 3.405,-0.994 0.816,-0.844 1.041,-1.923 0.863,-2.973 z"
   id="path62" />
		<path
   style="fill:#3c3c3b"
   d="m 739.326,187.725 2.645,0.516 c -0.947,2.11 -3.011,3.677 -5.468,3.611 -1.716,-0.047 -3.62,-1.051 -4.821,-2.495 -2.551,1.491 -6.19,1.144 -8.704,-0.76 -1.576,1.126 -3.686,1.782 -5.093,1.651 -1.932,-0.178 -3.508,-1.248 -4.502,-2.729 l 1.876,-1.576 c 0.807,0.985 1.979,1.623 3.367,1.482 1.032,-0.113 1.679,-0.544 2.185,-1.116 -1.566,-2.317 -2.27,-5.206 -2.682,-7.945 -0.563,-3.649 -1.285,-7.644 -1.079,-11.405 -4.54,3.292 -9.52,5.44 -15.326,6.406 -1.576,0.272 -3.367,0.507 -5.243,0.638 l -1.914,0.103 c -3.921,0.141 -8.038,-0.225 -11.283,-1.688 l -2.401,0.103 c -0.019,-0.441 -0.028,-0.863 -0.028,-1.266 0,-0.16 0.037,-0.291 0.084,-0.413 -0.413,-0.807 -0.009,-1.923 1.097,-1.923 3.311,0.019 6.538,1.247 9.877,1.463 3.189,0.206 6.434,0.047 9.595,-0.507 6.369,-1.107 12.831,-3.742 18.224,-7.307 0.825,-0.544 1.763,0.703 1.05,1.36 -0.432,0.394 -0.863,0.75 -1.294,1.116 0.028,0.047 0.075,0.103 0.094,0.16 1.698,4.643 1.079,9.952 2.176,14.773 0.272,1.21 0.675,2.476 1.266,3.62 0.037,-0.038 0.084,-0.075 0.122,-0.103 0.488,-0.347 1.304,-0.103 1.566,0.413 0.385,0.741 0.431,1.454 0.263,2.12 0.403,0.31 0.835,0.6 1.341,0.797 1.351,0.535 2.898,0.591 4.211,0.122 -0.094,-0.619 -0.056,-1.266 0.169,-1.913 0.422,-1.182 1.754,-1.201 2.392,-0.319 0.553,-0.441 1.519,0.131 1.323,0.919 -0.094,0.403 -0.234,0.769 -0.394,1.125 0.497,0.957 1.163,1.745 2.448,1.942 1.069,0.17 2.101,-0.253 2.861,-0.975 z"
   id="path63" />
		<path
   style="fill:#3c3c3b"
   d="m 715.258,185.943 -1.876,1.576 c -1.06,2.026 -3.133,3.47 -5.693,3.208 -1.379,-0.15 -2.607,-0.863 -3.377,-1.951 -1.585,1.013 -3.658,1.388 -5.44,0.647 -6.491,-2.692 -4.483,-9.708 -4.305,-15.317 l 1.914,-0.103 c 0.178,1.96 0.094,3.911 0.216,5.9 0.122,1.97 0.356,4.014 1.82,5.487 2.073,2.073 5.375,1.182 4.943,-1.979 -0.216,-1.594 1.782,-2.701 2.73,-1.154 0.009,0.019 0.019,0.038 0.028,0.056 0.6,0.037 0.929,0.76 0.525,1.285 0.3,1.21 0.056,2.373 -0.563,3.358 0.506,0.769 1.463,1.032 2.373,0.891 2.908,-0.469 2.692,-3.564 1.96,-5.675 -0.563,-1.641 1.81,-2.429 2.673,-1.126 0.159,0.244 0.291,0.497 0.413,0.76 0.291,0.122 0.516,0.394 0.506,0.769 -0.039,1.192 0.393,2.43 1.153,3.368 z"
   id="path64" />
		<path
   style="fill:#3c3c3b"
   d="m 683.283,172.418 c 0.807,5.731 2.851,15.72 -4.043,17.924 -2.692,0.863 -6.528,-0.441 -8.366,-2.786 -0.76,3.302 -3.799,6.05 -7.579,5.318 -2.42,-0.469 -4.343,-2.336 -5.281,-4.559 -2.026,3.198 -5.168,5.459 -8.442,1.491 -2.373,-2.88 -1.838,-7.391 -1.773,-10.815 0.056,-3.227 2.054,-17.69 -2.842,-19.134 -0.188,0.281 -0.61,0.441 -0.947,0.272 -0.938,-0.469 -1.82,-0.675 -2.636,-0.675 l 0.675,-2.439 c 0.178,0.056 0.356,0.122 0.535,0.197 0.253,-0.366 0.657,-0.647 1.219,-0.694 6.997,-0.619 7.466,7.081 7.363,12.175 -0.085,4.558 -0.413,9.173 -0.3,13.732 0.047,2.073 -0.056,7.644 4.202,6.022 0.91,-0.338 1.707,-1.191 2.382,-2.167 -0.253,-1.914 0.169,-4.043 2.063,-4.802 0.525,-0.206 1.341,0.235 1.426,0.816 0.197,1.369 -0.394,2.664 -0.056,4.052 0.328,1.351 1.266,2.673 2.617,3.151 3.283,1.173 6.406,-3.058 5.515,-6.04 -0.216,-0.732 0.779,-1.191 1.21,-0.647 0.441,-0.966 2.026,-0.882 2.476,0.019 0.732,1.426 0.947,2.898 2.504,3.733 2.101,1.116 3.968,0.403 4.952,-1.735 1.566,-3.395 0.872,-8.404 0.722,-12.306 z"
   id="path65" />
		<path
   style="fill:#3c3c3b"
   d="m 675.911,47.577 c 3.123,5.309 9.933,15.392 3.433,20.682 -2.345,1.913 -5.29,2.063 -7.663,0.994 L 669.036,69 c 0.216,-0.666 0.178,-1.407 -0.15,-1.97 -0.094,-0.122 -0.188,-0.235 -0.272,-0.356 -0.113,-0.113 -0.244,-0.225 -0.394,-0.3 -0.535,-0.291 -0.61,-0.91 -0.403,-1.388 -0.234,-0.75 -0.366,-1.557 -0.328,-2.429 0.056,-1.585 2.392,-1.97 2.795,-0.385 1.379,5.365 8.488,6.34 8.151,-1.21 -0.103,-2.336 -2.054,-5.14 -3.123,-7.222 -1.651,-3.236 -3.461,-6.491 -5.646,-9.389 -2.551,-3.377 -6.059,-6.781 -10.477,-7.26 -4.014,-0.422 -8.141,1.782 -9.248,5.703 0.694,0.375 0.685,1.623 -0.216,1.876 -0.788,0.216 -1.81,-0.131 -2.457,-0.591 -0.197,-0.131 -0.366,-0.291 -0.535,-0.46 l 0.6,-2.026 c 1.323,-5.449 6.791,-8.498 12.418,-7.907 7.559,0.787 12.624,7.869 16.16,13.891 z"
   id="path66" />
		<path
   style="fill:#3c3c3b"
   d="m 669.035,68.999 2.645,0.253 c -0.169,1.276 -0.797,2.514 -1.848,3.377 -2.579,2.092 -5.365,1.004 -7.232,-1.097 -0.797,1.595 -2.148,2.711 -4.277,2.589 2.007,5.009 3.78,10.111 5.356,15.214 0.722,0.45 1.454,0.882 2.195,1.276 l -1.116,2.26 c 2.579,8.704 4.924,17.849 5.618,26.882 0.488,6.284 -0.685,14.097 -7.241,16.864 -5.309,2.251 -10.899,-0.131 -14.716,-4.014 -0.75,1.304 -1.754,2.307 -2.889,3.058 2.504,1.463 3.733,5.365 3.649,7.991 -0.131,4.38 -3.095,7.869 -7.316,8.939 -8.432,2.12 -17.652,-5.928 -17.08,-14.332 -3.105,0.028 -6.247,-1.248 -8.423,-3.939 -2.898,3.545 -7.391,4.887 -11.387,4.08 l -2.57,-0.225 c 0.037,-0.206 0.131,-0.366 0.244,-0.507 -1.923,-0.854 -3.602,-2.27 -4.746,-4.268 l 1.857,-1.604 c 3.902,5.262 11.94,5.215 15.11,-1.613 0.544,-1.163 2.457,-1.116 3.011,0 1.726,3.461 4.896,4.868 7.813,4.418 0.047,-0.122 0.094,-0.244 0.15,-0.357 0.253,-0.535 0.872,-0.356 1.107,0.047 2.045,-0.722 3.817,-2.401 4.68,-5.009 -0.028,-0.347 -0.047,-0.713 -0.038,-1.088 0.009,-0.872 1.097,-1.229 1.66,-0.788 1.06,-0.084 2.26,0.797 1.97,2.185 -0.094,0.488 -0.225,0.957 -0.385,1.416 3.011,4.343 9.886,4.249 11.377,-2.157 0.366,-1.548 2.354,-1.538 3.151,-0.403 4.877,6.894 15.242,7.616 17.221,-1.857 1.369,-6.538 -0.685,-13.797 -2.073,-20.157 -3.433,-15.729 -9.145,-30.399 -15.795,-45.012 -0.882,-1.932 1.857,-3.639 2.908,-1.698 2.045,3.78 3.892,7.701 5.581,11.696 0.188,-0.122 0.403,-0.234 0.656,-0.319 0.863,-0.281 1.388,0.141 2.045,-0.863 0.628,-0.957 0.497,-2.364 0.497,-3.452 0,-2.073 2.983,-1.998 3.161,0 0.169,1.895 2.561,5.065 4.671,3.386 0.377,-0.29 0.649,-0.712 0.799,-1.172 z m -30.164,80.495 c 3.705,-0.019 6.838,-2.392 6.819,-6.256 -0.009,-2.983 -1.81,-3.967 -3.667,-5.815 -0.094,-0.094 -0.159,-0.197 -0.216,-0.3 -3.17,0.507 -6.509,-0.553 -8.47,-3.17 -0.647,0.882 -1.407,1.623 -2.242,2.232 1.088,1.913 2.448,3.649 4.24,4.98 1.942,1.445 4.315,1.726 6.266,2.992 0.76,0.497 0.807,2.026 -0.281,2.176 -2.692,0.366 -5.525,-1.52 -7.513,-3.198 -1.913,-1.613 -3.405,-3.667 -4.315,-5.984 -0.619,0.3 -1.266,0.553 -1.923,0.732 1.191,5.918 4.164,11.658 11.302,11.611 z"
   id="path67" />
		<path
   style="fill:#3c3c3b"
   d="m 647.331,41.592 -0.6,2.026 c -0.225,0.197 -0.506,0.319 -0.854,0.281 -3.508,-0.45 -6.706,-2.232 -10.177,-3.048 -3.902,-0.91 -7.907,-1.294 -11.912,-1.201 -8.301,0.197 -16.386,2.833 -23.796,6.444 -0.009,0 -0.019,0 -0.019,0.009 l -1.191,-1.829 c 0.028,-0.028 0.056,-0.066 0.094,-0.094 6.988,-5.299 15.373,-7.757 24.18,-8.16 6.997,-0.328 17.812,0.319 23.439,5.149 0.311,-0.064 0.658,0.058 0.836,0.423 z"
   id="path68" />
		<path
   style="fill:#3c3c3b"
   d="m 642.051,157.017 -0.675,2.439 c -3.649,0 -6.069,4.118 -6.416,7.738 -0.291,3.02 0.047,6.153 0.169,9.183 0.141,3.78 1.51,9.783 -1.482,12.906 -4.352,4.53 -9.764,0.047 -10.064,-4.915 -0.075,-1.107 0.113,-2.232 0.619,-3.292 0.544,-1.135 2.317,-0.553 2.307,0.619 -0.066,0.807 -0.037,1.604 0.103,2.401 -0.094,2.392 1.651,2.964 5.234,1.707 0.431,-0.779 0.197,-2.317 0.197,-3.198 0.019,-2.964 -0.216,-5.947 -0.31,-8.901 -0.141,-3.902 -0.506,-8.188 1.219,-11.827 1.604,-3.416 5.713,-5.948 9.099,-4.86 z"
   id="path69" />
		<path
   style="fill:#3c3c3b"
   d="m 628.76,104.032 c 3.273,2.626 -0.291,7.766 -1.904,10.271 -2.148,3.349 -5.234,6.237 -8.526,2.251 -2.073,-2.514 -4.859,-7.25 -4.09,-10.721 -1.022,-0.497 -0.844,-2.214 0.525,-2.307 3.067,-0.216 6.144,-0.384 9.22,-0.45 1.633,-0.038 3.424,-0.132 4.775,0.956 z m -5.74,10.083 c -0.122,0.037 -0.244,0.075 -0.366,0.084 -0.225,0.094 -0.46,0.141 -0.694,0.141 -0.075,0.131 -0.169,0.253 -0.272,0.356 0.225,0.066 0.46,0.066 0.694,-0.028 0.197,-0.075 0.412,-0.281 0.638,-0.553 z"
   id="path70" />
		<path
   style="fill:#3c3c3b"
   d="m 627.175,82.478 c 0.544,1.041 -0.328,1.942 -1.219,1.895 -0.488,1.604 -3.245,1.82 -3.611,-0.066 -0.188,-0.957 -0.319,-2.457 0,-3.677 0.019,-1.257 0.047,-2.514 0.075,-3.78 0.038,-2.185 3.292,-2.167 3.386,0 0.093,2.035 0.421,3.799 1.369,5.628 z"
   id="path71" />
		<path
   style="fill:#3c3c3b"
   d="m 622.963,184.939 c 0.169,0.188 0.216,0.45 0.178,0.703 -0.497,3.02 -4.071,4.633 -6.781,3.471 -0.966,-0.422 -1.735,-1.144 -2.27,-2.026 -2.973,2.579 -9.905,1.557 -11.021,-4.052 -0.694,-3.461 -0.319,-7.372 -0.385,-10.88 -0.084,-3.939 -0.169,-7.879 -0.253,-11.818 -0.141,-7.203 -1.163,-15.045 -0.028,-22.164 l 2.57,0.225 c 1.491,7.822 0.628,16.724 0.75,24.668 0.066,4.54 0.141,9.089 0.206,13.628 0.028,1.576 -0.3,3.508 0.103,4.999 1.51,5.684 4.737,4.483 7.213,1.913 0.038,-0.553 0.122,-1.107 0.319,-1.632 0.432,-1.107 2.007,-2.495 2.964,-1.041 0.432,0.657 0.178,1.238 -0.066,1.895 -0.263,0.675 -0.338,1.276 -0.131,1.979 0.403,1.369 1.632,2.092 3.029,1.782 0.713,-0.16 1.548,-0.647 2.082,-1.154 0.281,-0.263 0.431,-0.591 0.75,-0.694 0.038,-0.141 0.084,-0.281 0.103,-0.431 0.075,-0.413 0.76,-0.31 0.722,0.103 -0.007,0.208 -0.026,0.358 -0.054,0.526 z"
   id="path72" />
		<path
   style="fill:#3c3c3b"
   d="m 616.632,80.508 c 0.253,1.05 0.075,2.354 0.056,3.302 0.028,1.257 -0.947,1.876 -1.923,1.857 -0.976,0.009 -1.951,-0.6 -1.923,-1.857 -0.019,-0.947 -0.197,-2.242 0.056,-3.292 0.019,-0.9 0.038,-1.81 0.084,-2.711 -0.15,-1.163 0.816,-1.745 1.773,-1.688 0.966,-0.056 1.932,0.516 1.792,1.688 0.048,0.9 0.066,1.801 0.085,2.701 z"
   id="path73" />
		<path
   style="fill:#3c3c3b"
   d="m 600.096,46.329 c 0.713,1.482 -1.201,2.532 -2.167,1.266 -6.669,-8.742 -17.887,-3.367 -22.689,4.211 -1.36,2.129 -2.439,4.465 -3.339,6.819 -0.356,0.938 -0.76,1.904 -0.994,2.88 -0.328,1.36 -0.985,5.065 -0.038,6.059 1.66,0.094 3.32,0.178 4.981,0.263 0.206,-0.338 0.422,-0.666 0.628,-0.994 0.516,-0.497 0.816,-1.407 1.266,-1.979 0.732,-0.929 1.285,-1.426 2.345,-1.941 1.463,-0.732 2.776,0.994 1.716,2.223 -0.469,0.544 -0.938,1.154 -1.416,1.801 -0.178,0.779 -0.188,1.613 0.047,2.354 l -2.617,0.919 c -2.195,2.439 -4.765,3.893 -8.292,0.891 -5.44,-4.643 -1.313,-13.413 1.276,-18.506 3.151,-6.2 8.432,-11.874 15.664,-12.728 4.558,-0.544 9.445,0.854 12.315,4.408 l 1.191,1.829 c 0.039,0.075 0.086,0.15 0.123,0.225 z"
   id="path74" />
		<path
   style="fill:#3c3c3b"
   d="m 599.758,131.795 -1.857,1.604 c -1.716,3.536 -6.669,5.628 -10.514,4.624 -7.504,-1.96 -9.914,-10.177 -9.877,-17.043 0.075,-16.864 6.331,-33.213 13.506,-48.464 -1.116,-0.188 -2.204,-0.713 -3.18,-1.435 -1.191,2.382 -3.939,4.08 -6.669,3.095 -1.932,-0.704 -3.001,-2.242 -3.349,-3.968 l 2.617,-0.919 c 0.197,0.638 0.563,1.21 1.154,1.604 1.904,1.285 4.474,-1.397 3.217,-3.245 -1.022,-1.885 1.67,-3.405 2.851,-1.669 0.685,1.247 1.613,2.26 2.908,2.889 0.619,0.291 1.257,0.441 1.895,0.619 0.9,-1.885 1.82,-3.752 2.729,-5.6 0.732,-1.482 3.33,-0.394 2.683,1.135 -5.102,12.146 -10.655,24.255 -13.9,37.068 -1.67,6.622 -3.058,13.703 -2.729,20.56 0.178,3.714 1.05,7.663 4.024,10.186 4.352,3.677 9.089,0.985 9.98,-4.155 0.272,-1.576 2.476,-1.276 2.908,0 0.019,0.047 0.028,0.103 0.047,0.15 0.019,0.047 0.056,0.075 0.075,0.131 0.375,1.07 0.881,2.008 1.481,2.833 z"
   id="path75" />
	</g></g></svg>
