<?xml version="1.0" encoding="UTF-8" standalone="no"?>
<!-- Created with Inkscape (http://www.inkscape.org/) -->

<svg
   width="31.970724mm"
   height="35.198982mm"
   viewBox="0 0 31.970724 35.198982"
   version="1.1"
   id="svg1"
   xml:space="preserve"
   xmlns:xlink="http://www.w3.org/1999/xlink"
   xmlns="http://www.w3.org/2000/svg"
   xmlns:svg="http://www.w3.org/2000/svg"><defs
     id="defs1"><path
       id="SVGID_00000171704167978663794610000018049046038020237463_"
       d="m 474.266,238.478 c -0.115,-1.613 -0.213,-5.017 -1.172,-9.781 -0.773,-3.312 -1.361,-6.679 -2.307,-9.948 -1.391,-3.418 -1.086,-2.423 -2.228,-5.211 -0.324,-0.878 -1.152,-2.978 -3.047,-5.495 -2.41,-2.859 -4.537,-6.024 -7.273,-8.561 -3.705,-3.247 -6.783,-6.021 -9.008,-7.597 -4.615,-2.817 -8.352,-5.003 -11.436,-6.089 -4.004,-1.025 -5.893,-1.372 -8.184,-1.668 0.039,0.007 0.082,0.015 0.115,0.022 -0.043,-0.004 -0.084,-0.019 -0.127,-0.024 -0.102,-0.013 -0.199,-0.027 -0.301,-0.039 -0.828,-0.048 -0.211,-0.047 0.234,0.026 -0.355,-0.055 -0.709,-0.121 -1.057,-0.215 -0.656,-0.149 -1.318,-0.264 -1.98,-0.361 0.06,0.013 0.064,0.015 -0.016,-0.003 -0.258,-0.038 -0.512,-0.081 -0.77,-0.112 0.08,-0.008 0.236,0.012 0.393,0.039 -5.976,-1.096 -7.728,-1.961 -13.855,-1.16 -0.037,0 -0.17,0.01 -0.451,0.037 -2.59,0.105 -4.998,1.096 -7.473,1.783 -2.602,0.589 -1.994,0.187 -5.584,1.059 -3.918,1.35 -4.184,1.45 -8.258,3.658 -1.297,0.521 -2.434,1.352 -3.654,2.025 -1.488,0.962 -3.096,1.729 -4.5,2.827 -3.617,2.87 -7.234,5.801 -10.457,9.152 -3.147,3.552 -5.916,7.438 -8.555,11.414 -3.279,4.914 -6.227,10.156 -7.654,16.006 -1.53,5.008 -1.86,10.354 -1.935,15.579 10e-4,3.523 0.055,7.842 0.332,8.853 0.052,0.314 0.084,0.506 0.106,0.614 0.137,2.064 0.637,4.069 1.13,6.067 0.47,1.754 0.909,3.525 1.561,5.216 0.091,0.611 0.191,1.222 0.311,1.828 1.595,6.202 2.42,5.76 3.386,9.952 0.049,0.224 0.084,0.448 0.125,0.674 0.033,0.534 0.096,1.521 0.049,1.96 0.051,2.683 -0.23,5.35 -0.388,8.023 -0.413,2.211 -0.557,4.45 -0.476,6.706 -0.002,2.121 0.059,4.299 0.906,6.265 2.023,5.607 7.861,8.114 13.057,9.43 3.773,0.986 7.732,0.526 11.582,0.485 5.498,-0.405 11.162,-0.175 16.426,-2.17 3.922,-1.366 3.455,-1.792 6.693,-1.654 0.273,0.013 0.553,0.033 0.768,0.05 0.402,0.082 0.799,0.198 1.186,0.34 0.584,0.286 1.164,0.59 1.736,0.902 1.439,0.843 2.732,1.952 4.217,2.715 2.41,1.132 5.031,1.739 7.654,2.079 2.709,0.622 5.471,1.189 8.244,0.6 1.726,-0.256 3.314,-1.039 4.939,-1.653 1.148,-0.372 2.32,-0.67 3.402,-1.222 3.268,-1.236 4.627,-1.691 8.656,-4.48 1.35,-0.844 2.459,-1.997 3.533,-3.181 1.805,-1.571 3.424,-3.39 4.744,-5.423 0.287,-0.301 2.785,-3.76 4.375,-6.437 1.748,-2.809 1.209,-1.831 3.395,-4.746 1.092,-1.728 2.166,-3.528 2.871,-5.467 1.73,-5.298 2.922,-10.761 4.377,-16.14 0.527,-3.239 0.949,-6.505 1.166,-9.783 0.385,-2.786 0.465,-2.802 0.752,-6.88 -0.07,-3.627 0.213,-7.285 -0.275,-10.886" /></defs><g
     id="layer1"
     transform="translate(-457.60398,-450.30807)"><g
       id="g563"
       transform="matrix(0.26458333,0,0,0.26458333,364.01398,402.15702)">
		<path
   style="fill:#8ca2cf"
   d="m 474.266,238.478 c -0.115,-1.613 -0.213,-5.017 -1.172,-9.781 -0.773,-3.312 -1.361,-6.679 -2.307,-9.948 -1.391,-3.418 -1.086,-2.423 -2.228,-5.211 -0.324,-0.878 -1.152,-2.978 -3.047,-5.495 -2.41,-2.859 -4.537,-6.024 -7.273,-8.561 -3.705,-3.247 -6.783,-6.021 -9.008,-7.597 -4.615,-2.817 -8.352,-5.003 -11.436,-6.089 -4.004,-1.025 -5.893,-1.372 -8.184,-1.668 0.039,0.007 0.082,0.015 0.115,0.022 -0.043,-0.004 -0.084,-0.019 -0.127,-0.024 -0.102,-0.013 -0.199,-0.027 -0.301,-0.039 -0.828,-0.048 -0.211,-0.047 0.234,0.026 -0.355,-0.055 -0.709,-0.121 -1.057,-0.215 -0.656,-0.149 -1.318,-0.264 -1.98,-0.361 0.06,0.013 0.064,0.015 -0.016,-0.003 -0.258,-0.038 -0.512,-0.081 -0.77,-0.112 0.08,-0.008 0.236,0.012 0.393,0.039 -5.976,-1.096 -7.728,-1.961 -13.855,-1.16 -0.037,0 -0.17,0.01 -0.451,0.037 -2.59,0.105 -4.998,1.096 -7.473,1.783 -2.602,0.589 -1.994,0.187 -5.584,1.059 -3.918,1.35 -4.184,1.45 -8.258,3.658 -1.297,0.521 -2.434,1.352 -3.654,2.025 -1.488,0.962 -3.096,1.729 -4.5,2.827 -3.617,2.87 -7.234,5.801 -10.457,9.152 -3.147,3.552 -5.916,7.438 -8.555,11.414 -3.279,4.914 -6.227,10.156 -7.654,16.006 -1.53,5.008 -1.86,10.354 -1.935,15.579 10e-4,3.523 0.055,7.842 0.332,8.853 0.052,0.314 0.084,0.506 0.106,0.614 0.137,2.064 0.637,4.069 1.13,6.067 0.47,1.754 0.909,3.525 1.561,5.216 0.091,0.611 0.191,1.222 0.311,1.828 1.595,6.202 2.42,5.76 3.386,9.952 0.049,0.224 0.084,0.448 0.125,0.674 0.033,0.534 0.096,1.521 0.049,1.96 0.051,2.683 -0.23,5.35 -0.388,8.023 -0.413,2.211 -0.557,4.45 -0.476,6.706 -0.002,2.121 0.059,4.299 0.906,6.265 2.023,5.607 7.861,8.114 13.057,9.43 3.773,0.986 7.732,0.526 11.582,0.485 5.498,-0.405 11.162,-0.175 16.426,-2.17 3.922,-1.366 3.455,-1.792 6.693,-1.654 0.273,0.013 0.553,0.033 0.768,0.05 0.402,0.082 0.799,0.198 1.186,0.34 0.584,0.286 1.164,0.59 1.736,0.902 1.439,0.843 2.732,1.952 4.217,2.715 2.41,1.132 5.031,1.739 7.654,2.079 2.709,0.622 5.471,1.189 8.244,0.6 1.726,-0.256 3.314,-1.039 4.939,-1.653 1.148,-0.372 2.32,-0.67 3.402,-1.222 3.268,-1.236 4.627,-1.691 8.656,-4.48 1.35,-0.844 2.459,-1.997 3.533,-3.181 1.805,-1.571 3.424,-3.39 4.744,-5.423 0.287,-0.301 2.785,-3.76 4.375,-6.437 1.748,-2.809 1.209,-1.831 3.395,-4.746 1.092,-1.728 2.166,-3.528 2.871,-5.467 1.73,-5.298 2.922,-10.761 4.377,-16.14 0.527,-3.239 0.949,-6.505 1.166,-9.783 0.385,-2.786 0.465,-2.802 0.752,-6.88 -0.07,-3.627 0.213,-7.285 -0.275,-10.886"
   id="path466-2" />
		<g
   id="g562">
			<defs
   id="defs466" />
			<clipPath
   id="SVGID_00000101787767272745764000000006459860968293581187_">
				<use
   xlink:href="#SVGID_00000171704167978663794610000018049046038020237463_"
   style="overflow:visible"
   id="use466" />
			</clipPath>
			<g
   clip-path="url(#SVGID_00000101787767272745764000000006459860968293581187_)"
   id="g485">
				<path
   style="fill:#677724"
   d="m 469.379,288.545 c -0.1,-0.66 -0.016,-0.722 -0.207,-1.244 v 0 c 0.047,-0.237 -0.055,-0.48 -0.24,-0.639 0.006,-0.078 0.018,-0.156 0.008,-0.233 -0.016,-0.19 -0.039,-0.38 -0.08,-0.565 0.092,-0.341 0.037,-0.694 -0.066,-1.025 -0.113,-0.28 -0.004,-0.252 -0.383,-0.649 -0.033,-0.021 -0.053,-0.035 -0.074,-0.051 -0.033,-0.075 -0.064,-0.152 -0.1,-0.228 -0.309,-0.414 -0.289,-0.179 -0.602,-0.761 -0.311,-0.424 -0.832,-0.82 -1.291,-1.161 0.016,0.001 -0.076,-0.098 -0.162,-0.186 -0.521,-0.55 -0.596,-0.374 -0.92,-0.746 -0.834,-0.438 -0.928,-0.427 -1.465,-0.837 -2.01,-1.122 -4.225,-1.773 -6.529,-2.12 -1.889,-0.362 -3.719,-0.988 -5.645,-1.166 -3.607,-0.484 -6.354,-0.895 -10.104,-1.162 -4.955,0.005 -10.824,0.498 -15.035,1.251 -3.27,0.197 -6.371,1.347 -9.555,2.008 -4.826,0.96 -9.363,2.751 -13.824,4.71 -5.27,1.995 -11.127,4.234 -16.498,7.197 -2.879,1.498 -5.736,2.763 -8.299,3.866 -2.664,1.038 -4.83,2.124 -7.486,1.98 -2.256,-0.131 -5.254,-1.121 -7.816,-1.935 -0.121,-0.025 -0.244,-0.067 -0.367,-0.11 -0.334,-0.238 -0.516,-0.344 -0.978,-0.823 -0.637,-0.616 -0.52,-0.747 -1.263,-1.326 -0.501,-0.314 -1.194,0.013 -1.225,0.584 -0.176,0.985 0.025,1.984 -0.1,2.974 -0.057,0.444 -0.059,0.886 -0.03,1.322 -0.116,1.963 -0.026,3.93 1.051,5.678 0.945,1.696 2.41,3.094 3.938,4.329 1.047,0.928 2.326,1.482 3.631,2.001 0.506,0.435 1.025,0.854 1.602,1.212 4.1,2.268 8.125,2.357 12.564,2.682 2.686,0.011 5.355,0.489 8.039,0.355 4.978,-0.541 9.75,-2.083 14.475,-3.605 1.949,-0.563 3.244,-0.839 4.709,-0.425 1.975,0.656 4.781,2.36 6.908,3.922 1.789,1.291 3.826,2.281 5.832,3.232 1.428,0.565 3.002,0.639 4.488,1.014 5.301,0.989 10.869,-0.099 15.873,-1.862 2.441,-0.836 4.434,-2.416 6.586,-3.733 2.535,-1.494 4.807,-3.234 7.281,-5.401 3.568,-2.911 5.373,-5.985 7.832,-9.258 1.193,-2.113 2.252,-3.183 3.982,-4.802 1.178,-1.148 1.617,-2.697 1.545,-4.264"
   id="path467-5" />
				<g
   id="g484">
					<path
   style="fill:#8ca05c"
   d="m 460.027,288.331 c -5.135,-5.504 -14.779,-7.174 -22.219,-7.056 -9.936,-0.399 -19.549,2.946 -29.191,6.151 -5.186,2.264 -8.684,3.968 -12.754,5.467 -2.096,1.048 -3.605,1.547 -5.775,2.635 -3.115,1.583 -5.816,2.976 -8.916,4.111 -3.305,1.4 -8.367,3.221 -11.77,1.7 -1.609,-0.882 -3.137,-1.531 -4.258,-2.629 -0.185,-0.188 -0.531,-0.188 -0.721,0 -0.193,0.182 -0.197,0.503 0,0.684 2.781,2.262 5.844,3.961 9.541,3.367 2.418,-0.23 5.082,-1.143 7.283,-2.089 2.158,-0.826 4.623,-1.829 7.008,-2.995 4.301,-2.123 7.439,-3.283 11.57,-4.94 1.787,-0.755 3.465,-1.466 5.539,-2.399 1.727,-0.699 2.693,-1.417 4.24,-1.813 6.314,-2.143 12.705,-4.242 19.336,-5.321 3.879,-0.647 9.572,-0.773 14.58,-0.295 3.955,0.518 8.813,1.618 12.625,4.006 1.447,1.032 3.225,2.104 3.391,3.956 0.629,2.518 -1.529,5.665 -3.978,8.087 -4.051,3.983 -10.887,4.974 -15.469,2.44 -2.771,-1.471 -3.574,-3.399 -1.75,-5.938 0.188,-0.475 2.494,-2.42 2.42,-2.29 2.428,-0.787 4.508,-1.356 5.951,-0.522 1.836,1.119 1.041,2.52 -1.723,3.876 -0.014,0.003 -0.035,0.007 -0.059,0.012 -0.133,0.006 -0.404,0.03 -0.484,0.078 -0.478,0.152 -0.592,0.803 -0.236,1.123 1.006,0.651 2.119,-0.43 2.978,-0.882 2.639,-1.638 2.547,-4.579 -0.518,-5.675 -2.209,-0.674 -4.609,0.078 -6.689,0.839 -2.129,1.47 -4.279,3.753 -4.082,6.408 0.73,3.74 4.986,5.174 8.275,5.686 4.473,0.352 8.154,-0.765 11.535,-3.379 3.428,-2.991 7.336,-8.033 4.32,-12.403"
   id="path468-7" />
					<path
   style="fill:#8ca05c"
   d="m 432.15,288.87 c -5.027,0.859 -9.99,2.016 -14.916,3.283 -3.371,0.748 -6.689,1.657 -9.83,3.063 -4.625,1.969 -9.07,4.282 -13.395,6.788 -1.684,1.058 -3.785,1.799 -4.945,3.429 -0.523,0.983 0.314,2.039 1.273,2.42 0.898,0.439 1.928,0.444 2.91,0.346 1.361,-0.096 2.738,-0.078 4.07,-0.391 2.078,-0.535 4.469,-1.02 5.932,-2.625 1.572,-1.3 0.279,-3.346 -1.533,-3.509 -1.355,-0.358 -5.082,1.582 -2.986,2.845 0.512,0.354 1.392,0.398 1.434,-0.369 -0.072,-0.433 -0.244,-0.525 -0.443,-0.596 0.445,-0.348 1.201,-0.802 1.922,-0.652 0.332,0.072 0.451,0.023 0.99,0.602 0.023,0.038 0.057,0.089 0.078,0.117 0.002,0.005 0.006,0.013 0.006,0.019 0.006,0.059 0.006,0.118 0,0.179 -0.014,0.046 -0.027,0.088 -0.039,0.125 -0.109,0.21 -0.517,0.625 -0.953,1.013 -0.016,0.013 -0.039,0.029 -0.078,0.057 -0.109,0.098 -0.646,0.306 -0.301,0.167 -2.219,1.02 -4.395,1.639 -6.773,1.688 -2.281,0.233 -4.105,0.103 -4.309,-0.805 -0.002,0.006 -0.002,0.01 -0.004,0.015 0,-0.003 0.002,-0.007 0.002,-0.01 0,-0.002 0,-0.005 0.002,-0.006 -0.002,-10e-4 -0.002,-0.002 -0.002,-0.003 0.002,-0.026 0.002,-0.054 0.01,-0.093 0.002,0.018 0,0.034 -0.002,0.052 l -0.004,0.006 c 0.002,-0.002 0.002,-0.002 0.004,-0.004 -0.002,0.009 0,0.019 -0.002,0.027 0.006,-0.017 0.006,-0.022 0.016,-0.049 0.002,-0.004 0.002,-0.003 0.004,-0.006 0.053,-0.085 0.086,-0.14 0.109,-0.173 0.662,-0.759 1.229,-0.954 1.717,-1.359 5.102,-3.101 10.326,-6.044 15.846,-8.429 7.002,-2.94 15.658,-4.541 23.519,-6.2 0.387,-0.117 0.908,-0.011 1.17,-0.344 0.197,-0.306 -0.126,-0.73 -0.499,-0.618"
   id="path469-9" />
					<path
   style="fill:#8ca05c"
   d="m 390.264,306.061 c 0.002,-0.006 0.004,-0.009 0.004,-0.016 0,0.005 -0.002,0.011 -0.004,0.015 z"
   id="path470-1" />
					<path
   style="fill:#8ca05c"
   d="m 435.643,307.521 c -0.547,-2.665 -3.127,-4.177 -5.307,-5.623 -2.391,-1.422 -4.814,-3.127 -7.688,-3.464 -1.527,-0.157 -3.9,-0.624 -5.924,-0.07 -2.078,0.435 -3.955,1.395 -5.777,2.404 -0.141,0.075 -0.238,0.203 -0.281,0.348 -0.156,0.483 0.445,0.924 0.9,0.657 2.82,-1.689 6.273,-2.871 8.902,-2.38 3.117,0.244 4.996,1.041 7.807,2.859 2.725,1.776 5.344,3.017 5.947,5.573 0.146,0.014 -0.225,1.59 -0.322,1.897 -0.676,1.093 -1.273,1.701 -2.535,2.313 -0.754,0.402 -2.908,0.393 -4.701,0.178 -0.672,-0.132 -3.283,-1.102 -4.147,-1.455 -1.01,-0.296 -1.135,-0.227 -1.963,-0.76 -1.684,-0.955 -3.219,-1.954 -3.129,-2.424 0.043,-0.395 0.504,-1.448 1.609,-1.85 0.621,-0.208 2.728,-0.436 4.207,0.248 0.023,0.009 0.172,0.071 0.379,0.188 0.324,0.183 0.746,0.49 0.627,0.401 0.049,0.037 0.092,0.076 0.139,0.117 0.037,0.035 0.068,0.065 0.092,0.09 0.037,0.049 0.074,0.098 0.104,0.153 0.01,0.03 0.02,0.059 0.027,0.081 0.016,0.604 -0.004,0.746 -0.1,0.933 -0.014,0.008 -0.023,0.014 -0.041,0.023 -0.004,0.002 -0.004,0.002 -0.008,0.003 -0.141,0.032 -0.207,0.05 -0.238,0.06 -0.275,0.022 -0.551,0.002 -0.822,-0.018 -0.652,-0.337 -1.469,0.531 -0.852,1.103 0.355,0.332 0.881,0.282 1.342,0.313 0.66,0.006 1.428,-0.14 1.83,-0.683 0.4,-0.676 0.471,-1.546 0.236,-2.284 -0.221,-0.593 -0.775,-0.971 -1.303,-1.313 -2.022,-1.208 -4.941,-1.475 -7.016,-0.26 -1.447,0.994 -2.377,2.927 -0.887,4.284 0.654,0.681 1.558,1.076 2.338,1.608 0.807,0.466 1.584,1.018 2.533,1.182 1.088,0.3 2.647,1.035 4.223,1.494 1.221,0.29 2.504,0.294 3.756,0.303 3.394,0.057 6.492,-2.997 6.043,-6.229"
   id="path471-7" />
					<path
   style="fill:#8ca05c"
   d="m 381.941,308.731 c -0.512,-1.501 -2.271,-2.188 -3.697,-2.725 -3.334,-0.54 -6.947,-0.245 -10.189,0.599 -0.414,0.272 -0.068,0.927 0.41,0.785 2.022,-0.516 3.723,-0.6 5.957,-0.701 1.871,-0.038 3.225,-0.08 4.516,0.652 2.109,0.956 2.361,1.966 1.299,2.718 -0.225,0.135 -0.842,0.142 -1.693,0.188 -0.432,0.037 -0.891,0.032 -1.174,0.017 0.121,-0.147 0.23,-0.21 0.494,-0.377 0.041,-0.02 0.082,-0.038 0.123,-0.055 0.203,-0.077 0.373,-0.254 0.385,-0.464 -0.061,-1.349 -1.811,-0.3 -2.191,0.354 -0.785,0.987 0.102,1.751 1.207,1.725 1.4,-0.084 2.068,0.036 3.32,-0.381 0.837,-0.432 1.39,-1.436 1.233,-2.335"
   id="path472-3" />
					<path
   style="fill:#8ca05c"
   d="m 464.887,289.957 c -0.32,-1.081 -0.473,-1.244 -1.098,-2.357 -0.082,-0.432 -1.059,-2.145 -2.254,-3.082 -2.233,-1.764 -4.186,-2.561 -6.123,-3.351 -1.31,-0.548 -3.234,-1.439 -5.467,-1.761 -5.342,-0.426 -10.002,-1.044 -15.135,-0.391 -6.162,0.322 -11.426,0.918 -17.303,2.951 -3.254,0.914 -6.523,1.788 -9.723,2.872 -1.721,0.76 -2.98,1.521 -4.596,2.024 -4.24,1.484 -8.004,2.921 -12.006,4.505 -2.844,1.432 -5.805,2.741 -8.391,4.563 -0.301,0.351 0.166,0.901 0.6,0.647 6.334,-4.099 12.553,-6.071 19.473,-8.633 1.941,-0.486 4.197,-1.813 5.629,-2.353 4.488,-1.385 9.018,-2.637 13.555,-3.868 4.291,-1.125 7.066,-1.223 11.541,-1.477 1.979,-0.106 3.957,-0.431 5.936,-0.43 0.727,0.214 3.389,0.124 4.75,0.301 2.813,0.365 4.934,0.2 7.457,1.004 2.986,1.211 4.875,1.811 8.242,3.948 0.822,0.619 2.084,1.852 2.381,2.857 0.131,0.438 0.754,1.255 0.916,1.818 0.176,0.315 0.064,0.145 0.145,0.428 -0.047,0.133 -0.07,0.27 -0.027,0.407 0.373,1.041 1.793,0.305 1.498,-0.622"
   id="path473-9" />
					<path
   style="fill:#8ca05c"
   d="m 453.516,292.158 c -0.258,-0.867 -0.857,-1.226 -1.152,-1.653 -0.572,-0.648 -1.207,-1.232 -2.014,-1.615 -2.906,-1.84 -6.402,-2.367 -9.789,-2.886 -3.805,-0.497 -7.555,-0.498 -11.639,0.043 -3.516,0.564 -6.955,1.552 -10.357,2.548 -1.824,0.649 -3.9,0.965 -5.545,1.93 -0.229,0.36 0.15,0.85 0.588,0.724 8.586,-2.958 17.398,-5.564 26.061,-4.317 2.195,0.22 5.969,0.925 7.926,1.768 1.313,0.678 2.402,1.271 3.229,2.021 0.102,0.21 1.389,1.522 1.313,1.681 0.478,1.17 0.529,1.819 0.281,2.657 -0.025,0.077 -0.033,0.202 -0.031,0.281 -0.121,0.229 -0.111,0.531 0.074,0.726 0.31,0.438 1.092,0.307 1.258,-0.193 0.228,-0.554 0.063,-0.489 0.182,-0.766 0.22,-1.013 0.066,-2.015 -0.385,-2.949"
   id="path474-6" />
					<path
   style="fill:#8ca05c"
   d="m 402.207,295.374 c -4.764,1.821 -9.246,3.316 -14.064,5.482 -1.486,0.622 -2.971,1.248 -4.426,1.936 -0.121,0.065 -0.209,0.176 -0.244,0.301 -0.135,0.416 0.389,0.805 0.781,0.571 6.463,-3.025 12.422,-5.09 18.504,-7.425 0.506,-0.337 0.01,-1.121 -0.551,-0.865"
   id="path475-9" />
					<path
   style="fill:#8ca05c"
   d="m 377.457,297.669 c -1.705,0.823 -4.449,0.872 -7.012,0.862 -0.549,0.047 -0.623,-0.253 -1.568,-0.077 -0.453,0.233 -0.358,0.93 0.142,1.044 2.379,0.302 6.041,0.35 8.773,-0.737 0.506,-0.342 1.414,-0.262 1.639,-0.96 -0.011,-1.142 -1.367,-0.38 -1.974,-0.132"
   id="path476-9" />
					<path
   style="fill:#8ca05c"
   d="m 432.453,298.848 c -0.068,-0.089 -0.147,-0.175 -0.236,-0.241 -1.857,-1.675 -4.111,-2.806 -6.463,-3.732 -0.713,-0.223 -1.404,-0.681 -2.148,-0.742 -0.705,0.052 -0.775,1.082 -0.09,1.236 2.93,1.09 5.521,2.218 7.941,4.28 l -0.023,-0.014 c 0.01,0.01 0.023,0.014 0.035,0.022 0.027,0.022 0.055,0.043 0.082,0.066 0.125,0.058 0.15,0.065 0.133,0.052 0.574,0.227 1.097,-0.466 0.769,-0.927"
   id="path477-8" />
					<path
   style="fill:#8ca05c"
   d="m 432.424,298.81 c -0.02,-0.02 -0.027,-0.046 -0.053,-0.067 0.002,0.011 0.027,0.038 0.053,0.067"
   id="path478-7" />
					<path
   style="fill:#8ca05c"
   d="m 432.424,298.81 c 0.012,0.013 0.021,0.025 0.029,0.037 0.004,0.007 0.012,0.013 0.018,0.019 -0.01,-0.013 -0.028,-0.034 -0.047,-0.056"
   id="path479-7" />
					<path
   style="fill:#8ca05c"
   d="m 441.973,311.003 c 0,-0.013 0.002,-0.021 0.002,-0.039 0.006,-0.044 0.01,-0.092 0.014,-0.136 0.035,-1.663 -1.818,-3.754 -3.115,-5.439 -0.59,-0.551 -0.578,-1.031 -1.432,-1.578 -0.563,-0.165 -1.084,0.474 -0.77,0.949 1.465,1.911 4.105,4.843 3.959,6.146 -0.088,0.812 1.016,1.249 1.344,0.404 0.033,-0.102 0.021,-0.206 -0.002,-0.307"
   id="path480-3" />
					<path
   style="fill:#8ca05c"
   d="m 461.937,297.11 c -0.656,0.126 -0.453,0.238 -0.781,0.54 -1.961,2.256 -3.803,4.623 -6.072,6.61 -0.83,0.415 -2.338,1.713 -3.357,2.256 -1.25,0.533 -3.826,1.285 -5.695,1.617 -0.73,0.179 -0.422,1.274 0.313,1.073 2.342,-0.493 5.879,-1.277 7.219,-2.593 3.332,-1.849 6.092,-5.334 8.865,-8.383 0.434,-0.384 0.106,-1.139 -0.492,-1.12"
   id="path481-6" />
					<path
   style="fill:#8ca05c"
   d="m 413.324,303.278 c -0.453,-0.054 -0.887,0.234 -1.301,0.375 -1.514,0.759 -2.852,1.797 -4.234,2.745 -0.449,0.413 -1.266,0.788 -1.412,1.378 -0.014,0.42 0.578,0.654 0.881,0.346 1.352,-1.178 3.875,-2.885 5.315,-3.596 0.346,-0.178 0.84,-0.165 1.076,-0.494 0.179,-0.278 0.007,-0.671 -0.325,-0.754"
   id="path482-5" />
					<path
   style="fill:#8ca05c"
   d="m 442.867,313.626 c -0.316,-0.076 -0.584,0.137 -0.867,0.242 -0.955,0.467 -2.213,0.657 -3.555,1.025 -1.318,0.308 -2.326,0.786 -3.398,0.809 -2.178,0.295 -4.389,-0.128 -6.551,-0.103 -0.504,0.173 -0.344,0.947 0.197,0.929 3.103,0.221 6.326,0.593 9.301,-0.496 1.936,-0.569 4.092,-0.81 5.162,-1.575 0.254,-0.272 0.076,-0.747 -0.289,-0.831"
   id="path483-2" />
					<path
   style="fill:#8ca05c"
   d="m 364.027,304.464 c -1,-0.968 -1.621,-2.439 -1.93,-4.601 -0.119,-0.703 -0.205,-1.289 -0.207,-2.315 0,-0.157 -0.066,-0.311 -0.184,-0.423 -0.369,-0.374 -1.094,-0.092 -1.074,0.423 0.109,2.873 0.484,6.164 2.906,8.165 0.305,0.244 0.648,0.663 1.09,0.457 0.993,-0.522 -0.15,-1.256 -0.601,-1.706"
   id="path484-8" />
				</g>
			</g>
			<g
   clip-path="url(#SVGID_00000101787767272745764000000006459860968293581187_)"
   id="g561">
				<g
   id="g525">
					<path
   style="fill:#677724"
   d="m 462.09,282.46 c 0,-0.002 -0.002,-0.003 -0.004,-0.005 -0.012,-0.005 -0.012,-0.005 0.004,0.005"
   id="path485-4" />
					<path
   style="fill:#627eb5"
   d="m 373.131,254.758 c -0.955,1.994 -3.424,5.745 -3.994,7.196 0.232,0.556 0.805,0.228 0.971,-0.192 1.338,-2.153 2.535,-4.385 3.756,-6.599 0.281,-0.442 -0.462,-0.857 -0.733,-0.405"
   id="path486-0" />
					<path
   style="fill:#627eb5"
   d="m 376.148,259.988 c -1.1,1.873 -2.256,3.746 -3.314,5.623 -0.049,0.225 0.125,0.448 0.353,0.51 0.303,0.087 0.533,-0.14 0.664,-0.373 0.367,-0.449 0.574,-0.994 0.871,-1.486 0.611,-1.251 2.031,-2.931 2.32,-4.163 -0.097,-0.385 -0.692,-0.46 -0.894,-0.111"
   id="path487-6" />
					<path
   style="fill:#627eb5"
   d="m 376.439,270.147 c -0.859,1.675 -1.785,3.318 -2.709,4.963 -0.137,0.324 -0.461,0.638 -0.373,1.004 0.074,0.274 0.4,0.449 0.686,0.369 0.244,-0.06 0.359,-0.271 0.451,-0.475 0.975,-1.773 1.992,-3.525 2.912,-5.325 0.373,-0.586 -0.607,-1.134 -0.967,-0.536"
   id="path488-4" />
					<path
   style="fill:#627eb5"
   d="m 365.932,267.294 c -0.924,1.909 -1.867,3.809 -2.871,5.682 -0.119,0.281 -0.392,0.547 -0.303,0.866 0.068,0.266 0.387,0.436 0.666,0.359 0.502,-0.208 0.578,-0.855 0.865,-1.261 0.898,-1.691 1.744,-3.407 2.578,-5.128 0.363,-0.568 -0.588,-1.098 -0.935,-0.518"
   id="path489-9" />
					<path
   style="fill:#627eb5"
   d="m 370.178,270.708 c -0.885,1.518 -1.75,3.046 -2.68,4.538 -0.15,0.274 -0.416,0.513 -0.473,0.819 -0.086,0.385 0.355,0.735 0.744,0.621 1.311,-1.184 2.381,-3.853 3.43,-5.412 0.395,-0.621 -0.644,-1.199 -1.021,-0.566"
   id="path490-6" />
					<path
   style="fill:#627eb5"
   d="m 369.242,281.6 c -0.797,1.773 -1.611,3.543 -2.516,5.27 -0.295,0.448 0.289,0.999 0.762,0.723 1.164,-1.72 1.906,-3.776 2.77,-5.66 0.111,-0.544 -0.742,-0.82 -1.016,-0.333"
   id="path491-6" />
					<path
   style="fill:#627eb5"
   d="m 374.836,283.248 c -0.902,1.719 -1.783,3.449 -2.574,5.217 -0.32,0.485 0.314,1.085 0.828,0.784 1.082,-1.679 1.758,-3.677 2.789,-5.423 0.404,-0.633 -0.656,-1.223 -1.043,-0.578"
   id="path492-5" />
					<path
   style="fill:#627eb5"
   d="m 383.059,269.734 c -0.828,1.702 -1.65,3.406 -2.467,5.112 -0.197,0.3 -0.012,0.717 0.346,0.807 0.244,0.066 0.527,-0.042 0.652,-0.253 0.617,-1.257 1.236,-2.513 1.844,-3.773 0.201,-0.584 0.736,-1.137 0.703,-1.759 -0.119,-0.464 -0.838,-0.554 -1.078,-0.134"
   id="path493-9" />
					<path
   style="fill:#627eb5"
   d="m 394.348,259.13 c -0.877,1.845 -1.842,3.649 -2.775,5.47 -0.297,0.451 0.293,1.01 0.771,0.729 1.199,-1.81 2.117,-3.895 3.049,-5.857 0.115,-0.559 -0.764,-0.842 -1.045,-0.342"
   id="path494-6" />
					<path
   style="fill:#627eb5"
   d="m 386.619,277.094 c -0.918,1.801 -1.83,3.603 -2.725,5.415 -0.252,0.377 0.162,0.887 0.611,0.754 0.221,-0.056 0.34,-0.233 0.422,-0.424 0.902,-1.728 1.795,-3.461 2.684,-5.195 0.385,-0.602 -0.623,-1.164 -0.992,-0.55"
   id="path495-2" />
					<path
   style="fill:#627eb5"
   d="m 394.895,269.563 c -0.408,0.859 -0.926,1.689 -1.277,2.564 -0.057,0.26 0.145,0.518 0.406,0.588 0.26,0.071 0.559,-0.061 0.666,-0.297 0.408,-0.838 0.938,-1.645 1.281,-2.501 0.119,-0.579 -0.786,-0.869 -1.076,-0.354"
   id="path496-8" />
					<path
   style="fill:#627eb5"
   d="m 402.771,265.626 c -0.58,1.205 -1.264,2.382 -1.785,3.603 -0.047,0.198 0.076,0.41 0.256,0.508 0.258,0.146 0.619,0.051 0.748,-0.209 0.594,-1.117 1.18,-2.237 1.768,-3.355 0.383,-0.6 -0.621,-1.157 -0.987,-0.547"
   id="path497-8" />
					<path
   style="fill:#627eb5"
   d="m 395.361,278.078 c -0.623,1.315 -1.285,2.614 -1.971,3.903 -0.221,0.312 -0.049,0.765 0.336,0.86 0.266,0.072 0.57,-0.056 0.689,-0.294 0.668,-1.187 1.303,-2.388 1.883,-3.617 0.602,-0.729 -0.288,-1.622 -0.937,-0.852"
   id="path498-7" />
					<path
   style="fill:#627eb5"
   d="m 409.906,267.638 c -0.975,2.016 -2.035,3.99 -3.047,5.987 -0.289,0.397 0.133,0.964 0.627,0.822 0.572,-0.262 0.645,-1.027 0.98,-1.504 0.809,-1.587 1.65,-3.157 2.42,-4.762 0.38,-0.595 -0.618,-1.149 -0.98,-0.543"
   id="path499-5" />
					<path
   style="fill:#627eb5"
   d="m 417.156,266.559 c -0.434,0.804 -1.016,1.563 -1.357,2.397 -0.051,0.223 0.088,0.462 0.291,0.574 0.533,0.288 0.891,-0.233 1.088,-0.638 0.354,-0.657 0.858,-1.272 1.121,-1.96 0.125,-0.612 -0.834,-0.919 -1.143,-0.373"
   id="path500-7" />
					<path
   style="fill:#627eb5"
   d="m 414.068,272.585 c -0.627,1.203 -1.432,2.346 -2.014,3.555 -0.035,0.15 0.014,0.319 0.121,0.433 0.625,0.671 1.18,-0.23 1.436,-0.746 0.525,-0.873 1.021,-1.763 1.525,-2.648 0.417,-0.652 -0.671,-1.255 -1.068,-0.594"
   id="path501-0" />
					<path
   style="fill:#627eb5"
   d="m 424.096,266.917 c -0.799,1.577 -1.705,3.1 -2.553,4.652 -0.121,0.194 -0.115,0.471 0.047,0.643 0.41,0.502 1.051,0.093 1.201,-0.403 0.529,-0.96 1.078,-1.911 1.619,-2.867 0.236,-0.625 0.852,-1.21 0.816,-1.884 -0.124,-0.489 -0.876,-0.582 -1.13,-0.141"
   id="path502-22" />
					<path
   style="fill:#627eb5"
   d="m 431.385,266.483 c -1.174,1.985 -2.311,3.988 -3.537,5.943 -0.34,0.45 0.152,1.102 0.711,0.938 0.619,-0.281 0.777,-1.065 1.18,-1.563 0.938,-1.558 1.844,-3.132 2.77,-4.696 0.434,-0.681 -0.708,-1.318 -1.124,-0.622"
   id="path503-9" />
					<path
   style="fill:#627eb5"
   d="m 441.422,266.426 c -0.125,-0.496 -0.893,-0.592 -1.148,-0.143 -0.563,1.208 -1.254,2.358 -1.895,3.531 -0.119,0.189 -0.111,0.46 0.047,0.628 0.387,0.478 1.01,0.108 1.164,-0.365 0.514,-0.892 1.063,-1.77 1.522,-2.688 0.122,-0.313 0.409,-0.614 0.31,-0.963"
   id="path504-1" />
					<path
   style="fill:#627eb5"
   d="m 445.84,268.245 c -0.67,1.199 -1.377,2.379 -2.131,3.532 -0.297,0.375 0.113,0.93 0.586,0.793 0.424,-0.158 0.549,-0.653 0.816,-0.972 0.621,-0.982 1.311,-1.961 1.777,-3.01 0.116,-0.561 -0.765,-0.844 -1.048,-0.343"
   id="path505-3" />
					<path
   style="fill:#627eb5"
   d="m 463.434,258.353 c -0.262,0.596 -0.904,1.14 -0.906,1.793 0.102,0.401 0.721,0.477 0.93,0.115 0.289,-0.538 0.711,-1.035 0.926,-1.598 0.102,-0.508 -0.693,-0.764 -0.95,-0.31"
   id="path506-8" />
					<path
   style="fill:#627eb5"
   d="m 454.543,268.731 c -0.762,1.365 -1.568,2.709 -2.41,4.036 -0.094,0.153 -0.119,0.344 -0.068,0.517 0.311,0.826 1.281,0.487 1.52,-0.204 0.719,-1.129 1.404,-2.273 2.06,-3.436 0.712,-0.796 -0.438,-1.785 -1.102,-0.913"
   id="path507-1" />
					<path
   style="fill:#bbd7ff"
   d="m 360.271,257.185 c -0.222,0.95 -0.683,1.862 -0.873,2.808 0.01,0.162 0.151,0.303 0.313,0.344 0.227,0.058 0.478,-0.072 0.537,-0.289 0.301,-0.877 0.617,-1.75 0.865,-2.643 0.158,-0.515 -0.698,-0.738 -0.842,-0.22"
   id="path508-3" />
					<path
   style="fill:#bbd7ff"
   d="m 368.545,249.195 c -0.885,2.038 -2.189,4.503 -3.127,6.504 -0.065,0.294 0.314,0.524 0.578,0.368 0.188,-0.13 0.287,-0.35 0.389,-0.541 0.939,-1.992 2.16,-4.254 2.873,-5.936 0.277,-0.432 -0.448,-0.838 -0.713,-0.395"
   id="path509-7" />
					<path
   style="fill:#bbd7ff"
   d="m 363.26,261.457 c -0.998,1.578 -1.869,3.232 -2.608,4.933 -0.158,0.487 0.529,0.866 0.902,0.497 0.725,-1.434 1.539,-3.261 2.627,-4.918 0.358,-0.562 -0.579,-1.083 -0.921,-0.512"
   id="path510-6" />
					<path
   style="fill:#bbd7ff"
   d="m 461.625,264.798 c -0.49,0.952 -1.014,1.907 -1.449,2.875 -0.078,0.366 0.397,0.655 0.725,0.46 0.688,-0.897 1.098,-2.044 1.623,-3.039 0.099,-0.483 -0.657,-0.726 -0.899,-0.296"
   id="path511-1" />
					<path
   style="fill:#bbd7ff"
   d="m 460.906,271.962 c -0.619,1.241 -1.268,2.49 -1.842,3.741 -0.055,0.244 0.137,0.486 0.379,0.554 0.225,0.061 0.482,-0.04 0.602,-0.231 0.469,-0.87 0.893,-1.762 1.332,-2.647 0.156,-0.427 0.588,-0.826 0.519,-1.294 -0.107,-0.428 -0.767,-0.51 -0.99,-0.123"
   id="path512-4" />
					<path
   style="fill:#bbd7ff"
   d="m 468.443,258.943 c -1.045,2.268 -2.129,4.518 -3.168,6.788 -0.178,0.273 -0.01,0.654 0.314,0.734 0.225,0.062 0.483,-0.038 0.598,-0.23 0.717,-1.574 1.461,-3.137 2.195,-4.704 0.293,-0.823 0.94,-1.613 1.022,-2.469 -0.103,-0.414 -0.744,-0.495 -0.961,-0.119"
   id="path513-9" />
					<path
   style="fill:#bbd7ff"
   d="m 467.328,270.413 c -0.514,1.055 -0.996,2.123 -1.486,3.188 -0.135,0.604 -0.984,1.409 -0.371,1.941 0.309,0.257 0.844,0.08 0.94,-0.294 0.523,-1.217 0.832,-1.868 1.439,-3.177 0.162,-0.507 0.643,-0.98 0.578,-1.521 -0.119,-0.475 -0.854,-0.567 -1.1,-0.137"
   id="path514-2" />
					<path
   style="fill:#bbd7ff"
   d="m 379.191,252.395 c -0.23,-0.401 -0.916,-0.316 -1.029,0.128 -0.346,0.86 -0.762,1.622 -1.197,2.732 -0.031,0.135 0.012,0.289 0.109,0.393 0.709,0.684 1.094,-0.385 1.309,-0.906 0.199,-0.693 1.037,-1.675 0.808,-2.347"
   id="path515-0" />
					<path
   style="fill:#bbd7ff"
   d="m 379.418,282.91 c -0.67,1.659 -1.244,3.35 -1.893,5.015 -0.135,0.408 0.379,0.781 0.76,0.556 0.973,-1.604 1.334,-3.59 2.137,-5.308 0.189,-0.614 -0.834,-0.883 -1.004,-0.263"
   id="path516-1" />
					<path
   style="fill:#bbd7ff"
   d="m 388.543,265.945 c -0.273,1.307 -0.756,2.564 -1.174,3.836 -0.209,0.445 -0.447,1.164 0.307,1.219 0.529,-0.002 0.57,-0.589 0.734,-0.947 0.428,-1.268 0.902,-2.528 1.18,-3.834 0.193,-0.639 -0.867,-0.918 -1.047,-0.274"
   id="path517-8" />
					<path
   style="fill:#bbd7ff"
   d="m 403.102,273.478 c -0.233,-0.405 -0.926,-0.32 -1.041,0.129 -0.539,1.599 -1.078,3.198 -1.563,4.813 -0.06,0.2 0.016,0.441 0.199,0.559 0.435,0.326 0.916,-0.087 0.963,-0.53 0.23,-0.806 0.5,-1.6 0.767,-2.394 0.147,-0.767 0.883,-1.877 0.675,-2.577"
   id="path518-6" />
					<path
   style="fill:#bbd7ff"
   d="m 398.428,258.593 c -0.563,1.453 -1.053,2.932 -1.623,4.382 -0.135,0.33 0.156,0.702 0.523,0.697 0.24,0.003 0.473,-0.165 0.535,-0.387 0.58,-1.46 1.074,-2.947 1.645,-4.41 0.201,-0.659 -0.897,-0.948 -1.08,-0.282"
   id="path519-3" />
					<path
   style="fill:#bbd7ff"
   d="m 389.818,279.636 c -0.611,1.355 -1.617,3.612 -1.922,4.542 -0.152,0.235 -0.061,0.57 0.195,0.705 0.484,0.257 0.828,-0.203 0.916,-0.613 0.369,-1.004 0.795,-1.988 1.232,-2.968 0.205,-0.654 0.516,-0.774 0.563,-1.544 -0.107,-0.425 -0.763,-0.507 -0.984,-0.122"
   id="path520-4" />
					<path
   style="fill:#bbd7ff"
   d="m 449.81,268.43 c -0.377,0.939 -1.215,2.517 -1.752,3.828 -0.057,0.248 0.135,0.495 0.385,0.561 0.23,0.064 0.492,-0.039 0.611,-0.235 0.602,-1.293 1.228,-2.575 1.789,-3.883 0.198,-0.633 -0.857,-0.909 -1.033,-0.271"
   id="path521-2" />
					<path
   style="fill:#bbd7ff"
   d="m 365.223,279.146 c -0.229,-0.399 -0.914,-0.317 -1.027,0.128 -0.6,1.589 -1.063,3.223 -1.662,4.811 -0.24,0.373 -0.328,1.129 0.539,1.04 0.35,-0.088 0.432,-0.448 0.555,-0.727 0.545,-1.44 0.963,-2.925 1.486,-4.374 0.085,-0.286 0.296,-0.593 0.109,-0.878"
   id="path522-0" />
					<path
   style="fill:#bbd7ff"
   d="m 377.738,274.925 c -0.477,-0.124 -0.707,0.31 -0.811,0.674 -0.414,1.042 -0.824,2.085 -1.195,3.142 -0.197,0.648 0.881,0.931 1.061,0.277 0.414,-1.157 0.873,-2.3 1.336,-3.441 0.086,-0.272 -0.1,-0.582 -0.391,-0.652"
   id="path523-5" />
					<path
   style="fill:#bbd7ff"
   d="m 406.926,265.48 c -0.369,0.818 -0.74,1.638 -1.096,2.463 -0.059,0.195 0.016,0.434 0.197,0.549 1.016,0.6 1.27,-1.583 1.865,-2.476 0.378,-0.588 -0.607,-1.133 -0.966,-0.536"
   id="path524-9" />
					<path
   style="fill:#627eb5"
   d="m 456.633,256.212 c 0.051,-0.119 0.07,-0.163 0,0"
   id="path525-4" />
					<polygon
   style="fill:#627eb5"
   points="456.633,256.212 456.631,256.214 456.631,256.215 "
   id="polygon525" />
				</g>
				<g
   id="g560">
					<g
   id="g536">
						<path
   style="fill:#3c5987"
   d="m 473.799,222.132 c -0.445,-4.048 -2.729,-7.606 -4.99,-10.965 -1.115,-1.785 -2.074,-3.674 -3.432,-5.31 -1.912,-2.178 -3.99,-4.213 -5.889,-6.401 -5.4,-5.536 -12.932,-8.514 -19.691,-12.257 -3.031,-1.505 -5.902,-3.358 -9.141,-4.447 -4.232,-1.464 -8.691,-2.158 -13.189,-2.162 -3.172,-0.004 -12.77,-2.285 -29.539,8.211 -15.021,9.403 -16.658,14.775 -23.185,22.569 -0.918,1.099 -1.781,2.241 -2.605,3.406 -1.891,2.856 -3.682,5.805 -5.236,8.839 -0.44,1.183 -0.864,2.37 -1.277,3.562 -0.05,0.147 -0.102,0.292 -0.149,0.438 -1.033,3.015 -1.982,6.058 -2.789,9.128 -0.425,3.409 -0.499,6.914 0.434,10.258 0.099,2.038 1.407,3.749 3,5.034 2.583,1.803 6.409,0.582 8.585,-1.3 3.438,-3.238 6.258,-7.019 8.607,-11.034 0.035,3.07 0.922,6.134 3.004,8.528 2.035,2.078 4.412,4.244 7.438,4.819 4.613,0.498 8.244,-4.203 10.842,-7.241 2.121,-2.533 3.969,-5.257 4.877,-8.407 0.426,-1.523 0.891,-3.066 1.295,-4.619 0.68,4.983 1.963,10.095 7.602,11.644 6.684,1.438 13.635,-2.499 16.506,-8.212 1.85,-3.653 0.996,-7.811 1.358,-11.713 0.016,-0.207 0.043,-0.411 0.06,-0.618 1.207,4.701 3.172,9.545 6.6,13.088 3.779,3.675 9.449,6.106 13.521,1.348 2.215,-2.688 3.008,-6.025 3.707,-9.316 0.965,2.641 2.705,4.995 5.004,6.868 1.471,1.141 2.916,2.423 4.73,3.036 2.631,0.738 5.611,1.07 8.217,0.105 1.1,-0.587 1.885,-1.577 2.654,-2.501 1.223,-1.431 2.334,-3.024 2.758,-4.847 0.491,-2.896 0.133,-6.378 0.313,-9.531"
   id="path526-4" />
						<g
   id="g535">
							<path
   style="fill:#627eb5"
   d="m 365.441,241.518 c -0.24,-0.524 -0.853,-0.274 -1.137,0.077 -0.076,0.103 -0.58,0.52 -0.727,0.641 -1.393,0.849 -2.463,1.526 -3.629,1.412 -0.041,-0.001 -0.073,-0.002 -0.099,-0.004 -0.275,-0.055 -0.935,-0.387 -1.029,-0.5 -0.712,-0.573 -0.995,-1.075 -1.002,-1.261 -0.088,-1.987 0.201,-3.435 0.599,-5.194 -0.038,-0.517 -0.884,-0.569 -1.008,-0.065 -0.423,1.155 -0.472,2.385 -0.623,3.591 -0.05,0.791 -0.191,1.645 0.174,2.389 0.678,1.198 2.087,2.222 3.576,2.043 0.643,-0.051 1.256,-0.223 1.799,-0.563 0.83,-0.443 1.705,-0.825 2.385,-1.478 0.272,-0.332 0.954,-0.58 0.721,-1.088"
   id="path527-9" />
							<path
   style="fill:#627eb5"
   d="m 362.615,230.819 c -0.234,-0.04 -0.475,-0.073 -0.701,-0.14 -2.4,-0.719 -1.305,-4.828 -0.029,-7.958 0.201,-0.645 -0.879,-0.933 -1.061,-0.278 -0.69,1.447 -1.001,3.015 -1.33,4.561 -0.222,1.216 -0.256,2.596 0.548,3.638 0.597,0.746 1.708,1.45 2.716,1.206 0.445,-0.231 0.351,-0.915 -0.143,-1.029"
   id="path528-1" />
							<path
   style="fill:#627eb5"
   d="m 383.594,246.741 c -0.1,-0.014 -0.191,-0.043 -0.285,-0.076 -0.414,-0.225 -1.34,-1.132 -1.963,-1.832 -0.586,-0.635 -1.025,-1.271 -1.633,-2.28 -0.088,-0.14 -0.23,-0.246 -0.397,-0.288 -0.547,-0.163 -1.053,0.46 -0.748,0.922 0.603,1.081 3.965,5.869 5.377,4.558 0.303,-0.331 0.092,-0.902 -0.351,-1.004"
   id="path529-9" />
							<path
   style="fill:#627eb5"
   d="m 372.148,206.997 c 0.207,-0.246 0.561,-0.447 0.555,-0.797 0.018,-0.504 -0.693,-0.783 -1.057,-0.414 -1.047,0.932 -1.561,2.234 -2.07,3.476 -0.357,0.816 -0.416,2.139 0.52,2.605 0.715,0.167 1.018,-0.66 0.566,-1.116 -0.006,-0.014 -0.004,-0.014 -0.01,-0.022 -0.023,-0.067 -0.043,-0.147 -0.057,-0.208 0.003,-0.984 0.942,-2.776 1.553,-3.524"
   id="path530-9" />
							<path
   style="fill:#627eb5"
   d="m 383.072,194.141 c -1.531,1.081 -3.168,2.14 -4.211,3.691 -0.313,0.549 -0.627,1.247 -0.363,1.863 0.234,0.736 1.346,0.797 1.406,-0.049 0.033,-0.12 -0.1,-0.323 -0.174,-0.421 0.041,-1.213 2.336,-2.918 3.969,-4.063 0.701,-0.376 0.065,-1.417 -0.627,-1.021"
   id="path531-3" />
							<path
   style="fill:#627eb5"
   d="m 411.527,190.06 c -1.488,0.301 -2.383,0.682 -3.412,0.304 -0.754,-0.098 -1.535,-2.34 -1.303,-3.352 -0.012,-0.273 0.252,-0.382 0.406,-0.883 0.115,-0.55 -0.75,-0.829 -1.027,-0.336 -0.533,0.675 -0.588,1.527 -0.478,2.337 0.127,1.052 0.498,2.171 1.365,2.885 1.363,1.067 3.225,0.463 4.766,0.139 0.75,-0.186 0.427,-1.297 -0.317,-1.094"
   id="path532-4" />
							<path
   style="fill:#627eb5"
   d="m 398.762,189.28 c -0.16,-0.039 -0.402,-0.06 -0.889,-0.384 -0.098,-0.101 -0.324,-0.323 -0.43,-0.423 -0.211,-0.252 -0.43,-0.683 -0.363,-0.589 -0.006,-0.025 -0.008,-0.027 -0.014,-0.043 0.045,-0.163 0.119,-0.323 0.08,-0.49 -0.051,-0.652 -1.113,-0.714 -1.269,-0.083 -0.684,1.559 2.164,3.934 3.668,3.076 0.531,-0.54 -0.119,-1.194 -0.783,-1.064"
   id="path533-1" />
							<path
   style="fill:#627eb5"
   d="m 426.158,186.474 c -0.768,0.006 -1.307,0.277 -1.713,0.252 -1.756,0.129 -2.863,0.183 -3.225,-0.54 -0.299,-0.497 -0.258,-0.875 -0.352,-1.622 -0.207,-0.558 -1.148,-0.374 -1.125,0.214 -0.125,1.348 0.65,2.893 2.18,3.107 1.451,0.137 3.074,0.104 4.443,-0.392 0.409,-0.262 0.263,-0.911 -0.208,-1.019"
   id="path534-2" />
							<path
   style="fill:#627eb5"
   d="m 443.059,194.044 c -0.404,0.052 -0.549,0.085 -1.238,-0.143 -0.313,0 -2.184,-2.009 -2.313,-2.393 -0.174,-0.313 -0.166,-0.751 -0.508,-0.951 -0.436,-0.26 -1.027,0.169 -0.873,0.637 0.234,0.858 0.808,1.555 1.394,2.226 0.883,1.034 2.139,2.007 3.633,1.738 0.457,-0.107 1.225,-0.091 1.301,-0.653 0.043,-0.842 -0.84,-0.609 -1.396,-0.461"
   id="path535-5" />
						</g>
					</g>
					<g
   id="g548">
						<path
   style="fill:#627eb5"
   d="m 482.898,232.692 c -0.478,-1.125 -1.521,-1.91 -2.707,-2.314 -0.289,-0.107 -0.582,-0.21 -0.873,-0.315 -0.01,-2.643 -0.25,-5.31 -1.465,-7.732 -1.434,-2.848 -4.219,-5.091 -7.217,-6.555 -2.912,-1.09 -6.109,-0.584 -8.965,0.401 -0.313,0.119 -0.631,0.227 -0.955,0.333 0.416,-0.552 0.809,-1.12 1.146,-1.717 0.779,-1.146 0.998,-2.465 0.959,-3.791 0.039,-1.948 0.014,-3.924 -0.272,-5.855 -0.744,-1.93 -2.32,-3.637 -4.225,-4.719 -2.066,-0.97 -4.361,-1.653 -6.662,-1.96 -2.898,0.183 -5.84,1.1 -8.324,2.47 -1.711,0.915 -3.391,1.89 -4.885,3.076 0.148,-1.064 0.328,-2.754 0.107,-3.895 -0.52,-2 -1.496,-4.078 -3.145,-5.521 -3.484,-2.482 -8.135,-4.218 -12.566,-3.061 -2.342,0.675 -4.588,1.704 -6.535,3.068 -2.453,1.922 -4.988,4.622 -6.844,6.697 0.012,-0.241 0.02,-0.464 0.01,-0.559 0.018,-6.064 -6.299,-8.612 -12.15,-6.999 -6.688,1.839 -12.875,5.81 -15.908,11.645 -0.707,1.342 -0.998,2.923 -1.098,4.488 -0.478,0.286 -0.961,0.56 -1.43,0.857 -3.674,2.365 -6.445,5.649 -8.9,9.033 -2.199,2.459 -2.715,5.773 -2.072,8.828 0.309,1.027 0.592,2.124 1.217,3.029 0.838,1.016 2.045,1.722 3.273,2.297 4.594,1.7 8.939,-0.941 12.537,-3.645 -0.5,1.39 -0.803,2.847 -0.982,4.306 -0.248,2.566 -0.818,5.73 1.898,7.407 3.721,2.849 9.205,1.582 13.193,-0.144 0.715,-0.22 1.756,-0.667 2.824,-1.244 -0.9,2.347 -1.545,4.768 -1.75,7.254 -0.281,2.169 -0.389,4.49 0.709,6.497 0.633,1.062 1.227,2.215 2.252,3.014 1.789,1.225 3.772,2.388 6.018,2.728 3.186,0.369 6.213,-1.009 8.92,-2.376 3.803,-1.723 6.566,-4.688 8.715,-7.951 -0.201,1.325 -0.281,2.66 -0.111,4 0.488,4.367 4.252,9.269 9.672,7.795 1.486,-0.477 3.088,-0.815 4.391,-1.651 2.215,-1.45 3.676,-3.539 4.975,-5.674 0.314,-0.548 0.629,-1.105 0.934,-1.669 -0.059,3.562 0.637,7.356 4.336,8.645 2.662,0.69 5.273,-0.619 7.178,-2.232 1.846,-1.509 3.092,-3.428 3.906,-5.51 0.512,0.38 1.074,0.707 1.672,0.976 0.732,0.421 1.512,0.76 2.328,0.958 1.754,0.683 3.641,0.814 5.447,-0.263 0.039,-0.022 0.076,-0.048 0.115,-0.071 1.766,-0.427 3.557,-1.197 4.668,-2.593 1.397,-1.628 1.971,-3.834 1.947,-5.91 0.752,-0.492 1.428,-1.129 2.148,-1.643 2.471,-1.788 3.645,-4.807 3.889,-7.668 -0.108,-1.578 -0.708,-3.113 -1.343,-4.565"
   id="path536-7" />
						<g
   id="g547">
							<path
   style="fill:#3c5987"
   d="m 380.658,218.59 c 0.363,-0.397 -0.203,-1.007 -0.672,-0.726 -1.42,0.801 -3.068,1.611 -3.836,3.067 -0.865,1.245 -0.74,4.078 1.494,4.672 0.457,0.088 0.815,-0.441 0.572,-0.809 -0.162,-0.251 -0.502,-0.301 -0.736,-0.476 -0.018,-0.015 -0.039,-0.034 -0.074,-0.059 -1.004,-0.856 -0.781,-2.729 0.467,-3.827 0.758,-0.703 1.703,-1.137 2.785,-1.842"
   id="path537-2" />
							<path
   style="fill:#3c5987"
   d="m 395.121,201.667 c -1.025,-0.252 -1.545,-0.294 -2.648,0.19 -1.059,0.278 -1.834,1.005 -2.424,1.858 -0.684,1.14 -0.932,2.508 -0.906,3.807 0.018,0.265 0.023,0.605 0.338,0.705 0.314,0.147 0.715,-0.112 0.705,-0.441 -0.17,-2.231 0.721,-4.43 2.582,-4.916 0.965,-0.321 0.875,-0.383 1.488,-0.275 0.33,0.032 0.684,0.238 1.002,0.061 0.427,-0.218 0.34,-0.88 -0.137,-0.989"
   id="path538-6" />
							<path
   style="fill:#3c5987"
   d="m 424.768,212.439 c -1.379,0.425 -2.508,1.306 -3.689,2.068 -0.615,0.419 -1.207,0.923 -1.465,1.62 -0.779,2.096 -0.283,4.912 2.475,5.371 0.518,-0.033 0.742,-0.703 0.371,-1.033 -0.244,-0.21 -0.678,-0.241 -1.231,-0.636 -0.715,-0.402 -1.072,-3.154 -0.139,-3.91 1.018,-0.843 2.69,-2 3.977,-2.449 0.704,-0.172 0.404,-1.226 -0.299,-1.031"
   id="path539-0" />
							<path
   style="fill:#3c5987"
   d="m 429.363,201.626 c -0.313,-0.535 -1.547,-1.238 -2.574,-1.485 -0.773,-0.086 -1.561,0.153 -2.295,0.361 -1.262,0.474 -2.203,1.458 -3.037,2.437 -0.156,0.147 -0.217,0.396 -0.117,0.586 0.129,0.347 0.656,0.439 0.918,0.174 0.834,-0.953 1.428,-1.596 2.359,-2.064 0.143,-0.175 1.621,-0.399 1.82,-0.433 0.582,0.099 1.025,0.36 1.742,0.842 0.477,0.458 1.317,0.321 1.184,-0.418"
   id="path540-1" />
							<path
   style="fill:#3c5987"
   d="m 449.941,206.165 c -2.541,0.03 -5.355,0.945 -6.467,3.282 -0.357,0.62 -0.484,1.332 -0.48,2.032 0.023,0.291 0.07,0.628 0.371,0.781 0.363,0.211 0.871,0.012 0.977,-0.379 0.06,-0.526 -0.066,-0.264 0.012,-0.861 0.024,-0.651 0.613,-1.799 1.568,-2.553 0.326,-0.314 2.855,-1.158 3.705,-1.064 1.008,0.202 1.387,-1.118 0.314,-1.238"
   id="path541-4" />
							<path
   style="fill:#3c5987"
   d="m 434.721,214.991 c -1.33,1.788 -2.91,4.204 -2.01,6.442 0.205,0.424 0.619,0.989 1.184,0.855 0.91,-0.344 0.293,-1.099 0.106,-1.22 -0.014,-0.021 -0.029,-0.042 -0.047,-0.071 -0.137,-0.24 -0.18,-0.421 -0.199,-0.712 0.008,-1.499 0.815,-3.001 2.1,-4.666 0.438,-0.687 -0.712,-1.329 -1.134,-0.628"
   id="path542-1" />
							<path
   style="fill:#3c5987"
   d="m 455.316,231.374 c -0.4,-1.878 -1.662,-3.297 -3.918,-3.477 -1.213,-0.043 -2.348,0.477 -3.426,0.944 -0.383,0.19 -0.98,0.369 -0.877,0.883 0.031,0.417 0.584,0.663 0.955,0.445 1.998,-1.041 3.848,-1.516 5,-0.31 0.629,0.34 1.105,2.494 1.145,3.136 -0.027,0.61 0.893,0.919 1.256,0.403 0.367,-0.527 -0.098,-1.414 -0.135,-2.024"
   id="path543-5" />
							<path
   style="fill:#3c5987"
   d="m 455.746,219.214 c -0.877,-0.77 -2.121,-0.865 -3.26,-0.842 -1.045,0.036 -2.147,0.049 -3.115,0.458 -1.004,0.157 -0.773,1.487 0.215,1.112 1.379,-0.587 4.574,-0.758 5.449,0.169 0.279,0.206 0.049,0.175 0.492,0.369 0.953,0.086 0.928,-0.836 0.219,-1.266"
   id="path544-3" />
							<path
   style="fill:#3c5987"
   d="m 471.012,222.288 c -1.178,0.229 -2.137,0.924 -3.102,1.563 -0.785,0.502 -1.592,1.035 -2.072,1.831 -0.604,1.174 -0.246,2.549 0.557,3.555 0.248,0.284 0.395,0.714 0.795,0.829 0.414,0.117 0.855,-0.206 0.85,-0.614 -0.066,-0.506 -0.568,-0.86 -0.789,-1.313 -0.512,-0.907 -0.588,-1.372 -0.039,-2.17 0.193,-0.313 2.744,-2.066 3.457,-2.313 0.359,-0.14 0.85,-0.124 1.068,-0.472 0.296,-0.448 -0.194,-1.054 -0.725,-0.896"
   id="path545-5" />
							<path
   style="fill:#3c5987"
   d="m 473.113,243.583 c -1.129,-0.785 -2.709,-0.961 -4.057,-0.709 -1.057,0.32 -1.883,1.093 -2.527,1.923 -0.555,0.775 -1.193,1.612 -1.223,2.578 0.047,0.589 1.006,0.648 1.15,0.074 0.145,-1.099 1.445,-2.57 2.035,-3.017 0.693,-0.622 1.652,-0.553 2.113,-0.503 1.375,0.072 1.428,0.52 2.334,0.816 0.712,-0.011 0.783,-0.912 0.175,-1.162"
   id="path546-7" />
							<path
   style="fill:#3c5987"
   d="m 477.877,235.267 c -0.555,-0.589 -2.229,-1.231 -3.623,-0.931 -0.902,0.119 -1.908,0.301 -2.607,0.881 -0.473,0.518 0.266,1.31 0.875,0.946 1.408,-0.802 3.623,-0.833 4.412,-0.024 0.428,0.29 0.799,0.675 1.238,0.938 0.397,0.191 0.902,-0.142 0.891,-0.555 -0.075,-0.591 -0.782,-0.869 -1.186,-1.255"
   id="path547-7" />
						</g>
					</g>
					<g
   id="g549">
						<path
   style="fill:#fccb7c"
   d="m 415.674,229.213 c -2.426,-0.504 -5.061,0.195 -7.555,0.14 -2.84,0.138 -6.158,-0.357 -9.514,0.235 2.467,-2.501 5.119,-4.41 7.842,-7.472 3.551,-4 7.228,-7.856 11.16,-11.493 0.951,-0.771 1.176,-2.106 -0.158,-2.563 -3.139,-1.076 -13.248,-1.223 -13.725,-1.027 -0.633,0.262 -10.523,15.333 -15.486,21.917 -2.393,2.91 -5.051,5.75 -6.928,9.004 -0.34,2.703 3.26,0.837 12.658,1.135 0.971,0.032 2.775,-0.107 4.152,-0.26 -0.397,0.555 -10.744,15.481 -15.398,25.096 0.025,0.8 0.914,1.357 1.664,1.042 0.889,-0.37 1.412,-1.244 2.078,-1.896 2.184,-2.394 4.686,-4.461 6.926,-6.797 4.6,-4.804 8.969,-9.814 13.521,-14.659 2.402,-2.499 4.967,-4.819 7.217,-7.462 0.913,-1.351 3.679,-3.58 1.546,-4.94"
   id="path548-3" />
						<path
   style="fill:#e0a955"
   d="m 407.412,231.923 c -0.801,0.163 -1.559,0.464 -2.35,0.655 -0.785,0.112 -2.953,0.281 -3.762,0.37 -3.246,0.561 -6.848,0.626 -10.5,1.407 -0.664,0.201 -1.922,0.586 -2.711,0.811 2.807,-3.462 5.242,-6.243 8.094,-9.548 2.35,-3.029 3.904,-5.353 6.33,-8.087 1.84,-2.38 4.166,-5.159 5.793,-8.112 0.098,-0.499 -0.693,-0.776 -0.955,-0.312 -3.768,6.064 -8.318,10.511 -12.147,15.785 -1.402,1.512 -3.16,3.739 -4.643,5.463 -1.105,1.183 -2.102,2.445 -3.057,3.739 -0.223,0.283 -0.768,0.778 -1.053,1.466 -0.08,1.442 1.914,0.696 2.758,0.47 1.369,-0.399 2.76,-0.786 3.744,-0.835 2.846,-0.317 6.479,-0.697 8.859,-0.999 1.197,-0.185 2.416,-0.17 3.611,-0.37 0.797,-0.197 1.572,-0.464 2.367,-0.676 -1.994,3.954 -5.608,8.05 -8.695,11.622 -3.629,3.812 -7.463,7.818 -10.01,11.268 -0.148,0.293 -1.527,1.504 -1.631,2.111 -0.018,0.531 0.734,0.84 1.127,0.442 2.084,-2.323 3.769,-5.065 6.357,-7.747 4.137,-4.462 8.418,-8.827 11.904,-13.788 1.047,-1.321 1.736,-2.85 2.494,-4.326 0.426,-1.236 -1.346,-0.984 -1.924,-0.809"
   id="path549-3" />
					</g>
					<g
   id="g559">
						<path
   style="fill:#3c5987"
   d="m 459.33,251.514 c -0.715,-0.738 -1.568,-1.535 -2.553,-1.987 0.611,-0.484 1.16,-1.051 1.424,-1.773 1.184,-3.107 -1.471,-6.073 -4.078,-7.662 -3.148,-1.987 -6.416,-2.604 -9.633,-1.533 0.25,-0.956 0.756,-1.915 0.586,-2.915 -0.303,-1.987 -1.584,-3.735 -3.271,-4.909 -2.35,-1.891 -5.076,-3.783 -8.123,-1.94 -0.658,0.427 -1.154,1.015 -1.553,1.661 -2.064,-0.508 -4.361,-0.258 -6.412,0.154 -2.795,0.722 -4.436,3.575 -4.104,6.218 0.051,0.531 0.072,1.076 0.135,1.612 -0.475,-0.186 -0.992,-0.266 -1.508,-0.227 -1.199,0.066 -2.326,0.475 -3.461,0.814 -1.307,0.39 -2.647,0.836 -3.709,1.681 -1.16,0.881 -2.088,1.986 -2.74,3.253 -0.457,0.831 -0.918,1.72 -0.799,2.684 0.109,0.798 0.168,1.646 0.555,2.374 0.045,0.058 0.096,0.118 0.143,0.177 -0.309,0.052 -0.615,0.116 -0.91,0.184 -1.502,0.348 -2.871,0.996 -4.025,1.974 -0.965,0.884 -1.805,1.948 -2.213,3.168 -0.393,1.177 -0.336,2.456 -0.141,3.663 0.295,2.512 2.381,4.597 4.969,5.129 2.555,0.307 5.1,-0.656 7.336,-1.748 1.063,-0.631 2.148,-1.277 3.178,-1.987 0.227,1.675 1.256,3.296 2.678,4.247 2.586,1.657 5.854,0.88 8.037,-1.024 0.902,-0.783 1.791,-1.589 2.603,-2.454 0.02,0.069 0.029,0.135 0.053,0.206 0.383,1.229 1.123,2.353 2.219,3.12 1.189,0.773 2.701,1.133 4.133,1.11 2.391,-0.411 4.565,-1.556 6.414,-3.028 0.103,-0.077 0.631,-0.454 1.185,-0.922 0.172,0.571 0.486,1.11 0.887,1.564 0.24,0.238 0.486,0.751 1.164,1.167 0.797,0.408 1.529,1.002 2.42,1.212 2.936,0.252 5.852,-1.08 8.074,-2.817 0.725,-0.479 1.23,-1.165 1.6,-1.917 0.613,-1.098 1.205,-2.249 1.385,-3.491 0.303,-1.881 -0.591,-3.706 -1.945,-5.038"
   id="path550-2" />
						<g
   id="g558">
							<path
   style="fill:#bbd7ff"
   d="m 410.998,253.161 c -1.244,1.182 -2.871,3.628 -1.615,5.209 0.322,0.376 0.844,0.8 1.383,0.74 0.346,-0.083 0.512,-0.486 0.332,-0.773 -0.313,-0.351 -0.68,-0.347 -0.76,-0.514 -0.029,-0.029 -0.053,-0.057 -0.074,-0.08 -0.063,-0.08 -0.121,-0.162 -0.168,-0.251 -0.01,-0.019 -0.014,-0.027 -0.02,-0.039 -0.004,-0.007 -0.004,-0.008 -0.008,-0.016 -0.014,-0.045 -0.025,-0.085 -0.033,-0.118 -0.104,-0.932 0.699,-2.304 1.267,-2.982 0.211,-0.264 0.615,-0.447 0.621,-0.813 0.018,-0.441 -0.607,-0.687 -0.925,-0.363"
   id="path551-0" />
							<path
   style="fill:#bbd7ff"
   d="m 422.662,243.036 c -1.133,0.719 -1.885,1.88 -2.48,3.021 -0.357,0.866 -0.721,1.907 -0.326,2.814 0.504,0.982 1.842,1.549 2.951,1.406 0.408,-0.135 0.436,-0.715 0.063,-0.907 -0.51,-0.167 -0.52,-0.04 -0.832,-0.142 -2.353,-0.4 -1.023,-3.124 0.586,-4.899 0.32,-0.373 0.504,-0.215 0.809,-0.732 0.133,-0.412 -0.386,-0.792 -0.771,-0.561"
   id="path552-7" />
							<path
   style="fill:#bbd7ff"
   d="m 430.478,256.122 c -0.695,-0.036 -1.211,0.652 -1.82,0.916 -1.881,1.272 -2.658,-0.191 -2.652,-2.559 0.014,-0.736 -1.211,-0.737 -1.199,0 0.002,1.268 0.172,2.709 1.184,3.633 0.805,0.616 1.979,0.666 2.826,0.098 0.551,-0.395 1.758,-0.92 2.051,-1.438 0.083,-0.271 -0.1,-0.581 -0.39,-0.65"
   id="path553-4" />
							<path
   style="fill:#bbd7ff"
   d="m 436.918,234.318 c -2.578,0.038 -5.627,1.01 -6.971,3.226 -0.389,1.38 1.023,2.782 2.084,3.57 0.338,0.33 0.965,0.173 1.086,-0.274 0.098,-0.849 -0.902,-0.89 -1.387,-1.702 0.188,0.271 -0.369,-0.514 -0.529,-0.84 -0.008,-0.04 -0.049,-0.173 -0.074,-0.243 0,-0.015 -0.002,-0.028 -0.002,-0.043 0.353,-0.912 2.406,-2.014 4.318,-2.412 0.246,-0.111 1.029,-0.002 1.713,-0.151 0.621,-0.21 0.416,-1.155 -0.238,-1.131"
   id="path554-7" />
							<path
   style="fill:#bbd7ff"
   d="m 439.736,249.125 c -0.203,-0.198 -0.549,-0.24 -0.799,-0.099 -0.582,0.247 -0.648,0.299 -1.449,0.512 -2.352,0.531 -2.885,-1.33 -1.49,-4.312 0.244,-0.791 -1.074,-1.138 -1.295,-0.339 -0.547,1.363 -1.154,2.887 -0.613,4.338 0.941,2.246 3.983,1.878 5.697,0.719 0.219,-0.231 0.174,-0.605 -0.051,-0.819"
   id="path555-6" />
							<path
   style="fill:#bbd7ff"
   d="m 444.549,257.084 c -0.619,0.591 -0.568,0.722 -1.311,1.157 -0.826,0.397 -0.785,0.427 -1.281,0.159 -0.371,-0.352 -0.563,-1.001 -0.758,-1.997 -0.215,-0.785 -1.512,-0.447 -1.275,0.333 0.232,1.194 0.645,2.77 2.105,3.034 1.348,0.162 2.961,-0.942 3.484,-2.074 0.106,-0.488 -0.525,-0.872 -0.964,-0.612"
   id="path556-8" />
							<path
   style="fill:#bbd7ff"
   d="m 456.578,255.474 c -0.195,-0.273 -0.613,-0.333 -0.906,-0.173 -0.387,0.239 -0.422,0.742 -0.672,1.087 -0.086,0.137 -0.193,0.261 -0.295,0.39 -0.023,0.027 -0.053,0.05 -0.082,0.074 -0.017,0.01 -0.029,0.017 -0.057,0.032 -0.225,0.159 -0.973,0.229 -1.307,0.139 -0.199,-0.039 -0.398,-0.092 -0.588,-0.161 -0.025,-0.013 -0.051,-0.027 -0.074,-0.041 -0.633,-0.893 -1.918,-0.233 -1.229,0.666 0.99,1.093 3.066,1.192 4.244,0.316 0.365,-0.411 0.365,-0.352 0.74,-0.98 0.047,-0.083 0.199,-0.428 0.277,-0.608 0.14,-0.225 0.137,-0.544 -0.051,-0.741"
   id="path557-1" />
							<path
   style="fill:#bbd7ff"
   d="m 451.432,245.456 c -0.426,0.028 -0.73,0.384 -1.115,0.532 -0.654,0.298 -0.832,0.414 -1.48,0.379 -0.211,0.033 -0.547,-0.683 -0.928,-2.328 -0.123,-0.291 0.051,-0.573 -0.086,-1.179 -0.225,-0.598 -1.238,-0.402 -1.213,0.231 -0.1,0.943 0.213,1.855 0.48,2.75 0.215,0.635 0.502,1.395 1.229,1.63 0.932,0.317 1.924,-0.064 2.748,-0.488 0.342,-0.225 0.846,-0.356 0.982,-0.759 0.119,-0.373 -0.209,-0.772 -0.617,-0.768"
   id="path558-89" />
						</g>
					</g>
				</g>
			</g>
		</g>
	</g></g></svg>
