<?xml version="1.0" encoding="UTF-8" standalone="no"?>
<!-- Created with Inkscape (http://www.inkscape.org/) -->

<svg
   width="39.378506mm"
   height="37.411282mm"
   viewBox="0 0 39.378506 37.411282"
   version="1.1"
   id="svg1"
   xml:space="preserve"
   xmlns:xlink="http://www.w3.org/1999/xlink"
   xmlns="http://www.w3.org/2000/svg"
   xmlns:svg="http://www.w3.org/2000/svg"><defs
     id="defs1"><path
       id="SVGID_1_"
       d="m 159.491,408.624 c -0.182,-2.729 -0.97,-5.321 -1.536,-7.958 -0.514,-2.159 -0.853,-4.369 -1.437,-6.507 -0.954,-4.303 -2.382,-8.434 -4.117,-12.394 -1.386,-3.824 -3.476,-7.232 -5.875,-10.311 -2.808,-3.707 -5.958,-7.105 -9.49,-9.918 -2.09,-1.589 -4.346,-2.881 -6.506,-4.343 -19.108,-12.922 -44.817,-21.428 -66.764,3.632 -2.839,3.241 -5.833,6.308 -8.637,9.588 -2.198,2.829 -4.606,5.467 -6.624,8.471 -2.065,3.811 -3.842,7.812 -5.948,11.598 -1.042,2.097 -2.251,4.095 -3.147,6.278 -1.103,2.844 -1.869,5.837 -2.782,8.761 -1.294,3.906 -2.088,7.965 -2.79,12.042 -0.7,4.007 -1.522,8.008 -1.859,12.074 -0.85,6.944 -0.922,13.967 -0.45,20.925 -0.025,2.505 0.069,5.008 0.411,7.479 0.124,2.159 0.176,3.586 1.866,7.071 1.884,3.556 4.682,6.325 7.563,8.814 1.915,1.183 1.673,0.921 2.255,1.301 1.779,1.044 3.691,1.737 5.606,2.4 1.951,0.68 3.88,1.499 5.932,1.713 3.212,-0.077 6.417,-0.874 9.595,-1.429 4.888,-1.31 9.586,-3.431 14.399,-5.051 2.925,-0.704 4.775,-0.576 9.329,-0.925 3.038,-0.167 7.999,0.527 8.332,0.609 7.461,1.765 10.526,2.814 17.761,3.255 5.072,0.379 10.358,0.086 15.241,-1.742 3.831,-1.565 7.369,-4.023 10.709,-6.649 3.384,-3.16 5.999,-7.228 8.149,-11.522 2.857,-5.142 5.063,-10.678 6.696,-16.446 1.325,-4.643 2.896,-9.208 3.268,-14.092 0.379,-3.314 1.019,-6.595 1.234,-9.926 0.11,-2.277 -0.204,-4.538 -0.384,-6.798" /></defs><g
     id="layer1"
     transform="translate(-370.74506,-491.57114)"><g
       id="g102"
       transform="matrix(0.26458333,0,0,0.26458333,364.01398,402.15702)">
		<g
   id="g19">
			<path
   style="fill:#8ca2cf"
   d="m 159.491,408.624 c -0.182,-2.729 -0.97,-5.321 -1.536,-7.958 -0.514,-2.159 -0.853,-4.369 -1.437,-6.507 -0.954,-4.303 -2.382,-8.434 -4.117,-12.394 -1.386,-3.824 -3.476,-7.232 -5.875,-10.311 -2.808,-3.707 -5.958,-7.105 -9.49,-9.918 -2.09,-1.589 -4.346,-2.881 -6.506,-4.343 -19.108,-12.922 -44.817,-21.428 -66.764,3.632 -2.839,3.241 -5.833,6.308 -8.637,9.588 -2.198,2.829 -4.606,5.467 -6.624,8.471 -2.065,3.811 -3.842,7.812 -5.948,11.598 -1.042,2.097 -2.251,4.095 -3.147,6.278 -1.103,2.844 -1.869,5.837 -2.782,8.761 -1.294,3.906 -2.088,7.965 -2.79,12.042 -0.7,4.007 -1.522,8.008 -1.859,12.074 -0.85,6.944 -0.922,13.967 -0.45,20.925 -0.025,2.505 0.069,5.008 0.411,7.479 0.124,2.159 0.176,3.586 1.866,7.071 1.884,3.556 4.682,6.325 7.563,8.814 1.915,1.183 1.673,0.921 2.255,1.301 1.779,1.044 3.691,1.737 5.606,2.4 1.951,0.68 3.88,1.499 5.932,1.713 3.212,-0.077 6.417,-0.874 9.595,-1.429 4.888,-1.31 9.586,-3.431 14.399,-5.051 2.925,-0.704 4.775,-0.576 9.329,-0.925 3.038,-0.167 7.999,0.527 8.332,0.609 7.461,1.765 10.526,2.814 17.761,3.255 5.072,0.379 10.358,0.086 15.241,-1.742 3.831,-1.565 7.369,-4.023 10.709,-6.649 3.384,-3.16 5.999,-7.228 8.149,-11.522 2.857,-5.142 5.063,-10.678 6.696,-16.446 1.325,-4.643 2.896,-9.208 3.268,-14.092 0.379,-3.314 1.019,-6.595 1.234,-9.926 0.11,-2.277 -0.204,-4.538 -0.384,-6.798"
   id="path3-6" />
			<g
   id="g18">
				<defs
   id="defs3" />
				<clipPath
   id="SVGID_00000066482197447788896870000005921760855164217748_">
					<use
   xlink:href="#SVGID_1_"
   style="overflow:visible"
   id="use3" />
				</clipPath>
				<g
   clip-path="url(#SVGID_00000066482197447788896870000005921760855164217748_)"
   id="g17">
					<path
   style="fill:#627eb5"
   d="m 156.725,389.99 c -0.782,-5.949 -4.095,-10.764 -8.53,-15.445 -1.842,-2.017 -3.272,-4.229 -5.316,-6.145 -1.527,-1.488 -2.697,-3.154 -4.209,-4.647 -1.823,-1.85 -3.201,-2.746 -5.077,-4.518 -3.205,-3.276 -7.616,-5.66 -12.251,-7.754 -2.259,-0.943 -4.648,-1.703 -6.997,-2.521 -2.057,-0.362 -4.271,-0.594 -6.402,-0.297 -0.377,0.127 -0.267,-0.099 -0.973,0.115 -0.095,0.029 -0.154,0.086 -0.226,0.135 -4.638,0.111 -9.436,0.612 -13.556,2.241 -4.433,2.039 -7.084,5.824 -7.564,9.555 -0.03,0.243 -0.042,0.381 -0.053,0.482 -0.979,-0.175 -1.942,-0.404 -2.971,-0.401 -8.469,0.164 -15.609,2.179 -22.227,6.198 -2.689,1.923 -5.589,4.072 -5.987,6.93 -0.575,1.823 -0.168,3.647 0.859,5.29 -3.485,0.234 -6.718,1.435 -9.775,2.688 -6.18,2.346 -12.292,5.372 -16.297,9.651 -2.384,3.446 1.913,6.267 6.356,6.528 8.595,0.793 17.367,-0.111 25.996,-0.796 -2.043,2.415 -4.37,5.42 -2.092,8.071 6.891,7.445 25.718,4.621 34.769,0.191 2.032,-0.902 3.898,-1.982 5.777,-3.052 0.313,1.169 1.175,2.217 2.33,3.064 1.336,1.287 3.147,2.181 5.367,2.42 9.018,1.244 20.731,-1.869 27.934,-7.335 0.052,0.448 0.167,0.888 0.439,1.301 0.809,1.474 2.543,2.654 4.662,3.027 2.276,0.502 4.623,0.18 6.829,-0.462 4.097,-1.02 8.086,-2.951 10.348,-5.734 1.822,-2.821 -0.723,-6.72 -1.163,-8.78"
   id="path4-6" />
					<g
   id="g16">
						<g
   id="g9">
							<path
   style="fill:#8ca05c"
   d="m 63.175,468.398 c -0.661,-3.182 -2.087,-7.293 -3.265,-11.01 -0.891,-2.659 -2.01,-5.264 -3.379,-7.743 -1.129,-2.244 -2.586,-4.534 -4.99,-5.795 -1.926,-0.757 -4.384,-0.274 -5.879,1.076 -3.648,3.334 -3.954,8.405 -4.625,12.816 -0.327,3.44 0.63,6.858 0.587,10.311 0.383,4.019 0.673,8.161 1.768,12.051 0.049,0.059 0.106,0.103 0.167,0.134 0.24,0.748 1.418,0.662 1.745,-0.173 0.056,-0.082 0.197,-0.306 0.254,-0.407 0.003,-0.002 0.003,-0.003 0.004,-0.006 0.069,-0.064 0.123,-0.12 0.16,-0.159 0.487,-0.296 1.292,-0.668 1.717,-0.845 0.493,-0.153 0.883,-0.127 1.816,-0.324 0.293,-0.049 0.578,-0.114 0.862,-0.197 1.093,-0.185 2.737,-0.844 3.087,-0.845 2.349,-0.063 4.674,-0.496 7.024,-0.489 1.223,0.023 2.469,0.158 3.68,-0.075 0.039,-0.012 0.047,-0.014 0.065,-0.022 0.32,-0.056 0.628,-0.212 0.724,-0.513 0.22,-2.607 -1.321,-5.888 -1.522,-7.785 m 56.494,2.185 c -0.489,-1.643 -0.974,-4.247 -1.29,-5.651 -0.208,-2.39 -0.472,-4.777 -0.902,-7.142 -0.905,-2.765 -1.987,-5.511 -3.214,-8.167 -0.92,-1.707 -2.429,-3.095 -3.937,-4.378 -1.564,-1.349 -3.552,-2.203 -5.748,-1.965 -2.349,0.115 -4.472,1.354 -6.145,2.803 -3.385,2.654 -4.946,6.647 -6.026,10.485 -1.43,4.572 -2.642,9.199 -3.835,13.827 -0.077,0.659 -0.509,1.378 -0.415,2.031 -0.171,0.129 -0.319,0.28 -0.399,0.474 -0.277,0.577 0.415,1.216 1.058,0.999 0.115,-0.005 0.366,-0.216 0.467,-0.314 0.088,-0.032 0.134,-0.051 0.148,-0.061 1.648,-0.352 4.313,-0.227 6.617,-0.107 2.965,0.272 5.911,-0.01 8.873,-0.09 4.407,0.149 8.841,0.257 13.227,-0.237 0.671,-0.097 1.473,-0.4 1.689,-1.042 0.116,-0.488 -0.063,-0.987 -0.168,-1.465"
   id="path5-6" />
							<path
   style="fill:#677724"
   d="m 89.009,471.2 c -0.822,-7.885 -1.994,-14.653 -3.809,-22.311 -1.043,-3.732 -2.326,-7.44 -4.44,-10.785 -0.755,-1.509 -1.973,-2.787 -3.622,-3.521 -2.214,-0.831 -4.923,-0.424 -6.989,0.621 -2.323,1.647 -3.117,4.436 -4.046,6.864 -2.525,8.75 -2.404,17.333 -2.119,26.871 0.153,2.117 0.136,4.266 0.306,6.377 -0.427,0.403 -0.224,1.188 0.426,1.294 0.174,0.139 0.895,-0.222 1.118,-0.35 1.018,-0.346 1.256,-0.326 2.519,-0.847 0.371,-0.08 4.161,-0.939 4.441,-0.962 2.297,-0.433 3.393,-0.977 5.755,-1.051 2.707,0.169 6.11,0.038 8.08,0.208 2.656,0.578 2.635,-0.268 2.38,-2.408"
   id="path6-61" />
							<path
   style="fill:#e0a955"
   d="m 56.183,476.943 c -0.271,-1.348 -0.562,-2.343 -0.781,-3.409 -0.766,-3.425 -1.829,-7.612 -2.805,-11.561 -0.65,-2.197 -1.419,-4.521 -1.66,-6.391 -0.108,-0.718 -0.565,-1.911 -0.615,-2.148 -0.092,-0.307 0.026,-0.848 -0.777,-0.827 -0.444,0.059 -0.534,0.497 -0.53,0.844 0.06,1.017 0.257,1.218 0.361,2.113 0.248,1.32 0.262,2.657 0.4,3.985 0.496,2.346 1.032,5.01 1.418,7.078 0.487,3.666 0.82,7.352 1.138,11.035 0.032,0.248 -0.027,0.542 0.2,0.723 0.18,0.158 0.434,0.142 0.627,0.033 0.107,0.043 0.233,0.057 0.368,0.026 0.083,-0.013 0.181,-0.052 0.225,-0.071 0.044,-0.019 0.087,-0.037 0.132,-0.052 0.194,-0.069 1.03,-0.215 0.709,-0.165 0.212,-0.166 1.176,0.214 1.591,-0.381 0.19,-0.1 -0.082,-1.264 -10e-4,-0.832"
   id="path7-7" />
							<path
   style="fill:#e0a955"
   d="m 76.864,471.741 c -0.478,-4.406 -0.364,-8.859 -0.859,-13.27 -0.346,-3.087 -1.046,-6.13 -1.371,-9.22 -0.098,-0.801 -0.19,-1.654 -0.227,-2.112 -0.066,-0.352 0.077,-0.818 -0.291,-1.049 -0.342,-0.24 -0.892,0.019 -0.884,0.417 -0.317,6.286 -0.031,13.188 -0.026,20.052 0.066,2.535 0.182,5.094 0.441,7.606 0.116,0.251 0.423,0.291 0.653,0.191 0.531,0.363 0.668,0.044 1.317,0.124 2.116,0.313 1.58,-0.676 1.247,-2.739"
   id="path8-8" />
							<path
   style="fill:#e0a955"
   d="m 104.418,452.491 c -0.042,-0.228 0,-0.533 -0.023,-0.798 0.001,-0.028 0.005,-0.059 0.006,-0.087 h -0.016 c -0.042,-0.264 -0.169,-0.469 -0.558,-0.473 -0.522,0.062 -0.55,0.475 -0.536,0.89 -0.003,0.059 0,0.128 0.007,0.204 0.005,0.133 0.007,0.265 -0.011,0.373 -0.451,4.641 -1.613,10.637 -2.333,15.761 -0.128,1.651 -0.731,3.376 -0.604,4.995 0.064,0.096 0.158,0.16 0.262,0.196 0.114,0.165 0.289,0.293 0.506,0.332 0.111,0.034 0.493,0.064 0.629,0.076 0.763,0.099 1.53,0.114 2.299,0.064 -0.092,-0.024 1.115,0.317 1.252,-0.401 0.041,-2.574 -0.012,-4.739 0.242,-7.023 -0.189,-4.707 -0.692,-9.41 -1.122,-14.109"
   id="path9-2" />
						</g>
						<g
   id="g15">
							<path
   style="fill:#677724"
   d="m 166.347,467.787 c -1.543,0.918 -3.843,1.553 -6.109,2.08 -4.301,1.505 -9.362,1.015 -14.367,1 -8.804,0.418 -17.047,-2.537 -25.995,-4.176 -9.093,-2.09 -17.561,-2.681 -26.611,-2.324 -3.281,0.253 -6.58,0.331 -9.81,1.01 -1.39,0.174 -2.799,0.17 -4.14,0.635 -1.497,0.484 -3.067,0.677 -4.573,1.122 -2.073,0.64 -4.03,1.629 -6.141,2.143 -2.734,0.662 -7.204,0.901 -10.719,1.024 -1.886,0.266 -2.745,0.576 -4.74,0.774 -3.449,-0.051 -7.507,-0.694 -11.357,-1.799 -1.739,-0.565 -2.968,-1.057 -4.974,-1.827 -0.188,-0.097 -0.41,-0.115 -0.61,-0.051 -0.106,0.033 -0.192,0.092 -0.267,0.161 -0.398,0.137 -0.684,0.601 -0.501,1.023 0.037,0.086 0.083,0.168 0.127,0.25 0.008,0.021 0.025,0.054 0.051,0.104 0.353,1.02 0.61,1.783 0.923,2.291 1.907,3.692 5.449,6.089 8.761,8.449 2.904,1.878 6.131,3.177 9.269,4.605 1.753,0.81 3.32,1.995 5.176,2.58 2.862,0.626 5.884,0.593 8.813,0.742 2.78,0.061 5.466,-0.672 8.154,-1.274 3.681,-0.614 7.154,-2.042 10.779,-2.908 2.023,-0.925 4.084,-1.702 6.263,-2.199 3.574,-0.864 6.634,-1.666 9.876,-2.033 3.817,-0.49 7.672,-0.011 11.499,0.105 4.924,-0.085 9.334,0.646 14.528,1.358 6.028,0.791 12.094,1.376 18.175,1.542 3.47,0.013 6.834,-1.219 9.648,-3.184 2.47,-1.343 4.712,-3.073 6.417,-5.314 0.906,-1.049 5.174,-5.8 2.455,-5.909"
   id="path10-96" />
							<g
   id="g14">
								<path
   style="fill:#8ca05c"
   d="m 160.462,472.537 c -0.374,-0.074 -0.724,0.152 -1.084,0.224 -1.11,0.374 -2.237,0.701 -3.39,0.92 -2.825,0.871 -5.239,1.084 -8.445,1.525 -8.251,0.463 -16.226,0.752 -23.837,-1.608 -4.548,-1.232 -8.073,-2.936 -12.671,-4.308 -3.548,-1.116 -7.261,-1.744 -10.974,-2.014 -3.684,-0.295 -7.364,0.403 -11.051,0.452 -4.119,0.712 -8.02,1.629 -12.22,3.086 -1.91,0.525 -3.799,1.168 -5.551,2.106 -1.903,0.724 -3.821,1.412 -5.792,1.946 -2.105,0.634 -4.33,0.767 -6.606,1.038 -1.755,0.277 -3.508,0.434 -5.285,0.326 -1.72,0.065 -3.453,-0.025 -5.1,-0.564 -2.263,-0.788 -4.502,-1.876 -6.434,-3.289 -0.411,-0.412 -1.109,0.291 -0.629,0.689 2.99,2.104 6.513,3.89 10.237,4.07 2.729,0.058 5.428,-0.02 8.125,-0.47 2.247,-0.233 4.199,-0.411 6.319,-1.095 3.2,-0.753 5.971,-2.118 8.965,-3.198 2.788,-0.822 5.768,-1.876 8.22,-2.297 2.566,-0.605 4.542,-1.172 7.164,-1.215 3.354,-0.094 7.982,-0.682 10.692,-0.266 7.396,0.585 13.516,3.428 20.207,5.736 6.508,2.351 12.431,2.581 19.3,2.727 5.52,-0.134 11.069,-0.513 16.397,-2.013 1.103,-0.232 2.168,-0.601 3.246,-0.925 0.286,-0.078 0.584,-0.186 0.721,-0.468 0.239,-0.432 -0.032,-1.014 -0.524,-1.115"
   id="path11-5" />
								<path
   style="fill:#8ca05c"
   d="m 108.448,473.225 c -0.484,-0.274 -0.325,-0.113 -0.787,-0.243 -3.162,-0.611 -5.774,-0.623 -9.113,-0.392 -2.547,-0.005 -5.116,-0.176 -7.629,0.374 -3.025,0.705 -6.062,1.399 -9.039,2.282 -3.209,1.456 -6.552,2.584 -9.834,3.86 -3.336,1.169 -6.483,1.365 -10.162,1.877 -0.753,0.163 -1.663,-0.026 -2.32,0.37 -0.319,0.334 -0.044,0.946 0.434,0.907 4.21,-0.488 8.523,-0.79 12.549,-2.175 2.365,-0.956 4.784,-1.771 7.16,-2.695 1.779,-0.826 3.603,-1.525 5.538,-1.891 4.469,-1.208 8.287,-2.131 13.006,-1.725 3.614,-0.209 5.804,-0.248 9.1,0.395 0.317,0.027 0.645,0.213 0.949,0.047 0.389,-0.152 0.465,-0.726 0.148,-0.991"
   id="path12-94" />
								<path
   style="fill:#8ca05c"
   d="m 95.39,477.027 c -2.218,-0.023 -4.491,0.598 -6.729,0.779 -2.411,0.519 -4.81,1.154 -7.172,1.86 -3.626,1.309 -7.323,2.392 -10.749,4.195 -0.775,0.439 -2.164,0.813 -2.588,1.567 -0.117,0.469 0.458,0.869 0.861,0.589 7.04,-3.838 16.111,-6.658 24.159,-7.569 0.775,-0.179 1.724,-0.018 2.395,-0.451 0.274,-0.288 0.18,-0.792 -0.177,-0.97"
   id="path13-3" />
								<path
   style="fill:#8ca05c"
   d="m 153.429,478.371 c -0.404,-0.199 -0.815,0.093 -1.218,0.155 -0.029,0.005 -0.044,0.009 -0.064,0.013 -1.743,0.18 -3.474,0.535 -5.232,0.542 -2.242,-0.03 -4.478,0.352 -6.717,0.171 -3.564,-0.4 -8.396,-0.775 -12.602,-1.759 -3.989,-0.757 -8.051,-1.504 -12.131,-1.571 -0.277,0.008 -0.592,-0.057 -0.792,0.177 -0.319,0.333 -0.041,0.934 0.428,0.896 6.861,-0.027 13.936,2.295 21.141,2.874 1.383,0.097 3.351,0.433 5.145,0.483 1.773,-0.035 3.541,-0.201 5.316,-0.191 1.386,0.009 2.765,-0.11 4.145,-0.237 0.839,-0.032 1.685,-0.066 2.486,-0.345 0.539,-0.16 0.609,-0.966 0.095,-1.208"
   id="path14-7" />
							</g>
						</g>
					</g>
				</g>
			</g>
		</g>
		<g
   id="g23">
			<path
   style="fill:#bbd7ff"
   d="m 45.782,436.885 c -1.413,-0.31 -2.345,0.06 -3.686,0.461 -1.507,0.624 -3.319,2.353 -3.925,3.377 -1.329,1.55 -1.363,3.583 -1.515,5.511 -0.305,3.8 0.225,7.616 0.718,11.381 0.146,1.499 -0.63,2.77 -1.504,3.843 -0.335,0.491 -0.747,0.876 -1.204,1.233 -0.219,0.272 0.165,0.679 0.459,0.468 1.619,-1.254 3.249,-3.676 2.935,-5.789 -0.408,-2.998 -0.666,-6.017 -0.724,-9.04 0.068,-1.772 0.138,-3.649 0.62,-5.603 0.602,-1.287 1.815,-2.885 3.336,-3.895 1.196,-0.911 2.881,-1.148 3.752,-1.156 1.138,0.066 1.688,1.011 1.836,1.939 0.094,1.608 0.019,2.165 -1.113,3.232 -0.996,1.072 -1.88,1.548 -3.059,1.786 -0.323,-0.031 -0.493,-0.156 -0.537,-0.503 -0.168,-0.816 0.164,-0.805 0.113,-1.333 -0.486,-0.792 -1.056,0.104 -1.027,0.835 -0.033,2.216 1.558,2.107 3.15,1.359 1.221,-0.601 2.379,-1.759 3.071,-2.919 0.741,-1.781 0.386,-4.509 -1.696,-5.187"
   id="path19-8" />
			<path
   style="fill:#bbd7ff"
   d="m 39.959,431.978 c -0.241,0.021 -0.408,0.23 -0.612,0.339 -2.68,1.396 -4.227,3.438 -5.287,6.159 -1.752,4.036 -1.707,8.541 -0.991,12.807 0.152,0.611 0.082,1.331 0.378,1.878 0.238,0.225 0.669,0.028 0.643,-0.303 -0.818,-4.518 -1.151,-9.509 0.451,-13.344 1.122,-2.929 2.384,-4.906 4.995,-6.307 0.296,-0.21 0.745,-0.34 0.873,-0.702 0.066,-0.271 -0.17,-0.545 -0.45,-0.527"
   id="path20-2" />
			<path
   style="fill:#bbd7ff"
   d="m 150.113,423.002 c -0.576,-0.752 -1.484,-1.245 -2.384,-1.509 -0.844,-0.034 -1.524,0.67 -2.016,1.276 -1.115,1.646 -1.559,3.192 -1.811,5.237 -0.119,0.869 -0.186,1.806 0.286,2.589 1.181,1.346 2.38,1.032 3.41,-0.69 0.263,-0.479 0.341,-1.026 0.412,-1.561 0.013,-0.217 0.109,-0.455 -0.023,-0.651 -0.43,-0.493 -0.883,0.004 -0.839,0.521 -0.067,1.521 -1.279,2.61 -1.688,2.294 -0.399,-0.359 -0.535,-0.256 -0.671,-0.818 -0.332,-1.339 0.622,-5.04 1.526,-6.221 0.433,-0.725 1.358,-1.177 1.281,-1.109 0.433,0.145 1.203,0.485 1.63,0.909 1.287,1.59 1.57,3.317 1.398,5.341 -0.199,2.689 -0.646,5.354 -1.399,7.946 -1.597,5.145 -2.95,10.406 -5.606,15.145 -0.863,1.441 -1.628,2.941 -2.595,4.316 -0.212,0.383 0.418,0.738 0.626,0.323 3.303,-4.852 5.577,-10.28 7.128,-15.908 1.131,-3.481 2.188,-7.015 2.494,-10.677 0.359,-2.322 0.255,-4.774 -1.159,-6.753"
   id="path21-8" />
			<path
   style="fill:#bbd7ff"
   d="m 140.957,432.935 c -0.159,-0.375 -0.776,-0.224 -0.74,0.186 0.562,3.787 0.773,7.336 0.241,10.93 -0.077,1.155 -0.393,3.102 -0.991,2.64 -0.416,-0.176 -0.378,-1.047 -0.31,-1.839 0.018,-0.537 0.65,-1.083 1.242,-1.578 0.12,-0.148 0.081,-0.375 -0.056,-0.499 -0.293,-0.263 -0.588,0.06 -0.818,0.245 -0.446,0.362 -0.872,0.804 -1.046,1.361 -0.152,0.846 -0.318,1.885 0.21,2.629 0.767,0.953 1.9,0.47 2.135,-0.629 0.61,-2.534 0.817,-5.803 0.708,-8.415 -0.17,-1.677 -0.31,-3.374 -0.575,-5.031"
   id="path22-8" />
			<path
   style="fill:#bbd7ff"
   d="m 155.014,422.636 c -0.18,-0.782 -0.103,-1.686 -0.437,-2.401 -0.248,-0.229 -0.691,-0.031 -0.664,0.311 0.351,2.476 0.793,4.965 0.755,7.471 -0.375,2.769 -1.087,5.483 -1.597,8.228 -0.272,2.141 -1.224,4.109 -1.801,6.174 -1.423,5.25 -3.335,10.275 -6.321,15.023 -0.276,0.543 -0.777,1 -0.947,1.575 0.006,0.271 0.345,0.448 0.572,0.289 0.285,-0.294 0.446,-0.698 0.693,-1.026 3.053,-4.834 5.168,-10.222 6.647,-15.72 0.583,-2.087 1.539,-4.08 1.825,-6.242 0.532,-2.716 1.252,-5.402 1.66,-8.14 0.12,-1.855 -0.19,-3.702 -0.385,-5.542"
   id="path23-7" />
		</g>
		<g
   id="g65">
			<path
   style="fill:#3c5987"
   d="m 57.327,429.772 c -0.223,-0.326 -0.8,-0.208 -0.864,0.178 -0.525,1.588 -0.886,2.689 -1.423,4.114 -0.232,0.41 0.284,0.895 0.696,0.613 0.338,-0.215 0.959,-2.582 1.473,-3.961 0.065,-0.307 0.331,-0.648 0.118,-0.944"
   id="path24-6" />
			<path
   style="fill:#3c5987"
   d="m 65.77,426.75 c -0.376,1.114 -0.913,3.103 -1.162,3.793 -0.059,0.23 -0.236,0.462 -0.144,0.704 0.096,0.271 0.47,0.378 0.712,0.21 0.42,-0.522 0.47,-1.279 0.716,-1.893 0.23,-0.942 0.639,-1.885 0.79,-2.827 -0.077,-0.465 -0.837,-0.449 -0.912,0.013"
   id="path25-0" />
			<path
   style="fill:#3c5987"
   d="m 62.217,438.541 c -0.23,-0.331 -0.82,-0.212 -0.886,0.184 -0.542,1.906 -0.986,3.427 -1.651,5.069 -0.723,0.633 0.331,1.39 0.91,0.413 0.606,-1.485 1.062,-3.024 1.499,-4.56 0.052,-0.361 0.35,-0.761 0.128,-1.106"
   id="path26-4" />
			<path
   style="fill:#3c5987"
   d="m 75.836,427.135 c -0.21,-0.308 -0.753,-0.194 -0.813,0.17 -0.319,1.107 -0.825,2.212 -0.996,3.339 0.053,0.339 0.554,0.449 0.775,0.185 0.39,-0.945 0.603,-1.971 0.964,-2.932 0.065,-0.248 0.254,-0.525 0.07,-0.762"
   id="path27-9" />
			<path
   style="fill:#3c5987"
   d="m 71.169,436.575 c -0.509,1.525 -1.127,3.314 -1.51,4.344 -0.136,0.253 0.04,0.577 0.331,0.626 0.22,0.041 0.46,-0.089 0.524,-0.292 0.539,-1.435 1.017,-2.891 1.507,-4.342 0.345,-0.606 -0.667,-1.02 -0.852,-0.336"
   id="path28-1" />
			<path
   style="fill:#3c5987"
   d="m 83.941,428.322 c -0.368,1.214 -0.751,2.424 -1.132,3.634 -0.059,0.256 0.181,0.504 0.454,0.479 0.25,-0.015 0.378,-0.229 0.421,-0.442 0.387,-1.167 0.756,-2.343 1.12,-3.52 0.113,-0.526 -0.762,-0.684 -0.863,-0.151"
   id="path29-2" />
			<path
   style="fill:#3c5987"
   d="m 79.375,439.09 c -0.722,2.487 -1.922,4.907 -2.65,7.586 0.122,0.353 0.683,0.38 0.84,0.038 0.917,-2.526 2.003,-5.058 2.67,-7.637 -0.072,-0.437 -0.789,-0.424 -0.86,0.013"
   id="path30-2" />
			<path
   style="fill:#3c5987"
   d="m 92.834,429.336 c -0.19,0.952 -0.505,1.874 -0.792,2.802 -0.059,0.258 0.182,0.506 0.455,0.481 0.393,-0.091 0.345,-0.258 0.417,-0.424 0.282,-0.944 0.72,-1.895 0.801,-2.871 -0.074,-0.45 -0.809,-0.434 -0.881,0.012"
   id="path31-2" />
			<path
   style="fill:#3c5987"
   d="m 89.805,438.541 c -0.237,-0.347 -0.849,-0.222 -0.916,0.189 -0.589,1.831 -1.465,4.089 -2.205,6.241 -0.032,0.235 0.169,0.453 0.407,0.497 0.81,0.076 0.853,-1.43 1.185,-1.964 0.521,-1.459 1.052,-2.917 1.543,-4.386 0.076,-0.188 0.125,-0.405 -0.014,-0.577"
   id="path32-4" />
			<path
   style="fill:#3c5987"
   d="m 71.089,446 c -0.73,1.694 -1.337,3.432 -1.975,5.158 -0.181,0.328 0.195,0.721 0.557,0.582 0.872,-1.134 1.438,-3.887 2.231,-5.371 0.259,-0.494 -0.566,-0.873 -0.813,-0.369"
   id="path33-6" />
			<path
   style="fill:#3c5987"
   d="m 63.69,447.82 c -0.473,1.372 -0.956,2.739 -1.441,4.107 -0.207,0.378 0.301,0.785 0.663,0.532 0.72,-1.369 1.102,-2.973 1.634,-4.433 0.053,-0.453 -0.664,-0.622 -0.856,-0.206"
   id="path34-0" />
			<path
   style="fill:#3c5987"
   d="m 52.962,442.088 c -0.481,1.415 -1.048,3 -1.749,4.611 -0.141,0.418 -0.791,1.151 -0.075,1.365 0.288,0.057 0.468,-0.183 0.548,-0.41 0.8,-1.668 1.412,-3.407 2.009,-5.146 0.393,-0.591 -0.476,-1.112 -0.733,-0.42"
   id="path35-2" />
			<path
   style="fill:#3c5987"
   d="m 54.902,450.906 c -0.795,1.809 -1.472,3.665 -2.345,5.441 -0.123,0.522 -1.109,1.464 -0.247,1.751 0.382,0.071 0.527,-0.3 0.656,-0.567 0.812,-1.605 1.487,-3.264 2.17,-4.919 0.155,-0.556 0.629,-1.097 0.586,-1.671 -0.119,-0.342 -0.665,-0.368 -0.82,-0.035"
   id="path36-3" />
			<path
   style="fill:#3c5987"
   d="m 72.878,453.723 c -0.82,1.634 -1.839,4.021 -2.352,5.346 -0.111,0.121 -0.143,0.316 -0.051,0.454 0.497,0.643 0.942,-0.195 1.065,-0.653 0.638,-1.68 1.469,-3.302 2.171,-4.946 0.052,-0.444 -0.646,-0.608 -0.833,-0.201"
   id="path37-9" />
			<path
   style="fill:#3c5987"
   d="m 82.54,449.895 c -0.637,1.935 -1.198,3.498 -1.954,5.536 -0.013,0.036 -0.019,0.056 -0.022,0.067 0.004,-0.017 0.018,-0.052 0.028,-0.082 -0.053,0.106 -0.061,0.232 -0.018,0.339 0.079,0.223 0.361,0.346 0.59,0.262 0.209,-0.069 0.285,-0.268 0.352,-0.449 0.696,-1.821 1.33,-3.662 1.943,-5.509 0.122,-0.563 -0.812,-0.733 -0.919,-0.164"
   id="path38-8" />
			<path
   style="fill:#3c5987"
   d="m 85.677,455.334 c -0.003,0.01 -0.004,0.012 0,0"
   id="path39-6" />
			<path
   style="fill:#3c5987"
   d="m 102.031,429.149 c -0.321,1.023 -0.631,2.05 -0.942,3.074 -0.087,0.367 0.391,0.659 0.708,0.435 0.318,-0.318 0.314,-0.833 0.491,-1.229 0.189,-0.765 0.574,-1.523 0.656,-2.293 -0.078,-0.465 -0.84,-0.448 -0.913,0.013"
   id="path40-8" />
			<path
   style="fill:#3c5987"
   d="m 96.28,438.207 c -0.49,1.76 -1.274,4.351 -1.698,5.673 -0.194,0.223 -0.058,1.013 0.64,0.683 0.938,-1.923 1.326,-4.145 1.998,-6.186 0.123,-0.577 -0.83,-0.751 -0.94,-0.17"
   id="path41-6" />
			<path
   style="fill:#3c5987"
   d="m 95.373,451.386 c -0.44,1.934 -1.231,4.259 -1.734,5.779 -0.033,0.096 0.006,-0.018 0.019,-0.052 -0.053,0.103 -0.059,0.227 -0.018,0.338 0.094,0.262 0.456,0.367 0.692,0.205 0.929,-1.846 1.42,-4.102 1.972,-6.104 0.123,-0.57 -0.823,-0.741 -0.931,-0.166"
   id="path42-9" />
			<path
   style="fill:#3c5987"
   d="m 103.284,448.585 c -0.346,1.705 -0.792,3.995 -1.26,5.234 -0.205,0.64 -0.877,1.674 0.261,1.592 0.203,-0.07 0.299,-0.257 0.368,-0.439 0.818,-1.995 1.161,-4.125 1.587,-6.218 0.127,-0.585 -0.846,-0.762 -0.956,-0.169"
   id="path43-7" />
			<path
   style="fill:#3c5987"
   d="m 105.352,438.842 c -0.207,0.979 -0.584,1.955 -0.7,2.936 0.023,0.164 0.178,0.294 0.345,0.323 0.232,0.041 0.474,-0.112 0.515,-0.336 0.254,-0.919 0.497,-1.84 0.741,-2.761 0.12,-0.554 -0.797,-0.717 -0.901,-0.162"
   id="path44-2" />
			<path
   style="fill:#3c5987"
   d="m 111.582,428.067 c -0.192,1.227 -0.569,2.448 -0.718,3.67 0.056,0.353 0.579,0.466 0.811,0.19 0.4,-1.234 0.647,-2.592 0.825,-3.875 -0.078,-0.465 -0.844,-0.45 -0.918,0.015"
   id="path45-6" />
			<path
   style="fill:#3c5987"
   d="m 121.869,425.481 c -0.21,-0.306 -0.751,-0.194 -0.811,0.168 -0.424,1.332 -0.813,2.674 -1.188,4.02 -0.022,0.111 0.005,0.229 0.073,0.321 0.207,0.302 0.742,0.191 0.802,-0.166 0.303,-1.018 0.582,-2.039 0.898,-3.053 0.062,-0.418 0.446,-0.883 0.226,-1.29"
   id="path46-8" />
			<path
   style="fill:#3c5987"
   d="m 117.762,438.469 c -0.273,-0.397 -0.978,-0.253 -1.057,0.217 -0.132,1.723 -0.416,3.431 -0.701,5.135 -0.018,0.249 -0.135,0.503 -0.081,0.749 0.055,0.368 0.566,0.546 0.873,0.325 0.544,-0.685 0.455,-2.032 0.688,-2.897 0.073,-1.077 0.539,-2.52 0.278,-3.529"
   id="path47-8" />
			<path
   style="fill:#3c5987"
   d="m 115.136,452.849 c -0.246,-0.356 -0.88,-0.228 -0.951,0.198 -0.077,1.04 -0.176,2.081 -0.341,3.113 -0.108,0.328 -0.069,0.77 0.358,0.839 0.463,0.08 0.64,-0.368 0.684,-0.724 0.12,-0.64 0.162,-1.29 0.242,-1.934 -0.004,-0.486 0.224,-1.04 0.008,-1.492"
   id="path48-9" />
			<path
   style="fill:#3c5987"
   d="m 129.961,452.81 c -0.251,-0.365 -0.9,-0.233 -0.972,0.201 -0.152,1.776 -0.235,3.56 -0.464,5.33 -0.028,0.507 -0.399,1.458 0.453,1.461 0.229,-0.016 0.434,-0.191 0.475,-0.407 0.262,-1.677 0.38,-3.365 0.507,-5.056 -0.022,-0.5 0.225,-1.066 0.001,-1.529"
   id="path49-8" />
			<path
   style="fill:#3c5987"
   d="m 126.48,438.955 c -0.209,-0.304 -0.748,-0.192 -0.807,0.168 -0.092,1.075 -0.233,2.145 -0.419,3.208 -0.031,0.161 0.042,0.347 0.195,0.427 0.656,0.328 0.732,-0.525 0.785,-0.947 0.089,-0.572 0.172,-1.145 0.236,-1.719 -0.008,-0.372 0.194,-0.794 0.01,-1.137"
   id="path50-8" />
			<path
   style="fill:#3c5987"
   d="m 129.523,426.627 c -0.223,-0.324 -0.797,-0.206 -0.861,0.178 -0.104,1.592 -0.334,3.173 -0.567,4.753 -0.064,0.274 0.194,0.539 0.486,0.513 0.216,-0.016 0.402,-0.192 0.42,-0.399 0.212,-1.303 0.42,-2.611 0.535,-3.928 -0.013,-0.367 0.179,-0.782 -0.013,-1.117"
   id="path51-1" />
			<path
   style="fill:#3c5987"
   d="m 132.861,444.059 c -0.159,1.252 -0.184,2.513 -0.281,3.768 -0.056,0.255 0.136,0.525 0.406,0.566 0.395,0.07 0.654,-0.281 0.613,-0.627 0.086,-1.082 0.114,-2.165 0.241,-3.242 0.287,-0.759 -0.665,-1.27 -0.979,-0.465"
   id="path52-6" />
			<path
   style="fill:#3c5987"
   d="m 138.433,456.985 c -0.319,-0.273 -0.871,-0.004 -0.823,0.403 0.012,1.276 0.043,2.551 0.059,3.825 0.014,0.175 0.146,0.345 0.327,0.389 0.321,0.12 0.674,-0.176 0.623,-0.495 0.005,-0.875 -0.001,-1.754 -0.01,-2.63 -0.074,-0.481 0.178,-1.101 -0.176,-1.492"
   id="path53-8" />
			<path
   style="fill:#3c5987"
   d="m 135.837,426.039 c -0.219,-0.318 -0.784,-0.204 -0.846,0.174 -0.188,2.329 -0.315,4.664 -0.583,6.986 0.049,0.598 -0.689,2.097 0.289,2.136 0.574,-0.069 0.432,-0.744 0.53,-1.143 0.26,-1.974 0.422,-3.961 0.543,-5.945 -0.024,-0.725 0.267,-1.519 0.067,-2.208"
   id="path54-0" />
			<path
   style="fill:#3c5987"
   d="m 113.061,458.833 c -0.426,1.672 -0.856,3.939 -1.303,5.205 -0.204,0.373 0.296,0.773 0.651,0.525 0.187,-0.14 0.243,-0.379 0.314,-0.582 0.421,-1.659 0.813,-3.327 1.202,-4.994 0.115,-0.528 -0.764,-0.687 -0.864,-0.154"
   id="path55-4" />
			<path
   style="fill:#3c5987"
   d="m 121.778,462.23 c -0.017,1 -0.399,2.081 -0.197,3.047 1.249,1.071 0.979,-2.139 1.188,-2.871 0.132,-0.609 -0.877,-0.788 -0.991,-0.176"
   id="path56-8" />
			<path
   style="fill:#3c5987"
   d="m 132.046,462.536 c -0.264,-0.382 -0.944,-0.244 -1.019,0.212 -0.102,1.49 -0.233,3.766 -0.281,4.379 -0.161,0.389 0.025,0.889 0.527,0.853 0.307,-0.018 0.49,-0.283 0.529,-0.551 0.149,-1.138 0.169,-2.289 0.265,-3.433 -0.026,-0.477 0.207,-1.018 -0.021,-1.46"
   id="path57-4" />
			<path
   style="fill:#3c5987"
   d="m 104.129,459.451 c -0.2,1.193 -0.316,2.399 -0.537,3.589 -0.055,0.244 0.13,0.503 0.389,0.544 0.438,0.074 0.609,-0.342 0.626,-0.686 0.196,-1.088 0.308,-2.186 0.499,-3.273 0.129,-0.599 -0.865,-0.777 -0.977,-0.174"
   id="path58-4" />
			<path
   style="fill:#3c5987"
   d="m 56.024,462.702 c -0.326,1.287 -0.622,2.583 -0.924,3.875 -0.063,0.282 0.199,0.555 0.499,0.527 0.204,-0.015 0.387,-0.171 0.423,-0.363 0.305,-1.293 0.603,-2.586 0.933,-3.874 0.122,-0.569 -0.823,-0.738 -0.931,-0.165"
   id="path59-2" />
			<path
   style="fill:#3c5987"
   d="m 65.192,457.24 c -0.374,1.91 -0.665,3.834 -1.063,5.742 -0.028,0.285 -0.177,0.577 -0.137,0.86 0.049,0.32 0.491,0.474 0.759,0.284 0.255,-0.182 0.238,-0.519 0.314,-0.785 0.405,-1.892 0.7,-3.801 1.071,-5.696 0.317,-0.699 -0.693,-1.167 -0.944,-0.405"
   id="path60-9" />
			<path
   style="fill:#3c5987"
   d="m 83.171,459.7 c -0.287,-0.246 -0.791,-0.077 -0.851,0.288 -0.431,1.234 -0.838,2.476 -1.234,3.721 -0.037,0.183 0.048,0.396 0.223,0.487 0.529,0.273 0.788,-0.239 0.806,-0.434 0.298,-0.89 0.717,-2.103 0.824,-2.422 0.083,-0.521 0.691,-1.179 0.232,-1.64"
   id="path61-6" />
			<path
   style="fill:#3c5987"
   d="m 46.469,450.982 c -0.268,1.912 -0.608,3.816 -0.996,5.709 -0.119,0.361 0.348,0.683 0.671,0.454 0.727,-1.859 0.794,-4.033 1.177,-6.011 0.113,-0.521 -0.753,-0.677 -0.852,-0.152"
   id="path62-45" />
			<path
   style="fill:#3c5987"
   d="m 47.874,463.521 c -0.452,1.815 -1.007,3.605 -1.487,5.413 -0.104,0.359 0.231,0.723 0.616,0.686 0.255,-0.017 0.482,-0.214 0.528,-0.452 0.482,-1.819 1.039,-3.618 1.492,-5.443 0.152,-0.704 -1.015,-0.914 -1.149,-0.204"
   id="path63-5" />
			<path
   style="fill:#3c5987"
   d="m 93.156,458.181 c -0.43,1.73 -0.921,3.446 -1.323,5.184 -0.125,0.416 0.418,0.769 0.782,0.51 0.682,-1.423 1.021,-3.882 1.543,-5.516 0.133,-0.615 -0.886,-0.798 -1.002,-0.178"
   id="path64-4" />
			<path
   style="fill:#3c5987"
   d="m 90.445,447.815 c -0.511,1.738 -0.901,3.505 -1.295,5.27 -0.123,0.41 0.412,0.76 0.771,0.504 0.76,-1.727 0.859,-3.786 1.512,-5.597 0.13,-0.608 -0.874,-0.789 -0.988,-0.177"
   id="path65-7" />
		</g>
		<g
   id="g101">
			<g
   id="g91">
				<g
   id="g72">
					<path
   style="fill:#3c5987"
   d="m 142.399,406.808 c -0.916,-4.724 -5.931,-7.261 -10.204,-8.732 -0.167,-0.06 -0.321,-0.133 -0.439,-0.188 0.029,-0.022 0.057,-0.048 0.076,-0.067 1.58,-1.246 3.849,-2.584 3.985,-4.743 -0.648,-2.834 -2.929,-5.203 -5.384,-6.758 -2.209,-1.222 -4.772,-1.72 -7.255,-2.091 -1.488,-0.06 -3.896,-0.033 -5.016,-0.085 0.002,-0.017 10e-4,-0.026 0.003,-0.04 0.077,-0.781 0.8,-2.323 0.95,-3.674 0.498,-1.881 -0.364,-3.566 -1.642,-4.961 -0.735,-0.732 -1.365,-1.593 -2.255,-2.154 -1.578,-0.966 -3.52,-1.147 -5.324,-0.878 -1.384,0.284 -2.673,0.863 -3.978,1.394 1.324,-2.02 0.776,-4.776 -1.147,-6.425 -1.975,-1.584 -4.392,-2.68 -6.729,-3.664 -3.218,-0.716 -6.863,0.435 -9.135,2.711 -0.076,0.087 -0.146,0.182 -0.221,0.272 -2.308,-0.182 -4.762,-0.052 -6.864,0.198 -5.168,0.743 -9.168,5.585 -9.211,10.6 -0.274,-0.117 -0.602,-0.246 -1.046,-0.399 -5.747,-1.932 -18.518,2.317 -21.599,7.393 -1.034,1.537 -1.922,3.44 -1.683,5.286 -4.844,-1.354 -12.44,1.848 -16.128,4.528 -4.094,3.129 -7.869,9.516 -6.382,14.658 1.659,4.529 7.105,6.632 11.743,5.901 2.449,-0.285 4.925,-0.625 7.305,-1.251 0.66,-0.293 1.31,-0.604 1.957,-0.926 -1.393,5.514 4.418,9.244 9.836,9.389 1.772,0.001 3.425,-0.775 5.113,-1.207 2.709,-0.971 6.515,-2.443 8.564,-3.77 3.606,12.493 17.175,9.355 25.185,2.853 0.815,-0.732 1.632,-1.464 2.452,-2.192 0.038,0.056 0.079,0.114 0.121,0.171 1.132,1.844 2.592,3.628 4.685,4.475 3.024,1.167 6.959,1.267 9.375,0.199 4.205,-1.267 9.809,-3.713 9.575,-8.743 -0.001,-0.027 -0.004,-0.053 -0.004,-0.08 0.406,0.24 0.813,0.48 1.22,0.725 2.635,1.87 6.119,1.498 9.195,1.315 5.145,-0.434 11.05,-3.163 10.306,-9.04"
   id="path66-0" />
					<g
   id="g71">
						<path
   style="fill:#627eb5"
   d="m 38.265,406.736 c -0.523,-0.232 -1.146,0.114 -1.688,0.185 -0.796,0.22 -1.237,0.467 -1.792,0.418 -0.829,-0.011 -2.007,-1.139 -2.117,-1.792 -0.673,-1.471 1.442,-3.475 2.478,-4.8 0.226,-0.302 0.64,-0.508 0.727,-0.887 0.048,-0.372 -0.438,-0.627 -0.721,-0.377 -0.905,0.873 -1.688,1.852 -2.433,2.859 -0.569,0.81 -1.212,1.712 -1.121,2.751 0.16,1.585 1.446,2.972 3.038,3.216 0.829,0.106 1.738,-0.333 2.165,-0.425 0.502,-0.195 1.182,-0.073 1.581,-0.452 0.16,-0.213 0.104,-0.543 -0.117,-0.696"
   id="path67-5" />
						<path
   style="fill:#627eb5"
   d="m 63.019,383.301 c -1.343,0.227 -2.596,0.78 -3.84,1.309 -0.788,0.332 -1.605,0.779 -1.968,1.589 -0.358,0.72 -0.71,1.523 -0.581,2.344 0.278,1.334 1.169,2.701 2.637,2.862 0.389,0.014 0.794,0.12 1.176,0.043 0.345,-0.082 0.472,-0.551 0.24,-0.809 -0.357,-0.337 -0.939,-0.145 -1.391,-0.258 -0.702,-0.067 -1.367,-0.911 -1.634,-1.813 -0.158,-0.649 -0.008,-0.937 0.379,-1.862 0.325,-1.037 3.202,-1.978 4.713,-2.395 0.251,-0.073 0.568,-0.049 0.736,-0.28 0.246,-0.32 -0.066,-0.816 -0.467,-0.73"
   id="path68-7" />
						<path
   style="fill:#627eb5"
   d="m 54.356,402.153 c -0.316,0.002 -0.6,0.189 -0.9,0.269 -0.051,0.016 -0.125,0.042 -0.184,0.06 -1.465,0.491 -3.291,0.317 -4.054,-0.055 -1.302,-0.824 -1.923,-2.229 -1.371,-3.539 0.543,-1.269 2.095,-2.786 3.208,-3.506 0.813,-0.217 0.713,-1.278 -0.151,-1.05 -0.965,0.436 -1.699,1.209 -2.412,1.967 -0.978,0.957 -1.836,2.119 -1.888,3.533 0.163,3.478 3.459,4.527 6.463,3.82 0.563,-0.23 1.406,-0.225 1.748,-0.768 0.133,-0.324 -0.111,-0.702 -0.459,-0.731"
   id="path69-6" />
						<path
   style="fill:#627eb5"
   d="m 61.592,413.363 c -0.5,0.046 -0.904,0.467 -1.398,0.591 -1.031,0.429 -1.92,0.916 -2.424,0.847 -1.009,0.029 -1.696,-0.806 -1.944,-1.496 0.214,-0.769 1.35,-3.465 2.484,-4.657 0.715,-0.491 0.063,-1.48 -0.579,-0.84 -1.164,1.181 -1.831,2.73 -2.529,4.206 -0.206,0.528 -0.539,1.113 -0.339,1.685 0.453,1.241 1.652,2.251 3.026,2.181 1.013,-0.018 1.892,-0.598 2.817,-0.943 0.463,-0.221 1.092,-0.358 1.36,-0.823 0.133,-0.334 -0.116,-0.723 -0.474,-0.751"
   id="path70-4" />
						<path
   style="fill:#627eb5"
   d="m 86.484,417.658 c -0.145,-0.177 -0.416,-0.235 -0.623,-0.138 -0.571,0.266 -1.119,0.572 -1.659,0.89 -1.297,0.842 -4.016,1.041 -4.355,0.609 -0.306,-0.313 -0.181,-2.638 0.208,-3.597 0.457,-0.762 -0.364,-1.469 -0.846,-0.692 -0.47,1.52 -0.941,3.374 -0.203,4.873 0.399,0.552 1.157,0.635 1.792,0.688 1.011,-0.063 2.04,-0.218 3.009,-0.522 0.867,-0.365 1.629,-0.938 2.498,-1.309 0.306,-0.132 0.396,-0.548 0.179,-0.802"
   id="path71-3" />
					</g>
				</g>
				<g
   id="g90">
					<path
   style="fill:#bbd7ff"
   d="m 74.619,387.509 c 0.234,-0.076 0.591,-0.1 1.016,-0.1 m 97.705,17.359 c -1.818,-2.509 -4.097,-4.961 -6.972,-6.498 -0.281,-0.16 -0.569,-0.303 -0.855,-0.451 -0.045,-0.542 0.577,-0.93 1.604,-1.84 2.269,-1.988 3.1,-5.115 2.41,-7.967 -1.381,-3.206 -4.351,-5.743 -7.25,-7.898 -2.322,-1.485 -5.184,-2.181 -7.879,-2.79 -1.256,-0.237 -3.464,-0.381 -4.115,-0.564 -0.016,-0.005 -0.021,-0.009 -0.035,-0.013 -0.53,-0.809 0.938,-3.426 1.14,-5.598 0.415,-2.543 -0.609,-5.228 -2.534,-7.186 -1.198,-0.974 -2.731,-1.626 -4.213,-2.137 -1.662,-0.618 -4.139,-0.712 -5.406,-0.711 0.01,-0.035 0.036,-0.108 0.105,-0.374 0.443,-1.218 0.81,-3.984 0.132,-5.817 -0.463,-0.971 -1.18,-1.853 -1.911,-2.679 -1.585,-1.764 -4.054,-2.432 -6.397,-2.775 -1.839,-0.18 -3.655,0.445 -5.168,1.283 -1.078,0.749 -2.797,2.013 -3.102,2.942 -2.221,-0.631 -4.579,-0.957 -6.836,-0.845 -1.476,0.332 -2.574,1.363 -3.795,2.111 -2.692,2.028 -6.644,4.805 -4.854,8.499 0.058,0.11 0.13,0.214 0.196,0.318 -0.431,0.039 -0.858,0.1 -1.284,0.164 -2.176,0.259 -4.131,1.14 -5.895,2.244 -2.165,1.22 -4.292,2.584 -6.03,4.28 -1.496,1.525 -2.331,3.779 -1.402,5.817 0.156,0.453 0.388,0.88 0.676,1.275 -0.091,0.005 -0.181,0.014 -0.28,0.014 -0.156,0.021 -0.315,0.035 -0.473,0.054 -1.327,-0.483 -2.7,-0.817 -4.082,-1.07 -0.967,-0.109 -3.751,-1.322 -6.274,1.469 -1.644,1.317 -1.813,4.3 -2.012,6.361 -0.849,0.662 -1.742,1.275 -2.726,1.779 -0.008,0.007 -0.019,0.011 -0.03,0.019 -0.107,-0.017 -0.206,-0.036 -0.292,-0.057 -2.1,-0.364 -4.256,0.036 -5.968,1.445 -1.678,1.336 -3.288,2.903 -4.285,4.889 -1.967,3.32 -1.268,4.899 0.565,7.998 1.166,1.924 2.192,3.022 3.94,4.498 0.696,0.778 1.925,1.727 3.283,2.315 1.955,1.004 3.859,2.164 6.024,2.592 4.05,0.646 7.718,0.906 11.818,0.089 2.608,-0.44 5.095,0.085 7.912,0.988 3.562,0.996 8.12,3.06 12.111,4.629 3.529,1.117 7.135,2.004 10.768,2.664 2.842,0.376 5.136,0.167 7.713,0.236 2.382,-0.118 4.746,-0.609 7.099,-1.031 1.59,-0.343 2.559,-0.768 3.864,-0.625 2.348,0.099 4.593,0.885 6.921,1.136 3.217,0.396 6.016,0.736 9.373,-0.348 1.055,-0.37 2.123,-0.748 3.174,-1.169 0.446,-0.064 0.889,-0.132 1.329,-0.207 2.627,-0.446 5.302,-1.065 7.548,-2.362 3.387,-1.783 4.599,-5.843 2.65,-9.096"
   id="path72-53" />
					<g
   id="g89">
						<path
   style="fill:#bbd7ff"
   d="m 86.631,377.643 c -0.01,0.001 -0.022,-10e-4 -0.033,0 -0.002,0.002 -0.005,0.006 -0.008,0.007 -0.065,0.102 -0.204,0.264 0.041,-0.007"
   id="path73-73" />
						<path
   style="fill:#627eb5"
   d="m 78.198,394.7 c 0.315,-0.205 0.742,-0.199 1.017,-0.469 0.334,-0.354 0.01,-1.019 -0.44,-0.906 -1.941,0.76 -6.451,3.193 -5.231,6.036 0.379,0.893 1.086,1.502 1.874,1.923 0.46,0.31 0.772,0.468 1.549,0.488 0.196,-0.046 0.5,0.273 0.983,0.125 0.302,-0.15 0.396,-0.609 0.186,-0.883 -0.311,-0.314 -0.809,-0.315 -1.209,-0.39 -0.876,0.015 -2.521,-1.109 -2.585,-2.247 -0.131,-1.087 2.007,-2.64 3.856,-3.677"
   id="path74-2" />
						<path
   style="fill:#627eb5"
   d="m 96.779,383.004 c -2.178,-0.635 -5.297,-0.214 -6.554,2.148 -0.735,2.047 0.999,3.31 2.391,4.163 0.58,0.243 0.596,0.612 1.21,0.474 0.286,-0.142 0.374,-0.576 0.175,-0.835 -0.214,-0.225 -0.525,-0.308 -0.776,-0.479 -0.361,-0.179 -1.311,-0.842 -1.897,-1.418 -0.054,-0.055 -0.107,-0.109 -0.151,-0.175 -0.01,-0.017 -0.006,-0.012 -0.012,-0.021 -0.007,-0.015 -0.005,-0.012 -0.021,-0.038 -0.508,-1.125 0.09,-2.12 1.608,-2.717 0.623,-0.257 2.639,-0.591 3.171,-0.354 0.29,0.038 0.59,0.252 0.878,0.129 0.338,-0.163 0.325,-0.748 -0.022,-0.877"
   id="path75-8" />
						<path
   style="fill:#627eb5"
   d="m 115.624,370.026 c -2.043,-0.349 -4.449,-0.89 -6.304,0.475 -1.103,0.868 -1.992,2.132 -2.497,3.515 -0.267,1.18 0.01,2.465 0.69,3.401 0.747,0.823 1.741,1.387 2.75,1.724 0.257,0.117 0.597,0.244 0.807,-0.047 0.543,-0.79 -0.545,-1.057 -1.039,-1.232 -0.362,-0.143 -1.499,-0.897 -1.594,-1.033 -1.396,-1.715 -0.523,-3.522 1.08,-5.18 1.277,-1.316 3.21,-1.053 5.395,-0.731 0.314,0.022 0.677,0.252 0.957,0 0.313,-0.27 0.151,-0.873 -0.245,-0.892"
   id="path76-30" />
						<path
   style="fill:#627eb5"
   d="m 129.445,359.506 c -1.132,-0.597 -2.214,-1.374 -3.46,-1.663 -1.011,-0.238 -2.086,-0.109 -3.067,0.268 -0.484,0.159 -0.938,0.503 -1.045,1.081 -0.232,1.857 -0.266,4.232 0.63,5.853 0.326,0.373 0.916,-0.107 0.707,-0.569 -0.76,-1.35 -0.616,-4.745 -0.43,-5.193 0.58,-0.518 2.462,-0.716 3.289,-0.37 1.146,0.343 2.115,1.226 3.221,1.611 0.502,0.002 0.63,-0.846 0.155,-1.018"
   id="path77-86" />
						<path
   style="fill:#627eb5"
   d="m 137.988,370.582 c -2.733,-0.347 -6.01,0.43 -7.54,3.237 -0.72,1.75 0.023,3.829 1.559,4.628 1.148,0.828 2.515,1.091 3.767,1.652 0.261,0.183 0.641,0.257 0.862,-0.047 0.659,-1.015 -0.863,-1.311 -1.48,-1.504 -1.335,-0.427 -2.22,-0.754 -3.168,-1.51 -1.793,-1.551 -0.641,-4.186 2.189,-5.176 0.867,-0.289 2.495,-0.521 3.722,-0.322 0.558,0.066 0.652,-0.916 0.089,-0.958"
   id="path78-6" />
						<path
   style="fill:#627eb5"
   d="m 119.581,388.61 c 1.05,-0.636 2.146,-0.714 3.479,-1.059 0.411,-0.254 0.153,-0.998 -0.304,-0.884 -1.34,0.258 -2.874,0.424 -3.961,1.415 -2.014,2.626 -0.639,4.203 1.684,5.46 1.58,0.555 1.459,-1.154 0.422,-0.957 -0.957,-0.34 -2.267,-1.663 -2.215,-2.141 0.043,-0.675 0.702,-1.733 0.895,-1.834"
   id="path79-9" />
						<path
   style="fill:#627eb5"
   d="m 108.201,395.239 c -0.204,-0.159 -0.47,-0.054 -0.702,-0.11 -2.287,-0.279 -3.31,-1.762 -2.232,-3.327 1.023,-1.127 2.159,-1.539 3.552,-2.304 0.333,-0.354 -0.079,-0.985 -0.489,-0.751 -1.487,0.712 -3.275,1.453 -4.1,3.097 -0.958,2.389 0.819,3.908 2.792,4.221 0.383,0.058 0.851,0.223 1.199,-0.025 0.231,-0.205 0.216,-0.619 -0.02,-0.801"
   id="path80-7" />
						<path
   style="fill:#627eb5"
   d="m 96.061,404.027 c -0.164,-0.225 -0.441,-0.204 -0.679,-0.25 -0.059,-0.008 -0.183,-0.037 -0.267,-0.057 -3.89,-1.129 -2.98,-3.429 0.036,-6.037 0.454,-0.524 0.816,-0.438 1.299,-1.093 0.165,-0.431 -0.276,-0.888 -0.656,-0.672 -1.584,1.142 -3.622,2.778 -4.198,4.836 -0.503,2.416 1.814,3.878 3.668,4.146 0.547,0.222 1.185,-0.235 0.797,-0.873"
   id="path81-1" />
						<path
   style="fill:#627eb5"
   d="m 122.381,400.942 c -2.49,0.56 -7.704,2.376 -7.699,5.799 0.372,2.246 2.714,3.355 4.599,3.456 0.438,-0.044 0.959,0.123 1.353,-0.134 0.245,-0.217 0.231,-0.662 -0.021,-0.857 -0.36,-0.213 -0.818,-0.024 -1.213,-0.076 -1.761,-0.035 -3.617,-1.142 -3.794,-2.604 -0.072,-0.473 0.538,-1.483 1.503,-2.22 1.307,-1 3.36,-1.934 5.08,-2.288 0.222,-0.07 0.494,-0.062 0.638,-0.291 0.242,-0.348 -0.057,-0.878 -0.446,-0.785"
   id="path82-9" />
						<path
   style="fill:#627eb5"
   d="m 138.235,395.885 c -0.573,-0.237 -0.575,0.005 -1.101,-0.067 -3.092,0.082 -4.033,-1.991 -1.951,-4.067 1.11,-1.19 2.143,-2.331 3.294,-2.961 0.53,-0.266 0.152,-1.179 -0.371,-0.893 -1.253,0.689 -2.263,1.785 -3.263,2.852 -0.738,0.789 -1.508,1.692 -1.676,2.854 -0.235,2.476 2.316,3.444 4.165,3.329 0.531,-0.051 0.524,0.067 0.869,-0.114 0.311,-0.187 0.318,-0.723 0.034,-0.933"
   id="path83-3" />
						<path
   style="fill:#627eb5"
   d="m 160.141,389.972 c -0.559,-0.275 -0.585,0.036 -1.256,0.139 -1.973,0.338 -4.029,0.676 -5.346,-0.62 -0.324,-0.352 -0.669,-0.902 -0.318,-1.661 0.556,-1.375 1.707,-2.622 3.071,-3.789 0.456,-0.404 -0.123,-1.182 -0.568,-0.757 -6.429,5.285 -3.351,9.4 3.608,7.962 0.316,-0.103 0.718,-0.087 0.934,-0.403 0.182,-0.27 0.122,-0.684 -0.125,-0.871"
   id="path84-7" />
						<path
   style="fill:#627eb5"
   d="m 161.462,404.908 c -0.591,-0.306 -1.306,0.129 -1.922,0.233 -0.878,0.282 -2.255,0.811 -2.872,0.859 -0.845,-0.053 -1.561,-0.727 -1.71,-1.77 0.062,-1.175 0.363,-3.139 1.147,-4.691 0.224,-0.609 -0.646,-0.968 -0.854,-0.35 -0.762,1.564 -1.135,3.399 -1.226,5.152 0.134,1.309 1.013,2.509 2.188,2.81 1.444,0.28 2.849,-0.636 4.261,-0.902 0.313,-0.087 0.669,-0.054 0.95,-0.236 0.365,-0.223 0.376,-0.857 0.038,-1.105"
   id="path85-1" />
						<path
   style="fill:#627eb5"
   d="m 139.719,410.909 c -0.506,-0.198 -0.48,-0.041 -1.26,-0.033 -0.701,0.023 -2.275,0.331 -2.686,0.224 -0.782,-0.319 -1.37,-0.781 -1.41,-1.51 -0.063,-1.057 0.899,-3.311 1.667,-4.569 0.343,-0.51 -0.384,-1.084 -0.714,-0.561 -0.891,1.626 -1.928,3.477 -1.831,5.427 0.122,1.041 0.977,1.695 1.778,2.105 1.215,0.378 2.975,-0.178 3.552,-0.126 0.286,-0.041 0.614,0.046 0.873,-0.113 0.282,-0.17 0.289,-0.656 0.031,-0.844"
   id="path86-2" />
						<path
   style="fill:#627eb5"
   d="m 146.417,400.998 c -0.085,-0.081 -0.537,-0.131 -0.667,-0.137 -0.559,-0.166 -1.078,-0.606 -1.186,-0.948 -0.138,-0.485 0.573,-2.894 1.251,-3.873 0.187,-0.349 0.609,-0.628 0.577,-1.064 -0.05,-0.401 -0.567,-0.529 -0.776,-0.185 -1.017,1.396 -2.997,5.121 -1.162,6.411 0.528,0.429 1.333,0.882 1.981,0.552 0.217,-0.19 0.205,-0.583 -0.018,-0.756"
   id="path87-3" />
						<path
   style="fill:#627eb5"
   d="m 153.185,412.356 c -1.035,0.766 -1.954,1.323 -2.447,0.904 -0.014,-0.017 -0.027,-0.034 -0.036,-0.048 -0.181,-0.276 -0.001,-1.953 0.103,-2.266 0.039,-0.376 0.325,-0.758 0.202,-1.133 -0.139,-0.363 -0.659,-0.34 -0.779,0.041 -0.32,1.248 -0.81,2.841 -0.151,4.015 0.777,1.083 2.699,0.003 3.067,-0.395 0.21,-0.168 0.513,-0.245 0.618,-0.525 0.147,-0.38 -0.243,-0.781 -0.577,-0.593"
   id="path88-57" />
						<path
   style="fill:#627eb5"
   d="m 170.043,409.12 c -0.037,-0.277 -0.299,-0.477 -0.549,-0.421 -0.392,0.133 -0.557,0.635 -0.821,0.951 -1.288,2.425 -3.485,2.147 -5.07,0.567 -0.487,-0.396 -1.054,0.471 -0.556,0.853 1.146,1.32 4.215,2.269 5.723,0.116 0.372,-0.476 0.701,-0.995 1.058,-1.489 0.13,-0.162 0.256,-0.35 0.215,-0.577"
   id="path89-02" />
					</g>
				</g>
			</g>
			<g
   id="g100">
				<path
   style="fill:#bbd7ff"
   d="m 105.809,346.91 c -0.866,-0.651 -1.827,-1.301 -2.879,-1.618 0.346,-0.412 0.586,-0.902 0.65,-1.47 0.553,-3.015 -2.223,-4.968 -4.86,-5.619 -1.471,-0.291 -2.274,-0.266 -3.885,-0.253 -1.932,0.043 -3.723,1.133 -4.931,2.581 -0.184,0.247 -0.279,0.325 -0.391,0.406 -0.015,-0.099 -0.062,-0.189 -0.154,-0.263 -0.873,-0.731 -2.007,-0.949 -3.111,-1.08 -1.557,-0.164 -3.193,-0.168 -4.657,0.44 -1.933,0.803 -2.62,3.017 -2.359,4.956 -0.033,-0.014 -0.065,-0.029 -0.1,-0.042 -1.076,-0.458 -2.269,-0.326 -3.407,-0.313 -1.427,0.109 -2.896,0.121 -4.248,0.618 -2.812,0.688 -6.819,2.664 -6.41,6.06 0.022,0.23 0.066,0.452 0.128,0.671 -0.225,-0.013 -0.447,-0.021 -0.665,-0.026 -2.453,0.038 -4.033,0.555 -6.297,1.174 -2.585,0.799 -5.142,1.975 -6.799,4.18 -2.412,3.363 -2.439,7.529 2.336,8.567 3.44,0.575 6.977,-0.655 9.939,-2.318 0.541,-0.303 0.951,-0.651 1.303,-0.988 0.696,1.978 2.995,3.643 4.944,3.798 2.817,0.038 5.309,-2.095 7.525,-3.651 0.152,0.568 0.283,1.155 0.652,1.632 0.812,1.123 1.985,2.037 3.335,2.416 2.593,0.408 4.995,-1.3 6.779,-2.982 0.578,-0.596 0.924,-1.35 1.186,-2.129 1.014,1.369 2.67,1.891 4.528,1.252 2.687,-0.745 6.341,-1.889 6.911,-4.986 0.094,-1.094 -0.119,-2.103 -0.66,-2.964 0.431,0.024 0.862,0.016 1.29,-0.043 1.627,-0.288 3.254,-0.94 4.429,-2.12 0.721,-0.841 1.251,-1.912 1.508,-2.984 0.057,-1.185 -0.697,-2.235 -1.63,-2.902"
   id="path91-6" />
				<g
   id="g99">
					<path
   style="fill:#627eb5"
   d="m 57.77,360.883 c -0.59,0.256 -2.137,0.279 -2.157,0.11 -0.695,-0.401 -0.424,-1.328 0.076,-1.711 0.835,-0.736 1.567,-1.345 2.348,-1.728 0.359,-0.285 -0.015,-0.893 -0.441,-0.719 -0.84,0.364 -1.51,0.988 -2.203,1.568 -0.389,0.339 -0.821,0.694 -0.962,1.217 -0.305,0.872 0.121,1.935 1.035,2.241 0.691,0.21 1.442,0.069 2.14,-0.051 0.319,-0.1 0.763,-0.118 0.947,-0.428 0.208,-0.497 -0.397,-0.747 -0.783,-0.499"
   id="path92-0" />
					<path
   style="fill:#627eb5"
   d="m 75.876,347.322 c -1.224,0.117 -2.383,0.489 -3.512,0.954 -0.796,0.31 -1.558,0.768 -1.991,1.522 -0.484,0.642 -0.221,1.569 0.46,1.964 0.62,0.42 1.395,0.447 2.121,0.447 0.137,-0.01 1.073,0.104 1.587,-0.082 0.507,-0.26 0.148,-0.986 -0.378,-0.858 -2.361,0.188 -4.431,-0.324 -2.008,-1.871 0.839,-0.416 2.613,-1.074 3.813,-1.149 0.601,-0.045 0.513,-0.989 -0.092,-0.927"
   id="path93-7" />
					<path
   style="fill:#627eb5"
   d="m 72.222,360.922 c -0.277,-0.124 -0.546,0.068 -0.812,0.135 -0.056,0.027 -0.273,0.078 -0.376,0.103 -1.929,0.517 -2.544,-0.608 -1.84,-1.598 0.781,-0.882 1.889,-1.487 3.134,-1.953 0.54,-0.186 0.225,-1.033 -0.313,-0.828 -1.481,0.61 -3.3,1.378 -3.921,2.957 -0.604,2.257 1.811,2.883 3.539,2.223 0.231,-0.09 0.506,-0.131 0.7,-0.284 0.253,-0.196 0.176,-0.63 -0.111,-0.755"
   id="path94-3" />
					<path
   style="fill:#627eb5"
   d="m 87.493,358.762 c -1.172,0.371 -3.341,1.328 -3.735,1.55 -0.62,0.034 -0.718,-0.007 -0.978,-0.754 -0.138,-0.616 -0.206,-0.995 0.105,-1.595 0.615,-1.073 1.79,-2.406 2.95,-3.122 0.449,-0.298 -0.044,-0.998 -0.483,-0.683 -1.144,0.7 -2.048,1.732 -2.847,2.789 -0.762,0.932 -0.901,2.217 -0.394,3.308 0.997,2.03 3.133,0.162 4.604,-0.296 0.481,-0.261 1.18,-0.246 1.527,-0.678 0.208,-0.472 -0.368,-0.781 -0.749,-0.519"
   id="path95-7" />
					<path
   style="fill:#627eb5"
   d="m 89.644,344.784 c -1.162,-0.393 -2.416,-0.424 -3.63,-0.373 -0.829,0.052 -1.73,0.199 -2.339,0.809 -1.509,1.679 0.399,3.093 2.116,3.229 0.5,0.02 1.049,0.364 1.523,0.168 0.528,-0.515 -0.158,-0.827 -0.646,-0.856 -1.237,-0.229 -2.189,-0.349 -2.596,-0.993 -0.235,-0.318 0.003,-1.072 0.826,-1.322 1.303,-0.332 2.985,-0.326 4.6,0.164 0.54,0.106 0.689,-0.738 0.146,-0.826"
   id="path96-1" />
					<path
   style="fill:#627eb5"
   d="m 98.669,349.94 c -0.903,0.188 -1.566,0.435 -2.136,0.147 -1.827,-0.754 -0.291,-1.666 1.224,-3.23 0.298,-0.277 0.506,-0.483 0.92,-0.769 0.151,-0.11 0.351,-0.2 0.379,-0.403 0.069,-0.335 -0.349,-0.602 -0.626,-0.396 -1.083,0.751 -2.006,1.719 -2.903,2.677 -0.435,0.486 -0.891,1.187 -0.54,1.84 0.685,1.186 2.278,1.467 3.49,0.994 0.528,-0.041 0.781,-0.68 0.192,-0.86"
   id="path97-84" />
					<path
   style="fill:#627eb5"
   d="m 96.369,358.765 c -0.63,0.202 -0.794,0.317 -1.037,0.248 -0.269,0.025 -0.295,-0.952 0.009,-1.787 0.093,-0.276 0.352,-0.549 0.253,-0.85 -0.116,-0.344 -0.64,-0.37 -0.785,-0.036 -0.933,1.761 -0.841,4.458 1.85,3.201 0.508,-0.178 0.213,-0.965 -0.29,-0.776"
   id="path98-7" />
					<path
   style="fill:#627eb5"
   d="m 97.766,340.329 c -1.089,-0.138 -2.176,0.077 -3.216,0.391 -0.567,0.179 -1.213,0.487 -1.344,1.125 -0.159,0.436 -0.116,1.004 0.277,1.306 0.406,0.292 0.934,-0.263 0.635,-0.653 -0.024,-0.042 -0.039,-0.065 -0.048,-0.081 -0.004,-0.013 -0.014,-0.034 -0.023,-0.064 0.016,-0.092 0.048,-0.219 0.068,-0.292 0.01,-0.034 0.026,-0.067 0.043,-0.101 0.331,-0.403 2.243,-0.786 2.952,-0.753 0.278,-0.006 0.595,0.118 0.844,-0.044 0.336,-0.216 0.211,-0.778 -0.188,-0.834"
   id="path99-68" />
				</g>
			</g>
		</g>
	</g></g></svg>
