<?xml version="1.0" encoding="UTF-8" standalone="no"?>
<!-- Created with Inkscape (http://www.inkscape.org/) -->

<svg
   width="36.48243mm"
   height="35.429718mm"
   viewBox="0 0 36.48243 35.429718"
   version="1.1"
   id="svg1"
   xmlns="http://www.w3.org/2000/svg"
   xmlns:svg="http://www.w3.org/2000/svg">
  <defs
     id="defs1" />
  <g
     id="layer1"
     transform="translate(-77.549288,-40.215648)">
    <g
       id="g1">
      <path
         style="fill:#899bbc;fill-opacity:1;stroke-width:0.302204"
         d="m 84.007277,42.311402 c 5.642568,-2.860048 17.184663,-2.830986 23.247153,0.322491 6.06248,3.153476 6.57511,8.426963 6.75558,13.867106 0.18047,5.440142 -0.71158,11.052547 -4.66931,15.909546 -3.95773,4.856998 -19.856109,3.669315 -25.929502,0.214994 -6.073395,-3.454323 -5.824163,-12.415183 -5.861457,-19.134458 -0.02296,-4.13619 0.814973,-8.319631 6.457536,-11.179679 z"
         id="path1-8" />
      <path
         style="fill:#8ccfb7;fill-opacity:1;stroke-width:0.264583"
         d="m 84.957896,43.971819 c 5.138792,-2.407218 15.650404,-2.382757 21.171624,0.271431 5.52122,2.654188 5.98808,7.092725 6.15244,11.671532 0.16436,4.578807 -0.64805,9.302602 -4.25243,13.390594 -3.60438,4.087992 -18.083335,3.088355 -23.614495,0.180954 -5.53116,-2.907401 -5.304179,-10.449491 -5.338144,-16.104906 -0.02091,-3.481309 0.742213,-7.002387 5.881005,-9.409605 z"
         id="path1" />
      <path
         style="fill:#b2eacf;fill-opacity:1;stroke-width:0.248193"
         d="m 85.072757,43.569913 c 5.05483,-2.153403 15.394693,-2.131521 20.825703,0.242813 5.43101,2.374332 5.89024,6.344875 6.05192,10.440897 0.16167,4.096022 -0.63747,8.321745 -4.18295,11.978703 -3.5455,3.656958 -17.787875,2.762722 -23.228664,0.161875 -5.440787,-2.600849 -5.217514,-9.347707 -5.250925,-14.406821 -0.02057,-3.114243 0.730086,-6.264064 5.784916,-8.417467 z"
         id="path1-0" />
    </g>
  </g>
</svg>
