<?xml version="1.0" encoding="UTF-8" standalone="no"?>
<!-- Created with Inkscape (http://www.inkscape.org/) -->

<svg
   width="31.576721mm"
   height="31.391365mm"
   viewBox="0 0 31.576721 31.391365"
   version="1.1"
   id="svg1"
   xml:space="preserve"
   xmlns="http://www.w3.org/2000/svg"
   xmlns:svg="http://www.w3.org/2000/svg"><defs
     id="defs1" /><g
     id="layer1"
     transform="translate(-403.19008,-333.56047)"><g
       id="g68"
       transform="matrix(0.26458333,0,0,0.26458333,309.30796,245.33635)">
		<path
   style="fill:#ff7f06"
   d="m 398.407,428.231 c -0.034,0 -0.066,-0.007 -0.096,-0.02 -3.574,-1.681 -7.005,-3.554 -10.199,-5.567 -0.094,-0.061 -0.129,-0.181 -0.082,-0.282 5.97,-13.224 14.103,-26.744 25.591,-42.553 9.045,-12.446 19.85,-26.503 33.633,-35.792 0.038,-0.024 0.082,-0.039 0.127,-0.039 0.042,0 0.084,0.014 0.12,0.037 5.832,3.788 10.779,8.329 14.701,13.498 4.856,6.397 7.623,12.072 8.228,16.868 0.002,0.03 -0.001,0.076 -0.01,0.103 0.013,0.338 0.033,0.74 0.068,1.143 -0.107,4.06 -3.17,7.948 -5.827,10.889 -3.72,4.117 -8.216,7.418 -11.716,9.833 -6.884,4.75 -14.76,8.869 -24.783,12.964 -1.194,0.487 -2.409,0.97 -3.637,1.457 -10.005,3.972 -20.351,8.08 -25.927,17.352 -0.042,0.071 -0.115,0.109 -0.191,0.109 z"
   id="path49-0" />
		<path
   style="fill:#ff7f06"
   d="m 384.753,420.332 c -0.047,0 -0.093,-0.013 -0.131,-0.041 -3.34,-2.394 -6.47,-4.964 -9.3,-7.639 -0.063,-0.06 -0.086,-0.151 -0.059,-0.234 3.291,-9.799 4,-19.98 4.685,-29.823 0.078,-1.127 0.148,-2.262 0.218,-3.398 0.267,-4.368 0.544,-8.885 1.363,-13.216 0.719,-3.789 1.983,-7.73 3.864,-12.052 2.02,-4.642 4.527,-8.721 7.45,-12.12 1.632,-1.896 3.509,-3.563 5.58,-4.955 2.052,-1.379 3.82,-1.728 6.488,-2.139 2.833,-0.436 5.753,-0.658 8.682,-0.658 10.218,0 20.575,2.64 29.951,7.634 0.066,0.035 0.11,0.102 0.118,0.176 0.006,0.074 -0.022,0.148 -0.081,0.195 -11.508,9.494 -22.533,21.438 -33.704,36.513 -10.46,14.117 -18.844,28.121 -24.923,41.626 -0.025,0.062 -0.079,0.107 -0.145,0.125 -0.018,0.004 -0.038,0.006 -0.056,0.006 z"
   id="path50-9" />
		<path
   style="fill:#ff7f06"
   d="m 372.525,409.731 c -0.062,0 -0.122,-0.025 -0.164,-0.07 -4.539,-4.919 -14.974,-17.922 -13.851,-32.413 0.105,-0.587 0.184,-1.158 0.259,-1.712 0.111,-0.81 0.216,-1.576 0.38,-2.226 0.01,-0.036 0.011,-0.07 0.006,-0.101 -0.006,-0.03 -0.005,-0.061 0.003,-0.093 0.255,-1.066 0.555,-2.057 0.915,-3.023 5.204,-14.001 17.134,-25.924 31.908,-31.894 0.026,-0.012 0.056,-0.016 0.085,-0.016 0.076,0 0.15,0.039 0.191,0.109 0.057,0.095 0.036,0.217 -0.05,0.287 -3.554,2.924 -6.333,7.31 -8.583,11.213 -3.343,5.799 -4.68,12.738 -5.67,18.789 -1.076,6.577 -1.551,13.346 -2.012,19.892 l -0.084,1.214 c -0.465,6.621 -0.946,13.467 -3.122,19.892 -0.024,0.073 -0.086,0.13 -0.165,0.147 -0.014,0.003 -0.029,0.005 -0.046,0.005 z"
   id="path51-4" />
		<path
   style="fill:#ff7f06"
   d="m 364.813,418.041 c -0.87,0 -1.782,-0.215 -2.715,-0.636 -0.689,-0.314 -1.298,-0.768 -1.854,-1.384 -0.136,-0.198 -0.651,-0.93 -0.651,-0.93 -0.021,-0.03 -0.046,-0.055 -0.077,-0.073 -0.032,-0.019 -0.057,-0.045 -0.076,-0.075 -1.131,-1.833 -1.655,-4.196 -2.12,-6.28 -0.103,-0.463 -0.2,-0.912 -0.304,-1.333 -1.726,-7.133 -2.019,-14.77 -0.87,-22.699 0.015,-0.109 0.11,-0.191 0.222,-0.191 0.001,0 0.002,0 0.003,0 0.112,0.002 0.207,0.087 0.22,0.199 1.121,9.637 6.061,19.085 14.683,28.079 0.067,0.068 0.082,0.176 0.035,0.262 -1.827,3.356 -4.012,5.061 -6.496,5.061 z"
   id="path52-5" />
		<path
   style="fill:#ff7f06"
   d="m 378.29,438.7 c -0.84,0 -2.305,-1.229 -3.763,-2.56 -0.153,-0.139 -0.274,-0.252 -0.359,-0.323 -4.91,-4.243 -8.996,-9.346 -12.145,-15.167 -0.048,-0.09 -0.029,-0.202 0.048,-0.273 0.041,-0.038 0.095,-0.057 0.149,-0.057 0.044,0 0.088,0.012 0.126,0.038 1.31,0.88 2.624,1.327 3.907,1.327 0.792,0 1.594,-0.17 2.387,-0.502 1.953,-0.819 3.669,-2.623 5.247,-5.517 0.035,-0.06 0.094,-0.102 0.161,-0.113 0.012,-0.002 0.024,-0.002 0.037,-0.002 0.056,0 0.11,0.021 0.151,0.059 2.838,2.614 5.955,5.136 9.264,7.498 0.085,0.06 0.117,0.172 0.076,0.269 -1.473,3.573 -2.616,6.798 -3.497,9.861 -0.466,1.622 -0.844,3.255 -1.122,4.854 -0.066,0.387 -0.31,0.608 -0.667,0.608 z"
   id="path53-6" />
		<path
   style="fill:#ff7f06"
   d="m 405.304,450.501 c -6.394,-1.099 -12.589,-3.143 -18.416,-6.076 -0.221,-0.111 -0.459,-0.225 -0.704,-0.342 -1.298,-0.617 -2.768,-1.314 -3.452,-2.478 -0.864,-1.472 -0.301,-3.443 0.152,-5.027 0.085,-0.291 0.165,-0.574 0.233,-0.841 0.978,-3.796 2.402,-7.438 3.535,-10.186 0.024,-0.061 0.076,-0.108 0.139,-0.13 0.023,-0.006 0.046,-0.01 0.069,-0.01 0.041,0 0.082,0.011 0.119,0.033 3.135,1.976 6.502,3.813 10.014,5.461 0.105,0.05 0.155,0.172 0.114,0.281 -1.626,4.387 -1.431,8.478 0.576,12.16 1.82,3.339 5.104,5.354 7.762,6.736 0.098,0.051 0.145,0.165 0.109,0.27 -0.032,0.093 -0.118,0.152 -0.214,0.152 -0.009,0 -0.023,0 -0.036,-0.003 z"
   id="path54-2" />
		<path
   style="fill:#ff7f06"
   d="m 415.69,451.393 c -3.088,0 -6.226,-1.119 -9.598,-3.416 -5.173,-3.526 -7.259,-9.351 -5.442,-15.201 0.018,-0.059 0.061,-0.109 0.117,-0.136 0.029,-0.015 0.064,-0.021 0.096,-0.021 0.028,0 0.058,0.005 0.086,0.017 7.509,3.06 19.087,6.709 31.602,6.709 10.004,0 18.755,-2.341 26.014,-6.955 0.037,-0.024 0.079,-0.035 0.121,-0.035 0.064,0 0.129,0.026 0.172,0.079 0.071,0.088 0.067,0.214 -0.009,0.298 -8.418,9.054 -19.883,15.331 -32.28,17.678 -3.16,0.598 -6.547,0.91 -10.662,0.982 z"
   id="path55-5" />
		<path
   style="fill:#ef521b"
   d="m 408.222,450.924 c -0.033,0 -0.065,-0.008 -0.095,-0.022 -3.358,-1.566 -7.149,-3.542 -9.66,-7.145 -2.398,-3.442 -2.678,-8.003 -0.785,-12.837 l 0.229,-0.044 -0.221,-0.06 0.091,-0.25 -0.161,0.16 c -3.87,-1.815 -7.528,-3.814 -10.899,-5.965 -0.039,-0.026 -0.075,-0.038 -0.109,-0.038 -0.103,0 -0.187,0.115 -0.2,0.223 -1.896,4.585 -3.188,8.409 -4.08,12.089 -0.235,0.965 -0.449,1.991 -0.432,2.945 0.002,0.089 -0.052,0.174 -0.135,0.21 -0.029,0.011 -0.059,0.017 -0.089,0.017 -0.059,0 -0.115,-0.021 -0.158,-0.063 -0.705,-0.694 -1.42,-1.113 -2.123,-1.246 -0.064,-0.013 -0.12,-0.054 -0.152,-0.11 -0.034,-0.056 -0.039,-0.125 -0.017,-0.185 0.14,-0.402 0.257,-0.926 0.389,-1.589 0.992,-4.983 2.845,-9.795 4.524,-13.845 0.032,-0.074 0.032,-0.137 -0.069,-0.188 -0.03,-0.016 -0.069,-0.05 -0.089,-0.076 -3.52,-2.487 -6.845,-5.187 -9.854,-7.996 -0.03,-0.027 -0.063,-0.044 -0.115,-0.054 l -0.091,-0.017 c -0.044,0 -0.099,0.012 -0.145,0.1 -1.255,2.419 -2.636,4.104 -4.344,5.302 -0.962,0.674 -1.996,1.015 -3.075,1.016 -1.674,0 -3.472,-0.835 -5.199,-2.413 -0.055,-0.049 -0.081,-0.123 -0.07,-0.199 0.044,-0.286 0.044,-0.553 0,-0.798 -0.016,-0.087 0.022,-0.175 0.097,-0.225 0.037,-0.025 0.08,-0.037 0.125,-0.037 0.041,0 0.083,0.011 0.119,0.034 0.839,0.532 1.799,0.845 2.853,0.927 0.175,0.014 0.344,0.022 0.51,0.022 2.772,0 5.081,-1.846 7.058,-5.64 0.02,-0.035 0.027,-0.067 0.028,-0.102 0.008,-0.08 -0.012,-0.133 -0.06,-0.183 -9.784,-10.118 -14.839,-20.73 -15.023,-31.539 -0.001,-0.067 0.028,-0.13 0.077,-0.175 0.292,-0.254 0.548,-0.571 0.76,-0.941 0.041,-0.072 0.116,-0.115 0.195,-0.115 0.017,0 0.033,0.002 0.054,0.007 0.097,0.023 0.167,0.11 0.17,0.21 0.121,2.875 0.639,5.945 1.538,9.127 2.03,7.178 6.395,14.35 12.971,21.317 0.044,0.046 0.087,0.068 0.135,0.068 0.106,0 0.222,-0.109 0.235,-0.227 0.004,-0.039 0.02,-0.076 0.044,-0.107 2.096,-5.86 2.684,-11.844 3.148,-17.976 0.1,-1.339 0.196,-2.678 0.295,-4.018 0.402,-5.602 0.821,-11.394 1.594,-17.064 0.841,-6.143 2.101,-13.256 5.072,-19.43 1.411,-2.928 3.335,-5.617 4.854,-7.632 2.077,-2.756 4.363,-5.576 7.456,-7.137 0.03,-0.017 0.065,-0.024 0.1,-0.024 0.01,0 0.022,0 0.032,0.003 0.249,0.035 0.496,0.053 0.737,0.053 0.129,0 0.256,-0.006 0.383,-0.015 0.006,0 0.011,0 0.018,0 0.09,0 0.173,0.055 0.208,0.141 0.034,0.092 0.009,0.196 -0.067,0.258 -0.481,0.389 -0.943,0.785 -1.382,1.16 -3.118,2.665 -5.929,6.382 -8.598,11.362 -1.997,3.727 -3.646,7.906 -4.899,12.419 -1.152,4.146 -1.509,8.486 -1.853,12.686 l -0.066,0.8 c -0.188,2.27 -0.344,4.546 -0.502,6.822 -0.628,9.054 -1.277,18.414 -3.923,27.32 -0.258,0.866 -0.545,1.725 -0.838,2.582 0.002,0.003 0.004,0.123 0.005,0.126 0.018,0.018 0.077,0.1 0.089,0.122 2.979,2.823 6.356,5.588 9.999,8.17 0.037,0.027 0.071,0.04 0.101,0.04 0.101,-0.021 0.142,-0.035 0.175,-0.11 5.983,-13.395 14.065,-26.976 24.708,-41.517 11.106,-15.177 22.278,-27.312 34.156,-37.1 0.04,-0.033 0.092,-0.051 0.144,-0.051 0.01,0 0.021,10e-4 0.031,0.003 0.064,0.009 0.119,0.044 0.154,0.097 0.467,0.697 1.133,1.176 1.927,1.385 0.084,0.023 0.148,0.093 0.163,0.179 0.015,0.086 -0.021,0.173 -0.094,0.223 -12.878,8.912 -23.138,22.04 -31.743,33.646 -12.136,16.367 -20.741,30.574 -27.076,44.709 l -0.232,0.025 0.21,0.084 c -0.009,0.14 0.051,0.191 0.099,0.221 3.393,2.163 7.054,4.162 10.88,5.939 l 0.169,0.03 c 0.068,0 0.119,-0.031 0.159,-0.1 3.725,-6.426 9.341,-9.84 14.854,-12.571 4.842,-2.399 9.932,-4.469 14.855,-6.469 1.763,-0.718 3.525,-1.435 5.28,-2.167 7.55,-3.151 15.074,-7.477 22.363,-12.854 4.255,-3.141 7.61,-6.219 10.259,-9.413 2.222,-2.683 3.597,-5.102 4.206,-7.396 0.022,-0.092 0.102,-0.157 0.195,-0.167 0.008,-10e-4 0.015,-10e-4 0.02,-10e-4 0.086,0 0.167,0.052 0.205,0.131 0.213,0.466 0.513,0.866 0.895,1.191 0.063,0.055 0.091,0.141 0.072,0.223 -2,8.336 -9.272,14.333 -16.832,19.572 -7.073,4.903 -14.737,8.681 -21.303,11.73 -4.052,1.882 -8.232,3.651 -12.275,5.362 -1.841,0.776 -3.68,1.556 -5.515,2.346 -6.832,2.945 -11.577,6.714 -14.501,11.518 -0.005,0.005 -0.05,0.073 -0.052,0.078 -0.071,0.113 -0.056,0.199 0.031,0.273 0.003,0.002 0.109,0.073 0.121,0.081 10.717,4.418 21.538,6.754 31.288,6.754 7.975,0 15.294,-1.535 21.757,-4.561 2.428,-1.136 4.639,-2.457 6.572,-3.925 0.039,-0.03 0.087,-0.045 0.135,-0.045 0.049,0 0.099,0.016 0.141,0.048 0.08,0.064 0.106,0.174 0.064,0.269 -0.167,0.376 -0.282,0.774 -0.346,1.186 -0.009,0.057 -0.037,0.109 -0.085,0.145 -7.663,5.894 -17.269,8.881 -28.549,8.881 -12.645,0 -24.387,-3.75 -32.013,-6.895 -0.016,-0.003 -0.033,-0.005 -0.049,-0.005 -0.101,0 -0.132,0.05 -0.147,0.091 l -0.27,0.02 0.212,0.073 c -1.789,5.143 -0.588,10.36 3.298,14.317 1.373,1.4 3.127,2.592 5.362,3.643 0.084,0.042 0.135,0.131 0.127,0.225 -0.008,0.093 -0.074,0.173 -0.164,0.195 -0.215,0.059 -0.426,0.159 -0.626,0.3 -0.04,0.028 -0.086,0.043 -0.13,0.043 z"
   id="path56-9" />
		<path
   style="fill:#ff7f06"
   d="m 433.155,436.55 c -9.542,0 -20.228,-2.287 -30.899,-6.614 -0.061,-0.025 -0.109,-0.076 -0.13,-0.141 -0.02,-0.063 -0.011,-0.131 0.024,-0.187 3.852,-6.061 10.201,-9.339 15.305,-11.516 l 3.484,-1.483 c 5.145,-2.185 10.465,-4.443 15.602,-6.882 8.92,-4.237 15.866,-8.289 21.862,-12.753 5.1,-3.798 11.25,-9.064 13.568,-16.134 0.029,-0.094 0.115,-0.154 0.213,-0.154 0.004,0 0.009,0 0.015,0.001 0.102,0.005 0.187,0.082 0.206,0.18 1.905,10.088 1.273,20.513 -1.874,30.99 -1.389,4.615 -3.146,9.844 -6.453,13.498 -2.379,2.625 -5.923,4.971 -10.833,7.177 -5.942,2.667 -12.701,4.018 -20.09,4.018 z"
   id="path57-1" />
		<path
   style="fill:#cd6b06"
   d="m 375.943,388.474 c 0.461,-6.546 0.936,-13.314 2.012,-19.892 0.99,-6.051 2.327,-12.99 5.67,-18.789 1.741,-3.022 3.804,-6.323 6.293,-9.02 -11.707,6.116 -14.52,21.849 -15.455,34.303 -0.438,5.843 -0.74,11.588 -1.4,17.295 -1.23,10.649 -4.026,10.436 -7.688,1.768 -2.255,-5.337 -3.533,-11.055 -4.042,-16.893 -0.314,-3.59 -0.131,-7.158 0.25,-10.718 -0.545,1.174 -1.062,2.358 -1.509,3.564 -0.36,0.967 -0.66,1.957 -0.915,3.023 -0.008,0.031 -0.009,0.063 -0.003,0.093 0.005,0.03 0.004,0.064 -0.006,0.101 -0.164,0.649 -0.269,1.416 -0.38,2.226 -0.075,0.554 -0.153,1.125 -0.259,1.712 -0.971,12.51 6.673,23.906 11.7,29.954 v 0 c 0.002,0.002 0.004,0.003 0.006,0.006 0.584,0.703 1.135,1.335 1.63,1.887 0.012,0.012 0.023,0.026 0.034,0.039 0.166,0.184 0.327,0.36 0.48,0.527 0.042,0.045 0.102,0.07 0.164,0.07 0.018,0 0.032,-0.002 0.047,-0.005 0.079,-0.017 0.142,-0.073 0.165,-0.147 2.176,-6.425 2.657,-13.27 3.122,-19.892 z"
   id="path58-7" />
		<path
   style="fill:#cd6b06"
   d="m 369.083,410.321 c -1.191,2.69 -3.02,5.123 -5.989,5.219 -1.405,0.046 -2.698,-0.336 -3.877,-0.993 0.074,0.133 0.143,0.27 0.222,0.397 0.02,0.03 0.044,0.057 0.076,0.075 0.031,0.018 0.057,0.043 0.077,0.073 0,0 0.516,0.732 0.651,0.93 0.557,0.616 1.165,1.069 1.854,1.384 0.933,0.421 1.845,0.636 2.715,0.636 2.484,0 4.669,-1.705 6.494,-5.062 0.047,-0.086 0.032,-0.193 -0.035,-0.262 -0.76,-0.796 -1.482,-1.594 -2.188,-2.397 z"
   id="path59-7" />
		<path
   style="fill:#cd6b06"
   d="m 404.197,433.892 c -1.15,-0.422 -2.237,-0.845 -3.248,-1.257 -0.028,-0.012 -0.058,-0.017 -0.086,-0.017 -0.032,0 -0.066,0.007 -0.096,0.021 -0.057,0.026 -0.1,0.077 -0.117,0.136 -1.816,5.851 0.27,11.675 5.442,15.201 3.372,2.297 6.51,3.416 9.598,3.416 l 0.216,-0.002 c 0.245,-0.004 0.481,-0.014 0.723,-0.02 -3.072,-0.624 -5.965,-1.863 -8.415,-4.126 -3.83,-3.534 -6.166,-8.526 -4.017,-13.352 z"
   id="path60-4" />
		<path
   style="fill:#cd6b06"
   d="m 403.253,401.198 c 5.816,-10.464 12.173,-20.616 19.408,-30.161 6.787,-8.954 15.017,-16.593 22.086,-25.251 -12.598,9.243 -22.636,22.342 -31.126,34.023 -10.817,14.886 -18.659,27.745 -24.523,40.235 v 0 c -0.363,0.774 -0.722,1.546 -1.067,2.317 -0.047,0.102 -0.012,0.222 0.082,0.282 0.615,0.389 1.243,0.767 1.876,1.14 0.484,0.291 0.977,0.574 1.47,0.857 0.004,0.002 0.007,0.004 0.012,0.006 v 0 c 2.202,1.26 4.485,2.458 6.842,3.564 0.03,0.013 0.061,0.02 0.096,0.02 0.076,0 0.149,-0.038 0.192,-0.108 0.541,-0.899 1.139,-1.737 1.767,-2.546 -8.117,-3.19 -4.18,-11.665 2.885,-24.378 z"
   id="path61-1" />
		<path
   style="fill:#cd6b06"
   d="m 384.753,420.332 c 0.018,0 0.038,-0.002 0.058,-0.007 0.065,-0.018 0.119,-0.063 0.145,-0.125 0.325,-0.718 0.658,-1.438 0.994,-2.159 -3.549,-2.406 -6.873,-5.137 -9.882,-8.219 -0.252,0.867 -0.515,1.733 -0.804,2.596 -0.027,0.083 -0.005,0.175 0.059,0.234 2.83,2.675 5.96,5.245 9.3,7.639 0.037,0.028 0.083,0.041 0.13,0.041 z"
   id="path62-1" />
		<path
   style="fill:#cd6b06"
   d="m 460.881,423.864 c -6.909,4.877 -14.684,8.018 -23.157,8.473 -5.418,0.292 -10.968,-0.231 -16.423,-1.169 -12.984,-2.228 -14.71,-3.214 -1.147,-10.273 9.019,-4.696 18.766,-7.985 27.706,-12.855 5.969,-3.252 11.7,-7.229 16.113,-12.443 2.012,-2.375 3.575,-4.993 4.706,-7.889 0.148,-0.38 0.267,-0.739 0.369,-1.09 -2.93,4.262 -7.046,7.679 -10.646,10.357 -5.996,4.464 -12.942,8.516 -21.862,12.753 -5.138,2.438 -10.458,4.697 -15.602,6.882 l -3.484,1.483 c -4.676,1.996 -10.391,4.918 -14.278,10.055 -0.034,0.045 -0.07,0.089 -0.104,0.134 -0.318,0.429 -0.63,0.867 -0.923,1.327 -0.035,0.056 -0.044,0.124 -0.024,0.187 0.021,0.064 0.068,0.115 0.13,0.141 1.17,0.474 2.341,0.921 3.509,1.345 0.004,0.001 0.007,0.003 0.01,0.005 v 0 c 9.488,3.448 18.888,5.265 27.381,5.265 7.39,0 14.148,-1.352 20.091,-4.018 4.91,-2.206 8.454,-4.552 10.833,-7.177 2.327,-2.573 3.882,-5.927 5.084,-9.297 -2.356,2.97 -5.151,5.595 -8.282,7.804 z"
   id="path63-9" />
		<path
   style="fill:#cd6b06"
   d="m 386.861,425.411 c -0.023,0 -0.046,0.004 -0.069,0.01 -0.063,0.021 -0.114,0.068 -0.139,0.13 -1.133,2.748 -2.558,6.391 -3.535,10.186 -0.068,0.267 -0.148,0.55 -0.233,0.841 -0.453,1.584 -1.017,3.556 -0.152,5.027 0.684,1.164 2.154,1.861 3.452,2.478 0.013,0.007 0.024,0.013 0.038,0.019 0.397,-3.306 1.095,-6.58 1.965,-9.783 0.631,-2.325 1.372,-4.605 2.194,-6.85 -1.157,-0.66 -2.298,-1.329 -3.401,-2.025 -0.038,-0.023 -0.079,-0.033 -0.12,-0.033 z"
   id="path64-1" />
		<path
   style="fill:#ff9408"
   d="m 395.499,349.9 c 4.271,0.799 30.429,3.722 27.997,-5.118 -1.62,-5.889 -10.388,-6.153 -15.11,-5.752 -5.808,0.492 -11.817,3.35 -13.832,9.205 -0.224,0.654 0.251,1.534 0.945,1.665 z"
   id="path65-3" />
		<path
   style="fill:#ff9408"
   d="m 429.563,401.274 c 0.424,-2.098 -0.925,-4.141 -3.175,-4.168 -0.296,-0.004 -0.587,0.04 -0.881,0.091 -0.294,0.03 -0.589,0.067 -0.873,0.155 -0.366,0.11 -0.704,0.282 -1.044,0.449 -0.011,0.003 -0.02,0.008 -0.029,0.012 -1.903,0.663 -3.148,2.511 -2.586,4.556 0.509,1.847 2.647,3.248 4.556,2.585 1.787,-0.623 3.623,-1.65 4.032,-3.68 z"
   id="path66-8" />
		<path
   style="fill:#ff9408"
   d="m 457.938,362.043 c -0.45,-0.616 -1.318,-0.851 -1.906,-0.246 -2.26,2.317 -3.535,4.973 -5.329,7.628 -1.987,2.939 -4.316,5.74 -6.614,8.437 -4.627,5.428 -9.385,9.67 -11.747,16.604 -0.42,1.231 0.666,2.296 1.812,2.379 9.242,0.675 15.584,-5.454 20.749,-12.379 4.235,-5.678 7.638,-16.125 3.035,-22.423 z"
   id="path67-7" />
		<path
   style="fill:#441203"
   d="m 472.461,378.596 c -0.939,-0.658 -1.22,-1.855 -1.312,-3 0.006,-0.128 0.015,-0.256 0.015,-0.386 0.006,-2.412 -0.991,-4.673 -1.916,-6.848 -1.289,-3.035 -2.899,-5.926 -4.7,-8.684 -3.303,-5.056 -7.565,-9.534 -12.36,-13.192 -1.469,-1.119 -2.975,-2.173 -4.526,-3.173 -0.052,-0.058 -0.125,-0.093 -0.213,-0.11 -0.053,-0.019 -0.104,-0.024 -0.153,-0.021 -1.201,0.04 -2.12,-0.52 -2.66,-1.592 -0.02,-0.034 -0.041,-0.064 -0.07,-0.093 -0.061,-0.08 -0.135,-0.132 -0.217,-0.147 -11.315,-6.143 -24.188,-8.851 -37.016,-7.61 -2.24,0.217 -4.751,0.384 -6.879,1.153 -0.662,0.238 -1.309,0.587 -1.938,0.989 -0.984,0.398 -2.001,0.633 -3.073,0.416 -0.078,-0.025 -0.163,-0.035 -0.265,-0.002 -16.348,5.428 -29.209,17.762 -35.763,33.635 -0.784,1.9 -1.253,3.903 -1.473,5.948 -0.052,0.295 -0.106,0.591 -0.161,0.887 -0.213,1.159 -0.41,2.969 -1.427,3.73 -0.081,0.033 -0.145,0.097 -0.188,0.191 -0.012,0.021 -0.02,0.042 -0.029,0.065 -0.003,0.012 -0.011,0.02 -0.013,0.033 -2.152,10.75 -1.671,21.822 1.829,32.237 0.262,0.779 0.584,1.521 0.975,2.201 0.008,0.065 0.029,0.127 0.074,0.192 0.145,0.209 0.31,0.429 0.474,0.654 0.005,0.008 0.011,0.016 0.017,0.022 0.576,0.791 1.156,1.68 0.903,2.637 -0.002,0.013 0,0.025 -0.001,0.039 -0.012,0.048 -0.015,0.096 -0.009,0.145 10e-4,0.007 0.002,0.012 0.003,0.018 0.007,0.043 0.024,0.086 0.05,0.129 0.002,0.005 10e-4,0.009 0.004,0.013 3.828,7.795 9.384,14.318 16.214,19.653 1.113,0.87 1.775,1.081 2.217,0.806 1.392,0.009 2.565,1.385 3.287,2.428 0.002,0.004 0.01,0.007 0.013,0.012 0.314,0.554 0.794,1.053 1.509,1.474 7.47,4.382 15.864,7.051 24.432,8.147 0.045,0.006 0.081,-0.004 0.118,-0.01 0.132,0.034 0.278,0.019 0.408,-0.099 0.727,-0.647 1.938,-0.234 2.763,-0.022 0.093,0.022 0.171,0.012 0.245,-0.011 3.326,1.008 6.98,0.604 10.387,0.274 15.311,-1.486 30.027,-9.35 39.726,-21.303 0.142,-0.108 0.169,-0.242 0.141,-0.368 0.17,-1.597 1.439,-2.933 2.64,-4.242 0.142,-0.146 0.288,-0.288 0.425,-0.439 0.121,-0.133 0.227,-0.286 0.344,-0.425 0.164,-0.194 0.323,-0.386 0.467,-0.581 2.508,-3.3 3.935,-7.772 5.172,-11.588 3.56,-10.987 4.22,-22.612 1.74,-33.897 -0.036,-0.15 -0.123,-0.24 -0.23,-0.285 z M 447.38,344.204 c 5.61,3.645 10.591,8.104 14.644,13.445 3.533,4.657 7.438,10.854 8.183,16.762 0,0.011 -0.006,0.018 -0.006,0.03 0.009,0.393 0.028,0.8 0.065,1.209 -0.109,4.033 -3.234,7.912 -5.771,10.716 -3.41,3.775 -7.507,6.921 -11.678,9.799 -7.741,5.342 -16.061,9.395 -24.741,12.941 -10.776,4.403 -23.355,8.402 -29.67,18.902 -3.503,-1.647 -6.898,-3.488 -10.174,-5.554 6.814,-15.092 15.852,-29.143 25.569,-42.513 9.474,-13.033 20.073,-26.637 33.579,-35.737 z m -48.831,-7.166 c 2.085,-1.399 3.934,-1.722 6.396,-2.102 13.133,-2.023 26.825,0.735 38.494,6.953 -12.83,10.583 -23.861,23.218 -33.741,36.553 -9.62,12.982 -18.307,26.911 -24.945,41.666 -3.262,-2.336 -6.361,-4.864 -9.276,-7.619 3.25,-9.678 3.991,-19.759 4.696,-29.879 0.383,-5.503 0.549,-11.159 1.577,-16.589 0.782,-4.126 2.176,-8.159 3.849,-12.004 1.89,-4.337 4.326,-8.47 7.417,-12.061 1.614,-1.881 3.478,-3.535 5.533,-4.918 z m -39.815,40.227 c 0.249,-1.386 0.36,-2.82 0.633,-3.9 0.018,-0.071 0.02,-0.136 0.008,-0.195 0.241,-1.005 0.537,-2.005 0.908,-2.999 5.375,-14.458 17.586,-26.027 31.783,-31.762 -3.616,2.974 -6.446,7.473 -8.636,11.273 -3.3,5.724 -4.643,12.42 -5.697,18.864 -1.127,6.88 -1.587,13.851 -2.075,20.796 -0.478,6.807 -0.931,13.664 -3.133,20.167 -7.82,-8.476 -14.708,-20.407 -13.791,-32.244 z m 1.677,38.607 c -0.207,-0.308 -0.428,-0.608 -0.632,-0.907 -0.045,-0.061 -0.095,-0.106 -0.149,-0.138 -1.362,-2.209 -1.842,-5.259 -2.396,-7.55 -1.786,-7.384 -1.955,-15.106 -0.867,-22.612 1.258,10.821 7.245,20.386 14.742,28.208 -1.889,3.478 -4.756,6.217 -8.917,4.327 -0.701,-0.318 -1.285,-0.779 -1.781,-1.328 z m 18.326,22.183 c -0.276,1.593 -3.713,-1.796 -4.423,-2.41 -4.94,-4.267 -8.999,-9.381 -12.094,-15.102 1.934,1.301 4.107,1.853 6.507,0.849 2.406,-1.011 4.128,-3.365 5.358,-5.615 2.935,2.701 6.037,5.197 9.284,7.515 -1.335,3.236 -2.537,6.517 -3.505,9.885 -0.46,1.602 -0.841,3.234 -1.127,4.878 z m 8.252,6.169 c -1.336,-0.672 -3.284,-1.408 -4.064,-2.733 -0.967,-1.648 -0.031,-3.982 0.41,-5.698 0.895,-3.472 2.16,-6.845 3.525,-10.157 3.23,2.035 6.58,3.849 10.037,5.473 -1.537,4.145 -1.568,8.387 0.59,12.347 1.72,3.152 4.721,5.196 7.853,6.827 -6.385,-1.099 -12.542,-3.133 -18.351,-6.059 z m 39.536,5.964 c -3.504,0.663 -7.062,0.916 -10.623,0.978 -3.526,0.062 -6.817,-1.421 -9.682,-3.374 -5.01,-3.415 -7.152,-9.163 -5.357,-14.948 17.937,7.309 40.752,10.589 57.822,-0.266 -8.481,9.12 -19.932,15.297 -32.16,17.61 z m 34.508,-20.33 c -17.168,13.202 -41.628,9.675 -60.337,1.957 -0.242,-0.1 -0.415,0.024 -0.493,0.209 -0.021,0.032 -0.046,0.062 -0.061,0.104 -1.859,5.346 -0.558,10.57 3.349,14.548 1.548,1.577 3.436,2.752 5.428,3.69 -0.245,0.065 -0.477,0.179 -0.696,0.333 -3.7,-1.729 -7.187,-3.649 -9.571,-7.072 -2.646,-3.796 -2.372,-8.505 -0.76,-12.628 0.007,-0.021 0.004,-0.035 0.009,-0.056 0.007,-0.023 0.01,-0.045 0.012,-0.068 0.004,-0.034 0.006,-0.066 0,-0.097 -0.003,-0.022 -0.014,-0.044 -0.021,-0.065 -0.011,-0.025 -0.019,-0.051 -0.036,-0.073 -0.017,-0.025 -0.04,-0.047 -0.064,-0.067 -0.018,-0.014 -0.033,-0.025 -0.051,-0.038 -0.02,-0.011 -0.031,-0.027 -0.053,-0.037 -3.743,-1.743 -7.364,-3.702 -10.846,-5.926 -0.317,-0.203 -0.612,0.053 -0.652,0.343 -1.631,3.93 -3.071,7.927 -4.076,12.066 -0.248,1.029 -0.454,2.051 -0.436,3.002 -0.644,-0.632 -1.4,-1.148 -2.239,-1.307 0.15,-0.425 0.27,-0.97 0.398,-1.618 0.944,-4.749 2.66,-9.345 4.512,-13.803 0.094,-0.227 -0.011,-0.394 -0.177,-0.476 -0.013,-0.01 -0.018,-0.023 -0.032,-0.033 -3.461,-2.451 -6.758,-5.107 -9.858,-8.002 -0.072,-0.067 -0.148,-0.095 -0.226,-0.11 -0.174,-0.054 -0.37,-0.011 -0.479,0.201 -1.056,2.03 -2.383,3.893 -4.273,5.219 -2.796,1.961 -5.732,0.688 -7.993,-1.378 0.044,-0.299 0.048,-0.59 -10e-4,-0.87 0.827,0.525 1.8,0.87 2.955,0.962 3.799,0.3 6.18,-2.661 7.783,-5.74 0.036,-0.068 0.052,-0.135 0.054,-0.198 0.012,-0.115 -0.02,-0.238 -0.124,-0.346 -8.26,-8.542 -14.752,-19.214 -14.959,-31.387 0.321,-0.282 0.589,-0.619 0.807,-1.002 0.132,3.134 0.722,6.265 1.545,9.18 2.303,8.139 7.277,15.322 13.024,21.41 0.294,0.313 0.716,0.045 0.757,-0.285 0.027,-0.038 0.056,-0.074 0.072,-0.126 2.055,-5.794 2.658,-11.877 3.12,-17.967 0.532,-7.034 0.932,-14.074 1.889,-21.069 0.897,-6.563 2.158,-13.352 5.052,-19.361 1.302,-2.703 3.029,-5.206 4.829,-7.596 2.04,-2.705 4.3,-5.518 7.378,-7.069 0.397,0.057 0.787,0.069 1.17,0.038 -0.483,0.394 -0.948,0.792 -1.391,1.168 -3.642,3.114 -6.4,7.231 -8.647,11.425 -2.109,3.939 -3.723,8.163 -4.917,12.465 -1.23,4.425 -1.55,8.966 -1.927,13.526 -0.948,11.436 -1.124,23.014 -4.416,34.096 -0.258,0.865 -0.545,1.72 -0.835,2.575 -0.006,0.017 -0.002,0.027 -0.006,0.043 -0.008,0.034 -0.015,0.068 -0.014,0.103 0,0.04 0.008,0.077 0.02,0.112 10e-4,0.011 0.004,0.02 0.01,0.028 0.02,0.052 0.051,0.095 0.091,0.133 0.006,0.006 0.006,0.011 0.012,0.017 3.148,2.996 6.516,5.726 10.061,8.238 0.122,0.087 0.241,0.098 0.345,0.063 0.107,-0.02 0.205,-0.088 0.267,-0.225 6.565,-14.698 15.19,-28.504 24.685,-41.477 9.914,-13.546 21.137,-26.362 34.118,-37.058 0.499,0.748 1.214,1.256 2.055,1.477 -12.687,8.779 -22.697,21.424 -31.796,33.696 -10.372,13.985 -19.967,28.832 -27.102,44.751 -0.017,0.037 -0.019,0.075 -0.026,0.112 -0.005,0.02 -0.01,0.041 -0.012,0.061 -0.001,0.013 -0.002,0.024 -0.001,0.036 -0.012,0.147 0.039,0.3 0.201,0.402 3.5,2.231 7.139,4.203 10.905,5.953 0.038,0.017 0.073,0.02 0.11,0.025 0.178,0.061 0.385,0.023 0.507,-0.187 3.484,-6.01 8.676,-9.467 14.759,-12.482 6.542,-3.24 13.393,-5.819 20.123,-8.629 7.927,-3.309 15.508,-7.788 22.409,-12.881 3.754,-2.768 7.317,-5.852 10.3,-9.45 1.779,-2.148 3.515,-4.712 4.248,-7.48 0.221,0.481 0.535,0.909 0.953,1.268 -2.054,8.556 -9.863,14.673 -16.74,19.44 -6.655,4.612 -13.94,8.306 -21.27,11.711 -5.861,2.724 -11.852,5.147 -17.783,7.706 -5.813,2.505 -11.253,6.099 -14.607,11.606 -0.006,0.009 -0.011,0.017 -0.018,0.024 -0.015,0.026 -0.033,0.048 -0.048,0.073 -0.133,0.22 -0.049,0.425 0.104,0.548 10e-4,0.002 0.002,0.003 0.002,0.003 0.027,0.023 0.058,0.043 0.089,0.061 0.024,0.014 0.043,0.034 0.072,0.047 16.522,6.808 36.479,10.031 53.231,2.19 2.277,-1.065 4.553,-2.387 6.612,-3.949 -0.175,0.392 -0.296,0.807 -0.362,1.244 z m 9.283,-18.065 c -1.385,4.606 -3.123,9.788 -6.404,13.412 -2.844,3.137 -6.937,5.406 -10.758,7.121 -15.93,7.148 -35.185,3.737 -50.813,-2.598 3.56,-5.604 9.241,-8.887 15.201,-11.43 6.395,-2.73 12.814,-5.386 19.098,-8.369 7.644,-3.63 15.102,-7.714 21.899,-12.775 5.599,-4.17 11.411,-9.426 13.647,-16.243 1.954,10.359 1.171,20.762 -1.87,30.882 z"
   id="path68-4" />
	</g></g></svg>
