<?xml version="1.0" encoding="UTF-8" standalone="no"?>
<!-- Created with Inkscape (http://www.inkscape.org/) -->

<svg
   width="32.469627mm"
   height="33.558128mm"
   viewBox="0 0 32.469627 33.558128"
   version="1.1"
   id="svg1"
   xml:space="preserve"
   xmlns="http://www.w3.org/2000/svg"
   xmlns:svg="http://www.w3.org/2000/svg"><defs
     id="defs1" /><g
     id="layer1"
     transform="translate(-317.45367,-338.53571)"><g
       id="g30"
       transform="matrix(0.26458333,0,0,0.26458333,309.30796,245.33635)">
		<path
   style="fill:#ff7f06"
   d="m 102.827,396.448 c -0.071,-0.002 -0.137,-0.039 -0.177,-0.098 -1.481,-2.155 -2.522,-4.719 -3.264,-6.711 -0.353,-0.946 -0.638,-1.947 -0.872,-3.059 -0.02,-0.092 0.018,-0.183 0.094,-0.233 3.328,-2.71 7.912,-4.196 12.932,-4.196 6.382,0 12.553,2.353 16.506,6.295 0.067,0.067 0.085,0.167 0.045,0.253 -0.038,0.08 -0.117,0.13 -0.204,0.13 -0.006,0 -0.013,0 -0.019,-0.001 -0.885,-0.075 -1.803,-0.112 -2.728,-0.112 -3.823,0 -8.028,0.648 -12.499,1.93 -4.496,1.289 -7.557,3.105 -9.631,5.717 -0.044,0.055 -0.108,0.086 -0.177,0.086 -0.001,-0.001 -0.004,-0.001 -0.006,-0.001 z"
   id="path1-2" />
		<path
   style="fill:#ff7f06"
   d="m 98.55,385.806 c -0.027,0 -0.055,-0.007 -0.081,-0.017 -0.074,-0.026 -0.127,-0.093 -0.14,-0.17 -0.367,-2.119 -0.492,-4.256 -0.573,-6.251 -0.004,-0.107 0.067,-0.202 0.172,-0.227 0.624,-0.149 1.28,-0.225 1.948,-0.225 2.387,0 5.081,0.98 7.586,2.76 0.074,0.052 0.109,0.143 0.089,0.231 -0.02,0.089 -0.09,0.156 -0.18,0.173 -3.298,0.575 -6.301,1.848 -8.685,3.679 -0.039,0.031 -0.087,0.047 -0.136,0.047 z"
   id="path2-6" />
		<path
   style="fill:#ac9f0c"
   d="m 100.043,403.442 c -0.046,0 -0.093,-0.015 -0.132,-0.043 -2.163,-1.581 -3.602,-4.649 -4.429,-6.942 -0.913,-2.535 -1.092,-5.246 -1.15,-7.798 -0.038,-1.658 0.021,-3.345 0.078,-4.974 0.101,-2.896 0.204,-5.892 -0.231,-8.805 -1.412,-9.443 -5.449,-15.276 -11.998,-17.338 -1.626,-0.513 -3.27,-0.771 -4.886,-0.771 -4.949,0 -8.633,2.399 -10.108,6.585 -0.834,2.368 -0.589,5.006 0.625,6.72 0.901,1.274 2.243,1.947 3.88,1.947 0,0 0.222,-0.004 0.225,-0.004 0.089,0 0.17,0.054 0.206,0.137 0.036,0.086 0.017,0.184 -0.05,0.25 -0.931,0.902 -1.971,1.36 -3.091,1.36 -2.856,0 -5.351,-3.007 -6.024,-5.794 -1.264,-5.228 2.499,-10.902 6.868,-13.371 2.159,-1.218 4.615,-1.837 7.299,-1.837 5.955,0 12.29,3.175 15.764,7.899 3.827,5.205 4.131,11.53 4.425,17.647 0.125,2.586 0.253,5.259 0.651,7.784 0.818,5.2 3.854,11.721 8.074,14.121 0.078,0.045 0.122,0.133 0.112,0.222 -0.01,0.089 -0.073,0.165 -0.159,0.19 -2.071,0.609 -4.028,1.544 -5.82,2.774 -0.04,0.028 -0.085,0.041 -0.129,0.041 z"
   id="path3-9" />
		<path
   style="fill:#ac9f0c"
   d="m 98.674,404.468 c -0.054,0 -0.107,-0.019 -0.15,-0.057 -1.302,-1.164 -2.798,-2.042 -4.445,-2.61 -1.166,-0.4 -2.501,-0.59 -4.2,-0.59 -0.849,0 -1.697,0.047 -2.426,0.091 -2.333,0.137 -4.809,0.384 -7.107,1.238 -0.026,0.01 -0.052,0.014 -0.079,0.014 -0.074,0 -0.146,-0.037 -0.188,-0.103 l -0.076,-0.114 c -0.06,-0.092 -0.09,-0.279 -0.012,-0.354 4.254,-4.043 7.276,-9.766 8.742,-16.549 1.001,-4.638 1.462,-11.273 -2.03,-16.535 -2.153,-3.245 -6.214,-5.511 -9.878,-5.511 -1.473,0 -2.825,0.355 -4.021,1.053 -1.215,0.709 -2.076,2.208 -2.196,3.82 -0.098,1.327 0.336,2.48 1.187,3.164 0.074,0.059 0.103,0.158 0.072,0.247 -0.03,0.088 -0.112,0.149 -0.207,0.152 l -0.172,0.004 c -1.815,0 -3.152,-0.807 -3.866,-2.33 -1.313,-2.807 -0.181,-7.219 1.657,-9.423 1.765,-2.115 4.419,-3.234 7.673,-3.234 4.606,0 9.784,2.375 12.31,5.645 4.955,6.415 5.123,14.98 4.89,22.504 -0.126,4.077 -0.024,7.479 0.891,10.817 0.684,2.502 2.243,5.823 4.569,7.638 0.056,0.043 0.087,0.11 0.087,0.181 -0.001,0.069 -0.036,0.136 -0.092,0.177 -0.269,0.199 -0.532,0.404 -0.792,0.615 -0.041,0.035 -0.09,0.05 -0.141,0.05 z"
   id="path4-4" />
		<path
   style="fill:#ac9f0c"
   d="m 79.742,401.806 c -0.064,-0.004 -0.123,-0.037 -0.161,-0.089 -0.983,-1.351 -2.164,-2.451 -3.511,-3.269 -0.064,-0.039 -0.104,-0.107 -0.107,-0.182 -0.003,-0.075 0.031,-0.146 0.09,-0.191 3.339,-2.467 4.881,-6.803 6.12,-10.287 0.378,-1.064 0.702,-2.139 0.963,-3.192 0.052,-0.105 0.064,-0.16 0.06,-0.214 0.746,-3.191 0.881,-6.033 0.42,-8.76 -0.677,-4.002 -3.396,-7.324 -6.927,-8.463 -0.479,-0.154 -0.934,-0.232 -1.354,-0.232 -0.827,0 -1.531,0.308 -2.037,0.891 -0.685,0.785 -0.98,2.051 -0.793,3.385 0.013,0.085 -0.026,0.17 -0.099,0.219 -0.038,0.024 -0.081,0.036 -0.123,0.036 -0.04,0 -0.081,-0.009 -0.116,-0.032 -2.023,-1.22 -1.366,-4.044 -0.431,-5.642 1.055,-1.804 3.14,-2.183 4.704,-2.183 1.048,0 2.212,0.174 3.278,0.487 4.721,1.392 8.154,5.539 9.187,11.093 1.64,8.814 -2.14,19.987 -8.986,26.566 -0.043,0.04 -0.098,0.061 -0.156,0.061 -0.008,-10e-4 -0.014,-10e-4 -0.021,-0.002 z"
   id="path5-4" />
		<path
   style="fill:#ff7f06"
   d="m 82.676,383.957 c -0.038,0 -0.075,-0.011 -0.108,-0.027 -1.986,-1.101 -4.291,-1.959 -6.664,-2.479 -0.088,-0.021 -0.157,-0.09 -0.172,-0.179 -0.017,-0.089 0.022,-0.179 0.098,-0.229 2.269,-1.493 4.821,-2.352 7.38,-2.482 0.004,0 0.008,0 0.012,0 0.058,0 0.113,0.021 0.154,0.061 0.045,0.041 0.07,0.1 0.071,0.16 0.004,0.483 -0.003,0.961 -0.026,1.43 -0.056,1.122 -0.228,2.291 -0.524,3.571 -0.017,0.068 -0.063,0.126 -0.128,0.154 -0.03,0.014 -0.062,0.02 -0.093,0.02 z"
   id="path6-6" />
		<path
   style="fill:#ff7f06"
   d="m 78.27,394.987 c -0.073,0 -0.142,-0.037 -0.185,-0.097 -3.646,-5.272 -10.311,-8.421 -17.827,-8.421 -0.449,0 -0.896,0.012 -1.342,0.035 -0.004,0 -0.008,0 -0.012,0 -0.085,0 -0.164,-0.05 -0.201,-0.127 -0.04,-0.081 -0.027,-0.178 0.032,-0.246 2.332,-2.679 6.459,-4.48 11.041,-4.82 0.456,-0.035 0.913,-0.05 1.371,-0.05 3.781,0 7.833,1.132 11.413,3.188 0.089,0.05 0.132,0.153 0.105,0.252 -0.391,1.46 -0.896,2.895 -1.337,4.108 -0.746,2.048 -1.611,4.203 -2.874,6.078 -0.041,0.061 -0.11,0.099 -0.185,0.1 0.002,0 0.002,0 10e-4,0 z"
   id="path7-0" />
		<path
   style="fill:#ff7f06"
   d="m 44.772,456.04 c -0.044,0 -0.088,-0.012 -0.127,-0.039 -6.201,-4.24 -10.361,-11.617 -12.362,-21.923 -1.623,-8.366 -0.883,-17.275 2.144,-25.758 3.593,-10.075 10.378,-17.485 18.615,-20.33 1.436,-0.497 3.006,-0.841 4.667,-1.023 0.008,-10e-4 0.016,-0.002 0.024,-0.002 0.03,0 0.059,0.006 0.086,0.017 0.035,0.015 0.072,0.021 0.107,0.021 0.05,0 0.097,-0.014 0.137,-0.047 0.035,-0.025 0.074,-0.042 0.117,-0.044 0.691,-0.063 1.397,-0.093 2.098,-0.093 7.37,0 14.121,3.285 17.622,8.574 0.053,0.08 0.049,0.185 -0.011,0.262 -0.752,0.968 -1.546,1.724 -2.427,2.311 -0.038,0.026 -0.081,0.038 -0.124,0.038 -0.035,0 -0.069,-0.008 -0.101,-0.023 -1.817,-0.912 -3.91,-1.374 -6.223,-1.374 -4.211,0 -9.057,1.562 -13.295,4.284 -9.243,5.939 -13.029,15.55 -14.577,22.566 -1.066,4.833 -1.267,9.401 -0.611,13.965 l 0.2,1.405 c 0.783,5.535 1.522,10.763 3.748,15.83 0.118,0.269 0.244,0.531 0.37,0.794 l 0.127,0.267 c 0.044,0.092 0.021,0.201 -0.056,0.267 -0.044,0.036 -0.095,0.055 -0.148,0.055 z"
   id="path8-7" />
		<path
   style="fill:#ff7f06"
   d="m 64.131,470.317 c -3.832,0 -8.201,-2.331 -11.013,-4.514 -3.681,-2.857 -6.566,-7.036 -8.823,-12.772 -1.71,-4.351 -2.337,-8.757 -3,-13.419 l -0.152,-1.059 c -0.707,-4.921 -0.655,-9.139 0.169,-13.679 1.597,-8.807 5.6,-16.18 11.574,-21.321 4.631,-3.986 10.96,-6.562 16.122,-6.562 4.564,0 8.229,1.923 10.599,5.561 0.036,0.055 0.045,0.122 0.027,0.185 -0.019,0.064 -0.063,0.114 -0.124,0.142 -0.673,0.304 -1.313,0.625 -1.954,0.983 -6.704,4.284 -11.848,12.639 -15.279,24.824 -2.386,8.474 -3.022,17.525 -1.842,26.177 0.814,5.962 2.545,11.014 5.147,15.015 0.042,0.063 0.048,0.143 0.017,0.213 -0.031,0.07 -0.095,0.119 -0.171,0.131 -0.412,0.064 -0.849,0.095 -1.297,0.095 z"
   id="path9-4" />
		<path
   style="fill:#ff7f06"
   d="m 81.79,478.453 c -1.284,0 -2.621,-0.123 -3.973,-0.366 -15.593,-2.803 -17.331,-23.839 -17.493,-30.219 -0.183,-7.237 0.886,-14.53 3.174,-21.68 2.354,-7.349 6.743,-17.12 14.282,-21.935 3.055,-1.717 7.113,-2.736 10.868,-2.736 2.855,0 5.449,0.579 7.497,1.675 0.77,0.412 1.499,0.926 2.227,1.572 0.027,0.024 0.049,0.057 0.062,0.091 0.026,0.07 0.091,0.13 0.172,0.157 0.03,0.01 0.059,0.027 0.082,0.049 3.907,3.708 5.701,9.848 7.078,15.313 2.019,8.021 2.342,16.845 0.961,26.228 C 104.458,462 96.716,478.453 81.79,478.453 Z"
   id="path10-3" />
		<path
   style="fill:#ff7f06"
   d="m 101.918,477.698 c -3.134,0 -5.92,-0.789 -8.281,-2.341 -0.062,-0.042 -0.1,-0.109 -0.101,-0.184 -0.002,-0.075 0.034,-0.145 0.094,-0.188 10.081,-7.176 13.276,-22.492 14.183,-34.076 0.804,-10.269 -0.761,-20.421 -4.525,-29.357 -1.145,-2.722 -2.499,-4.854 -4.14,-6.514 -0.045,-0.046 -0.068,-0.107 -0.065,-0.169 0.004,-0.064 0.034,-0.123 0.083,-0.163 3.492,-2.831 7.683,-4.328 12.12,-4.328 7.325,0 14.722,4.039 19.304,10.54 5.048,7.162 7.292,18.134 6.153,30.105 -0.96,10.091 -6.067,20.101 -14.012,27.459 -4.59,4.251 -12.796,9.216 -20.813,9.216 z"
   id="path11-7" />
		<path
   style="fill:#ff7f06"
   d="m 125.785,466.656 c -0.086,0 -0.166,-0.051 -0.202,-0.131 -0.039,-0.081 -0.024,-0.179 0.038,-0.245 4.358,-4.73 7.766,-10.635 9.855,-17.078 2.771,-8.549 2.724,-19.156 -0.129,-29.104 -2.967,-10.338 -10.273,-17.75 -19.547,-19.823 -1.37,-0.309 -2.78,-0.463 -4.191,-0.463 -1.439,0 -2.893,0.162 -4.318,0.48 -0.016,0.004 -0.033,0.006 -0.049,0.006 -0.028,0 -0.056,-0.006 -0.083,-0.017 -1.431,-0.566 -2.766,-1.64 -3.965,-3.186 -0.07,-0.089 -0.062,-0.218 0.018,-0.298 3.075,-4.105 8.207,-5.536 13.641,-6.749 3.091,-0.69 5.887,-1.026 8.549,-1.026 4.044,0 7.618,0.772 10.927,2.36 8.069,3.872 13.837,12.394 15.828,23.377 1.845,10.179 0.118,21.901 -4.861,33.013 -5.488,12.245 -12.52,18.421 -21.498,18.884 -0.006,0 -0.009,0 -0.013,0 z"
   id="path12-9" />
		<path
   style="fill:#cd6b06"
   d="m 141.188,423.273 c -2.465,-15.199 -21.88,-34.209 -37.113,-25.156 0.962,1.005 1.995,1.732 3.083,2.164 0.027,0.011 0.055,0.017 0.083,0.017 0.016,0 0.033,-0.002 0.049,-0.006 1.426,-0.318 2.879,-0.48 4.318,-0.48 1.411,0 2.821,0.154 4.191,0.463 9.273,2.073 16.58,9.485 19.547,19.823 2.853,9.948 2.9,20.556 0.129,29.104 -2.089,6.443 -5.497,12.348 -9.855,17.078 -0.062,0.066 -0.077,0.164 -0.038,0.245 0.036,0.08 0.116,0.131 0.202,0.131 0.004,0 0.008,0 0.012,0 6.198,-0.319 12.805,-11.246 14.877,-21.487 1.475,-7.29 1.639,-14.963 0.515,-21.896 z"
   id="path13-0" />
		<path
   style="fill:#cd6b06"
   d="m 100.626,465.652 c -4.574,5.424 -10.426,9.578 -17.35,9.938 -9.485,0.491 -14.138,-9.172 -15.701,-16.998 -1.751,-8.763 -1.681,-18.1 0.341,-26.814 1.406,-6.061 3.987,-12.356 7.325,-17.605 1.722,-2.708 3.822,-5.196 5.943,-7.597 1.382,-1.564 2.825,-3.236 4.31,-4.824 -2.766,0.39 -5.503,1.26 -7.714,2.503 -7.539,4.815 -11.928,14.586 -14.282,21.935 -2.289,7.149 -3.357,14.442 -3.174,21.68 0.161,6.38 1.899,27.416 17.493,30.219 1.353,0.243 2.689,0.366 3.973,0.366 8.509,-0.002 14.68,-5.353 18.836,-12.803 z"
   id="path14-0" />
		<path
   style="fill:#cd6b06"
   d="m 76.869,393.348 c 0.114,0.129 0.229,0.26 0.338,0.392 -0.078,-0.16 -0.193,-0.293 -0.338,-0.392 z"
   id="path15-2" />
		<path
   style="fill:#cd6b06"
   d="m 50.75,463.652 c -0.718,-1.145 -1.386,-2.357 -1.989,-3.658 -3.769,-8.124 -4.164,-17.499 -3.378,-26.27 0.775,-8.657 3.336,-18.286 9.091,-24.985 2.941,-3.423 6.13,-6.182 9.966,-8.559 2.164,-1.342 4.534,-2.186 6.92,-2.983 -0.756,-0.122 -1.534,-0.206 -2.351,-0.206 -5.162,0 -11.49,2.575 -16.122,6.562 -5.975,5.142 -9.977,12.515 -11.574,21.321 -0.824,4.54 -0.876,8.758 -0.169,13.679 l 0.152,1.059 c 0.662,4.662 1.289,9.068 3,13.419 1.746,4.441 3.876,7.938 6.454,10.621 z"
   id="path16-2" />
		<path
   style="fill:#cd6b06"
   d="m 99.575,405.498 c 1.449,1.59 2.67,3.575 3.713,6.055 3.764,8.936 5.329,19.089 4.525,29.357 -0.906,11.584 -4.102,26.9 -14.183,34.076 -0.06,0.043 -0.096,0.112 -0.094,0.188 0.001,0.074 0.027,0.188 0.101,0.184 5.685,-0.328 14.869,-14.196 17.606,-26.045 2.159,-9.341 2.474,-19.317 -0.558,-28.485 -1.438,-4.357 -5.634,-13.175 -11.11,-15.33 z"
   id="path17-6" />
		<path
   style="fill:#cd6b06"
   d="m 112.642,390.645 c 4.471,-1.281 8.676,-1.93 12.499,-1.93 0.077,0 0.153,0.005 0.23,0.005 -3.619,-1.271 -7.507,-1.893 -11.12,-1.96 -5.042,-0.096 -10.148,1.797 -14.045,4.959 0.643,1.527 1.44,3.171 2.443,4.631 0.04,0.059 0.106,0.096 0.177,0.098 0.002,0 0.005,0 0.007,0 0.069,0 0.133,-0.031 0.177,-0.086 2.075,-2.612 5.136,-4.428 9.632,-5.717 z"
   id="path18-9" />
		<path
   style="fill:#cd6b06"
   d="m 75.613,386.998 c -4.306,-2.141 -10.275,-2.684 -14.752,-0.513 7.267,0.163 13.676,3.273 17.224,8.405 0.043,0.06 0.111,0.097 0.185,0.097 0,0 0.001,0 0.001,0 0.075,-0.001 0.144,-0.039 0.185,-0.1 0.903,-1.341 1.598,-2.824 2.195,-4.31 -1.496,-1.439 -3.192,-2.661 -5.038,-3.579 z"
   id="path19-0" />
		<path
   style="fill:#cd6b06"
   d="m 46.373,398.498 c 6.911,-6.741 16.776,-8.68 25.834,-5.523 2.037,0.709 3.73,1.85 5.267,3.18 0.14,-0.161 0.279,-0.322 0.415,-0.498 0.06,-0.077 0.063,-0.182 0.011,-0.262 -3.5,-5.289 -10.252,-8.574 -17.622,-8.574 -0.701,0 -1.407,0.03 -2.098,0.093 -0.043,0.002 -0.083,0.019 -0.117,0.044 -0.04,0.033 -0.086,0.047 -0.137,0.047 -0.035,0 -0.072,-0.007 -0.107,-0.021 -0.027,-0.011 -0.056,-0.017 -0.086,-0.017 -0.008,0 -0.016,0.001 -0.024,0.002 -1.661,0.182 -3.231,0.525 -4.667,1.023 -8.237,2.845 -15.022,10.255 -18.615,20.33 -2.287,6.408 -3.267,13.059 -2.911,19.536 0.509,-2.977 1.235,-5.882 2.176,-8.794 2.545,-7.87 6.755,-14.787 12.681,-20.566 z"
   id="path20-3" />
		<path
   style="fill:#8c7f03"
   d="m 72.123,372.157 c -0.036,-0.083 -0.117,-0.137 -0.206,-0.137 -0.003,0 -0.225,0.004 -0.225,0.004 -1.637,0 -2.979,-0.673 -3.88,-1.947 -1.214,-1.714 -1.459,-4.352 -0.625,-6.72 1.475,-4.186 5.16,-6.585 10.108,-6.585 1.616,0 3.26,0.258 4.886,0.771 6.549,2.061 10.586,7.895 11.998,17.338 0.435,2.913 0.332,5.908 0.231,8.805 -0.056,1.629 -0.115,3.315 -0.078,4.974 0.058,2.552 0.237,5.263 1.15,7.798 0.827,2.293 2.267,5.361 4.429,6.942 0.039,0.028 0.086,0.043 0.132,0.043 0.044,0 0.088,-0.013 0.127,-0.038 0.435,-0.3 0.881,-0.578 1.333,-0.842 -3.959,-3.406 -5.2,-8.442 -5.374,-13.492 -0.295,-8.6 0.45,-17.896 -4.22,-25.552 -4.407,-7.225 -14.252,-9.979 -21.621,-5.845 -3.328,1.866 -5.029,5.706 -4.786,9.403 0.214,3.252 2.989,6.411 6.318,5.537 0.082,-0.073 0.169,-0.129 0.25,-0.207 0.069,-0.067 0.089,-0.164 0.053,-0.25 z"
   id="path21-5" />
		<path
   style="fill:#8c7f03"
   d="m 90.252,371.579 c -1.955,-6.285 -9.926,-13.069 -16.756,-9.305 -2.768,1.526 -4.473,3.67 -4.282,6.949 0.051,0.883 0.337,1.707 0.797,2.387 0.45,0.139 0.939,0.219 1.478,0.219 l 0.172,-0.004 c 0.095,-0.003 0.177,-0.064 0.207,-0.152 0.03,-0.089 0.001,-0.189 -0.072,-0.247 -0.851,-0.684 -1.285,-1.837 -1.187,-3.164 0.12,-1.612 0.98,-3.111 2.196,-3.82 1.195,-0.697 2.548,-1.053 4.021,-1.053 3.664,0 7.726,2.266 9.878,5.511 3.493,5.263 3.031,11.897 2.03,16.535 -1.466,6.783 -4.488,12.506 -8.742,16.549 -0.078,0.074 -0.048,0.262 0.012,0.354 l 0.076,0.114 c 0.042,0.066 0.114,0.103 0.188,0.103 0.026,0 0.053,-0.004 0.079,-0.014 0.867,-0.323 1.759,-0.558 2.66,-0.734 6.537,-8.992 10.526,-19.682 7.245,-30.228 z"
   id="path22-5" />
		<path
   style="fill:#8c7f03"
   d="m 85.494,376.78 c -0.622,-4.594 -3.037,-10.999 -8.25,-11.827 -3,-0.477 -5.565,1.553 -6.396,4.08 0.038,0.951 0.4,1.837 1.319,2.392 0.036,0.024 0.076,0.032 0.116,0.032 0.042,0 0.085,-0.012 0.123,-0.036 0.073,-0.049 0.111,-0.134 0.099,-0.219 -0.188,-1.334 0.108,-2.6 0.793,-3.385 0.506,-0.583 1.21,-0.891 2.037,-0.891 0.42,0 0.876,0.078 1.355,0.232 3.531,1.139 6.25,4.461 6.927,8.463 0.462,2.727 0.326,5.569 -0.419,8.76 0.005,0.054 -0.008,0.108 -0.06,0.214 -0.261,1.054 -0.585,2.128 -0.963,3.192 -1.239,3.484 -2.781,7.82 -6.121,10.287 -0.06,0.045 -0.094,0.116 -0.09,0.191 0.003,0.074 0.044,0.143 0.107,0.182 0.592,0.359 1.146,0.783 1.671,1.249 5.505,-6.443 8.871,-14.647 7.752,-22.916 z"
   id="path23-8" />
		<path
   style="fill:#ff9408"
   d="m 54.036,444.372 c 1.314,-6.286 1.89,-12.64 3.994,-18.747 1.212,-3.521 2.712,-6.829 4.239,-10.221 1.188,-2.638 2.602,-4.743 2.846,-7.674 0.07,-0.845 -0.896,-1.516 -1.669,-1.272 -6.184,1.948 -10.171,10.081 -12.339,15.701 -2.776,7.197 -3.778,15.578 -0.12,22.611 0.649,1.251 2.757,1.002 3.049,-0.398 z"
   id="path24-7" />
		<path
   style="fill:#ff9408"
   d="m 89.083,463.532 c 3.705,-3.61 6.379,-6.787 8.718,-11.462 2.607,-5.212 3.417,-10.935 4.152,-16.645 0.708,-5.488 0.441,-11.025 -1.146,-16.338 -0.733,-2.45 -1.677,-4.919 -3.289,-6.92 -1.796,-2.23 -2.954,-2.851 -5.528,-3.684 -0.729,-0.234 -1.503,0.268 -1.708,0.97 -0.96,3.285 -1.098,6.272 -0.903,9.896 0.262,4.852 -0.201,9.875 -0.656,14.702 -0.471,5.009 -1.928,9.878 -2.468,14.889 -0.489,4.54 -0.435,8.701 -0.438,13.237 -0.003,1.688 2.077,2.513 3.266,1.355 z"
   id="path25-1" />
		<path
   style="fill:#ff9408"
   d="m 143.519,411.112 c 0.992,0.742 2.166,-0.291 2.248,-1.289 0.381,-4.64 -2.251,-7.767 -5.199,-11.098 -1.487,-1.681 -3.325,-3.034 -5.155,-4.318 -1.909,-1.341 -3.89,-1.353 -6.099,-1.618 -1.061,-0.127 -1.506,1.352 -0.833,2.011 1.289,1.265 2.117,2.852 3.512,4.04 1.519,1.295 2.824,2.824 4.182,4.278 1.385,1.482 2.441,3.177 3.677,4.769 1.071,1.378 2.287,2.194 3.667,3.225 z"
   id="path26-7" />
		<path
   style="fill:#ff9408"
   d="m 148.218,419.873 c 1.735,-1.042 1.233,-3.116 0.562,-4.64 -0.545,-1.24 -1.355,-1.936 -2.711,-2.064 -0.53,-0.051 -0.937,0.393 -1.102,0.838 -0.002,0.005 -0.004,0.012 -0.006,0.017 0.002,-0.011 -0.051,0.114 -0.168,0.401 -0.098,0.268 -0.219,0.6 -0.187,0.882 0.058,0.497 0.204,1.142 0.251,1.549 0.081,0.727 0.155,1.536 0.536,2.186 0.546,0.936 1.856,1.414 2.825,0.831 z"
   id="path27-0" />
		<path
   style="fill:#ff9408"
   d="m 129.778,430.573 c -0.478,-7.962 -2.888,-17.626 -10.34,-21.767 -0.74,-0.411 -1.826,0.095 -1.772,1.017 0.41,7.064 3.419,13.608 3.719,20.75 0.161,3.843 -0.207,7.802 -0.663,11.613 -0.477,3.985 -0.217,7.928 -0.451,11.915 -0.095,1.621 2.132,2.041 2.914,0.787 4.844,-7.752 7.148,-15.057 6.593,-24.315 z"
   id="path28-6" />
		<path
   style="fill:#ff9408"
   d="m 55.319,454.319 c 0.377,-1.126 0.045,-2.433 -0.355,-3.526 -0.21,-0.571 -0.585,-1.245 -1.028,-1.681 -0.172,-0.169 -1.047,-0.959 -0.669,-0.462 -0.619,-0.813 -1.668,-0.875 -2.276,0 -0.229,0.327 -0.579,0.563 -0.79,0.942 -0.261,0.471 -0.529,1.376 -0.485,1.912 0.116,1.416 0.375,2.87 1.378,3.931 1.371,1.448 3.645,0.62 4.225,-1.116 z"
   id="path29-0" />
		<path
   style="fill:#441203"
   d="m 143.144,395.348 c -4.094,-3.946 -8.858,-5.93 -13.888,-6.597 -0.02,-0.044 -0.039,-0.088 -0.077,-0.129 -4.802,-5.35 -13.068,-7.846 -20.589,-6.938 -2.937,-2.278 -6.882,-4.049 -10.645,-3.237 -0.056,-1.566 -0.101,-3.13 -0.208,-4.664 -0.61,-8.726 -4.435,-16.735 -12.906,-20.129 -8.131,-3.258 -18.509,-0.935 -21.829,7.884 -1.474,3.915 -1.253,8.724 2.167,11.558 2.559,2.12 6.022,1.635 8.012,-0.917 0.009,-0.013 0.011,-0.026 0.02,-0.038 0.089,-0.098 0.14,-0.231 0.095,-0.397 -0.554,-2.054 -0.199,-4.098 2.325,-4.091 1.949,0.006 3.777,1.582 5.001,2.943 1.776,1.976 2.436,4.658 2.572,7.292 -3.026,0.157 -5.972,1.26 -8.406,3.057 -0.021,0.016 -0.031,0.036 -0.048,0.054 -6.335,-1.082 -13.205,0.152 -17.045,5.37 -0.9,0.087 -1.792,0.208 -2.668,0.384 -9.419,1.909 -16.293,10.085 -20.06,18.445 -3.772,8.371 -4.962,17.85 -3.688,26.911 1.263,8.982 4.896,18.438 12.357,24.033 0.613,0.461 1.269,0.859 1.931,1.247 2.043,3.837 4.716,7.211 8.309,9.812 3.076,2.227 8.173,4.396 12.068,3.613 1.047,1.481 2.251,2.848 3.642,4.048 5.404,4.665 13.275,5.296 19.768,2.717 1.29,-0.51 2.492,-1.137 3.615,-1.862 7.681,5.392 18.869,1.384 25.85,-3.286 2.207,-1.475 4.237,-3.193 6.093,-5.089 0.031,0.006 0.057,0.019 0.092,0.018 10.159,-0.142 16.487,-7.05 21.007,-15.466 5.187,-9.661 7.96,-20.692 7.432,-31.671 -0.442,-9.155 -3.601,-18.417 -10.299,-24.875 z m -15.256,-6.744 c -5.004,-0.425 -10.232,0.372 -15.309,1.826 -3.709,1.063 -7.308,2.728 -9.746,5.793 -1.438,-2.093 -2.467,-4.593 -3.238,-6.661 -0.368,-0.99 -0.646,-2.002 -0.863,-3.028 0.014,-0.009 0.027,-0.011 0.041,-0.021 7.915,-6.47 21.968,-5.036 29.115,2.091 z m -20.555,-6.744 c -3.235,0.564 -6.272,1.792 -8.784,3.722 -0.353,-2.042 -0.484,-4.131 -0.57,-6.221 3.236,-0.771 6.689,0.605 9.354,2.499 z M 63.176,367.92 c -1.23,-5.089 2.483,-10.706 6.759,-13.122 7.498,-4.234 17.963,-0.541 22.772,5.999 5.406,7.353 3.703,16.865 5.035,25.334 0.756,4.808 3.607,11.677 8.185,14.282 -2.082,0.614 -4.069,1.559 -5.884,2.805 -2.082,-1.524 -3.517,-4.528 -4.35,-6.839 -0.888,-2.461 -1.079,-5.132 -1.138,-7.728 -0.105,-4.597 0.528,-9.229 -0.156,-13.805 -1.134,-7.587 -4.369,-15.068 -12.153,-17.52 -6.036,-1.9 -13.001,-0.492 -15.273,5.954 -1.47,4.174 0.288,9.128 4.942,8.964 -3.421,3.322 -7.772,-0.319 -8.739,-4.324 z m 31.651,27.949 c 0.728,2.666 2.359,5.971 4.647,7.755 -0.271,0.2 -0.537,0.408 -0.8,0.621 -1.271,-1.136 -2.759,-2.047 -4.521,-2.655 -2.132,-0.734 -4.5,-0.642 -6.712,-0.511 -2.432,0.144 -4.881,0.398 -7.173,1.251 -0.039,-0.061 -0.081,-0.122 -0.121,-0.184 4.652,-4.422 7.463,-10.447 8.806,-16.665 1.195,-5.532 1.163,-11.846 -2.062,-16.705 -2.862,-4.314 -9.417,-7.321 -14.199,-4.529 -2.446,1.429 -3.222,5.601 -1.036,7.354 -5.838,0.158 -5.033,-7.987 -2.204,-11.382 4.827,-5.784 15.621,-2.791 19.633,2.404 4.897,6.341 5.078,14.751 4.843,22.359 -0.113,3.673 -0.075,7.32 0.899,10.887 z m -18.07,-28.923 c -3.293,-1.061 -4.864,1.528 -4.475,4.286 -1.805,-1.087 -1.327,-3.673 -0.354,-5.336 1.494,-2.554 5.348,-2.295 7.725,-1.592 5.082,1.496 8.103,5.933 9.03,10.917 1.688,9.081 -2.327,20.026 -8.922,26.363 -1.04,-1.428 -2.248,-2.522 -3.576,-3.33 3.297,-2.435 4.87,-6.658 6.198,-10.392 0.376,-1.061 0.702,-2.133 0.969,-3.213 0.052,-0.087 0.074,-0.188 0.066,-0.287 0.681,-2.869 0.921,-5.799 0.417,-8.779 -0.656,-3.892 -3.26,-7.408 -7.078,-8.637 z m 6.464,11.839 c 0.005,0.479 -0.003,0.952 -0.026,1.416 -0.06,1.202 -0.251,2.377 -0.519,3.532 -1.986,-1.101 -4.296,-1.969 -6.724,-2.502 2.167,-1.425 4.673,-2.313 7.269,-2.446 z m -13.427,2.749 c 4.349,-0.32 8.896,0.949 12.657,3.108 -0.371,1.382 -0.84,2.741 -1.331,4.09 -0.73,2.007 -1.602,4.179 -2.85,6.03 -4.279,-6.188 -11.999,-8.856 -19.365,-8.483 2.608,-2.997 7.075,-4.461 10.889,-4.745 z m -37.29,52.502 c -1.663,-8.573 -0.791,-17.437 2.134,-25.64 3.137,-8.796 9.4,-17.06 18.478,-20.194 1.47,-0.509 3.027,-0.837 4.618,-1.013 0.149,0.063 0.324,0.057 0.466,-0.054 7.381,-0.656 15.433,2.218 19.513,8.383 -0.679,0.873 -1.456,1.649 -2.375,2.263 -5.987,-3.004 -14.004,-0.763 -19.741,2.922 -8.003,5.143 -12.665,13.599 -14.675,22.707 -1.032,4.675 -1.294,9.309 -0.614,14.045 0.85,5.916 1.534,11.758 3.964,17.295 0.159,0.36 0.333,0.712 0.5,1.065 -7.15,-4.89 -10.661,-13.503 -12.268,-21.779 z m 20.752,31.589 c -4.136,-3.21 -6.865,-7.877 -8.753,-12.678 -1.833,-4.661 -2.432,-9.511 -3.137,-14.428 -0.671,-4.669 -0.679,-8.944 0.167,-13.605 1.479,-8.154 5.165,-15.738 11.5,-21.192 7.018,-6.04 20.232,-10.496 26.386,-1.049 -10e-4,10e-4 -10e-4,10e-4 -10e-4,10e-4 -0.677,0.304 -1.324,0.63 -1.971,0.994 -8.241,5.264 -12.824,15.86 -15.386,24.958 -2.387,8.478 -3.038,17.542 -1.849,26.266 0.712,5.21 2.27,10.63 5.183,15.107 -4.068,0.63 -9.121,-2.031 -12.139,-4.374 z m 24.601,12.242 c -13.319,-2.396 -17.021,-18.643 -17.309,-30.004 -0.184,-7.303 0.938,-14.657 3.164,-21.606 2.555,-7.979 6.925,-17.175 14.189,-21.815 5.002,-2.809 12.906,-3.852 18.139,-1.053 0.794,0.426 1.515,0.951 2.183,1.543 0.049,0.134 0.165,0.242 0.31,0.292 3.981,3.778 5.768,10.25 7.015,15.204 2.143,8.509 2.231,17.492 0.956,26.141 -2.161,14.673 -10.282,34.598 -28.647,31.298 z m 44.722,-9.55 c -6.819,6.315 -19.934,12.696 -28.818,6.854 10.137,-7.219 13.378,-22.77 14.276,-34.243 0.782,-9.991 -0.647,-20.215 -4.542,-29.463 -1.052,-2.497 -2.395,-4.769 -4.188,-6.583 10.075,-8.169 24.058,-3.824 31.1,6.165 5.869,8.326 7.053,20.063 6.112,29.955 -0.985,10.36 -6.361,20.296 -13.94,27.315 z m 24.511,-20.638 c -4.152,9.264 -10.437,18.193 -21.305,18.752 4.509,-4.893 7.869,-10.885 9.904,-17.159 2.992,-9.23 2.528,-19.98 -0.127,-29.237 -2.744,-9.568 -9.741,-17.751 -19.712,-19.982 -2.886,-0.645 -5.813,-0.606 -8.607,0.02 -1.531,-0.607 -2.804,-1.74 -3.871,-3.115 0.001,-0.001 0.002,-0.003 0.003,-0.003 3.153,-4.209 8.647,-5.598 13.527,-6.688 6.519,-1.453 13.192,-1.628 19.331,1.319 9.02,4.329 13.986,13.737 15.704,23.213 2.002,11.062 -0.299,22.731 -4.847,32.88 z"
   id="path30-4" />
	</g></g></svg>
