<?xml version="1.0" encoding="UTF-8" standalone="no"?>
<!-- Created with Inkscape (http://www.inkscape.org/) -->

<svg
   width="104.46072mm"
   height="97.167091mm"
   viewBox="0 0 104.46072 97.167091"
   version="1.1"
   id="svg1"
   xml:space="preserve"
   xmlns="http://www.w3.org/2000/svg"
   xmlns:svg="http://www.w3.org/2000/svg"><defs
     id="defs1" /><g
     id="layer1"
     transform="translate(-245.40156,131.27531)"><g
       id="g44"
       transform="matrix(0.26458333,0,0,0.26458333,-139.7,-150.01875)">
		<g
   id="g33">
			<path
   style="fill:#f8ebcb"
   d="m 1806.537,150.591 c -4.797,0 -9.92,-0.43 -15.304,-1.395 l -0.743,0.795 -41.063,43.553 -1.708,1.812 -5.449,-3.937 -3.65,-2.646 -16.673,-12.045 58.167,-50.723 c -7.939,-19.671 -0.665,-50.893 20.818,-51.883 19.228,-0.886 20.18,24.221 11.954,43.879 4.771,-2.855 10.559,-4.654 15.995,-4.902 8.604,-0.417 16.373,3.05 17.99,12.319 2.137,12.177 -14.276,25.16 -40.334,25.173 z"
   id="path32" />
		</g>
		<g
   style="opacity:0.25"
   id="g34">
			<path
   d="m 1790.489,149.992 -41.063,43.553 c -2.659,-0.795 -5.136,-1.525 -7.157,-2.125 -2.985,-0.873 -4.953,-1.46 -4.953,-1.46 l 1.304,-1.186 44.296,-40.099 c 0,0 4.106,0.365 7.573,1.317 z"
   id="path33" />
		</g>
		<g
   style="opacity:0.25"
   id="g35">
			<path
   d="m 1806.537,150.591 c 7.9,-3.741 18.081,-10.064 23.973,-15.865 7.926,-7.795 5.123,-20.127 -5.449,-19.137 0,0 1.551,-1.043 3.82,-2.49 8.604,-0.417 16.373,3.05 17.99,12.319 2.137,12.177 -14.276,25.16 -40.334,25.173 z"
   id="path34" />
		</g>
		<g
   id="g36">
			<path
   style="fill:#2c2323"
   d="m 1747.717,198.616 c -0.665,0 -1.334,-0.203 -1.908,-0.617 l -25.773,-18.628 c -0.805,-0.582 -1.301,-1.5 -1.346,-2.493 -0.046,-0.993 0.364,-1.952 1.113,-2.605 l 56.472,-49.245 c -4.554,-13.451 -2.868,-30.649 4.288,-41.798 4.944,-7.705 11.936,-11.98 20.217,-12.363 6.807,-0.311 12.268,2.206 15.819,7.283 5.851,8.367 5.319,21.855 1.904,33.675 7.683,-2.64 15.786,-2.742 21.747,-0.011 5.368,2.46 8.766,6.971 9.829,13.045 0.995,5.674 -1.187,11.524 -6.144,16.469 -8.271,8.248 -26.081,15.452 -51.529,11.375 l -42.317,44.891 c -0.635,0.674 -1.501,1.022 -2.372,1.022 z m -20.539,-22.126 20.132,14.55 41.551,-44.079 c 0.754,-0.8 1.859,-1.165 2.943,-0.973 23.938,4.263 40.567,-2.332 47.529,-9.277 3.408,-3.399 4.945,-7.209 4.327,-10.729 -0.686,-3.924 -2.747,-6.697 -6.125,-8.244 -5.948,-2.726 -15.397,-1.466 -22.98,3.062 -1.212,0.721 -2.745,0.584 -3.806,-0.336 -1.063,-0.922 -1.414,-2.422 -0.872,-3.72 5.678,-13.568 6.245,-27.903 1.381,-34.86 -2.269,-3.242 -5.59,-4.72 -10.178,-4.506 -7.682,0.354 -12.415,5.291 -15.033,9.371 -6.392,9.96 -7.645,26.313 -2.913,38.037 0.519,1.288 0.167,2.763 -0.88,3.676 z"
   id="path35" />
		</g>
		<g
   id="g37">
			<path
   style="fill:#f9a35a"
   d="m 1738.032,259.468 c 0,0 23.895,44.505 -4.523,93.09 -28.419,48.585 -98.148,89.232 -164.58,81.293 -20.102,-2.399 -38.587,-8.904 -54.451,-18.29 -33.555,-19.802 -55.351,-52.418 -55.703,-85.959 -0.039,-3.024 0.104,-6.062 0.43,-9.099 5.619,-52.548 48.364,-100.469 102.997,-116.998 43.384,-13.127 73.002,-8.89 86.025,-5.475 13.153,-18.798 46.825,-37.218 78.177,-25.264 6.349,2.425 11.941,5.697 16.66,9.634 3.442,2.868 6.414,6.101 8.851,9.594 12.959,18.537 11.081,44.792 -13.883,67.474 z"
   id="path36" />
		</g>
		<g
   style="opacity:0.25"
   id="g38">
			<path
   d="m 1738.032,259.468 c 0,0 23.895,44.505 -4.523,93.09 -28.419,48.585 -98.148,89.232 -164.58,81.293 -20.102,-2.399 -38.587,-8.904 -54.451,-18.29 60.852,18.967 140.476,-10.351 176.846,-57.385 40.529,-52.444 24.234,-101.355 24.234,-101.355 31.938,-16.308 39.76,-55.221 33.32,-64.554 0,0 1.108,-0.117 3.037,-0.274 12.959,18.538 11.081,44.793 -13.883,67.475 z"
   id="path37" />
		</g>
		<g
   style="opacity:0.35"
   id="g39">
			<path
   style="fill:#ffffff"
   d="m 1743.064,182.399 c -0.3,1.968 -0.469,3.09 -0.469,3.09 -18.55,-13.558 -40.32,-8.917 -60.643,3.311 -20.323,12.228 -29.579,32.877 -29.579,32.877 0,0 -12.827,-11.785 -67.031,-1.643 -47.777,8.93 -112.475,45.743 -126.567,109.568 -0.039,-3.024 0.104,-6.062 0.43,-9.099 5.619,-52.548 48.364,-100.469 102.997,-116.998 43.384,-13.127 73.002,-8.89 86.025,-5.475 13.153,-18.798 46.825,-37.218 78.177,-25.264 6.349,2.424 11.941,5.696 16.66,9.633 z"
   id="path38" />
		</g>
		<g
   id="g40">
			<path
   style="fill:#2c2323"
   d="m 1791.236,152.456 c -0.188,0 -0.379,-0.017 -0.572,-0.05 -1.778,-0.315 -3.576,-0.682 -5.343,-1.09 -1.753,-0.405 -2.847,-2.156 -2.441,-3.91 0.405,-1.752 2.159,-2.848 3.91,-2.44 1.658,0.383 3.343,0.727 5.01,1.022 1.772,0.314 2.955,2.005 2.642,3.777 -0.28,1.58 -1.655,2.691 -3.206,2.691 z"
   id="path39" />
		</g>
		<g
   id="g41">
			<path
   style="fill:#2c2323"
   d="m 1809.637,127.883 c -0.549,0 -1.104,-0.139 -1.614,-0.43 -1.563,-0.893 -2.106,-2.883 -1.213,-4.446 1.096,-1.918 2.129,-4.027 3.071,-6.268 0.696,-1.659 2.606,-2.44 4.266,-1.743 1.66,0.697 2.44,2.607 1.743,4.267 -1.043,2.484 -2.194,4.831 -3.419,6.977 -0.603,1.053 -1.703,1.643 -2.834,1.643 z"
   id="path40" />
		</g>
		<g
   id="g42">
			<path
   style="fill:#2c2323"
   d="m 1585.623,438.087 c -5.772,0 -11.478,-0.331 -17.08,-1.001 -66.947,-7.988 -118.502,-61.535 -112.577,-116.931 5.719,-53.493 49.017,-102.744 105.294,-119.771 41.804,-12.648 70.914,-9.522 85.638,-6.044 13.815,-17.902 47.594,-37.232 80.668,-24.62 18.519,7.068 31.496,21.472 34.716,38.531 3.368,17.85 -3.819,36.221 -20.261,51.954 4.57,9.932 19.986,50.088 -5.698,93.999 -14.429,24.669 -39.704,47.663 -69.344,63.088 -26.177,13.622 -54.494,20.795 -81.356,20.795 z m 32.59,-240.315 c -14.412,0 -32.838,2.126 -55.067,8.852 -53.842,16.29 -95.251,63.261 -100.701,114.225 -5.552,51.925 43.388,102.192 106.87,109.766 5.573,0.666 11.154,0.986 16.711,0.986 61.383,0.002 120.276,-38.984 144.669,-80.688 27.182,-46.471 4.695,-89.474 4.466,-89.903 -0.708,-1.318 -0.428,-2.948 0.679,-3.953 15.973,-14.515 23.089,-31.418 20.036,-47.596 -2.797,-14.816 -14.248,-27.396 -30.635,-33.65 -30.959,-11.805 -62.664,7.396 -74.343,24.087 -0.783,1.118 -2.179,1.633 -3.497,1.285 -6.312,-1.656 -16.094,-3.411 -29.188,-3.411 z"
   id="path41" />
		</g>
		<g
   id="g43">
			<path
   style="fill:#2c2323"
   d="m 1644.107,208.745 c -0.397,0 -0.801,-0.073 -1.193,-0.227 -1.674,-0.659 -2.498,-2.552 -1.838,-4.227 1.043,-2.647 2.551,-5.385 4.486,-8.136 1.035,-1.472 3.068,-1.826 4.54,-0.792 1.473,1.036 1.827,3.068 0.792,4.54 -1.637,2.329 -2.9,4.609 -3.753,6.776 -0.506,1.283 -1.735,2.066 -3.034,2.066 z"
   id="path42" />
		</g>
	</g></g></svg>
