<?xml version="1.0" encoding="UTF-8" standalone="no"?>
<!-- Created with Inkscape (http://www.inkscape.org/) -->

<svg
   width="134.43924mm"
   height="138.99341mm"
   viewBox="0 0 134.43924 138.99341"
   version="1.1"
   id="svg1"
   xml:space="preserve"
   xmlns="http://www.w3.org/2000/svg"
   xmlns:svg="http://www.w3.org/2000/svg"><defs
     id="defs1" /><g
     id="layer1"
     transform="translate(108.71285,-18.796688)"><g
       id="g251"
       transform="matrix(0.26458333,0,0,0.26458333,-139.7,-150.01875)">
		<g
   id="g236">
			<path
   style="fill:#2c2323"
   d="m 149.662,1060.836 c -8.999,0 -16.012,-2.375 -21.337,-7.203 -7.53,-6.827 -11.091,-18.22 -11.207,-35.852 -0.183,-27.893 20.282,-49.819 40.646,-59.175 5.997,-2.755 11.307,-4.034 16.443,-5.269 11.737,-2.826 25.041,-6.027 54.525,-28.627 39.449,-30.238 74.491,-76.226 118.857,-134.449 3.644,-4.783 7.353,-9.649 11.132,-14.598 24.6,-32.206 35.227,-53.308 43.767,-70.264 8.624,-17.124 15.436,-30.65 32.325,-45.662 24.131,-21.45 48.986,-24.354 64.202,-19.919 10.34,3.015 17.706,9.795 20.208,18.602 0.518,1.82 0.218,3.776 -0.82,5.358 l -150.381,229.14 c -0.414,0.631 -0.934,1.185 -1.538,1.638 l -149.528,112.177 c -5.836,8.321 -37.308,51.589 -61.991,53.85 -1.838,0.169 -3.606,0.253 -5.303,0.253 z m 336.23,-409.742 c -11.519,0 -27.027,4.706 -42.418,18.387 -15.026,13.357 -20.722,24.665 -29.342,41.781 -8.783,17.44 -19.713,39.143 -45.049,72.314 -3.777,4.944 -7.482,9.807 -11.123,14.585 -44.956,58.997 -80.465,105.597 -121.297,136.894 -31.677,24.281 -47.051,27.982 -59.404,30.955 -4.942,1.189 -9.21,2.216 -14.051,4.441 -16.557,7.607 -33.199,25.165 -33.053,47.243 0.089,13.539 2.355,22.135 6.927,26.281 3.475,3.15 8.935,4.334 16.697,3.626 14.881,-1.362 40.447,-30.873 53.066,-49.154 0.399,-0.579 0.89,-1.089 1.453,-1.511 L 357.75,884.813 505.632,659.481 c -2.446,-4.274 -7.3,-6.283 -10.265,-7.148 -2.688,-0.783 -5.889,-1.239 -9.475,-1.239 z"
   id="path235" />
		</g>
		<g
   id="g237">
			<path
   style="fill:#e9ca70"
   d="m 512.954,660.203 c -5.508,-19.389 -42.082,-23.795 -73.809,4.407 -31.727,28.202 -25.007,49.243 -75.242,115.011 -50.234,65.768 -87.8,116.994 -131.205,150.263 -43.404,33.269 -53.87,26.219 -72.212,34.646 -18.342,8.427 -37.015,28.092 -36.85,53.209 0.165,25.117 7.271,38.502 30.736,36.354 23.465,-2.148 57.836,-51.942 57.836,-51.942 L 362.574,889.344 Z"
   id="path236" />
		</g>
		<g
   style="opacity:0.35"
   id="g238">
			<path
   style="fill:#ffffff"
   d="m 512.039,657.728 c -14.613,-1.968 -34.415,3.481 -52.626,19.658 -31.73,28.21 -25.003,49.25 -75.244,115.017 -50.228,65.767 -87.798,116.985 -131.207,150.253 -43.397,33.281 -53.865,26.228 -72.206,34.65 -18.342,8.434 -37.009,28.093 -36.853,53.213 0.065,9.764 1.186,17.755 3.911,23.752 -18.264,-0.834 -24.025,-13.922 -24.182,-36.527 -0.156,-25.12 18.511,-44.792 36.853,-53.213 18.342,-8.434 28.81,-1.382 72.219,-34.65 43.397,-33.268 80.967,-84.499 131.194,-150.266 50.241,-65.767 43.514,-86.807 75.244,-115.004 30.335,-26.972 65.102,-24.117 72.897,-6.883 z"
   id="path237" />
		</g>
		<g
   id="g239">
			<path
   style="fill:#2c2323"
   d="m 199.91,1159.027 c -14.215,0 -27.615,-3.854 -38.215,-11.203 -14.076,-9.76 -23.288,-25.554 -26.642,-45.676 -7.545,-45.268 11.707,-88.161 47.905,-106.734 28.393,-14.568 78.823,-51.516 135.214,-111.527 l 4.75,4.463 -4.75,-4.463 c 48.752,-51.882 102.068,-111.601 127.859,-161.148 5.524,-10.612 9.691,-19.294 13.368,-26.953 12.804,-26.676 18.104,-37.717 42.557,-44.508 30.574,-8.496 69.781,3.293 83.898,25.225 11.769,18.284 5.818,51.703 -18.726,105.173 -19.876,43.303 -78.162,136.918 -157.268,217.332 -67.704,68.824 -159.204,151.626 -194.254,158.479 -5.274,1.032 -10.54,1.539 -15.696,1.54 z M 522.944,661.595 c -6.047,0 -11.994,0.715 -17.499,2.244 -18.751,5.208 -21.735,11.425 -34.294,37.589 -3.535,7.365 -7.935,16.531 -13.557,27.331 -26.524,50.954 -80.561,111.525 -129.923,164.055 -57.528,61.221 -109.401,99.133 -138.762,114.198 -31.13,15.973 -47.606,53.343 -40.997,92.992 2.801,16.806 9.937,29.289 21.21,37.107 11.569,8.021 27.599,10.788 43.982,7.582 25.627,-5.011 102.715,-68.677 187.463,-154.826 77.931,-79.219 135.221,-171.159 154.714,-213.628 21.895,-47.699 28.493,-78.881 19.611,-92.68 -8.513,-13.226 -30.815,-21.964 -51.948,-21.964 z"
   id="path238" />
		</g>
		<g
   id="g240">
			<path
   style="fill:#dc7056"
   d="m 322.922,888.351 c 54.411,-57.904 103.774,-114.35 128.891,-162.601 25.117,-48.252 24.126,-60.48 51.887,-68.191 27.761,-7.711 64.336,3.305 76.674,22.473 12.338,19.168 -0.661,58.607 -19.168,98.927 -18.508,40.32 -76.013,134.179 -155.992,215.48 -79.979,81.301 -161.279,150.869 -190.858,156.652 -29.579,5.784 -65.382,-5.068 -72.873,-50.014 -7.491,-44.947 12.889,-83.669 44.451,-99.863 31.561,-16.194 82.946,-55.352 136.988,-112.863 z"
   id="path239" />
		</g>
		<g
   style="opacity:0.25"
   id="g241">
			<path
   style="fill:#ffffff"
   d="m 576.711,675.326 c -16.79,-7.965 -39.095,-10.898 -57.593,-5.866 -28.366,7.704 -27.363,19.932 -53.017,68.191 -25.668,48.246 -76.104,104.692 -131.703,162.598 -55.207,57.515 -107.716,96.662 -139.968,112.866 -32.238,16.191 -53.07,54.908 -45.417,99.856 1.33,7.796 3.533,14.561 6.414,20.401 -6.661,-7.874 -11.641,-18.472 -13.949,-32.29 -7.483,-44.948 12.893,-83.678 44.453,-99.869 31.56,-16.191 82.948,-55.351 136.995,-112.866 54.412,-57.906 103.767,-114.352 128.887,-162.598 25.12,-48.246 24.13,-60.474 51.883,-68.191 25.407,-7.065 58.18,1.565 73.015,17.768 z"
   id="path240" />
		</g>
		<g
   id="g242">
			<path
   style="fill:#2c2323"
   d="m 256.485,1058.987 c -2.869,0 -5.699,-0.765 -8.184,-2.211 -22.787,-13.247 -36.391,-34.375 -38.303,-59.487 -1.768,-23.212 7.406,-47.164 22.828,-59.6 26.93,-21.719 54.345,-17.723 81.481,11.875 14.233,15.522 37.4,16.607 53.885,2.522 6.726,-5.747 10.13,-12.357 9.584,-18.613 -0.565,-6.47 -5.262,-12.619 -13.226,-17.316 -18.933,-11.165 -54.176,-31.949 -33.725,-71.338 7.656,-14.744 19.846,-24.381 34.324,-27.136 16.109,-3.059 33.431,2.608 48.779,15.962 8.524,7.416 18.337,11.061 27.633,10.285 9.201,-0.774 18.027,-6.015 25.526,-15.156 3.093,-3.771 6.566,-9.14 5.541,-13.306 -1.051,-4.276 -7.892,-11.653 -23.712,-18.369 -17.333,-7.359 -53.401,-22.672 -38.939,-64.451 4.277,-12.353 13.669,-21.052 27.16,-25.155 24.777,-7.538 57.083,2.7 74.9,16.163 3.473,2.623 5.716,6.442 6.316,10.753 0.6,4.311 -0.514,8.598 -3.138,12.07 -2.622,3.472 -6.442,5.717 -10.753,6.316 -4.316,0.602 -8.598,-0.514 -12.07,-3.138 -12.522,-9.461 -33.908,-14.595 -45.771,-10.986 -4.177,1.271 -5.3,3.057 -5.846,4.636 -3.278,9.471 -4.505,13.014 20.879,23.792 23.844,10.124 38.583,24.158 42.622,40.585 3.407,13.855 -0.627,27.905 -11.991,41.758 -13.216,16.11 -29.811,25.434 -47.991,26.963 -18.152,1.524 -36.533,-4.929 -51.756,-18.173 -7.54,-6.561 -15.305,-9.675 -21.301,-8.532 -5.708,1.085 -9.398,6.111 -11.488,10.136 -4.272,8.229 -6.223,11.984 21.357,28.25 17.283,10.193 27.63,25.305 29.137,42.552 1.488,17.034 -5.928,33.451 -20.88,46.226 -29.635,25.316 -73.154,22.998 -99.077,-5.276 -18.772,-20.476 -27.176,-16.452 -37.001,-8.53 -6.032,4.865 -11.864,17.648 -10.79,31.757 0.759,9.971 5.225,23.926 22.191,33.791 3.762,2.187 6.449,5.71 7.563,9.916 1.114,4.209 0.523,8.598 -1.666,12.36 -2.91,4.999 -8.312,8.105 -14.098,8.105 z m 10.824,-122.034 c -8.678,0 -17.328,3.646 -26.302,10.883 -12.23,9.863 -19.469,29.339 -18.013,48.463 1.577,20.704 12.892,38.181 31.861,49.209 1.543,0.897 3.577,0.332 4.456,-1.18 0.59,-1.015 0.462,-1.983 0.333,-2.471 -0.129,-0.486 -0.497,-1.393 -1.513,-1.983 -21.863,-12.711 -27.64,-30.982 -28.637,-44.07 -1.495,-19.62 7.041,-35.988 15.604,-42.894 18.435,-14.868 34.821,-11.917 54.793,9.868 21.153,23.073 56.733,24.907 81,4.174 11.662,-9.964 17.473,-22.458 16.362,-35.18 -1.13,-12.936 -9.217,-24.464 -22.773,-32.458 -26.428,-15.585 -36.498,-25.852 -26.304,-45.485 4.904,-9.447 12.037,-15.303 20.625,-16.937 10.093,-1.916 21.561,2.17 32.29,11.505 12.543,10.913 27.497,16.25 42.108,15.018 14.588,-1.227 28.076,-8.918 39.005,-22.24 8.618,-10.506 11.784,-20.727 9.41,-30.378 -3.02,-12.282 -15.142,-23.243 -35.058,-31.698 -25.302,-10.744 -35.365,-19.077 -28.103,-40.056 2.175,-6.284 7.011,-10.605 14.372,-12.844 15.779,-4.799 41.54,1.057 57.423,13.057 0.937,0.708 1.915,0.698 2.414,0.628 0.499,-0.069 1.442,-0.326 2.149,-1.262 0.709,-0.938 0.698,-1.916 0.629,-2.415 -0.069,-0.5 -0.326,-1.442 -1.263,-2.15 -15.128,-11.431 -43.609,-20.067 -63.248,-14.093 -9.47,2.881 -15.739,8.583 -18.635,16.949 -9.678,27.957 9.479,38.746 31.715,48.186 17.695,7.513 28.802,17.193 31.276,27.256 1.857,7.549 -0.876,15.855 -8.121,24.688 -9.785,11.928 -21.719,18.803 -34.512,19.879 -12.828,1.089 -26.078,-3.692 -37.283,-13.441 -12.271,-10.675 -25.693,-15.288 -37.788,-12.99 -10.468,1.992 -19.415,9.214 -25.19,20.336 -13.649,26.288 4.958,40.055 28.778,54.103 11.692,6.896 18.65,16.63 19.59,27.41 0.923,10.566 -4.085,21.099 -14.102,29.658 -21.943,18.747 -52.879,17.187 -71.961,-3.623 -13.138,-14.333 -25.289,-21.422 -37.387,-21.422 z"
   id="path241" />
		</g>
		<g
   id="g243">
			<path
   style="fill:#fece60"
   d="m 510.019,742.553 c -3.259,4.302 -9.386,5.162 -13.701,1.903 -14.17,-10.716 -37.804,-16.217 -51.597,-12.019 -5.332,1.616 -8.63,4.471 -10.103,8.734 -5.293,15.265 -0.704,21.236 24.482,31.925 21.887,9.295 35.314,21.796 38.847,36.149 2.881,11.745 -0.717,23.882 -10.703,36.058 -12.071,14.718 -27.115,23.23 -43.501,24.612 -16.373,1.369 -33.046,-4.523 -46.93,-16.595 -9.19,-8.004 -18.707,-11.563 -26.789,-10.025 -8.291,1.577 -13.31,8.226 -16.06,13.531 -6.922,13.323 -4.536,20.141 23.83,36.879 15.422,9.086 24.638,22.409 25.955,37.505 1.304,14.874 -5.319,29.331 -18.628,40.698 -26.945,23.021 -66.497,20.949 -90.027,-4.732 -20.284,-22.122 -32.603,-19.919 -45.9,-9.19 -7.509,6.049 -14.457,20.819 -13.205,37.322 0.886,11.524 6.01,27.636 25.42,38.925 4.667,2.725 6.257,8.708 3.533,13.375 -1.812,3.116 -5.084,4.863 -8.46,4.863 -1.669,0 -3.35,-0.43 -4.901,-1.33 -18.081,-10.507 -29.839,-26.385 -33.802,-45.313 -0.613,-2.946 -1.043,-5.958 -1.277,-9.034 -1.617,-21.17 6.596,-42.888 20.414,-54.034 20.766,-16.751 41.272,-16.347 62.364,1.356 0.287,0.222 0.574,0.443 0.847,0.704 0.704,0.613 1.408,1.225 2.112,1.877 2.412,2.203 4.836,4.628 7.261,7.274 16.66,18.159 43.71,19.489 62.925,3.076 8.369,-7.157 12.58,-15.734 11.85,-24.143 -0.756,-8.63 -6.583,-16.569 -16.412,-22.357 -6.231,-3.676 -13.479,-7.952 -19.867,-13.18 -13.597,-11.094 -23.361,-26.489 -11.38,-49.55 6.714,-12.932 17.273,-21.366 29.748,-23.738 11.784,-2.229 24.456,0.991 36.357,9.125 0.287,0.195 0.573,0.378 0.86,0.587 0.104,0.065 0.196,0.13 0.287,0.195 1.955,1.395 3.885,2.92 5.788,4.576 9.855,8.578 21.392,12.788 32.447,11.863 11.002,-0.926 21.379,-6.987 30.022,-17.52 5.879,-7.157 8.174,-13.544 6.831,-18.994 -1.916,-7.795 -11.693,-15.995 -26.867,-22.539 -0.209,-0.091 -0.417,-0.182 -0.626,-0.274 -17.872,-7.587 -47.79,-20.297 -35.328,-56.315 3.572,-10.298 11.485,-17.586 22.904,-21.053 9.595,-2.92 20.819,-2.803 31.821,-0.691 0.026,0.013 0.052,0.013 0.078,0.013 1.33,0.261 2.672,0.547 3.989,0.847 0.026,0.013 0.052,0.013 0.078,0.026 12.619,3.011 24.599,8.512 33.098,14.926 4.314,3.26 5.162,9.387 1.916,13.702 z"
   id="path242" />
		</g>
		<g
   style="opacity:0.4"
   id="g244">
			<path
   style="fill:#ffffff"
   d="m 426.367,745.577 c -3.65,19.593 14.418,30.491 25.72,45.796 -0.209,-0.091 -0.417,-0.182 -0.626,-0.274 -17.872,-7.587 -47.79,-20.297 -35.328,-56.315 3.572,-10.298 11.485,-17.586 22.904,-21.053 9.595,-2.92 20.819,-2.803 31.821,-0.691 -22.33,-3.611 -40.594,11.68 -44.491,32.537 z"
   id="path243" />
		</g>
		<g
   style="opacity:0.4"
   id="g245">
			<path
   style="fill:#ffffff"
   d="m 402.719,833.206 c -18.303,-11.967 -45.157,-4.341 -55.833,18.954 -8.109,17.703 -7.365,33.112 1.108,45.209 -13.597,-11.094 -23.361,-26.489 -11.38,-49.55 6.714,-12.932 17.273,-21.366 29.748,-23.738 11.784,-2.23 24.456,0.99 36.357,9.125 z"
   id="path244" />
		</g>
		<g
   style="opacity:0.4"
   id="g246">
			<path
   style="fill:#ffffff"
   d="m 299.279,944.116 c -18.928,-15.057 -43.384,-6.427 -57.984,7.861 -10.768,10.533 -21.47,32.029 -23.517,53.852 -0.613,-2.946 -1.043,-5.958 -1.277,-9.034 -1.617,-21.17 6.596,-42.888 20.414,-54.034 20.766,-16.752 41.271,-16.348 62.364,1.355 z"
   id="path245" />
		</g>
		<g
   id="g247">
			<path
   style="fill:#2c2323"
   d="m 249.683,1163.372 c -1.929,0 -3.785,-0.098 -5.575,-0.293 -27.629,-3.015 -63.261,-37.606 -67.792,-77.685 -5.192,-45.932 22.388,-65.114 46.996,-76.694 C 250.615,995.853 338,927.177 382.826,876.75 l 1.401,-1.577 c 42.96,-48.324 68.89,-77.492 89.412,-122.703 1.202,-2.65 2.362,-5.218 3.484,-7.704 18.551,-41.103 28.77,-63.745 65.278,-67.904 18.194,-2.068 36.689,4.849 52.077,19.49 13.947,13.27 24.302,32.048 28.407,51.519 8.31,39.414 -4.596,106.098 -52.162,166.228 l -3.749,4.74 c -46.301,58.566 -94.178,119.125 -173.033,173.719 -70.285,48.657 -115.295,70.814 -144.258,70.814 z M 392.569,885.41 c -47.247,53.151 -135.451,121.789 -163.706,135.086 -31.537,14.84 -43.008,33.219 -39.593,63.433 4.132,36.552 36.594,64.044 56.253,66.19 24.957,2.729 69.773,-18.972 140.998,-68.282 77.256,-53.485 124.52,-113.269 170.227,-171.084 l 3.751,-4.743 c 44.703,-56.511 57.063,-120.195 49.63,-155.45 -6.762,-32.074 -34.021,-64.416 -66.253,-60.747 -29.149,3.321 -36.679,20.006 -54.871,60.315 -1.126,2.495 -2.289,5.071 -3.496,7.729 -21.337,47.01 -47.761,76.733 -91.538,125.977 z"
   id="path246" />
		</g>
		<g
   id="g248">
			<path
   style="fill:#e9ca70"
   d="m 565.617,910.053 c -46.721,59.053 -95.189,121.626 -175.386,177.146 -80.198,55.521 -121.183,72.05 -145.417,69.404 -7.587,-0.834 -16.06,-4.458 -24.273,-10.22 -18.055,-12.645 -34.793,-35.601 -37.752,-61.725 -0.378,-3.285 -0.561,-6.427 -0.574,-9.438 -0.274,-31.782 18.211,-48.546 43.879,-60.617 28.08,-13.219 115.525,-81.684 161.607,-133.515 44.726,-50.332 70.72,-79.324 91.878,-125.928 21.144,-46.591 28.744,-67.852 63.564,-71.828 15.943,-1.812 31.039,4.172 43.475,14.718 2.907,2.451 5.658,5.162 8.239,8.069 h 0.013 c 10.533,11.876 18.277,27.167 21.64,43.097 7.704,36.578 -4.185,101.784 -50.893,160.837 z"
   id="path247" />
		</g>
		<g
   style="opacity:0.25"
   id="g249">
			<path
   d="m 565.617,910.053 c -46.721,59.053 -95.189,121.626 -175.386,177.146 -80.198,55.521 -121.183,72.05 -145.417,69.404 -7.587,-0.834 -16.06,-4.458 -24.273,-10.22 27.597,-0.469 60.07,-17.338 102.711,-44.205 66.093,-41.637 141.454,-107.078 205.565,-195.644 64.111,-88.58 88.906,-172.858 66.014,-200.429 0,0 0.013,0 0.026,0.013 h 0.013 c 10.533,11.876 18.277,27.167 21.64,43.097 7.704,36.579 -4.185,101.785 -50.893,160.838 z"
   id="path248" />
		</g>
		<g
   style="opacity:0.35"
   id="g250">
			<path
   style="fill:#ffffff"
   d="m 586.618,698.048 c -31.586,-25.733 -52.287,1.812 -81.814,73.64 -29.527,71.828 -106.856,163.928 -197.417,230.02 -66.823,48.768 -103.415,57.958 -125.172,73.51 -0.274,-31.782 18.211,-48.546 43.879,-60.617 28.08,-13.219 115.525,-81.684 161.607,-133.515 44.726,-50.332 70.72,-79.324 91.878,-125.928 21.144,-46.591 28.744,-67.852 63.564,-71.828 15.943,-1.811 31.039,4.172 43.475,14.718 z"
   id="path249" />
		</g>
	</g></g></svg>
