<?xml version="1.0" encoding="UTF-8" standalone="no"?>
<!-- Created with Inkscape (http://www.inkscape.org/) -->

<svg
   width="45.651543mm"
   height="18.431677mm"
   viewBox="0 0 45.651543 18.431677"
   version="1.1"
   id="svg1"
   xml:space="preserve"
   xmlns="http://www.w3.org/2000/svg"
   xmlns:svg="http://www.w3.org/2000/svg"><defs
     id="defs1" /><g
     id="layer1"
     transform="translate(-342.9233,-135.73853)"><g
       id="g495"
       transform="matrix(0.26458333,0,0,0.26458333,234.86008,81.516667)">
			<path
   style="fill:#6cb8e2"
   d="m 512.73,220.909 c 0.147,0.058 0.294,0.056 0.441,-0.007 0.297,-0.019 0.559,0.09 0.821,0.203 l 0.057,0.011 c 0.366,0.237 0.82,-0.061 1.186,0.176 l 0.01,0.002 c 0.641,0.177 1.314,0.229 1.938,0.47 l -10e-4,-0.002 c 0.395,0.18 0.863,-0.102 1.242,0.177 l -0.031,-0.007 c 0.666,0.118 1.342,0.198 1.971,0.462 l -0.026,-0.015 c 0.257,0.056 0.483,0.191 0.734,0.263 l 0.035,0.007 c 0.369,0.255 0.835,-0.045 1.207,0.194 l -0.018,-0.005 c 0.399,0.181 0.868,-0.095 1.253,0.172 l -0.039,-0.019 c 0.258,0.05 0.484,0.189 0.738,0.25 l 0.046,0.011 c 0.36,0.268 0.841,-0.048 1.199,0.229 l -0.033,-0.009 c 0.408,0.149 0.88,-0.125 1.265,0.173 l -0.046,-0.028 c 0.274,0.03 0.505,0.172 0.754,0.267 l 0.01,0.002 c 0.381,0.227 0.851,-0.064 1.228,0.191 l -0.028,-0.006 c 0.657,0.151 1.335,0.225 1.969,0.466 l -0.02,-0.006 c 0.401,0.176 0.869,-0.098 1.257,0.169 l -0.034,-0.009 c 0.407,0.151 0.88,-0.126 1.263,0.178 l -0.047,-0.029 c 0.281,0.04 0.527,0.161 0.755,0.32 l -0.025,-0.006 c 0.405,0.158 0.878,-0.118 1.262,0.176 l -0.045,-0.027 c 0.271,0.033 0.502,0.175 0.752,0.265 l 0.015,0.003 c 0.379,0.233 0.846,-0.057 1.223,0.185 l -0.022,-0.005 c 0.652,0.165 1.328,0.236 1.964,0.466 l -0.014,-0.004 c 0.397,0.186 0.865,-0.091 1.251,0.172 l -0.037,-0.017 c 0.238,0.078 0.475,0.159 0.712,0.242 0.135,0.056 0.267,0.048 0.396,-0.025 0.325,-0.029 0.607,0.08 0.869,0.256 l -0.021,-0.003 c 0.402,0.166 0.876,-0.115 1.256,0.184 l -0.039,-0.006 c 0.664,0.106 1.365,0.048 1.973,0.406 l 0.012,0.001 c 0.384,0.204 0.851,-0.086 1.223,0.187 l -0.02,-0.013 c 0.262,0.048 0.491,0.176 0.727,0.287 l 0.02,0.005 c 0.81,0.151 1.681,-0.111 2.448,0.329 l -0.015,-0.013 c 0.244,0.074 0.481,0.165 0.71,0.275 l 0.054,0.018 c 0.766,0.227 1.598,0.349 1.974,1.197 0.221,0.812 0.233,1.614 -0.136,2.401 -0.855,1.28 -2.262,1.856 -3.499,2.64 -4.175,2.646 -6.431,6.227 -5.836,11.229 -0.027,1.717 1.221,3.16 1.034,4.91 -0.208,0.766 -0.83,1.027 -1.492,0.911 -5.766,-1.009 -11.643,-1.532 -17.193,-3.518 -0.848,-1.557 -2.096,-3.025 -1.103,-5.002 0.194,-0.386 0.168,-0.961 0.759,-1.005 0.535,-0.04 0.781,0.402 1.003,0.792 0.313,0.551 0.563,1.134 0.916,1.667 0.822,1.242 6.808,3.283 8.212,2.785 1.49,-0.528 1.762,-2.263 0.671,-4.259 -0.196,0.077 -0.364,0.18 -0.492,0.348 -0.102,0.282 -0.033,0.549 0.001,0.816 0.16,1.256 -0.015,2.472 -1.341,2.978 -1.318,0.502 -2.245,-0.471 -3.108,-1.257 -0.472,-0.43 -0.637,-1.084 -0.784,-1.707 -0.068,-0.244 -0.118,-0.492 -0.167,-0.739 -0.133,-0.637 -0.631,-1.127 -0.791,-1.723 -0.516,-1.931 -1.436,-2.717 -3.603,-1.93 -1.314,0.477 -2.737,-0.04 -3.917,-0.87 -0.991,-0.697 -2.076,-1.111 -3.313,-1.214 -2.322,-0.195 -2.598,-0.934 -1.186,-2.988 -0.921,0.078 -1.51,1.837 -2.498,0.835 -0.989,-1.002 -1.865,-2.35 -1.562,-3.913 0.503,-2.589 -0.372,-5.565 2.197,-7.61 0.34,-0.271 0.27,-0.662 -0.047,-0.945 -0.563,-0.503 -1.196,-0.216 -1.835,-0.158 -0.706,0.064 -0.385,0.423 -0.297,0.7 0.944,2.997 -1.455,5.059 -2.363,7.512 -0.348,0.942 -1.508,0.033 -1.565,-0.526 -0.23,-2.25 -2.251,-4.527 0.155,-6.806 0.815,-0.772 0.065,-1.94 0.309,-2.907 0.082,-0.264 0.238,-0.475 0.464,-0.637 0.265,-0.077 0.534,-0.099 0.807,-0.066 0.141,0.062 0.284,0.064 0.429,0.005 0.312,-0.028 0.584,0.077 0.837,0.241 l 0.011,0.005 c 0.214,0.083 0.437,0.157 0.664,0.219 z"
   id="path351" />
			<path
   style="fill:#6fbae3"
   d="m 424.029,206.162 c 0.165,0.01 0.313,-0.037 0.443,-0.14 0.375,0.064 0.795,0.032 1.018,0.435 -0.521,1.978 1.789,3.549 0.765,5.655 -0.147,0.301 0.215,-0.062 0.256,-0.113 0.605,-0.765 1.852,0.862 2.238,-0.603 0.163,-0.619 0.324,-1.218 0.9,-1.607 0.255,-0.094 0.5,-0.079 0.735,0.055 1.216,1.508 3.631,1.828 4.09,4.15 0.137,0.693 1.245,0.278 1.251,-0.011 0.025,-1.353 1.668,-2.044 1.38,-3.459 2.1,-0.579 2.994,0.926 2.69,2.309 -0.763,3.466 2.137,5.555 2.68,8.477 0.233,1.253 2.561,2.183 0.256,3.881 -0.52,0.383 0.276,2.38 0.944,3.49 0.815,1.355 1.359,2.759 0.871,4.38 -0.63,1.012 -1.578,0.745 -2.471,0.592 -2.619,-0.451 -5.259,-0.805 -7.817,-1.538 -3.186,-0.726 -6.508,-0.873 -9.592,-2.042 -1.244,-0.57 -2.198,-2.156 -3.925,-1.036 -0.258,0.063 -0.501,0.034 -0.73,-0.096 -0.888,-0.906 -1.252,-1.949 -0.843,-3.206 0.912,-2.801 0.16,-4.289 -2.526,-5.087 -1.827,-0.543 -3.2,-1.68 -4.245,-3.228 -0.284,-0.57 0.006,-1.004 0.363,-1.422 l -0.013,0.014 c 0.087,-0.259 0.196,-0.508 0.376,-0.721 l -0.016,0.034 c 0.064,-0.272 0.182,-0.519 0.365,-0.735 l -0.018,0.045 c 0.084,-0.45 0.668,-0.508 0.768,-0.945 l 0.029,-0.037 c 0.163,-0.204 0.25,-0.454 0.41,-0.66 l -0.017,0.034 c 0.126,-0.438 0.677,-0.509 0.825,-0.927 l 0.008,-0.01 c 0.134,-0.229 0.225,-0.484 0.409,-0.684 l -0.019,0.046 c 0.117,-0.464 0.658,-0.548 0.863,-0.933 l -0.017,0.022 c 0.156,-0.44 0.671,-0.534 0.898,-0.905 l -0.023,0.03 c 0.217,-0.68 1.121,-0.513 1.404,-1.112 l -0.021,0.025 c 0.411,-0.827 1.536,-0.571 2.01,-1.302 0.312,-0.131 0.623,-0.262 0.935,-0.392 0.588,-0.59 1.271,-0.891 2.113,-0.723 z"
   id="path352" />
			<path
   style="fill:#f5d289"
   d="m 543.653,251.243 c -0.384,-1.107 -0.826,-2.198 -1.13,-3.326 -0.181,-0.671 -0.144,-1.401 -0.206,-2.104 0.394,0.136 0.535,0.458 0.618,0.823 0.068,-0.184 0.016,-0.372 -0.002,-0.551 -0.161,-1.616 1.047,-2.461 2.026,-3.416 2.514,-2.454 5.682,-3.775 8.898,-4.998 0.233,-0.058 0.475,-0.087 0.714,-0.096 0.334,-0.004 0.674,0.002 0.99,-0.144 1.006,-1.241 0.381,-2.555 0.245,-3.843 -0.007,-0.263 0.044,-0.515 0.141,-0.76 0.202,-0.216 0.422,-0.25 0.664,-0.072 0.042,0.159 0.118,0.3 0.228,0.423 0.377,0.202 0.435,0.702 0.841,0.878 0.093,0.158 0.186,0.317 0.28,0.475 0.207,0.154 0.444,0.27 0.62,0.465 0.144,0.298 0.288,0.597 0.431,0.895 0.225,0.14 0.461,0.265 0.646,0.458 0.026,0.149 0.091,0.279 0.195,0.389 0.414,0.197 0.488,0.704 0.872,0.929 0.041,0.161 0.116,0.304 0.225,0.43 0.383,0.195 0.451,0.688 0.847,0.871 l -0.015,-0.004 c 0.759,0.127 0.583,1.008 1.1,1.331 l 0.002,0.003 c 0.976,0.464 1.286,1.502 1.964,2.221 0.091,0.164 0.183,0.329 0.274,0.493 0.21,0.15 0.443,0.268 0.625,0.454 0.03,0.152 0.099,0.284 0.208,0.395 0.397,0.188 0.452,0.702 0.861,0.878 0.053,0.177 0.141,0.336 0.262,0.476 0.218,0.144 0.452,0.266 0.637,0.454 0.035,0.152 0.107,0.283 0.216,0.394 0.391,0.197 0.451,0.702 0.853,0.889 0.058,0.173 0.148,0.328 0.27,0.464 0.212,0.147 0.445,0.267 0.629,0.451 0.03,0.152 0.098,0.284 0.204,0.397 0.394,0.184 0.457,0.689 0.862,0.862 l -0.011,-0.007 c 0.408,0.189 0.574,0.518 0.559,0.952 -0.322,0.807 -1.029,1.185 -1.757,1.54 -0.866,0.238 -1.73,0.715 -2.618,0.087 -1.053,-1.321 -1.693,-2.768 -4.18,-2.246 -1.877,0.393 -2.047,-1.501 -1.593,-3.062 -4.024,0.208 -5.582,1.971 -4.017,4.747 0.805,1.231 1.342,2.593 1.957,3.917 0.043,0.262 0.029,0.523 -0.044,0.781 -2.652,1.754 -2.386,-1.186 -3.753,-2.196 0.917,1.604 -0.629,2.43 -0.76,3.673 0,0.255 -0.078,0.485 -0.218,0.697 -1.114,0.373 -1.823,-0.233 -2.238,-1.077 -1.019,-2.07 -3.223,-2.766 -4.804,-4.173 -1.712,-0.476 -2.104,-2.279 -3.324,-3.197 0.439,0.54 0.842,1.128 0.541,1.924 -0.409,0.348 -0.684,0.25 -0.835,-0.244 z"
   id="path353" />
			<path
   style="fill:#5994d8"
   d="m 431.111,254.236 c -0.121,-0.086 -0.245,-0.091 -0.374,-0.014 -0.328,0.061 -0.615,-0.059 -0.9,-0.188 l -0.014,-0.003 c -0.38,-0.227 -0.85,0.065 -1.225,-0.19 l 0.026,0.007 c -0.402,-0.167 -0.883,0.12 -1.259,-0.199 l 0.059,0.031 c -0.289,-0.014 -0.526,-0.154 -0.766,-0.29 l 0.012,0.003 c -0.396,-0.186 -0.875,0.103 -1.25,-0.2 l 0.053,0.026 c -0.268,-0.018 -0.493,-0.175 -0.753,-0.22 l -0.058,-0.009 c -0.352,-0.287 -0.824,0.03 -1.184,-0.215 l 0.021,0.008 c -0.236,-0.095 -0.475,-0.177 -0.72,-0.246 l -0.063,-0.015 c -0.349,-0.29 -0.823,0.029 -1.181,-0.219 l 0.02,0.005 c -0.55,-0.052 -1.005,-0.309 -1.432,-0.629 l -0.009,-0.004 c -0.233,-0.109 -0.46,-0.228 -0.682,-0.359 -0.216,-0.15 -0.388,-0.338 -0.522,-0.561 -0.045,-0.12 -0.086,-0.242 -0.131,-0.363 -0.269,-2.49 1.694,-4.343 2.053,-6.685 0.143,-0.934 1.048,-0.826 1.736,-0.241 0.627,0.533 1.141,1.188 2.041,1.77 0.429,-1.154 1.342,-1.945 1.709,-3.198 0.854,-2.916 1.375,-3.014 3.88,-1.1 0.197,-0.92 -0.135,-2.099 1.226,-2.418 0.263,-0.039 0.521,-0.016 0.773,0.064 0.75,0.35 0.875,1.477 1.813,1.534 2.308,0.142 2.894,1.53 2.744,3.514 -0.02,0.267 -0.067,0.535 -0.006,0.803 0.052,0.228 0.143,0.062 0.347,0.036 2.291,-0.293 3.343,1.452 4.647,2.779 -1.602,2.536 -1.206,5.639 -2.496,8.265 -0.348,0.217 -0.705,0.374 -1.115,0.171 l 0.017,0.004 c -0.398,-0.183 -0.87,0.096 -1.253,-0.179 l 0.038,0.009 c -0.667,-0.126 -1.347,-0.202 -1.978,-0.468 l 0.025,0.011 c -0.387,-0.208 -0.881,0.22 -1.234,-0.188 l 0.026,0.031 c -0.27,-0.018 -0.497,-0.174 -0.757,-0.225 l -0.049,-0.007 c -0.356,-0.279 -0.828,0.033 -1.191,-0.213 l 0.024,0.009 c -0.225,-0.087 -0.454,-0.166 -0.688,-0.234 z"
   id="path354" />
			<path
   style="fill:#5481bb"
   d="m 568.947,265.975 c -0.464,0.149 -0.927,0.299 -1.391,0.448 -0.131,-0.036 -0.262,-0.072 -0.394,-0.107 -1.118,-1.19 -2.003,-2.513 -2.397,-4.12 -0.053,-0.267 -0.078,-0.537 -0.091,-0.809 0.184,-0.818 -0.55,-1.995 0.94,-2.313 2.851,1.6 5.6,1.898 8.583,-0.061 1.497,-0.983 3.353,-1.547 5.199,-1.857 0.28,0.03 0.547,0.103 0.803,0.216 l -10e-4,-0.003 c 0.606,0.559 0.974,1.194 0.652,2.049 l 0.025,-0.06 c -0.035,0.295 -0.15,0.549 -0.39,0.742 l 0.044,-0.074 c -1.951,2.386 -5.175,2.36 -7.554,3.936 -0.312,0.128 -0.625,0.255 -0.937,0.383 -0.807,0.962 -2.273,0.69 -3.091,1.63 z"
   id="path355" />
			<path
   style="fill:#599cd9"
   d="m 579.77,257.411 c -1.455,0.558 -2.783,1.411 -4.358,1.711 -0.593,0.113 -1.145,0.572 -1.665,0.943 -2.521,1.794 -5.081,1.183 -7.613,0.181 -0.335,-0.133 -0.477,-0.729 -0.708,-1.11 -1.044,-0.883 -0.455,-1.692 0.143,-2.501 2.088,-0.862 3.621,-0.479 4.306,1.761 -0.208,-0.889 -0.479,-1.863 -0.197,-2.827 0.329,-1.125 0.642,-2.033 2.253,-1.02 1.421,0.893 3.211,0.329 4.844,0.079 0.259,0.041 0.504,0.121 0.733,0.246 l -0.01,-0.014 c 0.438,0.122 0.501,0.651 0.906,0.809 l 0.023,0.017 c 0.29,0.115 0.559,0.256 0.715,0.541 0.011,0.145 0.086,0.24 0.227,0.284 0.331,0.213 0.437,0.525 0.401,0.9 z"
   id="path356" />
			<path
   style="fill:#eac371"
   d="m 545.925,274.179 c -0.15,-0.017 -0.28,0.027 -0.389,0.131 -0.489,-0.116 -0.969,0.167 -1.458,0.051 -0.429,-0.37 -0.459,-0.834 -0.312,-1.341 0.111,-0.357 0.25,-0.704 0.396,-1.051 0.1,-0.241 0.232,-0.462 0.388,-0.672 0.614,-0.744 1.404,-1.26 2.247,-1.714 3.078,-1.242 6.152,-2.502 9.417,-3.168 1.105,-0.225 2.332,-0.301 2.887,0.91 0.348,0.76 1.362,1.727 -0.097,2.52 -4.388,1.37 -8.541,3.435 -13.079,4.334 z"
   id="path357" />
			<path
   style="fill:#60a6dd"
   d="m 577.038,254.961 c -0.691,0.257 -1.365,0.594 -2.078,0.743 -0.502,0.105 -1.162,0.125 -1.565,-0.116 -0.854,-0.511 -0.847,-0.031 -0.925,0.562 -0.015,0.114 -0.257,0.277 -0.394,0.278 -0.123,10e-4 -0.313,-0.167 -0.357,-0.298 -0.184,-0.554 0.178,-1.345 -0.669,-1.602 -0.49,-0.148 -0.878,0.689 -0.748,2.012 0.105,1.063 0.424,2.102 0.627,3.156 0.03,0.155 -0.056,0.332 -0.089,0.5 -0.248,-0.059 -0.6,-0.037 -0.723,-0.192 -0.273,-0.345 -0.401,-0.799 -0.644,-1.173 -0.436,-0.672 -0.87,-1.354 -1.387,-1.964 -0.439,-0.519 -0.907,-0.477 -1.271,0.182 -0.014,0.025 -0.611,-0.257 -0.937,-0.396 -0.273,-0.086 -0.424,-0.274 -0.473,-0.549 0.351,-2.264 1.78,-3.731 3.707,-4.829 0.673,-0.376 1.347,-0.753 2.02,-1.13 1.923,-0.007 2.807,1.458 3.89,2.643 l 0.034,0.029 c 0.27,0.132 0.537,0.268 0.696,0.539 0.008,0.144 0.08,0.243 0.215,0.297 0.226,0.12 0.443,0.255 0.651,0.404 l -0.045,-0.016 c 0.481,0.143 0.582,0.477 0.465,0.92 z"
   id="path358" />
			<path
   style="fill:#77bfe5"
   d="m 430.057,209.806 c -0.72,1.408 -0.72,1.408 -0.859,3.546 -0.589,-0.353 -1.083,-0.661 -1.589,-0.948 -0.494,-0.28 -0.632,-0.129 -0.715,0.71 -0.016,0.161 -0.115,0.315 -0.175,0.472 -0.223,-0.09 -0.553,-0.12 -0.647,-0.284 -0.172,-0.299 -0.38,-0.75 -0.267,-1.01 0.517,-1.178 0.004,-2.037 -0.612,-2.98 -0.628,-0.96 -0.663,-2.035 0.053,-3.047 0.558,-0.598 1.269,-0.79 2.058,-0.779 0.189,-0.039 0.378,-0.078 0.567,-0.117 0.244,0.126 0.337,0.323 0.284,0.589 -0.555,0.721 -0.37,1.214 0.372,1.713 0.749,0.505 1.882,0.826 1.53,2.135 z"
   id="path359" />
			<path
   style="fill:#6696c7"
   d="m 487.848,215.855 c 0.125,0.078 0.252,0.077 0.379,-10e-4 0.325,-0.051 0.609,0.067 0.888,0.202 l 0.007,10e-4 c 0.382,0.22 0.863,-0.081 1.23,0.216 l -0.048,-0.025 c 0.274,0.03 0.505,0.173 0.755,0.268 l 0.012,0.002 c 0.38,0.228 0.849,-0.062 1.226,0.188 l -0.025,-0.006 c 0.402,0.169 0.876,-0.109 1.26,0.18 l -0.049,-0.025 c 0.272,0.034 0.503,0.175 0.752,0.27 l 0.016,0.005 c 0.377,0.23 0.859,-0.075 1.224,0.22 l -0.047,-0.024 c 0.264,0.031 0.489,0.18 0.748,0.226 l 0.059,0.009 c 0.354,0.286 0.811,-0.02 1.18,0.186 l 0.008,10e-4 c 0.382,0.218 0.862,-0.081 1.23,0.211 l -0.047,-0.024 c 0.273,0.035 0.505,0.175 0.753,0.275 l 0.01,0.002 c 0.382,0.222 0.853,-0.069 1.229,0.192 l -0.029,-0.007 c 0.405,0.16 0.882,-0.121 1.262,0.187 l -0.046,-0.011 c 0.679,0.091 1.362,0.163 1.984,0.475 l -0.039,-0.012 c 0.675,0.077 1.335,0.217 1.984,0.41 l -0.003,-0.001 c 0.349,0.113 0.749,0.12 0.998,0.445 0.046,0.254 -0.011,0.482 -0.185,0.681 -1.612,0.818 -3.155,0.052 -4.724,-0.14 -0.24,-0.03 -0.478,-0.076 -0.715,-0.124 -0.708,-0.143 -1.429,-0.196 -2.15,-0.253 -0.249,-0.015 -0.493,-0.051 -0.738,-0.094 -2.913,-0.734 -5.896,-1.139 -8.838,-1.735 -0.884,-0.179 -1.835,-0.21 -2.413,-1.056 -0.155,-0.4 -0.048,-0.76 0.185,-1.1 0.203,-0.19 0.443,-0.26 0.717,-0.214 z"
   id="path360" />
			<path
   style="fill:#6fbae3"
   d="m 430.057,209.806 c -0.228,-0.656 -0.752,-0.999 -1.354,-1.276 -0.923,-0.424 -1.635,-1.094 -2.408,-1.887 0.734,-0.363 1.31,-0.649 1.886,-0.934 0.405,-0.355 0.862,-0.551 1.412,-0.455 0.18,0.027 0.351,0 0.515,-0.08 0.232,0.052 0.441,0.15 0.632,0.291 0.754,0.735 2.388,0.182 2.605,1.705 -0.305,1.841 -2.18,1.77 -3.288,2.636 z"
   id="path361" />
			<path
   style="fill:#efce8c"
   d="m 552.191,231.904 c -0.058,-0.786 -0.115,-1.572 -0.173,-2.357 0.285,-0.338 0.614,-0.455 1.014,-0.202 l -0.031,-0.022 c 0.281,0.068 0.523,0.208 0.75,0.378 0.061,0.16 0.152,0.301 0.271,0.425 0.206,0.139 0.413,0.277 0.62,0.414 0.057,0.162 0.147,0.305 0.269,0.428 0.086,0.089 0.172,0.179 0.259,0.268 -0.034,0.119 -0.067,0.238 -0.1,0.359 -0.793,0.446 -1.684,0.263 -2.525,0.408 -0.118,-0.033 -0.236,-0.066 -0.354,-0.099 z"
   id="path362" />
			<path
   style="fill:#efce8c"
   d="m 555.535,231.439 c 0.164,0.294 0.327,0.588 0.491,0.882 0.19,0.113 0.223,0.261 0.098,0.445 l -0.104,0.16 c -1.092,0.132 -1.202,-0.512 -1.083,-1.338 l 0.095,-0.145 c 0.168,-0.176 0.336,-0.186 0.503,-0.004 z"
   id="path363" />
			<path
   style="fill:#70bae3"
   d="m 501.155,219.888 c 0.171,-0.06 0.345,-0.113 0.52,-0.158 3.26,1.608 2.963,4.971 3.848,8.056 1.598,-1.637 1.067,-3.225 0.662,-4.809 -0.218,-0.853 -1.193,-1.857 0.445,-2.409 1.09,-0.168 2.129,0.072 3.163,0.345 0.202,1.244 0.447,2.484 0.584,3.736 0.051,0.469 -0.397,0.455 -0.793,0.456 -1,0.004 -1.069,0.091 -0.959,0.725 0.247,1.423 0.492,2.847 0.705,4.275 0.086,0.579 0.255,1.033 1.074,1.129 -0.118,-0.474 -0.235,-0.883 -0.32,-1.3 -0.101,-0.495 -0.032,-0.958 0.601,-0.982 0.868,-0.033 1.124,-0.416 0.97,-1.23 -0.062,-0.327 -0.051,-0.875 0.147,-1.013 1.462,-1.019 0.782,-2.171 0.343,-3.321 -0.127,-0.332 -0.27,-0.658 -0.383,-0.995 -0.019,-0.057 0.064,-0.209 0.12,-0.221 0.167,-0.037 0.362,-0.076 0.513,-0.024 0.328,0.113 0.295,0.678 1.031,0.321 1.381,-0.67 2.481,-0.162 2.832,0.988 0.087,0.283 0.032,0.697 -0.128,0.945 -0.186,0.289 -0.554,0.472 -0.854,0.685 -0.706,0.501 -1.275,1.007 -1.001,2.029 0.093,0.347 -0.303,0.808 -0.413,1.232 -0.084,0.327 -0.214,0.76 -0.073,1.001 0.423,0.725 0.327,1.448 -0.021,2.088 -0.463,0.851 -0.418,1.579 0.207,2.25 0.458,0.491 0.742,1.018 0.778,1.692 0.002,0.044 0.573,0.145 0.609,0.079 0.561,-1.029 1.407,-1.028 2.369,-0.745 0.688,0.202 1.142,0.663 0.857,0.777 -0.294,0.117 -0.675,0.017 -1.018,0.008 -0.882,-0.025 -1.135,0.41 -0.853,1.474 0.145,0.548 0.456,0.689 0.916,0.271 0.39,-0.354 0.722,-0.589 1.173,-0.255 0.579,0.429 1.029,0.906 1.942,0.776 0.413,-0.059 0.888,0.797 1.421,1.089 1.728,0.947 3.482,0.999 5.203,-0.123 0.23,-0.15 0.449,-0.322 0.693,-0.445 0.406,-0.204 1.119,0.153 1.021,0.567 -0.408,1.71 0.518,2.908 1.411,4.156 0.104,0.146 -0.08,0.493 -0.131,0.747 0.224,0.591 0.34,1.26 0.701,1.752 0.407,0.555 0.975,1.054 1.582,1.39 0.751,0.416 1.289,0.111 1.723,-0.719 0.3,-0.573 0.559,-1.042 0.068,-1.721 -0.655,-0.907 -0.008,-1.482 0.837,-1.871 0.179,-0.174 0.467,-0.526 0.52,-0.495 0.881,0.517 1.613,1.166 1.478,2.316 -0.126,1.072 -0.281,2.141 -0.442,3.209 -0.063,0.421 -0.33,0.463 -0.758,0.53 -1.573,0.246 -3.039,0.124 -4.403,-0.715 -0.308,-0.189 -0.669,-0.296 -0.974,-0.488 -0.708,-0.448 -1.256,-0.341 -1.987,0.147 -0.935,0.624 -1.258,0.387 -1.706,-0.772 -0.127,-0.328 -0.204,-0.816 -0.452,-0.934 -1.014,-0.484 -0.915,-1.464 -1.192,-2.284 -0.051,-0.153 -0.224,-0.264 -0.379,-0.438 -0.104,0.544 -0.1,1.098 -0.319,1.551 -0.45,0.929 -0.57,1.645 0.509,2.247 0.533,0.297 0.524,0.904 0.138,1.43 -0.059,0.097 -0.119,0.193 -0.178,0.291 -0.111,0.028 -0.222,0.056 -0.333,0.087 -0.23,-0.001 -0.457,-0.03 -0.683,-0.074 -0.115,-0.015 -0.227,-0.039 -0.342,-0.052 -0.477,-0.053 -0.955,-0.017 -1.435,-0.01 -8.479,-1.227 -16.85,-2.976 -25.24,-4.637 -2.345,-0.464 -4.71,-0.838 -7.082,-1.166 -2.665,-0.858 -5.729,-0.298 -8.126,-2.113 -0.06,-2.56 -1.156,-4.869 -1.749,-7.302 -0.441,-1.808 0.898,-3.236 1.172,-4.895 0.923,-0.736 1.863,-0.992 2.543,0.201 1.19,2.088 3.481,3.32 4.203,5.888 0.274,0.974 1.934,2.093 3.871,1.947 -2.193,-0.359 -2.094,-1.851 -2.092,-3.265 10e-4,-1.218 -0.047,-2.387 1.898,-2.069 0.668,0.109 0.638,-0.971 0.843,-1.551 0.311,-0.878 0.071,-2.326 1.542,-2.171 1.484,0.156 2.45,1.176 2.642,2.722 0.068,0.547 -0.144,1.079 -0.238,1.617 -0.15,0.86 -0.703,1.927 0.524,2.356 1.237,0.433 1.809,-0.551 2.325,-1.459 0.539,-0.949 0.93,-2.029 2.113,-2.434 0.561,-0.192 1.092,-0.081 1.593,0.182 0.407,0.129 1.086,0.746 0.885,-0.369 -0.122,-0.679 -0.671,-1.227 -0.937,-1.882 -0.526,-2.736 -2.044,-4.561 -4.864,-5.232 -0.833,-0.198 -1.66,-0.558 -1.514,-1.595 0.156,-1.111 0.972,-1.444 2.028,-1.291 l -10e-4,-0.002 c 0.751,0.68 1.606,0.54 2.477,0.276 z"
   id="path364" />
			<path
   style="fill:#5b8fc5"
   d="m 524.793,248.078 c 0.172,-0.066 0.345,-0.13 0.518,-0.19 2.503,0.529 4.999,1.091 7.511,1.577 3.15,0.61 6.312,1.165 9.473,1.723 0.441,0.078 0.905,0.039 1.358,0.055 0.24,0.131 0.48,0.262 0.72,0.393 0.552,0.132 0.716,0.555 0.799,1.041 0,0.243 -0.052,0.476 -0.155,0.699 -0.118,0.218 -0.256,0.422 -0.406,0.62 -0.55,0.714 -1.123,1.4 -2.116,1.507 -5.324,-0.406 -10.482,-1.704 -15.7,-2.679 -0.72,-0.134 -1.433,-0.33 -1.979,-0.866 -0.757,-1.279 -1.369,-2.563 -0.023,-3.88 z"
   id="path365" />
			<path
   style="fill:#f2cc78"
   d="m 554.922,237.908 c -1.145,0.569 -2.248,1.45 -3.447,1.62 -1.192,0.169 -2.016,0.829 -2.988,1.279 -1.187,0.549 -3.911,2.859 -4.534,3.857 -0.42,0.673 -0.623,1.476 -1.001,2.415 -0.252,-0.502 -0.443,-0.884 -0.635,-1.266 -0.726,-3.945 0.664,-7.16 3.627,-9.81 1.872,-1.674 4.015,-2.955 6.246,-4.099 l 0.023,0.052 c 0.409,1.384 0.949,2.684 1.947,3.787 0.525,0.579 1.132,1.228 0.762,2.165 z"
   id="path366" />
			<path
   style="fill:#7ea1cd"
   d="m 509.794,220.913 c -1,-0.042 -1.999,-0.083 -2.999,-0.125 -0.318,-0.061 -0.368,-0.225 -0.187,-0.48 -0.06,-0.161 -0.119,-0.322 -0.178,-0.483 0.161,-0.081 0.328,-0.147 0.501,-0.199 0.244,0.088 0.488,0.177 0.732,0.265 0.408,0.058 0.815,0.117 1.223,0.175 0.403,0.063 0.806,0.126 1.209,0.19 0.093,0.143 0.206,0.268 0.338,0.376 -0.213,0.094 -0.426,0.187 -0.639,0.281 z"
   id="path367" />
			<path
   style="fill:#67b5e1"
   d="m 444.31,233.182 c -0.095,-0.621 -0.161,-1.248 -0.295,-1.859 -0.114,-0.52 -0.163,-1.147 -0.489,-1.509 -1.313,-1.457 -1.492,-3.237 -1.638,-5.049 -0.067,-0.829 -0.076,-0.829 0.848,-0.592 0.167,0.043 0.331,0.094 0.496,0.141 0.021,-0.148 0.112,-0.341 0.05,-0.437 -0.293,-0.453 -0.678,-0.851 -0.939,-1.319 -0.686,-1.231 -1.785,-2.264 -1.555,-3.92 0.125,-0.9 -0.782,-1.316 -1.433,-1.827 -1.223,-0.958 -1.112,-1.159 -0.519,-2.279 0.444,-0.84 0.673,-1.662 0.271,-2.599 -0.427,-0.995 -1.09,-1.403 -2.169,-1.098 -1.26,-1.246 -0.026,-2.188 0.441,-3.225 1.633,-1.133 3.082,-0.086 4.588,0.319 0.245,0.098 0.479,0.219 0.707,0.348 0.227,0.121 0.443,0.263 0.654,0.41 2.856,1.68 5.563,3.5 7.422,6.351 0.339,0.52 1.735,-0.793 2.182,0.536 0.097,0.137 0.132,0.281 0.095,0.415 0.027,-0.055 0.041,-0.183 0.041,-0.406 0.006,-0.756 0.475,-1.087 1.065,-0.782 1.931,1.001 1.839,2.943 2.063,4.726 0.19,1.512 -0.816,2.071 -2.005,2.545 -2.044,0.815 -3.131,0.048 -3.567,-1.892 -0.275,0.516 0.213,1.512 -0.738,1.735 -0.808,0.19 -1.392,-0.346 -1.792,-1.003 -0.235,-0.385 -0.385,-0.842 -1,-0.681 -0.221,0.023 -0.416,-0.03 -0.579,-0.141 -0.561,1.061 0.644,2.747 -1.247,3.322 0.594,0.5 -0.792,2.776 1.58,1.701 0.472,-0.214 0.861,0.137 1.234,0.405 3.073,2.21 3.752,5.159 2.038,8.885 -2.147,0.501 -4.13,0.302 -5.81,-1.221 z"
   id="path368" />
			<path
   style="fill:#588cc1"
   d="m 444.31,233.182 c 1.864,0.396 3.702,0.935 5.64,0.91 2.453,-0.502 4.767,0.331 7.1,0.737 4.824,0.84 9.643,1.718 14.438,2.71 2.845,0.604 5.812,0.767 8.449,2.135 -0.01,1.411 -1.23,2.175 -1.835,3.271 -2.87,0.495 -5.53,-0.646 -8.301,-0.931 -4.865,-1.161 -9.831,-1.845 -14.729,-2.849 -4.585,-0.737 -9.066,-1.96 -13.662,-2.641 -1.183,-0.241 -2.366,-0.488 -3.532,-0.797 -0.222,-0.051 -0.441,-0.119 -0.657,-0.187 -0.218,-0.046 -0.436,-0.102 -0.655,-0.149 -0.224,-0.027 -0.445,-0.068 -0.667,-0.105 -0.345,-0.039 -0.69,-0.079 -1.036,-0.116 -1.078,-0.176 -2.234,-0.183 -2.9,-1.257 0.528,-1.018 1.22,-1.886 2.301,-2.389 2.82,0.524 5.638,1.057 8.461,1.562 0.517,0.092 1.056,0.067 1.585,0.096 z"
   id="path369" />
			<path
   style="fill:#71b6e2"
   d="m 410.138,221.66 c 0.093,-0.24 0.187,-0.48 0.281,-0.72 0.09,-0.245 0.179,-0.491 0.268,-0.736 0.598,-1.004 1.196,-2.008 1.793,-3.012 0.45,0.296 0.97,0.525 1.339,0.9 1.244,1.262 2.533,2.34 4.526,2.056 0.251,-0.036 0.606,0.272 0.819,0.505 0.237,0.259 0.523,0.616 0.516,0.928 -0.027,1.204 0.693,2.03 1.599,2.925 -0.452,0.319 -0.734,0.502 -0.998,0.707 -0.644,0.501 -0.957,1.098 -0.624,1.914 0.241,0.59 0.43,1.201 0.642,1.803 -0.786,0.791 -1.71,0.455 -2.56,0.259 -2.897,-0.666 -5.931,-0.78 -8.691,-1.995 -0.071,-0.176 -0.143,-0.353 -0.214,-0.53 0.072,-0.4 0.144,-0.799 0.216,-1.199 0.45,-0.572 0.626,-1.209 0.5,-1.92 0.196,-0.629 0.392,-1.257 0.588,-1.885 z"
   id="path370" />
			<path
   style="fill:#5d8ec3"
   d="m 409.047,227.192 c 0.894,0.057 1.803,0.037 2.68,0.185 2.863,0.484 5.715,1.03 8.571,1.551 0.182,-0.038 0.36,-0.087 0.535,-0.149 1.502,-0.536 2.694,0.165 3.876,0.902 3.185,0.615 6.37,1.229 9.555,1.843 -0.112,0.226 -0.305,0.448 -0.323,0.68 -0.064,0.837 -0.533,1.166 -1.33,1.251 -0.162,0.017 -0.292,0.365 -0.437,0.56 -0.316,0.303 -0.643,0.2 -0.973,0.043 -0.792,-0.619 -1.682,-0.673 -2.63,-0.401 -2.625,0.341 -5.047,-0.626 -7.519,-1.134 -3.12,-0.642 -6.247,-1.231 -9.388,-1.766 -1.096,-0.406 -2.726,-0.096 -2.75,-1.952 0.044,-0.538 0.089,-1.075 0.133,-1.613 z"
   id="path371" />
			<path
   style="fill:#76bee5"
   d="m 437.599,207.673 c 0.152,0.543 0.036,1.012 -0.349,1.449 -0.443,0.503 -0.519,1.092 -0.313,1.715 0.512,0.509 1.036,1.007 1.523,1.539 0.085,0.092 0.066,0.361 -0.01,0.488 -0.075,0.126 -0.285,0.247 -0.431,0.244 -0.268,-0.007 -0.529,-0.129 -0.799,-0.163 -0.943,-0.117 -0.961,-0.096 -0.928,1.056 0.006,0.227 -0.079,0.457 -0.121,0.686 -0.687,-0.389 -0.808,0.543 -1.346,0.568 -0.59,0.028 -1.136,-0.264 -1.246,-0.818 -0.052,-0.26 -0.034,-0.538 -0.022,-0.807 0.04,-0.853 -0.369,-1.458 -1.198,-1.533 -1.476,-0.133 -1.962,-1.113 -2.302,-2.292 0.982,-1.02 2.39,-1.586 3.133,-2.861 1.227,-0.987 2.486,-0.475 3.743,-0.123 0.37,0.171 0.683,0.385 0.666,0.852 z"
   id="path372" />
			<path
   style="fill:#71b6e2"
   d="m 424.71,229.681 c -1.292,-0.301 -2.584,-0.601 -3.876,-0.902 0.065,-1.009 0.296,-1.308 0.882,-1.041 1.092,0.497 2.415,0.678 2.994,1.943 z"
   id="path373" />
			<path
   style="fill:#f1cc7c"
   d="m 560.671,269.002 c -0.351,0.115 -0.701,0.229 -1.052,0.344 -0.329,-0.424 -0.734,-0.811 -0.972,-1.281 -0.507,-1.001 -0.868,-1.329 -1.701,-1.165 -0.994,0.195 -2.131,0.225 -2.928,0.745 -1.422,0.926 -3.242,0.632 -4.567,1.787 -0.669,0.583 -1.868,0.097 -2.53,0.932 -1.18,-1.161 -2.904,-1.136 -4.284,-1.864 0.776,-3.521 1.564,-7.037 5.387,-8.767 0.265,-0.022 0.516,0.03 0.755,0.138 0.688,1.373 2.602,1.182 3.252,2.171 -0.153,-1.626 1.893,-2.519 2.308,-4.179 -0.06,-0.171 -0.121,-0.343 -0.181,-0.514 0.34,-0.641 0.982,-0.665 1.4,-0.344 1.325,1.02 2.656,0.653 4.026,0.17 0.901,2.516 -0.383,4.018 -3.834,4.428 0.562,1.46 1.932,2.098 3.032,2.989 1.411,1.146 2.474,2.422 1.889,4.41 z"
   id="path374" />
			<path
   style="fill:#eec774"
   d="m 560.671,269.002 c -0.09,-0.255 -0.227,-0.504 -0.261,-0.767 -0.241,-1.884 -1.595,-3.139 -3.056,-3.822 -1.363,-0.638 -1.604,-2.045 -2.741,-2.703 -0.088,-0.051 -0.112,-0.435 -0.042,-0.48 0.515,-0.338 1.035,-0.782 1.606,-0.885 0.42,-0.076 0.922,0.313 1.5,0.539 0.438,-0.49 0.946,-1.118 1.52,-1.681 0.644,-0.631 0.525,-1.291 0.236,-1.993 -0.662,-0.345 -0.736,-0.899 -0.551,-1.546 0.313,-0.688 -0.006,-1.427 0.193,-2.125 0.306,-3.62 1.048,-4.089 4.433,-2.699 1.274,0.523 2.838,-0.804 3.936,0.613 0.236,-0.015 0.473,-0.021 0.708,-0.047 0.321,-0.036 0.641,-0.088 0.962,-0.133 -1.448,1.431 -2.457,3.156 -3.411,4.917 -0.71,0.636 -1.38,0.101 -1.56,-0.362 -0.582,-1.494 -1.592,-0.874 -2.555,-0.656 0.422,2.558 2.308,4.309 3.58,6.398 l -0.002,0.001 c 0.132,0.778 -0.85,1.449 -0.029,2.385 0.62,0.708 0.05,1.616 -0.833,1.88 -1.357,0.406 -1.721,1.448 -2.065,2.569 -0.523,0.2 -1.045,0.398 -1.568,0.597 z"
   id="path375" />
			<path
   style="fill:#f2cc7d"
   d="m 567.444,251.453 c -0.584,0.191 -1.049,0.002 -1.502,-0.367 -0.164,-0.133 -0.465,-0.103 -0.703,-0.147 0.069,0.224 0.14,0.448 0.207,0.673 0.069,0.233 0.133,0.468 0.2,0.702 -0.423,0.073 -1.211,0.234 -1.217,0.208 -0.348,-1.475 -1.739,-1.014 -2.654,-1.404 -0.462,-0.197 -0.872,-0.841 -1.427,-0.316 -0.531,0.503 -0.957,1.153 -0.545,1.922 0.294,0.549 0.067,0.815 -0.417,1.021 -1.49,-0.23 -1.689,-1.789 -2.682,-2.53 -1.651,-0.689 -1.606,-0.701 -1.171,-2.051 0.699,-2.169 2.206,-3.25 4.431,-3.506 0.728,-0.084 1.447,-0.292 2.174,-0.317 0.267,-0.009 0.703,0.303 0.767,0.547 0.061,0.23 -0.256,0.57 -0.428,0.849 -0.037,0.061 -0.164,0.079 -0.253,0.098 -0.44,0.089 -0.968,0.081 -0.843,0.769 0.178,0.977 0.58,1.405 1.327,1.432 0.773,0.029 1.397,-0.12 1.891,-0.852 0.326,-0.484 1.077,-0.31 1.334,0.216 0.152,0.311 0.269,0.664 0.294,1.008 0.065,0.893 0.614,1.479 1.217,2.045 z"
   id="path376" />
			<path
   style="fill:#f3cf83"
   d="m 554.338,257.863 c 0.29,0.705 0.423,1.385 -0.246,1.997 -0.338,0.31 -0.621,0.677 -0.956,0.991 -0.592,0.554 -0.955,1.103 -0.338,1.877 0.132,0.165 0.049,0.53 10e-4,0.791 -0.027,0.148 -0.165,0.353 -0.292,0.388 -0.146,0.04 -0.43,-0.029 -0.488,-0.139 -0.159,-0.3 -0.242,-0.642 -0.335,-0.973 -0.287,-1.019 -0.366,-1.145 -1.51,-0.935 -0.549,0.101 -0.859,0.114 -1.056,-0.407 -0.191,-0.508 -0.372,-1.02 -0.557,-1.531 -1.011,-1.342 0.848,-3.401 -1.111,-4.505 -0.176,-0.169 -0.304,-0.368 -0.385,-0.596 -0.039,-0.234 -0.035,-0.469 -0.002,-0.703 0.018,-0.113 0.042,-0.228 0.058,-0.342 0.105,-0.553 0.115,-1.134 0.446,-1.632 1.133,0.187 2.12,0.493 2.117,1.931 -10e-4,0.4 0.404,0.539 0.81,0.455 0.443,-0.092 0.882,-0.255 1.325,-0.271 0.188,-0.007 0.426,0.255 0.561,0.45 0.085,0.122 0.049,0.35 0.019,0.523 -0.266,1.54 0.428,2.378 1.939,2.631 z"
   id="path377" />
			<path
   style="fill:#ebbe63"
   d="m 554.922,237.908 c -0.852,-1.134 -1.588,-2.381 -2.588,-3.368 -0.942,-0.93 -0.667,-1.691 -0.12,-2.584 0.749,-1.365 1.76,-0.682 2.723,-0.369 0.361,0.446 0.722,0.892 1.083,1.338 1.098,1.628 0.873,3.412 0.499,5.183 -0.085,0.4 -0.555,0.354 -0.899,0.138 -0.236,-0.105 -0.446,-0.26 -0.698,-0.338 z"
   id="path378" />
			<path
   style="fill:#f3cf83"
   d="m 558.882,255.664 c 0.184,0.515 0.367,1.031 0.551,1.546 -0.249,0.259 -0.512,0.506 -0.745,0.778 -0.538,0.628 -1.135,0.848 -1.886,0.372 -0.525,-0.333 -1.043,-0.69 -1.609,-0.94 -0.296,-0.131 -0.688,-0.054 -1.037,-0.071 -0.191,-0.387 -0.467,-0.757 -0.543,-1.166 -0.054,-0.29 0.013,-0.786 0.616,-0.546 0.613,0.245 0.906,-0.077 0.806,-0.623 -0.13,-0.709 -0.435,-1.384 -0.592,-2.09 -0.045,-0.202 0.139,-0.645 0.255,-0.659 0.323,-0.04 0.819,-0.029 0.969,0.169 0.375,0.492 0.572,1.113 0.887,1.657 0.358,0.618 0.711,1.251 1.167,1.797 0.421,0.505 0.801,0.02 1.161,-0.224 z"
   id="path379" />
			<path
   style="fill:#f2cc78"
   d="m 547.566,252.146 c 0.183,0.573 0.505,1.143 0.025,1.734 -0.91,-0.355 -2.05,-0.049 -2.787,-0.906 -0.144,-0.446 -0.288,-0.892 -0.432,-1.338 -0.206,-0.688 -0.411,-1.377 -0.666,-2.232 1.049,0.039 1.804,0.275 2.129,1.245 0.281,0.838 0.767,1.431 1.731,1.497 z"
   id="path380" />
			<path
   style="fill:#f3cf83"
   d="m 556.704,251.214 c 1.174,0.556 2.039,1.429 2.682,2.53 0.259,0.744 0.09,1.383 -0.504,1.919 -1.062,-1.32 -1.684,-2.854 -2.178,-4.449 z"
   id="path381" />
			<path
   style="fill:#f2cc78"
   d="m 554.923,237.908 c 0.233,0.112 0.465,0.225 0.698,0.337 -0.233,-0.112 -0.465,-0.224 -0.698,-0.337 z"
   id="path382" />
			<path
   style="fill:#5e9bda"
   d="m 417.292,250.349 c -0.215,-0.145 -0.43,-0.29 -0.645,-0.435 -0.529,-0.395 -1.059,-0.79 -1.588,-1.185 -0.679,-0.696 -1.359,-1.391 -2.039,-2.087 -0.689,-1.28 -1.379,-2.561 -2.068,-3.841 -0.078,-2.12 1.51,-3.649 2.077,-5.539 0.145,0.044 0.298,0.087 0.452,0.126 -0.159,-0.114 -0.379,-0.061 -0.543,-0.187 -1.307,-1.181 -0.382,-2.356 0.227,-3.329 0.778,-1.244 1.73,0.356 2.643,0.066 2.269,-0.312 4.578,-0.672 6.813,-0.708 1.879,-0.031 4.407,-0.08 5.257,2.482 0.288,0.869 0.961,0.579 1.56,0.666 1.437,0.209 2.324,0.926 2.111,2.514 -0.413,0.233 -0.788,0.495 -0.728,1.041 0.02,0.179 0.09,0.352 0.107,0.531 0.061,0.641 0.879,1.409 -0.073,1.888 -0.833,0.419 -0.887,-0.688 -1.384,-1.006 -0.555,-0.355 -0.986,-0.898 -1.477,-1.365 -1.047,1.032 -1.138,2.307 -1.318,3.561 -0.075,0.524 -0.13,1.16 -0.994,0.894 -0.015,-0.005 -0.24,0.384 -0.221,0.573 0.035,0.355 0.231,0.695 0.246,1.047 0.005,0.115 -0.402,0.391 -0.527,0.346 -0.421,-0.152 -0.855,-0.355 -1.183,-0.647 -0.806,-0.719 -1.556,-1.498 -2.34,-2.265 -0.528,0.683 -0.919,1.329 -0.751,2.243 0.088,0.476 -0.007,1.241 -0.328,1.495 -1.251,0.989 -1.258,2.335 -1.397,3.671 -0.63,-0.184 -1.26,-0.367 -1.889,-0.55 z"
   id="path383" />
			<path
   style="fill:#63a4dd"
   d="m 437.296,235.113 c 1.296,0.308 2.591,0.616 3.887,0.924 1.257,1.564 2.805,2.68 4.706,3.469 2.58,1.071 2.657,3.617 3.088,5.9 0.265,1.661 -1.316,2.007 -2.14,2.896 -1.704,0.462 -3.291,0.044 -4.854,-0.571 -0.094,-0.085 -0.185,-0.173 -0.277,-0.26 -0.683,-0.427 -1.531,-0.722 -2.014,-1.309 -0.913,-1.111 -2.049,-1.346 -3.519,-1.27 -0.028,-0.875 -0.035,-1.759 -0.091,-2.64 -0.058,-0.916 -0.53,-1.573 -1.303,-1.384 -2.005,0.49 -2.306,-0.838 -2.711,-2.153 1.871,0.353 3.527,0.436 3.748,-2.157 0.058,-0.697 1.272,-0.659 1.48,-1.445 z"
   id="path384" />
			<path
   style="fill:#5388d6"
   d="m 445.27,257.074 c -0.253,-0.068 -0.505,-0.135 -0.757,-0.203 -0.399,-0.081 -0.798,-0.162 -1.197,-0.244 -0.259,-0.051 -0.518,-0.102 -0.776,-0.152 -0.408,-0.056 -0.817,-0.113 -1.225,-0.169 -0.393,-0.091 -0.787,-0.182 -1.18,-0.274 -0.256,-0.059 -0.513,-0.117 -0.769,-0.176 -0.072,-0.117 -0.138,-0.236 -0.2,-0.359 -0.049,-0.533 -0.321,-1.188 -0.1,-1.573 0.482,-0.843 0.92,-1.584 0.277,-2.493 0.386,-0.906 0.882,-1.782 0.619,-2.834 -0.027,-0.107 0.348,-0.344 0.564,-0.477 0.382,-0.235 0.786,-0.436 1.18,-0.651 v 0 c 0.724,0.148 1.45,0.418 2.01,0.815 1.651,1.17 3.174,1.945 5.124,0.393 0.765,-0.609 1.761,-0.21 2.462,0.519 0.349,2.064 0.536,3.983 2.713,5.398 1.837,1.194 0.421,2.587 -1.023,3.472 -0.71,0.007 -1.419,0.015 -2.128,0.022 -0.402,-0.071 -0.803,-0.143 -1.205,-0.214 -0.588,-0.448 -1.242,-0.595 -1.971,-0.4 -0.405,-0.065 -0.81,-0.13 -1.214,-0.195 -0.402,-0.068 -0.803,-0.136 -1.204,-0.205 z"
   id="path385" />
			<path
   style="fill:#69acdf"
   d="m 437.296,235.113 c 0.135,0.434 0.322,0.861 0.384,1.306 0.03,0.211 -0.177,0.456 -0.277,0.686 -0.232,-0.109 -0.46,-0.225 -0.697,-0.323 -0.153,-0.063 -0.319,-0.099 -0.568,-0.175 0.128,0.483 0.32,0.915 0.332,1.354 0.009,0.313 -0.202,0.896 -0.354,0.911 -0.933,0.089 -1.369,0.784 -1.966,1.318 -0.283,0.253 -0.814,0.113 -0.862,-0.301 -0.089,-0.776 -0.45,-1.151 -1.223,-1.176 -0.172,0.06 -0.345,0.119 -0.518,0.178 -0.321,-0.432 -0.662,-0.85 -0.957,-1.298 -0.385,-0.583 -0.745,-0.97 -1.544,-0.487 -0.337,0.204 -0.884,0.133 -1.325,0.089 -0.841,-0.083 -1.024,-0.58 -0.589,-1.505 0.384,-0.815 0.292,-1.012 -0.477,-1.026 -0.439,-0.007 -0.938,0.16 -1.307,0.009 -0.74,-0.301 -1.41,-0.766 -2.109,-1.164 -0.69,0.578 -1.583,0.357 -2.328,0.593 -1.69,0.536 -3.449,-0.098 -5.099,0.526 -1.03,-0.086 -1.203,-1.153 -1.904,-1.607 -0.129,-0.138 -0.05,-0.325 -0.095,-0.486 -0.105,0.13 -0.226,0.246 -0.364,0.352 -1.291,0.786 -2.091,2.38 -3.895,2.307 -0.239,-0.172 -0.446,-0.567 -0.322,-0.674 1.346,-1.166 0.537,-3.596 2.64,-4.293 2.919,0.302 5.775,0.869 8.634,1.529 2.293,0.529 4.605,1.068 6.947,1.409 0.423,0.061 0.891,-0.159 1.338,-0.249 0.872,0.328 1.915,0.122 2.675,0.802 0.235,0.098 0.471,0.197 0.706,0.295 1.062,0.211 2.124,0.423 3.187,0.634 0.235,0.105 0.471,0.207 0.709,0.307 0.176,-0.054 0.352,-0.106 0.53,-0.155 0.234,0.096 0.465,0.198 0.693,0.306 z"
   id="path386" />
			<path
   style="fill:#5e9bda"
   d="m 426.887,247.438 c -0.068,-0.486 -0.16,-0.97 -0.188,-1.459 -0.007,-0.126 0.187,-0.266 0.288,-0.4 0.114,0.107 0.32,0.21 0.325,0.323 0.025,0.506 -0.008,1.016 -0.02,1.524 -0.135,0.004 -0.27,0.008 -0.405,0.012 z"
   id="path387" />
			<path
   style="fill:#5e9bda"
   d="m 419.934,251.285 c -0.249,-0.135 -0.499,-0.27 -0.748,-0.405 0.249,0.135 0.499,0.27 0.748,0.405 z"
   id="path388" />
			<path
   style="fill:#eac169"
   d="m 565.168,261.57 c -1.367,-0.258 -1.728,-1.755 -2.891,-2.284 -0.163,-0.074 -0.244,-0.47 -0.239,-0.717 0.017,-0.867 -0.365,-1.521 -0.882,-2.191 -0.291,-0.378 -0.335,-0.979 -0.386,-1.49 -0.059,-0.598 0.157,-0.75 0.755,-0.449 0.581,0.293 0.98,0.393 1.296,-0.309 0.128,-0.284 0.367,-0.521 0.555,-0.779 0.228,0.242 0.661,0.49 0.65,0.724 -0.056,1.22 0.599,1.812 1.676,2.114 0.037,0.162 0.095,0.316 0.177,0.462 -0.151,0.828 -0.302,1.656 -0.454,2.484 -0.085,0.813 -0.171,1.624 -0.257,2.435 z"
   id="path389" />
			<path
   style="fill:#eac169"
   d="m 562.239,268.406 c -0.113,-0.339 -0.273,-0.67 -0.331,-1.019 -0.167,-1.002 0.145,-1.493 1.12,-1.798 0.256,-0.08 0.577,-0.01 0.799,-0.133 0.37,-0.205 0.895,-0.469 0.963,-0.785 0.068,-0.316 -0.277,-0.793 -0.566,-1.077 -0.308,-0.303 -0.799,-0.421 -1.135,-0.706 -0.141,-0.12 -0.195,-0.534 -0.091,-0.681 0.102,-0.144 0.452,-0.132 0.696,-0.16 0.073,-0.008 0.171,0.062 0.234,0.122 0.963,0.923 0.818,-0.418 1.239,-0.598 0.771,1.566 1.542,3.133 2.313,4.699 -1.748,0.712 -3.494,1.424 -5.241,2.136 z"
   id="path390" />
			<path
   style="fill:#5683be"
   d="m 506.689,268.304 c -0.261,-0.048 -0.522,-0.096 -0.783,-0.143 -0.408,-0.059 -0.815,-0.117 -1.222,-0.176 -0.26,-0.138 -0.521,-0.276 -0.781,-0.414 -0.236,-0.018 -0.46,-0.081 -0.67,-0.188 l 0.019,0.003 c -0.259,-0.176 -0.538,-0.286 -0.863,-0.234 -0.139,0.076 -0.276,0.073 -0.411,-0.007 -0.262,-0.057 -0.521,-0.123 -0.788,-0.157 -0.165,0.069 -0.324,0.061 -0.478,-0.026 -0.242,-0.022 -0.477,-0.077 -0.704,-0.16 -0.185,-0.009 -0.37,-0.017 -0.554,-0.026 -0.224,0.013 -0.43,-0.037 -0.616,-0.159 h 0.003 c -0.262,-0.155 -0.537,-0.263 -0.853,-0.233 -0.154,0.073 -0.303,0.065 -0.446,-0.025 -0.244,-0.032 -0.482,-0.086 -0.715,-0.162 -0.185,-0.011 -0.371,-0.021 -0.557,-0.032 -0.224,0.017 -0.432,-0.029 -0.621,-0.148 -0.216,-0.015 -0.433,-0.029 -0.649,-0.044 -0.203,0.062 -0.379,0.018 -0.525,-0.131 -0.186,0.059 -0.373,0.118 -0.559,0.177 -0.278,-0.158 -0.556,-0.315 -0.833,-0.473 -0.219,0.021 -0.421,-0.027 -0.605,-0.142 -0.22,-0.015 -0.44,-0.031 -0.661,-0.046 -0.201,0.065 -0.371,0.016 -0.514,-0.13 -0.432,-0.057 -0.865,-0.114 -1.297,-0.17 -0.251,-0.183 -0.286,-0.41 -0.135,-0.676 0.988,-0.815 2.117,-0.483 3.179,-0.342 2.547,0.339 5.1,0.625 7.658,0.876 3.561,0.854 7.294,0.739 10.836,1.707 1.107,0.293 2.215,0.584 3.341,0.804 2.763,0.19 5.48,0.692 8.219,1.032 1.049,0.172 2.107,0.303 3.163,0.432 0.441,0.053 0.881,0.121 1.323,0.171 0.216,0.013 0.43,0.045 0.643,0.079 0.32,0.041 0.64,0.085 0.963,0.117 0.223,0.01 0.441,0.037 0.661,0.068 0.683,0.098 1.361,0.221 2.049,0.294 3.932,0.319 7.881,0.502 11.719,1.477 0.382,0.147 0.685,0.38 0.846,0.764 -0.005,0.146 0.029,0.281 0.104,0.406 -0.011,0.25 -0.077,0.486 -0.197,0.708 -0.128,0.402 -0.256,0.805 -0.384,1.207 -0.781,0.656 -1.725,0.241 -2.58,0.414 -0.406,-0.062 -0.812,-0.125 -1.218,-0.187 -0.4,-0.071 -0.801,-0.142 -1.201,-0.214 -0.254,-0.062 -0.509,-0.124 -0.763,-0.185 -0.408,-0.06 -0.816,-0.119 -1.224,-0.179 -0.408,-0.058 -0.815,-0.116 -1.223,-0.174 -0.406,-0.056 -0.813,-0.111 -1.219,-0.167 -0.253,-0.068 -0.505,-0.135 -0.758,-0.203 -0.404,-0.07 -0.808,-0.139 -1.211,-0.209 -0.406,-0.062 -0.812,-0.125 -1.218,-0.187 -0.403,-0.065 -0.806,-0.131 -1.209,-0.196 -0.255,-0.059 -0.51,-0.118 -0.766,-0.177 -0.4,-0.079 -0.8,-0.159 -1.201,-0.238 -0.665,-0.109 -1.33,-0.217 -1.996,-0.326 -0.4,-0.077 -0.801,-0.154 -1.201,-0.231 -0.398,-0.084 -0.795,-0.168 -1.193,-0.253 -0.666,-0.107 -1.333,-0.214 -1.999,-0.322 -0.4,-0.073 -0.8,-0.147 -1.2,-0.22 -0.253,-0.066 -0.507,-0.132 -0.76,-0.198 -0.406,-0.063 -0.812,-0.127 -1.218,-0.19 -0.404,-0.065 -0.808,-0.131 -1.213,-0.196 -0.653,-0.143 -1.306,-0.285 -1.959,-0.428 -0.406,-0.063 -0.812,-0.125 -1.217,-0.188 -0.405,-0.064 -0.81,-0.127 -1.214,-0.19 -0.653,-0.142 -1.306,-0.284 -1.959,-0.426 -0.404,-0.067 -0.808,-0.133 -1.213,-0.2 -1.057,-0.203 -2.115,-0.406 -3.172,-0.608 z"
   id="path391" />
			<path
   style="fill:#ddcea8"
   d="m 544.471,271.862 c -0.224,-0.122 -0.447,-0.245 -0.671,-0.367 -0.885,-0.429 -1.491,-1.097 -1.797,-2.027 -0.051,-0.265 -0.041,-0.529 0.027,-0.792 0.093,-0.098 0.186,-0.196 0.28,-0.294 0.135,10e-4 0.271,0.002 0.406,0.004 0.16,0.073 0.355,0.245 0.473,0.203 0.669,-0.24 1.255,-0.564 2.029,-0.139 0.834,0.457 1.516,0.944 1.703,1.914 -0.817,0.499 -1.633,0.998 -2.45,1.498 z"
   id="path392" />
			<path
   style="fill:#ddcea8"
   d="m 544.378,272.976 c 0.066,-0.236 0.132,-0.472 0.197,-0.708 -0.066,0.235 -0.132,0.472 -0.197,0.708 z"
   id="path393" />
			<path
   style="fill:#6db8e2"
   d="m 498.681,219.612 c -0.258,0.104 -0.526,0.188 -0.77,0.317 -0.519,0.273 -0.95,0.67 -0.825,1.287 0.139,0.683 0.646,0.724 1.277,0.568 1.044,-0.26 1.723,0.594 2.43,1.035 1.788,1.113 2.966,2.702 2.582,5.001 0.022,0.117 0.044,0.234 0.067,0.351 0.032,0.602 10e-4,1.198 -0.18,1.782 -0.066,0.102 -0.135,0.202 -0.203,0.303 -1.29,-0.324 -2.155,0.125 -2.629,1.372 -0.195,0.513 -0.531,0.978 -0.708,1.495 -0.426,1.243 -1.269,1.655 -2.557,1.553 -1.399,-0.11 -2.042,-0.796 -1.741,-2.11 0.161,-0.702 0.297,-1.425 0.586,-2.079 0.466,-1.054 0.097,-1.752 -0.764,-2.326 -0.229,-0.153 -0.459,-0.303 -0.691,-0.452 -0.689,-0.443 -0.946,-0.333 -1.106,0.403 -0.251,1.153 -0.477,2.317 -0.838,3.439 -0.288,0.895 -0.808,0.866 -1.527,-0.002 -0.111,-0.133 -0.247,-0.246 -0.528,-0.523 -0.007,1.106 0.029,2.058 -0.032,3.006 -0.053,0.841 0.067,1.332 1.125,1.363 0.395,0.011 0.842,0.658 1.109,1.106 0.143,0.24 0.084,0.79 -0.109,0.997 -0.45,0.484 -0.568,-0.096 -0.74,-0.355 -0.194,-0.293 -0.282,-0.688 -0.787,-0.566 -1.081,0.262 -1.737,-0.432 -2.376,-1.071 -0.511,-0.511 -1.022,-0.685 -1.706,-0.364 -0.079,0.037 -0.351,-0.13 -0.383,-0.245 -0.038,-0.14 0.05,-0.346 0.142,-0.486 0.193,-0.295 0.605,-0.579 0.59,-0.845 -0.016,-0.274 -0.437,-0.517 -0.67,-0.783 -0.296,-0.336 -0.681,-0.639 -0.848,-1.033 -0.301,-0.709 -0.695,-1.219 -1.451,-1.525 -0.375,-0.152 -0.895,-0.646 -0.868,-0.95 0.159,-1.799 -1.122,-1.169 -2.001,-1.23 -0.704,-0.208 -1.024,-0.756 -1.256,-1.377 -0.09,-0.19 -0.045,-0.328 0.133,-0.409 -0.386,0.155 -0.097,0.453 -0.153,0.684 -0.432,1.817 -2.312,2.499 -3.254,3.983 -0.575,0.905 -1.657,-10e-4 -2.006,-0.953 -0.19,-0.519 0.073,-1.075 0.203,-1.609 1.151,-4.737 1.148,-4.738 0.122,-9.421 0.279,2.764 0.494,5.463 -0.955,8.109 -0.632,1.155 -0.37,2.675 -0.167,4.049 0.213,1.436 0.108,2.79 -1.749,3.177 -0.644,-2.087 -2.749,-2.417 -4.32,-3.301 -1.183,-0.665 -1.816,-1.247 -0.986,-2.491 1.992,-2.984 2.116,-6.603 3.578,-9.744 0.744,-1.598 -0.669,-3.295 0.574,-4.756 2.168,-0.824 4.126,0.341 6.144,0.665 3.22,0.518 6.473,1.02 9.547,2.182 1.807,0.981 3.878,0.934 5.82,1.391 1.951,0.459 3.903,0.925 5.855,1.388 z"
   id="path394" />
			<path
   style="fill:#5b8abf"
   d="m 487.005,216.832 c -1.358,-0.137 -2.738,-0.174 -4.071,-0.431 -3.519,-0.677 -7.016,-1.458 -10.527,-2.172 -0.344,-0.07 -0.725,0.033 -1.089,0.056 -2.933,0.554 -5.641,-0.602 -8.415,-1.086 -6.792,-1.185 -13.626,-2.241 -20.182,-4.435 l 0.004,0.006 c -0.235,-0.107 -0.478,-0.198 -0.713,-0.306 -1.484,-0.198 -2.841,-1.038 -4.412,-0.791 -0.237,-0.112 -0.475,-0.224 -0.712,-0.335 -0.566,-0.496 -0.779,-0.946 0.18,-1.247 l -0.016,0.008 c 0.349,0.318 0.835,-0.067 1.191,0.213 0.185,-0.058 0.369,-0.116 0.553,-0.174 0.406,0.061 0.813,0.121 1.219,0.182 0.404,0.065 0.809,0.129 1.213,0.194 0.652,0.145 1.305,0.29 1.957,0.435 0.405,0.065 0.809,0.13 1.214,0.195 0.662,0.118 1.324,0.236 1.986,0.354 0.39,0.102 0.78,0.203 1.169,0.305 0.261,0.045 0.523,0.089 0.784,0.133 0.405,0.066 0.81,0.132 1.215,0.199 0.4,0.072 0.801,0.145 1.201,0.217 0.251,0.073 0.502,0.146 0.753,0.219 0.404,0.07 0.807,0.139 1.211,0.209 0.4,0.075 0.8,0.15 1.2,0.225 0.26,0.048 0.519,0.096 0.779,0.144 0.394,0.093 0.788,0.186 1.182,0.28 0.663,0.117 1.326,0.233 1.989,0.35 0.404,0.066 0.809,0.133 1.213,0.199 0.65,0.151 1.299,0.303 1.949,0.454 0.401,0.072 0.802,0.144 1.203,0.216 0.254,0.062 0.509,0.123 0.763,0.184 0.404,0.069 0.807,0.138 1.211,0.207 0.396,0.086 0.792,0.172 1.188,0.258 0.259,0.051 0.518,0.101 0.776,0.151 0.406,0.062 0.813,0.124 1.219,0.187 0.395,0.086 0.79,0.173 1.184,0.259 0.253,0.068 0.507,0.135 0.76,0.203 0.404,0.07 0.807,0.139 1.211,0.208 0.4,0.074 0.8,0.148 1.201,0.222 0.257,0.055 0.515,0.109 0.772,0.164 0.391,0.101 0.781,0.202 1.171,0.304 0.259,0.05 0.519,0.099 0.778,0.149 0.405,0.066 0.81,0.132 1.215,0.198 0.401,0.071 0.802,0.142 1.203,0.213 0.25,0.074 0.501,0.148 0.751,0.221 0.398,0.084 0.797,0.168 1.195,0.253 0.405,0.06 0.811,0.12 1.216,0.18 0.258,0.051 0.517,0.103 0.775,0.154 0.994,0.472 2.017,0.818 3.153,0.68 0.402,0.07 0.803,0.139 1.205,0.21 0.252,0.069 0.504,0.137 0.756,0.206 0.393,0.085 0.786,0.171 1.179,0.257 0.076,0.131 0.159,0.256 0.25,0.377 -0.121,0.247 -0.241,0.493 -0.36,0.739 z"
   id="path395" />
			<path
   style="fill:#6db8e2"
   d="m 506.607,220.308 c 0.062,0.16 0.125,0.32 0.187,0.48 -0.176,0.274 -0.544,0.596 -0.49,0.813 0.126,0.511 0.488,0.957 0.692,1.455 0.344,0.839 0.582,1.666 0.298,2.633 -0.195,0.663 -0.062,1.416 -0.079,2.265 -0.303,0.065 -0.638,0.14 -0.975,0.209 -0.428,0.087 -1.068,0.379 -1.241,0.21 -0.349,-0.341 -0.727,-1.033 -0.59,-1.404 0.373,-1.007 -0.082,-1.737 -0.46,-2.535 -0.039,-0.081 -0.088,-0.169 -0.09,-0.255 -0.047,-1.815 -1.061,-3.158 -2.185,-4.448 1.622,0.363 3.229,0.835 4.933,0.577 z"
   id="path396" />
			<path
   style="fill:#6db8e2"
   d="m 501.155,219.888 c -1.409,1.723 -1.538,1.708 -2.475,-0.279 0.862,-0.199 1.696,-0.173 2.475,0.279 z"
   id="path397" />
			<path
   style="fill:#6796c6"
   d="m 437.066,206.091 c -0.06,0.416 -0.12,0.832 -0.18,1.247 -1.232,-0.131 -2.464,-0.262 -3.697,-0.393 -0.857,-0.199 -1.723,-0.372 -2.569,-0.609 -0.423,-0.118 -0.475,-0.452 -0.245,-0.82 0.686,-0.195 1.372,-0.389 2.059,-0.583 0.399,0.076 0.798,0.151 1.197,0.226 0.254,0.063 0.509,0.126 0.763,0.189 0.409,0.055 0.818,0.11 1.227,0.165 0.405,0.058 0.811,0.117 1.216,0.175 0.086,0.13 0.162,0.264 0.229,0.403 z"
   id="path398" />
			<path
   style="fill:#63a2dc"
   d="m 409.49,235.143 c 0.97,-0.757 1.979,-1.471 2.892,-2.288 0.462,-0.413 0.928,-0.443 1.459,-0.431 l 0.01,0.003 c 0.654,0.734 1.309,1.469 1.963,2.203 -0.672,0.225 -1.394,0.615 -1.605,-0.533 -0.014,-0.076 -0.414,-0.079 -0.634,-0.116 -0.159,1.102 -1.262,2.115 -0.361,3.317 -0.071,0.331 -0.275,0.702 -0.19,0.987 0.29,0.97 -0.068,1.998 -0.719,2.356 -0.988,0.543 -0.756,1.55 -1.353,2.161 -0.141,0.015 -0.282,0.026 -0.423,0.034 -0.465,-1.336 -0.93,-2.672 -1.394,-4.008 0.024,-0.422 0.048,-0.845 0.071,-1.267 0.108,-0.694 -0.057,-1.402 0.14,-2.091 0.047,-0.11 0.096,-0.218 0.144,-0.327 z"
   id="path399" />
			<path
   style="fill:#72b7e2"
   d="m 411.874,230.23 c -0.257,1.002 -1.629,1.613 -1.087,2.911 0.025,0.059 -0.216,0.325 -0.347,0.339 -1.141,0.118 -0.763,1.043 -0.951,1.664 0,0 0,0.001 0,0.001 -0.056,0.215 -0.154,0.315 -0.293,0.299 -0.138,-0.016 -0.218,-0.052 -0.239,-0.11 -0.166,-0.513 -0.332,-1.026 -0.498,-1.539 -0.01,-0.578 -0.021,-1.156 -0.031,-1.734 0.003,-0.574 0.006,-1.148 0.009,-1.722 0.159,-0.511 0.318,-1.022 0.476,-1.534 0.292,0.598 0.768,0.904 1.447,1.003 0.516,0.075 1.01,0.277 1.514,0.422 z"
   id="path400" />
			<path
   style="fill:#4e84d4"
   d="m 452.993,258.067 c 0.299,-0.454 0.611,-0.901 0.895,-1.364 0.719,-1.17 0.588,-1.357 -0.88,-2.001 -0.534,-0.234 -1.02,-0.691 -1.377,-1.16 -0.461,-0.606 -0.115,-1.648 -1.068,-2.058 -0.089,-0.038 -0.062,-0.49 0.019,-0.714 0.182,-0.502 0.432,-0.981 0.654,-1.469 0.071,-0.081 0.143,-0.163 0.213,-0.245 0.106,-0.017 0.214,-0.033 0.319,-0.052 0.097,0.038 0.196,0.078 0.294,0.109 0.435,0.172 0.819,-0.035 1.216,-0.186 0.245,-0.038 0.477,-0.012 0.707,0.069 1.361,1.671 3.315,1.75 5.261,1.855 1.116,0.547 1.809,1.888 3.605,0.536 1.203,-0.906 2.912,0.275 3.983,1.504 0.111,1.226 0.643,2.567 -1.321,3.014 -0.957,0.218 -0.531,0.971 -0.266,1.544 0.446,0.962 1.245,1.851 0.588,3.033 -0.344,0.065 -0.687,0.13 -1.03,0.194 -0.404,-0.065 -0.809,-0.129 -1.214,-0.194 -0.997,-0.493 -2.05,-0.723 -3.173,-0.622 -0.405,-0.063 -0.809,-0.126 -1.213,-0.189 -0.258,-0.054 -0.515,-0.108 -0.773,-0.161 -0.396,-0.091 -0.791,-0.183 -1.186,-0.275 -0.403,-0.066 -0.806,-0.132 -1.209,-0.198 -0.262,-0.042 -0.524,-0.084 -0.786,-0.126 -0.403,-0.066 -0.805,-0.133 -1.208,-0.199 -0.072,-0.127 -0.141,-0.256 -0.207,-0.386 -0.236,-0.166 -0.454,-0.372 -0.784,-0.316 z"
   id="path401" />
			<path
   style="fill:#69acdf"
   d="m 408.958,235.334 c 0.177,-0.063 0.354,-0.126 0.531,-0.189 0.207,0.836 0.17,1.647 -0.284,2.415 -0.176,-0.504 -0.352,-1.007 -0.528,-1.511 0.094,-0.238 0.188,-0.477 0.281,-0.715 z"
   id="path402" />
			<path
   style="fill:#5388d6"
   d="m 453.051,258.013 c 0.262,0.105 0.523,0.21 0.784,0.316 -0.261,-0.105 -0.522,-0.211 -0.784,-0.316 z"
   id="path403" />
			<path
   style="fill:#5282d2"
   d="m 496.827,266.197 c 0.238,0.054 0.477,0.108 0.715,0.162 -0.138,0.082 -0.281,0.155 -0.427,0.221 -0.088,-0.133 -0.184,-0.261 -0.288,-0.383 z"
   id="path404" />
			<path
   style="fill:#5282d2"
   d="m 497.987,266.384 c 0.284,0.078 0.569,0.155 0.853,0.233 -0.284,-0.078 -0.568,-0.155 -0.853,-0.233 z"
   id="path405" />
			<path
   style="fill:#5282d2"
   d="m 498.838,266.617 c 0.206,0.053 0.411,0.106 0.616,0.159 -0.118,0.085 -0.243,0.16 -0.374,0.224 -0.077,-0.13 -0.158,-0.258 -0.242,-0.383 z"
   id="path406" />
			<path
   style="fill:#5a92d8"
   d="m 489.843,264.575 c 0.054,0.161 0.108,0.322 0.162,0.483 -0.161,0.085 -0.328,0.154 -0.501,0.207 -0.393,-0.093 -0.786,-0.186 -1.179,-0.279 -0.259,-0.051 -0.517,-0.101 -0.776,-0.151 -0.41,-0.053 -0.819,-0.105 -1.229,-0.158 -0.404,-0.067 -0.807,-0.133 -1.211,-0.2 -0.246,-0.084 -0.492,-0.167 -0.738,-0.251 -0.408,-0.056 -0.817,-0.113 -1.225,-0.169 -0.405,-0.065 -0.81,-0.131 -1.215,-0.196 -0.401,-0.073 -0.802,-0.147 -1.203,-0.22 -0.593,-0.417 -1.245,-0.573 -1.968,-0.408 -0.403,-0.058 -0.806,-0.116 -1.209,-0.174 -0.081,-0.129 -0.164,-0.256 -0.249,-0.382 -0.773,-2.047 -2.002,-3.858 -3.043,-5.767 -0.057,-0.251 -0.054,-0.504 0.002,-0.755 1.158,-1.373 0.064,-2.859 0.263,-4.281 1.909,-1.817 3.447,-0.103 5.016,0.567 0.545,0.232 0.532,0.269 0.598,-0.231 2.005,0.243 4.005,-0.303 6.007,-0.083 3.12,0.687 6.116,2.069 9.458,1.505 0.192,0.518 0.118,1.014 -0.135,1.497 -1.321,1.206 -3.813,0.265 -4.587,2.472 -0.04,0.246 -0.102,0.485 -0.174,0.723 -0.948,2.004 0.49,4.301 -0.864,6.251 z"
   id="path407" />
			<path
   style="fill:#5282d2"
   d="m 491.302,265.228 c 0.187,-0.01 0.358,0.033 0.514,0.13 -0.09,0.084 -0.189,0.155 -0.297,0.212 -0.069,-0.116 -0.142,-0.229 -0.217,-0.342 z"
   id="path408" />
			<path
   style="fill:#4a7fd2"
   d="m 465.835,260.484 c -0.415,-0.893 -0.821,-1.79 -1.25,-2.677 -0.195,-0.403 -0.472,-0.769 -0.644,-1.18 -0.383,-0.918 0.092,-1.613 1.118,-1.664 0.172,-0.008 0.346,0.109 0.523,0.123 0.962,0.075 1.077,0.01 0.763,-1.009 -0.18,-0.584 -0.056,-0.82 0.436,-1.022 0.133,-0.017 0.266,-0.033 0.4,-0.052 0.548,0.067 1.016,0.287 1.382,0.697 0.226,0.627 0.348,0.714 0.625,0.395 0.429,-0.495 0.976,-0.561 1.504,-0.404 1.29,0.382 2.502,0.972 3.814,1.327 0.529,0.143 0.163,0.759 -0.113,1.131 h -10e-4 c -0.436,1.075 0.082,1.925 0.711,2.688 1.781,2.16 1.798,2.146 -0.977,3.22 -0.584,0.013 -1.169,0.026 -1.753,0.04 -0.392,-0.095 -0.785,-0.191 -1.177,-0.286 -0.257,-0.055 -0.514,-0.11 -0.771,-0.165 -0.409,-0.057 -0.817,-0.114 -1.226,-0.171 -0.406,-0.062 -0.812,-0.124 -1.218,-0.186 -0.392,-0.094 -0.784,-0.188 -1.176,-0.283 -0.322,-0.174 -0.646,-0.348 -0.97,-0.522 z"
   id="path409" />
			<path
   style="fill:#538dd7"
   d="m 474.128,262.056 c 0.761,-0.04 0.648,-1.371 1.631,-1.081 0.032,-0.227 0.138,-0.477 0.077,-0.674 -0.075,-0.24 -0.282,-0.616 -0.447,-0.622 -2.005,-0.073 -1.328,-1.75 -1.671,-2.781 -0.052,-0.157 0.438,-0.495 0.677,-0.75 0.7,1.021 1.463,2.006 2.084,3.073 0.609,1.047 1.379,2.104 0.823,3.454 -0.322,0.056 -0.644,0.111 -0.966,0.166 -0.251,-0.069 -0.503,-0.138 -0.754,-0.206 -0.401,-0.066 -0.803,-0.132 -1.204,-0.198 -0.081,-0.128 -0.164,-0.255 -0.25,-0.381 z"
   id="path410" />
			<path
   style="fill:#568bd6"
   d="m 503.233,267.383 c 0.223,0.063 0.447,0.126 0.67,0.188 -0.139,0.087 -0.284,0.165 -0.435,0.232 -0.086,-0.135 -0.164,-0.275 -0.235,-0.42 z"
   id="path411" />
			<path
   style="fill:#568bd6"
   d="m 502.389,267.152 c 0.288,0.078 0.576,0.156 0.863,0.234 -0.288,-0.078 -0.576,-0.156 -0.863,-0.234 z"
   id="path412" />
			<path
   style="fill:#568bd6"
   d="m 501.19,266.988 c 0.263,0.052 0.526,0.105 0.788,0.157 -0.153,0.091 -0.311,0.172 -0.475,0.242 -0.101,-0.136 -0.206,-0.268 -0.313,-0.399 z"
   id="path413" />
			<path
   style="fill:#5282d2"
   d="m 492.476,265.404 c 0.202,0.048 0.404,0.095 0.606,0.142 -0.111,0.085 -0.228,0.158 -0.352,0.221 -0.076,-0.127 -0.161,-0.248 -0.254,-0.363 z"
   id="path414" />
			<path
   style="fill:#5282d2"
   d="m 495.649,266.017 c 0.207,0.049 0.414,0.099 0.621,0.148 -0.116,0.084 -0.238,0.158 -0.367,0.221 -0.076,-0.128 -0.161,-0.251 -0.254,-0.369 z"
   id="path415" />
			<path
   style="fill:#5282d2"
   d="m 494.475,265.842 c 0.191,-0.012 0.367,0.032 0.526,0.132 -0.093,0.088 -0.196,0.162 -0.31,0.221 -0.069,-0.119 -0.141,-0.237 -0.216,-0.353 z"
   id="path416" />
			<path
   style="fill:#6796c6"
   d="m 438.241,206.311 c -0.397,-0.071 -0.794,-0.142 -1.191,-0.212 0.327,-0.063 0.655,-0.127 0.982,-0.19 0.077,0.131 0.147,0.265 0.209,0.402 z"
   id="path417" />
			<path
   style="fill:#5282d2"
   d="m 500.008,266.802 c 0.235,0.054 0.47,0.107 0.704,0.16 -0.135,0.086 -0.275,0.163 -0.421,0.23 -0.087,-0.135 -0.182,-0.265 -0.283,-0.39 z"
   id="path418" />
			<path
   style="fill:#588ac0"
   d="m 524.793,248.078 c -0.075,0.6 -0.212,1.201 -0.206,1.799 0.005,0.556 0.163,1.109 0.254,1.663 -0.755,1.07 -1.786,0.669 -2.697,0.425 -1.394,-0.374 -2.794,-0.671 -4.235,-0.786 -6.851,-1.289 -13.649,-2.836 -20.555,-3.865 -0.389,-0.067 -0.769,-0.167 -1.149,-0.268 -2.307,-0.774 -5.008,-0.288 -7.012,-2.036 0.834,-0.917 0.244,-2.19 0.848,-3.165 0.641,0.003 1.303,-0.095 1.92,0.023 5.682,1.092 11.347,2.263 17.035,3.327 4.605,0.862 9.235,1.608 13.853,2.405 0.392,0.218 0.844,-0.062 1.238,0.131 l 0.005,0.002 c 0.222,0.115 0.452,0.21 0.692,0.285 z"
   id="path419" />
			<path
   style="fill:#75bde4"
   d="m 472.485,234.179 c 0.986,-0.934 1.74,-1.9 0.952,-3.342 -0.194,-0.355 -0.097,-0.877 -0.096,-1.323 10e-4,-0.992 0.007,-1.984 0.053,-2.975 0.011,-0.238 0.186,-0.672 0.29,-0.675 1.274,-0.032 1.296,-0.525 0.749,-1.482 -0.171,-0.298 0.025,-0.902 0.219,-1.287 0.394,-0.781 0.355,-1.574 0.367,-2.395 0.009,-0.61 -0.119,-1.07 -0.674,-1.362 -0.676,-0.356 -0.528,-0.862 -0.231,-1.377 0.336,-0.581 0.729,-0.253 1.162,-0.108 0.794,0.267 1.352,0.674 1.058,1.577 -0.225,0.688 -0.033,1.193 0.337,1.764 0.722,1.114 0.709,2.414 0.709,3.689 0,0.259 -0.041,0.626 -0.211,0.762 -1.247,0.996 -0.78,2.689 -1.679,3.814 -0.05,0.062 -0.08,0.207 -0.042,0.258 0.256,0.344 0.479,0.761 0.828,0.965 0.157,0.092 0.676,-0.178 0.865,-0.413 0.564,-0.702 0.494,-1.519 0.337,-2.35 -0.032,-0.17 0.233,-0.427 0.413,-0.586 0.045,-0.039 0.303,0.139 0.451,0.236 0.922,0.608 0.921,0.614 1.287,-0.218 0.18,-0.41 0.439,-0.788 0.662,-1.181 0.42,0.625 0.84,1.249 1.26,1.874 0.015,0.623 0.061,1.247 0.034,1.869 -0.015,0.331 -0.092,0.693 -0.255,0.979 -0.254,0.448 -0.775,0.818 -0.852,1.272 -0.052,0.305 0.439,0.723 0.738,1.045 0.333,0.357 0.55,0.726 0.289,1.193 -0.559,1.002 -0.086,1.721 0.621,2.365 0.607,0.552 0.919,1.007 0.1,1.734 -0.245,0.217 0.006,0.978 0.03,1.49 -0.099,0.238 -0.265,0.416 -0.498,0.533 -0.247,0.074 -0.498,0.086 -0.752,0.05 -0.532,-0.101 -0.858,-0.497 -1.23,-0.828 -2.764,-0.573 -5.527,-1.147 -8.291,-1.72 -1.546,-1.736 -0.257,-2.788 1,-3.847 z"
   id="path420" />
			<path
   style="fill:#5c90c3"
   d="m 479.776,239.746 c 0.483,0.202 0.965,0.404 1.448,0.606 -0.032,0.321 -0.186,0.589 -0.382,0.831 -0.114,0.137 -0.23,0.281 -0.319,0.424 0.495,0.572 1.417,0.575 1.678,0.277 0.443,-0.506 -1.015,-0.889 -0.453,-1.687 0.169,-0.071 0.339,-0.139 0.509,-0.206 1.297,0.307 2.593,0.614 3.89,0.923 1.299,0.309 2.597,0.62 3.895,0.93 -0.036,0.163 -0.155,0.373 -0.093,0.48 0.255,0.439 0.812,0.863 0.779,1.259 -0.028,0.334 -0.731,0.608 -1.111,0.936 -0.123,0.106 -0.17,0.297 -0.252,0.45 -1.414,1.063 -2.871,0.283 -4.175,-0.072 -2.452,-0.666 -5.299,-0.151 -7.317,-2.17 0.203,-1.161 0.725,-2.119 1.796,-2.736 0.062,-0.036 0.072,-0.161 0.107,-0.245 z"
   id="path421" />
			<path
   style="fill:#6db8e2"
   d="m 503.374,227.819 c 0.876,0.19 0.926,1.068 1.348,1.626 0.58,0.765 0.071,1.8 -0.926,1.822 -0.242,0.005 -0.492,-0.657 -0.738,-1.012 0.382,-0.781 -0.096,-1.659 0.316,-2.436 z"
   id="path422" />
			<path
   style="fill:#6cb8e2"
   d="m 529.849,244.184 c -0.145,-0.061 -0.45,-0.098 -0.515,-0.243 -0.073,-0.163 0.071,-0.422 0.12,-0.639 0.304,0.151 0.608,0.302 0.912,0.452 -0.138,0.116 -0.276,0.231 -0.517,0.43 z"
   id="path423" />
			<path
   style="fill:#6cb8e2"
   d="m 522.043,244.619 c -0.091,-0.124 -0.139,-0.189 -0.186,-0.253 0.058,-0.04 0.117,-0.081 0.175,-0.121 0.003,0.104 0.006,0.208 0.011,0.374 z"
   id="path424" />
			<path
   style="fill:#6cb8e2"
   d="m 535.86,242.985 c -0.051,0.065 -0.102,0.13 -0.153,0.195 -0.111,-0.12 -0.23,-0.234 -0.33,-0.363 -0.188,-0.243 -0.123,-0.325 0.147,-0.175 0.135,0.075 0.226,0.226 0.336,0.343 z"
   id="path425" />
			<path
   style="fill:#6cb8e2"
   d="m 524.087,247.731 c -0.413,-0.044 -0.825,-0.087 -1.238,-0.131 0.413,0.044 0.825,0.088 1.238,0.131 z"
   id="path426" />
			<path
   style="fill:#6cb8e2"
   d="m 524.784,248.018 c -0.231,-0.095 -0.461,-0.19 -0.692,-0.285 0.231,0.095 0.461,0.19 0.692,0.285 z"
   id="path427" />
			<path
   style="fill:#67abdf"
   d="m 517.967,250.535 c 1.432,0.142 2.849,0.257 4.23,0.775 0.794,0.298 1.757,0.167 2.645,0.229 0.777,0.247 1.537,0.616 2.336,0.719 4.348,0.562 8.522,2.012 12.93,2.276 0.901,0.054 1.784,0.358 2.676,0.547 0.265,0.414 0.291,0.883 0.1,1.301 -1.294,2.832 -1.265,5.806 -1.128,8.794 -0.099,0.163 -0.231,0.269 -0.393,0.317 -0.167,0.05 -0.256,0.059 -0.265,0.032 -2.736,-0.991 -5.461,-1.918 -7.462,-4.256 -0.791,-0.924 -2.286,-1.259 -3.536,-1.319 -2.419,-0.117 -4.617,-0.831 -6.793,-1.73 -0.259,-0.032 -0.488,-0.129 -0.694,-0.282 -0.339,-0.315 -0.662,-0.674 -0.787,-1.103 -0.599,-2.055 -1.715,-3.104 -4.049,-2.313 -0.796,0.27 -1.696,0.243 -2.023,-0.831 -0.01,-1.554 1.914,-1.806 2.213,-3.156 z"
   id="path428" />
			<path
   style="fill:#efc66f"
   d="m 541.495,265.197 c -0.991,-2.953 -0.622,-5.816 0.679,-8.623 0.226,-0.487 0.406,-0.995 0.608,-1.493 0.574,-0.561 1.148,-1.123 1.722,-1.684 0.237,-0.019 0.358,-0.14 0.347,-0.379 0,0 -0.046,-0.044 -0.046,-0.044 0.339,0.036 0.742,0.207 1.007,0.084 0.99,-0.46 1.44,0.029 1.779,0.821 v 0 c -0.145,0.219 -0.21,0.474 -0.331,0.704 0.06,0.169 0.12,0.339 0.178,0.509 1.087,1.559 1.26,3.235 0.598,5.017 -1.29,0.753 -2.25,1.755 -2.843,3.157 -0.562,1.331 -1.43,2.529 -1.755,3.974 -0.093,0.413 -0.473,0.765 -0.722,1.145 0,0 -0.02,-0.005 -0.02,-0.005 -1.216,-0.753 -1.644,-1.804 -1.201,-3.183 z"
   id="path429" />
			<path
   style="fill:#f2cc78"
   d="m 544.852,253.018 c -0.036,0.14 -0.065,0.283 -0.118,0.417 -0.005,0.014 -0.15,-0.024 -0.23,-0.038 0.047,-0.187 0.163,-0.314 0.348,-0.379 z"
   id="path430" />
			<path
   style="fill:#5fb0e0"
   d="m 472.485,234.179 c -0.495,0.71 -0.047,1.786 -1.043,2.367 -0.207,0.121 0.017,0.968 0.043,1.48 -0.363,0.022 -0.746,0.125 -1.087,0.053 -5.457,-1.161 -10.937,-2.199 -16.454,-3.069 -1.348,-0.212 -2.663,-0.607 -3.994,-0.918 0.049,-0.429 0.097,-0.859 0.146,-1.288 0.029,-0.254 -0.032,-0.66 0.101,-0.738 1.572,-0.913 0.695,-1.735 0.007,-2.624 -0.885,-1.143 -1.701,-2.338 -2.576,-3.488 -0.137,-0.18 -0.459,-0.376 -0.645,-0.334 -0.49,0.109 -0.348,0.533 -0.309,0.88 0.02,0.178 0.046,0.359 0.035,0.537 -0.005,0.078 -0.091,0.215 -0.146,0.218 -0.166,0.01 -0.399,0.027 -0.49,-0.067 -0.246,-0.253 -0.471,-0.542 -0.636,-0.853 -0.463,-0.873 -0.925,-1.749 -1.314,-2.655 -0.124,-0.289 -0.123,-0.722 0.008,-1.009 0.25,-0.547 0.724,-0.395 1.176,-0.213 0.152,0.061 0.349,0.014 0.534,0.016 -0.115,-0.875 -0.241,-1.746 -0.336,-2.622 -0.028,-0.26 -0.061,-0.586 0.067,-0.782 0.18,-0.274 0.509,-0.455 0.774,-0.675 0.098,0.216 0.237,0.424 0.285,0.651 0.075,0.35 0.087,0.714 0.126,1.072 l -0.001,0.001 c 0.22,-0.29 0.408,-0.614 0.67,-0.86 0.241,-0.226 0.612,-0.563 0.84,-0.51 0.55,0.128 0.612,0.667 0.373,1.09 -0.462,0.818 0.161,1.145 0.619,1.546 0.114,0.1 0.353,0.146 0.499,0.101 0.12,-0.037 0.26,-0.245 0.264,-0.38 0.023,-0.717 0.006,-1.435 0.002,-2.333 0.692,0.24 1.096,0.568 1.236,1.217 0.092,0.423 0.144,0.886 0.362,1.242 0.379,0.618 1.045,0.825 1.659,0.584 0.675,-0.265 1.346,-0.552 1.981,-0.899 0.185,-0.101 0.356,-0.454 0.332,-0.667 -0.17,-1.515 -0.142,-3.086 -0.957,-4.45 -0.171,-0.286 -0.524,-0.464 -0.793,-0.692 -0.214,0.271 -0.428,0.542 -0.642,0.814 -0.057,0.072 -0.112,0.145 -0.167,0.218 -0.199,-0.183 -0.388,-0.38 -0.6,-0.547 -0.411,-0.323 -0.77,-0.569 -0.726,0.307 0.016,0.314 -0.201,0.642 -0.311,0.963 -0.362,-0.201 -0.759,-0.362 -1.073,-0.62 -0.189,-0.155 -0.295,-0.45 -0.356,-0.702 -0.062,-0.255 -0.036,-0.536 -0.025,-0.805 0.03,-0.758 -0.327,-1.229 -1.092,-1.264 -1.163,-0.055 -1.726,-0.662 -2.187,-1.684 -0.453,-1.003 -1.512,-1.51 -2.567,-1.841 -0.656,-0.206 -1.144,-0.531 -1.376,-1.181 1.509,-0.236 2.904,0.356 4.332,0.607 3.346,0.586 6.647,1.4 9.98,2.054 4.415,0.867 8.844,1.666 13.265,2.507 0.35,0.067 0.68,0.233 1.02,0.354 0.061,0.442 0.131,0.882 0.182,1.325 0.158,1.367 0.869,2.805 -0.563,3.972 -0.064,1.275 -0.928,2.367 -0.836,3.705 0.07,1.014 -0.409,1.907 -0.987,2.792 -0.736,1.125 -1.246,2.392 -1.887,3.662 0.215,0.763 0.998,-0.029 1.359,0.351 0.358,0.376 0.605,0.885 1.019,1.17 0.331,0.229 0.838,0.279 1.271,0.289 1.696,0.037 1.689,0.018 1.508,1.822 -0.027,0.26 0.064,0.534 0.101,0.803 z"
   id="path431" />
			<path
   style="fill:#5fb0e0"
   d="m 453.078,216.869 c -0.081,-0.018 -0.229,-0.031 -0.23,-0.055 -0.01,-0.159 -0.025,-0.334 0.032,-0.478 0.113,-0.287 0.216,-0.265 0.225,0.042 0.003,0.164 -0.018,0.328 -0.027,0.491 z"
   id="path432" />
			<path
   style="fill:#5fb0e0"
   d="m 442.011,208.464 c 0.238,0.102 0.475,0.204 0.713,0.306 -0.238,-0.102 -0.475,-0.204 -0.713,-0.306 z"
   id="path433" />
			<path
   style="fill:#5daade"
   d="m 455.128,238.631 c 1.794,0.288 3.604,0.503 5.378,0.88 3.098,0.657 6.312,0.822 9.285,2.009 -0.251,0.863 0.387,1.459 0.652,2.169 0.041,1.357 1.25,2.471 0.8,3.931 -0.364,0.961 -1.184,0.929 -1.999,0.917 -0.795,-0.071 -1.561,-0.25 -2.285,-0.582 -1.737,-0.756 -3.402,-1.751 -5.47,-1.155 -0.878,0.253 -1.573,-0.251 -2.225,-0.777 -0.961,-0.775 -1.462,-0.138 -1.895,0.66 -1.966,1.166 -3.641,0.829 -4.953,-0.963 -0.436,-0.595 -1.061,-0.955 -1.54,-1.481 -0.558,-1.191 0.138,-2.541 -0.826,-3.841 -0.743,-1.001 0.139,-1.769 1.587,-1.286 1.178,0.391 2.567,1.457 3.491,-0.481 z"
   id="path434" />
			<path
   style="fill:#71b9e3"
   d="m 469.992,243.781 c -0.147,-0.207 -0.256,-0.46 -0.448,-0.613 -1.157,-0.929 -1.163,-0.921 0.246,-1.648 2.02,-0.002 3.961,0.496 5.927,0.834 0.719,0.124 1.437,0.249 2.156,0.374 3.831,0.748 7.661,1.495 11.492,2.242 1.932,0.401 3.866,0.796 5.796,1.208 0.433,0.092 0.851,0.246 1.276,0.371 0.705,1.683 0.154,2.443 -1.682,2.073 -1.594,-0.322 -3.357,0.006 -4.776,-0.939 -1.056,-0.703 -1.294,0.789 -2.09,0.622 -1.43,0.039 -2.86,-0.619 -4.299,0.313 -0.696,0.451 -1.455,0.219 -1.486,-0.857 -0.046,-1.602 -1.029,-1.222 -1.879,-0.753 -1.415,0.782 -2.791,1.435 -4.333,0.424 0.012,-0.453 -0.201,-0.449 -0.525,-0.223 -0.285,-0.028 -0.672,-0.09 -0.732,-0.298 -0.389,-1.368 -1.213,-1.982 -2.705,-1.863 -0.886,0.07 -1.45,-0.607 -1.938,-1.267 z"
   id="path435" />
			<path
   style="fill:#64addf"
   d="m 455.128,238.631 c -0.021,0.628 0.027,1.268 -0.082,1.882 -0.103,0.582 -0.944,0.851 -1.29,0.382 -0.637,-0.863 -1.312,-1.157 -2.32,-0.653 -0.053,0.027 -0.307,-0.366 -0.482,-0.551 -0.108,-0.113 -0.242,-0.202 -0.364,-0.302 -0.076,0.23 -0.284,0.529 -0.206,0.68 0.373,0.716 0.84,1.383 1.242,2.085 0.363,0.635 -0.018,0.759 -0.571,0.729 0.035,0.407 0.07,0.815 0.105,1.222 0.349,0.498 1.07,1.081 0.392,1.618 -0.885,0.701 -1.921,0.368 -2.835,-0.168 -0.988,-0.351 -1.164,-1.158 -0.898,-1.983 0.295,-0.914 0.282,-1.588 -0.675,-2.019 -0.553,-1.449 -1.957,-1.842 -3.207,-2.238 -1.363,-0.432 -2.239,-1.104 -2.488,-2.509 -0.047,-0.264 -0.175,-0.513 -0.266,-0.768 1.845,-0.052 3.638,0.362 5.409,0.712 2.688,0.531 5.321,1.315 8.061,1.628 0.167,0.018 0.317,0.165 0.475,0.253 z"
   id="path436" />
			<path
   style="fill:#63a4dd"
   d="m 436.07,234.957 c -0.236,-0.102 -0.473,-0.205 -0.709,-0.307 0.236,0.102 0.472,0.205 0.709,0.307 z"
   id="path437" />
			<path
   style="fill:#63a4dd"
   d="m 437.292,235.108 c -0.231,-0.102 -0.462,-0.204 -0.693,-0.306 0.231,0.102 0.462,0.204 0.693,0.306 z"
   id="path438" />
			<path
   style="fill:#588cc1"
   d="m 431.468,233.721 c -0.923,-0.169 -1.948,-0.02 -2.675,-0.802 1.03,-0.165 2.089,-0.422 2.675,0.802 z"
   id="path439" />
			<path
   style="fill:#f2cc78"
   d="m 548.036,260.11 c 0.193,-0.922 -0.073,-1.767 -0.321,-2.644 -0.214,-0.756 -0.193,-1.58 -0.276,-2.374 0.177,0.019 0.358,0.02 0.529,0.059 1.359,0.314 1.441,0.391 1.253,1.466 -0.194,1.106 -0.437,2.204 -0.659,3.305 -0.176,0.063 -0.351,0.125 -0.526,0.188 z"
   id="path440" />
			<path
   style="fill:#f2cc78"
   d="m 547.26,254.583 c 0.11,-0.235 0.221,-0.469 0.331,-0.704 -0.11,0.235 -0.221,0.47 -0.331,0.704 z"
   id="path441" />
			<path
   style="fill:#63a2dc"
   d="m 414.729,236.589 c 0.06,0.323 0.164,0.589 0.143,0.845 -0.037,0.451 -0.16,0.909 -0.717,1.001 -0.351,0.058 -1.008,-0.725 -0.926,-1.134 0.05,-0.25 0.213,-0.497 0.38,-0.703 0.148,-0.183 0.381,-0.437 0.558,-0.426 0.207,0.013 0.393,0.281 0.562,0.417 z"
   id="path442" />
			<path
   style="fill:#5996d9"
   d="m 451.236,249.302 c -1.065,-0.283 -2.08,-0.605 -3.039,0.425 -0.473,0.508 -1.237,0.754 -1.897,1.135 -1.545,-1.141 -3.069,-2.266 -4.594,-3.391 1.689,-0.143 3.264,0.58 4.936,0.569 0.652,0.069 1.318,-0.132 1.77,-0.479 2.622,-2.015 3.894,-1.943 6.054,0.483 -0.068,0.562 -0.246,1.026 -0.943,1.029 h -0.002 c -0.588,-0.18 -1.166,0.496 -1.758,0.041 h -10e-4 c -0.164,-0.09 -0.297,-0.092 -0.398,-0.007 -0.101,0.086 -0.143,0.151 -0.128,0.195 z"
   id="path443" />
			<path
   style="fill:#5ca1dc"
   d="m 454.39,248.177 c -0.91,-1.282 -2.611,-0.928 -3.768,-1.717 -0.157,-0.107 -0.529,-0.018 -0.742,0.093 -0.231,0.12 -0.464,0.34 -0.575,0.572 -0.587,1.224 -1.485,1.458 -2.663,0.915 0.426,-0.512 0.361,-1.447 1.423,-1.443 0.212,0.001 0.435,-0.677 0.653,-1.042 0.631,-0.015 1.265,-0.064 1.894,-0.038 0.956,0.041 0.859,-0.33 0.449,-0.918 -0.067,-0.096 0.062,-0.326 0.1,-0.495 0.797,0.178 1.682,0.212 1.854,1.284 0.165,1.031 1.048,1.221 1.86,1.291 0.815,0.07 1.653,-0.084 2.48,-0.139 0.081,0.098 0.162,0.195 0.244,0.293 0.139,0.678 -0.098,1.249 -0.533,1.764 -0.864,0.698 -1.651,0.333 -2.43,-0.146 -0.082,-0.09 -0.164,-0.182 -0.246,-0.274 z"
   id="path444" />
			<path
   style="fill:#63a2dc"
   d="m 413.841,232.424 c -0.038,-0.164 -0.088,-0.326 -0.107,-0.492 -0.009,-0.076 0.046,-0.16 0.071,-0.24 0.099,0.101 0.285,0.206 0.279,0.301 -0.01,0.149 -0.149,0.29 -0.234,0.435 z"
   id="path445" />
			<path
   style="fill:#5e9ada"
   d="m 516.077,253.497 c 0.257,0.194 0.535,0.577 0.767,0.548 0.893,-0.109 1.763,-0.436 2.656,-0.523 1.597,-0.156 2.084,0.234 2.379,1.513 0.235,1.02 0.743,1.975 1.131,2.959 l -0.003,-0.002 c 0.416,-0.191 0.825,-0.492 1.252,-0.524 0.205,-0.015 0.438,0.484 0.668,0.741 0.118,0.133 0.242,0.331 0.39,0.357 1.334,0.233 2.689,0.681 4.008,0.585 1.795,-0.131 3.076,1.108 4.721,1.275 0.27,0.028 0.515,0.47 0.729,0.752 1.179,1.556 2.484,2.835 4.708,2.72 1.008,-0.052 1.313,0.84 1.633,1.601 0.029,0.105 0.058,0.209 0.088,0.314 0.127,0.42 0.307,0.814 0.589,1.156 0.124,0.187 0.185,0.393 0.193,0.616 0.068,0.511 -0.268,1.101 0.29,1.515 0.508,0.798 1.017,1.596 1.525,2.394 -0.886,-0.097 -1.772,-0.201 -2.659,-0.289 -3.064,-0.305 -6.13,-0.601 -9.193,-0.912 -0.168,-0.017 -0.324,-0.141 -0.486,-0.216 -0.471,-0.851 -1.307,-0.271 -1.946,-0.461 -0.176,0.058 -0.353,0.115 -0.53,0.171 -0.235,-0.106 -0.471,-0.208 -0.708,-0.308 -0.172,0.06 -0.345,0.118 -0.518,0.174 -0.492,-1.426 0.273,-2.199 1.501,-2.696 0.425,-0.172 0.906,-0.147 1.354,-0.264 1.392,-0.364 1.499,-1.979 2.62,-2.605 -0.879,-0.61 -1.428,-1.927 -2.434,-1.995 -2.804,-0.19 -5.13,-1.992 -8.005,-1.945 -1.03,0.017 -1.744,0.316 -2.484,0.859 -0.726,0.298 -1.4,0.09 -1.519,-0.619 -0.445,-2.645 -2.116,-3.008 -4.393,-2.474 -0.436,0.102 -0.908,0.011 -1.346,-0.129 -1.072,-0.608 -0.777,-1.248 -0.008,-1.882 0.846,-0.698 1.642,-1.443 2.322,-2.304 0.215,-0.163 0.453,-0.197 0.708,-0.102 z"
   id="path446" />
			<path
   style="fill:#568bd6"
   d="m 495.33,255.085 c 0.053,-0.409 0.105,-0.818 0.158,-1.227 0.152,-0.388 0.467,-0.586 0.847,-0.709 2.579,-0.612 4.12,1.345 6.063,2.312 0.24,0.055 0.472,0.131 0.702,0.212 1.553,0.697 3.117,1.359 4.85,1.519 0.806,0.192 1.549,0.064 2.345,-0.222 1.252,-0.45 1.861,0.134 1.82,1.414 -1.608,1.09 -2.239,2.158 -0.796,4.007 1.073,1.375 0.356,3.255 0.206,4.919 -2.516,-0.55 -5.05,-0.972 -7.633,-1.15 -1.076,-0.074 -2.265,0.077 -3.136,-0.809 -1.246,-0.925 -1.942,-1.97 -2.145,-3.685 -0.209,-1.765 -0.049,-4.163 -2.821,-4.716 -0.682,-0.139 -0.855,-1.095 -0.46,-1.865 z"
   id="path447" />
			<path
   style="fill:#5182d4"
   d="m 511.526,267.307 c -0.448,-0.775 -0.858,-1.494 -0.467,-2.502 0.375,-0.969 0.155,-1.878 -0.637,-2.734 -0.925,-0.998 -0.823,-1.09 -1.002,-2.724 0.831,-0.296 1.671,-0.595 2.51,-0.895 0.331,-0.791 1.218,0.821 1.463,-0.348 1.297,-0.562 2.648,-0.853 4.004,-0.409 1.131,0.37 2.713,4.574 2.221,5.652 -0.679,1.488 -2.117,1.493 -3.248,0.273 -0.024,1.462 -0.664,2.933 -1.662,4.299 -1.061,-0.203 -2.122,-0.407 -3.182,-0.612 z"
   id="path448" />
			<path
   style="fill:#5282d2"
   d="m 495.33,255.085 c 0.167,0.415 0.305,0.845 0.508,1.242 0.262,0.515 0.664,0.535 1.094,0.172 0.26,-0.22 0.499,-0.466 0.93,-0.872 0.176,0.717 0.309,1.214 0.419,1.715 0.133,0.601 0.063,1.347 0.404,1.781 0.922,1.172 0.899,2.524 0.76,3.809 -0.121,1.123 0.326,0.965 1.035,0.812 0.476,-0.103 0.679,0.179 0.606,0.604 -0.058,0.341 -0.216,0.667 -0.33,0.999 -1.644,0.068 -3.266,0.008 -4.905,-0.245 -1.981,-0.306 -4.004,-0.363 -6.009,-0.527 -0.288,-0.684 -0.446,-1.37 -0.063,-2.083 0.311,-0.579 0.577,-1.118 -0.214,-1.6 -0.181,-0.11 -0.201,-0.702 -0.088,-0.997 0.253,-0.662 0.637,-1.277 0.967,-1.911 2.201,1.079 3.518,3.797 6.564,3.313 0.245,-1.82 -0.623,-3.02 -2.345,-3.624 -0.588,-0.206 -1.207,-0.857 -1.775,0.445 -0.424,0.973 -1.608,0.069 -2.443,-0.133 -0.092,-0.435 -0.24,-0.867 -0.251,-1.304 -0.006,-0.222 0.215,-0.634 0.366,-0.651 1.618,-0.184 3.053,-1.319 4.77,-0.945 z"
   id="path449" />
			<path
   style="fill:#5892d8"
   d="m 520.405,260.66 c 0.692,-1.559 0.69,-1.548 1.859,-1.307 1.415,0.291 2.807,0.705 4.303,0.38 0.59,-0.128 0.92,0.22 1.142,0.863 0.358,1.038 0.485,1.043 1.459,0.367 0.396,-0.275 0.573,-0.294 0.879,0.058 0.139,0.16 0.519,0.309 0.671,0.232 0.661,-0.333 1.114,-0.138 1.288,0.486 0.301,1.079 1.098,1.604 2.027,2.064 0.163,0.081 0.182,0.438 0.268,0.667 -0.226,0.058 -0.455,0.106 -0.677,0.176 -0.225,0.071 -0.555,0.103 -0.644,0.259 -0.223,0.388 -0.278,0.871 -0.506,1.255 -0.527,0.89 -1.113,1.681 -2.401,1.323 -0.809,-0.225 -1.427,0.079 -1.705,0.956 -0.135,0.426 -0.402,0.812 -0.609,1.216 -0.412,-0.047 -0.825,-0.094 -1.237,-0.14 -0.859,-0.506 -0.775,-1.292 -0.656,-2.115 0.243,-1.673 -0.374,-2.943 -1.877,-3.764 -1.015,-0.203 -1.398,-0.892 -1.458,-1.829 -0.155,-1.145 -1.201,-0.67 -1.829,-0.952 -0.1,-0.065 -0.198,-0.13 -0.297,-0.195 z"
   id="path450" />
			<path
   style="fill:#578bd6"
   d="m 523.06,261.46 c 0.049,0.239 0.147,0.479 0.139,0.716 -0.026,0.716 0.35,0.815 0.937,0.642 0.203,2.292 -2.123,0.437 -2.656,1.757 0.573,1.35 3.403,1.96 1.865,4.334 -0.638,0.01 -1.288,0.1 -1.911,0.016 -2.247,-0.303 -4.485,-0.666 -6.727,-1.006 0.054,-0.775 0.159,-1.551 0.143,-2.324 -0.009,-0.444 0.236,-0.592 0.512,-0.836 0.891,-0.787 0.874,-0.805 0.31,-1.717 -0.187,-0.301 -0.396,-0.593 -0.542,-0.912 -0.031,-0.067 0.154,-0.255 0.269,-0.354 0.045,-0.039 0.22,-0.02 0.252,0.028 0.344,0.51 0.688,1.022 1,1.551 0.29,0.492 0.627,0.941 1.275,0.738 0.785,-0.245 1.423,-1.027 1.294,-1.558 -0.298,-1.22 -0.59,-2.447 -1.013,-3.626 -0.122,-0.339 -0.648,-0.609 -1.049,-0.756 -1.383,-0.507 -2.701,-0.089 -3.994,0.445 -0.361,-0.117 -0.483,-0.398 -0.52,-0.739 0.05,-0.098 0.1,-0.195 0.15,-0.293 1.255,-0.229 2.504,-0.495 3.766,-0.674 0.976,-0.138 2.218,0.842 2.593,2.021 0.133,0.417 0.054,0.897 0.154,1.329 0.143,0.618 0.649,0.483 1.1,0.414 0,0 0.008,0.006 0.008,0.006 0.887,0.245 1.849,0.262 2.645,0.798 z"
   id="path451" />
			<path
   style="fill:#5082d3"
   d="m 523.345,268.911 c 0.058,-0.629 0.185,-1.252 -0.392,-1.763 -0.705,-0.625 -0.891,-1.812 -2.225,-1.763 -0.489,0.018 -0.659,-0.619 -0.346,-1.008 0.227,-0.282 0.522,-0.51 0.766,-0.779 0.234,-0.259 0.409,-0.709 0.671,-0.763 0.237,-0.048 0.56,0.324 0.842,0.514 0.735,0.496 1.187,0.215 1.474,-0.53 0.333,0.116 0.825,0.133 0.974,0.365 0.933,1.446 2.199,2.803 1.311,4.8 -0.185,0.417 0.056,1.015 0.101,1.529 -1.058,-0.2 -2.117,-0.401 -3.176,-0.602 z"
   id="path452" />
			<path
   style="fill:#5892d8"
   d="m 529.515,269.617 c 0.233,-0.131 0.481,-0.242 0.697,-0.398 0.344,-0.247 0.703,-0.774 1.101,-0.379 0.234,0.232 0.111,0.813 0.148,1.237 -0.648,-0.153 -1.297,-0.306 -1.946,-0.46 z"
   id="path453" />
			<path
   style="fill:#5892d8"
   d="m 528.278,269.48 c 0.236,0.103 0.472,0.205 0.708,0.308 -0.236,-0.103 -0.472,-0.206 -0.708,-0.308 z"
   id="path454" />
			<path
   style="fill:#f1cc7c"
   d="m 541.728,267.629 c -0.064,-0.197 -0.128,-0.394 -0.192,-0.591 -0.395,-0.438 -0.682,-0.906 -0.431,-1.528 0,0 0.01,-0.01 0.01,-0.01 0.144,-0.08 0.271,-0.18 0.382,-0.301 0.4,1.061 0.8,2.122 1.2,3.183 -0.139,0.057 -0.279,0.109 -0.421,0.158 -0.538,-0.095 -0.58,-0.481 -0.548,-0.911 z"
   id="path455" />
			<path
   style="fill:#67abdf"
   d="m 541.728,267.629 c 0.182,0.303 0.365,0.607 0.547,0.911 0,0.187 0,0.374 0,0.561 -0.753,-0.28 -0.935,-0.77 -0.547,-1.472 z"
   id="path456" />
			<path
   style="fill:#70bae3"
   d="m 503.374,227.819 c 0.099,0.581 0.264,1.161 0.263,1.743 -10e-4,0.229 -0.375,0.462 -0.579,0.692 -0.363,-0.865 -0.498,-1.704 0.316,-2.435 z"
   id="path457" />
			<polygon
   style="fill:#75bde4"
   points="480.334,225.917 480.465,225.977 480.291,226.171 "
   id="polygon457" />
			<path
   style="fill:#70bae3"
   d="m 505.6,226.927 c 0.15,-0.053 0.288,-0.125 0.432,-0.143 0.058,-0.007 0.194,0.14 0.184,0.157 -0.07,0.122 -0.168,0.229 -0.258,0.34 -0.114,-0.113 -0.228,-0.226 -0.358,-0.354 z"
   id="path458" />
			<path
   style="fill:#538dd7"
   d="m 474.396,256.148 c -0.048,-0.401 0.118,-1.06 -0.581,-0.902 -0.977,0.222 -1.754,0.25 -2.392,-0.679 -0.176,-0.256 -0.8,-0.178 -1.183,-0.336 -0.638,-0.263 -0.848,0.096 -0.874,0.586 -0.024,0.439 0.123,0.883 0.136,1.327 0.004,0.121 -0.185,0.318 -0.32,0.355 -0.115,0.032 -0.381,-0.09 -0.405,-0.188 -0.215,-0.861 -0.39,-1.731 -0.577,-2.599 0.029,-1.246 -0.949,-0.428 -1.415,-0.657 h -0.001 c -0.996,-0.433 -1.975,-0.909 -2.994,-1.279 -0.517,-0.188 -1.083,-0.191 -1.407,0.477 -0.195,0.403 -0.472,0.781 -0.769,1.122 -0.447,0.516 -0.946,0.403 -1.291,-0.246 -0.369,-0.695 -0.341,-1.653 -1.312,-1.951 -0.426,-1.777 -1.925,-0.435 -2.8,-0.904 -0.309,-0.609 0.144,-0.938 0.505,-1.299 0.588,-0.94 1.452,-1.565 2.437,-2.054 0.254,0.04 0.459,0.161 0.621,0.349 0.329,1.25 1.663,0.62 2.462,1.23 1.197,0.915 3.35,0.232 4.178,2.162 0.138,0.321 0.665,-0.292 1.083,-0.339 1.131,-0.128 2.225,-0.205 3.137,0.627 0.566,0.537 0.849,1.347 1.637,1.665 0.781,-0.348 0.975,-2.902 2.418,-0.637 0.87,1.098 0.913,2.379 0.751,3.684 -0.078,0.622 -0.636,0.447 -1.044,0.486 z"
   id="path459" />
			<path
   style="fill:#5388d6"
   d="m 456.175,249.868 c 0.248,0.077 0.505,0.241 0.741,0.213 0.491,-0.059 1.127,-0.461 1.417,-0.28 0.373,0.232 0.464,0.898 0.676,1.377 -0.225,0.148 -0.551,0.473 -0.659,0.415 -0.889,-0.483 -1.751,-0.753 -2.745,-0.223 -0.122,0.065 -0.505,-0.184 -0.659,-0.374 -0.502,-0.62 -0.954,-1.28 -1.425,-1.924 0.289,-0.299 0.578,-0.597 0.867,-0.895 0,0 0.001,0.001 0.001,0.001 0.379,0.147 0.65,0.41 0.846,0.752 0.15,0.223 0.332,0.419 0.549,0.583 0.163,0.085 0.291,0.205 0.391,0.355 z"
   id="path460" />
			<path
   style="fill:#5388d6"
   d="m 451.764,249.114 c 0.584,-0.186 1.166,-0.512 1.758,-0.041 -0.121,0.135 -0.245,0.268 -0.364,0.404 -0.29,0.333 -0.63,0.978 -0.856,0.943 -0.693,-0.106 -0.252,-0.894 -0.538,-1.306 z"
   id="path461" />
			<path
   style="fill:#5388d6"
   d="m 451.236,249.302 c 0.102,-0.112 0.195,-0.234 0.312,-0.327 0.02,-0.016 0.14,0.09 0.215,0.14 -0.176,0.062 -0.351,0.125 -0.527,0.187 z"
   id="path462" />
			<path
   style="fill:#619ddc"
   d="m 474.689,251.978 c -1.214,-0.646 -1.528,-0.516 -1.486,0.642 0.013,0.35 0.12,0.696 0.188,1.069 -1.755,-0.2 -1.983,-0.384 -3.113,-2.459 -0.271,-1.065 -1.585,-1.759 -1.102,-3.093 0.467,-0.35 1.26,0.22 1.574,-0.558 1.628,-0.791 3.375,-0.664 4.586,0.406 1.439,1.271 3.048,1.749 4.816,2.086 0.625,0.756 0.499,1.52 -0.002,2.286 0.057,0.167 0.127,0.331 0.166,0.502 0.038,0.166 0.069,0.343 0.043,0.507 -0.006,0.041 -0.314,0.115 -0.358,0.066 -1.099,-1.248 -2.874,-1.093 -4.178,-1.924 -0.466,-0.298 -0.793,0.213 -1.134,0.47 z"
   id="path463" />
			<path
   style="fill:#619fdc"
   d="m 496.533,253.482 c -0.348,0.125 -0.696,0.251 -1.045,0.376 -0.622,-0.443 -1.231,-0.161 -1.817,0.086 -0.582,0.246 -1.119,0.607 -1.712,0.815 -0.286,0.101 -0.804,0.097 -0.962,-0.08 -1.169,-1.311 -2.69,-1.764 -4.384,-1.885 -0.165,-0.012 -0.318,-0.159 -0.477,-0.244 0.007,-0.129 0.015,-0.258 0.021,-0.387 1.298,-0.828 3.675,-1.572 4.787,-1.465 0.853,0.081 1.657,-0.085 2.449,-0.387 0.895,-0.341 1.799,-0.678 2.366,0.482 -0.011,0.367 -0.138,0.692 -0.412,0.948 -0.314,0.293 -0.747,0.3 -1.124,0.443 0.342,-0.02 0.671,-0.202 1.003,-0.172 0.884,0.081 1.594,0.357 1.307,1.47 z"
   id="path464" />
			<path
   style="fill:#609ddb"
   d="m 480.15,252.357 c -0.068,-0.746 -0.137,-1.492 -0.205,-2.238 1.884,-1.561 3.932,-1.378 6.038,-0.626 1.396,0.929 0.194,2.023 0.16,3.044 l -0.005,0.013 c -1.196,0.354 -2.52,-0.211 -3.674,0.545 -0.118,0.077 -0.515,-0.048 -0.611,-0.192 -0.431,-0.645 -1.126,-0.404 -1.703,-0.546 z"
   id="path465" />
			<path
   style="fill:#4e84d4"
   d="m 466.784,253.056 c 0.699,0.039 0.609,-1.262 1.334,-0.868 0.242,0.132 0.066,0.996 0.082,1.525 -0.472,-0.219 -0.944,-0.438 -1.416,-0.657 z"
   id="path466" />
			<path
   style="fill:#6aafe1"
   d="m 486.142,252.537 c -0.184,-0.55 -0.467,-1.085 -0.057,-1.675 0.334,-0.48 -0.119,-0.751 -0.34,-1.077 0.732,-0.449 1.25,-1.099 1.734,-1.781 0.636,-0.406 1.24,-1.051 1.918,-1.147 0.628,-0.089 1.338,0.4 2.004,0.653 0.698,0.264 1.389,0.333 2.135,0.134 0.325,-0.087 0.716,0.006 1.061,0.082 0.482,0.106 0.893,0.893 1.4,0.338 0.321,-0.35 0.304,-0.999 0.439,-1.514 0.233,0.096 0.466,0.191 0.699,0.287 1.484,0.682 2.967,1.314 4.648,1.476 1.767,0.171 3.105,1.297 3.85,2.715 0.733,1.395 1.872,2.374 2.779,3.576 0.128,0.412 -0.039,0.71 -0.383,0.938 -0.218,0.099 -0.449,0.155 -0.688,0.165 -0.557,-0.042 -1.118,-0.231 -1.679,0.037 -0.95,0.64 -1.933,0.513 -2.926,0.175 l 0.001,10e-4 c -1.712,-2.574 -5.153,-2.788 -7.115,-5.019 -0.423,-0.376 -0.848,-0.657 -1.446,-0.268 -1.571,1.023 -3.176,1.232 -4.85,0.255 -0.419,-0.245 -0.667,0.018 -0.646,0.466 0.023,0.492 -0.235,0.703 -0.65,0.523 -0.865,-0.377 -1.374,0.111 -1.888,0.66 z"
   id="path467" />
			<path
   style="fill:#71b9e3"
   d="m 508.357,255.081 c -0.416,-0.345 -0.779,-0.848 -1.261,-1.002 -0.93,-0.297 -1.319,-0.961 -1.49,-1.769 -0.36,-1.708 -1.942,-2.292 -3.067,-3.263 -0.378,-0.326 -1.188,-0.215 -1.803,-0.22 -1.589,-0.012 -2.72,-0.774 -3.601,-1.991 2.442,-0.222 4.733,0.56 7.069,0.992 4.598,0.849 9.175,1.799 13.761,2.707 0.035,0.341 0.102,0.682 0.1,1.023 -0.004,0.696 -0.285,1.084 -1.088,1.15 -0.318,0.026 -0.602,0.512 -0.902,0.789 -0.173,0.062 -0.346,0.125 -0.518,0.189 -0.191,0.388 -0.52,0.577 -0.938,0.638 -0.265,0.008 -0.527,-0.019 -0.785,-0.076 -0.126,-0.032 -0.251,-0.071 -0.378,-0.102 -1.053,-0.251 -1.619,-1.049 -2.217,-1.846 -0.56,-0.746 -1.289,-1.275 -2.322,-1.002 -0.389,0.102 -0.58,0.447 -0.537,0.832 0.112,1.024 1.117,1.036 1.764,1.451 0.198,0.151 0.346,0.343 0.447,0.57 0.021,0.242 -0.017,0.477 -0.111,0.703 -0.067,0.097 -0.137,0.196 -0.204,0.294 -0.096,0.067 -0.196,0.134 -0.293,0.202 -0.112,0.031 -0.227,0.061 -0.34,0.095 -0.232,0.018 -0.464,-0.001 -0.692,-0.043 -0.223,-0.057 -0.421,-0.167 -0.594,-0.321 z"
   id="path468" />
			<path
   style="fill:#639bcb"
   d="m 481.747,240.197 c 0.258,0.862 1.19,0.701 1.731,1.115 0.232,0.178 0.436,0.627 0.367,0.88 -0.067,0.242 -0.519,0.564 -0.777,0.547 -1.175,-0.078 -2.345,-0.242 -3.507,-0.43 -0.223,-0.036 -0.401,-0.318 -0.6,-0.486 0.283,-0.146 0.559,-0.306 0.85,-0.434 0.164,-0.072 0.352,-0.092 0.529,-0.136 l -10e-4,0.001 c 0.295,-0.301 0.591,-0.602 0.886,-0.904 0.171,-0.057 0.346,-0.109 0.522,-0.153 z"
   id="path469" />
			<path
   style="fill:#67b5e1"
   d="m 446.756,220.117 c 0.038,0.163 0.09,0.325 0.11,0.491 0.009,0.076 -0.042,0.161 -0.067,0.241 -0.099,-0.1 -0.284,-0.204 -0.276,-0.298 0.011,-0.149 0.15,-0.29 0.234,-0.435 z"
   id="path470" />
			<path
   style="fill:#6fb2e1"
   d="m 487.479,248.004 c -0.267,0.588 0.357,0.466 0.539,0.694 0.145,0.18 0.243,0.507 0.175,0.711 -0.065,0.198 -0.363,0.446 -0.567,0.456 -0.625,0.029 -1.254,-0.046 -1.882,-0.08 -1.68,-0.281 -3.348,-0.413 -4.987,0.295 -0.233,0.101 -0.541,0.03 -0.814,0.039 -0.809,0.097 -1.617,0.194 -2.426,0.291 -0.493,0.059 -0.943,-0.056 -1.149,-0.516 -0.721,-1.613 -2.149,-1.943 -3.729,-2.057 -0.634,-0.046 -1.261,-0.17 -1.892,-0.259 -0.07,-0.517 0.042,-1.194 -0.249,-1.52 -0.635,-0.712 -0.645,-1.451 -0.509,-2.278 1.052,0.549 2.202,0.846 3.371,0.828 1.313,-0.021 1.544,-0.047 1.33,0.954 -0.245,1.147 0.418,1.202 1.153,1.36 0.409,0.385 0.885,0.785 1.452,0.48 0.523,-0.282 0.972,-0.424 1.555,-0.249 0.178,0.053 0.508,-0.147 0.674,-0.319 0.365,-0.38 0.666,-1.153 1,-1.16 0.745,-0.016 1.403,0.684 2.267,0.496 0.028,-0.006 0.246,0.45 0.21,0.664 -0.084,0.49 -0.271,0.965 -0.443,1.535 0.401,-0.063 0.652,-0.026 0.746,-0.128 1.338,-1.453 2.741,-1.121 4.175,-0.237 z"
   id="path471" />
			<path
   style="fill:#5699da"
   d="m 469.176,248.136 c 0.438,0.878 0.887,1.752 1.298,2.643 0.046,0.1 -0.125,0.298 -0.195,0.451 -0.738,-0.467 -1.55,-0.398 -2.383,-0.363 -0.592,0.024 -1.026,0.246 -1.427,0.624 -0.304,-0.414 -0.525,-0.955 -0.933,-1.21 -0.593,-0.371 -1.3,-0.66 -1.994,-0.763 -1.796,-0.264 -1.803,-0.216 -2.923,-1.311 -0.049,0.167 -0.134,0.333 -0.14,0.501 -0.02,0.547 -0.247,0.875 -0.835,0.716 -0.5,-0.135 -0.295,-0.485 -0.246,-0.855 0.068,-0.506 -0.056,-1.036 -0.097,-1.555 2.816,-1.546 5.306,0.249 7.931,0.657 0.647,0.154 1.295,0.31 1.944,0.465 z"
   id="path472" />
			<path
   style="fill:#5ca1dc"
   d="m 467.231,247.67 c -0.502,0.141 -1.025,0.233 -1.501,0.433 -1.318,0.554 -1.356,0.56 -2.115,-0.614 -0.096,-0.148 -0.151,-0.321 -0.246,-0.47 -0.272,-0.429 -0.685,-0.564 -1.159,-0.415 -0.951,0.301 -1.894,0.615 -2.909,0.408 v 0 c -0.674,-0.052 -1.376,0 -1.942,-0.47 l -0.003,-0.002 c -0.052,-0.48 -0.635,-0.979 0.064,-1.431 0.975,-0.631 1.281,-0.646 1.931,-0.063 0.268,0.241 0.517,0.508 0.739,0.791 0.313,0.401 0.751,0.634 1.19,0.413 1.61,-0.81 3.002,-0.208 4.441,0.434 0.572,0.257 1.263,0.27 1.51,0.986 z"
   id="path473" />
			<path
   style="fill:#6fb2e1"
   d="m 475.975,245.436 c 0.273,0.145 0.474,0.182 0.53,0.292 0.246,0.485 10e-4,0.82 -0.422,1.073 -0.076,0.045 -0.157,0.081 -0.236,0.121 -0.036,-0.17 -0.119,-0.345 -0.098,-0.508 0.04,-0.316 0.14,-0.625 0.226,-0.978 z"
   id="path474" />
			<path
   style="fill:#5699da"
   d="m 457.359,246.542 c 0.758,-0.268 1.405,-0.109 1.942,0.47 -0.398,0.396 -0.344,1.177 -1.233,1.19 -0.342,0.005 -0.682,0.504 -1.024,0.778 -0.246,-0.107 -0.308,-0.28 -0.186,-0.519 0.167,-0.639 0.334,-1.279 0.501,-1.919 z"
   id="path475" />
			<path
   style="fill:#5996d9"
   d="m 456.858,248.462 c 0.062,0.173 0.124,0.346 0.186,0.519 -0.29,0.296 -0.579,0.592 -0.869,0.888 -0.175,0.061 -0.351,0.123 -0.526,0.185 -0.229,-0.124 -0.465,-0.233 -0.708,-0.328 -0.184,-0.516 -0.367,-1.031 -0.551,-1.547 0.411,0.048 0.822,0.095 1.233,0.143 0.412,0.046 0.824,0.093 1.235,0.14 z"
   id="path476" />
			<path
   style="fill:#67abdf"
   d="m 514.501,254.054 c 0.353,-0.123 0.705,-0.246 1.058,-0.369 0.084,0.437 0.126,0.862 -0.295,1.187 -0.763,0.589 -1.55,1.153 -2.263,1.797 -0.189,0.171 -0.145,0.592 -0.208,0.899 v 0.001 c -1.077,-0.271 -2.029,-0.782 -3.305,-0.52 -0.834,0.172 -1.944,-0.405 -2.182,-1.59 0.35,-0.126 0.701,-0.253 1.052,-0.379 0.174,-0.062 0.349,-0.122 0.523,-0.182 0.225,0.132 0.472,0.217 0.708,0.326 l 0.002,0.001 c 0.161,0.084 0.292,0.084 0.393,0.001 0.101,-0.083 0.144,-0.146 0.129,-0.188 h 10e-4 c 0.122,-0.23 0.235,-0.464 0.341,-0.702 v -0.001 c 0.342,-0.707 1.311,-1.003 1.523,-0.559 0.757,1.585 1.234,-0.356 1.813,-0.047 v 0 c 0.242,0.098 0.359,0.455 0.71,0.325 z"
   id="path477" />
			<path
   style="fill:#67abdf"
   d="m 541.104,265.509 c 0.144,0.509 0.288,1.019 0.432,1.528 -0.835,-0.602 -0.835,-0.602 -0.432,-1.528 z"
   id="path478" />
			<path
   style="fill:#67abdf"
   d="m 523.007,257.993 c -0.014,0.085 -0.028,0.17 -0.042,0.255 0.015,-0.084 0.03,-0.169 0.045,-0.253 z"
   id="path479" />
			<path
   style="fill:#5a95d9"
   d="m 495.624,250.9 c 0.783,-0.222 1.469,-0.101 1.927,0.601 0.365,0.559 0.816,1.01 1.51,1.02 1.838,0.026 2.73,1.183 3.393,2.64 0.112,0.245 0.191,0.505 0.285,0.758 -0.674,0.19 -1.146,0.486 -1.818,-0.389 -1.01,-1.315 -2.598,-2.028 -4.388,-2.047 -0.446,-0.961 -1.111,-1.368 -2.184,-0.866 -0.395,0.184 -0.82,0.348 -1.245,0.406 -0.214,0.029 -0.461,-0.201 -0.694,-0.313 0.175,-0.269 0.292,-0.673 0.538,-0.777 0.399,-0.169 0.913,-0.061 1.321,-0.22 0.484,-0.189 0.906,-0.536 1.355,-0.813 z"
   id="path480" />
			<path
   style="fill:#5e9ada"
   d="m 507.306,255.46 c 0.884,0.408 1.767,0.815 2.651,1.223 1.23,-0.56 1.987,0.305 2.837,0.887 0.123,0.343 0.247,0.687 0.37,1.03 -0.186,0.054 -0.385,0.173 -0.556,0.145 -0.236,-0.039 -0.452,-0.189 -0.677,-0.292 -0.106,-0.248 -0.149,-0.571 -0.336,-0.725 -0.235,-0.194 -0.581,-0.294 -0.895,-0.347 -0.123,-0.021 -0.304,0.181 -0.433,0.306 -0.925,0.899 -1.837,0.46 -2.752,0.019 -0.641,-0.596 -2.661,-0.613 -0.934,-2.207 0.236,-0.132 0.477,-0.144 0.723,-0.04 -10e-4,0 0.002,0.001 0.002,0.001 z"
   id="path481" />
			<path
   style="fill:#5e97da"
   d="m 506.781,255.65 c -0.328,0.872 -0.323,0.867 0.464,1.592 0.126,0.116 0.181,0.307 0.269,0.464 -1.795,-0.083 -3.375,-0.712 -4.776,-1.789 1.172,-0.014 2.212,-0.401 3.141,-1.105 0.37,0.206 0.651,0.506 0.902,0.838 z"
   id="path482" />
			<path
   style="fill:#4b77d1"
   d="m 490.446,257.983 c 0.263,-0.081 0.527,-0.228 0.789,-0.228 0.428,0 0.997,0.283 1.245,0.101 0.288,-0.212 0.264,-0.811 0.434,-1.218 0.086,-0.206 0.303,-0.359 0.46,-0.537 0.094,0.137 0.191,0.273 0.282,0.412 0.096,0.146 0.236,0.436 0.273,0.423 1.656,-0.576 2.198,1.2 3.425,1.555 0.532,0.154 0.73,0.796 0.423,1.372 -0.229,0.429 -0.29,0.772 -0.044,1.244 0.304,0.584 -0.088,1.185 -0.644,1.11 -0.976,-0.131 -1.949,-0.29 -2.916,-0.477 -0.245,-0.047 -0.503,-0.201 -0.68,-0.378 -1.073,-1.075 -2.384,-1.944 -3.049,-3.378 10e-4,0 0.002,-10e-4 0.002,-10e-4 z"
   id="path483" />
			<path
   style="fill:#5082d3"
   d="m 523.06,261.46 c -1.077,0.341 -1.891,-0.137 -2.647,-0.795 0.619,-0.089 1.236,-0.208 1.858,-0.26 0.8,-0.068 0.821,0.486 0.789,1.055 z"
   id="path484" />
			<path
   style="fill:#5e9ada"
   d="m 525.87,261.04 c 0.086,0.013 0.171,0.026 0.257,0.04 -0.086,-0.014 -0.171,-0.027 -0.257,-0.04 z"
   id="path485" />
			<path
   style="fill:#5e9ada"
   d="m 525.87,261.039 c -0.086,-0.013 -0.171,-0.027 -0.257,-0.04 0.086,0.014 0.171,0.027 0.257,0.04 z"
   id="path486" />
			<path
   style="fill:#538dd7"
   d="m 454.941,249.725 c 0.236,0.109 0.472,0.219 0.708,0.328 -0.236,-0.11 -0.472,-0.219 -0.708,-0.328 z"
   id="path487" />
			<path
   style="fill:#67abdf"
   d="m 506.781,255.65 c -0.301,-0.279 -0.601,-0.559 -0.902,-0.838 0.475,0.216 0.949,0.432 1.424,0.648 -0.175,0.063 -0.349,0.126 -0.522,0.19 z"
   id="path488" />
			<path
   style="fill:#6aafe1"
   d="m 513.791,253.729 c -0.19,0.489 -0.309,1.024 -0.6,1.446 -0.146,0.213 -0.602,0.299 -0.919,0.303 -0.562,0.008 -0.423,-0.329 -0.312,-0.712 0.179,-0.612 -0.198,-0.767 -0.734,-0.663 -0.262,0.051 -0.515,0.152 -0.772,0.23 -0.307,-0.169 -0.674,-0.543 -0.911,-0.472 -1.062,0.316 -1.51,-0.352 -1.933,-1.039 -0.346,-0.564 -0.428,-1.213 0.005,-1.78 0.481,-0.629 1.188,-0.906 1.943,-0.68 1.038,0.311 2.184,0.627 2.478,1.845 0.237,0.979 1.101,1.098 1.755,1.522 z"
   id="path489" />
			<path
   style="fill:#6aafe1"
   d="m 514.501,254.054 c -0.384,0.413 -0.384,0.413 -0.709,-0.325 0.236,0.108 0.472,0.217 0.709,0.325 z"
   id="path490" />
			<path
   style="fill:#6aafe1"
   d="m 506.172,251.637 c 0.072,-0.001 0.195,-0.022 0.205,0.002 0.027,0.07 0.01,0.158 0.009,0.238 -0.072,10e-4 -0.196,0.022 -0.205,-0.002 -0.027,-0.07 -0.009,-0.158 -0.009,-0.238 z"
   id="path491" />
			<path
   style="fill:#6aafe1"
   d="m 510.455,254.335 c -0.114,0.234 -0.228,0.468 -0.341,0.702 0.113,-0.234 0.227,-0.468 0.341,-0.702 z"
   id="path492" />
			<path
   style="fill:#6aafe1"
   d="m 510.113,255.037 c -0.1,0.112 -0.193,0.234 -0.309,0.328 -0.019,0.016 -0.139,-0.09 -0.213,-0.14 0.174,-0.063 0.348,-0.125 0.522,-0.188 z"
   id="path493" />
			<path
   style="fill:#6aafe1"
   d="m 509.589,255.224 c -0.236,-0.109 -0.472,-0.217 -0.708,-0.326 0.236,0.109 0.472,0.217 0.708,0.326 z"
   id="path494" />
			<path
   style="fill:#5c90c3"
   d="m 480.338,241.256 c 0.086,0.013 0.171,0.026 0.257,0.039 -0.085,-0.014 -0.171,-0.027 -0.256,-0.041 0,0.001 -10e-4,0.002 -10e-4,0.002 z"
   id="path495" />
		</g></g></svg>
