<?xml version="1.0" encoding="UTF-8" standalone="no"?>
<!-- Created with Inkscape (http://www.inkscape.org/) -->

<svg
   width="154.42314mm"
   height="141.8584mm"
   viewBox="0 0 154.42314 141.8584"
   version="1.1"
   id="svg1"
   xml:space="preserve"
   xmlns="http://www.w3.org/2000/svg"
   xmlns:svg="http://www.w3.org/2000/svg"><defs
     id="defs1" /><g
     id="layer1"
     transform="translate(-34.168543,-61.083578)"><g
       id="g1"><path
         style="fill:#3cb485;fill-opacity:1;stroke:none;stroke-width:3;stroke-dasharray:none;stroke-opacity:1"
         d="m 53.260272,75.08219 c -14.869983,11.474188 -18.081848,35.23399 -18.863011,54.00001 -0.875979,21.04376 0.07038,48.20731 15.534246,62.50684 15.654235,14.47556 42.299453,11.15424 63.616433,10.72603 20.55239,-0.41285 46.23297,1.32699 61.0274,-12.94521 15.33276,-14.79153 14.40828,-41.58447 13.68493,-62.87671 C 187.64706,108.44286 187.0313,84.997478 172.72602,73.972601 157.4419,62.193339 136.69285,61.186045 115.39528,61.088213 92.739491,60.984141 69.511665,62.542059 53.260272,75.08219 Z"
         id="path1" /><path
         style="fill:#50d2a5;fill-opacity:1;stroke:none;stroke-width:2.68071;stroke-dasharray:none;stroke-opacity:1"
         d="M 59.870318,78.794401 C 46.537121,89.012096 43.657196,110.17008 42.956764,126.88111 c -0.785448,18.73936 0.06311,42.92837 13.928811,55.66201 14.036394,12.89042 37.927883,9.9328 57.041785,9.55148 18.42833,-0.36764 41.45488,1.18169 54.72033,-11.52764 13.74815,-13.17178 12.91922,-37.03075 12.27063,-55.99138 C 180.36848,108.5019 179.81636,87.623905 166.98949,77.806311 153.28495,67.316941 134.6803,66.419956 115.58378,66.332836 95.269434,66.240162 74.442163,67.627478 59.870318,78.794401 Z"
         id="path1-3" /><path
         style="fill:#c8f5e6;fill-opacity:1;stroke:none;stroke-width:2.60633;stroke-dasharray:none;stroke-opacity:1"
         d="m 61.942165,81.867287 c -12.944484,9.948628 -15.740451,30.549483 -16.420467,46.820463 -0.762549,18.24589 0.06119,41.79793 13.522735,54.19627 13.62718,12.55096 36.822146,9.67124 55.378797,9.29995 17.89107,-0.35796 35.62761,-6.77216 48.50632,-19.1468 13.34735,-12.82493 14.34359,-28.25549 16.53159,-46.59425 1.95318,-16.37067 2.48301,-34.89826 -9.9699,-44.457333 C 156.18622,71.772432 133.15,69.098453 116.03135,69.733873 96.32227,70.465446 76.089173,70.994428 61.942165,81.867287 Z"
         id="path1-3-1" /></g></g></svg>
