<?xml version="1.0" encoding="UTF-8" standalone="no"?>
<!-- Created with Inkscape (http://www.inkscape.org/) -->

<svg
   width="154.42316mm"
   height="141.8584mm"
   viewBox="0 0 154.42316 141.8584"
   version="1.1"
   id="svg1"
   xml:space="preserve"
   xmlns="http://www.w3.org/2000/svg"
   xmlns:svg="http://www.w3.org/2000/svg"><defs
     id="defs1" /><g
     id="layer1"
     transform="translate(-418.4214,-223.09411)"><g
       id="g4"><path
         style="fill:#ebb432;fill-opacity:1;stroke:none;stroke-width:3;stroke-dasharray:none;stroke-opacity:1"
         d="m 437.51311,237.09272 c -14.86998,11.47419 -18.08185,35.23399 -18.86301,54.00001 -0.87598,21.04376 0.0704,48.20731 15.53425,62.50684 15.65423,14.47556 42.29945,11.15424 63.61643,10.72603 20.55239,-0.41285 46.23297,1.32699 61.0274,-12.94521 15.33276,-14.79153 14.40828,-41.58447 13.68493,-62.87671 -0.61321,-18.05029 -1.22897,-41.49567 -15.53425,-52.52055 -15.28412,-11.77926 -36.03317,-12.78656 -57.33074,-12.88439 -22.65579,-0.10407 -45.88361,1.45385 -62.13501,13.99398 z"
         id="path1-0-2-2" /><path
         style="fill:#ffd764;fill-opacity:1;stroke:none;stroke-width:2.68071;stroke-dasharray:none;stroke-opacity:1"
         d="m 444.12316,240.80493 c -13.3332,10.21769 -16.21312,31.37568 -16.91356,48.08671 -0.78544,18.73936 0.0631,42.92837 13.92881,55.66201 14.0364,12.89042 37.92789,9.9328 57.04179,9.55148 18.42833,-0.36764 41.45488,1.18169 54.72033,-11.52764 13.74815,-13.17178 12.91922,-37.03075 12.27063,-55.99138 -0.54984,-16.07368 -1.10196,-36.95168 -13.92883,-46.76927 -13.70454,-10.48937 -32.30919,-11.38636 -51.40571,-11.47348 -20.31435,-0.0927 -41.14162,1.29465 -55.71346,12.46157 z"
         id="path1-3-6-0-8" /><path
         style="fill:#fff5c8;fill-opacity:1;stroke:none;stroke-width:2.60633;stroke-dasharray:none;stroke-opacity:1"
         d="m 446.195,243.87782 c -12.94448,9.94862 -15.74045,30.54948 -16.42046,46.82046 -0.76255,18.24589 0.0612,41.79793 13.52273,54.19627 13.62718,12.55096 36.82215,9.67124 55.3788,9.29995 17.89107,-0.35796 35.62761,-6.77216 48.50632,-19.1468 13.34735,-12.82493 14.34359,-28.25549 16.53159,-46.59425 1.95318,-16.37067 2.48301,-34.89826 -9.9699,-44.45733 -13.30502,-10.21316 -36.34124,-12.88714 -53.45989,-12.25172 -19.70908,0.73158 -39.94218,1.26056 -54.08919,12.13342 z"
         id="path1-3-1-2-2-9" /></g></g></svg>
