<?xml version="1.0" encoding="UTF-8" standalone="no"?>
<!-- Created with Inkscape (http://www.inkscape.org/) -->

<svg
   width="36.210613mm"
   height="19.240494mm"
   viewBox="0 0 36.210613 19.240494"
   version="1.1"
   id="svg1"
   xml:space="preserve"
   xmlns="http://www.w3.org/2000/svg"
   xmlns:svg="http://www.w3.org/2000/svg"><defs
     id="defs1" /><g
     id="g127"
     transform="matrix(0.26458333,0,0,0.26458333,-15.369543,-73.67059)">
		<path
   style="fill:#bec1c7"
   d="m 133.707,332.974 c -2.912,-0.003 -5.824,-0.007 -8.736,-0.008 -3.775,-0.001 -7.55,-0.002 -11.326,-0.004 -1.785,0 -3.569,-10e-4 -5.354,-0.002 -0.961,0 -1.922,0.005 -2.883,-0.018 -0.696,-0.017 -1.437,0.028 -2.13,-0.096 0.818,1.903 1.334,3.944 1.501,6.032 0.394,0.003 0.787,0.005 1.179,0.002 2.066,-0.012 4.133,-0.009 6.199,-0.009 h 12.605 c 3.028,0 6.056,0.006 9.084,0.011 -0.226,-1.945 -0.156,-3.945 -0.139,-5.908 z"
   id="path101-0" />
		<path
   style="fill:#bec1c7"
   d="m 136.092,332.976 c -0.312,0 -0.623,0 -0.935,-10e-4 0.013,1.962 0.089,3.962 -0.138,5.91 0.783,0.001 1.567,0.001 2.35,0.003 2.066,0.004 4.133,0.009 6.199,0.013 0.731,10e-4 1.466,-0.007 2.202,-0.01 0.098,-1.997 0.555,-4.106 1.297,-6.095 -3.605,0.409 -7.356,0.184 -10.975,0.18 z"
   id="path102-3" />
		<path
   style="fill:#bec1c7"
   d="m 161.806,332.86 c -1.032,0.521 -2.061,0.956 -2.93,1.82 -1.057,1.05 -1.718,2.427 -1.748,3.928 -0.075,3.696 3.979,5.663 7.256,5.038 3.008,-0.573 5.038,-3.693 4.198,-6.667 -0.859,-3.036 -3.83,-4.418 -6.776,-4.119 z"
   id="path103-3" />
		<path
   style="fill:#8f8fab"
   d="m 162.67,327.74 c -3.151,-0.051 -6.25,1.198 -8.44,3.475 -2.319,2.409 -3.432,6.156 -2.819,9.468 0.031,0.168 -0.024,0.303 -0.117,0.393 0.408,2.274 1.68,4.422 3.412,5.9 2.225,1.899 5.223,2.671 8.098,2.705 2.773,0.033 5.856,-0.47 8.149,-2.131 2.421,-1.754 3.468,-4.812 3.775,-7.676 0.003,-0.027 0.012,-0.05 0.018,-0.076 -0.297,-3.153 -1.413,-6.246 -3.673,-8.534 -2.191,-2.218 -5.297,-3.474 -8.403,-3.524 z m 5.594,15.315 c -2.315,2.451 -6.017,2.595 -8.92,1.15 -2.798,-1.393 -4.129,-4.432 -3.191,-7.43 0.746,-2.384 3.276,-4.898 5.912,-5.067 1.22,-0.329 2.482,-0.259 3.743,0.234 1.594,0.624 2.9,1.797 3.64,3.347 1.233,2.586 0.79,5.675 -1.184,7.766 z"
   id="path104-3" />
		<path
   style="fill:#717189"
   d="m 81.689,324.19 c -6.267,2.214 -9.778,8.323 -9.952,14.741 0.942,-0.008 1.898,-0.012 2.817,0.159 -0.361,-2.819 0.873,-5.941 2.543,-8.104 1.734,-2.247 4.177,-3.769 6.93,-4.43 2.833,-0.68 6.212,-0.924 8.985,0.118 2.506,0.943 4.326,3.042 5.39,5.449 0.613,1.386 0.992,2.863 1.208,4.36 0.116,0.808 0.242,1.661 0.265,2.507 1.146,-0.108 2.306,-0.124 3.465,-0.121 -0.282,-3.422 -1.562,-6.743 -3.695,-9.445 -4.215,-5.338 -11.516,-7.509 -17.956,-5.234 z"
   id="path105-7" />
		<path
   style="fill:#fff543"
   d="m 65.638,326.333 c 0.937,-0.531 0.664,-1.89 0.624,-2.792 -0.045,-1.023 0.012,-2.142 -0.187,-3.148 -0.294,-1.481 -1.813,-1.437 -3.217,-1.403 -0.087,0.145 -0.235,0.245 -0.427,0.221 -1.996,-0.249 -1.563,4.554 -1.32,5.729 0.24,1.163 0.892,1.65 2.063,1.697 0.722,0.029 1.816,0.064 2.464,-0.304 z m -2.782,-2.537 c -0.037,0.061 -0.089,0.128 -0.139,0.179 -0.234,0.235 -0.621,0.284 -0.906,0.117 -0.23,-0.135 -0.359,-0.385 -0.37,-0.646 -0.013,-0.297 0.197,-0.573 0.46,-0.684 0.274,-0.116 0.604,-0.06 0.817,0.155 0.051,0.051 0.102,0.117 0.139,0.179 0.126,0.207 0.126,0.492 -10e-4,0.7 z m 0.229,-2.896 c -0.023,0.116 -0.047,0.225 -0.09,0.336 -0.092,0.238 -0.19,0.484 -0.308,0.71 -0.154,0.296 -0.565,0.382 -0.842,0.221 -0.31,-0.181 -0.353,-0.537 -0.221,-0.842 0.092,-0.211 0.206,-0.427 0.329,-0.622 0.063,-0.1 0.139,-0.191 0.213,-0.283 0.095,-0.12 0.193,-0.172 0.31,-0.26 0.27,-0.202 0.617,0.076 0.628,0.361 0.008,0.142 0.009,0.237 -0.019,0.379 z"
   id="path106-3" />
		<path
   style="fill:#bec1c7"
   d="m 65.647,333.453 c -1.616,0.034 -3.541,0.279 -5.146,-0.144 -0.036,0.133 -0.132,0.242 -0.301,0.27 -1.096,0.182 -0.672,4.354 -0.64,5.39 0.964,-0.172 2.05,-0.044 2.977,-0.045 1.358,-0.002 2.715,-0.004 4.073,-0.006 1.403,-0.002 2.806,0.007 4.209,0.015 -0.245,-1.891 -0.034,-3.804 0.527,-5.62 -1.897,0.076 -3.8,0.1 -5.699,0.14 z"
   id="path107-2" />
		<path
   style="fill:#bec1c7"
   d="m 86.423,332.86 c -1.032,0.521 -2.061,0.956 -2.93,1.82 -1.057,1.05 -1.718,2.427 -1.748,3.928 -0.075,3.696 3.978,5.663 7.255,5.038 3.008,-0.573 5.038,-3.693 4.198,-6.667 -0.859,-3.036 -3.829,-4.418 -6.775,-4.119 z"
   id="path108-6" />
		<path
   style="fill:#8f8fab"
   d="m 96.303,331.142 c -1.93,-3.015 -5.011,-3.917 -8.446,-3.75 -3.329,0.162 -6.557,1.06 -8.926,3.518 -1.159,1.203 -2.041,2.665 -2.566,4.251 -0.509,1.537 -0.604,3.118 -0.818,4.706 0.627,2.66 1.38,5.278 3.709,6.972 2.267,1.65 5.12,2.092 7.862,2.048 2.803,-0.044 5.959,-0.306 8.246,-2.098 2.061,-1.614 3.075,-4.198 3.302,-6.748 -0.341,-1.391 -0.342,-2.92 -0.617,-4.302 -0.324,-1.618 -0.851,-3.198 -1.746,-4.597 z m -3.422,11.913 c -2.315,2.451 -6.017,2.595 -8.92,1.15 -2.798,-1.393 -4.129,-4.432 -3.191,-7.43 0.746,-2.384 3.276,-4.898 5.912,-5.067 1.22,-0.329 2.482,-0.259 3.743,0.234 1.594,0.624 2.9,1.797 3.64,3.347 1.233,2.586 0.79,5.675 -1.184,7.766 z"
   id="path109-5" />
		<path
   style="fill:#717189"
   d="m 157.226,324.353 c -3.319,0.979 -5.901,3.115 -7.581,6.124 -1.486,2.661 -2.025,5.562 -2.954,8.415 1.152,0.008 2.303,0.047 3.442,0.182 -0.177,-1.009 -0.187,-2.011 0.022,-3.138 0.304,-1.641 0.994,-3.223 1.987,-4.563 3.45,-4.652 9.76,-6.288 15.131,-4.279 4.971,1.86 8.662,6.677 8.51,11.994 1.06,-0.151 2.149,-0.146 3.224,-0.144 -0.002,-0.049 0,-0.1 0.008,-0.153 0.551,-3.582 -0.724,-7.235 -3.101,-9.928 -4.467,-5.056 -12.411,-6.362 -18.688,-4.51 z"
   id="path110-2" />
		<path
   style="fill:#bec1c7"
   d="m 192.109,333.118 c -0.968,0.242 -2.103,0.075 -3.079,0.074 -1.162,-0.001 -2.325,-0.015 -3.487,-0.04 -1.812,-0.039 -3.74,0.067 -5.578,-0.114 0.612,1.847 0.813,3.841 0.484,5.903 1.284,-0.006 2.567,-10e-4 3.851,-10e-4 1.576,0 3.152,0 4.729,0.005 1.325,0.005 2.714,-0.106 4.029,0.102 0.04,-0.252 0.125,-0.503 0.197,-0.808 0.162,-0.683 0.268,-1.373 0.294,-2.075 0.047,-1.333 -0.21,-2.549 -1.44,-3.046 z"
   id="path111-6" />
		<path
   style="fill:#5b8ddd"
   d="m 188.118,316.949 c -1.13,-2.16 -2.94,-3.71 -5.08,-4.82 -0.44,-0.23 -0.89,-0.43 -1.35,-0.61 -1.68,-0.71 -3.43,-1.21 -5.1,-1.94 -0.14,-0.06 -0.21,-0.16 -0.23,-0.26 -0.17,0.02 -0.37,-0.07 -0.44,-0.27 -0.49,-1.48 -0.72,-3.1 -1.06,-4.62 -0.35,-1.55 -0.71,-3.09 -1.12,-4.62 -0.76,-2.89 -1.56,-5.77 -2.52,-8.6 -0.93,-2.72 -2.11,-5.47 -4.09,-7.6 -0.86,-0.93 -1.84,-1.73 -2.95,-2.34 -1.18,-0.65 -2.38,-0.85 -3.67,-1.15 -0.16,-0.03 -0.27,-0.11 -0.35,-0.2 -1.44,0.16 -2.9,0.11 -4.35,0.11 -2,0.01 -3.99,0.01 -5.98,0.01 h -20.82 c -3.44,0 -6.87,-0.22 -10.31,-0.23 h -5.36 c -1.56,0 -3.19,0.12 -4.74,-0.1 -0.21,0.08 -0.41,0.15 -0.61,0.23 -0.39,0.15 -0.75,0.35 -1.15,0.45 -1.71,1.18 -3.35,2.4 -4.77,3.95 -1.7,1.86 -3.11,3.96 -4.26,6.21 -2.67,5.24 -3.84,11.09 -5.01,16.81 -0.03,0.15 -0.09,0.26 -0.18,0.34 -0.05,0.11 -0.15,0.2 -0.32,0.24 -2.81,0.54 -5.71,0.6 -8.56,0.87 -2.88,0.27 -5.77,0.59 -8.64,1.03 -4.82,0.73 -10.22,2.61 -10.83,8.12 0.5,0.01 0.99,0.1 1.46,0.31 1.15,0.51 1.48,1.53 1.59,2.71 0.1,0.92 0.15,1.84 0.24,2.76 0.06,0.73 0.18,1.47 0.01,2.19 -0.17,0.74 -0.6,1.27 -1.17,1.61 -0.4,0.25 -0.87,0.41 -1.38,0.49 -0.77,0.12 -1.64,0.21 -2.46,0.1 0.2,1.3 0.19,2.74 0.05,4.05 1.03,-0.07 2.09,-0.03 3.04,-0.05 1.93,-0.06 3.86,-0.13 5.79,-0.15 0.14,0 0.26,0.03 0.35,0.09 0.53,-1.31 1.24,-2.56 2.08,-3.68 0.26,-0.35 0.53,-0.68 0.82,-1 4.57,-5.17 12.11,-6.84 18.6,-4.35 2.25,0.86 4.24,2.18 5.91,3.83 1.47,1.43 2.68,3.12 3.61,4.97 0.01,0 0.01,0 0.01,0 0.82,-0.27 1.73,-0.19 2.59,-0.21 0.96,-0.02 1.92,-0.02 2.88,-0.02 h 16.68 c 2.92,0 5.83,-0.01 8.75,-0.01 0,-1.91 0.01,-3.82 0.01,-5.74 v -0.06 c 0.01,-2.24 -0.01,-4.49 0.02,-6.74 0.03,-2.05 -0.01,-4.14 0.25,-6.19 -0.55,-0.25 -0.8,-0.94 -1.08,-1.45 -0.41,-0.73 -0.78,-1.47 -1.13,-2.23 -0.09,-0.21 -0.04,-0.4 0.07,-0.53 -0.18,-0.87 -0.11,-1.83 -0.12,-2.71 -0.01,-1.02 0,-2.04 0.01,-3.06 0,-2.03 0.01,-4.07 0.01,-6.11 0.01,-4.15 0.11,-8.28 0.27,-12.43 0.01,-0.43 0.65,-0.43 0.67,0 0.15,4.15 0.25,8.28 0.26,12.43 0.01,2.11 0.01,4.21 0.02,6.32 0,0.95 0.01,1.9 0.01,2.85 -0.01,0.97 0.07,2.03 -0.19,2.97 0,0.02 -0.01,0.04 -0.02,0.06 0.43,0.59 0.82,1.19 1.21,1.81 0.29,0.48 0.73,1 0.73,1.57 0.06,0.05 0.1,0.12 0.11,0.2 0.32,2.21 0.26,4.48 0.29,6.71 0.02,2.16 0.01,4.31 0.02,6.47 v 0.12 c 0,1.91 0.01,3.83 0.01,5.74 h 1.15 c 3.67,-0.01 7.47,-0.24 11.12,0.22 h 0.04 c 0.57,-1.33 1.27,-2.6 2.08,-3.71 0.94,-1.3 2.08,-2.36 3.36,-3.22 4.8,-3.22 11.54,-3.45 16.95,-1.62 0.11,0.04 0.22,0.08 0.33,0.12 4.09,1.49 7.63,4.59 9.33,8.47 1.97,-0.25 4.07,-0.12 6.03,-0.16 1.24,-0.03 2.47,-0.04 3.7,-0.04 0.59,0 1.26,-0.07 1.9,-0.05 -1.28,-4.82 -0.67,-10.15 -3.02,-14.66 z m -90.15,-7.68 c -0.44,-0.05 -0.55,-0.48 -0.36,-0.74 -0.01,-0.02 -0.01,-0.05 -0.02,-0.07 -0.14,-1.46 0.29,-3.14 0.5,-4.59 0.24,-1.58 0.52,-3.15 0.9,-4.7 0.7,-2.89 1.73,-5.77 3.35,-8.28 1.41,-2.17 3.23,-4.09 5.4,-5.5 1.93,-1.26 4.64,-2.46 7,-1.96 0.03,0.01 0.06,0.02 0.09,0.03 2.52,-0.09 5.06,-0.01 7.59,0 1.31,0.01 2.62,0.02 3.93,0.04 1.1,0.02 2.31,-0.1 3.32,0.35 0.13,0.06 0.19,0.19 0.2,0.32 0.11,0.07 0.21,0.17 0.25,0.32 0.32,0.94 0.21,2.02 0.21,3.01 v 3.07 c 0,2.05 0,4.1 -0.01,6.15 0,2.11 -0.01,4.23 -0.02,6.35 -0.01,1.9 0.2,4 -0.21,5.87 -0.05,0.25 -0.28,0.37 -0.5,0.36 -2.6,0.37 -5.28,0.22 -7.9,0.22 -2.59,0 -5.18,0.01 -7.77,0.01 -5.29,0.01 -10.7,0.33 -15.95,-0.26 z m 30.56,8.97 c -0.03,0.01 -0.06,0.01 -0.09,0.02 -0.09,0.07 -0.21,0.12 -0.36,0.12 -2.59,0.07 -5.42,0.25 -7.98,-0.22 -0.07,-0.02 -0.12,-0.05 -0.16,-0.09 -0.18,0.06 -0.39,0.01 -0.55,-0.19 -0.57,-0.76 -0.4,-1.86 0.16,-2.58 0.45,-0.58 1.63,-1.3 2.3,-0.72 2.01,-0.25 4.09,-0.21 6.09,-0.2 0.17,0 0.29,0.06 0.39,0.14 0.1,-0.03 0.2,-0.04 0.29,-0.01 1.55,0.52 1.35,3.21 -0.09,3.73 z m 41.54,-9.04 c -5.85,0.36 -11.75,0.23 -17.61,0.22 -2.97,0 -5.94,0.02 -8.91,-0.01 -2.78,-0.03 -5.66,0.15 -8.42,-0.26 -0.12,-0.02 -0.21,-0.08 -0.27,-0.17 -0.16,-0.04 -0.29,-0.15 -0.33,-0.33 -0.43,-1.89 -0.29,-3.92 -0.29,-5.86 -0.01,-2.05 -0.01,-4.09 -0.01,-6.14 -0.01,-2.05 0,-4.1 0,-6.15 0,-1.91 -0.24,-4.02 0.17,-5.89 0.05,-0.27 0.28,-0.42 0.52,-0.44 0.05,-0.15 0.17,-0.27 0.34,-0.32 1.75,-0.41 3.71,-0.2 5.49,-0.21 1.86,-0.01 3.71,0 5.56,0 h 5.56 c 1.83,0 3.69,-0.13 5.48,0.26 0.07,0.02 0.12,0.05 0.17,0.08 1.76,-0.54 3.9,0.44 5.25,1.5 1.89,1.5 2.98,3.73 3.79,5.95 1.95,5.34 3.32,11.14 3.81,16.81 0.36,0.26 0.26,0.92 -0.3,0.96 z"
   id="path112-5" />
		<path
   style="fill:#a8c0e9"
   d="m 164.497,298.993 c -1.168,0.821 -2.336,1.641 -3.505,2.461 -2.393,1.677 -4.781,3.358 -7.208,4.985 -0.338,0.227 -0.627,-0.303 -0.314,-0.537 2.294,-1.706 4.625,-3.358 6.954,-5.016 1.163,-0.828 2.328,-1.655 3.493,-2.482 0.889,-0.631 1.773,-1.382 2.706,-1.987 -0.247,-0.916 -0.513,-1.83 -0.799,-2.74 -0.696,-2.209 -1.476,-4.514 -3.046,-6.272 -0.726,-0.813 -1.608,-1.478 -2.622,-1.888 -1.038,-0.42 -2.035,-0.402 -3.122,-0.503 -0.096,-0.009 -0.18,-0.049 -0.245,-0.106 -1.618,0.262 -3.278,0.154 -4.918,0.159 -1.853,0.005 -3.706,0.002 -5.559,0.002 -0.917,0 -1.835,10e-4 -2.752,10e-4 -0.658,0.696 -1.388,1.332 -2.086,1.987 -0.663,0.622 -1.312,1.328 -2.099,1.792 -0.247,0.146 -0.589,-0.157 -0.412,-0.412 0.522,-0.751 1.263,-1.343 1.933,-1.958 0.509,-0.467 1.009,-0.95 1.527,-1.411 -0.557,-10e-4 -1.114,-10e-4 -1.67,-0.004 -1.658,-0.008 -3.467,0.172 -5.115,-0.132 0.313,1.791 0.102,3.767 0.104,5.572 0.002,2.048 0.006,4.096 0.003,6.145 -0.002,1.286 -0.004,2.572 -0.007,3.858 1.337,-1.08 2.773,-2.053 4.152,-3.07 1.772,-1.306 3.551,-2.602 5.329,-3.901 3.554,-2.595 7.074,-5.244 10.668,-7.783 0.479,-0.339 0.907,0.436 0.454,0.777 -3.459,2.608 -6.998,5.115 -10.497,7.669 -1.722,1.257 -3.442,2.517 -5.17,3.766 -1.63,1.178 -3.229,2.453 -4.938,3.522 -10e-4,0.435 -10e-4,0.871 -0.002,1.306 -0.004,1.758 0.109,3.589 -0.185,5.329 0.972,-0.123 1.957,-0.18 2.946,-0.204 3.994,-2.983 8.09,-5.829 12.05,-8.862 4.16,-3.186 8.173,-6.516 12.162,-9.911 0.421,-0.358 1.031,0.235 0.613,0.614 -3.864,3.503 -7.928,6.832 -12.049,10.028 -3.661,2.839 -7.411,5.644 -11.339,8.116 1.281,0 2.562,0.029 3.824,0.018 2.9,-0.026 5.802,-0.009 8.703,-0.011 5.516,-0.003 11.06,-0.116 16.572,0.172 -0.596,-3.602 -1.25,-7.167 -2.151,-10.689 -0.776,0.559 -1.616,1.061 -2.383,1.6 z"
   id="path113-8" />
		<path
   style="fill:#a8c0e9"
   d="m 126.144,284.935 c -1.243,0.022 -2.486,0.025 -3.73,0.033 -0.35,0.002 -0.7,0.006 -1.051,0.01 -5.699,3.935 -11.427,7.856 -16.972,12.003 -0.26,0.194 -0.597,-0.25 -0.345,-0.448 5.038,-3.941 10.081,-7.843 15.303,-11.53 -1.605,0.019 -3.211,0.025 -4.808,-0.044 -0.296,-0.013 -0.499,-0.156 -0.613,-0.348 -0.891,0.203 -1.795,0.351 -2.664,0.663 -1.119,0.401 -2.178,0.978 -3.153,1.654 -2.001,1.386 -3.653,3.275 -4.889,5.362 -1.457,2.459 -2.347,5.212 -2.97,7.989 -0.296,1.319 -0.526,2.65 -0.732,3.986 -0.196,1.269 -0.217,2.72 -0.574,3.971 0.755,-0.069 1.513,-0.12 2.273,-0.158 3.842,-2.816 7.656,-5.673 11.423,-8.588 3.741,-2.895 7.361,-5.94 11.087,-8.852 0.463,-0.362 1.126,0.256 0.664,0.664 -3.57,3.152 -7.375,6.065 -11.144,8.974 -3.434,2.651 -6.919,5.23 -10.456,7.74 3.706,-0.103 7.445,0.057 11.124,0.061 2.659,0.003 5.317,0.007 7.976,0.01 2.349,0.003 4.749,-0.112 7.091,0.147 -0.245,-1.744 -0.074,-3.642 -0.085,-5.373 -0.012,-2.049 -0.023,-4.097 -0.025,-6.146 0,-0.076 0,-0.151 0,-0.227 -2.077,1.746 -4.313,3.345 -6.455,4.997 -2.54,1.958 -5.047,3.961 -7.632,5.86 -0.265,0.195 -0.594,-0.242 -0.349,-0.453 2.436,-2.088 4.957,-4.076 7.442,-6.107 2.305,-1.884 4.577,-3.887 6.993,-5.633 -10e-4,-1.596 -0.003,-3.192 -0.004,-4.789 -0.001,-0.956 -0.004,-1.912 -0.002,-2.868 0.002,-0.88 -0.084,-1.832 0.12,-2.699 -0.914,0.208 -1.925,0.122 -2.843,0.139 z"
   id="path114-7" />
		<path
   style="fill:#50b3d1"
   d="m 127.94,315.611 c -2.109,0.057 -4.295,0.143 -6.405,-0.105 -0.33,0.132 -0.706,0.17 -0.983,0.457 -0.375,0.389 -0.39,0.918 -0.325,1.423 2.493,-0.435 5.232,-0.276 7.755,-0.209 0.181,-0.267 0.35,-0.512 0.356,-0.867 0.004,-0.271 -0.096,-0.503 -0.207,-0.735 -0.057,0.019 -0.12,0.034 -0.191,0.036 z"
   id="path115-9" />
		<path
   style="fill:#1e0202"
   d="m 62.478,320.159 c -0.117,0.088 -0.216,0.14 -0.31,0.26 -0.073,0.092 -0.149,0.183 -0.213,0.283 -0.123,0.195 -0.237,0.411 -0.329,0.622 -0.133,0.304 -0.09,0.66 0.221,0.842 0.276,0.162 0.688,0.075 0.842,-0.221 0.117,-0.226 0.216,-0.472 0.308,-0.71 0.043,-0.111 0.067,-0.22 0.09,-0.336 0.028,-0.141 0.027,-0.236 0.021,-0.38 -0.014,-0.284 -0.36,-0.562 -0.63,-0.36 z"
   id="path116-6" />
		<path
   style="fill:#1e0202"
   d="m 62.717,322.917 c -0.213,-0.214 -0.543,-0.27 -0.817,-0.155 -0.262,0.111 -0.473,0.387 -0.46,0.684 0.012,0.261 0.14,0.511 0.37,0.646 0.286,0.167 0.672,0.118 0.906,-0.117 0.051,-0.051 0.102,-0.117 0.139,-0.179 0.127,-0.208 0.127,-0.492 0,-0.7 -0.036,-0.062 -0.088,-0.129 -0.138,-0.179 z"
   id="path117-04" />
		<path
   style="fill:#1e0202"
   d="m 166.559,291.426 c -0.809,-2.219 -1.897,-4.451 -3.792,-5.942 -1.35,-1.062 -3.486,-2.04 -5.253,-1.501 -0.046,-0.036 -0.1,-0.065 -0.165,-0.079 -1.793,-0.395 -3.648,-0.259 -5.477,-0.264 -1.853,-0.005 -3.706,-0.002 -5.559,-0.002 -1.853,0 -3.706,-0.003 -5.559,0.006 -1.787,0.009 -3.743,-0.202 -5.491,0.21 -0.178,0.042 -0.29,0.168 -0.34,0.318 -0.241,0.022 -0.469,0.165 -0.527,0.433 -0.403,1.873 -0.165,3.984 -0.166,5.898 -0.002,2.048 -0.006,4.096 -0.003,6.145 0.003,2.048 0.006,4.096 0.01,6.145 0.004,1.939 -0.136,3.964 0.287,5.862 0.04,0.18 0.176,0.288 0.333,0.326 0.06,0.089 0.15,0.154 0.271,0.172 2.76,0.406 5.638,0.231 8.422,0.257 2.969,0.028 5.94,0.011 8.91,0.013 5.863,0.004 11.758,0.137 17.612,-0.226 0.56,-0.035 0.661,-0.698 0.301,-0.958 -0.496,-5.672 -1.866,-11.469 -3.814,-16.813 z m -14.1,16.482 c -2.901,0.002 -5.802,-0.014 -8.703,0.011 -1.262,0.011 -2.543,-0.018 -3.824,-0.018 3.928,-2.473 7.678,-5.277 11.339,-8.116 4.121,-3.196 8.185,-6.525 12.049,-10.028 0.418,-0.378 -0.193,-0.972 -0.613,-0.614 -3.988,3.396 -8.002,6.726 -12.162,9.911 -3.961,3.033 -8.056,5.879 -12.05,8.862 -0.989,0.024 -1.974,0.081 -2.946,0.204 0.294,-1.741 0.181,-3.571 0.185,-5.329 0.001,-0.435 0.001,-0.871 0.002,-1.306 1.708,-1.069 3.308,-2.344 4.938,-3.522 1.728,-1.249 3.447,-2.509 5.17,-3.766 3.499,-2.553 7.039,-5.06 10.497,-7.669 0.453,-0.341 0.025,-1.116 -0.454,-0.777 -3.594,2.539 -7.115,5.188 -10.668,7.783 -1.778,1.298 -3.557,2.594 -5.329,3.901 -1.379,1.016 -2.815,1.99 -4.152,3.07 0.002,-1.286 0.005,-2.572 0.007,-3.858 0.003,-2.048 -0.001,-4.096 -0.003,-6.145 -10e-4,-1.805 0.21,-3.781 -0.104,-5.572 1.648,0.304 3.457,0.124 5.115,0.132 0.557,0.003 1.114,0.003 1.67,0.004 -0.518,0.461 -1.018,0.944 -1.527,1.411 -0.67,0.615 -1.411,1.207 -1.933,1.958 -0.177,0.255 0.165,0.558 0.412,0.412 0.788,-0.464 1.436,-1.17 2.099,-1.792 0.698,-0.655 1.428,-1.291 2.086,-1.987 0.917,0 1.835,-10e-4 2.752,-10e-4 1.853,0 3.706,0.003 5.559,-0.002 1.64,-0.004 3.3,0.104 4.918,-0.159 0.065,0.057 0.149,0.097 0.245,0.106 1.088,0.1 2.085,0.083 3.122,0.503 1.014,0.41 1.896,1.075 2.622,1.888 1.57,1.758 2.349,4.064 3.046,6.272 0.287,0.91 0.552,1.824 0.799,2.74 -0.934,0.606 -1.818,1.356 -2.706,1.987 -1.165,0.827 -2.329,1.653 -3.493,2.482 -2.329,1.658 -4.66,3.31 -6.954,5.016 -0.314,0.233 -0.025,0.764 0.314,0.537 2.427,-1.627 4.815,-3.308 7.208,-4.985 1.169,-0.819 2.337,-1.64 3.505,-2.461 0.766,-0.539 1.607,-1.04 2.383,-1.601 0.901,3.522 1.556,7.087 2.151,10.689 -5.511,-0.287 -11.056,-0.175 -16.572,-0.171 z"
   id="path118-1" />
		<path
   style="fill:#1e0202"
   d="m 130.327,290.57 c 0.001,-1.024 0.004,-2.049 0.002,-3.073 -0.002,-0.988 0.109,-2.066 -0.207,-3.013 -0.049,-0.146 -0.141,-0.25 -0.252,-0.313 -0.012,-0.134 -0.077,-0.262 -0.2,-0.317 -1.012,-0.456 -2.227,-0.336 -3.319,-0.355 -1.312,-0.023 -2.624,-0.029 -3.937,-0.037 -2.523,-0.016 -5.065,-0.097 -7.587,-0.002 -0.028,-0.012 -0.059,-0.022 -0.092,-0.029 -2.357,-0.499 -5.063,0.703 -6.998,1.958 -2.171,1.407 -3.993,3.33 -5.394,5.498 -1.624,2.512 -2.654,5.39 -3.355,8.284 -0.376,1.55 -0.663,3.124 -0.897,4.701 -0.215,1.445 -0.641,3.132 -0.497,4.583 0.003,0.027 0.009,0.051 0.014,0.076 -0.193,0.26 -0.075,0.689 0.358,0.738 5.257,0.594 10.666,0.266 15.952,0.259 2.59,-0.003 5.181,-0.007 7.771,-0.01 2.618,-0.003 5.3,0.147 7.897,-0.217 0.223,0.005 0.449,-0.116 0.503,-0.363 0.406,-1.865 0.196,-3.968 0.208,-5.871 0.013,-2.117 0.024,-4.234 0.026,-6.351 0.001,-2.049 0.002,-4.097 0.004,-6.146 z m -1.461,-3.073 c -0.002,0.956 10e-4,1.912 0.002,2.868 0.001,1.596 0.003,3.193 0.004,4.789 -2.416,1.745 -4.688,3.749 -6.993,5.633 -2.485,2.03 -5.006,4.019 -7.442,6.107 -0.245,0.21 0.084,0.647 0.349,0.453 2.585,-1.898 5.092,-3.902 7.632,-5.86 2.142,-1.652 4.378,-3.25 6.455,-4.997 0,0.076 0,0.151 0,0.227 0.002,2.049 0.012,4.097 0.025,6.146 0.011,1.731 -0.16,3.629 0.085,5.373 -2.342,-0.259 -4.741,-0.144 -7.091,-0.147 -2.659,-0.003 -5.317,-0.007 -7.976,-0.01 -3.679,-0.005 -7.418,-0.165 -11.124,-0.061 3.537,-2.51 7.022,-5.089 10.456,-7.74 3.769,-2.909 7.574,-5.823 11.144,-8.974 0.463,-0.408 -0.2,-1.026 -0.664,-0.664 -3.726,2.912 -7.346,5.957 -11.087,8.852 -3.767,2.915 -7.581,5.772 -11.423,8.588 -0.76,0.038 -1.518,0.089 -2.273,0.158 0.357,-1.25 0.377,-2.701 0.574,-3.971 0.206,-1.335 0.436,-2.667 0.732,-3.986 0.623,-2.777 1.513,-5.53 2.97,-7.989 1.236,-2.087 2.888,-3.976 4.889,-5.362 0.975,-0.676 2.035,-1.253 3.153,-1.654 0.869,-0.311 1.773,-0.459 2.664,-0.663 0.113,0.192 0.317,0.335 0.613,0.348 1.598,0.069 3.204,0.063 4.808,0.044 -5.221,3.687 -10.265,7.589 -15.303,11.53 -0.252,0.197 0.086,0.642 0.345,0.448 5.546,-4.147 11.273,-8.068 16.972,-12.003 0.351,-0.004 0.701,-0.008 1.051,-0.01 1.243,-0.008 2.486,-0.011 3.73,-0.033 0.917,-0.016 1.929,0.07 2.842,-0.136 -0.203,0.864 -0.117,1.816 -0.119,2.696 z"
   id="path119-0" />
		<path
   style="fill:#1e0202"
   d="m 192.635,331.919 c -1.487,-5.293 -0.723,-11.226 -3.564,-16.115 -2.417,-4.16 -7.546,-6.375 -12.142,-7.027 -0.084,-0.012 -0.166,0.002 -0.241,0.034 -0.023,-1.56 -0.382,-3.18 -0.664,-4.706 -0.313,-1.689 -0.671,-3.372 -1.065,-5.044 -0.764,-3.238 -1.655,-6.497 -2.836,-9.61 -1.034,-2.726 -2.396,-5.397 -4.523,-7.438 -1.53,-1.468 -3.747,-2.941 -5.972,-3.175 -0.039,-0.024 -0.082,-0.044 -0.132,-0.055 -1.606,-0.363 -3.228,-0.322 -4.867,-0.329 -1.786,-0.008 -3.573,-0.014 -5.359,-0.014 l -10.306,0.004 c -3.504,10e-4 -7.008,0.003 -10.512,0.004 -3.446,0.001 -6.868,0.117 -10.306,0.225 -1.989,0.063 -3.988,0.006 -5.978,0.004 -1.735,-0.002 -3.542,-0.137 -5.274,0.06 -0.738,-0.067 -1.619,0.117 -2.207,0.573 -4.349,1.74 -7.693,6.177 -9.79,10.144 -2.869,5.427 -4.134,11.499 -5.354,17.462 -3.05,-0.212 -6.174,0.182 -9.204,0.483 -3.084,0.307 -6.205,0.62 -9.25,1.216 -2.606,0.51 -5.207,1.386 -7.239,3.155 -1.736,1.512 -3.216,3.889 -3.018,6.276 -0.165,0.019 -0.33,0.038 -0.494,0.057 -0.936,-0.246 -1.884,0.252 -2.336,1.162 -0.657,1.324 -0.55,3.348 -0.46,4.768 0.082,1.3 0.315,2.793 1.5,3.566 0.186,0.121 0.385,0.218 0.591,0.297 -0.32,1.397 -0.385,3.003 -0.293,4.426 -0.405,0.073 -0.797,0.173 -1.165,0.317 -0.038,0.015 -0.07,0.035 -0.097,0.059 -2.508,-0.549 -1.984,5.081 -1.853,6.36 0.021,0.21 0.116,0.369 0.246,0.477 -0.027,0.168 0.036,0.354 0.194,0.431 1.089,0.526 2.491,0.322 3.671,0.324 1.426,0.002 2.851,0.004 4.277,0.006 1.358,0.002 2.715,-0.007 4.073,-0.014 1.316,-0.007 2.703,0.085 4.001,-0.182 -0.05,2.926 1.106,5.831 3.447,7.679 2.589,2.044 5.948,2.623 9.171,2.555 3.148,-0.067 6.557,-0.565 9.051,-2.651 2.21,-1.849 3.313,-4.641 3.595,-7.451 1.989,0.18 4.018,0.091 6.01,0.102 2.066,0.012 4.133,0.009 6.199,0.009 h 12.605 c 4.202,0 8.403,-0.007 12.605,-0.016 2.066,-0.004 4.133,-0.008 6.199,-0.013 2.197,-0.005 4.427,0.085 6.613,-0.179 0.024,-0.003 0.044,-0.009 0.066,-0.014 -0.154,1.394 -0.037,2.639 0.544,3.993 0.602,1.403 1.507,2.668 2.636,3.697 2.496,2.274 5.878,3.271 9.204,3.344 3.27,0.071 6.837,-0.608 9.449,-2.687 2.569,-2.044 3.553,-5.169 3.899,-8.317 1.186,0.145 2.404,0.107 3.592,0.118 1.576,0.015 3.152,0.006 4.729,0.006 1.508,0 3.015,0.001 4.523,-0.005 1.469,-0.005 3.015,0.135 4.462,-0.138 0.052,-0.01 0.097,-0.029 0.139,-0.052 0.09,0.02 0.188,0.008 0.277,-0.046 0.776,-0.473 0.919,-1.518 1.065,-2.362 0.165,-0.954 0.252,-1.949 0.111,-2.912 -0.189,-1.272 -0.998,-2.582 -2.243,-2.841 z M 61.111,324.94 c -0.243,-1.174 -0.676,-5.977 1.32,-5.729 0.192,0.024 0.34,-0.076 0.427,-0.221 1.404,-0.034 2.923,-0.078 3.217,1.403 0.2,1.006 0.142,2.125 0.187,3.148 0.04,0.902 0.313,2.26 -0.624,2.792 -0.648,0.368 -1.742,0.333 -2.465,0.304 -1.17,-0.047 -1.822,-0.534 -2.062,-1.697 z m 9.709,13.994 c -1.403,-0.008 -2.806,-0.017 -4.209,-0.015 -1.358,0.002 -2.715,0.004 -4.073,0.006 -0.928,10e-4 -2.013,-0.126 -2.977,0.045 -0.032,-1.036 -0.456,-5.208 0.64,-5.39 0.168,-0.028 0.265,-0.138 0.301,-0.27 1.604,0.423 3.53,0.178 5.146,0.144 1.899,-0.04 3.802,-0.065 5.7,-0.14 -0.562,1.816 -0.773,3.729 -0.528,5.62 z m 24.543,7.858 c -2.287,1.791 -5.444,2.053 -8.246,2.098 -2.742,0.043 -5.595,-0.399 -7.862,-2.048 -2.329,-1.694 -3.081,-4.312 -3.709,-6.972 0.214,-1.588 0.309,-3.169 0.818,-4.706 0.525,-1.586 1.407,-3.048 2.566,-4.251 2.369,-2.458 5.598,-3.356 8.926,-3.518 3.435,-0.167 6.516,0.735 8.446,3.75 0.895,1.398 1.422,2.979 1.745,4.599 0.275,1.382 0.276,2.911 0.617,4.302 -0.226,2.547 -1.24,5.132 -3.301,6.746 z m 4.513,-7.801 c -0.023,-0.846 -0.149,-1.699 -0.265,-2.507 -0.215,-1.497 -0.595,-2.975 -1.208,-4.36 -1.064,-2.407 -2.884,-4.507 -5.39,-5.449 -2.773,-1.043 -6.152,-0.798 -8.985,-0.118 -2.753,0.66 -5.196,2.183 -6.93,4.43 -1.67,2.163 -2.904,5.286 -2.543,8.104 -0.919,-0.171 -1.875,-0.167 -2.817,-0.159 0.175,-6.418 3.685,-12.527 9.952,-14.741 6.439,-2.275 13.74,-0.103 17.956,5.235 2.134,2.702 3.413,6.023 3.695,9.445 -1.159,-0.004 -2.319,0.012 -3.465,0.12 z m 24.887,-0.119 h -12.605 c -2.066,0 -4.133,-0.003 -6.199,0.009 -0.391,0.002 -0.785,0 -1.179,-0.002 -0.166,-2.089 -0.683,-4.13 -1.501,-6.032 0.693,0.124 1.433,0.079 2.13,0.096 0.961,0.023 1.922,0.018 2.883,0.018 1.785,10e-4 3.569,10e-4 5.354,0.002 3.775,10e-4 7.551,0.003 11.326,0.004 2.912,0.001 5.824,0.005 8.736,0.008 -0.018,1.963 -0.088,3.963 0.14,5.91 -3.029,-0.007 -6.057,-0.013 -9.085,-0.013 z m 18.805,0.029 c -2.066,-0.004 -4.133,-0.009 -6.199,-0.013 -0.783,-0.002 -1.567,-10e-4 -2.35,-0.003 0.227,-1.948 0.152,-3.948 0.138,-5.91 0.312,0 0.623,10e-4 0.935,10e-4 3.619,0.004 7.37,0.229 10.975,-0.18 -0.742,1.99 -1.199,4.098 -1.297,6.095 -0.736,0.003 -1.471,0.011 -2.202,0.01 z m 31.159,0.972 c -0.306,2.864 -1.354,5.922 -3.775,7.676 -2.293,1.661 -5.376,2.164 -8.149,2.131 -2.875,-0.034 -5.873,-0.806 -8.098,-2.705 -1.732,-1.478 -3.004,-3.627 -3.412,-5.9 0.093,-0.09 0.148,-0.225 0.117,-0.393 -0.613,-3.312 0.5,-7.058 2.819,-9.468 2.191,-2.277 5.289,-3.526 8.44,-3.475 3.106,0.051 6.212,1.307 8.402,3.524 2.259,2.287 3.375,5.38 3.673,8.534 -0.004,0.026 -0.014,0.049 -0.017,0.076 z m 4.287,-1.081 c -0.008,0.053 -0.01,0.104 -0.008,0.153 -1.075,-0.002 -2.164,-0.006 -3.224,0.144 0.153,-5.318 -3.538,-10.134 -8.51,-11.994 -5.371,-2.009 -11.681,-0.373 -15.131,4.279 -0.993,1.34 -1.683,2.922 -1.987,4.563 -0.209,1.127 -0.199,2.129 -0.022,3.138 -1.139,-0.135 -2.29,-0.174 -3.442,-0.182 0.929,-2.853 1.468,-5.754 2.954,-8.415 1.68,-3.009 4.262,-5.145 7.581,-6.124 6.277,-1.852 14.221,-0.545 18.687,4.512 2.379,2.691 3.653,6.344 3.102,9.926 z m 0.498,-6.931 c -1.757,-3.991 -5.437,-7.154 -9.668,-8.589 -6.848,-2.322 -15.812,-1.337 -20.306,4.84 -0.808,1.11 -1.509,2.374 -2.083,3.713 -0.013,-0.002 -0.024,-0.006 -0.037,-0.008 -3.645,-0.458 -7.45,-0.224 -11.12,-0.221 -0.382,0 -0.764,10e-4 -1.146,10e-4 -0.005,-1.911 -0.01,-3.823 -0.014,-5.734 -0.005,-2.198 0.005,-4.398 -0.022,-6.596 -0.027,-2.227 0.03,-4.496 -0.283,-6.706 -0.012,-0.085 -0.054,-0.15 -0.111,-0.199 -0.003,-0.569 -0.443,-1.088 -0.738,-1.569 -0.38,-0.621 -0.78,-1.224 -1.202,-1.816 0.007,-0.017 0.015,-0.034 0.02,-0.053 0.262,-0.943 0.174,-2 0.183,-2.974 0.009,-0.951 -0.003,-1.902 -0.006,-2.853 -0.006,-2.105 -0.011,-4.211 -0.017,-6.316 -0.011,-4.148 -0.109,-8.284 -0.264,-12.429 -0.016,-0.433 -0.657,-0.434 -0.673,0 -0.156,4.145 -0.253,8.281 -0.264,12.429 -0.005,2.038 -0.011,4.075 -0.016,6.112 -0.003,1.018 -0.016,2.038 -0.006,3.056 0.008,0.883 -0.06,1.835 0.122,2.708 -0.115,0.126 -0.164,0.319 -0.066,0.534 0.343,0.759 0.718,1.497 1.123,2.225 0.286,0.515 0.532,1.201 1.08,1.454 -0.257,2.045 -0.215,4.133 -0.243,6.189 -0.03,2.267 -0.019,4.535 -0.025,6.802 -0.005,1.912 -0.009,3.824 -0.014,5.736 -2.914,0.003 -5.828,0.007 -8.742,0.008 -3.707,10e-4 -7.413,0.002 -11.12,0.004 -1.853,0.001 -3.707,0.001 -5.56,0.002 -0.961,0 -1.922,-0.006 -2.883,0.018 -0.86,0.021 -1.771,-0.057 -2.595,0.207 0,0 -0.001,10e-4 -0.001,10e-4 -1.974,-3.946 -5.292,-7.181 -9.524,-8.8 -6.892,-2.637 -14.969,-0.598 -19.421,5.353 -0.841,1.124 -1.547,2.366 -2.079,3.677 -0.094,-0.057 -0.208,-0.092 -0.348,-0.091 -1.931,0.019 -3.864,0.092 -5.794,0.149 -0.947,0.028 -2.007,-0.012 -3.04,0.051 0.139,-1.305 0.148,-2.746 -0.054,-4.05 0.821,0.112 1.695,0.027 2.463,-0.098 1.218,-0.198 2.262,-0.828 2.554,-2.094 0.167,-0.723 0.05,-1.464 -0.016,-2.191 -0.085,-0.922 -0.141,-1.847 -0.232,-2.768 -0.116,-1.176 -0.443,-2.195 -1.594,-2.71 -0.468,-0.21 -0.959,-0.291 -1.461,-0.306 0.609,-5.506 6.011,-7.385 10.834,-8.12 2.865,-0.436 5.752,-0.755 8.637,-1.026 2.851,-0.269 5.747,-0.337 8.561,-0.878 0.171,-0.033 0.272,-0.125 0.321,-0.24 0.085,-0.077 0.151,-0.186 0.181,-0.333 1.17,-5.719 2.34,-11.57 5.01,-16.814 1.144,-2.247 2.555,-4.347 4.258,-6.208 1.421,-1.553 3.063,-2.765 4.765,-3.947 0.404,-0.099 0.761,-0.301 1.158,-0.454 0.2,-0.077 0.401,-0.151 0.601,-0.226 1.558,0.213 3.18,0.098 4.748,0.097 1.786,-0.002 3.573,-0.003 5.359,0 3.433,0.006 6.866,0.226 10.306,0.227 6.939,0.002 13.879,0.005 20.818,0.007 1.993,0.001 3.985,0 5.978,-0.009 1.452,-0.007 2.917,0.048 4.359,-0.113 0.078,0.092 0.189,0.164 0.342,0.2 1.292,0.299 2.49,0.501 3.676,1.149 1.11,0.607 2.092,1.412 2.949,2.338 1.978,2.137 3.158,4.884 4.086,7.607 0.964,2.827 1.766,5.706 2.525,8.594 0.403,1.532 0.771,3.073 1.117,4.619 0.341,1.524 0.567,3.14 1.063,4.62 0.069,0.205 0.264,0.293 0.44,0.272 0.017,0.105 0.085,0.201 0.227,0.263 2.121,0.927 4.38,1.486 6.446,2.551 2.148,1.108 3.952,2.652 5.081,4.816 2.354,4.511 1.741,9.838 3.02,14.662 -0.641,-0.02 -1.303,0.043 -1.901,0.044 -1.231,0.001 -2.461,0.014 -3.692,0.04 -1.96,0.042 -4.059,-0.087 -6.03,0.164 z m 14.035,4.304 c -0.026,0.702 -0.132,1.392 -0.294,2.075 -0.072,0.305 -0.157,0.556 -0.197,0.808 -1.314,-0.208 -2.704,-0.097 -4.029,-0.102 -1.576,-0.005 -3.152,-0.005 -4.729,-0.005 -1.284,0 -2.567,-0.004 -3.851,0.001 0.33,-2.063 0.128,-4.056 -0.484,-5.903 1.838,0.181 3.765,0.074 5.578,0.114 1.162,0.025 2.324,0.039 3.487,0.04 0.976,0.001 2.112,0.168 3.079,-0.074 1.232,0.496 1.489,1.712 1.44,3.046 z"
   id="path120-4" />
		<path
   style="fill:#1e0202"
   d="m 128.62,314.514 c -0.096,-0.032 -0.197,-0.027 -0.292,0.003 -0.096,-0.082 -0.224,-0.136 -0.388,-0.137 -2.005,-0.009 -4.082,-0.046 -6.089,0.203 -0.675,-0.586 -1.85,0.132 -2.3,0.713 -0.561,0.722 -0.731,1.824 -0.158,2.581 0.151,0.199 0.365,0.25 0.541,0.193 0.043,0.043 0.099,0.074 0.167,0.087 2.558,0.469 5.385,0.294 7.977,0.228 0.151,-0.004 0.272,-0.052 0.364,-0.126 0.028,-0.005 0.056,-0.012 0.085,-0.022 1.437,-0.521 1.646,-3.21 0.093,-3.723 z m -0.637,2.663 c -2.523,-0.067 -5.263,-0.226 -7.755,0.209 -0.065,-0.506 -0.05,-1.035 0.325,-1.423 0.277,-0.287 0.653,-0.325 0.983,-0.457 2.109,0.248 4.295,0.162 6.405,0.105 0.071,-0.002 0.134,-0.016 0.192,-0.035 0.111,0.232 0.211,0.464 0.207,0.735 -0.007,0.354 -0.176,0.599 -0.357,0.866 z"
   id="path121-8" />
		<path
   style="fill:#1e0202"
   d="m 90.424,331.943 c -1.261,-0.493 -2.522,-0.564 -3.743,-0.234 -2.635,0.169 -5.166,2.682 -5.912,5.067 -0.938,2.998 0.393,6.037 3.191,7.43 2.903,1.445 6.605,1.301 8.92,-1.15 1.975,-2.091 2.417,-5.18 1.183,-7.765 -0.74,-1.551 -2.045,-2.725 -3.639,-3.348 z M 89,343.646 c -3.277,0.625 -7.33,-1.342 -7.255,-5.038 0.03,-1.501 0.691,-2.878 1.748,-3.928 0.869,-0.864 1.898,-1.299 2.93,-1.82 2.947,-0.298 5.917,1.084 6.775,4.12 0.84,2.973 -1.19,6.093 -4.198,6.666 z"
   id="path122-7" />
		<path
   style="fill:#1e0202"
   d="m 165.807,331.943 c -1.26,-0.493 -2.522,-0.564 -3.743,-0.234 -2.635,0.169 -5.166,2.682 -5.912,5.067 -0.938,2.998 0.393,6.037 3.191,7.43 2.903,1.445 6.605,1.301 8.92,-1.15 1.975,-2.091 2.417,-5.18 1.183,-7.765 -0.739,-1.551 -2.045,-2.725 -3.639,-3.348 z m -1.424,11.703 c -3.277,0.625 -7.33,-1.342 -7.256,-5.038 0.03,-1.501 0.691,-2.878 1.748,-3.928 0.869,-0.864 1.898,-1.299 2.93,-1.82 2.947,-0.298 5.917,1.084 6.775,4.12 0.841,2.973 -1.189,6.093 -4.197,6.666 z"
   id="path123-0" />
		<path
   style="fill:#4474bc"
   d="m 66.398,327.539 c 2.49,-0.05 5.28,-0.09 8.29,-0.15 -0.29,0.32 -0.56,0.65 -0.82,1 -0.84,1.12 -1.55,2.37 -2.08,3.68 -0.09,-0.06 -0.21,-0.09 -0.35,-0.09 -1.93,0.02 -3.86,0.09 -5.79,0.15 -0.95,0.02 -2.01,-0.02 -3.04,0.05 0.14,-1.31 0.15,-2.75 -0.05,-4.05 0.82,0.11 1.69,0.02 2.46,-0.1 0.51,-0.08 0.98,-0.24 1.38,-0.49 z"
   id="path124-8" />
		<path
   style="fill:#4474bc"
   d="m 99.198,326.869 c 11.35,-0.28 23.44,-0.64 34.53,-1.07 v 0.06 c 0,1.92 -0.01,3.83 -0.01,5.74 -2.92,0 -5.83,0.01 -8.75,0.01 h -16.68 c -0.96,0 -1.92,0 -2.88,0.02 -0.86,0.02 -1.77,-0.06 -2.59,0.21 0,0 0,0 -0.01,0 -0.93,-1.85 -2.14,-3.54 -3.61,-4.97 z"
   id="path125-6" />
		<path
   style="fill:#4474bc"
   d="m 135.138,325.739 c 6.4,-0.25 12.44,-0.54 17.76,-0.85 -1.28,0.86 -2.42,1.92 -3.36,3.22 -0.81,1.11 -1.51,2.38 -2.08,3.71 h -0.04 c -3.65,-0.46 -7.45,-0.23 -11.12,-0.22 h -1.15 c 0,-1.91 -0.01,-3.83 -0.01,-5.74 z"
   id="path126-2" />
		<path
   style="fill:#4474bc"
   d="m 191.138,331.609 c -0.64,-0.02 -1.31,0.05 -1.9,0.05 -1.23,0 -2.46,0.01 -3.7,0.04 -1.96,0.04 -4.06,-0.09 -6.03,0.16 -1.7,-3.88 -5.24,-6.98 -9.33,-8.47 1.41,-0.21 2.49,-0.43 3.18,-0.66 6.48,-2.16 8.1,-7.33 8.33,-11.21 0.46,0.18 0.91,0.38 1.35,0.61 2.14,1.11 3.95,2.66 5.08,4.82 2.35,4.51 1.74,9.84 3.02,14.66 z"
   id="path127-4" />
	</g></svg>
