<?xml version="1.0" encoding="UTF-8" standalone="no"?>
<!-- Created with Inkscape (http://www.inkscape.org/) -->

<svg
   width="35.702728mm"
   height="49.628059mm"
   viewBox="0 0 35.702728 49.628059"
   version="1.1"
   id="svg1"
   xml:space="preserve"
   xmlns="http://www.w3.org/2000/svg"
   xmlns:svg="http://www.w3.org/2000/svg"><defs
     id="defs1" /><g
     id="g357"
     transform="matrix(0.26458333,0,0,0.26458333,-78.98805,-13.587388)">
		<path
   style="fill:#db351f"
   d="m 406.238,135.329 c -2.17,1.75 -4.68,3.08 -7.33,4.08 -3.12,1.19 -6.44,1.96 -9.62,2.53 -6.44,1.15 -13.04,1.24 -19.54,0.68 -3.37,-0.29 -6.72,-0.76 -10.05,-1.36 -3.18,-0.59 -6.43,-1.2 -9.43,-2.47 -2.9,-1.22 -5.66,-3.18 -7.21,-5.99 -1.48,-2.68 -1.65,-6.34 0.12,-8.93 4.55,3.17 9.96,5.23 15.33,6.35 9.72,2.03 19.98,1.97 29.79,0.2 1.95,-0.35 3.88,-0.77 5.79,-1.25 5.02,-1.27 10.08,-2.97 14.48,-5.77 0.97,-0.62 1.89,-1.3 2.76,-2.02 1.75,5.12 -1.08,10.69 -5.09,13.95 z"
   id="path321-4" />
		<path
   style="fill:#dba865"
   d="m 383.409,121.479 c 3.644,-2.652 5.619,-6.767 5.384,-11.271 -0.228,-4.372 -2.366,-8.38 -5.496,-11.374 -6.078,-5.815 -14.372,-7.197 -22.433,-8.188 -0.074,0.096 -0.185,0.161 -0.328,0.156 -5.455,-0.214 -10.951,-0.072 -15.72,2.928 -4.371,2.75 -6.91,7.372 -6.766,12.554 0.258,9.257 8.43,16.78 17.053,18.719 4.958,1.115 10.338,0.868 15.376,0.498 4.549,-0.335 9.174,-1.289 12.93,-4.022 z m -13.92,-8.096 c -1.505,2.168 -4.879,3.179 -7.382,3.338 -2.439,0.154 -5.543,-0.467 -7.398,-2.238 -0.025,-0.01 -0.05,-0.02 -0.073,-0.032 -0.038,0.099 -0.096,0.189 -0.177,0.251 -0.906,0.699 -2.333,0.968 -3.448,1.109 -1.07,0.136 -2.167,0.08 -3.185,-0.3 -1.706,-0.638 -2.906,-2.008 -3.073,-3.836 -0.031,-0.337 0.499,-0.392 0.579,-0.078 0.413,1.636 2.005,2.74 3.614,2.984 0.995,0.151 2.011,0.032 2.981,-0.217 0.766,-0.197 1.482,-0.547 2.269,-0.633 0.008,-10e-4 0.015,0 0.023,-10e-4 0.017,-0.08 0.063,-0.151 0.125,-0.204 -0.018,-1.323 -0.014,-2.646 0.036,-3.968 0.047,-1.239 0.031,-2.543 0.307,-3.762 -2.775,-0.656 -6.067,-2.524 -5.347,-5.849 0.646,-2.982 3.765,-4.192 6.491,-4.35 2.807,-0.163 6.433,-0.082 8.432,2.218 1.84,2.118 1.104,5.16 -1.012,6.784 -1.988,1.526 -5.133,1.895 -7.674,1.382 0.096,1.247 -0.055,2.534 -0.073,3.778 -0.02,1.348 -0.015,2.695 0.019,4.043 0.942,0.444 1.857,0.922 2.877,1.21 1.147,0.325 2.345,0.471 3.536,0.413 1.274,-0.062 2.539,-0.369 3.707,-0.879 1.139,-0.498 2.04,-1.311 3.118,-1.888 0.438,-0.235 1.048,0.264 0.728,0.725 z"
   id="path322-1" />
		<path
   style="fill:#ad6936"
   d="m 415.678,77.169 c -1.18,0.59 -2.83,1.38 -4.16,1.11 -0.45,-0.1 -0.51,-0.76 -0.13,-0.97 0.56,-0.32 1.22,-0.37 1.83,-0.55 0.67,-0.2 1.33,-0.45 1.95,-0.77 1.21,-0.61 2.31,-1.4 3.24,-2.38 1.74,-1.82 2.91,-4.32 3.3,-6.84 -0.3,-1.24 -0.31,-2.56 -0.57,-3.82 -0.25,-1.25 -0.63,-2.49 -1.21,-3.62 -0.16,-0.32 -0.34,-0.63 -0.55,-0.93 -1.09,-1.67 -2.7,-3.09 -4.63,-3.57 -0.26,-0.07 -0.21,-0.5 0.06,-0.47 0.49,0.06 0.96,0.17 1.4,0.31 -1,-1.29 -2.35,-1.91 -4.1,-2 -1.69,-0.09 -3.41,0.17 -5.02,0.64 -3.26,0.94 -6.37,2.87 -8.59,5.45 -0.22,0.25 -0.51,0.1 -0.61,-0.14 -5.04,-2.1 -10.01,-3.94 -15.49,-4.51 -9.28,-0.97 -18.68,1.11 -26.6,6.08 -7.39,4.64 -13.14,11.46 -16.63,19.44 -0.08,0.18 -0.23,0.28 -0.39,0.31 -2.27,5.89 -4.71,11.86 -5.45,18.17 -0.7,5.97 0.17,12.06 3.47,17.16 5.72,8.85 16.14,12.81 26.15,14.21 8.3,1.16 16.81,0.94 25.07,-0.55 2.92,-0.53 5.81,-1.22 8.65,-2.07 4.6,-1.37 9.16,-3.2 13,-6.12 0.47,-0.36 0.91,-0.73 1.34,-1.11 0.08,-0.13 0.19,-0.23 0.32,-0.3 3.34,-3.11 5.51,-7.12 6.94,-11.49 3.25,-9.88 4.76,-22.18 -2.57,-30.68 -0.01,0 -0.02,0.01 -0.02,0.01 z m -14.06,-15.95 c 2.81,-3.85 8.69,-3.71 11.56,0.01 2.95,3.83 1.44,9.99 -3.33,11.56 -0.22,0.07 -0.42,0 -0.57,-0.13 -0.13,-0.02 -0.26,-0.1 -0.36,-0.24 -0.63,-0.89 -0.99,-2.01 -1.53,-2.97 -0.52,-0.92 -1.09,-1.82 -1.71,-2.68 -1.33,-1.82 -2.93,-3.36 -4.45,-5.01 -0.25,-0.28 0.06,-0.72 0.39,-0.54 z m -28.67,22.76 c 0,-0.01 0,-0.02 0.01,-0.03 -0.03,-1.1 0.19,-2.25 0.76,-2.95 0.67,-1.43 1.8,-2.49 3.66,-2.14 0.01,0 0.01,0 0.02,0 1.49,0.26 2.96,1.51 3.41,2.81 0.89,2.57 -0.69,5.22 -3.17,6.08 -1.17,0.41 -2.63,0.45 -3.66,-0.32 -1.1,-0.83 -1.16,-2.19 -1.03,-3.45 z m -0.76,-26.15 c 0.31,-0.32 0.79,0.17 0.49,0.49 -7.06,7.53 -11.49,17.38 -12.47,27.65 -0.06,0.66 -1.09,0.66 -1.03,0 1.03,-10.55 5.64,-20.51 13.01,-28.14 z m -28.11,24.87 c 0,-0.01 0,-0.02 0.01,-0.04 -0.03,-1.09 0.19,-2.24 0.76,-2.94 0.67,-1.43 1.8,-2.5 3.66,-2.14 0.01,0 0.01,0 0.02,0 1.49,0.25 2.96,1.5 3.41,2.81 0.89,2.57 -0.69,5.22 -3.17,6.08 -1.17,0.4 -2.63,0.45 -3.66,-0.33 -1.1,-0.82 -1.16,-2.18 -1.03,-3.44 z m 37.6,41.49 c -4.76,2.44 -10.2,2.86 -15.46,2.99 -5.3,0.13 -10.66,0.03 -15.61,-2.08 -8.76,-3.73 -15.83,-13.32 -13.42,-23.14 2.12,-8.68 11.03,-12.62 19.36,-12.45 0.05,-0.17 0.2,-0.31 0.45,-0.3 10.85,0.17 23.7,2.29 30.27,11.99 2.54,3.75 3.59,8.63 2.6,13.07 -0.99,4.44 -4.22,7.88 -8.19,9.92 z m 30.93,-8.76 c -0.27,-0.17 -0.5,-0.41 -0.74,-0.62 -0.24,-0.22 -0.48,-0.45 -0.72,-0.67 -0.34,-0.3 0.16,-0.8 0.5,-0.5 0.23,0.21 0.46,0.42 0.69,0.62 0.23,0.21 0.49,0.4 0.68,0.64 0.22,0.28 -0.06,0.75 -0.41,0.53 z m 1.52,-3.19 c -0.31,0.08 -0.59,-0.1 -0.85,-0.23 l -0.83,-0.42 c -0.49,-0.24 -0.06,-0.98 0.43,-0.73 0.27,0.14 0.54,0.28 0.82,0.43 0.27,0.14 0.53,0.25 0.65,0.55 0.06,0.16 -0.07,0.35 -0.22,0.4 z m 1.13,-3.08 c -0.31,-0.01 -0.59,-0.17 -0.88,-0.29 -0.29,-0.12 -0.59,-0.25 -0.89,-0.37 -0.21,-0.09 -0.36,-0.28 -0.29,-0.52 0.06,-0.2 0.31,-0.39 0.52,-0.3 0.31,0.14 0.63,0.27 0.95,0.4 0.29,0.12 0.62,0.21 0.86,0.44 0.23,0.22 0.06,0.65 -0.27,0.64 z"
   id="path323-5" />
		<path
   style="fill:#db351f"
   d="m 384.078,180.109 c -1.46,0.69 -2.86,1.48 -4.39,2.02 -1.58,0.55 -3.22,0.94 -4.88,1.13 -1.69,0.19 -3.42,0.18 -5.11,-0.04 -0.75,-0.1 -1.74,-0.2 -1.88,-1.1 -0.13,-0.91 0.01,-1.94 0.02,-2.86 0.05,-7.71 -0.13,-15.42 -0.55,-23.12 -0.19,-3.46 -0.45,-6.9 -0.87,-10.33 -0.07,-0.67 -0.16,-1.34 -0.25,-2.01 4.39,0.54 8.83,0.8 13.25,0.68 0.13,1.39 0.27,2.78 0.42,4.17 0.58,5.26 1.33,10.5 2.06,15.75 0.72,5.24 1.45,10.47 2.18,15.71 z"
   id="path324" />
		<path
   style="fill:#542812"
   d="m 359.657,104.763 c 1.404,-0.228 2.866,-0.83 3.727,-2.014 0.828,-1.139 1.034,-2.671 0.197,-3.862 -0.904,-1.286 -2.49,-1.798 -3.98,-1.986 -2.789,-0.353 -6.852,-0.529 -8.603,2.145 -0.896,1.368 -0.631,2.934 0.513,4.067 0.799,0.792 1.831,1.251 2.869,1.672 0.07,-0.044 0.154,-0.074 0.252,-0.08 1.677,-0.12 3.333,0.333 5.025,0.058 z m -5.652,-4.423 c -0.912,-0.017 -1.633,-1.046 -1.218,-1.895 0.274,-0.561 0.976,-0.841 1.553,-0.64 0.439,0.043 0.897,0.416 1.001,0.805 0.221,0.831 -0.469,1.747 -1.336,1.73 z"
   id="path325" />
		<path
   style="fill:#ffffff"
   d="m 347.263,80.848 c 0.157,0.001 0.339,-0.039 0.463,-0.145 0.262,-0.111 0.468,-0.352 0.47,-0.652 10e-4,-0.197 -0.052,-0.403 -0.194,-0.548 -0.135,-0.138 -0.325,-0.255 -0.525,-0.25 -0.1,0.003 -0.203,0.001 -0.3,0.024 -0.2,0.047 -0.381,0.17 -0.491,0.344 -0.198,0.311 -0.152,0.726 0.093,0.997 0.116,0.127 0.309,0.228 0.484,0.23 z"
   id="path326" />
		<path
   style="fill:#ad6936"
   d="m 340.805,73.481 c 0.61,-1.019 1.264,-2.011 1.956,-2.976 -2.109,-2.768 -3.025,-7.008 -0.025,-9.534 2.267,-1.909 6.493,-1.701 7.962,1.084 1.177,-0.958 2.4,-1.857 3.67,-2.686 -0.798,-0.555 -1.53,-1.209 -2.366,-1.719 -0.956,-0.583 -1.956,-1.086 -3.015,-1.455 -1.723,-0.601 -3.571,-0.913 -5.407,-0.919 0.114,0.142 0.223,0.289 0.321,0.446 0.032,0.051 0.051,0.103 0.062,0.156 0.161,0.267 0.108,0.669 -0.264,0.721 -1.915,0.269 -3.824,1.2 -4.986,2.781 -1.006,1.369 -1.255,2.897 -1.183,4.482 0.383,-0.435 1.158,0.03 0.826,0.566 -1.031,1.66 -1.258,3.75 -0.541,5.586 0.321,0.821 0.838,1.566 1.471,2.177 0.479,0.462 1.133,0.75 1.519,1.29 z"
   id="path327-4" />
		<path
   style="fill:#844220"
   d="m 406.51,65.9 c 0.71,0.934 1.359,1.911 1.934,2.935 0.446,0.795 0.997,1.685 1.282,2.59 1.665,-0.879 2.957,-2.156 3.504,-4.04 0.54,-1.863 0.1,-3.837 -1.071,-5.368 -2.49,-3.255 -7.015,-3.012 -9.78,-0.308 1.602,1.13 2.956,2.646 4.131,4.191 z"
   id="path328-1" />
		<path
   style="fill:#ffffff"
   d="m 376.133,82.131 c 0.157,0.001 0.339,-0.039 0.463,-0.145 0.262,-0.111 0.468,-0.352 0.47,-0.652 0.001,-0.197 -0.052,-0.403 -0.194,-0.548 -0.135,-0.137 -0.325,-0.255 -0.525,-0.25 -0.1,0.003 -0.203,0.001 -0.3,0.024 -0.2,0.047 -0.381,0.17 -0.491,0.344 -0.198,0.311 -0.152,0.726 0.093,0.997 0.116,0.126 0.31,0.228 0.484,0.23 z"
   id="path329-5" />
		<path
   style="fill:#844220"
   d="m 343.281,62.146 c -2.182,2.132 -1.234,5.179 0.103,7.511 0.815,-1.081 1.678,-2.127 2.59,-3.132 1.191,-1.313 2.465,-2.549 3.807,-3.704 -0.825,-0.866 -1.604,-1.62 -2.867,-1.848 -1.316,-0.236 -2.688,0.25 -3.633,1.173 z"
   id="path330" />
		<path
   style="fill:#dba865"
   d="m 376.481,195.629 c 2.548,-0.202 5.055,0.513 7.187,1.861 0.065,0.028 0.125,0.067 0.176,0.116 0.439,0.287 0.862,0.599 1.264,0.938 0.245,0.206 0.477,0.419 0.703,0.636 2.315,-2.931 5.162,-5.267 8.492,-6.976 0.49,-0.251 0.988,-0.488 1.491,-0.712 0.133,-1.188 0.324,-2.359 0.294,-3.559 -0.017,-0.668 -0.069,-1.334 -0.192,-1.991 -0.055,-0.293 -0.129,-0.568 -0.181,-0.845 -3.428,0.824 -6.999,0.817 -10.442,0.046 -0.246,-0.055 -0.531,-0.307 -0.568,-0.568 -0.136,-0.966 -0.27,-1.932 -0.406,-2.898 -2.903,2.118 -6.875,3.076 -10.357,3.312 -1.723,0.117 -3.511,0.066 -5.211,-0.265 -1.596,-0.311 -2.528,-1.266 -2.588,-2.908 -0.153,-4.183 0.034,-8.395 -0.05,-12.584 -0.112,-5.589 -0.422,-11.168 -0.697,-16.748 -1.585,-0.563 -3.152,-0.988 -4.874,-0.997 -1.86,-0.01 -3.71,0.357 -5.476,0.924 -3.382,1.087 -6.563,2.973 -9.3,5.222 -4.672,3.84 -8.294,8.977 -10.138,14.751 -1.96,6.139 -1.796,12.851 0.321,18.927 4.275,12.27 16.672,20.055 29.561,18.826 0.005,-0.03 0.009,-0.059 0.014,-0.089 0.564,-3.346 1.445,-6.924 3.328,-9.797 1.761,-2.681 4.433,-4.367 7.649,-4.622 z"
   id="path331-5" />
		<path
   style="fill:#db351f"
   d="m 402.148,180.479 c -1.43,0.96 -2.98,1.75 -4.6,2.32 -3.63,1.29 -7.57,1.62 -11.34,0.88 -0.91,-6.5 -1.83,-13 -2.76,-19.5 -0.74,-5.17 -1.44,-10.34 -2.32,-15.48 -0.24,-1.42 -0.49,-2.84 -0.76,-4.25 2.31,-0.09 4.61,-0.29 6.91,-0.6 2.96,-0.41 6.03,-0.99 9.02,-1.87 0.44,1.26 0.87,2.51 1.29,3.78 2.01,6.06 3.72,12.21 5.07,18.46 0.85,3.93 1.83,8.01 2.16,12.03 0.17,2.08 -1.06,3.16 -2.67,4.23 z"
   id="path332-4" />
		<path
   style="fill:#dba865"
   d="m 375.322,215.371 c -0.057,0.014 -0.111,0.018 -0.163,0.016 -2.149,1.138 -2.799,4.099 -2.758,6.396 0.043,2.443 1.45,5.718 4.406,5.443 1.464,-0.136 2.25,-1.237 2.619,-2.558 0.383,-1.372 0.626,-2.863 0.644,-4.285 0.032,-2.71 -1.578,-5.815 -4.748,-5.012 z"
   id="path333-9" />
		<path
   style="fill:#ad6936"
   d="m 431.908,177.339 c -1.25,-16.94 -8.98,-32.92 -21.06,-44.77 -1.19,1.78 -2.71,3.37 -4.43,4.64 -1.42,1.04 -2.96,1.93 -4.57,2.68 -1.3,0.62 -2.64,1.15 -4.02,1.61 1.63,4.43 3.05,8.93 4.29,13.49 1.16,4.3 2.17,8.65 2.99,13.03 0.41,2.19 0.78,4.39 1.1,6.6 0.26,1.74 0.48,3.51 -0.62,5.01 -1.03,1.4 -2.68,2.42 -4.18,3.25 -1.36,0.75 -2.8,1.37 -4.29,1.83 0.39,0.98 0.4,2.29 0.37,3.22 -0.03,1.05 -0.19,2.1 -0.56,3.08 0.84,-0.33 1.68,-0.62 2.54,-0.87 1.57,-0.45 3.51,-1.08 5.15,-0.77 0.46,0.09 0.58,0.85 0.13,1.05 -1.5,0.64 -3.29,0.71 -4.88,1.17 -1.71,0.5 -3.37,1.16 -4.95,1.99 -3.11,1.61 -5.97,3.8 -8.36,6.36 4.38,4.84 4.85,11.79 4.63,18.11 -0.02,0.57 -0.89,0.57 -0.88,0 0.1,-6.66 -1.01,-14.85 -6.91,-18.97 -0.51,0.75 -1.02,1.44 -1.27,2.42 -0.34,1.27 -0.29,2.61 0.17,3.85 0.18,0.47 -0.62,0.8 -0.82,0.34 -0.62,-1.4 -0.84,-2.86 -0.56,-4.37 0.18,-0.96 0.61,-2.13 1.3,-2.97 -1.91,-1.01 -4.13,-1.44 -6.26,-1.11 -0.13,0.52 -0.47,0.93 -0.74,1.4 -0.29,0.51 -0.55,1.04 -0.78,1.58 -0.5,1.18 -0.93,2.43 -1.1,3.71 -0.06,0.43 -0.77,0.32 -0.75,-0.1 0.05,-1.41 0.18,-2.78 0.67,-4.11 0.21,-0.59 0.49,-1.35 0.87,-2 -2.56,1.01 -4.22,3.3 -5.26,5.81 -2.52,6.12 -2.99,13.33 -1.88,19.81 0.57,3.33 1.72,6.93 3.83,9.68 1.19,1.55 2.68,2.84 4.55,3.65 5.93,2.59 12.45,-1.03 14.45,-6.89 0.13,-0.36 0.55,-0.35 0.71,-0.11 1.77,-2.88 4.09,-5.5 6.4,-7.93 2.58,-2.71 5.41,-5.21 8.39,-7.47 3.17,-2.4 6.65,-4.39 9.75,-6.9 2.8,-2.28 4.92,-4.9 6.23,-8.22 -1.98,-0.45 -3.92,-1.26 -5.55,-2.47 -1.52,-1.12 -2.77,-2.58 -3.49,-4.41 -0.82,-2.06 -0.97,-4.33 -0.98,-6.53 0,-2.53 0.11,-5.06 0.02,-7.59 -0.38,-10.51 -2.93,-20.67 -6.68,-30.46 -0.14,-0.37 0.45,-0.61 0.62,-0.26 4.75,9.67 7.01,20.56 7.35,31.29 0.07,2.34 -0.03,4.68 -0.01,7.02 0.01,2.18 0.14,4.47 1.07,6.47 0.71,1.54 1.89,2.79 3.32,3.74 0.85,0.57 1.79,1.03 2.77,1.38 -0.03,-0.04 -0.05,-0.09 -0.06,-0.16 -0.2,-1.21 -0.02,-2.51 0.17,-3.77 0.09,-0.59 0.18,-1.17 0.23,-1.73 0.03,-0.42 0.66,-0.43 0.65,0 0,0.16 0,0.32 0.01,0.49 0.03,1.64 0.27,3.46 -0.18,5.01 -0.05,0.18 -0.2,0.28 -0.36,0.32 1.33,0.43 2.72,0.66 4.03,0.68 0.47,0.01 0.93,-0.02 1.39,-0.09 0.39,-1.21 0.77,-2.45 0.92,-3.72 0.13,-1.21 0.12,-2.44 0.09,-3.66 -0.01,-0.36 0.59,-0.45 0.64,-0.08 0.35,2.33 0.17,4.91 -0.48,7.21 1.2,-0.38 2.28,-1.06 3.06,-2.15 1.22,-1.72 1.59,-3.91 1.83,-5.96 0.48,-4.1 0.53,-8.26 0.23,-12.38 z m -57.26,37.12 c 0.05,-0.08 0.12,-0.14 0.21,-0.19 2.95,-1.58 5.83,1.2 6.45,3.98 0.34,1.53 0.2,3.1 -0.05,4.63 -0.23,1.37 -0.45,2.85 -1.25,4.02 -1.55,2.25 -4.71,2.19 -6.66,0.54 -3.43,-2.92 -3.25,-11.32 1.3,-12.98 z"
   id="path334-8" />
		<path
   style="fill:#ad6936"
   d="m 344.598,205.749 c -11.03,-8.33 -14.74,-23.91 -9.36,-36.53 2.56,-5.99 6.94,-11.15 12.37,-14.74 2.84,-1.87 6.02,-3.4 9.38,-4.06 2.69,-0.53 5.88,-0.56 8.35,0.8 -0.12,-2.53 -0.23,-5.05 -0.31,-7.57 -3.36,-0.45 -6.72,-1.02 -10.02,-1.79 -3.3,-0.77 -6.61,-1.88 -9.34,-3.94 -1.08,-0.82 -2.04,-1.8 -2.83,-2.89 -2.73,3.49 -5.39,7.01 -7.67,10.82 -4.12,6.88 -7.16,14.42 -8.98,22.24 -0.92,3.95 -1.53,7.97 -1.77,12.02 -0.12,1.91 -0.14,3.87 0.21,5.76 0.36,1.91 1.22,3.34 2.14,4.99 1.03,-0.48 2.07,-0.91 3.06,-1.32 0.07,-0.03 0.14,-0.05 0.2,-0.05 -0.02,-0.05 -0.03,-0.11 -0.04,-0.17 -0.4,-3.89 -0.48,-7.8 -0.24,-11.7 0.83,-13.78 5.45,-27.04 13.52,-38.25 0.3,-0.41 0.98,-0.02 0.69,0.41 -2.14,3.2 -3.99,6.58 -5.63,10.06 -5.79,12.27 -8.21,25.98 -6.92,39.48 0.04,0.46 -0.3,0.68 -0.66,0.67 0.15,0.37 0.1,0.82 -0.31,1 -1.32,0.57 -2.63,1.19 -3.9,1.88 -1.27,0.67 -2.46,1.54 -3.77,2.13 -0.08,0.04 -0.17,0.06 -0.25,0.06 1.38,4.2 1.54,8.88 1.3,13.18 -0.04,0.71 -1.04,0.7 -1.1,0 -0.57,-6.81 -0.43,-14.63 -5.98,-19.57 -0.38,-0.34 -0.79,-0.66 -1.22,-0.94 -1.5,1.78 -2.39,4.02 -2.15,6.41 0.04,0.42 -0.66,0.51 -0.74,0.1 -0.54,-2.54 0,-5.24 1.77,-7.16 -1.67,-0.83 -3.56,-1.24 -5.42,-1.04 -0.31,0.03 -0.61,0.09 -0.91,0.16 -0.17,0.44 -0.47,0.81 -0.7,1.24 -0.3,0.56 -0.53,1.16 -0.69,1.78 -0.34,1.26 -0.38,2.7 -0.12,3.99 0.1,0.5 -0.61,0.7 -0.78,0.21 -0.49,-1.45 -0.6,-2.86 -0.29,-4.37 0.13,-0.61 0.35,-1.41 0.69,-2.11 -1.61,0.88 -2.92,2.29 -3.84,3.9 -1.6,2.82 -2.01,6.13 -2.15,9.31 -0.13,3.03 0,6.08 0.52,9.07 0.44,2.46 1.14,5.11 2.22,7.57 0,0 0.01,0.01 0.01,0.02 1.36,3.07 3.31,5.84 6.06,7.6 2.6,1.68 5.61,1.79 8.38,0.41 2.81,-1.4 4.96,-3.85 7.13,-6.07 0.18,-0.17 0.41,-0.19 0.61,-0.11 2.91,-1.69 6.22,-2.89 9.33,-4.14 2.84,-1.14 5.7,-2.13 8.6,-3.07 -3.63,-2.06 -6.89,-4.73 -8.46,-8.74 -0.18,-0.46 0.56,-0.65 0.75,-0.2 2.09,5.03 8.09,7.8 12.78,9.85 5.37,2.33 11.01,3.81 16.81,4.56 0,-1 0.04,-2 0.12,-2.99 0.05,-0.79 0.13,-1.57 0.23,-2.36 -7.32,0.83 -14.8,-1.36 -20.68,-5.8 z m -36.95,-1.19 c 0.78,-0.96 2.3,-0.9 3.35,-0.36 1.3,0.67 2.16,1.99 2.57,3.37 0.44,1.5 0.42,3.12 0.24,4.66 -0.18,1.5 -0.52,3.08 -1.69,4.14 -1.04,0.93 -2.48,1.19 -3.72,0.5 -1.49,-0.82 -2.14,-2.54 -2.48,-4.11 -0.49,-2.32 -0.83,-6.92 1.73,-8.2 z"
   id="path335" />
		<path
   style="fill:#dba865"
   d="m 308.128,205.587 c -0.097,0.042 -0.195,0.055 -0.287,0.048 -1.404,1.41 -1.038,4.831 -0.727,6.411 0.232,1.178 0.564,2.563 1.518,3.373 1.018,0.865 2.253,0.543 3.001,-0.486 1.897,-2.614 1.375,-11.463 -3.505,-9.346 z"
   id="path336-3" />
		<path
   style="fill:#1e0202"
   d="m 368.762,112.657 c -1.079,0.577 -1.979,1.39 -3.118,1.888 -1.168,0.511 -2.433,0.817 -3.707,0.879 -1.191,0.058 -2.389,-0.088 -3.536,-0.413 -1.02,-0.288 -1.935,-0.766 -2.877,-1.21 -0.034,-1.348 -0.039,-2.695 -0.019,-4.043 0.018,-1.245 0.169,-2.531 0.073,-3.778 2.542,0.514 5.686,0.144 7.674,-1.382 2.115,-1.623 2.851,-4.666 1.012,-6.784 -1.999,-2.3 -5.625,-2.382 -8.432,-2.218 -2.726,0.159 -5.846,1.368 -6.491,4.35 -0.72,3.326 2.572,5.193 5.347,5.849 -0.276,1.219 -0.26,2.523 -0.307,3.762 -0.05,1.322 -0.054,2.645 -0.036,3.968 -0.063,0.053 -0.108,0.124 -0.125,0.204 -0.008,0.001 -0.015,0 -0.023,0.001 -0.787,0.086 -1.503,0.436 -2.269,0.633 -0.969,0.249 -1.986,0.368 -2.981,0.217 -1.609,-0.244 -3.201,-1.348 -3.614,-2.984 -0.079,-0.314 -0.61,-0.259 -0.579,0.078 0.167,1.828 1.366,3.199 3.073,3.836 1.018,0.381 2.115,0.436 3.185,0.3 1.115,-0.141 2.541,-0.411 3.448,-1.109 0.081,-0.063 0.139,-0.153 0.177,-0.251 0.023,0.013 0.048,0.023 0.073,0.032 1.855,1.771 4.958,2.392 7.398,2.238 2.503,-0.159 5.877,-1.17 7.382,-3.338 0.319,-0.46 -0.291,-0.959 -0.728,-0.725 z m -14.13,-7.952 c -0.098,0.007 -0.182,0.037 -0.252,0.08 -1.037,-0.422 -2.069,-0.88 -2.869,-1.672 -1.144,-1.133 -1.409,-2.699 -0.513,-4.067 1.751,-2.674 5.813,-2.498 8.603,-2.145 1.49,0.189 3.076,0.7 3.98,1.986 0.837,1.191 0.632,2.723 -0.197,3.862 -0.861,1.184 -2.323,1.786 -3.727,2.014 -1.692,0.275 -3.348,-0.178 -5.025,-0.058 z"
   id="path337" />
		<path
   style="fill:#1e0202"
   d="m 354.34,97.805 c -0.577,-0.201 -1.279,0.079 -1.553,0.64 -0.415,0.849 0.306,1.878 1.218,1.895 0.867,0.016 1.556,-0.9 1.335,-1.73 -0.103,-0.389 -0.561,-0.761 -1,-0.805 z"
   id="path338-8" />
		<path
   style="fill:#1e0202"
   d="m 366.217,127.177 c 5.259,-0.131 10.698,-0.545 15.458,-2.989 3.97,-2.039 7.2,-5.482 8.19,-9.918 0.991,-4.439 -0.057,-9.317 -2.597,-13.068 -6.57,-9.701 -19.424,-11.823 -30.274,-11.994 -0.25,-0.004 -0.395,0.131 -0.445,0.302 -8.333,-0.168 -17.24,3.766 -19.364,12.448 -2.403,9.822 4.663,19.409 13.423,23.143 4.947,2.108 10.315,2.208 15.609,2.076 z m -11.114,-2.175 c -8.623,-1.939 -16.795,-9.462 -17.053,-18.719 -0.145,-5.181 2.395,-9.804 6.766,-12.554 4.769,-3 10.266,-3.143 15.72,-2.928 0.144,0.006 0.254,-0.06 0.328,-0.156 8.06,0.991 16.354,2.373 22.433,8.188 3.13,2.994 5.268,7.003 5.496,11.374 0.235,4.505 -1.739,8.619 -5.384,11.271 -3.756,2.734 -8.381,3.687 -12.931,4.021 -5.037,0.37 -10.417,0.618 -15.375,-0.497 z"
   id="path339-5" />
		<path
   style="fill:#1e0202"
   d="m 373.976,87.425 c 1.03,0.774 2.491,0.732 3.658,0.328 2.486,-0.86 4.063,-3.51 3.176,-6.083 -0.45,-1.306 -1.926,-2.555 -3.415,-2.809 -0.005,-0.001 -0.009,-0.003 -0.014,-0.004 -1.86,-0.353 -2.995,0.712 -3.66,2.143 -0.574,0.699 -0.794,1.852 -0.767,2.945 -0.001,0.012 -0.003,0.024 -0.004,0.036 -0.136,1.259 -0.073,2.618 1.026,3.444 z m 1.581,-6.522 c 0.11,-0.174 0.291,-0.297 0.491,-0.344 0.097,-0.023 0.2,-0.021 0.3,-0.024 0.2,-0.005 0.39,0.113 0.525,0.25 0.142,0.145 0.195,0.351 0.194,0.548 -0.002,0.3 -0.208,0.541 -0.47,0.652 -0.124,0.106 -0.306,0.146 -0.463,0.145 -0.175,-10e-4 -0.368,-0.103 -0.483,-0.23 -0.246,-0.271 -0.292,-0.686 -0.094,-0.997 z"
   id="path340-2" />
		<path
   style="fill:#1e0202"
   d="m 345.105,86.142 c 1.03,0.774 2.491,0.732 3.659,0.328 2.486,-0.86 4.063,-3.51 3.176,-6.083 -0.45,-1.306 -1.926,-2.555 -3.415,-2.809 -0.005,-0.001 -0.009,-0.003 -0.014,-0.004 -1.86,-0.353 -2.995,0.712 -3.66,2.143 -0.574,0.699 -0.794,1.852 -0.768,2.946 -0.001,0.012 -0.003,0.024 -0.004,0.036 -0.135,1.258 -0.072,2.617 1.026,3.443 z m 1.582,-6.522 c 0.11,-0.174 0.291,-0.297 0.491,-0.344 0.097,-0.023 0.2,-0.021 0.3,-0.024 0.2,-0.005 0.39,0.113 0.525,0.25 0.142,0.145 0.196,0.351 0.194,0.548 -0.002,0.3 -0.208,0.541 -0.47,0.652 -0.124,0.106 -0.306,0.146 -0.463,0.145 -0.175,-10e-4 -0.368,-0.103 -0.483,-0.231 -0.246,-0.27 -0.292,-0.685 -0.094,-0.996 z"
   id="path341-2" />
		<path
   style="fill:#1e0202"
   d="m 360.209,85.974 c 0.976,-10.275 5.41,-20.126 12.466,-27.657 0.301,-0.322 -0.177,-0.804 -0.485,-0.485 -7.372,7.627 -11.98,17.587 -13.01,28.143 -0.065,0.657 0.967,0.654 1.029,-10e-4 z"
   id="path342-2" />
		<path
   style="fill:#1e0202"
   d="m 413.492,108.501 c 0.296,0.123 0.592,0.247 0.888,0.37 0.287,0.12 0.567,0.279 0.882,0.287 0.323,0.009 0.499,-0.418 0.266,-0.641 -0.235,-0.225 -0.566,-0.316 -0.863,-0.439 -0.316,-0.132 -0.632,-0.263 -0.947,-0.395 -0.213,-0.089 -0.464,0.096 -0.522,0.296 -0.07,0.244 0.085,0.434 0.296,0.522 z"
   id="path343-7" />
		<path
   style="fill:#1e0202"
   d="m 412.445,111.593 0.83,0.412 c 0.267,0.132 0.543,0.314 0.848,0.231 0.156,-0.043 0.29,-0.235 0.226,-0.398 -0.118,-0.303 -0.378,-0.411 -0.653,-0.553 -0.274,-0.142 -0.549,-0.283 -0.823,-0.425 -0.486,-0.25 -0.916,0.491 -0.428,0.733 z"
   id="path344-0" />
		<path
   style="fill:#1e0202"
   d="m 411.145,114.143 c 0.242,0.221 0.485,0.441 0.727,0.662 0.236,0.215 0.462,0.453 0.733,0.622 0.35,0.218 0.628,-0.248 0.408,-0.529 -0.189,-0.241 -0.447,-0.434 -0.676,-0.637 -0.231,-0.206 -0.463,-0.412 -0.694,-0.618 -0.337,-0.299 -0.836,0.193 -0.498,0.5 z"
   id="path345" />
		<path
   style="fill:#1e0202"
   d="m 405.674,66.774 c 0.621,0.859 1.194,1.754 1.715,2.677 0.539,0.955 0.899,2.081 1.53,2.97 0.1,0.14 0.228,0.214 0.358,0.237 0.146,0.136 0.348,0.206 0.576,0.131 4.768,-1.567 6.276,-7.729 3.325,-11.558 -2.865,-3.717 -8.754,-3.864 -11.555,-0.013 -0.331,-0.178 -0.642,0.263 -0.392,0.536 1.514,1.657 3.122,3.192 4.443,5.02 z m 6.485,-4.757 c 1.171,1.531 1.611,3.506 1.071,5.368 -0.546,1.884 -1.838,3.161 -3.504,4.04 -0.286,-0.906 -0.836,-1.795 -1.282,-2.59 -0.575,-1.024 -1.223,-2.001 -1.934,-2.935 -1.175,-1.545 -2.528,-3.061 -4.131,-4.191 2.765,-2.704 7.29,-2.946 9.78,0.308 z"
   id="path346-3" />
		<path
   style="fill:#1e0202"
   d="m 411.871,131.434 c -0.078,-0.072 -0.16,-0.12 -0.243,-0.154 1.828,-3.364 2.439,-7.277 0.947,-11.015 2.565,-2.452 4.565,-5.396 5.994,-8.774 2.481,-5.864 4.014,-12.573 3.969,-18.952 -0.041,-5.807 -1.68,-11.702 -5.498,-16.164 0.862,-0.575 1.66,-1.252 2.352,-2.014 1.851,-2.035 2.879,-4.476 3.112,-7.129 0.134,-0.086 0.236,-0.227 0.253,-0.414 0.128,-1.458 -0.233,-3.123 -0.558,-4.542 -0.325,-1.419 -0.819,-2.825 -1.596,-4.063 -0.777,-1.24 -1.767,-2.235 -2.952,-2.912 0.055,-0.108 0.075,-0.237 0.04,-0.381 -0.415,-1.7 -2.1,-2.814 -3.705,-3.252 -1.98,-0.541 -4.172,-0.31 -6.147,0.142 -3.81,0.872 -7.062,2.966 -9.525,5.948 -4.151,-2.738 -9.285,-4.16 -14.166,-4.863 -4.85,-0.698 -9.791,-0.603 -14.607,0.313 -5.033,0.957 -9.849,2.865 -14.196,5.541 -1.273,-1.887 -3.775,-3.145 -5.821,-3.902 -2.44,-0.903 -4.926,-1.106 -7.486,-0.749 -0.478,0.067 -0.583,0.748 -0.276,1.045 0.205,0.198 0.405,0.398 0.611,0.591 -4.269,0.723 -7.762,5.606 -5.741,9.799 -0.6,1.54 -0.705,3.242 -0.131,4.843 0.344,0.959 0.885,1.846 1.588,2.585 0.552,0.58 1.355,1.364 2.207,1.391 -0.858,1.515 -1.625,3.084 -2.285,4.703 -0.091,0.045 -0.169,0.121 -0.221,0.234 -4.723,10.305 -8.935,22.613 -3.967,33.639 1.923,4.267 4.95,7.701 8.588,10.392 -2.602,3.401 -2.198,7.493 -0.171,10.821 -5.865,5.9 -10.283,13.457 -13.507,21.074 -3.298,7.792 -5.303,16.129 -5.868,24.574 -0.244,3.646 -0.291,8.955 2.65,11.686 -1.26,0.652 -2.463,1.396 -3.478,2.288 -0.777,-1.922 -1.842,-3.714 -3.29,-5.28 -4.19,-4.535 -11.468,-5.631 -15.955,-0.907 -2.326,2.449 -3.422,5.719 -3.879,9.007 -0.491,3.533 -0.486,7.184 -0.069,10.723 0.744,6.315 3.011,13.507 8.129,17.668 2.787,2.266 6.301,3.125 9.745,1.899 3.515,-1.252 6.022,-3.933 8.23,-6.81 0.136,0.067 0.301,0.084 0.485,0.018 3.27,-1.161 6.411,-2.807 9.617,-4.141 3.093,-1.288 6.202,-2.596 9.333,-3.79 0.879,0.455 1.769,0.882 2.654,1.288 5.645,2.588 11.737,4.313 17.918,4.976 0.043,1.138 0.133,2.274 0.274,3.406 0.737,5.902 2.931,12.645 8.493,15.687 6.314,3.454 14.647,0.341 16.633,-6.573 0.039,-0.013 0.078,-0.036 0.112,-0.074 2.042,-2.232 3.91,-4.609 6.012,-6.791 2.106,-2.186 4.308,-4.279 6.641,-6.221 2.408,-2.004 4.947,-3.822 7.551,-5.56 2.528,-1.687 5.089,-3.379 7.286,-5.493 2.08,-2.001 4.066,-4.543 4.802,-7.395 3.802,0.465 7.459,-0.821 9.089,-4.582 0.831,-1.917 1.09,-4.016 1.298,-6.077 0.224,-2.219 0.333,-4.45 0.331,-6.68 -0.009,-8.853 -1.732,-17.775 -5.01,-25.998 -3.675,-9.229 -9.278,-17.861 -16.596,-24.629 z M 339.285,72.191 c -0.633,-0.611 -1.15,-1.356 -1.471,-2.177 -0.718,-1.835 -0.491,-3.926 0.541,-5.586 0.333,-0.536 -0.443,-1.001 -0.826,-0.566 -0.072,-1.584 0.177,-3.113 1.183,-4.482 1.162,-1.58 3.071,-2.512 4.986,-2.781 0.372,-0.052 0.426,-0.454 0.264,-0.721 -0.01,-0.053 -0.03,-0.105 -0.062,-0.156 -0.098,-0.157 -0.207,-0.304 -0.321,-0.446 1.836,0.006 3.685,0.318 5.407,0.919 1.059,0.369 2.059,0.872 3.015,1.455 0.835,0.509 1.568,1.163 2.366,1.719 -1.27,0.829 -2.493,1.728 -3.67,2.686 -1.469,-2.785 -5.695,-2.994 -7.962,-1.084 -3,2.526 -2.084,6.766 0.025,9.534 -0.692,0.966 -1.347,1.957 -1.956,2.976 -0.385,-0.54 -1.039,-0.828 -1.519,-1.29 z m 10.495,-9.369 c -1.342,1.155 -2.616,2.391 -3.807,3.704 -0.912,1.005 -1.775,2.051 -2.59,3.132 -1.337,-2.333 -2.284,-5.379 -0.103,-7.511 0.945,-0.924 2.318,-1.409 3.632,-1.172 1.264,0.227 2.044,0.981 2.868,1.847 z m -12.978,52.451 c -3.299,-5.106 -4.172,-11.197 -3.472,-17.162 0.74,-6.314 3.176,-12.286 5.451,-18.173 0.161,-0.03 0.305,-0.124 0.384,-0.306 3.49,-7.98 9.247,-14.801 16.637,-19.441 7.917,-4.971 17.316,-7.05 26.602,-6.085 5.479,0.569 10.447,2.41 15.489,4.511 0.094,0.242 0.39,0.394 0.608,0.14 2.222,-2.578 5.323,-4.508 8.587,-5.452 1.614,-0.467 3.333,-0.728 5.017,-0.637 1.75,0.095 3.103,0.713 4.107,1.998 -0.447,-0.141 -0.914,-0.244 -1.403,-0.304 -0.267,-0.032 -0.316,0.4 -0.063,0.464 2.287,0.576 4.126,2.457 5.181,4.501 0.585,1.132 0.959,2.374 1.217,3.618 0.26,1.257 0.264,2.581 0.561,3.825 -0.386,2.517 -1.552,5.019 -3.292,6.836 -0.936,0.977 -2.033,1.775 -3.241,2.382 -0.626,0.314 -1.277,0.566 -1.948,0.766 -0.612,0.183 -1.272,0.234 -1.831,0.549 -0.381,0.215 -0.327,0.877 0.127,0.97 1.327,0.275 2.977,-0.513 4.155,-1.104 0.007,-0.004 0.014,-0.008 0.021,-0.011 7.335,8.494 5.818,20.795 2.576,30.675 -1.436,4.376 -3.605,8.382 -6.939,11.496 -0.129,0.07 -0.243,0.172 -0.327,0.297 -0.427,0.383 -0.87,0.755 -1.336,1.108 -3.846,2.919 -8.403,4.755 -12.999,6.124 -10.863,3.235 -22.486,4.192 -33.72,2.623 -10.016,-1.398 -20.437,-5.365 -26.149,-14.208 z m 6.378,8.597 c 4.549,3.165 9.959,5.227 15.329,6.348 11.653,2.431 24.066,1.874 35.574,-1.044 5.027,-1.275 10.081,-2.972 14.482,-5.772 0.977,-0.622 1.895,-1.299 2.76,-2.023 1.757,5.12 -1.074,10.685 -5.091,13.947 -4.716,3.829 -11.071,5.56 -16.944,6.609 -6.439,1.15 -13.04,1.241 -19.546,0.686 -3.369,-0.288 -6.719,-0.758 -10.044,-1.365 -3.186,-0.582 -6.433,-1.199 -9.431,-2.464 -2.907,-1.227 -5.659,-3.183 -7.209,-5.993 -1.478,-2.681 -1.652,-6.343 0.12,-8.929 z m 24.106,32.268 c -0.226,-4.132 -0.557,-8.244 -1.122,-12.343 4.396,0.543 8.83,0.804 13.254,0.684 0.602,6.665 1.561,13.29 2.476,19.919 0.722,5.237 1.453,10.473 2.186,15.709 -1.465,0.689 -2.857,1.482 -4.395,2.02 -1.575,0.55 -3.215,0.947 -4.874,1.131 -1.693,0.188 -3.424,0.187 -5.112,-0.04 -0.753,-0.101 -1.742,-0.198 -1.879,-1.1 -0.138,-0.906 0.006,-1.939 0.013,-2.853 0.057,-7.713 -0.126,-15.425 -0.547,-23.127 z m 16.167,8.042 c -0.941,-6.591 -1.838,-13.191 -3.083,-19.732 2.308,-0.091 4.612,-0.287 6.905,-0.603 2.963,-0.408 6.038,-0.987 9.02,-1.864 2.576,7.273 4.736,14.69 6.367,22.233 0.852,3.937 1.83,8.017 2.158,12.039 0.169,2.075 -1.06,3.159 -2.666,4.227 -1.436,0.955 -2.981,1.746 -4.607,2.323 -3.627,1.288 -7.563,1.62 -11.338,0.874 -0.914,-6.499 -1.829,-12.999 -2.756,-19.497 z m -18.523,52.715 c -5.799,-0.749 -11.441,-2.221 -16.815,-4.56 -4.69,-2.041 -10.684,-4.818 -12.779,-9.848 -0.186,-0.448 -0.926,-0.262 -0.743,0.205 1.568,4.007 4.826,6.678 8.455,8.736 -2.896,0.946 -5.759,1.928 -8.597,3.071 -3.111,1.253 -6.425,2.455 -9.335,4.144 -0.199,-0.079 -0.432,-0.065 -0.606,0.112 -2.171,2.213 -4.319,4.663 -7.135,6.064 -2.77,1.379 -5.774,1.273 -8.381,-0.405 -4.954,-3.187 -7.317,-9.654 -8.285,-15.192 -0.523,-2.988 -0.656,-6.041 -0.524,-9.068 0.139,-3.181 0.55,-6.497 2.151,-9.309 0.919,-1.615 2.23,-3.028 3.838,-3.906 -0.34,0.706 -0.559,1.5 -0.686,2.116 -0.31,1.503 -0.199,2.918 0.292,4.366 0.167,0.491 0.876,0.294 0.774,-0.214 -0.258,-1.29 -0.214,-2.721 0.123,-3.99 0.164,-0.617 0.393,-1.215 0.693,-1.779 0.228,-0.428 0.525,-0.794 0.699,-1.234 0.297,-0.071 0.6,-0.129 0.912,-0.163 1.854,-0.204 3.743,0.206 5.413,1.043 -1.766,1.915 -2.301,4.619 -1.771,7.153 0.086,0.411 0.788,0.327 0.744,-0.101 -0.242,-2.382 0.646,-4.622 2.147,-6.407 0.431,0.285 0.84,0.598 1.222,0.938 5.556,4.946 5.409,12.767 5.985,19.572 0.059,0.697 1.055,0.71 1.094,0 0.238,-4.295 0.08,-8.983 -1.301,-13.175 0.084,-0.006 0.169,-0.026 0.253,-0.064 1.306,-0.592 2.505,-1.456 3.771,-2.135 1.273,-0.683 2.576,-1.308 3.902,-1.88 0.41,-0.177 0.463,-0.63 0.309,-0.993 0.358,0.009 0.699,-0.213 0.655,-0.674 -1.284,-13.499 1.138,-27.209 6.924,-39.476 1.641,-3.479 3.491,-6.866 5.633,-10.064 0.291,-0.434 -0.396,-0.818 -0.693,-0.405 -8.067,11.205 -12.688,24.463 -13.521,38.242 -0.236,3.902 -0.156,7.814 0.246,11.703 0.006,0.061 0.02,0.117 0.037,0.169 -0.065,0.006 -0.132,0.018 -0.201,0.047 -0.987,0.414 -2.03,0.847 -3.062,1.328 -0.922,-1.653 -1.78,-3.086 -2.137,-4.996 -0.353,-1.891 -0.332,-3.844 -0.216,-5.757 0.245,-4.047 0.857,-8.072 1.775,-12.019 1.817,-7.82 4.855,-15.358 8.983,-22.243 2.281,-3.805 4.938,-7.325 7.666,-10.813 0.789,1.084 1.75,2.064 2.833,2.882 2.732,2.061 6.035,3.175 9.334,3.947 3.302,0.772 6.661,1.34 10.022,1.788 0.077,2.523 0.189,5.044 0.309,7.564 -2.472,-1.357 -5.659,-1.321 -8.352,-0.793 -3.352,0.657 -6.541,2.187 -9.378,4.061 -5.43,3.586 -9.81,8.747 -12.364,14.74 -5.379,12.621 -1.677,28.193 9.36,36.529 5.876,4.438 13.357,6.627 20.68,5.802 -0.232,1.771 -0.352,3.556 -0.352,5.341 z m 0.562,-6.756 c -12.889,1.229 -25.286,-6.556 -29.561,-18.826 -2.117,-6.076 -2.281,-12.788 -0.321,-18.927 1.844,-5.774 5.466,-10.912 10.138,-14.751 2.737,-2.249 5.919,-4.136 9.3,-5.222 1.766,-0.568 3.616,-0.935 5.476,-0.924 1.721,0.009 3.289,0.434 4.874,0.997 0.275,5.58 0.584,11.158 0.697,16.748 0.084,4.188 -0.103,8.401 0.05,12.584 0.06,1.641 0.992,2.597 2.588,2.908 1.699,0.331 3.488,0.381 5.211,0.265 3.482,-0.236 7.454,-1.194 10.357,-3.312 0.135,0.966 0.27,1.932 0.406,2.898 0.036,0.26 0.322,0.512 0.568,0.568 3.443,0.771 7.014,0.778 10.442,-0.046 0.052,0.278 0.126,0.553 0.181,0.845 0.123,0.657 0.175,1.323 0.192,1.991 0.031,1.2 -0.16,2.372 -0.294,3.559 -0.504,0.224 -1.002,0.461 -1.491,0.712 -3.33,1.709 -6.177,4.045 -8.492,6.976 -0.226,-0.216 -0.458,-0.43 -0.703,-0.636 -0.402,-0.339 -0.826,-0.651 -1.264,-0.938 -0.051,-0.049 -0.111,-0.088 -0.176,-0.116 -2.132,-1.348 -4.639,-2.063 -7.187,-1.861 -3.215,0.255 -5.888,1.94 -7.646,4.623 -1.883,2.873 -2.765,6.452 -3.328,9.797 -0.008,0.028 -0.012,0.058 -0.017,0.088 z m 66.186,-20.419 c -0.237,2.046 -0.612,4.242 -1.834,5.955 -0.779,1.092 -1.856,1.779 -3.059,2.15 0.652,-2.299 0.836,-4.875 0.487,-7.21 -0.055,-0.367 -0.651,-0.276 -0.642,0.087 0.029,1.221 0.043,2.443 -0.095,3.659 -0.144,1.273 -0.53,2.504 -0.917,3.722 -0.457,0.065 -0.923,0.094 -1.392,0.086 -1.311,-0.021 -2.696,-0.252 -4.03,-0.682 0.164,-0.034 0.315,-0.142 0.363,-0.314 0.488,-1.715 0.145,-3.746 0.17,-5.508 0.006,-0.427 -0.617,-0.412 -0.654,0 -0.161,1.769 -0.702,3.738 -0.396,5.508 0.011,0.063 0.034,0.115 0.064,0.159 -2.612,-0.94 -4.968,-2.662 -6.096,-5.119 -0.923,-2.01 -1.058,-4.295 -1.07,-6.474 -0.014,-2.342 0.084,-4.679 0.01,-7.021 -0.337,-10.734 -2.603,-21.621 -7.345,-31.294 -0.169,-0.344 -0.767,-0.101 -0.627,0.264 3.753,9.785 6.307,19.952 6.68,30.461 0.09,2.533 -0.02,5.058 -0.011,7.591 0.007,2.199 0.156,4.467 0.974,6.532 1.493,3.77 5.209,6.007 9.045,6.873 -1.314,3.329 -3.429,5.949 -6.236,8.224 -3.093,2.508 -6.573,4.495 -9.745,6.9 -2.983,2.262 -5.811,4.761 -8.393,7.473 -2.313,2.429 -4.629,5.05 -6.397,7.93 -0.165,-0.24 -0.584,-0.257 -0.709,0.106 -2.006,5.858 -8.525,9.482 -14.452,6.894 -5.168,-2.257 -7.497,-8.131 -8.383,-13.33 -1.106,-6.484 -0.637,-13.693 1.885,-19.816 1.033,-2.507 2.699,-4.793 5.257,-5.806 -0.383,0.649 -0.656,1.409 -0.872,1.997 -0.49,1.334 -0.618,2.702 -0.669,4.11 -0.015,0.42 0.692,0.534 0.75,0.102 0.173,-1.278 0.596,-2.53 1.101,-3.713 0.231,-0.541 0.485,-1.07 0.779,-1.58 0.272,-0.472 0.612,-0.876 0.736,-1.399 2.134,-0.329 4.351,0.102 6.262,1.11 -0.684,0.844 -1.115,2.013 -1.296,2.969 -0.287,1.515 -0.06,2.971 0.555,4.375 0.203,0.463 1,0.132 0.822,-0.347 -0.458,-1.234 -0.505,-2.572 -0.171,-3.847 0.256,-0.977 0.76,-1.669 1.277,-2.419 5.896,4.125 7.008,12.314 6.906,18.971 -0.009,0.568 0.861,0.565 0.881,0 0.223,-6.318 -0.252,-13.274 -4.633,-18.11 2.39,-2.557 5.257,-4.75 8.36,-6.365 1.583,-0.824 3.243,-1.488 4.956,-1.987 1.583,-0.461 3.373,-0.526 4.88,-1.173 0.445,-0.191 0.322,-0.954 -0.136,-1.042 -1.638,-0.313 -3.575,0.311 -5.143,0.766 -0.86,0.25 -1.709,0.543 -2.544,0.873 0.37,-0.979 0.529,-2.029 0.563,-3.081 0.03,-0.929 0.013,-2.244 -0.369,-3.225 1.485,-0.461 2.929,-1.076 4.287,-1.827 1.496,-0.828 3.145,-1.849 4.174,-3.247 1.109,-1.507 0.882,-3.275 0.627,-5.017 -0.324,-2.206 -0.694,-4.406 -1.104,-6.597 -0.822,-4.382 -1.827,-8.73 -2.992,-13.034 -1.233,-4.556 -2.66,-9.053 -4.283,-13.485 3.08,-1.03 6.02,-2.411 8.583,-4.294 1.72,-1.263 3.248,-2.852 4.436,-4.641 12.08,11.851 19.81,27.836 21.058,44.773 0.302,4.122 0.242,8.279 -0.233,12.384 z"
   id="path347-4" />
		<path
   style="fill:#1e0202"
   d="m 374.857,214.27 c -0.092,0.049 -0.158,0.114 -0.206,0.185 -4.557,1.665 -4.732,10.065 -1.304,12.98 1.948,1.657 5.112,1.71 6.655,-0.536 0.801,-1.166 1.03,-2.652 1.255,-4.017 0.252,-1.532 0.395,-3.099 0.052,-4.63 -0.623,-2.785 -3.501,-5.566 -6.452,-3.982 z m 4.568,10.398 c -0.369,1.321 -1.155,2.422 -2.619,2.558 -2.956,0.275 -4.363,-2.999 -4.406,-5.443 -0.041,-2.297 0.609,-5.258 2.758,-6.396 0.053,0.001 0.107,-0.002 0.163,-0.016 3.17,-0.803 4.781,2.302 4.747,5.011 -0.016,1.422 -0.259,2.914 -0.643,4.286 z"
   id="path348-6" />
		<path
   style="fill:#1e0202"
   d="m 310.995,204.201 c -1.048,-0.54 -2.571,-0.598 -3.351,0.354 -2.554,1.281 -2.216,5.886 -1.721,8.201 0.337,1.576 0.987,3.291 2.476,4.113 1.244,0.687 2.683,0.432 3.719,-0.505 1.167,-1.057 1.509,-2.635 1.69,-4.134 0.185,-1.54 0.203,-3.163 -0.243,-4.664 -0.409,-1.373 -1.268,-2.694 -2.57,-3.365 z m 0.637,10.733 c -0.747,1.029 -1.983,1.35 -3.001,0.486 -0.954,-0.81 -1.286,-2.195 -1.518,-3.373 -0.311,-1.58 -0.677,-5.002 0.727,-6.411 0.093,0.007 0.191,-0.006 0.287,-0.048 4.881,-2.118 5.403,6.731 3.505,9.346 z"
   id="path349-3" />
		<path
   style="fill:#aa1d45"
   d="m 411.328,121.379 c 1.75,5.12 -1.08,10.69 -5.09,13.95 -2.17,1.75 -4.68,3.08 -7.33,4.08 8.35,-4.96 8.79,-12.59 2.95,-10.18 -5.12,2.11 -10.52,1.7 -13.56,1.19 1.95,-0.35 3.88,-0.77 5.79,-1.25 5.02,-1.27 10.08,-2.97 14.48,-5.77 0.97,-0.62 1.89,-1.3 2.76,-2.02 z"
   id="path350-6" />
		<path
   style="fill:#844220"
   d="m 415.678,77.169 c -1.18,0.59 -2.83,1.38 -4.16,1.11 -0.45,-0.1 -0.51,-0.76 -0.13,-0.97 0.56,-0.32 1.22,-0.37 1.83,-0.55 0.67,-0.2 1.33,-0.45 1.95,-0.77 1.21,-0.61 2.31,-1.4 3.24,-2.38 1.74,-1.82 2.91,-4.32 3.3,-6.84 -0.3,-1.24 -0.31,-2.56 -0.57,-3.82 -0.25,-1.25 -0.63,-2.49 -1.21,-3.62 -0.16,-0.32 -0.34,-0.63 -0.55,-0.93 0.55,5.32 -0.54,13.02 -9.69,17.49 0,0 10.38,37.83 -21.67,53.04 2.92,-0.53 5.81,-1.22 8.65,-2.07 4.6,-1.37 9.16,-3.2 13,-6.12 0.47,-0.36 0.91,-0.73 1.34,-1.11 0.08,-0.13 0.19,-0.23 0.32,-0.3 3.34,-3.11 5.51,-7.12 6.94,-11.49 3.25,-9.88 4.76,-22.18 -2.57,-30.68 -0.01,0 -0.02,0.01 -0.02,0.01 z m -3.07,38.26 c -0.27,-0.17 -0.5,-0.41 -0.74,-0.62 -0.24,-0.22 -0.48,-0.45 -0.72,-0.67 -0.34,-0.3 0.16,-0.8 0.5,-0.5 0.23,0.21 0.46,0.42 0.69,0.62 0.23,0.21 0.49,0.4 0.68,0.64 0.22,0.28 -0.06,0.75 -0.41,0.53 z m 1.52,-3.19 c -0.31,0.08 -0.59,-0.1 -0.85,-0.23 l -0.83,-0.42 c -0.49,-0.24 -0.06,-0.98 0.43,-0.73 0.27,0.14 0.54,0.28 0.82,0.43 0.27,0.14 0.53,0.25 0.65,0.55 0.06,0.16 -0.07,0.35 -0.22,0.4 z m 1.13,-3.08 c -0.31,-0.01 -0.59,-0.17 -0.88,-0.29 -0.29,-0.12 -0.59,-0.25 -0.89,-0.37 -0.21,-0.09 -0.36,-0.28 -0.29,-0.52 0.06,-0.2 0.31,-0.39 0.52,-0.3 0.31,0.14 0.63,0.27 0.95,0.4 0.29,0.12 0.62,0.21 0.86,0.44 0.23,0.22 0.06,0.65 -0.27,0.64 z"
   id="path351-3" />
		<path
   style="fill:#844220"
   d="m 415.748,196.679 c 1.63,1.21 3.57,2.02 5.55,2.47 -1.31,3.32 -3.43,5.94 -6.23,8.22 -3.1,2.51 -6.58,4.5 -9.75,6.9 -2.98,2.26 -5.81,4.76 -8.39,7.47 -2.31,2.43 -4.63,5.05 -6.4,7.93 -0.16,-0.24 -0.58,-0.25 -0.71,0.11 -2,5.86 -8.52,9.48 -14.45,6.89 -1.87,-0.81 -3.36,-2.1 -4.55,-3.65 16.49,3.37 19.08,-13.89 25.54,-21.46 6.69,-7.83 6.4,-7.28 19.39,-14.88 z"
   id="path352-3" />
		<path
   style="fill:#844220"
   d="m 419.848,193.399 c -0.19,1.26 -0.37,2.56 -0.17,3.77 0.01,0.07 0.03,0.12 0.06,0.16 -0.98,-0.35 -1.92,-0.81 -2.77,-1.38 1.13,-0.7 2.09,-1.56 2.88,-2.55 z"
   id="path353-4" />
		<path
   style="fill:#844220"
   d="m 431.678,189.719 c -0.24,2.05 -0.61,4.24 -1.83,5.96 -0.78,1.09 -1.86,1.77 -3.06,2.15 0.65,-2.3 0.83,-4.88 0.48,-7.21 -0.05,-0.37 -0.65,-0.28 -0.64,0.08 0.03,1.22 0.04,2.45 -0.09,3.66 -0.15,1.27 -0.53,2.51 -0.92,3.72 -0.46,0.07 -0.92,0.1 -1.39,0.09 -1.31,-0.02 -2.7,-0.25 -4.03,-0.68 0.16,-0.04 0.31,-0.14 0.36,-0.32 0.45,-1.55 0.21,-3.37 0.18,-5.01 7.06,-11.18 -1.84,-34.59 -6.21,-44.27 -3.61,-8.01 -9.63,-8.4 -12.68,-8 1.61,-0.75 3.15,-1.64 4.57,-2.68 1.72,-1.27 3.24,-2.86 4.43,-4.64 12.08,11.85 19.81,27.83 21.06,44.77 0.3,4.12 0.25,8.28 -0.23,12.38 z"
   id="path354" />
		<path
   style="fill:#844220"
   d="m 365.048,213.909 c -0.08,0.99 -0.12,1.99 -0.12,2.99 -5.8,-0.75 -11.44,-2.23 -16.81,-4.56 -4.69,-2.05 -10.69,-4.82 -12.78,-9.85 -0.19,-0.45 -0.93,-0.26 -0.75,0.2 1.57,4.01 4.83,6.68 8.46,8.74 -2.9,0.94 -5.76,1.93 -8.6,3.07 -3.11,1.25 -6.42,2.45 -9.33,4.14 -0.2,-0.08 -0.43,-0.06 -0.61,0.11 -2.17,2.22 -4.32,4.67 -7.13,6.07 -2.77,1.38 -5.78,1.27 -8.38,-0.41 -2.75,-1.76 -4.7,-4.53 -6.06,-7.6 2.7,3.27 6.12,6.32 9.09,5.58 6,-1.5 6.66,-7 15.16,-9.66 8.5,-2.67 2.67,-17 6.17,-13.84 2.67,2.41 14.41,14.47 31.69,15.02 z"
   id="path355-4" />
		<path
   style="fill:#aa1d45"
   d="m 379.418,144.479 c 0.13,1.39 0.27,2.78 0.42,4.17 -6.16,-0.33 -10.99,-1.89 -13.42,-2.84 -0.07,-0.67 -0.16,-1.34 -0.25,-2.01 4.39,0.54 8.83,0.8 13.25,0.68 z"
   id="path356-3" />
		<path
   style="fill:#aa1d45"
   d="m 397.588,145.759 c -5.91,2.37 -11.56,3.06 -16.46,2.94 -0.24,-1.42 -0.49,-2.84 -0.76,-4.25 2.31,-0.09 4.61,-0.29 6.91,-0.6 2.96,-0.41 6.03,-0.99 9.02,-1.87 0.44,1.26 0.87,2.51 1.29,3.78 z"
   id="path357-9" />
	</g></svg>
