<?xml version="1.0" encoding="UTF-8" standalone="no"?>
<!-- Created with Inkscape (http://www.inkscape.org/) -->

<svg
   width="123.9985mm"
   height="137.06964mm"
   viewBox="0 0 123.9985 137.06964"
   version="1.1"
   id="svg1"
   xmlns="http://www.w3.org/2000/svg"
   xmlns:svg="http://www.w3.org/2000/svg">
  <defs
     id="defs1" />
  <g
     id="layer1"
     transform="translate(-289.20775,-163.60015)">
    <g
       id="g30"
       transform="translate(133.4775,37.935159)">
      <g
         id="g14-5"
         transform="matrix(1.1518473,-0.27110515,0.27969738,1.1883532,-81.276421,30.271154)">
        <g
           id="g12-6-6"
           style="fill:#dcaa78;fill-opacity:1"
           transform="matrix(0.7300247,-0.04648633,0.05439943,0.72726431,96.595209,38.393826)">
          <g
             id="g8-1-1-3"
             style="fill:#dcaa78;fill-opacity:1"
             transform="matrix(0.61866643,0,0,0.61866643,98.105155,55.052373)">
            <path
               id="rect5-2-5-9"
               style="fill:#dcaa78;fill-opacity:1;stroke-width:1.5"
               d="m 44.743274,149.14424 h 41.9083 c 2.663149,0 4.807128,2.14398 4.807128,4.80713 0,2.66315 -2.143979,4.80713 -4.807128,4.80713 h -41.9083 c -2.663149,0 -4.807128,-2.14398 -4.807128,-4.80713 0,-2.66315 2.143979,-4.80713 4.807128,-4.80713 z" />
            <path
               id="path6-9-5-4"
               style="fill:#dcaa78;fill-opacity:1;stroke-width:1.57914"
               d="m 59.904216,148.28142 a 7.8886213,8.7514391 0 0 1 -7.888622,8.75144 7.8886213,8.7514391 0 0 1 -7.888621,-8.75144 7.8886213,8.7514391 0 0 1 7.888621,-8.75144 7.8886213,8.7514391 0 0 1 7.888622,8.75144 z" />
            <path
               id="path7-3-4-8"
               style="fill:#dcaa78;fill-opacity:1;stroke-width:2.17077"
               d="m 70.751071,143.22777 a 9.1212187,14.051607 0 0 1 -9.121219,14.05161 9.1212187,14.051607 0 0 1 -9.121218,-14.05161 9.1212187,14.051607 0 0 1 9.121218,-14.05161 9.1212187,14.051607 0 0 1 9.121219,14.05161 z" />
            <path
               id="path8-1-7-1"
               style="fill:#dcaa78;fill-opacity:1;stroke-width:1.5"
               d="M 88.993517,145.81621 A 11.586412,12.695749 0 0 1 77.407104,158.51196 11.586412,12.695749 0 0 1 65.820692,145.81621 11.586412,12.695749 0 0 1 77.407104,133.12046 11.586412,12.695749 0 0 1 88.993517,145.81621 Z" />
          </g>
        </g>
        <g
           id="g12-4-6-2"
           transform="matrix(0.67486972,-0.04297419,0.04874819,0.651713,104.98817,48.871353)"
           style="fill:#dceb8c;fill-opacity:1">
          <g
             id="g8-1-5-5-9"
             style="fill:#dceb8c;fill-opacity:1"
             transform="matrix(0.61866643,0,0,0.61866643,98.105155,55.052373)">
            <path
               id="rect5-2-0-6-3"
               style="fill:#dceb8c;fill-opacity:1;stroke-width:1.5"
               d="m 44.743274,149.14424 h 41.9083 c 2.663149,0 4.807128,2.14398 4.807128,4.80713 0,2.66315 -2.143979,4.80713 -4.807128,4.80713 h -41.9083 c -2.663149,0 -4.807128,-2.14398 -4.807128,-4.80713 0,-2.66315 2.143979,-4.80713 4.807128,-4.80713 z" />
            <path
               id="path6-9-3-9-9"
               style="fill:#dceb8c;fill-opacity:1;stroke-width:1.57914"
               d="m 59.904216,148.28142 a 7.8886213,8.7514391 0 0 1 -7.888622,8.75144 7.8886213,8.7514391 0 0 1 -7.888621,-8.75144 7.8886213,8.7514391 0 0 1 7.888621,-8.75144 7.8886213,8.7514391 0 0 1 7.888622,8.75144 z" />
            <path
               id="path7-3-6-3-0"
               style="fill:#dceb8c;fill-opacity:1;stroke-width:2.17077"
               d="m 70.751071,143.22777 a 9.1212187,14.051607 0 0 1 -9.121219,14.05161 9.1212187,14.051607 0 0 1 -9.121218,-14.05161 9.1212187,14.051607 0 0 1 9.121218,-14.05161 9.1212187,14.051607 0 0 1 9.121219,14.05161 z" />
            <path
               id="path8-1-1-7-8"
               style="fill:#dceb8c;fill-opacity:1;stroke-width:1.5"
               d="M 88.993517,145.81621 A 11.586412,12.695749 0 0 1 77.407104,158.51196 11.586412,12.695749 0 0 1 65.820692,145.81621 11.586412,12.695749 0 0 1 77.407104,133.12046 11.586412,12.695749 0 0 1 88.993517,145.81621 Z" />
          </g>
        </g>
      </g>
      <g
         id="g23-5-6"
         transform="rotate(-58.285194,230.99967,232.56499)">
        <g
           id="g12-6-7-3-4-1-4-7"
           style="fill:#dcaa78;fill-opacity:1"
           transform="matrix(-0.56221392,0.01713836,0.05896988,0.49822632,322.9277,65.77915)">
          <g
             id="g8-1-1-4-8-4-8-8-5"
             style="fill:#dcaa78;fill-opacity:1"
             transform="matrix(0.61866643,0,0,0.61866643,98.105155,55.052373)">
            <path
               id="rect5-2-5-4-5-7-5-1-6"
               style="fill:#dcaa78;fill-opacity:1;stroke-width:1.5"
               d="m 44.743274,149.14424 h 41.9083 c 2.663149,0 4.807128,2.14398 4.807128,4.80713 0,2.66315 -2.143979,4.80713 -4.807128,4.80713 h -41.9083 c -2.663149,0 -4.807128,-2.14398 -4.807128,-4.80713 0,-2.66315 2.143979,-4.80713 4.807128,-4.80713 z" />
            <path
               id="path6-9-5-3-6-6-9-2-9"
               style="fill:#dcaa78;fill-opacity:1;stroke-width:1.57914"
               d="m 59.904216,148.28142 a 7.8886213,8.7514391 0 0 1 -7.888622,8.75144 7.8886213,8.7514391 0 0 1 -7.888621,-8.75144 7.8886213,8.7514391 0 0 1 7.888621,-8.75144 7.8886213,8.7514391 0 0 1 7.888622,8.75144 z" />
            <path
               id="path7-3-4-0-1-3-7-8-8"
               style="fill:#dcaa78;fill-opacity:1;stroke-width:2.17077"
               d="m 70.751071,143.22777 a 9.1212187,14.051607 0 0 1 -9.121219,14.05161 9.1212187,14.051607 0 0 1 -9.121218,-14.05161 9.1212187,14.051607 0 0 1 9.121218,-14.05161 9.1212187,14.051607 0 0 1 9.121219,14.05161 z" />
            <path
               id="path8-1-7-7-1-1-5-9-7"
               style="fill:#dcaa78;fill-opacity:1;stroke-width:1.5"
               d="M 88.993517,145.81621 A 11.586412,12.695749 0 0 1 77.407104,158.51196 11.586412,12.695749 0 0 1 65.820692,145.81621 11.586412,12.695749 0 0 1 77.407104,133.12046 11.586412,12.695749 0 0 1 88.993517,145.81621 Z" />
          </g>
        </g>
        <g
           id="g12-4-6-8-5-7-3-3-2"
           transform="matrix(-0.51973741,0.01584351,0.05284383,0.44646845,317.98405,73.46514)"
           style="fill:#fa9b96;fill-opacity:1">
          <g
             id="g8-1-5-5-6-9-5-8-6-8"
             style="fill:#fa9b96;fill-opacity:1"
             transform="matrix(0.61866643,0,0,0.61866643,98.105155,55.052373)">
            <path
               id="rect5-2-0-6-8-8-9-8-8-2"
               style="fill:#fa9b96;fill-opacity:1;stroke-width:1.5"
               d="m 44.743274,149.14424 h 41.9083 c 2.663149,0 4.807128,2.14398 4.807128,4.80713 0,2.66315 -2.143979,4.80713 -4.807128,4.80713 h -41.9083 c -2.663149,0 -4.807128,-2.14398 -4.807128,-4.80713 0,-2.66315 2.143979,-4.80713 4.807128,-4.80713 z" />
            <path
               id="path6-9-3-9-8-4-6-3-0-9"
               style="fill:#fa9b96;fill-opacity:1;stroke-width:1.57914"
               d="m 59.904216,148.28142 a 7.8886213,8.7514391 0 0 1 -7.888622,8.75144 7.8886213,8.7514391 0 0 1 -7.888621,-8.75144 7.8886213,8.7514391 0 0 1 7.888621,-8.75144 7.8886213,8.7514391 0 0 1 7.888622,8.75144 z" />
            <path
               id="path7-3-6-3-4-8-2-1-2-9"
               style="fill:#fa9b96;fill-opacity:1;stroke-width:2.17077"
               d="m 70.751071,143.22777 a 9.1212187,14.051607 0 0 1 -9.121219,14.05161 9.1212187,14.051607 0 0 1 -9.121218,-14.05161 9.1212187,14.051607 0 0 1 9.121218,-14.05161 9.1212187,14.051607 0 0 1 9.121219,14.05161 z" />
            <path
               id="path8-1-1-7-3-1-1-8-1-6"
               style="fill:#fa9b96;fill-opacity:1;stroke-width:1.5"
               d="M 88.993517,145.81621 A 11.586412,12.695749 0 0 1 77.407104,158.51196 11.586412,12.695749 0 0 1 65.820692,145.81621 11.586412,12.695749 0 0 1 77.407104,133.12046 11.586412,12.695749 0 0 1 88.993517,145.81621 Z" />
          </g>
        </g>
      </g>
      <g
         id="g16-9-6-4"
         transform="rotate(-15.393301,211.16026,145.05927)">
        <path
           style="fill:#b47d5f;fill-opacity:1;stroke:#dcaa78;stroke-width:0.677306;stroke-opacity:1"
           d="m 172.14595,133.80596 1.44574,11.88186 4.56532,-1.20337 -3.97224,-11.35533 z"
           id="path10-2-5-2-8" />
        <ellipse
           style="fill:#a0d29b;fill-opacity:1;stroke:#dcaa78;stroke-width:0.772246;stroke-dasharray:none;stroke-opacity:1"
           id="path11-2-0-9-0"
           cx="134.28239"
           cy="160.74638"
           rx="10.28272"
           ry="10.11953"
           transform="matrix(0.97270448,-0.23204741,0.24751873,0.96888311,0,0)" />
        <ellipse
           style="fill:#ffe682;fill-opacity:1;stroke:none;stroke-width:0.702337;stroke-dasharray:none;stroke-opacity:1"
           id="path11-0-8-4-9-4"
           cx="134.76668"
           cy="160.3208"
           rx="9.2971554"
           ry="9.2576141"
           transform="matrix(0.97270448,-0.23204741,0.24751873,0.96888311,0,0)" />
      </g>
      <g
         id="g28"
         transform="rotate(79.747389,209.60892,186.75567)">
        <g
           id="g16-9"
           transform="rotate(8.3806561,191.25587,280.99884)">
          <path
             style="fill:#b47d5f;fill-opacity:1;stroke:#dcaa78;stroke-width:0.677306;stroke-opacity:1"
             d="m 172.14595,133.80596 1.44574,11.88186 4.56532,-1.20337 -3.97224,-11.35533 z"
             id="path10-2-5" />
          <ellipse
             style="fill:#a0d29b;fill-opacity:1;stroke:#dcaa78;stroke-width:0.772246;stroke-dasharray:none;stroke-opacity:1"
             id="path11-2-0"
             cx="134.28239"
             cy="160.74638"
             rx="10.28272"
             ry="10.11953"
             transform="matrix(0.97270448,-0.23204741,0.24751873,0.96888311,0,0)" />
          <ellipse
             style="fill:#ffe682;fill-opacity:1;stroke:none;stroke-width:0.702337;stroke-dasharray:none;stroke-opacity:1"
             id="path11-0-8-4"
             cx="134.76668"
             cy="160.3208"
             rx="9.2971554"
             ry="9.2576141"
             transform="matrix(0.97270448,-0.23204741,0.24751873,0.96888311,0,0)" />
        </g>
        <g
           id="g14-5-1"
           transform="matrix(0.56082507,-0.49650317,0.41478415,0.48359459,3.0175114,188.63857)">
          <g
             id="g12-6-6-9"
             style="fill:#dcaa78;fill-opacity:1"
             transform="matrix(0.7300247,-0.04648633,0.05439943,0.72726431,96.595209,38.393826)">
            <g
               id="g8-1-1-3-6"
               style="fill:#dcaa78;fill-opacity:1"
               transform="matrix(0.61866643,0,0,0.61866643,98.105155,55.052373)">
              <path
                 id="rect5-2-5-9-9"
                 style="fill:#dcaa78;fill-opacity:1;stroke-width:1.5"
                 d="m 44.743274,149.14424 h 41.9083 c 2.663149,0 4.807128,2.14398 4.807128,4.80713 0,2.66315 -2.143979,4.80713 -4.807128,4.80713 h -41.9083 c -2.663149,0 -4.807128,-2.14398 -4.807128,-4.80713 0,-2.66315 2.143979,-4.80713 4.807128,-4.80713 z" />
              <path
                 id="path6-9-5-4-3"
                 style="fill:#dcaa78;fill-opacity:1;stroke-width:1.57914"
                 d="m 59.904216,148.28142 a 7.8886213,8.7514391 0 0 1 -7.888622,8.75144 7.8886213,8.7514391 0 0 1 -7.888621,-8.75144 7.8886213,8.7514391 0 0 1 7.888621,-8.75144 7.8886213,8.7514391 0 0 1 7.888622,8.75144 z" />
              <path
                 id="path7-3-4-8-3"
                 style="fill:#dcaa78;fill-opacity:1;stroke-width:2.17077"
                 d="m 70.751071,143.22777 a 9.1212187,14.051607 0 0 1 -9.121219,14.05161 9.1212187,14.051607 0 0 1 -9.121218,-14.05161 9.1212187,14.051607 0 0 1 9.121218,-14.05161 9.1212187,14.051607 0 0 1 9.121219,14.05161 z" />
              <path
                 id="path8-1-7-1-8"
                 style="fill:#dcaa78;fill-opacity:1;stroke-width:1.5"
                 d="M 88.993517,145.81621 A 11.586412,12.695749 0 0 1 77.407104,158.51196 11.586412,12.695749 0 0 1 65.820692,145.81621 11.586412,12.695749 0 0 1 77.407104,133.12046 11.586412,12.695749 0 0 1 88.993517,145.81621 Z" />
            </g>
          </g>
          <g
             id="g12-4-6-2-0"
             transform="matrix(0.67486972,-0.04297419,0.04874819,0.651713,104.98817,48.871353)"
             style="fill:#dceb8c;fill-opacity:1">
            <g
               id="g8-1-5-5-9-5"
               style="fill:#dceb8c;fill-opacity:1"
               transform="matrix(0.61866643,0,0,0.61866643,98.105155,55.052373)">
              <path
                 id="rect5-2-0-6-3-6"
                 style="fill:#dceb8c;fill-opacity:1;stroke-width:1.5"
                 d="m 44.743274,149.14424 h 41.9083 c 2.663149,0 4.807128,2.14398 4.807128,4.80713 0,2.66315 -2.143979,4.80713 -4.807128,4.80713 h -41.9083 c -2.663149,0 -4.807128,-2.14398 -4.807128,-4.80713 0,-2.66315 2.143979,-4.80713 4.807128,-4.80713 z" />
              <path
                 id="path6-9-3-9-9-6"
                 style="fill:#dceb8c;fill-opacity:1;stroke-width:1.57914"
                 d="m 59.904216,148.28142 a 7.8886213,8.7514391 0 0 1 -7.888622,8.75144 7.8886213,8.7514391 0 0 1 -7.888621,-8.75144 7.8886213,8.7514391 0 0 1 7.888621,-8.75144 7.8886213,8.7514391 0 0 1 7.888622,8.75144 z" />
              <path
                 id="path7-3-6-3-0-4"
                 style="fill:#dceb8c;fill-opacity:1;stroke-width:2.17077"
                 d="m 70.751071,143.22777 a 9.1212187,14.051607 0 0 1 -9.121219,14.05161 9.1212187,14.051607 0 0 1 -9.121218,-14.05161 9.1212187,14.051607 0 0 1 9.121218,-14.05161 9.1212187,14.051607 0 0 1 9.121219,14.05161 z" />
              <path
                 id="path8-1-1-7-8-0"
                 style="fill:#dceb8c;fill-opacity:1;stroke-width:1.5"
                 d="M 88.993517,145.81621 A 11.586412,12.695749 0 0 1 77.407104,158.51196 11.586412,12.695749 0 0 1 65.820692,145.81621 11.586412,12.695749 0 0 1 77.407104,133.12046 11.586412,12.695749 0 0 1 88.993517,145.81621 Z" />
            </g>
          </g>
        </g>
        <g
           id="g26"
           transform="rotate(69.380664,209.87745,187.48321)">
          <g
             id="g23"
             transform="rotate(-26.301633,226.66804,284.74568)">
            <g
               id="g12-6-7-3-4-1"
               style="fill:#dcaa78;fill-opacity:1"
               transform="matrix(-0.56221392,0.01713836,0.05896988,0.49822632,322.9277,65.77915)">
              <g
                 id="g8-1-1-4-8-4-8"
                 style="fill:#dcaa78;fill-opacity:1"
                 transform="matrix(0.61866643,0,0,0.61866643,98.105155,55.052373)">
                <path
                   id="rect5-2-5-4-5-7-5"
                   style="fill:#dcaa78;fill-opacity:1;stroke-width:1.5"
                   d="m 44.743274,149.14424 h 41.9083 c 2.663149,0 4.807128,2.14398 4.807128,4.80713 0,2.66315 -2.143979,4.80713 -4.807128,4.80713 h -41.9083 c -2.663149,0 -4.807128,-2.14398 -4.807128,-4.80713 0,-2.66315 2.143979,-4.80713 4.807128,-4.80713 z" />
                <path
                   id="path6-9-5-3-6-6-9"
                   style="fill:#dcaa78;fill-opacity:1;stroke-width:1.57914"
                   d="m 59.904216,148.28142 a 7.8886213,8.7514391 0 0 1 -7.888622,8.75144 7.8886213,8.7514391 0 0 1 -7.888621,-8.75144 7.8886213,8.7514391 0 0 1 7.888621,-8.75144 7.8886213,8.7514391 0 0 1 7.888622,8.75144 z" />
                <path
                   id="path7-3-4-0-1-3-7"
                   style="fill:#dcaa78;fill-opacity:1;stroke-width:2.17077"
                   d="m 70.751071,143.22777 a 9.1212187,14.051607 0 0 1 -9.121219,14.05161 9.1212187,14.051607 0 0 1 -9.121218,-14.05161 9.1212187,14.051607 0 0 1 9.121218,-14.05161 9.1212187,14.051607 0 0 1 9.121219,14.05161 z" />
                <path
                   id="path8-1-7-7-1-1-5"
                   style="fill:#dcaa78;fill-opacity:1;stroke-width:1.5"
                   d="M 88.993517,145.81621 A 11.586412,12.695749 0 0 1 77.407104,158.51196 11.586412,12.695749 0 0 1 65.820692,145.81621 11.586412,12.695749 0 0 1 77.407104,133.12046 11.586412,12.695749 0 0 1 88.993517,145.81621 Z" />
              </g>
            </g>
            <g
               id="g12-4-6-8-5-7-3"
               transform="matrix(-0.51973741,0.01584351,0.05284383,0.44646845,317.98405,73.46514)"
               style="fill:#fa9b96;fill-opacity:1">
              <g
                 id="g8-1-5-5-6-9-5-8"
                 style="fill:#fa9b96;fill-opacity:1"
                 transform="matrix(0.61866643,0,0,0.61866643,98.105155,55.052373)">
                <path
                   id="rect5-2-0-6-8-8-9-8"
                   style="fill:#fa9b96;fill-opacity:1;stroke-width:1.5"
                   d="m 44.743274,149.14424 h 41.9083 c 2.663149,0 4.807128,2.14398 4.807128,4.80713 0,2.66315 -2.143979,4.80713 -4.807128,4.80713 h -41.9083 c -2.663149,0 -4.807128,-2.14398 -4.807128,-4.80713 0,-2.66315 2.143979,-4.80713 4.807128,-4.80713 z" />
                <path
                   id="path6-9-3-9-8-4-6-3"
                   style="fill:#fa9b96;fill-opacity:1;stroke-width:1.57914"
                   d="m 59.904216,148.28142 a 7.8886213,8.7514391 0 0 1 -7.888622,8.75144 7.8886213,8.7514391 0 0 1 -7.888621,-8.75144 7.8886213,8.7514391 0 0 1 7.888621,-8.75144 7.8886213,8.7514391 0 0 1 7.888622,8.75144 z" />
                <path
                   id="path7-3-6-3-4-8-2-1"
                   style="fill:#fa9b96;fill-opacity:1;stroke-width:2.17077"
                   d="m 70.751071,143.22777 a 9.1212187,14.051607 0 0 1 -9.121219,14.05161 9.1212187,14.051607 0 0 1 -9.121218,-14.05161 9.1212187,14.051607 0 0 1 9.121218,-14.05161 9.1212187,14.051607 0 0 1 9.121219,14.05161 z" />
                <path
                   id="path8-1-1-7-3-1-1-8"
                   style="fill:#fa9b96;fill-opacity:1;stroke-width:1.5"
                   d="M 88.993517,145.81621 A 11.586412,12.695749 0 0 1 77.407104,158.51196 11.586412,12.695749 0 0 1 65.820692,145.81621 11.586412,12.695749 0 0 1 77.407104,133.12046 11.586412,12.695749 0 0 1 88.993517,145.81621 Z" />
              </g>
            </g>
          </g>
          <g
             id="g24"
             transform="rotate(-3.8673331,628.05798,2101.7517)">
            <path
               style="fill:#b47d5f;fill-opacity:1;stroke:#dcaa78;stroke-width:0.877116;stroke-opacity:1"
               d="m 327.02921,104.10709 -1.39659,15.68631 6.01786,-0.36519 -1.89619,-15.66386 z"
               id="path10-9-3" />
            <ellipse
               style="fill:#dce18c;fill-opacity:1;stroke:#dcaa78;stroke-width:1;stroke-dasharray:none;stroke-opacity:1"
               id="path11-7-8"
               cx="323.78583"
               cy="103.61962"
               rx="13.125665"
               ry="13.293405"
               transform="rotate(-2.084765)" />
            <ellipse
               style="fill:#ffcdc8;fill-opacity:1;stroke:none;stroke-width:0.909474;stroke-dasharray:none;stroke-opacity:1"
               id="path11-0-7-6"
               cx="324.40399"
               cy="103.06055"
               rx="11.867614"
               ry="12.161159"
               transform="rotate(-2.084765)" />
          </g>
          <g
             id="g13-2"
             transform="matrix(0.22874952,-0.69481702,0.69520239,0.22037764,30.283153,234.7937)">
            <g
               id="g12-7"
               style="fill:#dcaa78;fill-opacity:1">
              <g
                 id="g8-1-2"
                 style="fill:#dcaa78;fill-opacity:1"
                 transform="matrix(0.61866643,0,0,0.61866643,98.105155,55.052373)">
                <path
                   id="rect5-2-2"
                   style="fill:#dcaa78;fill-opacity:1;stroke-width:1.5"
                   d="m 44.743274,149.14424 h 41.9083 c 2.663149,0 4.807128,2.14398 4.807128,4.80713 0,2.66315 -2.143979,4.80713 -4.807128,4.80713 h -41.9083 c -2.663149,0 -4.807128,-2.14398 -4.807128,-4.80713 0,-2.66315 2.143979,-4.80713 4.807128,-4.80713 z" />
                <path
                   id="path6-9-6"
                   style="fill:#dcaa78;fill-opacity:1;stroke-width:1.57914"
                   d="m 59.904216,148.28142 a 7.8886213,8.7514391 0 0 1 -7.888622,8.75144 7.8886213,8.7514391 0 0 1 -7.888621,-8.75144 7.8886213,8.7514391 0 0 1 7.888621,-8.75144 7.8886213,8.7514391 0 0 1 7.888622,8.75144 z" />
                <path
                   id="path7-3-1"
                   style="fill:#dcaa78;fill-opacity:1;stroke-width:2.17077"
                   d="m 70.751071,143.22777 a 9.1212187,14.051607 0 0 1 -9.121219,14.05161 9.1212187,14.051607 0 0 1 -9.121218,-14.05161 9.1212187,14.051607 0 0 1 9.121218,-14.05161 9.1212187,14.051607 0 0 1 9.121219,14.05161 z" />
                <path
                   id="path8-1-0"
                   style="fill:#dcaa78;fill-opacity:1;stroke-width:1.5"
                   d="M 88.993517,145.81621 A 11.586412,12.695749 0 0 1 77.407104,158.51196 11.586412,12.695749 0 0 1 65.820692,145.81621 11.586412,12.695749 0 0 1 77.407104,133.12046 11.586412,12.695749 0 0 1 88.993517,145.81621 Z" />
              </g>
            </g>
            <g
               id="g12-4-61"
               transform="matrix(0.92444779,0,0,0.89611575,10.373847,15.069857)"
               style="fill:#ffe682;fill-opacity:1">
              <g
                 id="g8-1-5-59"
                 style="fill:#ffe682;fill-opacity:1"
                 transform="matrix(0.61866643,0,0,0.61866643,98.105155,55.052373)">
                <path
                   id="rect5-2-0-4"
                   style="fill:#ffe682;fill-opacity:1;stroke-width:1.5"
                   d="m 44.743274,149.14424 h 41.9083 c 2.663149,0 4.807128,2.14398 4.807128,4.80713 0,2.66315 -2.143979,4.80713 -4.807128,4.80713 h -41.9083 c -2.663149,0 -4.807128,-2.14398 -4.807128,-4.80713 0,-2.66315 2.143979,-4.80713 4.807128,-4.80713 z" />
                <path
                   id="path6-9-3-90"
                   style="fill:#ffe682;fill-opacity:1;stroke-width:1.57914"
                   d="m 59.904216,148.28142 a 7.8886213,8.7514391 0 0 1 -7.888622,8.75144 7.8886213,8.7514391 0 0 1 -7.888621,-8.75144 7.8886213,8.7514391 0 0 1 7.888621,-8.75144 7.8886213,8.7514391 0 0 1 7.888622,8.75144 z" />
                <path
                   id="path7-3-6-9"
                   style="fill:#ffe682;fill-opacity:1;stroke-width:2.17077"
                   d="m 70.751071,143.22777 a 9.1212187,14.051607 0 0 1 -9.121219,14.05161 9.1212187,14.051607 0 0 1 -9.121218,-14.05161 9.1212187,14.051607 0 0 1 9.121218,-14.05161 9.1212187,14.051607 0 0 1 9.121219,14.05161 z" />
                <path
                   id="path8-1-1-1"
                   style="fill:#ffe682;fill-opacity:1;stroke-width:1.5"
                   d="M 88.993517,145.81621 A 11.586412,12.695749 0 0 1 77.407104,158.51196 11.586412,12.695749 0 0 1 65.820692,145.81621 11.586412,12.695749 0 0 1 77.407104,133.12046 11.586412,12.695749 0 0 1 88.993517,145.81621 Z" />
              </g>
            </g>
          </g>
          <g
             id="g20"
             transform="rotate(-0.33793922,210.29443,187.51216)">
            <g
               id="g14"
               transform="matrix(0.05300285,1.1821341,-1.2195999,0.05468269,417.55944,-69.609985)">
              <g
                 id="g12-6"
                 style="fill:#dcaa78;fill-opacity:1"
                 transform="matrix(0.7300247,-0.04648633,0.05439943,0.72726431,96.595209,38.393826)">
                <g
                   id="g8-1-1"
                   style="fill:#dcaa78;fill-opacity:1"
                   transform="matrix(0.61866643,0,0,0.61866643,98.105155,55.052373)">
                  <path
                     id="rect5-2-5"
                     style="fill:#dcaa78;fill-opacity:1;stroke-width:1.5"
                     d="m 44.743274,149.14424 h 41.9083 c 2.663149,0 4.807128,2.14398 4.807128,4.80713 0,2.66315 -2.143979,4.80713 -4.807128,4.80713 h -41.9083 c -2.663149,0 -4.807128,-2.14398 -4.807128,-4.80713 0,-2.66315 2.143979,-4.80713 4.807128,-4.80713 z" />
                  <path
                     id="path6-9-5"
                     style="fill:#dcaa78;fill-opacity:1;stroke-width:1.57914"
                     d="m 59.904216,148.28142 a 7.8886213,8.7514391 0 0 1 -7.888622,8.75144 7.8886213,8.7514391 0 0 1 -7.888621,-8.75144 7.8886213,8.7514391 0 0 1 7.888621,-8.75144 7.8886213,8.7514391 0 0 1 7.888622,8.75144 z" />
                  <path
                     id="path7-3-4"
                     style="fill:#dcaa78;fill-opacity:1;stroke-width:2.17077"
                     d="m 70.751071,143.22777 a 9.1212187,14.051607 0 0 1 -9.121219,14.05161 9.1212187,14.051607 0 0 1 -9.121218,-14.05161 9.1212187,14.051607 0 0 1 9.121218,-14.05161 9.1212187,14.051607 0 0 1 9.121219,14.05161 z" />
                  <path
                     id="path8-1-7"
                     style="fill:#dcaa78;fill-opacity:1;stroke-width:1.5"
                     d="M 88.993517,145.81621 A 11.586412,12.695749 0 0 1 77.407104,158.51196 11.586412,12.695749 0 0 1 65.820692,145.81621 11.586412,12.695749 0 0 1 77.407104,133.12046 11.586412,12.695749 0 0 1 88.993517,145.81621 Z" />
                </g>
              </g>
              <g
                 id="g12-4-6"
                 transform="matrix(0.67486972,-0.04297419,0.04874819,0.651713,104.98817,48.871353)"
                 style="fill:#dceb8c;fill-opacity:1">
                <g
                   id="g8-1-5-5"
                   style="fill:#dceb8c;fill-opacity:1"
                   transform="matrix(0.61866643,0,0,0.61866643,98.105155,55.052373)">
                  <path
                     id="rect5-2-0-6"
                     style="fill:#dceb8c;fill-opacity:1;stroke-width:1.5"
                     d="m 44.743274,149.14424 h 41.9083 c 2.663149,0 4.807128,2.14398 4.807128,4.80713 0,2.66315 -2.143979,4.80713 -4.807128,4.80713 h -41.9083 c -2.663149,0 -4.807128,-2.14398 -4.807128,-4.80713 0,-2.66315 2.143979,-4.80713 4.807128,-4.80713 z" />
                  <path
                     id="path6-9-3-9"
                     style="fill:#dceb8c;fill-opacity:1;stroke-width:1.57914"
                     d="m 59.904216,148.28142 a 7.8886213,8.7514391 0 0 1 -7.888622,8.75144 7.8886213,8.7514391 0 0 1 -7.888621,-8.75144 7.8886213,8.7514391 0 0 1 7.888621,-8.75144 7.8886213,8.7514391 0 0 1 7.888622,8.75144 z" />
                  <path
                     id="path7-3-6-3"
                     style="fill:#dceb8c;fill-opacity:1;stroke-width:2.17077"
                     d="m 70.751071,143.22777 a 9.1212187,14.051607 0 0 1 -9.121219,14.05161 9.1212187,14.051607 0 0 1 -9.121218,-14.05161 9.1212187,14.051607 0 0 1 9.121218,-14.05161 9.1212187,14.051607 0 0 1 9.121219,14.05161 z" />
                  <path
                     id="path8-1-1-7"
                     style="fill:#dceb8c;fill-opacity:1;stroke-width:1.5"
                     d="M 88.993517,145.81621 A 11.586412,12.695749 0 0 1 77.407104,158.51196 11.586412,12.695749 0 0 1 65.820692,145.81621 11.586412,12.695749 0 0 1 77.407104,133.12046 11.586412,12.695749 0 0 1 88.993517,145.81621 Z" />
                </g>
              </g>
            </g>
            <g
               id="g17"
               transform="rotate(80.653486,207.69559,189.78881)">
              <g
                 id="g12-6-7"
                 style="fill:#dcaa78;fill-opacity:1"
                 transform="matrix(0.29449734,-0.55569426,0.52287522,0.32834783,43.770062,196.05496)">
                <g
                   id="g8-1-1-4"
                   style="fill:#dcaa78;fill-opacity:1"
                   transform="matrix(0.61866643,0,0,0.61866643,98.105155,55.052373)">
                  <path
                     id="rect5-2-5-4"
                     style="fill:#dcaa78;fill-opacity:1;stroke-width:1.5"
                     d="m 44.743274,149.14424 h 41.9083 c 2.663149,0 4.807128,2.14398 4.807128,4.80713 0,2.66315 -2.143979,4.80713 -4.807128,4.80713 h -41.9083 c -2.663149,0 -4.807128,-2.14398 -4.807128,-4.80713 0,-2.66315 2.143979,-4.80713 4.807128,-4.80713 z" />
                  <path
                     id="path6-9-5-3"
                     style="fill:#dcaa78;fill-opacity:1;stroke-width:1.57914"
                     d="m 59.904216,148.28142 a 7.8886213,8.7514391 0 0 1 -7.888622,8.75144 7.8886213,8.7514391 0 0 1 -7.888621,-8.75144 7.8886213,8.7514391 0 0 1 7.888621,-8.75144 7.8886213,8.7514391 0 0 1 7.888622,8.75144 z" />
                  <path
                     id="path7-3-4-0"
                     style="fill:#dcaa78;fill-opacity:1;stroke-width:2.17077"
                     d="m 70.751071,143.22777 a 9.1212187,14.051607 0 0 1 -9.121219,14.05161 9.1212187,14.051607 0 0 1 -9.121218,-14.05161 9.1212187,14.051607 0 0 1 9.121218,-14.05161 9.1212187,14.051607 0 0 1 9.121219,14.05161 z" />
                  <path
                     id="path8-1-7-7"
                     style="fill:#dcaa78;fill-opacity:1;stroke-width:1.5"
                     d="M 88.993517,145.81621 A 11.586412,12.695749 0 0 1 77.407104,158.51196 11.586412,12.695749 0 0 1 65.820692,145.81621 11.586412,12.695749 0 0 1 77.407104,133.12046 11.586412,12.695749 0 0 1 88.993517,145.81621 Z" />
                </g>
              </g>
              <g
                 id="g12-4-6-8"
                 transform="matrix(0.27224741,-0.51371033,0.46855672,0.29423765,54.70479,195.23842)"
                 style="fill:#a0d2a0;fill-opacity:1">
                <g
                   id="g8-1-5-5-6"
                   style="fill:#a0d2a0;fill-opacity:1"
                   transform="matrix(0.61866643,0,0,0.61866643,98.105155,55.052373)">
                  <path
                     id="rect5-2-0-6-8"
                     style="fill:#a0d2a0;fill-opacity:1;stroke-width:1.5"
                     d="m 44.743274,149.14424 h 41.9083 c 2.663149,0 4.807128,2.14398 4.807128,4.80713 0,2.66315 -2.143979,4.80713 -4.807128,4.80713 h -41.9083 c -2.663149,0 -4.807128,-2.14398 -4.807128,-4.80713 0,-2.66315 2.143979,-4.80713 4.807128,-4.80713 z" />
                  <path
                     id="path6-9-3-9-8"
                     style="fill:#a0d2a0;fill-opacity:1;stroke-width:1.57914"
                     d="m 59.904216,148.28142 a 7.8886213,8.7514391 0 0 1 -7.888622,8.75144 7.8886213,8.7514391 0 0 1 -7.888621,-8.75144 7.8886213,8.7514391 0 0 1 7.888621,-8.75144 7.8886213,8.7514391 0 0 1 7.888622,8.75144 z" />
                  <path
                     id="path7-3-6-3-4"
                     style="fill:#a0d2a0;fill-opacity:1;stroke-width:2.17077"
                     d="m 70.751071,143.22777 a 9.1212187,14.051607 0 0 1 -9.121219,14.05161 9.1212187,14.051607 0 0 1 -9.121218,-14.05161 9.1212187,14.051607 0 0 1 9.121218,-14.05161 9.1212187,14.051607 0 0 1 9.121219,14.05161 z" />
                  <path
                     id="path8-1-1-7-3"
                     style="fill:#a0d2a0;fill-opacity:1;stroke-width:1.5"
                     d="M 88.993517,145.81621 A 11.586412,12.695749 0 0 1 77.407104,158.51196 11.586412,12.695749 0 0 1 65.820692,145.81621 11.586412,12.695749 0 0 1 77.407104,133.12046 11.586412,12.695749 0 0 1 88.993517,145.81621 Z" />
                </g>
              </g>
            </g>
            <ellipse
               style="fill:#aadca5;fill-opacity:1;stroke:#dcaa78;stroke-width:1.5;stroke-opacity:1"
               id="path9-36"
               cx="219.18195"
               cy="-176.42023"
               rx="46.099133"
               ry="45.482834"
               transform="rotate(80.653486)" />
            <g
               id="g15"
               transform="rotate(80.653486,207.69559,189.78881)">
              <path
                 style="fill:#b47d5f;fill-opacity:1;stroke:#dcaa78;stroke-width:0.877116;stroke-opacity:1"
                 d="m 185.96979,129.70622 1.46435,15.68013 5.85248,-1.44789 -4.69873,-15.06233 z"
                 id="path10" />
              <ellipse
                 style="fill:#a0d29b;fill-opacity:1;stroke:#dcaa78;stroke-width:1;stroke-dasharray:none;stroke-opacity:1"
                 id="path11"
                 cx="154.22542"
                 cy="154.58868"
                 rx="13.125665"
                 ry="13.293405"
                 transform="rotate(-12.507846)" />
              <ellipse
                 style="fill:#dceb8c;fill-opacity:1;stroke:none;stroke-width:0.909474;stroke-dasharray:none;stroke-opacity:1"
                 id="path11-0"
                 cx="154.8436"
                 cy="154.02962"
                 rx="11.867614"
                 ry="12.161159"
                 transform="rotate(-12.507846)" />
            </g>
          </g>
        </g>
      </g>
    </g>
  </g>
</svg>
