<?xml version="1.0" encoding="UTF-8" standalone="no"?>
<!-- Created with Inkscape (http://www.inkscape.org/) -->

<svg
   width="79.974319mm"
   height="94.28566mm"
   viewBox="0 0 79.974319 94.28566"
   version="1.1"
   id="svg1"
   xml:space="preserve"
   xmlns="http://www.w3.org/2000/svg"
   xmlns:svg="http://www.w3.org/2000/svg"><defs
     id="defs1" /><g
     id="layer1"
     transform="translate(-485.28612,-724.70844)"><g
       id="g266"
       transform="matrix(0.82902726,0,0,0.84166414,322.74445,430.2299)">
		<path
   style="fill:#f6f6f6"
   d="m 239.397,399.596 c -0.797,0.3 -1.576,0.647 -2.345,1.013 -0.657,-1.529 -2.626,-2.833 -3.836,-3.611 -0.919,-0.591 -1.913,-1.107 -2.955,-1.482 -1.435,-0.507 -2.335,-0.263 -3.77,-0.366 -0.394,-0.028 -0.46,0.572 -0.094,0.675 0.788,0.225 1.782,0.919 2.542,1.276 1.013,0.469 1.998,1.004 2.908,1.641 1.032,0.732 1.951,2.101 3.02,2.992 -0.291,0.159 -0.581,0.319 -0.872,0.488 -0.216,-0.31 -0.553,-0.553 -1.022,-0.61 -12.015,-1.557 -25.962,-6.5 -30.221,-19.115 -1.96,-5.834 -1.097,-12.925 3.348,-17.446 4.596,-4.671 12.381,-5.074 17.287,-0.722 0.685,0.6 1.501,0.535 2.092,0.15 -0.657,3.208 -0.732,6.575 -0.338,9.708 1.265,9.905 6.78,18.919 14.256,25.409 z"
   id="path259" />
		<path
   style="fill:#f6f6f6"
   d="m 257.64,366.712 c 3.255,10.308 -0.478,20.963 -3.517,30.812 -0.037,0.131 -0.056,0.253 -0.075,0.375 -1.613,-0.244 -3.217,-0.319 -4.802,-0.272 -0.591,-2.973 -0.516,-5.89 0.553,-8.854 0.478,-1.332 -1.792,-1.979 -2.129,-0.591 -0.778,3.18 -0.863,6.425 -0.019,9.53 -0.507,0.038 -1.013,0.084 -1.51,0.15 -1.06,-4.136 -3.067,-7.672 -5.797,-11.058 -0.807,-0.994 -2.373,0.497 -1.426,1.426 2.767,2.711 4.727,6.172 5.937,9.839 -0.863,0.159 -1.717,0.347 -2.561,0.582 -6.341,-5.571 -11.096,-12.728 -13.188,-21.001 -1.895,-7.504 -1.163,-18.224 6.266,-22.623 9.38,-5.564 19.482,2.887 22.268,11.685 z"
   id="path260" />
		<path
   style="fill:#3c3c3b"
   d="m 292.007,422.295 c 0.985,7.663 0.91,16.967 -3.161,23.814 -3.461,5.834 -9.67,9.192 -15.908,11.312 -14.707,4.999 -33.691,7.616 -47.104,-2.035 -5.45,-3.921 -8.714,-8.789 -10.214,-14.013 -0.047,0.019 -0.084,0.047 -0.141,0.056 -5.693,0.882 -12.109,-0.338 -17.849,-0.675 -1.791,-0.103 -2.195,-2.608 -0.431,-3.142 5.74,-1.735 11.602,-3.151 17.455,-4.465 0.385,-10.946 7.007,-22.173 16.433,-29.001 -14.707,-1.913 -32.172,-9.52 -32.988,-26.553 -0.347,-7.128 2.964,-14.707 9.52,-18.037 6.022,-3.058 13.216,-2.204 18.177,2.373 0.103,0.094 0.188,0.197 0.263,0.31 1.416,-4.624 4.211,-8.686 8.826,-10.862 9.342,-4.418 20.044,1.51 24.396,10.092 5.693,11.255 2.523,24.255 -1.229,35.633 0.403,-0.356 1.013,-0.272 1.313,0.131 16.012,-2.326 30.606,9.051 32.642,25.062 z m -3.612,9.689 c 0.375,-8.423 -0.694,-17.033 -6.763,-23.364 -5.346,-5.571 -13.075,-8.451 -20.729,-7.654 -0.112,0.384 -0.413,0.694 -0.957,0.656 -0.338,-0.019 -0.685,-0.028 -1.022,-0.047 -1.276,8.676 -1.276,17.483 0.929,26.038 1.21,4.708 3.001,9.248 5.337,13.507 2.307,4.211 5.468,7.682 8.141,11.621 0.066,0.113 0.113,0.216 0.141,0.328 0.572,-0.225 1.163,-0.45 1.726,-0.694 8.883,-3.911 12.775,-10.824 13.197,-20.391 z m -26.131,10.993 c -0.253,-0.46 -0.497,-0.919 -0.732,-1.388 -0.066,0.15 -0.15,0.281 -0.253,0.394 0.225,0.431 0.46,0.854 0.685,1.285 0.094,-0.104 0.187,-0.207 0.3,-0.291 z m -8.141,-45.453 c 3.039,-9.849 6.772,-20.504 3.517,-30.812 -2.786,-8.798 -12.887,-17.249 -22.267,-11.687 -7.429,4.399 -8.16,15.12 -6.266,22.623 2.092,8.273 6.847,15.429 13.188,21.001 0.844,-0.234 1.698,-0.422 2.561,-0.582 -1.21,-3.667 -3.17,-7.128 -5.937,-9.839 -0.947,-0.929 0.619,-2.42 1.426,-1.426 2.729,3.386 4.737,6.922 5.797,11.058 0.497,-0.066 1.004,-0.112 1.51,-0.15 -0.844,-3.105 -0.76,-6.35 0.019,-9.53 0.338,-1.388 2.607,-0.741 2.129,0.591 -1.069,2.964 -1.144,5.881 -0.553,8.854 1.585,-0.047 3.189,0.028 4.802,0.272 0.017,-0.12 0.036,-0.242 0.074,-0.373 z m 1.285,40.219 c -0.338,-0.694 -0.675,-1.379 -1.004,-2.073 0.234,0.675 0.46,1.351 0.722,2.007 0.094,0.01 0.188,0.029 0.282,0.066 z m 7.71,18.45 c -7.147,-6.725 -11.715,-15.87 -13.863,-25.409 -1.191,-5.309 -1.623,-10.815 -1.229,-16.236 0.3,-4.052 0.713,-9.098 2.57,-12.953 -2.954,0.197 -5.853,0.656 -8.685,1.491 -7.316,18.525 -3.302,39.234 8.789,54.739 4.051,-0.207 8.272,-0.732 12.418,-1.632 z M 247.81,457.9 c -0.356,-0.403 -0.694,-0.825 -1.041,-1.238 0.047,0.3 0.009,0.628 -0.15,0.966 -0.038,0.084 -0.084,0.15 -0.131,0.225 0.44,0.018 0.881,0.047 1.322,0.047 z m -10.758,-57.291 c 0.769,-0.366 1.548,-0.713 2.345,-1.013 -7.475,-6.491 -12.991,-15.504 -14.257,-25.409 -0.394,-3.133 -0.319,-6.5 0.338,-9.708 -0.591,0.384 -1.407,0.45 -2.092,-0.15 -4.906,-4.352 -12.691,-3.949 -17.287,0.722 -4.446,4.521 -5.309,11.612 -3.348,17.446 4.258,12.615 18.206,17.558 30.221,19.115 0.469,0.056 0.807,0.3 1.022,0.61 0.291,-0.169 0.581,-0.328 0.872,-0.488 -1.069,-0.891 -1.988,-2.26 -3.02,-2.992 -0.91,-0.638 -1.895,-1.172 -2.908,-1.641 -0.76,-0.356 -1.754,-1.051 -2.542,-1.276 -0.366,-0.103 -0.3,-0.703 0.094,-0.675 1.435,0.103 2.335,-0.141 3.77,0.366 1.041,0.375 2.035,0.891 2.955,1.482 1.211,0.779 3.18,2.083 3.837,3.611 z m -8.845,51.654 c 3.527,2.514 7.588,4.08 11.837,4.896 -12.794,-12.55 -13.807,-34.592 -6.444,-50.237 -5.046,3.311 -9.126,8.038 -11.734,13.478 0.253,0.197 0.45,0.488 0.488,0.891 0.563,5.609 -0.178,11.002 0.976,16.658 1.013,5.018 2.804,9.671 4.877,14.314 z"
   id="path261" />
		<path
   style="fill:#ffe533"
   d="m 281.633,408.62 c 6.069,6.331 7.138,14.942 6.763,23.364 -0.422,9.567 -4.315,16.48 -13.197,20.391 -0.563,0.244 -1.154,0.469 -1.726,0.694 -0.028,-0.112 -0.075,-0.216 -0.141,-0.328 -2.673,-3.939 -5.834,-7.41 -8.141,-11.621 -2.336,-4.258 -4.127,-8.798 -5.337,-13.507 -2.204,-8.554 -2.204,-17.361 -0.929,-26.038 0.338,0.019 0.685,0.028 1.022,0.047 0.544,0.038 0.844,-0.272 0.957,-0.656 7.654,-0.797 15.382,2.082 20.729,7.654 z m -6.604,18.402 c 0.009,2.683 4.362,2.092 3.602,-0.488 -0.713,-2.401 -1.013,-4.905 -1.735,-7.307 -0.375,-1.238 -2.279,-1.022 -2.279,0.31 -0.019,2.505 0.412,4.99 0.412,7.485 z m -4.943,2.242 c 0.732,-0.291 1.576,-1.004 1.454,-1.913 -0.31,-2.41 -0.657,-4.849 -1.238,-7.213 -0.347,-1.398 -2.167,-0.919 -2.317,0.31 -0.291,2.289 -0.366,4.605 -0.394,6.903 -0.019,0.844 0.619,1.707 1.444,1.913 0.367,0.084 0.705,0.131 1.051,0 z"
   id="path262" />
		<path
   style="fill:#3c3c3b"
   d="m 278.631,426.534 c 0.76,2.579 -3.592,3.17 -3.602,0.488 0,-2.495 -0.431,-4.98 -0.413,-7.485 0,-1.332 1.904,-1.548 2.279,-0.31 0.723,2.402 1.023,4.906 1.736,7.307 z"
   id="path263" />
		<path
   style="fill:#3c3c3b"
   d="m 271.54,427.35 c 0.122,0.91 -0.722,1.623 -1.454,1.913 -0.347,0.131 -0.685,0.084 -1.05,0 -0.825,-0.206 -1.463,-1.069 -1.444,-1.913 0.028,-2.298 0.103,-4.615 0.394,-6.903 0.15,-1.229 1.97,-1.707 2.317,-0.31 0.581,2.364 0.928,4.803 1.237,7.213 z"
   id="path264" />
		<path
   style="fill:#ffe533"
   d="m 249.255,430.783 c 2.148,9.539 6.716,18.684 13.863,25.409 -4.146,0.9 -8.367,1.426 -12.418,1.632 -12.09,-15.504 -16.105,-36.214 -8.789,-54.739 2.833,-0.835 5.731,-1.294 8.685,-1.491 -1.857,3.855 -2.27,8.901 -2.57,12.953 -0.394,5.422 0.037,10.928 1.229,16.236 z"
   id="path265" />
		<path
   style="fill:#ffe533"
   d="m 240.044,457.159 c -4.249,-0.816 -8.31,-2.382 -11.837,-4.896 -2.073,-4.643 -3.864,-9.295 -4.877,-14.313 -1.154,-5.656 -0.413,-11.049 -0.976,-16.658 -0.037,-0.403 -0.234,-0.694 -0.488,-0.891 2.607,-5.44 6.688,-10.167 11.734,-13.478 -7.363,15.644 -6.35,37.686 6.444,50.236 z"
   id="path266" />
	</g></g></svg>
