<?xml version="1.0" encoding="UTF-8" standalone="no"?>
<!-- Created with Inkscape (http://www.inkscape.org/) -->

<svg
   width="154.42314mm"
   height="141.8584mm"
   viewBox="0 0 154.42314 141.8584"
   version="1.1"
   id="svg1"
   xml:space="preserve"
   xmlns="http://www.w3.org/2000/svg"
   xmlns:svg="http://www.w3.org/2000/svg"><defs
     id="defs1" /><g
     id="layer1"
     transform="translate(-231.74474,-60.984358)"><g
       id="g2"><path
         style="fill:#e67d4b;fill-opacity:1;stroke:none;stroke-width:3;stroke-dasharray:none;stroke-opacity:1"
         d="m 250.83645,74.982971 c -14.86998,11.474188 -18.08185,35.233989 -18.86301,54.000009 -0.87598,21.04376 0.0704,48.20731 15.53425,62.50684 15.65423,14.47556 42.29945,11.15424 63.61643,10.72603 20.55239,-0.41285 46.23297,1.32699 61.0274,-12.94521 15.33276,-14.79153 14.40828,-41.58447 13.68493,-62.87671 C 385.22324,108.34364 384.60748,84.898259 370.3022,73.873382 355.01808,62.09412 334.26903,61.086826 312.97146,60.988994 290.31567,60.884922 267.08785,62.44284 250.83645,74.982971 Z"
         id="path1-0" /><path
         style="fill:#ffaa73;fill-opacity:1;stroke:none;stroke-width:2.68071;stroke-dasharray:none;stroke-opacity:1"
         d="m 257.4465,78.695182 c -13.3332,10.217695 -16.21312,31.375678 -16.91356,48.086708 -0.78544,18.73936 0.0631,42.92837 13.92881,55.66201 14.0364,12.89042 37.92789,9.9328 57.04179,9.55148 18.42833,-0.36764 41.45488,1.18169 54.72033,-11.52764 13.74815,-13.17178 12.91922,-37.03075 12.27063,-55.99138 -0.54984,-16.07368 -1.10196,-36.951674 -13.92883,-46.769268 -13.70454,-10.48937 -32.30919,-11.386355 -51.40571,-11.473475 -20.31435,-0.09267 -41.14162,1.294642 -55.71346,12.461565 z"
         id="path1-3-6" /><path
         style="fill:#ffe1cd;fill-opacity:1;stroke:none;stroke-width:2.60633;stroke-dasharray:none;stroke-opacity:1"
         d="m 259.51834,81.768068 c -12.94448,9.948628 -15.74045,30.549482 -16.42046,46.820462 -0.76255,18.24589 0.0612,41.79793 13.52273,54.19627 13.62718,12.55096 36.82215,9.67124 55.3788,9.29995 17.89107,-0.35796 35.62761,-6.77216 48.50632,-19.1468 13.34735,-12.82493 14.34359,-28.25549 16.53159,-46.59425 1.95318,-16.37067 2.48301,-34.898259 -9.9699,-44.457332 -13.30502,-10.213155 -36.34124,-12.887134 -53.45989,-12.251714 -19.70908,0.731573 -39.94218,1.260555 -54.08919,12.133414 z"
         id="path1-3-1-2" /></g></g></svg>
