<?xml version="1.0" encoding="UTF-8" standalone="no"?>
<!-- Created with Inkscape (http://www.inkscape.org/) -->

<svg
   width="36.482414mm"
   height="35.429726mm"
   viewBox="0 0 36.482414 35.429726"
   version="1.1"
   id="svg1"
   xmlns="http://www.w3.org/2000/svg"
   xmlns:svg="http://www.w3.org/2000/svg">
  <defs
     id="defs1" />
  <g
     id="layer1"
     transform="translate(-170.12708,-87.312499)">
    <g
       id="g9">
      <path
         style="fill:#899bbc;fill-opacity:1;stroke-width:0.302204"
         d="m 176.58507,89.408253 c 5.64257,-2.860048 17.18466,-2.830986 23.24714,0.322491 6.06248,3.153476 6.57511,8.426959 6.75558,13.867116 0.18047,5.44014 -0.71158,11.05254 -4.66931,15.90954 -3.95773,4.857 -19.8561,3.66932 -25.92949,0.215 -6.07339,-3.45433 -5.82416,-12.41519 -5.86146,-19.13447 -0.023,-4.136187 0.81498,-8.319629 6.45754,-11.179677 z"
         id="path2-5-1-2-4" />
      <path
         style="fill:#e1bee6;fill-opacity:1;stroke-width:0.264583"
         d="m 177.53569,91.06867 c 5.13879,-2.407218 15.6504,-2.382757 21.17161,0.271431 5.52122,2.654188 5.98808,7.092722 6.15244,11.671539 0.16436,4.57881 -0.64805,9.3026 -4.25243,13.39059 -3.60437,4.088 -18.08332,3.08836 -23.61448,0.18096 -5.53116,-2.9074 -5.30418,-10.44949 -5.33815,-16.10492 -0.0209,-3.481307 0.74222,-7.002382 5.88101,-9.4096 z"
         id="path3-9-9-7-9" />
      <path
         style="fill:#cd96d7;fill-opacity:1;stroke-width:0.248193"
         d="m 177.65055,90.666764 c 5.05483,-2.153403 15.39469,-2.131521 20.82569,0.242813 5.43101,2.374332 5.89024,6.344876 6.05192,10.440893 0.16167,4.09603 -0.63747,8.32176 -4.18295,11.97871 -3.54549,3.65696 -17.78786,2.76273 -23.22865,0.16188 -5.44079,-2.60085 -5.21751,-9.34771 -5.25093,-14.406827 -0.0206,-3.11425 0.73009,-6.264066 5.78492,-8.417469 z"
         id="path4-5-1-4-0" />
    </g>
  </g>
</svg>
