<?xml version="1.0" encoding="UTF-8" standalone="no"?>
<!-- Created with Inkscape (http://www.inkscape.org/) -->

<svg
   width="36.48243mm"
   height="35.429718mm"
   viewBox="0 0 36.48243 35.429718"
   version="1.1"
   id="svg1"
   xmlns="http://www.w3.org/2000/svg"
   xmlns:svg="http://www.w3.org/2000/svg">
  <defs
     id="defs1" />
  <g
     id="layer1"
     transform="translate(-124.57714,-40.573542)">
    <g
       id="g4">
      <path
         style="fill:#899bbc;fill-opacity:1;stroke-width:0.302204"
         d="m 131.03513,42.669293 c 5.64257,-2.860048 17.18466,-2.830986 23.24715,0.322491 6.06248,3.153476 6.57511,8.426963 6.75558,13.867106 0.18047,5.440142 -0.71158,11.052547 -4.66931,15.909546 -3.95773,4.856998 -19.85611,3.669315 -25.9295,0.214994 -6.07339,-3.454323 -5.82416,-12.415183 -5.86146,-19.134458 -0.023,-4.13619 0.81498,-8.319631 6.45754,-11.179679 z"
         id="path1-8-6" />
      <path
         style="fill:#f59696;fill-opacity:1;stroke-width:0.264583"
         d="m 131.98575,44.32971 c 5.13879,-2.407218 15.6504,-2.382757 21.17162,0.271431 5.52122,2.654188 5.98808,7.092725 6.15244,11.671532 0.16436,4.578807 -0.64805,9.302602 -4.25243,13.390594 -3.60438,4.087992 -18.08333,3.088355 -23.61449,0.180954 -5.53116,-2.907401 -5.30418,-10.449491 -5.33815,-16.104906 -0.0209,-3.481309 0.74222,-7.002387 5.88101,-9.409605 z"
         id="path1-6" />
      <path
         style="fill:#ffbebe;fill-opacity:1;stroke-width:0.248193"
         d="m 132.10061,43.927804 c 5.05483,-2.153403 15.39469,-2.131521 20.8257,0.242813 5.43101,2.374332 5.89024,6.344875 6.05192,10.440897 0.16167,4.096022 -0.63747,8.321745 -4.18295,11.978703 -3.5455,3.656958 -17.78787,2.762722 -23.22866,0.161875 -5.44079,-2.600849 -5.21751,-9.347707 -5.25093,-14.406821 -0.0206,-3.114243 0.73009,-6.264064 5.78492,-8.417467 z"
         id="path1-0-1" />
    </g>
  </g>
</svg>
