<?xml version="1.0" encoding="utf-8"?>
<!-- Generator: Adobe Illustrator 27.5.0, SVG Export Plug-In . SVG Version: 6.00 Build 0)  -->
<svg version="1.1" id="Layer_1" xmlns="http://www.w3.org/2000/svg" xmlns:xlink="http://www.w3.org/1999/xlink" x="0px" y="0px"
	 viewBox="0 0 2356.361 2255.198" style="enable-background:new 0 0 2356.361 2255.198;" xml:space="preserve">
<g>
	<g>
		<g>
			<path style="fill:#67625B;" d="M1940.577,45.552c-66.111,43.34-126.373,94.777-185.44,147.14
				c-60.663,53.778-121.708,107.824-174.249,169.794c-23.536,27.761-44.786,56.385-58.811,90.202
				c-13.214,31.864-20.881,65.765-25.274,99.903c-4.38,34.049-5.58,68.431-5.498,102.735c0.092,39.404,1.626,78.687,5.795,117.888
				c4.088,38.461-14.702,190.887,14.893,213.803c34.123,26.421,229.666,33.997,313.675-89.742
				c6.943-10.225-14.852-15.532-26.112-16.13c13.087-8.039,24.788-19.036,35.08-29.345c22.639-22.678,43.495-46.975,59.887-74.613
				c13.046-21.993,23.061-45.891,30.027-70.501c2.776-9.797,5.192-20.119,5.068-30.363c-0.092-7.536-1.668-16.591-8.847-20.65
				c-11.128-6.292-50.714,26.272-60.274,33.806c14.794-25.052,31.716-48.834,45.161-74.676
				c14.715-28.28,26.142-58.685,36.472-88.801c5.199-15.155,9.947-30.465,14.189-45.917c4.003-14.581,8.121-29.425,10.516-44.37
				c1.168-7.291,2.91-18.134-2.274-24.42c-5.695-6.909-42.714,21.919-51.205,33.16c13.185-29.771,23.558-60.848,31.875-92.213
				c3.167-11.945,6.027-23.971,8.572-36.064c1.79-8.503,4.623-18.485,2.653-27.213c-2.892-12.801-15.439-2.209-22.758,5.253
				c5.947-14.642,11.538-29.408,15.215-44.803c3.416-14.294,5.21-29.374,2.628-43.964c-1.48-8.373-4.909-17.336-12.542-21.929
				c-6.61-3.977-14.703-3.892-22.024-2.3c-9.415,2.042-18.295,6.228-26.634,10.953c-4.058,2.3-8.051,4.755-11.972,7.335
				c24.374-29.038,43.235-62.809,58.646-97.262c3.289-7.354,6.751-14.628,9.681-22.134c2.784-7.129,5.777-14.914,5.782-22.679
				c0.003-5.388-2.002-10.936-7.968-11.838C1943.207,45.402,1941.892,45.435,1940.577,45.552z"/>
			<path style="fill:#292929;" d="M1594.041,1004.497c-39.28,0-70.857-6.906-82.97-16.285
				c-21.359-16.537-18.413-94.126-16.046-156.466c0.957-25.208,1.784-46.977,0.573-58.374c-3.805-35.769-5.703-74.381-5.804-118.043
				c-0.098-40.243,1.653-72.95,5.512-102.931c4.903-38.14,13.205-70.944,25.375-100.289c14.988-36.141,38.264-66.081,59.054-90.601
				c52.361-61.76,113.966-116.373,173.545-169.188l0.853-0.758c53.618-47.532,116.599-102.029,185.613-147.275l0.319-0.208
				l0.378-0.033c1.677-0.151,3.038-0.131,4.292,0.057c5.801,0.878,9.258,5.864,9.256,13.335c-0.006,8.17-3.13,16.169-5.887,23.229
				c-2.217,5.685-4.774,11.312-7.247,16.754c-0.824,1.814-1.647,3.629-2.463,5.447c-16.124,36.053-33.532,65.751-53.057,90.478
				c1.426-0.852,2.846-1.682,4.257-2.484c10.235-5.796,18.833-9.329,27.06-11.115c9.258-2.015,17.037-1.179,23.125,2.483
				c6.826,4.106,11.283,11.83,13.25,22.96c2.291,12.956,1.425,27.538-2.646,44.578c-3.2,13.388-7.873,26.376-12.716,38.615
				c6.313-5.461,11.337-7.699,14.975-6.664c2.641,0.751,4.421,3.077,5.287,6.915c1.774,7.865-0.163,16.602-1.875,24.31
				c-0.266,1.205-0.528,2.39-0.773,3.548c-2.53,12.017-5.418,24.178-8.588,36.14c-8.04,30.303-17.584,58.6-28.419,84.257
				c11.943-11.541,34.134-27.962,43.351-28.157c1.786-0.023,3.193,0.499,4.101,1.604c5.611,6.806,3.802,18.111,2.607,25.593
				c-2.356,14.695-6.38,29.344-10.271,43.509l-0.286,1.049c-4.154,15.133-8.937,30.611-14.218,46.006
				c-9.329,27.203-20.969,59.053-36.561,89.009c-8.363,16.079-18.218,31.595-27.745,46.599c-4.37,6.88-8.851,13.937-13.188,21.042
				c21.598-16.943,46.054-34.099,55.451-28.784c6.245,3.53,9.48,10.914,9.614,21.947c0.13,10.729-2.519,21.586-5.125,30.792
				c-7.178,25.357-17.33,49.198-30.181,70.859c-14.641,24.689-33.745,48.492-60.117,74.91c-9.072,9.089-19.803,19.267-31.64,27.18
				c9.02,1.156,20.787,4.473,23.73,10.409c0.833,1.679,1.358,4.374-0.876,7.667c-48.837,71.93-132.075,94.752-177.348,101.951
				C1630.239,1003.15,1611.389,1004.497,1594.041,1004.497z M1941.084,47.026c-68.719,45.092-131.493,99.412-184.944,146.798
				l-0.856,0.758c-59.497,52.745-121.022,107.285-173.241,168.881c-20.643,24.343-43.741,54.05-58.57,89.805
				c-12.065,29.092-20.3,61.646-25.168,99.517c-3.841,29.847-5.586,62.43-5.489,102.539c0.101,43.555,1.993,82.065,5.786,117.73
				c1.235,11.613,0.405,33.483-0.557,58.806c-2.218,58.399-5.255,138.377,14.873,153.961c16.966,13.138,73.85,21.183,136.182,11.268
				c44.787-7.124,127.12-29.675,175.316-100.663c1.154-1.699,1.373-3.212,0.673-4.626c-2.588-5.217-16.539-8.662-25.613-9.143
				l-4.848-0.258l4.135-2.54c13.044-8.012,24.912-19.218,34.805-29.125c26.189-26.236,45.146-49.85,59.655-74.317
				c12.716-21.435,22.766-45.035,29.869-70.14c2.55-8.996,5.137-19.589,5.012-29.932c-0.121-9.878-2.836-16.389-8.077-19.353
				c-6.3-3.563-25.262,7.159-56.323,31.873l-8.617,6.801l4.107-6.953c5.633-9.539,11.671-19.042,17.504-28.231
				c9.494-14.951,19.311-30.408,27.617-46.374c15.497-29.778,27.087-61.495,36.384-88.593c5.26-15.335,10.022-30.754,14.158-45.827
				l0.29-1.049c3.867-14.087,7.868-28.654,10.193-43.158c1.116-6.973,2.797-17.469-1.948-23.221
				c-0.292-0.354-0.877-0.52-1.704-0.503c-9.486,0.2-39.27,23.209-47.127,33.613l-7.888,10.442l5.3-11.966
				c12.237-27.632,22.935-58.58,31.795-91.988c3.157-11.912,6.034-24.02,8.553-35.988c0.245-1.167,0.51-2.362,0.783-3.579
				c1.641-7.398,3.501-15.785,1.878-22.988c-0.606-2.676-1.672-4.248-3.166-4.673c-3.295-0.914-9.488,2.951-17.04,10.651
				l-5.361,5.462l2.881-7.09c5.669-13.965,11.429-29.03,15.145-44.584c3.974-16.63,4.828-30.81,2.61-43.351
				c-1.807-10.23-5.789-17.26-11.832-20.896c-5.4-3.248-12.439-3.964-20.922-2.118c-7.925,1.718-16.252,5.147-26.214,10.79
				c-3.932,2.232-7.932,4.682-11.885,7.284l-8.632,5.683l6.646-7.916c21.719-25.878,40.832-57.576,58.424-96.908
				c0.816-1.825,1.642-3.645,2.469-5.463c2.456-5.405,4.994-10.994,7.183-16.603c2.659-6.811,5.674-14.529,5.68-22.132
				c0.003-2.804-0.647-9.428-6.684-10.343C1943.358,46.952,1942.36,46.932,1941.084,47.026z"/>
		</g>
		<path style="opacity:0.46;fill:#9FA1A4;" d="M1536.607,997.071c7.918-4.438,15.091-10.303,20.679-17.032
			c10.969-13.207,14.856-31.294,16.419-47.969c1.712-18.252,0.673-36.66-0.862-54.885c-1.64-19.462-3.498-38.909-5.516-58.334
			c-8.876-85.475-20.987-172.513-8.513-258.266c10.748-73.888,40.741-141.983,86.237-201.03
			c25.546-33.156,55.307-62.548,85.114-91.824c32.388-31.811,65.365-63.015,97.775-94.803
			c41.268-40.478,81.847-82.098,118.581-126.794c-0.614-0.24-1.281-0.424-2.009-0.535c-1.302-0.197-2.619-0.165-3.935-0.047
			c-66.111,43.34-126.372,94.777-185.438,147.14c-60.663,53.778-121.709,107.824-174.25,169.794
			c-23.536,27.761-44.786,56.386-58.811,90.203c-13.214,31.863-20.881,65.764-25.274,99.902c-4.38,34.049-5.58,68.43-5.498,102.735
			c0.093,39.403,1.626,78.687,5.796,117.888c4.087,38.461-14.702,190.887,14.893,213.803
			C1517.002,990.895,1525.509,994.36,1536.607,997.071z"/>
		<path style="opacity:0.46;fill:#9FA1A4;" d="M1828.034,252.098c-31.943,34.8-65.36,68.214-97.547,102.78
			c0.45-0.402,0.918-0.785,1.367-1.188c25.319-22.739,47.678-48.494,72.453-71.793c7.039-6.62,14.374-12.911,21.448-19.495
			c6.362-5.921,12.741-11.825,19.317-17.51c14.245-12.318,29.828-24.952,47.651-31.649c12.312-4.627,26.948-5.435,36.784,4.721
			c7.278,7.516,8.599,18.724,8.045,28.705c-0.808,14.541-5.199,28.871-10.152,42.472c-12.345,33.899-29.897,65.915-47.859,97.107
			c-7.767,13.487-15.769,26.837-23.774,40.184c-3.261,5.435-6.624,10.857-9.787,16.379c5.202-5.574,9.825-11.675,14.095-18.006
			c11.348-16.828,20.407-35.058,31.433-52.086c10.005-15.455,21.953-30.311,38.467-39.114c0.653-0.347,1.766-0.041,2.016,0.713
			c6.5,19.597-1.375,41.806-9.106,59.866c-8.306,19.404-18.941,37.721-29.712,55.835c-12.517,21.05-24.093,42.632-36.755,63.598
			c-14.095,23.342-29.212,46.368-45.839,68.193c9.819-9.472,19.446-19.144,28.738-29.136c8.973-9.647,16.876-20.063,24.844-30.543
			c8.775-11.54,17.636-23.124,27.768-33.525c7.895-8.104,17.375-16.793,28.775-19.285c0.878-0.192,1.519,0.447,1.765,1.207
			c0.775,2.394,1.361,4.842,1.76,7.327c1.813,11.278,0.205,22.892-2.516,33.887c-3.212,12.972-8.175,25.484-13.777,37.595
			c-10.782,23.311-24.149,45.283-37.74,67.035c-7.848,12.562-16.325,24.726-24.889,36.81c-10.168,14.351-20.653,28.48-31.556,42.282
			c-22.356,28.301-46.472,55.406-73.418,79.433c-2.133,1.902-4.294,3.778-6.466,5.642c5.951-3.457,11.899-6.919,17.875-10.334
			c15.804-9.036,31.726-17.906,48.059-25.957c13.547-6.678,27.518-13.128,42.161-17.018c8.395-2.23,20.054-4.759,27.746,0.838
			c11.538,8.397,4.652,25.696-0.315,35.772c-8.069,16.369-19.429,31.31-31.401,45.011c-16.095,18.418-33.782,35.692-52.77,51.109
			c-14.212,11.54-29.33,22.014-45.258,31.051c7.873-0.269,15.84,0.181,23.401,2.353c9.073,2.606,17.378,8.472,20.467,17.765
			c3.439,10.346-1.644,20.875-7.498,29.256c-3.183,4.556-6.789,8.795-10.438,12.98c-1.374,1.577-2.743,3.157-4.113,4.735
			c24.448-15.341,46.546-35.282,63.888-60.827c6.942-10.225-14.852-15.532-26.112-16.13c13.086-8.039,24.788-19.036,35.08-29.345
			c22.638-22.678,43.495-46.975,59.887-74.613c13.046-21.994,23.061-45.891,30.026-70.501c2.776-9.797,5.192-20.119,5.068-30.362
			c-0.091-7.537-1.668-16.592-8.846-20.651c-11.127-6.292-50.714,26.273-60.274,33.805c14.794-25.051,31.716-48.833,45.161-74.676
			c14.715-28.279,26.142-58.684,36.472-88.801c5.199-15.154,9.947-30.465,14.189-45.916c4.003-14.581,8.121-29.425,10.516-44.37
			c1.168-7.291,2.91-18.134-2.274-24.419c-5.695-6.91-42.714,21.917-51.205,33.159c13.185-29.771,23.558-60.848,31.875-92.213
			c3.167-11.945,6.026-23.971,8.572-36.065c1.79-8.501,4.622-18.484,2.653-27.211c-2.892-12.802-15.439-2.21-22.758,5.252
			c5.947-14.642,11.538-29.409,15.215-44.802c3.416-14.295,5.21-29.375,2.628-43.965c-1.48-8.372-4.909-17.336-12.543-21.929
			c-6.609-3.977-14.702-3.892-22.023-2.3c-9.415,2.043-18.295,6.228-26.634,10.953c-4.058,2.301-8.05,4.755-11.971,7.335
			c16.684-19.877,30.738-41.997,42.918-65.01C1894.416,176.778,1861.854,215.255,1828.034,252.098z"/>
		<g>
			<path style="fill:#464648;" d="M1512.756,986.393c11.97,1.561,23.898-4.099,34.512-21.257
				c9.696-15.679,10.617-35.089,10.599-53.524c-0.124-128.439-41.228-259.273-9.257-386.671
				c29.102-115.965,98.328-201.488,183.266-282.066c48.307-45.828,99.231-88.807,147.392-134.79
				c13.213-12.617,67.334-52.884,67.457-71.419c0.141-21.265-365.358,209.496-430.313,275.986
				c-52.227,53.461-92.68,107.157-105.034,182.663c-8.139,49.749-6.152,100.527-4.283,150.902
				c3.189,85.965,6.203,173.322,33.17,255.011C1448.78,927.022,1480.919,982.242,1512.756,986.393z"/>
			<path style="fill:#292929;" d="M1516.548,988.156c-1.315,0-2.642-0.089-3.989-0.265l0,0
				c-33.694-4.392-65.953-62.641-73.73-86.191c-26.783-81.136-30.024-168.526-33.157-253.039l-0.145-3.92
				c-1.829-49.299-3.723-100.278,4.36-149.671c13.047-79.746,58.388-135.311,105.444-183.477
				c59.246-60.65,409.72-286.316,431.188-277.51c1.099,0.451,1.727,1.396,1.719,2.59c-0.1,15.119-32.65,42.499-54.189,60.616
				c-5.816,4.894-10.837,9.12-13.736,11.888c-24.749,23.63-50.645,46.841-75.687,69.289c-23.709,21.25-48.225,43.225-71.709,65.504
				c-72.841,69.101-151.528,156.564-182.838,281.338c-20.428,81.397-10.759,165.659-1.41,247.146
				c5.244,45.703,10.667,92.959,10.712,139.154c0.017,17.784-0.804,38.117-10.826,54.321
				C1539.422,980.697,1528.669,988.156,1516.548,988.156z M1512.949,984.896c12.497,1.626,23.591-5.291,33.036-20.556
				c9.601-15.529,10.389-35.359,10.371-52.727c-0.044-46.024-5.455-93.196-10.69-138.814
				c-9.383-81.756-19.084-166.295,1.477-248.225c31.502-125.528,110.537-213.396,183.694-282.796
				c23.515-22.308,48.045-44.297,71.769-65.563c25.026-22.432,50.903-45.626,75.616-69.225c2.97-2.832,8.027-7.087,13.882-12.013
				c19.83-16.68,53.018-44.599,53.11-58.323c-14.849-7.938-360.726,208.476-427.721,277.055
				c-79.037,80.902-96.992,135.212-104.624,181.849c-8.033,49.098-6.146,99.922-4.321,149.072l0.146,3.92
				c3.124,84.303,6.357,171.476,33.004,252.203C1450.968,928.826,1482.706,980.951,1512.949,984.896L1512.949,984.896z"/>
		</g>
		<g>
			<path style="fill:#6E6D70;" d="M1419.789,645.898c0.167-38.519,2.104-77.012,7.117-115.229
				c4.558-34.747,12.427-69.344,28.034-100.918c17.649-35.707,44.631-67.292,72.399-95.531
				c29.415-29.913,61.949-56.584,95.508-81.69c69.288-51.837,142.966-97.175,215.266-144.591
				c32.055-21.023,64.977-40.951,96.301-63.057c4.057-2.863,8.109-5.788,12.134-8.774
				c-7.541-15.739-365.878,210.767-430.136,276.544c-52.227,53.461-92.68,107.158-105.034,182.662
				c-8.138,49.75-6.152,100.528-4.283,150.903c2.322,62.589,4.597,125.906,16.045,187.245
				C1422.948,770.941,1419.516,708.426,1419.789,645.898z"/>
			<path style="fill:#292929;" d="M1421.656,833.74c-11.385-60.982-13.741-124.552-16.02-186.032l-0.11-2.965
				c-1.829-49.299-3.723-100.278,4.36-149.671c13.047-79.745,58.388-135.309,105.444-183.477
				c33.633-34.428,144.54-110.07,229.296-164.385c90.49-57.991,187.592-115.482,200.98-113.322c1.394,0.23,2.022,0.978,2.306,1.565
				l0.536,1.125l-1,0.743c-4.036,2.995-8.098,5.927-12.166,8.799c-20.698,14.607-42.433,28.479-63.45,41.896
				c-10.814,6.904-21.997,14.042-32.89,21.187c-17.448,11.441-35.263,22.949-52.494,34.079
				c-54.16,34.982-110.167,71.158-162.696,110.46c-39.117,29.265-69.411,55.173-95.337,81.54
				c-21.661,22.027-52.704,55.854-72.121,95.139c-13.666,27.651-22.529,59.569-27.89,100.446
				c-4.6,35.067-6.921,72.698-7.103,115.038l0,0c-0.148,33.34,0.776,67.245,1.671,100.035c0.782,28.682,1.591,58.34,1.679,87.519
				L1421.656,833.74z M1943.354,36.586c-30.945,3.361-360.62,210.339-425.861,277.122
				c-79.039,80.903-96.992,135.214-104.624,181.849c-8.033,49.098-6.146,99.922-4.321,149.072l0.111,2.966
				c2.046,55.226,4.158,112.144,12.823,167.267c-0.284-23.072-0.917-46.262-1.533-68.843c-0.892-32.812-1.819-66.742-1.671-100.13
				c0.183-42.47,2.512-80.224,7.126-115.418c5.409-41.216,14.363-73.436,28.18-101.394c19.609-39.674,50.871-73.743,72.677-95.918
				c26.036-26.478,56.437-52.484,95.679-81.842c52.614-39.363,108.663-75.567,162.87-110.579
				c17.223-11.126,35.036-22.631,52.472-34.066c10.909-7.154,22.101-14.299,32.924-21.207c20.988-13.399,42.693-27.253,63.335-41.82
				C1936.822,41.334,1940.095,38.98,1943.354,36.586z"/>
		</g>
		<path style="fill:#9FA1A4;" d="M1905.773,71.627c-14.387,10.589-28.434,21.504-42.497,32.517
			c-20.589,16.123-41.643,31.641-62.708,47.135c-40.318,29.652-80.893,59.232-118.049,92.849
			c-32.392,29.308-62.114,61.607-87.818,96.955c-25.387,34.913-46.754,72.697-63.375,112.542
			c-13.012,31.194-24.454,64.098-30.363,97.465c-4.092,23.109-7.566,46.395-13.972,69.014c-2.969,10.478-6.479,21.136-12.137,30.509
			c-3.695,6.122-9.018,12.608-16.47,13.918c-8.629,1.517-16.377-4.497-22.01-10.298c-12.784-13.16-21.065-30.773-26.527-48.08
			c-1.705-5.404-3.134-10.872-4.359-16.384c0.198,18.822,0.91,37.664,1.607,56.448c3.189,85.965,6.203,173.322,33.17,255.01
			c8.516,25.794,40.654,81.016,72.491,85.167c11.97,1.56,23.898-4.099,34.512-21.257c9.697-15.679,10.617-35.089,10.599-53.524
			c-0.124-128.439-41.228-259.273-9.257-386.671c29.101-115.965,98.327-201.488,183.265-282.066
			c48.307-45.828,99.231-88.807,147.392-134.79c12.476-11.912,61.4-48.469,66.925-68.114
			C1933.247,51.173,1919.554,61.484,1905.773,71.627z"/>
	</g>
	<g>
		<g>
			<path style="fill:#67625B;" d="M47.622,1687.557c52.245-59.326,111.68-111.717,171.862-162.794
				c61.808-52.458,123.936-105.257,192.706-148.514c30.808-19.38,62.147-36.372,97.607-45.479
				c33.409-8.58,68.053-11.382,102.471-10.906c34.327,0.474,68.532,4.143,102.48,9.07c38.997,5.657,77.67,12.726,115.886,22.39
				c37.499,9.481,191.051,12.412,209.557,44.948c21.335,37.513,1.21,232.166-133.155,297.851
				c-11.103,5.428-13.277-16.896-12.278-28.128c-9.808,11.819-22.348,21.851-34.006,30.582
				c-25.649,19.209-52.649,36.423-82.327,48.746c-23.614,9.808-48.687,16.346-74.034,19.766
				c-10.091,1.363-20.651,2.297-30.774,0.727c-7.448-1.155-16.188-3.995-19.192-11.674c-4.657-11.905,33.173-46.494,41.98-54.895
				c-26.89,11.107-52.823,24.499-80.306,34.159c-30.075,10.572-61.789,17.589-93.063,23.561
				c-15.738,3.005-31.566,5.545-47.461,7.561c-15,1.902-30.277,3.883-45.41,4.143c-7.383,0.126-18.363,0.319-23.854-5.701
				c-6.035-6.614,27.732-39.189,40.061-46.007c-31.334,8.847-63.565,14.725-95.791,18.529c-12.273,1.447-24.582,2.579-36.913,3.391
				c-8.671,0.57-18.953,1.966-27.315-1.218c-12.264-4.672-0.006-15.596,8.415-21.789c-15.336,3.819-30.743,7.268-46.503,8.734
				c-14.635,1.363-29.817,1.007-43.896-3.609c-8.08-2.648-16.468-7.309-19.936-15.515c-3.003-7.105-1.776-15.105,0.833-22.127
				c3.353-9.033,8.75-17.232,14.607-24.82c2.851-3.691,5.844-7.298,8.953-10.814c-32.19,20.026-68.286,33.928-104.571,44.318
				c-7.744,2.216-15.434,4.615-23.278,6.456c-7.451,1.749-15.581,3.61-23.27,2.521c-5.334-0.758-10.543-3.528-10.594-9.561
				C47.102,1690.14,47.322,1688.842,47.622,1687.557z"/>
			<path style="fill:#292929;" d="M426.594,1770.222c-7.274,0-16.335-0.682-21.399-6.234c-0.965-1.055-1.302-2.498-1.009-4.287
				c1.497-9.096,20.887-28.747,34.001-38.938c-26.933,7.104-56.296,12.555-87.429,16.23c-12.272,1.446-24.716,2.589-36.991,3.398
				c-1.184,0.077-2.395,0.169-3.625,0.266c-7.868,0.605-16.793,1.293-24.327-1.579c-3.678-1.401-5.73-3.49-6.099-6.21
				c-0.511-3.754,2.418-8.409,8.712-13.884c-12.787,3.061-26.299,5.855-40.024,7.132c-17.451,1.626-32.009,0.422-44.508-3.678
				c-10.738-3.519-17.755-9.023-20.858-16.361c-2.763-6.542-2.489-14.36,0.811-23.244c2.926-7.887,7.638-15.901,14.827-25.216
				c0.992-1.287,2.013-2.574,3.06-3.865c-27.236,15.833-59.097,28.871-97.067,39.743c-1.909,0.548-3.813,1.106-5.721,1.662
				c-5.742,1.681-11.68,3.419-17.628,4.814c-7.375,1.733-15.726,3.698-23.828,2.545c-7.399-1.049-11.841-5.179-11.892-11.046
				c-0.011-1.262,0.162-2.616,0.549-4.257l0.085-0.369l0.252-0.286c54.542-61.932,117.39-116.583,172.018-162.947l0.838-0.71
				c60.71-51.528,123.49-104.81,192.038-147.932c27.22-17.119,60.155-35.933,98.038-45.662
				c30.774-7.902,64.421-11.48,102.865-10.954c30.214,0.418,62.841,3.305,102.679,9.087c43.224,6.27,81.181,13.604,116.041,22.419
				c11.109,2.81,32.779,5.067,57.867,7.681c62.05,6.464,139.279,14.507,152.632,37.987c10.92,19.202,11.033,77.73-7.826,138.803
				c-13.524,43.797-47.877,122.972-125.979,161.153c-3.581,1.753-6.17,0.849-7.717-0.214c-5.461-3.756-7.082-15.87-6.953-24.959
				c-9.506,10.601-21.096,19.782-31.373,27.479c-29.877,22.374-56.14,37.922-82.653,48.932c-23.256,9.66-48.29,16.344-74.412,19.869
				c-9.477,1.28-20.607,2.366-31.205,0.723c-10.906-1.691-17.757-5.937-20.37-12.617c-3.927-10.034,16.503-31.839,36.33-50.829
				c-7.647,3.287-15.263,6.727-22.688,10.078c-16.202,7.314-32.956,14.878-50.058,20.888
				c-31.871,11.204-65.041,18.228-93.282,23.621c-15.972,3.05-31.97,5.599-47.554,7.574l-1.043,0.133
				c-14.585,1.851-29.663,3.767-44.529,4.023C429.068,1770.201,427.858,1770.222,426.594,1770.222z M458.558,1711.95l-11.452,6.335
				c-11.411,6.309-38.397,32.544-39.935,41.907c-0.138,0.83-0.05,1.421,0.257,1.759c5.027,5.511,15.653,5.331,22.688,5.208
				c14.723-0.252,29.72-2.156,44.225-3.999l1.045-0.132c15.52-1.969,31.457-4.506,47.366-7.545
				c28.132-5.372,61.161-12.366,92.846-23.503c16.981-5.967,33.673-13.505,49.815-20.792c9.919-4.479,20.179-9.109,30.417-13.338
				l7.461-3.083l-7.958,7.576c-28.851,27.259-42.142,44.501-39.5,51.249c2.19,5.606,8.255,9.216,18.017,10.731
				c10.218,1.585,21.071,0.521,30.34-0.732c25.859-3.49,50.641-10.105,73.656-19.665c26.275-10.91,52.329-26.339,81.998-48.56
				c11.204-8.389,23.973-18.555,33.75-30.337l3.1-3.733l-0.431,4.834c-0.806,9.05,0.635,23.345,5.435,26.645
				c1.299,0.898,2.831,0.891,4.674-0.01c77.081-37.681,111.037-115.999,124.417-159.328c18.623-60.303,18.696-117.763,8.089-136.418
				c-12.586-22.127-92.193-30.42-150.316-36.474c-25.205-2.626-46.974-4.894-58.299-7.756
				c-34.757-8.79-72.613-16.103-115.733-22.361c-39.702-5.763-72.203-8.639-102.283-9.055
				c-38.162-0.525-71.562,3.025-102.074,10.859c-37.478,9.625-70.157,28.298-97.176,45.294
				c-68.369,43.005-131.066,96.218-191.695,147.678l-0.838,0.711c-54.46,46.22-117.104,100.691-171.452,162.351
				c-0.268,1.235-0.393,2.251-0.383,3.176c0.05,6.107,6.515,7.683,9.293,8.078c7.525,1.073,15.597-0.824,22.711-2.494
				c5.869-1.377,11.768-3.102,17.471-4.771c1.91-0.56,3.824-1.12,5.738-1.667c41.422-11.861,75.503-26.302,104.19-44.148
				l8.771-5.457l-6.841,7.741c-3.138,3.55-6.128,7.163-8.892,10.739c-6.994,9.066-11.567,16.827-14.383,24.421
				c-3.023,8.138-3.313,15.208-0.859,21.012c2.746,6.499,9.143,11.433,19.012,14.668c12.104,3.969,26.272,5.132,43.289,3.54
				c15.945-1.483,31.663-5.057,46.273-8.697l7.428-1.849l-6.168,4.534c-8.688,6.391-13.41,11.99-12.949,15.367
				c0.21,1.539,1.616,2.816,4.178,3.792c6.899,2.629,15.467,1.971,23.019,1.391c1.245-0.097,2.468-0.191,3.658-0.269
				c12.225-0.804,24.619-1.942,36.839-3.382c34.32-4.052,66.47-10.27,95.558-18.483L458.558,1711.95z"/>
		</g>
		<path style="opacity:0.46;fill:#9FA1A4;" d="M1046.667,1422.059c-5.512,7.212-12.332,13.484-19.782,18.066
			c-14.625,8.994-33.079,10.286-49.807,9.477c-18.311-0.883-36.388-4.512-54.214-8.607c-19.035-4.372-38.025-8.96-56.97-13.699
			c-83.364-20.862-167.817-45.148-254.473-44.913c-74.665,0.201-146.314,20.274-211.196,56.972
			c-36.433,20.606-69.736,45.916-102.929,71.288c-36.066,27.57-71.615,55.807-107.664,83.401
			c-45.902,35.136-92.837,69.428-142.274,99.48c-0.151-0.642-0.239-1.328-0.246-2.065c-0.011-1.318,0.208-2.615,0.509-3.9
			c52.245-59.326,111.68-111.718,171.862-162.793c61.808-52.458,123.936-105.258,192.705-148.516
			c30.808-19.379,62.148-36.371,97.608-45.478c33.41-8.58,68.053-11.383,102.471-10.906c34.327,0.474,68.532,4.143,102.481,9.07
			c38.996,5.657,77.669,12.726,115.885,22.39c37.499,9.481,191.051,12.412,209.557,44.948
			C1043.323,1401.778,1045.552,1410.688,1046.667,1422.059z"/>
		<path style="opacity:0.46;fill:#9FA1A4;" d="M267.996,1605.321c38.964-26.706,76.763-55.067,115.529-82.05
			c-0.462,0.389-0.907,0.798-1.37,1.186c-26.087,21.853-54.742,40.349-81.309,61.585c-7.548,6.034-14.811,12.407-22.329,18.479
			c-6.761,5.461-13.506,10.942-20.063,16.65c-14.207,12.362-28.916,26.004-38.064,42.701c-6.319,11.534-9.189,25.91-0.521,37.082
			c6.411,8.267,17.32,11.159,27.281,12.019c14.509,1.255,29.315-1.067,43.479-4.049c35.304-7.433,69.478-20.285,102.895-33.661
			c14.45-5.784,28.795-11.82,43.141-17.859c5.842-2.46,11.684-5.023,17.597-7.375c-6.252,4.363-12.945,8.078-19.817,11.41
			c-18.262,8.857-37.589,15.249-56.004,23.759c-16.713,7.723-33.109,17.452-44.155,32.556c-0.437,0.597-0.29,1.743,0.421,2.097
			c18.483,9.204,41.58,4.545,60.551-0.557c20.383-5.481,40.019-13.421,59.473-21.526c22.608-9.419,45.608-17.829,68.153-27.402
			c25.099-10.657,50.029-22.368,73.984-35.747c-10.765,8.383-21.699,16.547-32.903,24.334
			c-10.819,7.521-22.246,13.872-33.746,20.281c-12.664,7.056-25.384,14.191-37.112,22.752c-9.137,6.672-19.079,14.829-23.156,25.762
			c-0.314,0.842,0.228,1.568,0.945,1.918c2.261,1.105,4.601,2.031,7.006,2.777c10.908,3.388,22.633,3.437,33.902,2.298
			c13.296-1.348,26.384-4.494,39.165-8.329c24.6-7.38,48.239-17.509,71.694-27.891c13.544-5.995,26.783-12.669,39.956-19.44
			c15.643-8.039,31.112-16.422,46.316-25.266c31.174-18.134,61.414-38.179,89.006-61.461c2.184-1.843,4.347-3.717,6.499-5.604
			c-4.263,5.403-8.531,10.803-12.757,16.236c-11.178,14.37-22.206,28.88-32.484,43.911c-8.526,12.469-16.884,25.387-22.805,39.334
			c-3.393,7.995-7.544,19.181-3.089,27.586c6.682,12.608,24.78,8.235,35.458,4.742c17.344-5.677,33.739-14.811,48.994-24.729
			c20.508-13.331,40.107-28.402,58.052-45.021c13.431-12.44,25.936-25.927,37.133-40.418c-1.378,7.756-2.058,15.707-0.976,23.499
			c1.299,9.35,5.932,18.399,14.695,22.771c9.757,4.866,20.899,1.322,30.023-3.29c4.96-2.506,9.667-5.478,14.325-8.499
			c1.756-1.137,3.514-2.269,5.269-3.403c-18.64,22.035-41.503,41.095-69.243,54.655c-11.103,5.428-13.277-16.897-12.278-28.128
			c-9.808,11.818-22.348,21.851-34.006,30.582c-25.649,19.208-52.65,36.422-82.327,48.746
			c-23.615,9.808-48.687,16.346-74.034,19.765c-10.091,1.363-20.651,2.297-30.774,0.728c-7.449-1.155-16.19-3.996-19.193-11.674
			c-4.657-11.905,33.173-46.494,41.98-54.895c-26.89,11.107-52.823,24.499-80.307,34.159
			c-30.075,10.572-61.788,17.589-93.062,23.562c-15.738,3.005-31.566,5.544-47.461,7.56c-15,1.902-30.277,3.883-45.41,4.143
			c-7.383,0.126-18.363,0.318-23.854-5.7c-6.035-6.615,27.732-39.19,40.061-46.008c-31.334,8.847-63.565,14.725-95.791,18.529
			c-12.273,1.447-24.582,2.579-36.914,3.391c-8.67,0.57-18.952,1.966-27.314-1.218c-12.264-4.672-0.006-15.596,8.415-21.789
			c-15.336,3.819-30.743,7.268-46.503,8.734c-14.635,1.363-29.817,1.007-43.896-3.61c-8.08-2.647-16.468-7.309-19.936-15.514
			c-3.003-7.105-1.775-15.105,0.834-22.128c3.352-9.032,8.749-17.231,14.606-24.819c2.851-3.691,5.844-7.298,8.953-10.814
			c-22.036,13.707-45.917,24.496-70.421,33.304C184.054,1660.397,226.745,1633.598,267.996,1605.321z"/>
		<g>
			<path style="fill:#464648;" d="M1039.466,1396.937c-0.145,12.071-7.433,23.081-25.92,31.164
				c-16.89,7.386-36.237,5.553-54.485,2.931c-127.133-18.267-250.847-77.442-381.484-63.789
				c-118.914,12.427-213.359,68.878-305.127,141.581c-52.192,41.349-101.934,85.69-154.262,126.872
				c-14.355,11.298-61.866,59.189-80.232,56.693c-21.071-2.865,259.008-332.1,334.009-387.011
				c60.302-44.15,119.175-76.611,195.668-78.174c50.4-1.03,100.387,8.111,149.994,17.078
				c84.651,15.302,170.707,30.626,247.765,68.862C989.729,1325.218,1039.854,1364.834,1039.466,1396.937z"/>
			<path style="fill:#292929;" d="M39.354,1693.989c-0.552,0-1.086-0.034-1.601-0.104c-1.183-0.161-2.027-0.914-2.32-2.068
				c-5.677-22.372,267.229-337.571,335.642-387.659c91.929-67.31,148.784-77.49,196.531-78.466
				c50.032-1.013,100.223,8.051,148.757,16.823l3.897,0.706c83.218,15.04,169.27,30.592,245.808,68.569
				c22.213,11.022,75.321,51.183,74.91,85.164c-0.166,13.875-9.193,24.82-26.827,32.531c-17.454,7.635-37.698,5.571-55.306,3.044
				c-45.722-6.571-91.744-18.614-136.248-30.263c-79.346-20.769-161.391-42.245-244.863-33.52
				c-127.941,13.372-225.647,78.912-304.344,141.262c-25.382,20.106-50.605,41.277-74.997,61.749
				c-25.755,21.616-52.385,43.968-79.267,65.127c-3.151,2.479-8.046,6.855-13.714,11.923
				C85.154,1666.927,54.895,1693.989,39.354,1693.989z M575.412,1228.638c-2.584,0-5.164,0.025-7.747,0.078
				c-79.951,1.634-140.876,38.396-194.807,77.881c-77.35,56.632-340.431,368.401-334.49,384.491
				c13.323,1.675,45.716-27.26,65.032-44.533c5.704-5.102,10.631-9.508,13.854-12.047c26.848-21.128,53.46-43.465,79.198-65.066
				c24.409-20.485,49.648-41.669,75.06-61.804c79.041-62.618,177.198-128.446,305.91-141.897
				c84.005-8.781,166.329,12.764,245.942,33.6c44.423,11.627,90.357,23.648,135.913,30.194c17.188,2.474,36.932,4.498,53.664-2.819
				c16.446-7.192,24.864-17.216,25.014-29.796l0,0c0.363-30.077-47.481-69.645-73.234-82.422
				c-76.15-37.784-161.987-53.298-244.998-68.302l-3.897-0.704C669.947,1237.199,622.585,1228.638,575.412,1228.638z"/>
		</g>
		<g>
			<path style="fill:#6E6D70;" d="M715.518,1256.802c-38.155-5.274-76.537-8.795-115.077-9.233
				c-35.043-0.397-70.405,2.508-103.868,13.496c-37.842,12.428-72.921,34.677-104.8,58.178
				c-33.77,24.893-64.767,53.333-94.362,83.009c-61.108,61.27-116.398,127.805-173.552,192.681
				c-25.342,28.766-49.72,58.541-76.029,86.428c-3.409,3.612-6.876,7.21-10.402,10.773
				c-14.516-9.689,260.34-332.434,334.537-386.755c60.303-44.151,119.175-76.612,195.668-78.175
				c50.4-1.029,100.387,8.112,149.994,17.078c61.633,11.141,123.993,22.338,183.1,42.337
				C838.863,1277.596,777.459,1265.366,715.518,1256.802z"/>
			<path style="fill:#292929;" d="M37.627,1694.083l-1.037-0.691c-0.543-0.362-1.196-1.092-1.226-2.506
				c-0.292-13.438,70.394-101.57,140.578-182.951c65.745-76.235,156.299-175.345,195.133-203.776
				c91.929-67.31,148.784-77.49,196.531-78.466c50.023-1.032,100.237,8.052,148.778,16.828l2.993,0.541
				c60.519,10.939,123.094,22.249,181.836,42.126l-0.703,2.927c-28.876-4.212-58.126-9.201-86.413-14.028
				c-32.33-5.516-65.762-11.22-98.784-15.786l0,0c-41.965-5.802-79.547-8.818-114.89-9.219
				c-41.26-0.488-74.072,3.799-103.376,13.421c-41.626,13.671-79.504,39.625-104.374,57.958
				c-29.767,21.943-59.701,48.273-94.191,82.86c-46.324,46.446-90.039,96.772-132.318,145.438
				c-13.457,15.493-27.373,31.513-41.172,47.176c-8.609,9.773-17.253,19.833-25.613,29.563
				c-16.255,18.914-33.06,38.471-50.448,56.902c-3.416,3.621-6.893,7.229-10.427,10.798L37.627,1694.083z M575.402,1228.638
				c-2.581,0-5.158,0.025-7.737,0.078c-79.951,1.634-140.876,38.396-194.807,77.881c-75.009,54.917-324.691,349.787-334.26,382.194
				c2.745-2.806,5.459-5.632,8.136-8.469c17.339-18.379,34.119-37.909,50.351-56.797c8.366-9.736,17.017-19.804,25.639-29.592
				c13.791-15.654,27.705-31.669,41.159-47.158c42.311-48.706,86.063-99.071,132.455-145.59
				c34.606-34.698,64.645-61.122,94.539-83.159c25.039-18.458,63.185-44.591,105.225-58.398
				c29.632-9.729,62.742-14.05,104.356-13.572c35.471,0.404,73.176,3.43,115.266,9.25c33.071,4.572,66.526,10.281,98.88,15.799
				c22.273,3.8,45.14,7.703,67.946,11.244c-53.323-16.36-109.351-26.487-163.711-36.313l-2.993-0.541
				C669.959,1237.2,622.585,1228.638,575.402,1228.638z"/>
		</g>
		<path style="fill:#9FA1A4;" d="M78.354,1656.787c12.514-12.749,25.304-25.114,38.193-37.479
			c18.87-18.104,37.206-36.755,55.521-55.421c35.05-35.724,70.066-71.713,108.595-103.748c33.59-27.927,69.764-52.788,108.389-73.24
			c38.149-20.201,78.573-36.016,120.366-46.84c32.72-8.475,66.91-15.153,100.778-16.29c23.455-0.787,46.996-0.937,70.294-4.083
			c10.792-1.457,21.838-3.428,31.917-7.704c6.582-2.793,13.756-7.146,16.106-14.339c2.72-8.328-2.138-16.847-7.085-23.244
			c-11.222-14.514-27.49-25.201-43.852-33.053c-5.108-2.452-10.32-4.64-15.601-6.631c18.605,2.856,37.156,6.222,55.655,9.566
			c84.651,15.302,170.707,30.626,247.765,68.861c24.334,12.075,74.46,51.691,74.072,83.795c-0.145,12.07-7.433,23.081-25.92,31.164
			c-16.89,7.386-36.237,5.553-54.485,2.931c-127.133-18.267-250.847-77.442-381.484-63.789
			c-118.914,12.427-213.359,68.878-305.127,141.581c-52.192,41.348-101.934,85.69-154.262,126.872
			c-13.555,10.669-56.656,53.938-76.885,56.632C54.223,1681.095,66.365,1668.996,78.354,1656.787z"/>
	</g>
	<g>
		<g>
			<path style="fill:#2B3544;" d="M2317,1193.305c-3.319-2.065-7.172-3.208-10.893-4.306c-5.441-1.609-10.947-3.019-16.488-4.239
				c-29.166-6.417-59.11-7.193-88.824-8.606c-32.266-1.533-64.418-4.367-96.744-4.391c-16.405-0.013-32.81,0.152-49.208,0.647
				c-8.071,0.243-16.14,0.563-24.206,0.974c-7.561,0.386-15.056,0.777-22.404,2.754c-27.165,7.31-43.962,31.482-55.083,55.812
				c-3.81,8.336-9.697,20.974-3.24,29.488c0.562,0.743,1.196,1.396,1.872,1.999c-5.107,4.173-9.466,9.502-13.675,14.47
				c-5.689,6.714-11.403,13.443-16.937,20.288c-5.34,6.605-10.516,13.43-14.753,20.806c-3.701,6.444-7.193,13.76-7.202,21.351
				c-0.009,8.027,5.224,13.589,12.756,15.658c10.976,3.018,22.629,3.863,34.106,3.341c25.441,0.902,51.332-3.099,76.071-7.234
				c42.905-7.172,86.277-12.762,128.202-24.694c17.605-5.01,34.334-11.736,51.312-18.46c10.648-4.218,21.271-8.509,31.57-13.535
				c9.3-4.539,20.92-9.856,26.946-18.724c6.53-9.608-2.17-16.645-11.083-19.397c-15.049-4.647-31.775-3.943-47.345-3.953
				c-4.099-0.003-8.196-0.114-12.293-0.226c14.423-3.04,28.752-6.522,42.974-10.516c15.449-4.339,30.762-9.226,45.696-15.116
				c7.157-2.822,14.223-5.88,21.147-9.236c5.723-2.773,11.715-5.505,16.631-9.611
				C2321.066,1204.337,2323.718,1197.487,2317,1193.305z"/>
			<path style="fill:#384678;" d="M2195.618,1259.195c13.195,0.192,26.412-0.311,39.536,1.404
				c6.029,0.789,13.013,1.867,18.238,5.231c1.502,0.966,3.157,2.341,3.85,4.04c0.41,1.006,0.211,1.491-0.241,2.319
				c-1.946,3.567-5.954,6.132-9.246,8.288c-4.942,3.235-10.213,5.986-15.531,8.549c-9.923,4.784-20.158,8.874-30.41,12.891
				c-15.362,6.017-30.465,12.275-46.307,17.007c-40.098,11.976-81.506,17.31-122.592,24.602
				c-32.758,5.814-66.512,12.037-99.961,10.59c-4.641-0.654-9.247-1.472-13.774-2.582c-6.307-1.546-14.267-3.815-14.905-11.469
				c-0.535-6.405,3.16-13.094,6.274-18.417c3.949-6.753,8.658-13.047,13.576-19.118c5.009-6.183,10.192-12.238,15.3-18.34
				c4.688-5.599,9.491-11.635,15.237-16.201c0.76-0.602,1.484-1.072,2.2-1.447c5.283,2.185,11.699,2.538,16.942,2.983
				c1.067,0.09,2.159,0.145,3.263,0.195c19.853,4.056,40.387,2.056,60.715,1.777c11.883-0.164,23.704-1.102,35.501-2.38
				c22.718-1.469,45.417-4.327,67.877-7.507c5.536-0.783,11.053-1.648,16.563-2.553
				C2170.343,1258.607,2183.01,1259.014,2195.618,1259.195z"/>
			<path style="fill:#384678;" d="M2235.154,1260.6c-13.124-1.715-26.34-1.213-39.536-1.404
				c-12.608-0.181-25.275-0.589-37.896-0.137c-5.51,0.905-11.027,1.77-16.563,2.553c-16.014,2.268-32.153,4.347-48.332,5.9
				c11.9,0.436,23.761,1.433,35.445,3.533c10.329,1.856,21.653,4.5,30.128,11.051c4.846,3.747,8.26,9.129,6.069,15.311
				c-2.038,5.753-7.442,10.041-12.273,13.406c-7.446,5.189-15.716,9.207-23.985,12.895c-3.872,1.726-7.785,3.356-11.717,4.943
				c13.1-2.762,26.129-5.878,39.012-9.726c15.843-4.732,30.946-10.99,46.307-17.007c10.252-4.017,20.487-8.106,30.41-12.891
				c5.318-2.563,10.589-5.313,15.531-8.549c3.292-2.156,7.3-4.721,9.246-8.288c0.452-0.828,0.651-1.313,0.241-2.319
				c-0.693-1.699-2.348-3.073-3.85-4.04C2248.167,1262.466,2241.183,1261.389,2235.154,1260.6z"/>
			<path style="fill:#384678;" d="M2315.359,1202.742c-3.984,4.041-10.097,6.462-15.095,8.921
				c-6.682,3.288-13.517,6.269-20.429,9.036c-13.811,5.529-27.963,10.171-42.25,14.303c-28.373,8.206-57.245,14.591-86.422,19.161
				c-6.694,1.049-13.416,2.04-20.149,2.986c-14.476-0.047-28.955,2.383-43.293,4.149c-11.141,1.373-22.313,2.624-33.52,3.305
				c-24.474,0.917-48.98-0.125-73.459-0.571c-0.884-0.156-1.771-0.288-2.649-0.472c-4.659-0.979-8.893-3.072-13.477-4.201
				c-2.832-0.697-5.446-0.325-7.901,0.8c-1.388-0.784-2.634-1.772-3.572-3.079c-3.01-4.194-1.507-9.916,0.01-14.367
				c4.036-11.846,10.337-23.093,17.535-33.294c7.857-11.133,18.246-20.301,31.043-25.308c13.896-5.438,29.369-4.933,44.06-5.471
				c15.429-0.566,30.868-0.844,46.305-0.953c29.856-0.215,59.5,1.391,89.293,3.118c28.552,1.655,57.302,1.673,85.702,5.319
				c12.405,1.591,24.841,3.877,36.846,7.444c3.611,1.074,7.659,2.28,10.698,4.591
				C2316.816,1199.815,2317.306,1200.769,2315.359,1202.742z"/>
			<path style="fill:#384678;" d="M2314.636,1198.158c-3.039-2.311-7.087-3.516-10.698-4.591
				c-12.005-3.567-24.441-5.853-36.846-7.444c-20.647-2.65-41.477-3.384-62.283-4.223c0.201,0.349,0.419,0.687,0.611,1.041
				c5.751,10.583,6.686,23.02,1.389,33.988c-6.807,14.091-20.967,22.507-34.944,28.174c-10.792,4.375-21.796,7.914-32.943,10.873
				c4.083-0.597,8.173-1.177,12.24-1.814c29.178-4.57,58.049-10.955,86.422-19.161c14.286-4.132,28.438-8.774,42.25-14.303
				c6.913-2.767,13.747-5.748,20.429-9.036c4.998-2.459,11.111-4.88,15.095-8.921
				C2317.306,1200.769,2316.816,1199.815,2314.636,1198.158z"/>
		</g>
		<path style="fill:#2B3544;" d="M2101.076,1146.648c-10.409,1.54-20.679,4.118-30.792,7.108c0.159-0.307,0.367-0.595,0.485-0.918
			c2.5-6.858-5.386-11.182-10.973-12.042c-8.714-1.342-18.072-0.127-26.845,0.141c-2.656,0.08-5.306,0.201-7.956,0.34
			c-0.157-0.481-0.392-0.925-0.74-1.288c-8.166-8.515-20.927-11.236-32.164-12.815c-12.548-1.764-25.22-1.95-37.862-2.288
			c-34.342-0.919-68.755-0.551-103.111-0.448c-9.25,0.027-18.516,0.301-27.744,0.984c-0.087,0.006-0.177,0.014-0.263,0.021
			c-0.283-0.709-0.755-1.26-1.468-1.336c-14.714-1.583-30.401-4.881-44.647,0.932c-14.491,5.914-24.38,19.858-30.848,33.521
			c-7.085,14.969-11.217,31.072-15.021,47.126c-4.068,17.173-8.094,34.307-10.854,51.753c-5.917,37.382-7.386,75.512-4.938,113.267
			c2.14,32.984,5.979,67.784,20.025,98.111c3.668,7.92,8.259,15.577,14.116,22.084c4.52,5.019,10.105,10.144,16.706,12.128
			c7.14,2.147,26.54,5.269,29.965-4.486c45.907-14.365,90.081-33.276,130.806-59.265c23.35-14.9,45.337-31.72,66.234-49.887
			c21.1-18.342,40.068-38.314,58.032-59.7c7.418-8.831,14.789-17.921,20.236-28.135c4.645-8.711,8.342-19.271,5.909-29.166
			c3.505-3.667,6.935-7.394,10.253-11.196c4.714-5.402,8.847-11.209,13.334-16.782c3.124-3.878,6.326-7.741,8.867-12.039
			c4.238-7.173,6.593-19.662-4.611-21.682c-5.833-1.052-12.186,0.933-17.7,2.641c-6.428,1.99-12.623,4.597-18.908,6.982
			c-8.457,3.21-16.789,6.505-24.883,10.572c-3.293,1.654-6.566,3.35-9.844,5.04c22.473-15.917,44.888-31.914,66.738-48.682
			c5.547-4.257,11.276-8.29,16.581-12.854c4.949-4.26,11.525-9.853,12.671-16.686
			C2132.371,1142.74,2109.474,1145.405,2101.076,1146.648z"/>
		<path style="fill:#384678;" d="M2123.888,1157.638c-1.638,3.024-4.281,5.543-6.765,7.87c-4.877,4.565-10.268,8.495-15.619,12.474
			c-41.281,30.691-82.43,61.782-125.925,89.318c-42.401,26.842-86.989,49.675-133.332,68.88c-5.812,2.409-11.659,4.74-17.517,7.034
			c-1.006,0.394-0.536,2.523,0.625,2.19c50.089-14.398,97.337-38.118,141.77-65.054c16.465-9.984,32.504-20.591,48.333-31.522
			c0.29,0.162,0.626,0.233,1.029,0.094c16.372-5.682,31.533-14.257,47.812-20.173c10.589-3.847,21.358-8.675,32.496-10.612
			c2.634-0.459,10.157-1.874,11.406,1.87c0.991,2.968-2.761,7.828-4.264,10.065c-2.45,3.642-5.285,6.982-7.992,10.428
			c-4.884,6.214-9.566,12.481-14.892,18.342c-48.638,53.522-109.842,93.992-173.139,128.088
			c-17.648,9.507-35.099,19.494-52.914,28.674c-8.173,4.212-16.448,7.673-25.092,10.78c-8.261,2.969-16.075,6.323-23.101,11.668
			c-0.267,0.203-0.035,0.981,0.3,0.756c6.699-4.546,14.723-6.941,22.408-9.27c8.196-2.486,16.253-5.061,24.116-8.488
			c17.599-7.67,34.513-16.948,51.59-25.694c33.619-17.219,65.694-36.771,96.66-58.401c15.406-10.762,30.391-22.168,44.369-34.745
			c9.218-8.295,18.398-16.838,27.156-25.742c0.108,17.644-14.005,33.951-24.691,46.622c-17.094,20.269-35.055,39.411-54.921,57.013
			c-40.153,35.578-84.729,65.1-133.101,88.3c-25.08,12.027-50.759,22.764-77.052,31.844c-0.86-0.041-1.649-0.097-2.299-0.144
			c-5.292-0.383-11.077-1.184-15.959-3.387c-12.392-5.589-20.638-19.892-26.054-31.642c-13.04-28.29-16.557-60.747-18.692-91.474
			c-2.443-35.154-1.261-70.546,3.653-105.443c2.368-16.823,5.697-33.415,9.653-49.932c3.507-14.649,6.738-29.408,11.901-43.591
			c5.581-15.327,13.816-31.513,28.349-40.112c7.511-4.444,15.673-5.307,23.997-5.243c-0.601,0.182-1.207,0.352-1.796,0.555
			c-1.06,0.362-0.686,2.618,0.463,2.568c7.885-0.336,15.743-1.442,23.647-1.787c8.154-0.357,16.304-0.427,24.464-0.283
			c16.224,0.289,32.436,1.073,48.663,1.164c17.652,0.098,35.303-0.01,52.946,0.561c12.101,0.393,24.242,0.447,36.31,1.496
			c10.621,0.923,23.71,2.275,33.236,8.29c-5.95,0.443-11.892,1-17.828,1.645c-44.914,4.873-88.952,15.109-133.801,20.437
			c-12.131,1.44-24.253,2.924-36.319,4.841c-11.877,1.887-24.326,4.032-35.62,8.269c-0.431,0.161-0.303,1.172,0.199,1.1
			c9.707-1.37,19.297-3.42,29.035-4.653c9.854-1.247,19.714-2.354,29.597-3.354c19.891-2.015,39.735-4.173,59.478-7.367
			c41.647-6.737,83.189-14.215,125.491-15.163c4.834-0.11,9.655-0.374,14.488-0.503c4.205-0.111,9.07-0.302,12.938,1.664
			c0.527,0.267,1.464,1.239,2.016,1.354c0.033,0.024,0.054,0.059,0.085,0.084c-0.88,0.486-2.426,2.225-3.137,2.703
			c-3.033,2.042-6.205,3.675-8.968,6.079c-24.131,7.854-48.032,16.392-71.913,24.968c-26.598,9.551-53.299,18.822-79.593,29.193
			c-12.243,4.828-24.38,9.874-36.724,14.442c-12.125,4.487-24.47,8.711-36.163,14.26c-5.805,2.756-11.44,5.841-16.917,9.202
			c-2.053,1.259-1.079,6.417,1.454,5.092c21.834-11.426,45.489-18.812,68.345-27.829c25.059-9.887,50.063-19.703,75.452-28.729
			c25.37-9.018,50.643-18.314,76.111-27.05c16.372-5.616,32.793-11.394,49.633-15.477c7.574-1.836,15.258-3.43,23.022-4.186
			c5.019-0.488,12.621-1.524,17.065,1.602C2125.123,1155.571,2124.832,1155.893,2123.888,1157.638z"/>
		<path style="fill:#384678;" d="M2020.456,1148.247c-0.977,2.209-2.259,4.304-3.624,6.203
			c-4.395,6.114-10.103,11.233-16.152,15.666c-13.513,9.904-29.078,16.896-44.609,23.052c8.598-3.073,17.199-6.139,25.792-9.225
			c23.881-8.575,47.782-17.112,71.912-24.967c2.763-2.404,5.934-4.038,8.969-6.079c0.71-0.478,2.256-2.218,3.136-2.703
			c-0.031-0.026-0.052-0.061-0.085-0.084c-0.552-0.115-1.49-1.087-2.016-1.354c-3.867-1.967-8.732-1.774-12.938-1.664
			c-4.833,0.129-9.655,0.394-14.489,0.503C2031.042,1147.714,2025.745,1147.937,2020.456,1148.247z"/>
		<path style="fill:#384678;" d="M2096.794,1218.137c-11.137,1.937-21.906,6.765-32.496,10.612
			c-16.279,5.916-31.441,14.49-47.812,20.173c-0.403,0.139-0.739,0.068-1.029-0.094c-15.829,10.932-31.867,21.54-48.333,31.522
			c-15.426,9.351-31.2,18.301-47.306,26.621c4.536-1.711,9.067-3.437,13.613-5.099c13.831-5.054,27.818-9.917,42.191-13.198
			c10.875-2.483,23.381-4.936,34.344-1.59c6.115,1.866,12.607,6.525,11.418,13.655c-1.116,6.699-6.447,12.6-10.919,17.363
			c-7.345,7.824-15.696,14.719-24.142,21.311c-1.058,0.825-2.134,1.628-3.198,2.445c35.611-24.002,68.999-51.189,97.923-83.018
			c5.327-5.862,10.009-12.128,14.893-18.343c2.708-3.445,5.542-6.785,7.992-10.427c1.504-2.237,5.255-7.096,4.264-10.065
			C2106.951,1216.263,2099.427,1217.678,2096.794,1218.137z"/>
		<path style="fill:#384678;" d="M2001.879,1336.954c-30.966,21.63-63.041,41.182-96.661,58.401
			c-3.525,1.806-7.044,3.64-10.563,5.472c-2.918,1.801-5.856,3.583-8.747,5.437c7.257-0.882,14.43-2.367,21.469-4.367
			c32.121-9.127,60.875-27.012,89.24-44.104c1.156-0.698,3.042,0.486,2.231,1.875c-7.82,13.378-17.426,25.598-27.743,37.128
			c-2.489,2.782-5.014,5.553-7.567,8.306c10.339-7.974,20.432-16.3,30.252-25.001c19.866-17.602,37.827-36.744,54.921-57.013
			c10.686-12.67,24.799-28.977,24.691-46.622c-8.759,8.904-17.938,17.448-27.156,25.742
			C2032.27,1314.786,2017.286,1326.192,2001.879,1336.954z"/>
		<path style="fill:#384678;" d="M2123.55,1154.465c-4.445-3.127-12.046-2.09-17.066-1.603c-7.763,0.758-15.447,2.351-23.021,4.187
			c-16.84,4.083-33.261,9.862-49.633,15.477c-18.806,6.451-37.505,13.208-56.215,19.931c1.804-0.033,3.609-0.061,5.414-0.018
			c7.909,0.192,16.048,1.039,23.443,4.03c5.919,2.395,11.244,6.505,13.605,12.607c2.932,7.574,0.678,15.16-3.59,21.708
			c-5.695,8.739-13.916,15.809-21.987,22.281c-6.21,4.98-12.737,9.531-19.078,14.332c0.053-0.033,0.106-0.064,0.159-0.098
			c43.495-27.536,84.643-58.628,125.925-89.318c5.351-3.98,10.742-7.909,15.619-12.474c2.484-2.326,5.126-4.846,6.765-7.87
			C2124.832,1155.893,2125.122,1155.571,2123.55,1154.465z"/>
	</g>
	<g>
		<g>
			<g>
				<path style="fill:#FFDA00;" d="M1496.692,2002.698c-0.862-1.315,8.857-159.356,12.866-239.385l-65.878-0.67
					c6.639,47.633,20.418,202.811-1.959,219.62c-20.456,15.353-222.773,32.054-203.753,42.447
					c14.454,7.898,31.541,9.661,47.712,10.92c16.678,1.297,33.456,1.9,50.162,2.773c10.567,0.553,21.169,0.743,31.763,0.584
					c-15.787,9.82-123.802,70.339-149.528,102.983c-14.87,18.867,157.228-49.093,212.309-78.021c3.296-1.731,6.625-3.398,9.951-5.07
					c-0.316,30.438,0.621,60.866,1.485,91.287c0.282,9.935-3.951,82.425,14.593,67.722c4.014-3.184,5.681-8.413,7.138-13.323
					c12.486-42.054,42.167-163.582,39.519-181.344C1502.032,2016.24,1500.645,2008.722,1496.692,2002.698z"/>
				<path style="fill:#AE5F13;" d="M1451.881,2221.371c-0.877,0-1.723-0.201-2.536-0.603c-8.937-4.421-9.656-33.082-9.102-63.394
					c0.06-3.298,0.107-5.814,0.068-7.164l-0.139-4.876c-0.785-27.521-1.597-55.95-1.37-83.99c-2.58,1.297-5.154,2.601-7.71,3.944
					c-44.078,23.15-206.693,90.019-214.859,80.187c-0.663-0.8-1.093-2.22,0.66-4.441c22.088-28.029,102.911-75.59,137.422-95.9
					c3.005-1.769,5.622-3.308,7.771-4.582c-8.824,0.009-17.644-0.185-26.322-0.636c-4.709-0.246-9.423-0.472-14.141-0.697
					c-11.83-0.563-24.061-1.147-36.059-2.08c-17.208-1.34-33.854-3.197-48.32-11.1c-1.941-1.062-2.163-2.321-2.008-3.189
					c0.998-5.558,27.391-9.94,91.946-19.339c48.689-7.092,103.872-15.128,113.635-22.454c20.498-15.402,9.435-160.351,1.367-218.204
					l-0.242-1.738l69.207,0.704l-0.08,1.571c-1.735,34.685-4.587,84.738-7.103,128.898c-3.078,54.072-5.993,105.206-5.812,109.883
					c3.982,6.25,5.4,14.018,6.415,20.829c2.689,18.06-27.049,139.844-39.564,181.998c-1.387,4.67-3.114,10.482-7.649,14.076
					C1455.427,2220.602,1453.594,2221.371,1451.881,2221.371z M1441.875,2056.415l-0.026,2.481
					c-0.298,28.782,0.537,58.049,1.346,86.352l0.139,4.877c0.037,1.375-0.01,3.941-0.068,7.304
					c-0.284,15.439-1.033,56.447,7.419,60.629c0.472,0.229,1.901,0.936,4.792-1.352c3.502-2.777,5.075-7.334,6.627-12.569
					c12.111-40.789,42.058-163.342,39.476-180.691c-1.031-6.903-2.356-14.13-6.15-19.918c-0.616-0.94-0.534-5.218,5.517-111.413
					c2.477-43.493,5.28-92.701,7.023-127.306l-62.555-0.636c3.18,23.456,8.208,73.178,9.679,119.792
					c1.841,58.431-2.352,91.911-12.463,99.509c-10.38,7.789-63.572,15.535-115.013,23.027
					c-37.857,5.513-84.769,12.344-89.212,16.712c0.078,0.049,0.172,0.108,0.286,0.172c13.941,7.617,30.237,9.426,47.106,10.741
					c11.951,0.929,24.158,1.511,35.968,2.073c4.721,0.226,9.441,0.451,14.156,0.697c10.424,0.544,21.083,0.737,31.66,0.581
					l5.448-0.081l-4.627,2.878c-2.344,1.458-6.72,4.033-12.555,7.466c-34.365,20.225-114.846,67.582-136.584,95.168
					c-0.253,0.323-0.399,0.561-0.481,0.719c9.976,3.635,147.568-47.751,210.903-81.013c3.079-1.618,6.188-3.179,9.297-4.743
					L1441.875,2056.415z"/>
			</g>
			<path style="fill:#FBAC47;" d="M1496.692,2002.697c-0.862-1.316,8.857-159.353,12.866-239.385l-65.878-0.67
				c1.017,7.303,2.204,17.152,3.401,28.624c4.375,0.269,8.693,0.918,12.848,2.239c12.374,3.93,20.044,13.881,22.972,26.292
				c4.469,18.943,4.664,39.585,4.674,58.948c0.012,21.136-1.255,42.243-2.264,63.343c-0.974,20.382-2.184,40.627,1.034,60.86
				c1.37,8.597,2.909,17.19,3.472,25.892c0.566,8.723-0.074,17.5-0.58,26.212c-1.763,30.357-5.264,60.623-10.025,90.661
				c12.521-50.413,25.658-110.419,23.858-122.494C1502.032,2016.237,1500.645,2008.722,1496.692,2002.697z"/>
			<path style="fill:#FBAC47;" d="M1395.221,2020.05c-51.847-6.79-104.608,9.416-156.233,1.165
				c-2.447,1.229-3.026,2.399-1.019,3.496c14.453,7.9,31.539,9.661,47.712,10.921c16.678,1.295,33.456,1.899,50.162,2.772
				c10.567,0.552,21.169,0.743,31.763,0.583c-1.488,0.927-3.799,2.305-6.781,4.064
				C1373.204,2036.672,1384.912,2029.251,1395.221,2020.05z"/>
			<path style="fill:#FBAC47;" d="M1400.063,2053.727c-13.599,7.209-26.735,15.24-40.277,22.546
				c-14.756,7.965-29.986,15.123-44.98,22.626c-31.067,15.543-62.177,31.001-93.391,46.248
				c25.526-1.712,161.206-56.114,208.971-81.2c1.319-0.69,2.654-1.351,3.981-2.026c3.604-8.011,6.658-16.213,8.491-24.815
				C1427.762,2039.73,1413.461,2046.629,1400.063,2053.727z"/>
		</g>
		<g>
			<g>
				<path style="fill:#FFDA00;" d="M2017.77,1597.812c-1.023-1.195-155.535-35.801-233.522-54.201l17.673-63.466
					c43.908,19.622,189.137,76.002,211.505,59.182c20.435-15.381,92.731-205.075,97.425-183.917
					c3.568,16.082,0.51,32.983-2.777,48.868c-3.39,16.38-7.477,32.664-11.283,48.955c-2.407,10.303-5.172,20.538-8.27,30.672
					c13.822-12.434,101.987-99.363,140.497-114.998c22.258-9.037-90.873,137.378-133.976,182.245
					c-2.578,2.683-5.106,5.418-7.636,8.147c29.327,8.159,58.294,17.519,87.275,26.808c9.464,3.034,80.273,19.124,60.993,32.847
					c-4.174,2.971-9.659,3.117-14.781,3.153c-43.869,0.299-168.856-4.979-185.182-12.462
					C2029.293,1606.705,2022.459,1603.284,2017.77,1597.812z"/>
				<path style="fill:#AE5F13;" d="M2217.14,1623.631c-46.938,0.002-165.908-5.209-182.057-12.61
					c-6.262-2.869-13.329-6.388-18.224-11.954c-4.443-1.473-54.342-12.886-107.108-24.954
					c-43.137-9.868-92.033-21.051-125.851-29.029l-1.531-0.361l18.565-66.673l1.603,0.716
					c53.333,23.835,189.508,74.75,209.979,59.355c9.752-7.339,32.814-58.111,53.161-102.905
					c26.981-59.396,38.583-83.594,44.145-82.946c0.88,0.09,2.026,0.653,2.507,2.815c3.566,16.086,0.723,32.592-2.775,49.498
					c-2.439,11.781-5.279,23.688-8.025,35.202c-1.095,4.6-2.193,9.197-3.265,13.793c-1.973,8.442-4.222,16.983-6.707,25.462
					c1.824-1.713,4.036-3.801,6.574-6.202c29.1-27.502,97.253-91.906,130.315-105.33c2.621-1.062,3.865-0.257,4.449,0.602
					c7.168,10.579-102.269,148.187-136.762,184.09c-2.002,2.083-3.972,4.195-5.934,6.311c26.937,7.559,53.955,16.222,80.112,24.609
					l4.83,1.548c1.29,0.414,3.728,1.071,6.923,1.933c29.26,7.895,56.58,16.553,58.339,26.365c0.475,2.635-0.824,5.064-3.853,7.22
					c-4.715,3.357-10.775,3.398-15.647,3.433C2219.709,1623.627,2218.448,1623.631,2217.14,1623.631z M1786.127,1542.501
					c33.741,7.951,81.812,18.947,124.302,28.664c103.642,23.705,107.76,24.809,108.492,25.662v0.002
					c4.502,5.256,11.074,8.535,17.422,11.443c15.945,7.308,141.971,12.59,184.539,12.324c5.462-0.037,10.277-0.28,13.917-2.87
					c3.005-2.141,2.724-3.71,2.634-4.226c-1.665-9.278-41.252-19.959-56.154-23.98c-3.257-0.878-5.742-1.55-7.056-1.972
					l-4.835-1.549c-26.899-8.626-54.716-17.545-82.384-25.241l-2.392-0.666l2.188-2.359c2.37-2.555,4.741-5.112,7.156-7.626
					c49.551-51.578,137.173-169.43,136.456-180.058c-0.174,0.032-0.443,0.107-0.824,0.261
					c-32.537,13.21-100.4,77.341-129.379,104.727c-4.928,4.655-8.622,8.145-10.677,9.993l-4.047,3.641l1.591-5.206
					c3.103-10.147,5.875-20.434,8.243-30.575c1.078-4.601,2.172-9.203,3.271-13.807c2.742-11.493,5.577-23.377,8.006-35.112
					c3.428-16.571,6.221-32.729,2.781-48.232c-0.029-0.131-0.059-0.237-0.086-0.323c-5.431,3.053-25.037,46.217-40.862,81.05
					c-21.498,47.327-43.725,96.266-54.094,104.069c-3.038,2.285-8.148,3.301-14.809,3.302
					c-46.369,0.005-168.341-49.168-196.62-61.602L1786.127,1542.501z"/>
			</g>
			<path style="fill:#FBAC47;" d="M2017.77,1597.812c-1.024-1.195-155.533-35.801-233.523-54.201l17.673-63.466
				c6.733,3.008,15.862,6.886,26.55,11.226c-0.958,4.277-1.534,8.605-1.422,12.962c0.335,12.979,7.761,23.113,18.869,29.377
				c16.953,9.56,36.727,15.486,55.324,20.881c20.299,5.888,40.927,10.539,61.475,15.436c19.849,4.732,39.632,9.198,58.172,17.917
				c7.878,3.705,15.704,7.572,23.906,10.536c8.222,2.968,16.83,4.794,25.341,6.729c29.65,6.748,59.696,11.801,89.874,15.579
				c-51.906-1.99-113.199-6.055-124.297-11.142C2029.292,1606.705,2022.459,1603.284,2017.77,1597.812z"/>
			<path style="fill:#FBAC47;" d="M2062.652,1505.167c7.893-51.692,38.13-97.866,44.559-149.749c1.86-2.01,3.145-2.239,3.64-0.008
				c3.571,16.082,0.512,32.983-2.776,48.868c-3.392,16.379-7.478,32.664-11.283,48.954c-2.407,10.303-5.172,20.539-8.271,30.673
				c1.304-1.173,3.269-3.009,5.789-5.383C2084.741,1488.638,2074.357,1497.823,2062.652,1505.167z"/>
			<path style="fill:#FBAC47;" d="M2093.656,1519.181c10.704-11.059,22.072-21.444,32.854-32.42
				c11.753-11.96,22.865-24.6,34.241-36.917c23.567-25.52,47.066-51.105,70.391-76.849
				c-8.741,24.044-98.723,139.249-136.101,178.155c-1.03,1.074-2.036,2.173-3.054,3.259c-8.696,1.235-17.425,1.888-26.197,1.259
				C2072.507,1541.897,2083.113,1530.078,2093.656,1519.181z"/>
		</g>
	</g>
	<g>
		<g>
			<g>
				<path style="fill:#F04923;" d="M1775.344,945.097c-87.172-55.832-194.407-80.988-298.609-104.632
					c-50.668-11.497-101.367-23.842-150-42.362c-12.873-4.903-25.561-10.277-38.002-16.139
					c-22.122-14.707-46.29-26.16-68.005-41.479c-24.954-17.604-48.209-39.231-77.307-49.92
					c-42.704-15.687-91.17-1.837-130.992,15.778c-22.516,9.959-44.039,22.153-64.534,35.777
					c-6.236,2.776-12.282,6.338-18.062,10.771c-5.863,4.497-11.501,9.376-16.972,14.471c-5.817,4.698-11.445,9.591-16.726,14.76
					c-5.204,5.096-9.585,10.577-13.214,16.358c-16.382,18.364-31.495,37.949-44.534,58.833
					c-23.064,36.934-43.622,82.956-34.125,127.449c6.471,30.317,24.596,56.393,38.498,83.584
					c12.098,23.661,20.021,49.204,31.455,73.182c4.046,13.146,7.575,26.465,10.609,39.902
					c11.464,50.763,16.523,102.697,20.746,154.48c4.242,51.989,7.57,104.129,15.415,155.739
					c8.127,53.472,21.507,106.193,44.827,155.184c38.387,80.646,105.068,149.422,188.593,183.002
					c91.416,36.752,189.197,18.167,279.801-11.709c244.433-80.599,487.967-315.768,503.722-585.199
					C1944.888,1113.858,1873.034,1007.668,1775.344,945.097z"/>
				<path style="fill:#526075;" d="M1264.963,1851.753c-36.767,0-74.335-5.724-111.123-20.516
					c-80.103-32.203-149.136-99.179-189.393-183.753c-21.062-44.248-35.767-95.149-44.957-155.607
					c-6.533-42.983-9.994-87.019-13.338-129.605c-0.688-8.749-1.376-17.496-2.087-26.239c-4.042-49.537-8.973-102.254-20.713-154.27
					c-3.052-13.511-6.613-26.898-10.581-39.79c-5.161-10.782-9.731-22.261-14.153-33.364c-5.24-13.162-10.661-26.774-17.206-39.573
					c-3.557-6.96-7.468-13.982-11.25-20.773c-11.075-19.877-22.523-40.432-27.38-63.182c-7.879-36.915,3.349-78.97,34.323-128.567
					c12.35-19.777,27.385-39.641,44.688-59.039c3.605-5.784,8.126-11.38,13.285-16.432c4.951-4.847,10.458-9.704,16.831-14.856
					c5.928-5.52,11.517-10.285,17.005-14.494c5.724-4.391,11.903-8.076,18.366-10.952c21.424-14.268,43.211-26.347,64.539-35.778
					c53.475-23.659,96.686-28.83,132.125-15.816c21.835,8.021,40.568,22.259,58.68,36.028c6.19,4.705,12.59,9.571,18.976,14.076
					c11.744,8.285,24.45,15.573,36.738,22.62c10.368,5.947,21.09,12.094,31.229,18.835c12.031,5.649,24.781,11.063,37.706,15.985
					c49.821,18.972,101.319,31.3,149.794,42.3c98.299,22.305,209.708,47.586,299.093,104.834
					c107.132,68.616,169.695,179.429,163.275,289.191c-7.419,126.921-64.995,252.908-166.499,364.341
					c-91.563,100.524-214.856,181.515-338.26,222.205C1385.16,1835.891,1326.165,1851.753,1264.963,1851.753z M1102.927,685.199
					c-26.135,0-55.877,7.482-89.886,22.526c-21.17,9.364-42.808,21.359-64.311,35.655c-6.466,2.9-12.438,6.464-17.974,10.711
					c-5.414,4.152-10.932,8.854-16.865,14.379c-6.38,5.157-11.814,9.955-16.698,14.733c-4.99,4.884-9.359,10.294-12.99,16.081
					c-17.341,19.474-32.274,39.198-44.536,58.83c-30.538,48.899-41.636,90.223-33.927,126.334
					c4.762,22.308,16.099,42.661,27.06,62.344c3.797,6.814,7.721,13.861,11.305,20.868c6.609,12.925,12.054,26.602,17.32,39.83
					c4.405,11.056,8.958,22.49,14.153,33.386c4.072,13.171,7.653,26.635,10.72,40.221c11.788,52.208,16.727,105.045,20.779,154.691
					c0.714,8.745,1.402,17.496,2.09,26.247c3.341,42.532,6.797,86.512,13.312,129.386c9.146,60.163,23.765,110.786,44.697,154.763
					c39.935,83.897,108.383,150.324,187.792,182.248c97.115,39.04,199.988,14.235,278.764-11.742
					c122.924-40.532,245.746-121.218,336.97-221.368c101.032-110.916,158.336-236.26,165.716-362.482
					c6.356-108.673-55.676-218.441-161.886-286.47l0,0c-88.94-56.962-200.078-82.181-298.131-104.43
					c-48.582-11.026-100.197-23.382-150.202-42.424c-12.995-4.948-25.821-10.393-38.11-16.184
					c-10.251-6.794-20.926-12.917-31.253-18.84c-12.349-7.081-25.117-14.404-36.977-22.771c-6.433-4.538-12.854-9.419-19.063-14.14
					c-17.938-13.633-36.484-27.732-57.896-35.596C1130.599,687.466,1117.305,685.199,1102.927,685.199z"/>
			</g>
		</g>
		<g style="opacity:0.38;">
			<path style="fill:#9FA1A4;" d="M1775.344,945.097c-87.172-55.832-194.407-80.987-298.609-104.632
				c-50.668-11.497-101.367-23.842-150-42.362c-12.873-4.903-25.561-10.277-38.002-16.139c-22.121-14.707-46.29-26.16-68.005-41.479
				c-24.954-17.604-48.208-39.231-77.307-49.92c-42.704-15.687-91.17-1.838-130.992,15.779
				c-22.516,9.958-44.039,22.152-64.534,35.776c-6.236,2.776-12.282,6.339-18.062,10.771c-5.863,4.497-11.501,9.377-16.972,14.471
				c-5.817,4.698-11.445,9.591-16.726,14.76c-5.204,5.096-9.585,10.577-13.214,16.358c-16.382,18.364-31.495,37.95-44.534,58.833
				c-23.065,36.934-43.622,82.957-34.125,127.449c6.471,30.317,24.596,56.392,38.498,83.584
				c12.098,23.661,20.021,49.205,31.456,73.182c4.045,13.146,7.573,26.464,10.608,39.902
				c11.464,50.762,16.523,102.697,20.746,154.479c4.241,51.989,7.57,104.13,15.415,155.74
				c8.127,53.473,21.507,106.193,44.827,155.184c38.387,80.646,105.068,149.422,188.593,183.002
				c91.415,36.752,189.196,18.168,279.801-11.709c244.433-80.599,487.967-315.768,503.722-585.199
				C1944.888,1113.858,1873.034,1007.668,1775.344,945.097z M1792.043,1142.532c6.012,10.465,10.919,22.02,11.801,34.179
				c0.074,1.025-0.82,2.203-1.973,1.711c-18.55-7.919-31.098-24.251-46.537-36.488c12.178,11.469,22.73,24.662,31.857,38.671
				c15.812,24.27,27.076,50.881,33.665,79.075c3.005,12.852,5.245,26.414,3.947,39.645c-1.028,10.459-4.773,20.953-14.249,26.517
				c-0.579,0.339-1.373,0.079-1.794-0.374c-6.224-6.713-10.596-14.465-14.197-22.653c-3.46,34.13-12.092,67.69-24.907,99.613
				c-19.316,48.112-47.439,92.36-79.935,132.602c-32.86,40.694-70.282,77.6-110.165,111.378
				c-45.18,38.265-94.594,73.446-151.34,92.161c-28.796,9.496-59.52,15.145-89.87,12.001c-26.646-2.76-51.959-11.605-77.111-20.396
				c19.677,14.681,42.648,24.211,62.827,38.218c1.014,0.704,0.811,2.602-0.559,2.744c-45.003,4.724-83.878-20.391-120.689-42.907
				c11.522,18.126,30.856,31.861,36.669,53.105c0.197,0.717-0.436,1.715-1.208,1.765c-3.933,0.252-7.858,0.251-11.787-0.077
				c-17.622-1.473-34.475-8.323-49.831-16.786c-16.581-9.14-31.895-20.545-46.113-33.011c-14.379-12.609-27.58-26.188-38.492-41.953
				c-12.932-18.683-22.82-39.275-30.079-60.78c-14.393-42.647-18.761-88.028-23.313-132.574
				c-4.547-44.516-8.449-89.244-17.683-133.098c-5.098-24.207-11.955-48.165-21.44-70.976
				c-11.701-21.193-24.359-41.855-38.361-61.73c-0.613-0.87-0.399-1.794,0.489-2.355c10.549-6.654,24.074-3.358,34.889,0.858
				c10.241,3.992,20.753,9.306,29.693,15.736c4.67,3.36,8.986,7.269,13.848,10.354c3.754,2.382,7.465,3.515,10.397-0.606
				c7.865-11.049,4.631-25.04,1.009-36.931c-3.601-11.822-8.716-23.802-8.579-36.364c0.016-1.333,1.834-1.837,2.649-0.883
				c7.844,9.166,13.504,20.127,20.892,29.67c5.814,7.509,14.792,18.954,25.523,18.263c11.956-0.771,17.029-14.907,17.926-24.879
				c1.221-13.591-1.626-27.384-4.157-40.669c-2.104-11.048-5.255-22.88-4.102-34.216c0.136-1.333,1.74-1.834,2.65-0.883
				c8.323,8.701,14.007,19.9,20.782,29.77c3.075,4.476,6.294,8.923,10.085,12.829c2.775,2.86,6.288,6.02,10.396,6.609
				c4.365,0.626,7.832-2.454,10.255-5.738c4.505-6.102,7.22-13.705,9.133-20.975c9.204-34.976-2.613-72.717-14.48-105.568
				c-0.501-1.39,0.858-2.708,2.203-1.91c12.824,7.613,25.272,15.967,38.82,22.283c11.829,5.516,24.802,9.672,38.008,8.727
				c13.452-0.961,28.134-7.523,35.77-19.044c6.173-9.314,3.92-20.041-0.38-29.61c-4.694-10.453-11.193-19.981-16.072-30.348
				c-0.401-0.852,0.107-1.995,1.085-2.138c12.209-1.78,24.683,1.772,36.448,4.657c11.488,2.817,23.643,6.236,35.587,5.029
				c9.753-0.987,20.578-6.463,23.498-16.512c2.7-9.293-1.441-19.521-4.974-28.004c-3.503-8.404-8.012-16.782-9.592-25.832
				c-0.184-1.053,0.63-1.733,1.593-1.786c7.785-0.438,15.895,2.002,23.453,3.565c8.47,1.753,17.106,3.636,25.791,3.783
				c6.233,0.105,14.234-0.872,14.879-8.505c0.635-7.493-3.553-15.445-6.538-22.059c-2.849-6.314-6.458-12.794-7.655-19.691
				c-0.178-1.031,0.898-2.196,1.972-1.71c18.315,8.285,32.337,22.89,48.395,34.564c17.45,12.689,38.423,20.964,58.361,28.894
				c18.388,7.313,37.073,13.841,55.632,20.701c18.762,6.936,36.963,14.865,55.054,23.397c35.951,16.954,71.196,35.78,103.714,58.736
				c22.244,15.703,42.897,34.577,61.021,54.862C1776.045,1118.812,1784.928,1130.15,1792.043,1142.532z"/>
		</g>
	</g>
	<g>
		<g>
			<path style="fill:#464648;" d="M842.862,426.498c-84.412-43.841-174.475-9.387-211.067,23.288
				c-37.516,31.61-84.348,115.903-52.872,205.661c71.485,203.847,262.756,425.375,309.947,642.041
				c2.446,11.231,53.094-109.682,53.02-156.385c1.213,1.47,2.427,2.94,3.648,4.404c3.665,4.404,7.178,8.929,10.934,13.259
				c4.384,5.056,9.044,9.972,14.335,14.094c4.601,3.583,10.063,6.888,15.986,7.487c6.443,0.652,12.616-1.917,16.222-7.378
				c3.865-5.855,4.885-13.23,5.1-20.1c0.292-9.324-0.925-18.695-2.6-27.849c-1.985-10.861-4.705-21.597-7.856-32.21
				c4.544,3.581,9.193,7.035,13.942,10.327c17.837,12.363,40.079,24.76,62.32,17.104c11.081-3.814,20.438-12.165,26.028-22.391
				c5.499-10.06,7.34-21.802,7.17-33.152c-0.183-12.02-2.575-23.721-5.648-35.296c-3.654-13.764-7.828-27.395-12.73-40.768
				c-1.092-2.979-2.232-5.953-3.4-8.921c4.227,3.21,8.537,6.32,12.975,9.27c20.897,13.888,44.86,25.363,70.141,27.664
				c12.172,1.108,24.386-0.066,35.986-3.993c11.111-3.761,22.282-10.161,27.018-21.464c4.739-11.31,2.502-24.123-0.781-35.5
				c-5.02-17.4-12.78-33.983-22.18-49.431c-1.08-1.775-2.215-3.511-3.352-5.245c4.994,2.206,9.991,4.404,14.964,6.653
				c21.802,9.853,44.503,21.348,68.904,22.116c5.806,0.183,11.645-0.369,17.251-1.927c4.777-1.326,9.628-3.321,12.988-7.11
				c5.73-6.46,3.636-15.359-0.057-22.255c-5.108-9.536-12.743-17.574-20.115-25.379c-5.616-5.945-11.38-11.746-17.262-17.428
				c45.484,5.449,149.994-32.261,140.168-36.574C1186.156,715.62,1034.566,526.062,842.862,426.498z"/>
			<path style="fill:#292929;" d="M889.474,1299.732c-0.811,0-1.771-0.493-2.08-1.922
				c-26.539-121.838-99.27-246.151-169.608-366.371c-56.072-95.836-109.032-186.357-140.287-275.491
				c-32.026-91.32,15.711-175.629,53.323-207.318c36.652-32.733,126.856-68.079,212.736-23.474
				c85.052,44.173,161.388,105.364,242.203,170.148c101.105,81.048,205.653,164.855,336.837,222.421
				c1.464,0.644,1.706,1.895,1.468,2.771c-2.507,9.177-93.841,39.705-138.146,37.066c4.992,4.894,9.779,9.764,14.263,14.513
				l0.227,0.24c7.359,7.791,14.971,15.848,20.12,25.464c2.973,5.542,6.906,16.028-0.142,23.971
				c-3.962,4.467-9.727,6.457-13.716,7.563c-5.447,1.513-11.407,2.167-17.702,1.981c-22.351-0.704-43.09-10.19-63.146-19.364
				c-2.119-0.969-4.23-1.935-6.333-2.885c-3.439-1.554-6.887-3.085-10.338-4.61c0.211,0.345,0.428,0.69,0.637,1.039
				c10.059,16.53,17.575,33.284,22.343,49.797c3.04,10.542,5.872,24.216,0.72,36.505c-4.163,9.94-13.559,17.447-27.925,22.31
				c-11.432,3.871-23.754,5.24-36.609,4.068c-22.18-2.021-46.014-11.411-70.839-27.912c-2.867-1.904-5.787-3.943-8.837-6.177
				c0.515,1.349,1.02,2.698,1.515,4.048c4.667,12.733,8.848,26.112,12.775,40.903c2.544,9.601,5.494,22.331,5.695,35.661
				c0.198,13.206-2.277,24.612-7.354,33.9c-5.926,10.84-15.715,19.259-26.86,23.095c-22.93,7.893-46.076-5.093-63.673-17.29
				c-3.427-2.377-6.89-4.897-10.336-7.526c2.817,9.906,4.984,19.071,6.598,27.895c2.07,11.316,2.876,20.002,2.621,28.167
				c-0.179,5.757-0.926,14.186-5.349,20.885c-3.808,5.773-10.394,8.772-17.636,8.048c-5.22-0.528-10.701-3.078-16.762-7.797
				c-5.876-4.579-10.862-10.045-14.547-14.297c-2.308-2.664-4.527-5.401-6.748-8.14c-1.393-1.719-2.787-3.439-4.204-5.141
				l-1.092-1.318c-2.525,44.866-44.821,153.611-53.598,154.564C889.616,1299.728,889.545,1299.732,889.474,1299.732z
				 M757.187,407.144c-53.542,0-100.498,22.441-124.385,43.77c-37.026,31.198-83.973,114.146-52.452,204.032
				c31.161,88.861,84.05,179.258,140.045,274.965c70.214,120.012,142.813,244.095,169.676,365.999
				c9.213-10.942,50.376-111.993,50.308-154.806l-0.006-4.22l6.323,7.656c1.426,1.711,2.829,3.441,4.234,5.172
				c2.197,2.711,4.396,5.423,6.684,8.061c3.596,4.148,8.45,9.475,14.121,13.892c5.597,4.358,10.572,6.706,15.21,7.175
				c6.079,0.63,11.628-1.887,14.809-6.704c3.997-6.058,4.682-13.925,4.847-19.316c0.251-7.941-0.542-16.432-2.574-27.53
				c-1.834-10.027-4.394-20.51-7.822-32.051l-1.354-4.565l3.74,2.947c4.602,3.625,9.27,7.081,13.872,10.27
				c18.066,12.524,39.44,24.327,60.965,16.918c10.442-3.596,19.627-11.5,25.195-21.687c4.823-8.826,7.172-19.727,6.982-32.406
				c-0.195-13-3.092-25.495-5.596-34.931c-3.903-14.697-8.052-27.99-12.691-40.634c-1.087-2.969-2.222-5.932-3.386-8.888
				l-1.973-5.019l4.296,3.262c4.57,3.472,8.788,6.486,12.896,9.214c24.403,16.219,47.767,25.445,69.439,27.419
				c12.435,1.129,24.335-0.187,35.369-3.92c13.506-4.574,22.292-11.51,26.106-20.616c4.785-11.416,2.067-24.433-0.839-34.496
				c-4.691-16.257-12.101-32.764-22.018-49.066c-1.072-1.761-2.197-3.482-3.324-5.2l-2.808-4.282l7.065,3.121
				c4.203,1.858,8.407,3.715,12.594,5.606c2.104,0.952,4.222,1.92,6.344,2.893c19.783,9.049,40.239,18.405,61.983,19.089
				c6.022,0.197,11.646-0.44,16.798-1.872c5.754-1.596,9.651-3.711,12.264-6.654c5.827-6.573,2.338-15.69-0.26-20.539
				c-4.961-9.261-12.428-17.166-19.653-24.813l-0.228-0.242c-5.361-5.674-11.15-11.521-17.214-17.38l-3.23-3.122l4.46,0.534
				c42.17,5.057,131.278-26.737,138.727-33.973c-131.26-57.735-235.781-141.519-336.857-222.547
				c-80.697-64.688-156.919-125.788-241.707-169.823C813.592,412.999,784.528,407.144,757.187,407.144z"/>
		</g>
		<path style="fill:#58595B;" d="M846.892,1136.861c-13.47-34.084-29.044-67.299-45.556-100.006
			c-20.132-39.877-41.071-79.332-62.466-118.543c-43.941-80.526-89.66-160.144-131.062-242.029
			c-14.579-28.832-23.05-60.413-21.358-92.876c1.595-30.616,11.747-59.876,25.4-87.087c10.833-21.589,23.931-42.482,39.674-60.977
			c-7.622,4.68-14.28,9.578-19.728,14.443c-37.517,31.61-84.348,115.903-52.872,205.661
			c71.021,202.523,260.208,422.496,308.942,637.816C881.93,1239.614,866.72,1187.04,846.892,1136.861z"/>
		<path style="opacity:0.51;fill:#58595B;" d="M1421.988,819.11c-235.178-103.203-386.585-291.988-577.537-391.774
			c-4.302,3.509-8.41,7.286-12.241,11.452c-13.649,14.842-24.132,32.591-29.693,52.016c-5.299,18.509-5.118,38.907-1.632,57.734
			c3.497,18.888,10.908,37.076,22.356,52.55c0.534,0.722,0.498,1.982-0.49,2.355c-21.639,8.161-41.649,25.373-49.125,47.723
			c-0.401,1.195-1.755,1.234-2.574,0.504c-21.099-18.806-49.059-26.798-76.978-25.943c-19.775,0.606-40.611,4.52-57.528,15.222
			c-14.655,9.271-27.308,22.035-37.469,36.017c-2.682,3.688-5.227,7.545-7.588,11.529c23.399,57.57,55.03,116.424,89.177,176.081
			c5.082,0.019,10.165-0.199,15.214-0.789c11.676-1.363,23.516-4.378,34.2-9.328c11.839-5.485,22.529-13.236,35.111-17.077
			c0.63-0.192,1.381,0.287,1.644,0.835c1.258,2.616,2.308,5.32,3.267,8.06c4.765,13.627,7.734,27.852,13.364,41.183
			c2.534,6,5.609,12.043,10.26,16.694c3.806,3.806,8.909,6.118,14.066,7.448c12.219,3.154,25.566,1.889,37.888,0.084
			c13.867-2.033,27.537-5.362,40.984-9.27c30.078-8.74,59.32-20.363,85.135-38.378c29.046-20.266,52.782-47.13,70.748-77.561
			c18.612-31.529,31.063-66.344,39.581-101.854c0.25-1.046,1.486-1.176,2.27-0.772c26.192,13.532,51.018,29.477,75.504,45.85
			c12.449,8.326,24.707,16.597,37.704,24.039c13.648,7.813,27.39,15.465,40.842,23.617c13.236,8.023,26.472,16.403,38.282,26.456
			c7.312,6.226,16.919,14.616,18.057,24.844c0.081,0.716-0.211,1.275-0.834,1.644c-9.32,5.507-20.214,7.362-30.922,7.265
			c-21.054-0.192-41.903-6.972-61.268-15.032c6.397,5.239,12.75,10.535,18.996,15.95c10.361,8.98,20.534,18.205,30.172,27.961
			c7.578,7.672,15.074,15.686,21.065,24.69c3.37,5.068,7.818,12.072,6.162,18.488c-2.307,8.948-15.154,7.878-21.97,6.534
			c-15.384-3.032-29.91-10.692-43.514-18.209c-12.531-6.925-24.597-14.625-37.099-21.597c-0.393-0.218-0.785-0.443-1.179-0.663
			c1.884,3.163,3.735,6.345,5.541,9.553c6.622,11.768,12.746,23.879,17.642,36.476c4.065,10.468,7.535,21.505,8.258,32.776
			c0.548,8.557-0.593,17.772-6.087,24.694c-6.074,7.654-15.785,10.733-25.199,11.586c-17.947,1.623-36.091-2.863-52.681-9.405
			c-21.718-8.564-41.819-21.035-60.469-34.974c-4.785-3.577-9.484-7.273-14.104-11.065c6.192,12.693,11.999,25.58,17.24,38.694
			c5.57,13.941,10.571,28.159,14.338,42.699c3.188,12.307,5.632,25.046,5.518,37.808c-0.084,9.53-1.723,19.874-7.737,27.593
			c-6.189,7.945-15.809,11.102-25.588,11.446c-18.155,0.637-35.068-7.218-49.221-18.056c-12.554-9.614-23.392-21.292-33.309-33.64
			c5.627,13.05,10.752,26.321,14.947,39.886c2.862,9.261,5.333,18.736,6.485,28.379c0.865,7.222,1.198,15.041-1.274,22.007
			c-2.025,5.711-6.188,10.029-12.069,11.714c-9.587,2.749-18.008-2.879-24.548-9.411c-8.988-8.977-15.8-20.075-22.457-30.811
			c-3.254-5.247-6.433-10.542-9.801-15.719c-1.526-2.345-3.106-4.697-4.823-6.933c0.119,0.75,0.245,1.501,0.36,2.251
			c3.167,20.386,5.508,41.048,4.566,61.71c-0.471,10.347-1.8,20.657-4.193,30.739c-2.362,9.948-6.016,19.438-9.951,28.853
			c-5.116,12.246-14.134,31.594-30.614,28.019c-1.778-0.386-3.48-1.006-5.119-1.774c7.574,22.27,13.985,44.512,18.819,66.704
			c2.446,11.231,53.094-109.681,53.02-156.385c1.213,1.47,2.427,2.94,3.648,4.404c3.665,4.403,7.178,8.929,10.933,13.259
			c4.385,5.056,9.044,9.972,14.336,14.094c4.601,3.583,10.063,6.888,15.986,7.487c6.443,0.652,12.616-1.916,16.222-7.379
			c3.865-5.854,4.885-13.229,5.1-20.099c0.292-9.324-0.925-18.695-2.6-27.849c-1.986-10.861-4.705-21.597-7.856-32.209
			c4.544,3.58,9.193,7.034,13.942,10.326c17.836,12.362,40.079,24.76,62.32,17.104c11.081-3.814,20.438-12.165,26.028-22.391
			c5.499-10.06,7.34-21.802,7.17-33.151c-0.183-12.021-2.575-23.721-5.648-35.297c-3.654-13.764-7.828-27.395-12.73-40.769
			c-1.092-2.978-2.231-5.952-3.4-8.92c4.227,3.21,8.537,6.321,12.976,9.271c20.896,13.888,44.86,25.362,70.141,27.664
			c12.172,1.107,24.386-0.067,35.986-3.994c11.111-3.761,22.281-10.161,27.018-21.463c4.739-11.311,2.502-24.124-0.781-35.501
			c-5.02-17.399-12.78-33.983-22.18-49.431c-1.08-1.775-2.214-3.51-3.351-5.245c4.994,2.207,9.991,4.405,14.964,6.653
			c21.804,9.853,44.504,21.348,68.905,22.116c5.806,0.183,11.645-0.369,17.251-1.927c4.778-1.326,9.628-3.321,12.989-7.11
			c5.729-6.459,3.635-15.359-0.059-22.255c-5.107-9.536-12.743-17.574-20.114-25.378c-5.614-5.945-11.38-11.747-17.261-17.429
			C1327.305,861.133,1431.815,823.423,1421.988,819.11z"/>
		<g>
			<g>
				<g>
					<g>
						<path style="fill:#FFFFFF;" d="M1000.307,476.366c35.6,41.041,31.19,103.172-9.851,138.773
							c-41.042,35.6-103.172,31.19-138.774-9.852c-35.601-41.042-31.19-103.172,9.852-138.773
							C902.575,430.913,964.706,435.323,1000.307,476.366z"/>
						<path style="fill:#AFC4C4;" d="M926.061,640.667c-27.973,0-55.795-11.649-75.521-34.389
							c-36.089-41.606-31.601-104.814,10.005-140.907c41.605-36.087,104.814-31.601,140.904,10.004
							c36.089,41.607,31.602,104.816-10.005,140.907C972.579,632.644,949.269,640.667,926.061,640.667z M925.932,444.006
							c-22.508,0-45.11,7.778-63.409,23.65c-40.345,34.997-44.697,96.294-9.698,136.641c35.002,40.347,96.294,44.696,136.642,9.7
							c40.345-34.998,44.697-96.294,9.698-136.642C980.04,455.305,953.054,444.006,925.932,444.006z"/>
					</g>
					<path style="opacity:0.63;fill:#E0E1E2;" d="M861.534,466.514c-41.042,35.6-45.453,97.731-9.852,138.773
						c35.601,41.042,97.732,45.453,138.774,9.852c41.041-35.601,45.452-97.732,9.851-138.773
						C964.706,435.323,902.575,430.913,861.534,466.514z M974.674,596.946c-34.361,29.805-86.379,26.114-116.185-8.248
						c-29.806-34.362-26.113-86.379,8.247-116.184c34.362-29.806,86.38-26.114,116.185,8.247
						C1012.728,515.123,1009.036,567.14,974.674,596.946z"/>
					<g>
						<path style="fill:#05180F;" d="M971.954,499.855c23.634,27.246,20.706,68.491-6.539,92.124
							c-27.245,23.633-68.49,20.705-92.124-6.54c-23.633-27.244-20.704-68.49,6.54-92.123
							C907.076,469.682,948.321,472.61,971.954,499.855z"/>
						<path style="fill:#FFFFFF;" d="M899.221,533.471c6.285,7.246,5.507,18.216-1.74,24.501
							c-7.246,6.286-18.217,5.507-24.503-1.739c-6.284-7.246-5.506-18.216,1.74-24.503
							C881.966,525.445,892.935,526.224,899.221,533.471z"/>
					</g>
				</g>
			</g>
			<g>
				<g>
					<g>
						<path style="fill:#FFFFFF;" d="M761.627,683.403c35.6,41.042,31.19,103.172-9.851,138.773
							c-41.042,35.601-103.172,31.191-138.772-9.851c-35.602-41.042-31.192-103.172,9.851-138.773
							C663.896,637.951,726.028,642.361,761.627,683.403z"/>
						<path style="fill:#AFC4C4;" d="M687.38,847.705c-27.972,0.003-55.793-11.65-75.521-34.39
							c-17.482-20.154-26.068-45.911-24.179-72.523s14.029-50.898,34.185-68.381c41.605-36.087,104.813-31.602,140.904,10.003
							c17.482,20.154,26.071,45.911,24.183,72.523c-1.89,26.615-14.033,50.898-34.189,68.383
							C733.899,839.683,710.589,847.704,687.38,847.705z M687.25,651.044c-22.507,0-45.109,7.779-63.408,23.651
							c-19.541,16.953-31.314,40.501-33.148,66.31c-1.833,25.808,6.495,50.784,23.45,70.328
							c34.996,40.348,96.296,44.697,136.641,9.699c19.544-16.951,31.318-40.501,33.148-66.31
							c1.834-25.807-6.495-50.785-23.45-70.328C741.36,662.344,714.373,651.044,687.25,651.044z"/>
					</g>
					<path style="opacity:0.63;fill:#E0E1E2;" d="M622.855,673.552c-41.043,35.6-45.453,97.731-9.851,138.773
						c35.599,41.042,97.73,45.453,138.772,9.851c41.041-35.6,45.452-97.731,9.851-138.773
						C726.028,642.361,663.896,637.951,622.855,673.552z M735.995,803.984c-34.361,29.805-86.379,26.114-116.185-8.248
						c-29.805-34.361-26.113-86.379,8.249-116.184c34.36-29.807,86.378-26.114,116.184,8.247
						C774.049,722.16,770.356,774.178,735.995,803.984z"/>
					<g>
						<path style="fill:#05180F;" d="M733.275,706.893c23.633,27.246,20.706,68.491-6.54,92.124
							c-27.244,23.633-68.49,20.705-92.123-6.54c-23.633-27.245-20.705-68.49,6.541-92.123
							C668.398,676.72,709.642,679.648,733.275,706.893z"/>
						<path style="fill:#FFFFFF;" d="M660.541,740.508c6.286,7.246,5.508,18.216-1.739,24.502
							c-7.245,6.286-18.216,5.507-24.501-1.74c-6.286-7.246-5.507-18.216,1.74-24.502
							C643.287,732.482,654.257,733.261,660.541,740.508z"/>
					</g>
				</g>
			</g>
		</g>
		<g>
			<path style="fill:#B16413;" d="M1029.67,663.89c-4.197-0.28-8.476,0.759-12.541,1.704c-4.932,1.147-9.856,2.351-14.737,3.703
				c-23.999,6.644-47.956,14.444-70.256,25.629c-22.079,11.073-42.84,25.039-61.221,41.548
				c-8.941,8.029-17.947,16.682-25.108,26.372c-7.092,9.594-12.03,20.532-16.611,31.484c-2.366,5.653-4.622,11.345-6.929,17.021
				c-0.292,0.717-0.323,1.429-0.218,2.074c-3.668,6.275-7.313,12.564-10.995,18.834c-8.098,13.789-17.425,27.3-18.758,43.695
				c-0.082,0.995,0.385,2.082,1.374,2.41c38.594,12.813,80.501,12.071,118.574-2.28c18.663-7.036,36.145-17.277,51.452-30.065
				c16.254-13.582,29.33-30.016,40.836-47.714c12.414-19.096,22.967-39.553,29.702-61.367c3.281-10.625,5.494-21.517,6.608-32.582
				c0.84-8.339,1.551-16.913,0.318-25.25C1040.191,672.545,1037.37,664.404,1029.67,663.89z"/>
			<path style="fill:#FFDA00;" d="M1034.58,673.51c4,6.838,3.011,16.798,2.479,24.349c-0.662,9.399-1.961,18.714-4.196,27.874
				c-5.174,21.202-14.489,41.253-25.704,59.905c-10.653,17.717-22.862,34.79-38.015,48.948
				c-13.927,13.016-29.932,23.7-47.303,31.548c-35.089,15.854-75.164,19.634-112.644,10.873c-4.251-0.993-8.452-2.177-12.62-3.472
				c1.773-15.122,11.089-28.295,18.391-41.263c3.099-5.5,6.115-11.044,9.145-16.58c0.699,0.01,1.446-0.421,2.045-1.643
				c1.854-3.786,3.529-7.65,5.174-11.529c3.205-5.901,6.401-11.807,9.63-17.695c0.365-0.665-0.388-1.758-0.939-0.911
				c-0.671,1.033-1.306,2.089-1.969,3.126c0.63-1.377,1.236-2.764,1.905-4.123c5.263-10.695,12.136-19.75,20.372-28.321
				c16.4-17.072,35.351-31.763,55.709-43.816c20.185-11.95,41.629-20.669,63.89-27.901c11.334-3.682,22.783-6.954,34.31-9.973
				C1019.97,671.407,1030.733,666.932,1034.58,673.51z"/>
		</g>
		<g>
			<path style="fill:#B16413;" d="M1031.422,658.277c-3.165-2.211-6.339-4.413-9.57-6.526c-6.418-4.198-13.042-8.08-19.86-11.594
				c-12.941-6.67-26.575-12.064-40.657-15.775c-27.252-7.182-56.021-7.842-83.479-1.376c-19.011,4.476-36.842,12.667-53.039,23.395
				c0.404-0.373,0.799-0.758,1.207-1.128c0.012-0.01,0.01-0.031,0.021-0.042c-8.569,6.21-16.421,13.37-23.674,21.103
				c-12.21,14.088-22.298,29.963-29.128,47.418c-10.279,26.267-13.691,54.841-10.431,82.834c1.686,14.466,5.099,28.726,9.874,42.478
				c2.515,7.245,5.423,14.353,8.672,21.298c1.635,3.497,3.368,6.95,5.11,10.396c0.937,1.855,1.917,4.24,3.801,5.335
				c1.636,0.951,3.449,0.586,5.173,0.128c4.25-1.128,8.371-2.811,12.38-4.594c8.831-3.927,17.405-7.972,26.693-10.751
				c17.856-5.34,36.576-7.492,55.171-7.681c40.495-0.415,84.699,6.16,118.4,30.256c1.373,0.98,2.441,0.172,3.08-1.089
				c1.338-0.454,2.289-1.397,1.512-2.894c-19.092-36.768-19.358-81.458-13.226-121.489c2.815-18.38,7.589-36.609,15.398-53.531
				c4.062-8.803,9.279-16.72,14.414-24.907c2.331-3.717,4.58-7.559,6.296-11.607c0.698-1.642,1.315-3.387,0.604-5.139
				C1035.348,660.774,1033.126,659.467,1031.422,658.277z"/>
			<path style="fill:#FFDA00;" d="M1029.693,667.514c-1.69,3.816-3.872,7.433-6.098,10.952c-5.047,7.978-10.084,15.75-14.05,24.346
				c-3.593,7.786-6.62,15.817-9.088,24.03c-5.125,17.045-7.869,34.718-9.267,52.437c-2.178,27.61-0.885,56.82,7.805,83.495
				c-0.236,0.743-0.329,1.484-0.158,1.995c0.844,2.507,2.017,4.837,3.254,7.132c-2.098-1.548-4.239-3.039-6.602-4.228
				c-0.48-0.242-1.229-0.254-1.997-0.126c-25.178-12.371-53.913-17.779-81.554-19.521c-17.738-1.12-35.622-0.9-53.221,1.765
				c-8.479,1.284-16.856,3.146-25.073,5.603c-9.068,2.712-17.476,6.601-26.086,10.47c-3.798,1.706-7.687,3.355-11.703,4.488
				c-2.036,0.575-3.134,0.907-4.362-0.949c-3.796-5.738-6.479-12.82-9.183-19.126c-5.803-13.533-10.281-27.632-13.048-42.101
				c-5.207-27.214-4.303-55.431,3.862-81.976c8.113-26.38,22.922-50.116,41.815-70.054c22.408-15.887,47.996-27.194,75.259-31.5
				c27.432-4.331,55.493-1.241,81.698,7.758c13.933,4.783,27.259,11.208,39.836,18.864c5.86,3.569,12.492,7.225,17.637,11.795
				C1031.032,664.538,1030.548,665.58,1029.693,667.514z"/>
			<path style="fill:#FDBB45;" d="M875.205,799.167c-12.109,0.102-24.515,1.656-35.888,5.976
				c-9.797,3.723-18.991,9.713-24.469,18.862c-2.608,4.353-4.07,9.083-4.755,13.947c8.354-3.816,16.717-7.615,25.188-11.161
				c17.391-7.28,35.393-13.582,54.144-16.16c16.373-2.251,32.843-1.359,48.875,2.239c-7.904-4.265-16.638-7.131-25.264-9.27
				C900.697,800.543,887.915,799.059,875.205,799.167z"/>
			<path style="opacity:0.51;fill:#FDBB45;" d="M1011.732,651.268c-12.577-7.656-25.903-14.081-39.836-18.864
				c-26.205-9-54.266-12.09-81.698-7.758c-27.262,4.306-52.851,15.612-75.259,31.5c-2.839,2.997-5.553,6.108-8.199,9.272
				c11.002,3.343,21.492,8.484,31.291,14.45c29.255,17.818,53.595,42.841,76.692,67.831c5.391,5.833,10.671,11.759,16.162,17.503
				c6.237,6.526,12.524,13.013,18.48,19.801c10.849,12.364,22.504,26.875,24.974,43.66c0.144,0.981-0.594,1.827-1.592,1.787
				c-16.273-0.653-32.39-3.187-48.65-4.011c-7.38-0.374-14.784-0.361-22.147,0.281c-8.128,0.706-15.926,2.345-23.76,4.591
				c-15.543,4.453-30.502,10.695-44.988,17.837c-8.626,4.253-16.302,9.736-23.549,15.776c7.884-3.55,15.659-7.039,23.991-9.531
				c8.217-2.458,16.594-4.319,25.073-5.603c17.599-2.665,35.483-2.884,53.221-1.765c27.64,1.743,56.376,7.151,81.554,19.521
				c0.769-0.128,1.517-0.116,1.997,0.126c2.363,1.188,4.504,2.68,6.602,4.228c-1.236-2.295-2.41-4.625-3.254-7.132
				c-0.172-0.51-0.078-1.252,0.158-1.995c-8.69-26.675-9.984-55.885-7.805-83.495c1.398-17.718,4.142-35.392,9.267-52.437
				c2.468-8.213,5.495-16.243,9.088-24.03c3.967-8.596,9.003-16.368,14.05-24.346c2.226-3.518,4.408-7.136,6.098-10.952
				c0.855-1.934,1.339-2.976-0.325-4.451C1024.224,658.493,1017.592,654.837,1011.732,651.268z"/>
		</g>
		<g>
			<path style="fill:#6B7274;" d="M770.387,673.288c-12.075,2.924-21.303,11.874-28.406,21.639
				c-16.19,22.253-23.026,50.867-19.209,78.072c3.172,22.613,15.315,54.575,43.236,52.731c12.845-0.849,22.231-9.753,28.576-20.262
				c7.709-12.763,12.044-27.191,14.049-41.902c2.222-16.282,1.539-33.407-1.604-49.533c-1.77-9.087-4.904-19.944-10.981-27.813
				C791.38,675.756,781.917,670.497,770.387,673.288z"/>
			<path style="fill:#B2BABC;" d="M802.899,714.272c2.78,12.874,3.434,26.355,2.661,39.479c-0.81,13.768-3.318,27.538-8.793,40.258
				c-4.868,11.304-11.811,23.371-24.08,27.644c-9.955,3.468-20.847,0.555-28.666-6.24c-9.39-8.161-14.155-21.48-16.913-33.283
				c-5.69-24.336-2.13-50.529,9.825-72.477c5.837-10.714,13.69-21.817,24.721-27.664
				C784.89,669.675,798.764,695.117,802.899,714.272z"/>
			<path style="opacity:0.66;fill:#B2BABC;" d="M761.654,681.988c-0.031,0.016-0.061,0.04-0.093,0.057
				c8.914,7.433,13.572,20.071,15.55,31.225c3.22,18.167,1.663,38.667-6.195,55.519c-3.214,6.893-7.721,13.507-14.349,17.502
				c-5.792,3.49-13.286,5.823-19.66,2.488c-5.822-3.045-8.813-9.605-10.65-15.585c-0.571-1.86-1.029-3.752-1.43-5.658
				c0.408,4.906,1.157,9.786,2.281,14.594c2.759,11.802,7.524,25.121,16.914,33.283c7.818,6.794,18.711,9.708,28.666,6.24
				c12.269-4.272,19.212-16.339,24.08-27.643c5.475-12.72,7.983-26.49,8.793-40.258c0.773-13.124,0.119-26.606-2.66-39.479
				C798.764,695.117,784.89,669.674,761.654,681.988z"/>
		</g>
		<g>
			<path style="fill:#6B7274;" d="M837.653,650.131c6.93,7.127,17.236,11.764,25.981,14.8c15.521,5.389,32.378,8.483,48.81,8.584
				c14.847,0.093,29.743-2.161,43.467-7.989c11.3-4.797,21.442-12.83,24.097-25.427c5.77-27.381-24.157-43.917-46.093-50.251
				c-26.394-7.622-55.687-4.897-80.004,7.987c-10.671,5.652-20.834,13.524-25.434,25.065
				C824.084,633.919,827.954,644.031,837.653,650.131z"/>
			<path style="fill:#B2BABC;" d="M838.323,615.485c7.346-10.095,19.448-16.301,30.88-20.566
				c23.415-8.735,49.849-8.557,73.137,0.511c11.295,4.399,23.807,10.999,30.559,21.447c5.622,8.699,6.968,19.894,2.129,29.26
				c-5.963,11.542-18.89,16.711-30.767,19.932c-13.367,3.625-27.353,4.162-41.097,3.018c-13.102-1.088-26.356-3.64-38.709-8.21
				C846.078,654.076,822.85,636.746,838.323,615.485z"/>
			<path style="opacity:0.66;fill:#B2BABC;" d="M838.323,615.484c0.021-0.029,0.047-0.055,0.069-0.083
				c6.1,9.871,17.953,16.271,28.717,19.804c17.529,5.753,38.043,7.109,55.837,1.709c7.277-2.208,14.462-5.736,19.353-11.733
				c4.272-5.24,7.64-12.331,5.24-19.11c-2.192-6.193-8.263-10.081-13.923-12.744c-1.761-0.829-3.57-1.548-5.4-2.216
				c4.798,1.098,9.524,2.527,14.124,4.319c11.294,4.399,23.807,11,30.559,21.447c5.622,8.699,6.967,19.894,2.129,29.26
				c-5.964,11.542-18.891,16.711-30.767,19.932c-13.367,3.624-27.353,4.161-41.097,3.018c-13.102-1.089-26.356-3.642-38.709-8.211
				C846.077,654.076,822.85,636.746,838.323,615.484z"/>
		</g>
		<g>
			<path style="fill:#F36D21;" d="M869.933,1020.429c-2.788-2.838-6.309-6.435-10.456-7.094c-4.758-0.756-7.37,4.287-7.735,8.278
				c-1.351,14.829,5.874,28.405,13.28,40.684c0.825,1.369,1.662,2.731,2.498,4.094c0.669,1.094,1.307,2.487,2.198,3.524
				c1.841,3.243,4.017,6.677,7.174,8.725c3.982,2.581,8.41,1.165,11.273-2.371c3.322-4.103,3.961-9.397,3.463-14.491
				c-0.989-10.132-6.429-20.062-11.747-28.519C877.009,1028.69,873.72,1024.282,869.933,1020.429z"/>
			<path style="fill:#F36D21;" d="M833.619,1029.339c-0.301-0.367-0.693-0.603-1.172-0.707c-0.305-0.02-0.611-0.038-0.917-0.058
				c-0.658,0.098-1.24,0.364-1.746,0.801c-0.247,0.262-0.495,0.524-0.744,0.787c-0.486,0.655-0.825,1.377-1.021,2.171
				c-0.125,0.539-0.186,1.095-0.258,1.641c-0.019,0.137-0.03,0.276-0.03,0.415c-0.002,0.07,0.001,0.14,0.003,0.212
				c0.018,0.441,0.03,0.886,0.074,1.326c0.014,0.138,0.037,0.274,0.071,0.409c0.094,0.395,0.196,0.817,0.332,1.199
				c0.165,0.492,0.444,0.898,0.837,1.214c0.104,0.133,0.225,0.248,0.36,0.346c0.019,0.013,0.037,0.025,0.056,0.038
				c0.084,0.056,0.172,0.105,0.263,0.148c0.452,0.218,0.893,0.45,1.384,0.553c0.526,0.119,1.032,0.062,1.519-0.169
				c0.532-0.261,0.974-0.63,1.327-1.109c0.405-0.548,0.69-1.152,0.853-1.814c0.168-0.661,0.201-1.329,0.101-2.002
				c-0.016-0.073-0.019-0.149-0.032-0.223c0.03-0.406,0.024-0.779-0.051-1.237c-0.013-0.079-0.044-0.15-0.063-0.226
				c-0.003-0.01-0.002-0.021-0.005-0.031c0.005-0.036,0-0.074,0.006-0.11c-0.004,0.024-0.007,0.049-0.011,0.074
				c-0.018-0.084-0.028-0.168-0.041-0.252c0.002-0.19,0.071-0.377,0.048-0.569c0.012-0.561-0.094-1.103-0.317-1.626
				C834.282,1030.053,834.007,1029.653,833.619,1029.339z"/>
			<g>
				<path style="fill:#F36D21;" d="M875.963,1148.955c-5.536,4.751-8.249,13.199-4.882,20.005c0.942,1.901,1.951,3.254,3.502,4.688
					c0.255,0.236,0.524,0.473,0.802,0.697c1.419,4.285,4.048,8.644,7.677,11.365c1.207,0.906,3.103,0.598,4.142-0.429
					c2.888-2.851,4.462-6.406,4.787-10.454c0.284-3.535-0.448-7.035-1.444-10.4c-1.603-5.41-4.567-10.638-8.108-15.022
					C880.756,1147.322,877.955,1147.244,875.963,1148.955z"/>
				<path style="fill:#F36D21;" d="M882.346,1177.732c0.007-0.024,0.014-0.046,0.021-0.07c0.009-0.124,0.006-0.242,0.021-0.367
					c-0.018,0.045-0.031,0.069-0.049,0.138C882.335,1177.511,882.344,1177.633,882.346,1177.732z"/>
			</g>
			<path style="fill:#F36D21;" d="M914.259,1076.332c-0.793-0.539-1.664-0.758-2.616-0.654c-0.983,0.145-1.852,0.542-2.605,1.195
				c-0.661,0.532-1.181,1.172-1.56,1.919c-0.522,0.754-0.881,1.585-1.073,2.496c-0.301,1.181-0.361,2.373-0.181,3.577
				c0.153,1.05,0.539,2.005,1.159,2.864c0.574,0.774,1.324,1.289,2.252,1.543c0.086,0.022,0.174,0.042,0.264,0.055
				c0.038,0.005,0.075,0.01,0.113,0.013c0.227,0.018,0.484,0.03,0.683,0.044c0.144,0.009,0.454,0.035,0.68,0.043
				c0.018,0,0.036,0,0.052,0c0.03,0,0.059-0.003,0.089-0.007c0.014-0.002,0.028-0.004,0.042-0.008
				c0.005-0.001,0.012-0.003,0.019-0.005c0.164-0.037,1.127-0.317,1.289-0.37c0.024-0.009,0.049-0.017,0.071-0.029
				c0.005-0.003,0.01-0.006,0.016-0.009c0.029-0.017,1.17-0.748,1.196-0.768c0.01-0.007,0.021-0.013,0.03-0.022
				c0.35-0.368,0.697-0.737,1.047-1.106c0.282-0.468,0.564-0.936,0.846-1.403c0.196-0.549,0.393-1.099,0.589-1.649
				c0.242-0.842,0.314-1.692,0.214-2.551c0.03-0.534-0.051-1.052-0.246-1.551c-0.07-0.495-0.253-0.945-0.545-1.349
				c-0.121-0.314-0.314-0.573-0.542-0.804C915.202,1077.239,914.8,1076.731,914.259,1076.332z"/>
			<path style="fill:#F36D21;" d="M959.214,1077.677c-2.469-1.457-5.067-0.65-6.969,1.36c-2.204,2.332-3.185,5.765-2.728,8.935
				c0.545,3.777,1.622,7.558,3.258,11.061c0.195,2.566,0.867,5.165,1.713,7.467c1.378,3.747,3.299,7.342,5.495,10.67
				c1.833,2.778,3.854,5.548,6.512,7.602c2.596,2.005,6.333-0.67,7.258-3.218c1.638-4.509,2.086-8.761,1.646-13.547
				c-0.375-4.104-1.47-8.198-2.873-12.062C970.032,1089.081,965.691,1081.497,959.214,1077.677z"/>
			<path style="fill:#F36D21;" d="M919.787,984.75c-2.036-0.854-4.468,1.049-5.59,2.51c-1.628,2.124-2.209,4.878-1.875,7.497
				c0.331,2.588,1.308,5.028,2.913,7.036c0.6,2.771,1.551,5.482,2.655,8.006c2.353,5.373,5.769,11.17,10.491,14.802
				c1.935,1.489,4.38,0.038,5.655-1.532c5.215-6.419,3.354-15.982,0.067-22.839C931.073,993.91,926.417,987.531,919.787,984.75z"/>
			<path style="fill:#F36D21;" d="M1007.316,984.066c-4.903-4.181-10.657-8.82-17.059-10.381c-5.358-1.308-8.887,5.381-9.064,9.7
				c-0.637,15.439,8.945,29.271,17.139,41.595c6.427,9.666,13.518,20.951,23.122,27.777c1.258,0.895,2.5,1.504,3.719,1.93
				c0.564,0.533,1.106,1.093,1.688,1.606c3.296,2.906,7.881,5.724,12.375,3.854c5.783-2.404,8.073-9.823,7.999-15.569
				c-0.092-7.126-2.977-13.837-6.37-19.982c-4.001-7.25-8.753-14.016-13.998-20.42
				C1020.943,996.944,1014.433,990.135,1007.316,984.066z"/>
			<g>
				<path style="fill:#F36D21;" d="M1036.507,936.086c0.058,0.058,0.118,0.115,0.178,0.172c-0.056-0.063-0.124-0.114-0.182-0.178
					c-0.078-0.092-0.178-0.17-0.263-0.258c-0.243-0.248-0.483-0.514-0.722-0.708c-1.667-1.367-4.092-0.636-5.57,0.576
					c-1.882,1.544-3.086,4.252-3.103,6.675c-0.004,0.536,0.037,1.074,0.102,1.606c-0.025-0.486-0.051-0.972-0.078-1.458
					c0.021,0.733,0.079,1.453,0.2,2.156c-0.005-0.011-0.007-0.022-0.01-0.033c0.017,0.087,0.024,0.178,0.044,0.266
					c0.18,0.919,0.499,1.8,1.115,2.6c0.131,0.17,0.311,0.299,0.464,0.451c0.306,0.435,0.612,0.868,0.926,1.299
					c0.405,0.555,0.879,1.064,1.347,1.569c0.612,0.663,1.241,1.338,1.943,1.907l0.015-0.03c0.287,0.21,0.6,0.387,0.98,0.483
					c1.075,0.269,2.358-0.163,3.167-0.884c2.066-1.841,2.763-4.822,1.941-7.425l0.164,0.603c-0.34-1.246-0.521-2.525-0.815-3.78
					c-0.099-0.418-0.215-0.847-0.317-1.278c-0.018-0.389-0.042-0.781-0.078-1.056
					C1037.788,938.113,1037.29,937.005,1036.507,936.086z"/>
				<path style="fill:#F36D21;" d="M1026.964,944.293l0.094,0.344c-0.043-0.22-0.084-0.44-0.111-0.664
					C1026.953,944.079,1026.958,944.186,1026.964,944.293z"/>
				<path style="fill:#F36D21;" d="M1026.968,944.382c-0.002-0.03-0.003-0.059-0.004-0.089c-0.007-0.024-0.014-0.047-0.02-0.071
					C1026.955,944.276,1026.96,944.329,1026.968,944.382z"/>
			</g>
			<path style="fill:#F36D21;" d="M1120.292,945.105c-6.324-5.869-13.519-10.926-20.968-15.264c-3.28-1.911-6.566,0.08-8.346,3.028
				c-1.961,3.247-2.282,7.417-0.28,10.71c1.96,7.617,7.811,13.813,13.768,18.845c6.82,5.763,14.442,10.639,22.225,14.991
				c5.49,3.069,9.422-4.647,8.69-9.229C1133.875,958.757,1127.03,951.355,1120.292,945.105z"/>
			<path style="fill:#F36D21;" d="M1051.382,891.44c-0.796-0.75-1.668-1.441-2.628-1.971c-0.715-0.396-1.473-0.779-2.251-1.031
				c-1.092-0.352-2.385,0.037-3.382,0.486c-2.085,0.937-3.274,3.341-3.59,5.47c-0.156,1.05-0.13,2.034,0.151,3.06
				c0.258,0.942,0.802,2.249,1.736,2.724c0.797,0.405,1.521,0.85,2.406,1.039c0.167,0.037,0.32,0.117,0.483,0.164
				c0.081,0.125,0.145,0.258,0.23,0.38c1.531,2.245,3.666,3.92,5.827,5.52c1.255,0.929,2.898,0.495,4.009-0.416
				c1.37-1.123,2.198-3.051,2.234-4.804C1056.696,897.859,1054.327,894.22,1051.382,891.44z"/>
			<g>
				<path style="fill:#F36D21;" d="M1165.579,883.916c-6.681-6.383-14.668-11.228-22.175-16.561
					c-7.535-5.356-15.358-10.405-23.504-14.784c-6.924-3.722-17.805-10.261-25.889-6.354c-5.563,2.69-7.554,9.901-6.677,15.59
					c0.723,4.686,3.379,8.911,6.493,12.39c4.825,5.392,10.588,9.97,16.702,14.032c7.518,6.038,15.6,11.437,23.84,16.369
					c8.238,4.93,18.819,11.783,28.789,10.939c7.271-0.616,11.478-7.454,11.495-14.316
					C1174.669,894.226,1170.413,888.534,1165.579,883.916z"/>
				<polygon style="fill:#F36D21;" points="1162.969,903.762 1162.97,903.759 1162.969,903.759 				"/>
			</g>
			<path style="fill:#F36D21;" d="M1137.484,811.787c-0.894-0.821-1.868-1.568-2.874-2.243c-0.971-0.65-2.041-1.111-3.022-1.731
				c-2.355-1.484-5.247-0.308-6.757,1.832c-1.37,1.942-2.233,4.178-2.312,6.574c-0.064,1.945,0.366,4.182,1.64,5.717
				c0.532,0.641,1.218,1.293,1.898,1.805c0.885,0.667,2.049,0.835,3.118,0.696c0.293,0.27,0.57,0.553,0.878,0.81
				c1.272,1.063,2.667,1.807,4.186,2.46c1.521,0.653,3.096,0.808,4.741,0.859c0.391-0.113,0.784-0.226,1.176-0.339
				c0.366-0.235,0.734-0.471,1.101-0.706c0.976-0.802,1.612-1.926,2.03-3.095c0.366-1.028,0.528-2.042,0.471-3.133
				c-0.068-1.264-0.426-2.158-1.053-3.264C1141.349,815.645,1139.495,813.633,1137.484,811.787z"/>
			<path style="fill:#F36D21;" d="M1226.09,842.034c-10.511-5.311-22.542-9.107-34.444-7.931c-3.91,0.386-6.425,5.255-6.469,8.74
				c-0.132,10.409,9.845,17.629,17.72,22.707c8.663,5.586,19.051,11.201,29.409,12.611c2.097,0.286,4.235,0.342,6.264,0.028
				c3.425,0.168,6.716-0.333,9.784-2.312c2.815-1.816,3.394-6.585,2.358-9.432C1246.63,855.232,1236.433,847.259,1226.09,842.034z"
				/>
			<path style="fill:#F36D21;" d="M1177.428,755.286c-3.61-3.269-7.65-6.088-11.855-8.541c-4.203-2.451-8.705-4.683-13.391-6.047
				c-3.713-1.08-8.079-1.68-11.68,0.099c-4.091,2.021-6.06,8.692-3.103,12.413c0.974,1.228,2.034,2.387,3.144,3.499
				c3.852,4.836,9.54,8.647,14.594,11.308c7.721,4.065,16.478,7.558,25.344,7.333c4.483-0.115,5.771-6.762,4.647-10
				C1183.696,761.239,1180.581,758.138,1177.428,755.286z"/>
			<path style="fill:#F36D21;" d="M1254.444,788.75c-2.579-1.205-5.205-2.269-8.018-2.777c-2.837-0.513-5.675-0.481-8.526-0.161
				c-2.546,0.285-4.349,2.727-5.137,4.934c-0.937,2.629-0.739,5.233,0.696,7.626c1.466,2.45,3.507,4.329,6.016,5.56
				c2.558,1.934,5.477,3.447,8.403,4.659c5.076,2.1,11.585,2.997,16.715,0.625c1.922-0.89,3.153-2.907,3.65-4.897
				c0.444-1.773,0.496-4.604-0.917-6.039C1263.541,794.432,1259.361,791.046,1254.444,788.75z"/>
			<path style="fill:#F36D21;" d="M1225.01,740.295c-1.642-1.379-3.454-2.559-5.383-3.497c-0.933-0.522-1.904-0.946-2.814-1.212
				c-0.08-0.029-0.163-0.054-0.246-0.076c-0.086-0.023-0.183-0.065-0.266-0.084c-0.002,0.017-0.004,0.033-0.007,0.049
				c-0.27-0.05-0.536-0.117-0.824-0.1c-0.852-0.147-1.672-0.008-2.463,0.417c-0.821,0.417-1.515,0.968-2.122,1.607
				c-0.96-0.012-1.941,0.501-2.568,1.387c-1.143,1.607-1.623,4.161-0.364,5.862c-0.05,1.876,0.402,3.745,1.514,5.304
				c1.958,2.742,5.493,4.983,8.988,5.149c2.541,1.68,5.34,2.932,8.476,3.493c2.389,0.427,4.555-1.344,5.476-3.452
				c1.029-2.354,1.251-5.321-0.323-7.5C1230.101,744.902,1227.595,742.467,1225.01,740.295z"/>
			<path style="fill:#F36D21;" d="M845.847,1088.006c-0.732-0.5-1.537-0.701-2.417-0.604c-0.91,0.133-1.712,0.501-2.408,1.104
				c-0.796,0.686-1.415,1.508-1.858,2.462c-0.494,1.053-0.77,2.159-0.831,3.32c0.001,0.156,0.002,0.314,0.002,0.47
				c0,0.08,0.001,0.161,0,0.242c0.001,0.016,0.001,0.031,0.001,0.045c-0.045,0.83,0.081,1.631,0.379,2.406
				c0.261,0.677,0.682,1.231,1.266,1.661c0.024,0.019,0.049,0.036,0.071,0.053c0.09,0.068,0.18,0.136,0.271,0.205
				c0.02,0.016,0.04,0.031,0.062,0.046c0.011,0.01,0.024,0.018,0.034,0.027c0.732,0.498,1.538,0.701,2.418,0.604
				c0.909-0.133,1.712-0.502,2.408-1.104c0.795-0.687,1.415-1.508,1.858-2.462c0.494-1.053,0.77-2.16,0.831-3.32
				c0.057-1.052-0.102-2.067-0.482-3.048C847.121,1089.254,846.586,1088.551,845.847,1088.006z"/>
			<path style="fill:#F36D21;" d="M1346.423,799.093c-4.981-2.409-10.186-4.394-15.59-5.617c-1.799-0.407-3.448,0.184-4.831,1.247
				c-3.847-0.575-7.033,3.968-6.955,7.764c0.038,1.844,0.023,3.43,0.681,5.213c0.378,1.027,0.925,1.957,1.473,2.906
				c0.693,1.199,1.526,2.245,2.501,3.229c2.958,2.986,6.159,4.82,10.028,6.439c5.973,2.5,12.779,3.841,19.262,3.552
				c2.603-0.117,4.734-2.679,5.754-4.811c1.148-2.401,1.785-6.098,0.472-8.589C1356.42,805.117,1351.741,801.666,1346.423,799.093z"
				/>
		</g>
	</g>
</g>
</svg>
