<?xml version="1.0" encoding="UTF-8" standalone="no"?>
<!-- Created with Inkscape (http://www.inkscape.org/) -->

<svg
   width="152.17133mm"
   height="121.77171mm"
   viewBox="0 0 152.17133 121.77171"
   version="1.1"
   id="svg5"
   xml:space="preserve"
   xmlns:inkscape="http://www.inkscape.org/namespaces/inkscape"
   xmlns:sodipodi="http://sodipodi.sourceforge.net/DTD/sodipodi-0.dtd"
   xmlns="http://www.w3.org/2000/svg"
   xmlns:svg="http://www.w3.org/2000/svg"><sodipodi:namedview
     id="namedview7"
     pagecolor="#ffffff"
     bordercolor="#000000"
     borderopacity="0.25"
     inkscape:showpageshadow="2"
     inkscape:pageopacity="0.0"
     inkscape:pagecheckerboard="0"
     inkscape:deskcolor="#d1d1d1"
     inkscape:document-units="mm"
     showgrid="false"
     showguides="false"
     inkscape:zoom="0.73851712"
     inkscape:cx="838.84312"
     inkscape:cy="575.47752"
     inkscape:window-width="1920"
     inkscape:window-height="1009"
     inkscape:window-x="1912"
     inkscape:window-y="-8"
     inkscape:window-maximized="1"
     inkscape:current-layer="layer1" /><defs
     id="defs2" /><g
     id="g14464"
     transform="translate(-34.562329,-80.305671)"
     inkscape:export-filename="Apple.svg"
     inkscape:export-xdpi="96"
     inkscape:export-ydpi="96"><rect
       style="fill:#f4a8a8;stroke-width:0.0340313"
       width="152.17133"
       height="121.77173"
       id="rect14224"
       x="34.562317"
       y="80.305672" /><g
       id="g14288"
       transform="matrix(0.03804283,0,0,0.03683952,34.562316,68.145818)">
		<g
   id="g14228">
			<path
   style="fill:#ef492e"
   d="m 2943.233,2027.827 c -16.639,407.894 -217.096,931.056 -681.941,1052.359 -66.084,12.073 -121.775,10.813 -181.613,-17.951 -6.456,-3.097 -12.86,-6.194 -19.526,-8.818 -21.048,-8.451 -39.21,-12.755 -60.153,-13.333 -20.943,0.577 -39.157,4.882 -60.205,13.333 -6.614,2.625 -13.07,5.721 -19.474,8.818 -59.838,28.764 -115.529,30.024 -181.666,17.951 -317.455,-82.828 -511.614,-353.148 -608.089,-646.144 -44.773,-136 -68.551,-276.881 -73.8,-406.215 -10.917,-460.437 341.443,-749.495 943.234,-617.065 349.369,-76.897 614.65,-11.705 773.64,146.708 114.847,114.269 174.16,277.249 169.593,470.357 z"
   id="path14226" />
		</g>
		<g
   id="g14232">
			<path
   style="fill:#d8301e"
   d="m 2205.863,1503.144 c -59.68,46.505 -128.021,71.91 -205.863,74.167 -77.894,-2.257 -146.235,-27.662 -205.863,-74.167 0,0 -44.406,-59.051 -15.904,-76.267 20.706,-12.469 128.366,9.661 185.715,22.7 23.742,5.398 48.364,5.398 72.106,0 57.348,-13.04 165.009,-35.17 185.715,-22.7 28.5,17.216 -15.906,76.267 -15.906,76.267 z"
   id="path14230" />
		</g>
		<g
   id="g14236">
			<path
   style="fill:#d8301e"
   d="m 2943.233,2027.827 c -8.346,205.128 -63.197,439.388 -174.789,637.011 -109.65,173.372 -266.646,312.206 -478.545,367.478 -66.084,12.073 -121.775,10.813 -181.613,-17.951 -6.456,-3.097 -12.86,-6.194 -19.526,-8.819 -21.048,-8.451 -39.21,-12.755 -60.153,-13.332 -20.943,0.577 -39.157,4.882 -60.205,13.332 -6.614,2.625 -13.07,5.721 -19.474,8.819 -59.838,28.764 -115.529,30.024 -181.666,17.951 -276.251,-72.068 -459.177,-286.172 -565.573,-533.607 535.916,445.215 1244.365,124.82 1507.808,-346.219 0.052,-0.052 0.052,-0.052 0.052,-0.052 104.769,-187.387 139.149,-398.604 64.09,-594.967 22.518,22.413 42.936,46.663 61.045,72.698 74.589,106.657 112.224,242.394 108.549,397.658 z"
   id="path14234" />
		</g>
		<g
   id="g14240">
			<path
   style="fill:#54040f"
   d="m 1776.693,1467.471 c 55.034,57.105 130.083,89.664 208.971,91.314 78.934,-0.014 154.605,-30.689 213.447,-83.421 4.362,-3.914 11.071,-3.55 14.983,0.813 3.177,3.542 3.524,8.64 1.211,12.524 -11.3,18.921 -26.664,35.398 -43.907,49.321 -115.298,91.58 -334.551,76.92 -411.547,-58.015 -6.055,-10.779 8.314,-21.471 16.842,-12.536 z"
   id="path14238" />
		</g>
		<path
   style="fill:#c1c202"
   d="m 2043.619,1278.332 c 6.404,-234.837 178.149,-460.489 623.206,-344.172 l 40.574,-17.164 c 79.311,360.653 -421.647,601.264 -663.78,361.336 z"
   id="path14242" />
		<g
   id="g14246">
			<path
   style="fill:#7ba400"
   d="m 2043.619,1278.332 c 188.542,-193.948 363.961,-133.428 543.58,-266.856 28.974,-21.416 55.376,-47.451 79.626,-77.317 l 40.574,-17.164 c 79.311,360.654 -421.647,601.265 -663.78,361.337 z"
   id="path14244" />
		</g>
		<g
   id="g14250">
			<path
   style="fill:#54040f"
   d="m 2286.885,1393.209 c -91.23,0 -183.013,-29.316 -256.211,-101.833 -3.606,-3.574 -5.574,-8.481 -5.435,-13.555 3.647,-133.079 56.426,-244.47 148.606,-313.66 113.86,-85.449 283.738,-102.466 491.548,-49.321 l 34.871,-14.754 c 5.027,-2.124 10.742,-1.909 15.593,0.598 4.851,2.507 8.335,7.043 9.507,12.375 19.063,86.682 6.931,173.066 -35.083,249.814 -38.052,69.514 -98.362,128.386 -174.407,170.251 -66.804,36.779 -147.678,60.085 -228.989,60.085 z m -224.632,-122.407 c 124.883,117.756 308.086,100.505 435.901,30.137 113.704,-62.598 221.86,-188.538 195.435,-358.132 l -19.612,8.296 c -3.735,1.58 -7.891,1.877 -11.804,0.855 -199.355,-52.105 -360.583,-37.727 -466.27,41.592 -81.201,60.943 -128.481,159.183 -133.65,277.252 z"
   id="path14248" />
		</g>
		<g
   id="g14254">
			<path
   style="fill:#54040f"
   d="m 2030.43,1265.52 c 189.861,-192.699 364.811,-131.573 550.485,-262.458 4.695,-3.403 11.259,-2.354 14.659,2.341 3.345,4.617 2.356,11.062 -2.14,14.509 -41.464,31.729 -88.42,56.338 -137.166,74.336 -95.469,35.125 -197.395,51.297 -284.394,104.002 -42.726,24.931 -80.806,57.057 -115.098,92.88 -17.306,17.378 -43.372,-7.506 -26.346,-25.61 z"
   id="path14252" />
		</g>
		<g
   id="g14258">
			<path
   style="fill:#410c12"
   d="m 2190.1,3105.685 c -43.076,0 -80.703,-8.779 -118.381,-26.892 l -0.686,-0.33 c -6.069,-2.913 -11.804,-5.667 -17.61,-7.952 -19.673,-7.9 -35.652,-11.501 -53.423,-12.048 -17.813,0.549 -33.804,4.148 -53.359,12.002 -5.901,2.341 -11.782,5.146 -18.318,8.308 -57.832,27.798 -115.532,33.621 -192.966,19.487 -0.452,-0.083 -0.898,-0.183 -1.34,-0.298 -215.298,-56.184 -395.254,-204.014 -520.41,-427.507 -103.64,-185.073 -165.859,-413.03 -175.195,-641.88 -5.154,-217.268 70.842,-401.67 213.982,-519.556 85.247,-70.205 191.611,-116.218 316.135,-136.758 128.621,-21.221 273.787,-14.592 431.472,19.695 157.666,-34.282 302.815,-40.913 431.455,-19.692 124.524,20.54 230.889,66.553 316.14,136.76 143.147,117.891 219.148,302.29 214.004,519.236 0,0.105 -0.01,0.21 -0.01,0.315 -9.336,228.84 -71.563,456.799 -175.22,641.88 -125.173,223.494 -305.137,371.323 -520.439,427.507 -0.442,0.115 -0.889,0.215 -1.338,0.295 -26.939,4.923 -51.495,7.428 -74.493,7.428 z M 2000,3021.712 c 0.168,0 0.337,0 0.505,0.01 22.283,0.613 42.791,5.132 66.494,14.649 6.931,2.729 13.542,5.903 19.937,8.972 l 0.691,0.332 c 50.764,24.404 99.966,29.209 169.69,16.565 436.597,-114.353 649.849,-602.104 667.554,-1035.01 4.905,-208.328 -64.473,-377.703 -200.632,-489.839 -165.107,-135.974 -420.911,-174.575 -720.291,-108.684 -2.598,0.571 -5.298,0.571 -7.896,0 -299.407,-65.891 -555.21,-27.29 -720.3,108.679 -136.189,112.158 -205.559,281.599 -200.618,490.007 17.649,432.637 230.879,920.486 667.493,1034.846 69.753,12.637 118.984,7.84 169.736,-16.56 7.151,-3.459 13.674,-6.567 20.657,-9.336 23.628,-9.49 44.15,-14.006 66.475,-14.622 0.168,0 0.337,-0.01 0.505,-0.01 z m 943.232,-993.886 h 0.051 z"
   id="path14256" />
		</g>
		<g
   id="g14262">
			<path
   style="fill:#54040f"
   d="m 2190.1,3105.685 c -43.076,0 -80.703,-8.779 -118.381,-26.892 l -0.686,-0.33 c -6.069,-2.913 -11.804,-5.667 -17.61,-7.952 -19.673,-7.9 -35.652,-11.501 -53.423,-12.048 -17.813,0.549 -33.804,4.148 -53.359,12.002 -5.901,2.341 -11.782,5.146 -18.318,8.308 -57.832,27.798 -115.532,33.621 -192.966,19.487 -0.452,-0.083 -0.898,-0.183 -1.34,-0.298 -384.724,-100.381 -554.15,-455.454 -620.898,-658.176 -43.293,-131.496 -69.126,-273.694 -74.707,-411.216 -5.154,-217.263 70.842,-401.665 213.982,-519.551 85.247,-70.205 191.611,-116.218 316.135,-136.758 128.621,-21.221 273.787,-14.592 431.472,19.695 335.42,-72.927 614.658,-18.826 786.606,152.498 119.16,118.562 179.675,285.864 174.993,483.806 0,0.105 -0.01,0.21 -0.01,0.315 -9.336,228.84 -71.563,456.799 -175.22,641.88 -125.173,223.494 -305.137,371.323 -520.439,427.507 -0.442,0.115 -0.889,0.215 -1.338,0.295 -26.939,4.923 -51.495,7.428 -74.493,7.428 z M 2000,3021.712 c 0.168,0 0.337,0 0.505,0.01 22.283,0.613 42.791,5.132 66.494,14.649 6.931,2.729 13.542,5.903 19.934,8.972 l 0.693,0.332 c 50.764,24.404 99.973,29.209 169.69,16.565 436.597,-114.353 649.846,-602.09 667.554,-1034.995 4.407,-187.559 -52.368,-345.491 -164.189,-456.75 -163.457,-162.869 -432.195,-213.223 -756.733,-141.787 -2.598,0.571 -5.298,0.571 -7.896,0 -299.407,-65.891 -555.21,-27.29 -720.3,108.679 -136.187,112.158 -205.559,281.599 -200.618,490.007 5.435,133.858 30.64,272.595 72.883,400.906 64.373,195.5 227.209,537.712 594.612,633.94 69.758,12.637 118.982,7.84 169.734,-16.56 7.151,-3.459 13.674,-6.567 20.654,-9.336 23.63,-9.49 44.153,-14.006 66.477,-14.622 0.169,0 0.338,-0.01 0.506,-0.01 z m 943.232,-993.886 h 0.051 z"
   id="path14260" />
		</g>
		<g
   id="g14266">
			<path
   style="fill:#feadac"
   d="m 1499.213,1921.417 c -142.796,91.853 -165.898,285.639 -244.661,270.689 -146.31,-27.772 -160.936,-250.022 -65.687,-434.339 95.249,-184.317 279.715,-278.311 412.016,-209.943 132.301,68.368 90.937,249.701 -101.668,373.593 z"
   id="path14264" />
		</g>
		<g
   id="g14270">
			<path
   style="fill:#e6e9a4"
   d="m 2443.24,951.882 c 14.836,36.179 -62.545,55.527 -138.912,96.228 -76.367,40.7 -140.763,73.803 -153.473,49.954 -12.71,-23.849 32.783,-81.536 109.15,-122.237 76.367,-40.699 172.982,-48.949 183.235,-23.945 z"
   id="path14268" />
		</g>
		<g
   id="g14274">
			<path
   style="fill:#a04618"
   d="m 1876.095,1005.239 c -46.85,-5.206 -132.613,75.935 -100.988,140.55 148.514,82.714 203.777,230.837 181.016,429.782 19.808,2.323 40.4,2.131 61.464,0.422 54.528,-144.715 59.975,-473.134 -141.492,-570.754 z"
   id="path14272" />
		</g>
		<g
   id="g14278">
			<path
   style="fill:#87300a"
   d="m 1960.343,1463.542 c 54.226,36.326 73.166,-59.606 46.932,-324.856 56.178,154.081 55.053,299.131 10.313,437.307 -21.967,2.62 -42.327,1.676 -61.229,-2.502 z"
   id="path14276" />
		</g>
		<g
   id="g14282">
			<path
   style="fill:#c97b59"
   d="m 1876.095,1005.239 c 85.241,47.631 -46.707,184.818 -100.988,140.55 -36.309,-54.658 49.394,-143.725 100.988,-140.55 z"
   id="path14280" />
		</g>
		<g
   id="g14286">
			<path
   style="fill:#54040f"
   d="m 1987.241,1595.668 c -11.716,0 -22.737,-0.618 -33.259,-1.851 -10.056,-1.182 -17.263,-10.276 -16.111,-20.334 22.554,-197.129 -35.215,-335.625 -171.702,-411.643 -3.276,-1.824 -5.916,-4.607 -7.563,-7.974 -15.415,-31.497 -10.007,-69.812 14.839,-105.122 23.806,-33.828 67.434,-65.903 104.678,-61.763 2.078,0.232 4.102,0.815 5.981,1.726 119.788,58.042 162.317,185.117 176.899,281.502 15.913,105.176 5.62,227.747 -26.223,312.261 -2.507,6.65 -8.623,11.26 -15.706,11.833 -11.2,0.908 -21.772,1.365 -31.833,1.365 z m -10.915,-36.954 c 8.804,0.347 18.105,0.266 28.015,-0.247 49.514,-146.409 47.102,-444.331 -133.035,-535.102 -17.554,0.161 -47.737,17.991 -67.813,46.521 -9.316,13.24 -22.871,38.333 -13.95,62.966 142.312,81.966 205.101,225.14 186.783,425.862 z"
   id="path14284" />
		</g>
	</g></g></svg>
