<?xml version="1.0" encoding="UTF-8" standalone="no"?>
<!-- Created with Inkscape (http://www.inkscape.org/) -->

<svg
   width="38.441032mm"
   height="44.107567mm"
   viewBox="0 0 38.441032 44.107567"
   version="1.1"
   id="svg1"
   xml:space="preserve"
   xmlns="http://www.w3.org/2000/svg"
   xmlns:svg="http://www.w3.org/2000/svg"><defs
     id="defs1" /><g
     id="layer1"
     transform="translate(-151.43965,-36.747002)"><g
       id="g3"><path
         id="path89"
         d="m 165.88632,43.067546 c -0.34713,-2.211211 0.0448,-4.153959 1.96074,-5.420078 1.79776,-1.188861 3.76167,-1.200503 5.57671,-0.03493 1.95863,1.256947 2.35974,3.212747 2.02812,5.404909 0.1771,0.0028 0.32244,-0.08114 0.47061,-0.151695 1.28235,-0.608894 2.5908,-0.51435 3.89572,-0.112183 0.70203,0.216253 1.1303,0.832555 1.15676,1.573389 0.0303,0.859367 -0.2293,1.637242 -0.71437,2.339622 -0.60043,0.86995 -1.36666,1.567392 -2.27224,2.117725 0.0589,0.169686 0.20425,0.166864 0.31961,0.211667 3.48686,1.342672 6.63258,3.202164 9.14894,6.020506 0.67028,0.750358 1.28411,1.54305 1.84432,2.378075 0.0751,0.111831 0.13582,0.233539 0.20038,0.352072 0.0656,0.12065 0.13124,0.248356 0.0325,0.376767 -0.0945,0.123119 -0.23389,0.118181 -0.37112,0.08855 -0.45227,-0.09807 -0.90417,-0.202847 -1.38254,-0.153105 -0.061,0.166511 0.0575,0.28328 0.11642,0.412044 0.70449,1.545167 1.38959,3.095978 1.7339,4.773437 0.23495,1.144411 0.30515,2.294466 0.20673,3.455811 -0.0145,0.164394 0.0296,0.371828 -0.15734,0.468489 -0.22684,0.117475 -0.34572,-0.08749 -0.49213,-0.201084 -0.0451,-0.03493 -0.0963,-0.06279 -0.17215,-0.111477 -0.16263,0.422627 -0.21555,0.856191 -0.26706,1.288344 -0.21166,1.777648 -0.67521,3.478742 -1.51694,5.068359 -0.20038,0.37853 -0.44944,0.72143 -0.73166,1.039636 -0.39652,0.446617 -0.56409,0.403578 -0.762,-0.182739 -0.036,-0.107597 -0.0438,-0.227894 -0.13723,-0.318558 -0.76271,0.653344 -1.50742,1.315508 -2.27753,1.946628 -2.5774,2.11208 -5.57213,3.33763 -8.77782,4.12115 -1.17969,0.288219 -2.34597,0.631472 -3.51332,0.968022 -0.23212,0.06668 -0.44203,0.09913 -0.67486,0.02611 -1.32503,-0.416631 -2.667,-0.771525 -4.01285,-1.113014 -1.27247,-0.322792 -2.51848,-0.731661 -3.73274,-1.232606 -2.18616,-0.901347 -4.07952,-2.251781 -5.83812,-3.808589 -0.34149,-0.302331 -0.68509,-0.601486 -1.03399,-0.906992 -0.16863,0.155928 -0.14111,0.371123 -0.2286,0.53975 -0.15487,0.297745 -0.28469,0.34537 -0.52388,0.122061 -0.31079,-0.291394 -0.56903,-0.630766 -0.77999,-1.002241 -0.88865,-1.567039 -1.36878,-3.26637 -1.60161,-5.039784 -0.0653,-0.498475 -0.15275,-0.989542 -0.25365,-1.469319 -0.10301,-0.04586 -0.15204,0.02117 -0.20884,0.06209 -0.14923,0.109009 -0.27093,0.325262 -0.49283,0.206023 -0.19685,-0.105481 -0.16792,-0.337256 -0.18027,-0.520348 -0.12171,-1.77553 0.12277,-3.503436 0.71296,-5.1816 0.35843,-1.019528 0.78317,-2.012597 1.24319,-2.990145 0.0565,-0.120297 0.14535,-0.228952 0.13582,-0.396169 -0.39899,-0.110772 -0.78563,0.03069 -1.17581,0.07514 -0.11394,0.01305 -0.22507,0.06385 -0.33902,0.06738 -0.24165,0.0074 -0.36089,-0.149225 -0.26317,-0.376414 0.0984,-0.2286 0.22966,-0.446616 0.37112,-0.651933 2.08527,-3.017661 4.77132,-5.341409 8.06662,-6.957131 1.02059,-0.500239 2.05528,-0.966964 3.17676,-1.392061 -0.756,-0.525286 -1.43968,-1.039989 -1.98684,-1.717323 -0.66463,-0.82303 -1.09643,-1.719086 -1.05128,-2.804583 0.0307,-0.741186 0.43745,-1.35502 1.14935,-1.572683 1.30493,-0.399345 2.61338,-0.496712 3.89502,0.114652 0.13829,0.06597 0.28293,0.118181 0.48154,0.200378"
         style="fill:#100f0d;fill-opacity:1;fill-rule:evenodd;stroke:none;stroke-width:0.0352778" /><path
         id="path90"
         d="m 155.08991,73.946187 c -0.61524,-0.840317 -1.01882,-1.66617 -1.32997,-2.541059 -0.55351,-1.557161 -0.76165,-3.182761 -0.9525,-4.811536 -0.0113,-0.0956 -0.001,-0.195792 -0.0261,-0.287161 -0.0575,-0.214136 -0.20955,-0.271286 -0.39546,-0.14605 -0.13899,0.09419 -0.21907,0.268464 -0.40252,0.307622 -0.12135,-0.421922 -0.127,-1.608667 -0.0381,-2.263775 0.28081,-2.073275 1.04281,-3.982861 1.96497,-5.839178 0.31503,-0.634295 0.28858,-0.689328 -0.39405,-0.666397 -0.38347,0.0127 -0.76623,0.05362 -1.17651,0.08361 0.005,-0.242358 0.16122,-0.394053 0.26987,-0.560211 1.68875,-2.571398 3.93171,-4.546601 6.59871,-6.040967 1.5815,-0.886178 3.21239,-1.680281 4.94665,-2.234495 0.3115,-0.09948 0.63077,-0.180269 0.95109,-0.245886 1.00577,-0.206022 1.90571,0.02505 2.71251,0.660753 1.11478,0.878064 1.91064,2.004836 2.5721,3.240617 0.0716,0.134408 0.10054,0.294216 0.23777,0.398639 0.21767,-0.02858 0.21943,-0.234598 0.29528,-0.37712 0.66851,-1.254478 1.47285,-2.398889 2.60914,-3.282597 0.79269,-0.61595 1.67817,-0.840317 2.66277,-0.646995 0.70167,0.137231 1.38077,0.354895 2.04152,0.62865 2.8321,1.171928 5.52733,2.56787 7.78087,4.701117 1.08585,1.027289 2.04188,2.158295 2.84374,3.419475 0.0497,0.07867 0.12453,0.149931 0.10831,0.312209 -0.11783,0.05539 -0.26494,0.0085 -0.40429,0 -0.28822,-0.01729 -0.57644,-0.05362 -0.86501,-0.05962 -0.52775,-0.01058 -0.57961,0.07902 -0.34008,0.563386 0.75354,1.523648 1.42699,3.07587 1.80129,4.745567 0.25506,1.137003 0.33796,2.281767 0.25929,3.439231 -0.21061,0.06809 -0.28081,-0.110066 -0.38806,-0.202141 -0.10689,-0.09207 -0.20814,-0.188737 -0.35419,-0.122062 -0.14428,0.06597 -0.13617,0.213078 -0.15345,0.34925 -0.11078,0.879828 -0.18063,1.768123 -0.35208,2.636309 -0.3115,1.575858 -0.7627,3.110089 -1.6704,4.467578 -0.0631,0.09525 -0.1397,0.181681 -0.23565,0.304447 -0.1831,-0.185208 -0.15382,-0.430036 -0.23883,-0.624769 -0.14041,-0.321381 -0.24977,-0.340784 -0.48931,-0.09843 -2.50507,2.538942 -5.37104,4.489803 -8.82685,5.521325 -1.84785,0.551745 -3.73733,0.950031 -5.5686,1.560336 -0.25259,0.08431 -0.51082,0.132292 -0.78952,0.04339 -2.27823,-0.725311 -4.63691,-1.172986 -6.88798,-1.99002 -2.29553,-0.832908 -4.33388,-2.099733 -6.1535,-3.720041 -0.53129,-0.473428 -1.13348,-0.869245 -1.56599,-1.453092 -0.15663,-0.210961 -0.31891,-0.17392 -0.42439,0.08114 -0.0875,0.212019 -0.13829,0.439561 -0.23248,0.748947"
         style="fill:#fffefe;fill-opacity:1;fill-rule:evenodd;stroke:none;stroke-width:0.0352778" /><path
         id="path91"
         d="m 170.64777,52.509644 c -0.55457,-1.373011 -1.33915,-2.445103 -2.42077,-3.309761 -1.07667,-0.861131 -2.27965,-1.127831 -3.58245,-0.752828 -0.56127,0.161572 -0.96379,0.02858 -1.38501,-0.286809 -0.68545,-0.512233 -1.29787,-1.094316 -1.78153,-1.8034 -0.37747,-0.553861 -0.60819,-1.160991 -0.61877,-1.837619 -0.0109,-0.704498 0.29069,-1.145117 0.96344,-1.325034 1.19909,-0.320322 2.39395,-0.436386 3.54083,0.212725 0.20073,0.113595 0.41945,0.195439 0.63182,0.287161 0.19474,0.08431 0.40887,0.194381 0.58949,0.01094 0.16087,-0.163337 0.0631,-0.36442 -0.0113,-0.542573 -0.18874,-0.452261 -0.28611,-0.921808 -0.26565,-1.410758 0.0572,-1.3462 0.46743,-2.55905 1.5367,-3.430059 1.1049,-0.900289 2.3929,-1.230489 3.80118,-0.900289 2.73756,0.64135 3.56624,3.078339 3.30871,5.042606 -0.0346,0.263525 -0.14676,0.517525 -0.22931,0.773995 -0.0533,0.164394 -0.15134,0.332669 0.0176,0.479072 0.1524,0.131586 0.3295,0.08749 0.49213,0.01976 0.2667,-0.111478 0.53798,-0.218017 0.79057,-0.357364 1.17687,-0.649464 2.38831,-0.490714 3.59763,-0.146756 0.56868,0.161572 0.87877,0.674158 0.84913,1.29787 -0.0296,0.630061 -0.21801,1.214966 -0.56726,1.739547 -0.5528,0.829733 -1.26224,1.501422 -2.08986,2.0574 -0.31115,0.209197 -0.61066,0.263172 -0.97613,0.153811 -0.9525,-0.285044 -1.89513,-0.275519 -2.82152,0.144639 -0.55527,0.251883 -1.02482,0.619478 -1.4538,1.033992 -0.71296,0.688975 -1.30104,1.474258 -1.68875,2.397125 -0.0508,0.121003 -0.11712,0.23495 -0.22718,0.452614"
         style="fill:#f1455b;fill-opacity:1;fill-rule:evenodd;stroke:none;stroke-width:0.0352778" /><path
         id="path92"
         d="m 170.71585,62.510542 c 0.8629,-0.02081 1.68522,0.145697 2.45745,0.536222 1.06045,0.536222 1.36243,1.354667 0.87454,2.446514 -0.21202,0.473781 -0.46955,0.927806 -0.71826,1.3843 -0.65581,1.201914 -1.35572,2.378781 -2.1082,3.520723 -0.54504,0.827969 -0.59019,0.811389 -1.11125,0.0078 -0.99589,-1.535642 -1.93639,-3.106914 -2.75978,-4.744509 -0.0769,-0.153811 -0.13441,-0.319617 -0.18521,-0.484364 -0.27269,-0.879828 -0.0152,-1.550106 0.77576,-2.014714 0.66957,-0.3937 1.59703,-0.693914 2.77495,-0.651933"
         style="fill:#110f0e;fill-opacity:1;fill-rule:evenodd;stroke:none;stroke-width:0.0352778" /><path
         id="path93"
         d="m 162.68875,65.209997 c 0.51399,-0.01552 0.93203,-0.0095 1.33738,0.155223 0.3877,0.157339 0.57326,0.460022 0.59725,0.843139 0.0226,0.358069 -0.19438,0.6096 -0.5073,0.774347 -0.36089,0.190147 -0.73448,0.326672 -1.15252,0.318911 -0.57503,-0.01094 -1.15358,0.04798 -1.71732,-0.123825 -0.28434,-0.08643 -0.57432,-0.189089 -0.641,-0.510117 -0.0748,-0.362655 -0.0617,-0.711905 0.26353,-1.001889 0.35595,-0.317147 0.78069,-0.395111 1.21743,-0.45085 0.22754,-0.02857 0.46143,-0.0049 0.60255,-0.0049"
         style="fill:#f9b1be;fill-opacity:1;fill-rule:evenodd;stroke:none;stroke-width:0.0352778" /><path
         id="path94"
         d="m 178.97297,67.302675 c -0.41945,0.03845 -0.90911,-0.02893 -1.38007,-0.229305 -0.38735,-0.164747 -0.63076,-0.440267 -0.65687,-0.865364 -0.0229,-0.375003 0.2219,-0.732014 0.65617,-0.850547 0.90593,-0.24765 1.81962,-0.276225 2.71251,0.08608 0.0889,0.03598 0.17603,0.08079 0.25576,0.134056 0.3362,0.226131 0.49706,0.548217 0.41734,0.943681 -0.0695,0.34678 -0.33126,0.543983 -0.65935,0.656872 -0.40992,0.141111 -0.83432,0.122414 -1.34549,0.12453"
         style="fill:#f9b1be;fill-opacity:1;fill-rule:evenodd;stroke:none;stroke-width:0.0352778" /><path
         id="path95"
         d="m 163.13395,60.047094 c -0.0208,0.864306 -0.67063,1.471084 -1.5374,1.435453 -0.80046,-0.03281 -1.3335,-0.583847 -1.32645,-1.371953 0.008,-0.839964 0.67945,-1.503539 1.51165,-1.493661 0.76271,0.0092 1.37125,0.652992 1.3522,1.430161"
         style="fill:#100f0d;fill-opacity:1;fill-rule:evenodd;stroke:none;stroke-width:0.0352778" /><path
         id="path96"
         d="m 181.03143,60.109536 c -0.007,0.858308 -0.51576,1.372306 -1.36137,1.373717 -0.86889,0.0018 -1.4792,-0.613834 -1.48167,-1.493309 -0.002,-0.735894 0.6156,-1.362427 1.35326,-1.372658 0.84384,-0.01164 1.49613,0.642056 1.48978,1.49225"
         style="fill:#100f0d;fill-opacity:1;fill-rule:evenodd;stroke:none;stroke-width:0.0352778" /><path
         id="path97"
         d="m 170.59944,70.509426 c -0.80575,-1.694745 -1.86761,-3.243792 -2.69664,-4.921251 -0.0515,-0.103716 -0.10795,-0.204964 -0.15416,-0.310797 -0.38453,-0.874889 -0.20038,-1.425575 0.67133,-1.842911 1.4792,-0.708378 2.98098,-0.710495 4.46264,-0.01235 0.91264,0.430036 1.11372,1.035402 0.653,1.94063 -0.44592,0.875948 -0.92358,1.736725 -1.41641,2.58692 -0.45508,0.784225 -0.90276,1.571272 -1.30528,2.383719 -0.0332,0.06668 -0.0526,0.147109 -0.21448,0.176037"
         style="fill:#fbd343;fill-opacity:1;fill-rule:evenodd;stroke:none;stroke-width:0.0352778" /></g></g></svg>
