<?xml version="1.0" encoding="UTF-8" standalone="no"?>
<!-- Created with Inkscape (http://www.inkscape.org/) -->

<svg
   width="46.572433mm"
   height="37.497551mm"
   viewBox="0 0 46.572433 37.497551"
   version="1.1"
   id="svg1"
   xml:space="preserve"
   xmlns="http://www.w3.org/2000/svg"
   xmlns:svg="http://www.w3.org/2000/svg"><defs
     id="defs1" /><g
     id="layer1"
     transform="translate(-36.323664,-144.36088)"><g
       id="g7"><path
         id="path39"
         d="m 78.387552,168.13821 c -0.248709,0.92989 -0.443795,1.87149 -0.740481,2.78832 -0.748947,2.31042 -2.058105,4.26089 -3.762375,5.96413 -0.135114,0.13547 -0.295628,0.24833 -0.455789,0.35529 -0.09384,0.0627 -0.235656,0.15899 -0.310797,0.12827 -0.652639,-0.26459 -0.988131,0.25756 -1.364545,0.57439 -0.908755,0.76479 -1.903589,1.3801 -2.972153,1.88457 -2.12725,1.00461 -4.341636,1.66854 -6.699603,1.89442 -2.658816,0.25464 -5.295018,0.16369 -7.872342,-0.5056 -2.438012,-0.63253 -4.762218,-1.57441 -6.714209,-3.24873 -0.190041,-0.1633 -0.401284,-0.30124 -0.597535,-0.45752 -0.193322,-0.1542 -0.341735,-0.31887 -0.650839,-0.15063 -0.233857,0.12664 -0.472934,-0.0988 -0.667668,-0.25436 -0.561551,-0.44912 -1.025948,-0.99621 -1.476974,-1.54837 -1.479057,-1.80799 -2.457874,-3.86472 -2.97614,-6.1418 -0.0973,-0.42731 -0.204364,-0.85202 -0.300708,-1.25165 -0.124142,-0.0554 -0.17914,0.0138 -0.248461,0.0385 -0.395887,0.13974 -0.536046,0.0744 -0.601486,-0.33556 -0.194451,-1.22163 -0.339972,-2.44895 -0.218722,-3.68967 0.116593,-1.19203 0.321239,-2.37031 0.580425,-3.53942 0.03337,-0.15028 0.07856,-0.29845 0.128729,-0.4445 0.168945,-0.49212 0.178576,-0.50271 -0.265818,-0.80962 -0.765528,-0.52811 -1.479057,-1.11584 -2.125628,-1.78471 -0.310197,-0.32102 -0.590091,-0.66569 -0.77791,-1.07315 -0.198579,-0.43144 -0.152259,-0.65616 0.259891,-0.85442 0.314078,-0.15064 0.263631,-0.29387 0.129964,-0.5267 -0.393983,-0.68615 -0.761365,-1.38677 -1.042353,-2.12901 -0.213748,-0.56551 -0.342441,-1.14195 -0.317218,-1.75296 0.02342,-0.57185 0.0496,-0.62089 0.594184,-0.72743 0.110243,-0.0215 0.223132,-0.0303 0.379518,-0.0512 -0.16136,-0.73025 -0.24899,-1.44921 -0.226413,-2.17946 0.02053,-0.66146 0.14665,-0.82232 0.778863,-0.91969 0.20948,-0.0321 0.418395,-0.0674 0.627028,-0.10478 0.622864,-0.11147 0.625228,-0.11183 0.6973,-0.70767 0.03224,-0.26811 0.05264,-0.53728 0.07659,-0.8061 0.04537,-0.50588 0.132045,-0.61453 0.653062,-0.57185 0.709966,0.0579 1.415239,0.17286 2.122312,0.26317 0.01916,0.003 0.03778,0.009 0.05694,0.0113 0.248461,0.0279 0.516467,0.12665 0.740833,0.0653 0.268006,-0.0734 0.205317,-0.4184 0.299297,-0.63818 0.225037,-0.52564 0.452685,-0.64876 0.995363,-0.4445 0.506024,0.19085 0.986684,0.43321 1.402821,0.7941 0.465913,0.40429 0.94936,0.78846 1.425187,1.18146 0.249131,-0.14253 0.310726,-0.40182 0.449227,-0.60114 0.396593,-0.5722 0.586775,-0.56091 0.900959,0.0808 0.229729,0.46955 0.3937,0.96202 0.481224,1.48026 0.14732,0.87347 0.304836,1.74554 0.469477,2.68358 1.607926,-0.8823 3.20354,-1.70039 4.994981,-2.07857 1.765406,-0.37359 3.541571,-0.59055 5.339786,-0.59126 1.817617,-10e-4 3.612656,0.21555 5.396301,0.59937 1.780469,0.38277 3.371144,1.1804 4.964994,2.0828 0.17145,-0.97437 0.330906,-1.89865 0.497417,-2.82222 0.09984,-0.55492 0.286808,-1.08232 0.576439,-1.56633 0.221897,-0.37042 0.381353,-0.36901 0.650522,-0.0448 0.196498,0.23672 0.290336,0.54505 0.560211,0.78846 0.488598,-0.40181 0.980723,-0.79304 1.45662,-1.20297 0.417336,-0.35913 0.898525,-0.60149 1.405467,-0.78952 0.539397,-0.19967 0.760589,-0.0755 0.983191,0.46567 0.08608,0.21026 0.04727,0.53552 0.258939,0.61066 0.213431,0.0759 0.489656,-0.0123 0.736248,-0.0455 0.649111,-0.0882 1.297164,-0.18909 1.94698,-0.27693 0.152048,-0.0205 0.309386,-0.0222 0.462492,-0.0102 0.322086,0.0261 0.440972,0.13758 0.460022,0.47272 0.02187,0.38594 0.08185,0.7687 0.100895,1.15217 0.01623,0.33585 0.162983,0.41875 0.456141,0.44062 0.306564,0.0219 0.610306,0.0854 0.914048,0.13794 0.542572,0.0942 0.696383,0.25894 0.705202,0.8068 0.0064,0.38524 -0.02857,0.77153 -0.03704,1.15747 -0.0081,0.36794 -0.11677,0.72002 -0.168981,1.07421 0.03951,0.0317 0.06597,0.0709 0.09737,0.0758 0.890411,0.12877 0.913342,0.15487 0.878064,1.05622 -0.01976,0.50694 -0.161572,0.98601 -0.337608,1.45838 -0.284339,0.76306 -0.667456,1.47567 -1.068917,2.18017 -0.109009,0.19085 -0.133703,0.31291 0.119239,0.44591 0.477308,0.25083 0.522816,0.45473 0.279752,0.93451 -0.192969,0.38135 -0.4572,0.71473 -0.75565,1.02023 -0.636058,0.65123 -1.329266,1.23331 -2.08033,1.74907 -0.483659,0.33232 -0.45085,0.33585 -0.292453,0.90135 0.302331,1.07915 0.468489,2.18581 0.622653,3.29495 0.188383,1.35325 0.1016,2.69345 -0.104422,4.035 -0.112537,0.73448 -0.181328,0.79237 -0.881592,0.5504"
         style="fill:#100f0d;fill-opacity:1;fill-rule:evenodd;stroke:none;stroke-width:0.0352778" /><path
         id="path40"
         d="m 47.833819,146.00529 c 0.319582,0.49988 0.477485,0.97472 0.557283,1.46402 0.155328,0.95145 0.44249,1.87819 0.512375,2.84622 0.02685,0.37218 0.155998,0.42368 0.495265,0.24941 0.257422,-0.13265 0.516078,-0.26494 0.761753,-0.41769 1.668533,-1.0347 3.505341,-1.58821 5.42357,-1.91699 2.127145,-0.36478 4.272316,-0.41522 6.40955,-0.21344 2.555522,0.24095 5.027436,0.82762 7.234767,2.2345 0.194733,0.12488 0.400755,0.23283 0.608542,0.33479 0.294922,0.14499 0.445205,0.0818 0.464961,-0.2533 0.05539,-0.93169 0.340077,-1.81963 0.482952,-2.73332 0.08467,-0.54081 0.277637,-1.04105 0.521406,-1.54834 0.274461,0.11006 0.300567,0.39299 0.443442,0.58102 0.286103,0.37747 0.494241,0.4258 0.869244,0.14217 0.461434,-0.34925 0.923573,-0.69991 1.365603,-1.07315 0.375708,-0.31785 0.820208,-0.50341 1.248834,-0.72249 0.192263,-0.0984 0.331963,-0.055 0.392994,0.16792 0.04092,0.14852 0.08255,0.2974 0.129469,0.44415 0.153459,0.48225 0.267759,0.55527 0.75565,0.47978 0.819503,-0.127 1.638653,-0.25682 2.458509,-0.38276 0.150283,-0.0233 0.301625,-0.0625 0.488244,-0.005 0.04621,0.4632 0.08784,0.9391 0.142523,1.41394 0.05539,0.48436 0.123119,0.54786 0.594077,0.62547 0.246945,0.0413 0.492831,0.0896 0.739423,0.12982 0.649816,0.10619 0.638175,0.10549 0.651933,0.78811 0.01235,0.60501 -0.09278,1.18921 -0.223308,1.77553 -0.116064,0.52247 -0.03528,0.60149 0.508705,0.61454 0.541162,0.0127 0.538339,0.0127 0.522817,0.55598 -0.01235,0.43215 -0.147814,0.83396 -0.300567,1.23049 -0.229305,0.59549 -0.527755,1.15817 -0.839611,1.71379 -0.132291,0.23566 -0.265289,0.47202 -0.379236,0.71649 -0.210608,0.45297 -0.184855,0.5073 0.286456,0.73731 0.391936,0.19156 0.41028,0.23142 0.140758,0.58102 -0.607483,0.78599 -1.369131,1.41182 -2.143478,2.02213 -0.288219,0.22719 -0.589139,0.43744 -0.877006,0.66498 -0.34678,0.27411 -0.340077,0.32456 -0.206727,0.73343 0.744008,2.28071 1.150055,4.60022 0.769761,7.00475 -0.03246,0.20564 -0.06068,0.41205 -0.09137,0.62015 -0.774347,-0.19791 -0.756708,-0.19431 -0.915458,0.56236 -0.509058,2.42673 -1.376892,4.70035 -2.912534,6.68197 -0.450497,0.58141 -0.958497,1.11058 -1.466497,1.64003 -0.162983,0.17004 -0.310092,0.31224 -0.587728,0.13158 -0.198614,-0.1294 -0.403577,0.0497 -0.573616,0.17572 -0.324909,0.24197 -0.655814,0.4783 -0.963084,0.74193 -1.188861,1.01879 -2.573514,1.67954 -3.999794,2.29126 -2.460978,1.05473 -5.048251,1.42666 -7.68844,1.43714 -2.107,0.009 -4.207157,-0.1972 -6.22487,-0.87132 -1.557726,-0.52035 -3.088182,-1.12007 -4.463062,-2.03687 -0.656767,-0.43822 -1.260334,-0.95638 -1.893817,-1.43055 -0.267477,-0.19967 -0.506731,-0.49996 -0.914753,-0.22409 -0.150072,0.1009 -0.282893,-0.0867 -0.383364,-0.19085 -0.510434,-0.52666 -1.020304,-1.05473 -1.470237,-1.63615 -1.307888,-1.69153 -2.16669,-3.59763 -2.681534,-5.66317 -0.102518,-0.41053 -0.225143,-0.81774 -0.276296,-1.24245 -0.06435,-0.53577 -0.147038,-0.57574 -0.674687,-0.40432 -0.05387,0.0174 -0.108585,0.0325 -0.200484,0.0597 -0.210996,-1.18745 -0.353342,-2.36114 -0.211667,-3.55635 0.124989,-1.05552 0.316512,-2.09868 0.546383,-3.13585 0.06269,-0.28257 0.150495,-0.55738 0.266805,-0.82479 0.241018,-0.55386 0.240313,-0.56268 -0.263207,-0.94791 -0.828075,-0.6343 -1.661936,-1.26119 -2.391058,-2.01225 -0.279717,-0.28857 -0.554637,-0.57961 -0.728415,-0.94086 0.147179,-0.16545 0.322333,-0.1972 0.474451,-0.27234 0.314607,-0.15558 0.360362,-0.26176 0.210149,-0.59584 -0.134231,-0.29881 -0.301095,-0.58279 -0.455718,-0.87172 -0.391619,-0.73201 -0.78934,-1.46014 -1.005981,-2.27083 -0.07066,-0.26423 -0.08791,-0.53199 -0.117793,-0.8001 -0.0273,-0.24447 0.07952,-0.34925 0.31623,-0.37641 0.253154,-0.0282 0.578803,0.14005 0.737412,-0.16934 0.131057,-0.25576 -0.02124,-0.53128 -0.08326,-0.78916 -0.14164,-0.58949 -0.131162,-1.18745 -0.14605,-1.78576 -0.0058,-0.23707 0.09162,-0.35278 0.322439,-0.38665 0.362303,-0.0522 0.723089,-0.11571 1.084122,-0.17603 0.457094,-0.0762 0.54102,-0.16263 0.590902,-0.63641 0.03419,-0.32632 0.05154,-0.65441 0.08269,-0.98108 0.04628,-0.48542 0.04932,-0.48824 0.498545,-0.42227 0.572171,0.0847 1.143776,0.17356 1.715382,0.26246 0.267088,0.0416 0.533047,0.09 0.800241,0.13018 0.462598,0.0695 0.585929,-0.007 0.731732,-0.44203 0.26349,-0.78846 0.261832,-0.78493 1.016177,-0.41346 0.736705,0.36301 1.293706,0.97226 1.966171,1.42311 0.07966,0.0533 0.145803,0.127 0.225884,0.18027 0.316936,0.2092 0.517454,0.1845 0.742879,-0.11607 0.14912,-0.19896 0.269135,-0.42015 0.445241,-0.69955"
         style="fill:#d5d5d3;fill-opacity:1;fill-rule:evenodd;stroke:none;stroke-width:0.0352778" /><path
         id="path41"
         d="m 66.234357,168.9175 c -0.0014,0.94407 -0.08749,1.81363 -0.417689,2.66139 -0.639939,1.6425 -1.852789,2.57305 -3.538009,2.9107 -1.404867,0.28194 -2.823563,0.37468 -4.254359,0.16369 -0.476391,-0.0701 -0.954299,-0.11822 -1.422965,-0.23813 -2.071334,-0.52983 -3.202023,-1.99249 -3.542524,-4.04315 -0.230681,-1.38892 -0.09564,-2.76751 0.338314,-4.11268 0.525428,-1.62878 1.249328,-3.14996 2.370914,-4.46405 0.600534,-0.70415 1.314344,-1.24037 2.178262,-1.57727 0.345052,-0.13512 0.699205,-0.19756 1.0674,-0.23284 1.663735,-0.15663 3.085394,0.33409 4.213578,1.57798 0.583494,0.64382 1.106664,1.34267 1.502128,2.11949 0.595841,1.17052 1.098197,2.37772 1.356783,3.6763 0.106186,0.53481 0.09631,1.07417 0.148167,1.55857"
         style="fill:#110f0e;fill-opacity:1;fill-rule:evenodd;stroke:none;stroke-width:0.0352778" /><path
         id="path42"
         d="m 50.526114,160.44766 c 1.010108,0.004 1.834162,0.83432 1.829047,1.84432 -0.0049,1.03434 -0.820738,1.87783 -1.807986,1.87043 -1.089872,-0.008 -1.914631,-0.86819 -1.897557,-1.97803 0.01475,-0.94862 0.869844,-1.74025 1.876496,-1.73672"
         style="fill:#100f0d;fill-opacity:1;fill-rule:evenodd;stroke:none;stroke-width:0.0352778" /><path
         id="path43"
         d="m 66.850659,162.2821 c -0.0063,-1.01071 0.81527,-1.83197 1.833739,-1.83374 0.999773,-0.002 1.859139,0.80116 1.867959,1.7459 0.01058,1.10596 -0.828322,1.97062 -1.908881,1.9685 -0.994833,-0.002 -1.786819,-0.83291 -1.792817,-1.88066"
         style="fill:#100f0d;fill-opacity:1;fill-rule:evenodd;stroke:none;stroke-width:0.0352778" /><path
         id="path44"
         d="m 70.232387,168.83135 c -0.3556,0.0187 -0.811389,-0.014 -1.264002,-0.11561 -0.132998,-0.0296 -0.261409,-0.0628 -0.378884,-0.12664 -0.699558,-0.38171 -0.744008,-1.12392 -0.07796,-1.56002 0.624064,-0.40922 1.336675,-0.49495 2.048228,-0.37077 0.552803,0.0963 1.135592,0.15416 1.559278,0.63955 0.445911,0.51128 0.365831,1.04182 -0.256117,1.3378 -0.355952,0.16895 -0.732014,0.21665 -1.121127,0.19654 -0.134409,-0.007 -0.268817,-8.5e-4 -0.509412,-8.5e-4"
         style="fill:#afafad;fill-opacity:1;fill-rule:evenodd;stroke:none;stroke-width:0.0352778" /><path
         id="path45"
         d="m 48.881005,168.8268 c -0.531918,0.0319 -1.084792,0.008 -1.597413,-0.2752 -0.530966,-0.29418 -0.621524,-0.72069 -0.229059,-1.18206 0.228353,-0.26885 0.496676,-0.45123 0.863918,-0.53343 0.718926,-0.16122 1.424728,-0.32103 2.158541,-0.0963 0.357752,0.11007 0.678815,0.26988 0.930734,0.55312 0.28194,0.31651 0.277812,0.658 0.0079,0.97963 -0.35553,0.42418 -0.848748,0.50243 -1.350081,0.54998 -0.248743,0.024 -0.501615,0.004 -0.784507,0.004"
         style="fill:#afafad;fill-opacity:1;fill-rule:evenodd;stroke:none;stroke-width:0.0352778" /><path
         id="path46"
         d="m 53.417234,169.03187 c -0.0066,-2.16048 0.774453,-3.97129 1.801354,-5.6992 0.295592,-0.49706 0.633342,-0.97155 1.018399,-1.40441 1.893287,-2.12901 4.848331,-2.13254 6.695369,-0.0212 1.368425,1.56563 2.284237,3.39513 2.691695,5.43913 0.298803,1.49683 0.280811,2.99092 -0.407458,4.41635 -0.477661,0.9893 -1.211439,1.6987 -2.245784,2.0483 -1.615405,0.54642 -3.2766,0.68365 -4.965806,0.41882 -0.342441,-0.0538 -0.685165,-0.10986 -1.023197,-0.18563 -1.983563,-0.44733 -3.004961,-1.65312 -3.446745,-3.6146 -0.110666,-0.49004 -0.145132,-0.99191 -0.117827,-1.3976"
         style="fill:#a1a1a0;fill-opacity:1;fill-rule:evenodd;stroke:none;stroke-width:0.0352778" /><path
         id="path47"
         d="m 64.323359,169.90817 c 0.01129,1.05156 -0.825147,2.00544 -1.836914,2.2521 -1.210945,0.2945 -2.220101,-0.11328 -2.877009,-1.16251 -0.76274,1.12547 -1.820792,1.49863 -3.107866,1.09541 -0.9029,-0.28222 -1.704517,-1.29784 -1.693898,-2.27651 0.240065,0.33845 0.427461,0.5927 0.605649,0.85383 0.526697,0.77251 1.271799,1.09636 2.185564,1.05018 0.775406,-0.0396 1.406419,-0.52846 1.608738,-1.20509 0.05443,-0.18203 0.06378,-0.32671 -0.114124,-0.45296 -0.208633,-0.14785 -0.352213,-0.36298 -0.458329,-0.58883 -0.551215,-1.17256 -1.052548,-2.36181 -1.113437,-3.68296 -0.0035,-0.0773 -0.0069,-0.15417 -0.005,-0.23142 0.02522,-1.08091 0.514702,-1.58151 1.604997,-1.62419 0.385022,-0.0152 0.773219,-0.0272 1.1563,0.005 0.875489,0.0744 1.311346,0.53375 1.388816,1.41322 0.06544,0.74507 -0.08407,1.46403 -0.30607,2.16387 -0.180517,0.56843 -0.416031,1.1205 -0.647277,1.67157 -0.126365,0.30166 -0.274496,0.61267 -0.543913,0.80779 -0.269134,0.19473 -0.230117,0.40256 -0.132009,0.6495 0.313902,0.7892 1.212674,1.2168 2.163445,1.04909 0.687917,-0.12058 1.20897,-0.47516 1.598083,-1.04482 0.170745,-0.25012 0.34925,-0.49502 0.524228,-0.74221"
         style="fill:#100f0d;fill-opacity:1;fill-rule:evenodd;stroke:none;stroke-width:0.0352778" /></g></g></svg>
