<?xml version="1.0" encoding="UTF-8" standalone="no"?>
<!-- Created with Inkscape (http://www.inkscape.org/) -->

<svg
   width="40.1675mm"
   height="37.869015mm"
   viewBox="0 0 40.1675 37.869015"
   version="1.1"
   id="svg1"
   xml:space="preserve"
   xmlns="http://www.w3.org/2000/svg"
   xmlns:svg="http://www.w3.org/2000/svg"><defs
     id="defs1" /><g
     id="layer1"
     transform="translate(-96.026965,-39.866215)"><g
       id="g2"><path
         id="path78"
         d="m 109.83311,43.696196 c -0.0159,-0.137583 -0.0279,-0.211667 -0.0325,-0.286455 -0.0279,-0.457906 0.0388,-0.537987 0.50483,-0.559506 1.01776,-0.04657 2.0387,-0.152753 3.00849,0.134761 0.10936,-0.08608 0.0797,-0.168275 0.0949,-0.240594 0.073,-0.352073 0.19191,-0.429684 0.51717,-0.285398 0.33479,0.148167 0.6597,0.322087 0.97297,0.511175 0.23036,0.138289 0.37923,0.119945 0.51576,-0.119591 0.0751,-0.131939 0.18697,-0.245534 0.29492,-0.354895 0.31468,-0.319264 0.46143,-0.32385 0.7687,-0.01729 0.12242,0.122061 0.23954,0.255059 0.33161,0.400403 0.13124,0.207433 0.26988,0.227542 0.47414,0.101953 0.24624,-0.151695 0.50412,-0.283986 0.76305,-0.413456 0.58526,-0.293511 0.66746,-0.251883 0.79199,0.394406 0.31926,-0.04198 0.64347,-0.06844 0.96026,-0.12947 0.75424,-0.145697 1.50142,0.03951 2.25249,0.03281 0.30374,-0.0028 0.39546,0.147108 0.3817,0.45473 -0.005,0.113242 -0.0829,0.218017 -0.0374,0.357364 0.41487,0.08114 0.83326,-0.02364 1.25236,-0.04586 0.17357,-0.0092 0.34678,-0.04127 0.51894,-0.03634 0.37676,0.01094 0.46743,0.102305 0.496,0.480483 0.01,0.130175 -0.0522,0.280106 0.0924,0.367947 0.18062,0.11042 0.36477,0.216253 0.55633,0.304448 0.0737,0.03422 0.12735,-0.05433 0.18627,-0.104422 1.41252,-1.206501 2.91429,-2.281767 4.56353,-3.148895 1.32221,-0.695678 2.71039,-1.208617 4.15396,-1.576564 0.5401,-0.137583 0.73836,0.01411 0.80363,0.5715 0.15734,1.350433 0.0667,2.700514 -0.0603,4.045303 -0.17956,1.901825 -0.42298,3.796242 -0.89958,5.652206 -0.0236,0.09313 -0.0427,0.188383 -0.0698,0.280105 -0.10336,0.348545 -0.30939,0.703087 -0.28505,1.0414 0.0233,0.317853 0.29599,0.614892 0.44521,0.927806 0.84949,1.781881 1.4986,3.635023 1.96144,5.554134 0.0222,0.09384 0.042,0.188383 0.0582,0.28328 0.0677,0.40252 0.0148,0.470606 -0.39193,0.512939 -0.40676,0.04233 -0.42863,0.04798 -0.33126,0.421217 0.44097,1.689806 0.22331,3.373967 -0.0247,5.057423 -0.0772,0.525286 -0.22648,0.611363 -0.74965,0.49918 -0.4318,-0.09313 -0.43638,-0.09419 -0.52458,0.355247 -0.36512,1.860903 -1.29152,3.45687 -2.35938,4.98334 -0.25188,0.359833 -0.35454,0.377119 -0.69638,0.112183 -0.17921,-0.138642 -0.28787,-0.137583 -0.43744,0.01305 -0.14958,0.150283 -0.31997,0.2794 -0.47343,0.425802 -2.09586,1.998839 -4.41572,3.678415 -7.03404,4.930776 -0.85231,0.407811 -1.64959,0.926394 -2.53824,1.26118 -0.28575,0.10795 -0.58596,0.295628 -0.7366,-0.189794 -0.0543,-0.175683 -0.236,-0.08396 -0.3556,-0.05962 -0.70238,0.141111 -1.37971,0.364066 -2.04082,0.636763 -1.64535,0.678392 -1.12006,0.661459 -2.75307,-0.0049 -0.64382,-0.263173 -1.30352,-0.480131 -1.98438,-0.625123 -0.19508,-0.04163 -0.40781,-0.142169 -0.47907,0.201789 -0.0455,0.219075 -0.27058,0.191559 -0.43674,0.128411 -0.3235,-0.123825 -0.64805,-0.251883 -0.95638,-0.409927 -1.18428,-0.607484 -2.38196,-1.192742 -3.53801,-1.850673 -1.6824,-0.957792 -3.21028,-2.138892 -4.66478,-3.413831 -0.31926,-0.279752 -0.62547,-0.575027 -0.92816,-0.872772 -0.23601,-0.231775 -0.44203,-0.423333 -0.74789,-0.06668 -0.11888,0.138642 -0.32526,0.08996 -0.45649,-0.07091 -0.073,-0.08925 -0.14499,-0.179917 -0.2099,-0.27552 -1.067862,-1.5748 -2.003782,-3.209219 -2.310699,-5.127272 -0.0085,-0.05327 -0.04269,-0.102306 -0.06174,-0.145345 -0.176741,-0.06456 -0.309386,0.04904 -0.456847,0.0762 -0.47625,0.08784 -0.602544,0.03246 -0.682978,-0.444147 -0.28328,-1.679928 -0.485422,-3.363736 -0.06773,-5.055306 0.03563,-0.144639 0.127353,-0.287514 0.05715,-0.447675 -0.03634,-0.0127 -0.07408,-0.03986 -0.108303,-0.03563 -0.722842,0.09031 -0.7366,-0.210256 -0.586669,-0.836789 0.500944,-2.093384 1.246364,-4.094692 2.198158,-6.019448 0.151695,-0.306917 0.138995,-0.552803 0.03105,-0.862189 -0.440267,-1.26118 -0.68192,-2.572808 -0.862895,-3.890786 -0.259644,-1.892653 -0.485422,-3.791303 -0.427567,-5.709003 0.0095,-0.327731 0.02046,-0.655814 0.04445,-0.983192 0.0381,-0.518231 0.261761,-0.72002 0.750006,-0.586317 0.761647,0.208139 1.53035,0.399697 2.267294,0.691445 2.37632,0.940858 4.47746,2.328333 6.43608,3.9497 0.11889,0.09842 0.22402,0.337256 0.42298,0.171097 0.21026,-0.175683 0.61701,-0.136525 0.5835,-0.60078 -0.0307,-0.426156 0.11536,-0.531989 0.56197,-0.522817 0.55528,0.01129 1.1049,0.138994 1.72509,0.101247"
         style="fill:#100f0d;fill-opacity:1;fill-rule:evenodd;stroke:none;stroke-width:0.0352778" /><path
         id="path79"
         d="m 96.579597,58.243694 c -0.01976,-0.183444 0.05045,-0.361244 0.0949,-0.543278 0.474839,-1.938514 1.175455,-3.795889 2.036939,-5.592233 0.155927,-0.324203 0.168275,-0.61842 0.07867,-0.944386 -0.652639,-2.372431 -1.00965,-4.790017 -1.155347,-7.244998 -0.05292,-0.888647 -0.04798,-1.775178 -0.05574,-2.662767 -0.0025,-0.268464 0.0053,-0.536222 0.134761,-0.835731 0.724253,0.23742 1.459795,0.380295 2.153709,0.672395 2.462031,1.037167 4.639021,2.519892 6.660091,4.247445 0.30268,0.258586 0.37359,0.264936 0.69568,0.0261 0.1397,-0.103364 0.26987,-0.220486 0.41522,-0.314678 0.31291,-0.2032 0.61806,-0.405341 0.5147,-0.849136 0.42898,-0.08608 0.80433,0.06632 1.18886,0.0628 0.15452,-0.0014 0.30868,0.01975 0.46284,0.01658 0.514,-0.0095 0.6022,-0.09948 0.61419,-0.608541 0.002,-0.07514 0,-0.150284 0,-0.251531 0.9211,-0.105128 1.81998,-0.122767 2.71533,0.06738 0.13194,0.02822 0.26458,0.05574 0.39829,0.07197 0.29598,0.03598 0.49741,-0.0635 0.51047,-0.417689 0.30868,0.06809 0.54116,0.246239 0.79586,0.371123 0.37959,0.185561 0.51788,0.166863 0.80857,-0.133703 0.14605,-0.151695 0.23319,-0.355247 0.44909,-0.497064 0.19332,0.07867 0.27587,0.285397 0.41028,0.436739 0.32773,0.367947 0.46002,0.395111 0.89111,0.174272 0.22296,-0.1143 0.4445,-0.230011 0.70944,-0.367242 0.11112,0.133703 0.0921,0.384881 0.30974,0.422275 0.17392,0.02999 0.34607,0.01411 0.51682,-0.02681 0.83573,-0.201789 1.68204,-0.201436 2.53365,-0.1397 0.23636,0.01693 0.31856,0.08784 0.32173,0.345017 0.005,0.452261 0.10866,0.535164 0.55069,0.553508 0.46496,0.0194 0.92392,-0.05786 1.38395,-0.10795 0.22048,-0.02399 0.381,0.0078 0.34113,0.295981 -0.0236,0.170392 0.0822,0.283633 0.21625,0.380647 0.26565,0.191558 0.52917,0.38735 0.78423,0.593372 0.16898,0.136525 0.31397,0.117828 0.45967,-0.02258 0.87877,-0.848431 1.87819,-1.541639 2.88431,-2.224264 1.7339,-1.17722 3.55988,-2.163587 5.61693,-2.664178 0.46355,-0.112889 0.48154,-0.12065 0.48965,0.379588 0.018,1.119717 0.0381,2.240492 -0.0459,3.358798 -0.14922,1.984728 -0.41451,3.952522 -0.88229,5.889625 -0.0586,0.244123 -0.10372,0.492831 -0.1838,0.729192 -0.15381,0.451908 -0.1397,0.824442 0.10618,1.294695 0.62407,1.194858 1.12819,2.452864 1.51695,3.750028 0.22719,0.757061 0.46178,1.511652 0.62865,2.296936 -0.0593,0.02258 -0.11324,0.06526 -0.15875,0.0575 -0.61172,-0.106187 -0.74789,0.166863 -0.57997,0.763058 0.47872,1.70427 0.29634,3.405717 0.0279,5.109986 -0.006,0.03528 -0.0378,0.06597 -0.0575,0.09843 -0.0187,0.0049 -0.0388,0.01693 -0.0557,0.01376 -0.78105,-0.14605 -0.96696,-0.390878 -1.18639,0.823736 -0.30163,1.669697 -1.16135,3.094214 -2.0761,4.487334 -0.0935,0.141463 -0.17357,0.225072 -0.36759,0.105127 -0.26035,-0.160161 -0.51859,-0.07126 -0.7419,0.118534 -0.19085,0.16263 -0.39123,0.316441 -0.56726,0.494241 -1.21709,1.229078 -2.64654,2.187928 -4.03825,3.195109 -0.7687,0.55633 -1.61466,0.981781 -2.45745,1.411464 -0.86007,0.438503 -1.71379,0.887942 -2.57563,1.321858 -0.18874,0.0949 -0.39299,0.253295 -0.52917,-0.125236 -0.0737,-0.204964 -0.34572,-0.102305 -0.52846,-0.06491 -0.85231,0.174625 -1.68345,0.417336 -2.48955,0.750711 -1.34902,0.557389 -0.94721,0.588434 -2.32763,0.0071 -0.82162,-0.346428 -1.67252,-0.59055 -2.54494,-0.765528 -0.2293,-0.04621 -0.47237,-0.104775 -0.57961,0.202142 -0.0603,0.171802 -0.17039,0.109008 -0.27482,0.0635 -0.17674,-0.07691 -0.35524,-0.151695 -0.52599,-0.240242 -1.1303,-0.587022 -2.27647,-1.146175 -3.3842,-1.773414 -1.7018,-0.963436 -3.24696,-2.154061 -4.72863,-3.426178 -0.36618,-0.314325 -0.71473,-0.648758 -1.0728,-0.972256 -0.25858,-0.233539 -0.53587,-0.390172 -0.87982,-0.17145 -0.13618,0.08678 -0.21414,0.01905 -0.28258,-0.08467 -0.19156,-0.289631 -0.39017,-0.575734 -0.56832,-0.873831 -0.74648,-1.248481 -1.386419,-2.538942 -1.622074,-3.998031 -0.09666,-0.598664 -0.225073,-0.662516 -0.829734,-0.541866 -0.369711,0.07338 -0.380294,0.07514 -0.432858,-0.288573 -0.232481,-1.61043 -0.404636,-3.221214 0.06526,-4.822472 0.02187,-0.07373 0.02893,-0.152047 0.03704,-0.2286 0.05397,-0.492125 -0.01305,-0.569031 -0.50553,-0.5842 -0.0575,-0.0018 -0.115358,-0.0046 -0.172508,-0.01129 -0.01764,-0.0021 -0.03316,-0.01905 -0.06491,-0.03881"
         style="fill:#f9ab59;fill-opacity:1;fill-rule:evenodd;stroke:none;stroke-width:0.0352778" /><path
         id="path80"
         d="m 116.03247,63.894136 c -0.24024,0.433564 -0.49283,0.871361 -0.95356,1.103489 -1.90112,0.957792 -4.02131,-0.231069 -4.38361,-1.849967 -0.0374,-0.168627 -0.0621,-0.341488 -0.0744,-0.513644 -0.0141,-0.193675 -0.0257,-0.425097 0.22754,-0.459317 0.25647,-0.03493 0.30127,0.184503 0.32985,0.382764 0.0134,0.09525 0.0155,0.192264 0.0275,0.287867 0.12842,0.997303 1.11796,1.84785 2.23274,1.919817 1.09149,0.0702 2.06022,-0.596548 2.34068,-1.600906 0.0342,-0.123825 0.0409,-0.204611 -0.0621,-0.303389 -0.63606,-0.613128 -0.97085,-1.429456 -1.43546,-2.157942 -0.10265,-0.160866 -0.17956,-0.340783 -0.20178,-0.537986 -0.0564,-0.506589 0.20567,-0.866775 0.7112,-0.947914 0.84278,-0.135114 1.68768,-0.135819 2.53082,3.53e-4 0.61384,0.09948 0.91511,0.625475 0.63359,1.211792 -0.40005,0.833614 -0.85125,1.648178 -1.46579,2.345972 -0.17886,0.203553 -0.17568,0.334786 -0.0889,0.550686 0.42686,1.065742 1.49331,1.639711 2.62149,1.397706 1.06398,-0.228247 1.79494,-1.030111 1.92264,-2.106789 0.0116,-0.09525 0.0159,-0.193322 0.0444,-0.283633 0.031,-0.09807 0.11889,-0.154517 0.21837,-0.1651 0.13123,-0.01376 0.2159,0.06597 0.26811,0.177094 0.0607,0.128058 0.0406,0.264231 0.025,0.398286 -0.13794,1.197328 -1.12466,2.271889 -2.31669,2.512131 -0.43745,0.08819 -0.87595,0.09737 -1.32221,0.02293 -0.71332,-0.119239 -1.25448,-0.469194 -1.61431,-1.097491 -0.0476,-0.0829 -0.097,-0.1651 -0.14817,-0.245886 -0.009,-0.01446 -0.0325,-0.02011 -0.067,-0.04092"
         style="fill:#110f0e;fill-opacity:1;fill-rule:evenodd;stroke:none;stroke-width:0.0352778" /><path
         id="path81"
         d="m 98.563267,43.380813 c 0,-0.289278 -0.01341,-0.579261 0.0035,-0.867834 0.02046,-0.349602 0.0769,-0.398286 0.427214,-0.364419 0.229305,0.02258 0.466725,0.05362 0.679802,0.135114 1.786817,0.68333 3.560937,1.39453 4.915607,2.828925 0.1718,0.182033 0.34396,0.367242 0.48895,0.570442 0.14146,0.197555 0.0843,0.376414 -0.15029,0.454025 -0.23706,0.07867 -0.48365,0.13088 -0.72707,0.189089 -0.14958,0.03563 -0.30551,0.04727 -0.45191,0.09243 -0.49636,0.153106 -1.143,0.111478 -1.46438,0.470606 -0.48048,0.536928 -0.9525,1.11372 -1.32539,1.745192 -0.22401,0.378883 -0.49988,0.739422 -0.55209,1.200503 -0.006,0.05574 -0.0349,0.110772 -0.061,0.161925 -0.0716,0.138641 -0.14747,0.290336 -0.3362,0.262114 -0.155927,-0.02364 -0.203905,-0.171803 -0.240241,-0.299156 -0.196144,-0.685447 -0.420511,-1.365603 -0.566914,-2.061986 -0.313619,-1.490486 -0.61595,-2.984853 -0.639586,-4.516967"
         style="fill:#11100e;fill-opacity:1;fill-rule:evenodd;stroke:none;stroke-width:0.0352778" /><path
         id="path82"
         d="m 133.5807,43.315196 c -0.054,0.811389 -0.14993,1.724731 -0.3041,2.638778 -0.16298,0.969433 -0.3556,1.928636 -0.60078,2.878667 -0.091,0.35313 -0.2039,0.700969 -0.31291,1.049514 -0.0501,0.159103 -0.0624,0.375003 -0.29069,0.373944 -0.20355,-7.05e-4 -0.29563,-0.174977 -0.33267,-0.347486 -0.14676,-0.679803 -0.53622,-1.229783 -0.93239,-1.77553 -0.28222,-0.388409 -0.63641,-0.723548 -0.85796,-1.157112 -0.0914,-0.179211 -0.27199,-0.204964 -0.43603,-0.248002 -0.61383,-0.160162 -1.2192,-0.355248 -1.84715,-0.460023 -0.13229,-0.02187 -0.26564,-0.0515 -0.39158,-0.09701 -0.33196,-0.119944 -0.39652,-0.282927 -0.18697,-0.556683 0.18662,-0.243064 0.4124,-0.456494 0.62547,-0.678392 0.85655,-0.891822 1.91876,-1.465791 3.03601,-1.951566 0.63359,-0.27552 1.23966,-0.623006 1.92934,-0.756709 0.0945,-0.01834 0.18697,-0.04833 0.28187,-0.06315 0.51823,-0.08149 0.61031,-0.0039 0.62018,0.520347 0.003,0.173214 3.6e-4,0.346781 3.6e-4,0.630414"
         style="fill:#12100e;fill-opacity:1;fill-rule:evenodd;stroke:none;stroke-width:0.0352778" /><path
         id="path83"
         d="m 125.45305,65.247745 c -0.49918,0.02011 -0.95497,-0.05221 -1.30704,-0.460375 -0.40676,-0.470959 -0.41628,-1.044223 -0.009,-1.512712 0.28963,-0.333375 0.65969,-0.535869 1.08055,-0.621241 0.66393,-0.134761 1.32186,-0.178506 1.95333,0.183444 0.70062,0.401461 0.81351,1.072445 0.26353,1.666523 -0.5401,0.583494 -1.2379,0.72143 -1.9812,0.744361"
         style="fill:#de944a;fill-opacity:1;fill-rule:evenodd;stroke:none;stroke-width:0.0352778" /><path
         id="path84"
         d="m 105.48159,65.008561 c -0.49953,0.0099 -0.92216,0.02223 -1.29328,-0.250119 -0.74154,-0.544689 -0.72178,-1.789289 0.17992,-2.288117 0.78598,-0.434975 2.06057,-0.191911 2.6042,0.312561 0.46602,0.432153 0.54398,1.12395 0.0469,1.628775 -0.45473,0.461786 -0.96908,0.684036 -1.53776,0.5969"
         style="fill:#de944a;fill-opacity:1;fill-rule:evenodd;stroke:none;stroke-width:0.0352778" /><path
         id="path85"
         d="m 107.52982,59.259342 c -0.75847,0.0053 -1.39277,-0.595137 -1.40088,-1.325739 -0.01,-0.864306 0.53375,-1.418873 1.39524,-1.424164 0.67839,-0.0039 1.3148,0.677686 1.32715,1.421694 0.012,0.714375 -0.59373,1.322917 -1.32151,1.328209"
         style="fill:#110f0e;fill-opacity:1;fill-rule:evenodd;stroke:none;stroke-width:0.0352778" /><path
         id="path86"
         d="m 125.97445,57.90538 c 10e-4,0.748595 -0.60148,1.347964 -1.36242,1.354314 -0.73801,0.0063 -1.33844,-0.577497 -1.33915,-1.30175 -7e-4,-0.749653 0.61701,-1.443919 1.29046,-1.449564 0.87136,-0.0067 1.4097,0.526345 1.41111,1.397"
         style="fill:#110f0e;fill-opacity:1;fill-rule:evenodd;stroke:none;stroke-width:0.0352778" /><path
         id="path87"
         d="m 99.993075,49.558305 c -0.555977,-1.414286 -1.171927,-5.734756 -1.021644,-6.974417 1.273179,0.138994 4.748739,1.689805 5.620459,3.205339 -0.75848,0.106891 -1.46721,0.338314 -2.1837,0.542219 -0.30162,0.08608 -0.51999,0.21837 -0.65193,0.508 -0.0709,0.155928 -0.16616,0.310445 -0.28399,0.433917 -0.61665,0.646289 -1.09184,1.384653 -1.479195,2.284942"
         style="fill:#e29545;fill-opacity:1;fill-rule:evenodd;stroke:none;stroke-width:0.0352778" /><path
         id="path88"
         d="m 132.14666,49.634858 c -0.36231,-0.86995 -0.7874,-1.618545 -1.40935,-2.243667 -0.0804,-0.08114 -0.16334,-0.174978 -0.2032,-0.279047 -0.21908,-0.571853 -0.68933,-0.763059 -1.23508,-0.907345 -0.5722,-0.151694 -1.14406,-0.307269 -1.80798,-0.423686 0.66181,-0.795161 1.33985,-1.439686 2.19463,-1.86302 0.7747,-0.383469 1.57162,-0.723547 2.36396,-1.071739 0.33302,-0.146402 0.68227,-0.25153 1.04705,-0.288925 0.25893,0.820914 -0.272,4.801306 -0.95003,7.077429"
         style="fill:#e29545;fill-opacity:1;fill-rule:evenodd;stroke:none;stroke-width:0.0352778" /></g></g></svg>
