<?xml version="1.0" encoding="UTF-8" standalone="no"?>
<!-- Created with Inkscape (http://www.inkscape.org/) -->

<svg
   width="41.272076mm"
   height="38.627052mm"
   viewBox="0 0 41.272076 38.627052"
   version="1.1"
   id="svg1"
   xml:space="preserve"
   xmlns="http://www.w3.org/2000/svg"
   xmlns:svg="http://www.w3.org/2000/svg"><defs
     id="defs1" /><g
     id="layer1"
     transform="translate(-38.973947,-39.487254)"><g
       id="g1"><path
         id="path70"
         d="m 78.405543,64.495622 c 0.511881,1.363839 0.456495,2.69487 0.389114,4.026253 -0.0095,0.191912 -0.03069,0.386292 -0.07549,0.572206 -0.07726,0.320675 -0.219075,0.38347 -0.4953,0.220486 -0.214842,-0.126647 -0.399345,-0.303389 -0.679097,-0.404989 -0.236009,0.564798 -0.476956,1.127831 -0.706614,1.69545 -0.384528,0.948973 -0.7874,1.887714 -1.373011,2.735792 -0.03246,0.04727 -0.05503,0.102306 -0.08784,0.149578 -0.257528,0.371828 -0.46602,0.360539 -0.655814,-0.04057 -0.123825,-0.261409 -0.237067,-0.527403 -0.350308,-0.780698 -0.159456,-0.04868 -0.220839,0.0702 -0.300214,0.143228 -2.233084,2.042584 -4.802012,3.460398 -7.732537,4.243917 -1.702858,0.455436 -3.4417,0.668867 -5.175532,0.9398 -1.037943,0.161925 -2.040185,0.150636 -3.082785,0.0081 -2.298453,-0.314325 -4.574822,-0.689328 -6.780107,-1.433689 -1.290955,-0.435681 -2.468598,-1.08832 -3.607682,-1.817864 -0.97416,-0.624064 -1.95199,-1.246011 -2.744364,-2.155825 -0.223238,0.250472 -0.296298,0.526697 -0.410528,0.777875 -0.0725,0.159103 -0.112183,0.344311 -0.318452,0.372886 -0.210714,0.02928 -0.297674,-0.136525 -0.391372,-0.285397 -0.422522,-0.66922 -0.822007,-1.349728 -1.119787,-2.087386 -0.331294,-0.821267 -0.680756,-1.634773 -1.023056,-2.453217 -0.251213,0.05927 -0.419488,0.223308 -0.612281,0.346075 -0.351402,0.224014 -0.504649,0.155928 -0.597253,-0.257528 -0.01266,-0.05644 -0.02191,-0.1143 -0.02505,-0.171803 -0.07648,-1.388533 -0.175154,-2.778831 0.289384,-4.129617 0.01887,-0.05433 0.03168,-0.108303 -0.01118,-0.159808 -0.927841,0.02822 -0.920504,0.02611 -0.735436,-0.920397 0.284268,-1.456973 0.590479,-2.911476 0.736564,-4.390673 0.156669,-1.585736 0.02025,-3.165828 -0.236078,-4.730045 -0.277672,-1.696508 -0.696454,-3.361267 -1.310641,-4.971697 -0.08241,-0.215547 -0.160831,-0.437797 -0.199672,-0.663928 -0.05429,-0.314678 0.13709,-0.478719 0.446335,-0.40005 0.129399,0.03316 0.249026,0.103011 0.374544,0.1524 0.124425,0.04904 0.250543,0.09278 0.417265,0.154164 0.04286,-0.49777 -0.131162,-0.929922 -0.188101,-1.375128 -0.0441,-0.343958 -0.13656,-0.683331 -0.161642,-1.027994 -0.02713,-0.373239 0.17473,-0.497417 0.508917,-0.320676 0.356376,0.188384 0.685447,0.428626 1.060662,0.573264 0.08724,-0.09772 0.05253,-0.194733 0.02427,-0.282927 -0.54543,-1.709209 -0.88512,-3.47592 -1.457678,-5.178073 -0.128305,-0.381 -0.185103,-0.787753 -0.255905,-1.186039 -0.02992,-0.166511 -0.05306,-0.366183 0.14358,-0.460022 0.181505,-0.08714 0.333481,0.01305 0.469618,0.132997 0.783167,0.687564 1.564358,1.377597 2.350523,2.062339 1.018646,0.887236 1.973228,1.848203 3.067791,2.64795 0.898631,0.65652 1.855118,1.181453 2.969402,1.363134 1.013283,0.1651 2.00092,-0.01305 2.980443,-0.248003 1.1811,-0.283281 2.364423,-0.56127 3.536315,-0.880886 2.121606,-0.578203 4.276725,-0.525992 6.438865,-0.39617 1.614558,0.09666 3.122331,0.681567 4.682314,1.026584 1.034345,0.228952 2.056342,0.52705 3.128081,0.557036 1.463322,0.04022 2.699808,-0.540103 3.851628,-1.370895 1.131006,-0.815975 2.112786,-1.804458 3.159125,-2.718858 0.770114,-0.673453 1.537053,-1.350434 2.305756,-2.02565 0.149578,-0.131234 0.311855,-0.253648 0.516819,-0.13582 0.185914,0.106892 0.151695,0.303389 0.124531,0.470253 -0.08678,0.533753 -0.211667,1.059392 -0.383117,1.572683 -0.52705,1.574448 -0.834319,3.209573 -1.336675,4.791076 -0.02222,0.0702 -0.0508,0.148519 0.0321,0.238125 0.340783,-0.09349 0.634647,-0.309386 0.944033,-0.490714 0.17145,-0.100189 0.343253,-0.216606 0.52952,-0.06985 0.159455,0.125941 0.113947,0.316794 0.08361,0.486833 -0.128058,0.718961 -0.261408,1.43757 -0.401461,2.203098 0.285397,0.01975 0.488244,-0.138289 0.710142,-0.213078 0.165805,-0.05574 0.331611,-0.142522 0.485775,0.0032 0.147814,0.1397 0.11183,0.322791 0.06244,0.489303 -0.08784,0.295627 -0.189441,0.586669 -0.290689,0.878064 -0.966963,2.774597 -1.525411,5.618692 -1.462969,8.569325 0.02716,1.260122 0.286103,2.488847 0.507647,3.722159 0.105834,0.58808 0.217311,1.175455 0.329847,1.762478 0.106539,0.553508 0.0314,0.636763 -0.548216,0.591255 -0.07373,-0.0056 -0.146756,-0.0187 -0.333023,-0.04339"
         style="fill:#100f0d;fill-opacity:1;fill-rule:evenodd;stroke:none;stroke-width:0.0352778" /><path
         id="path71"
         d="m 44.120163,72.976401 c -0.82476,-1.36137 -1.364121,-2.745317 -1.901155,-4.130676 -0.02067,-0.05327 -0.02604,-0.112888 -0.04575,-0.167216 -0.139171,-0.385234 -0.26663,-0.442031 -0.655109,-0.271639 -0.174731,0.07655 -0.339125,0.177094 -0.592561,0.311503 -0.02536,-0.690739 -0.107632,-1.325739 -0.07701,-1.970617 0.03415,-0.714728 0.127317,-1.419931 0.298732,-2.116314 0.163301,-0.663928 0.130916,-0.689328 -0.556013,-0.591256 0.894468,-1.510594 1.727341,-3.046942 2.400265,-4.665486 0.747713,-1.799167 1.848767,-3.350684 3.376719,-4.560712 1.248092,-0.988483 2.691871,-1.5748 4.274538,-1.793875 0.585399,-0.08079 1.15316,0.06068 1.717181,0.1905 0.24391,0.05609 0.479707,0.147462 0.719067,0.22225 1.222057,0.382059 2.108412,1.141942 2.723127,2.274712 0.588715,1.083733 0.934191,2.238728 1.207594,3.42653 0.06491,0.28187 0.151024,0.5588 0.21537,0.84067 0.10033,0.438503 0.262679,0.849136 -0.05496,1.310922 -0.247791,0.360539 -0.132151,0.81527 0.03567,1.226256 0.47558,1.163108 1.057946,2.273653 1.641934,3.383492 0.116875,0.221897 0.231105,0.445911 0.361351,0.660047 0.326319,0.537281 0.469758,0.541514 0.791104,0.02117 0.141816,-0.229659 0.265148,-0.470606 0.391513,-0.709436 0.560034,-1.057628 1.105746,-2.122312 1.576458,-3.223684 0.248708,-0.582789 0.3048,-1.154642 -0.08149,-1.706033 -0.05712,-0.08185 -0.08139,-0.162984 -0.05228,-0.268112 0.419876,-1.521883 0.679521,-3.083983 1.354385,-4.538839 0.764469,-1.647472 2.047522,-2.542822 3.765903,-2.952397 1.071739,-0.255411 2.096206,-0.167922 3.129492,0.176389 2.734028,0.911225 4.580819,2.79153 5.812014,5.324122 0.682978,1.405467 1.286933,2.849034 2.067983,4.207228 0.221192,0.384528 0.430742,0.775406 0.68827,1.147587 -0.728486,-0.07691 -0.754239,-0.06315 -0.566208,0.63888 0.350308,1.308453 0.302683,2.631722 0.22225,3.99027 -0.274462,-0.01023 -0.436387,-0.203906 -0.646289,-0.2794 -0.359128,-0.128411 -0.476603,-0.0829 -0.602898,0.285397 -0.389114,1.133828 -0.874536,2.226733 -1.393472,3.305528 -0.149578,0.310444 -0.336197,0.60325 -0.517878,0.925336 -0.225778,-0.109008 -0.241653,-0.321733 -0.335844,-0.475544 -0.250472,-0.40887 -0.336903,-0.437092 -0.700617,-0.125589 -0.823031,0.703792 -1.678517,1.357136 -2.591153,1.944864 -2.446514,1.575505 -5.14597,2.439811 -7.987242,2.935111 -1.254831,0.219075 -2.541658,0.207786 -3.781355,0.534811 -0.08872,0.02364 -0.194698,0.02293 -0.28388,-7.05e-4 -1.201914,-0.316442 -2.447114,-0.324203 -3.666949,-0.517525 -3.413407,-0.53975 -6.557539,-1.732492 -9.347518,-3.796595 -0.465067,-0.343958 -0.890764,-0.740481 -1.342884,-1.102078 -0.370699,-0.296686 -0.453919,-0.276578 -0.701287,0.136525 -0.08749,0.14605 -0.16069,0.300567 -0.289101,0.543631"
         style="fill:#dcb097;fill-opacity:1;fill-rule:evenodd;stroke:none;stroke-width:0.0352778" /><path
         id="path72"
         d="m 78.871916,40.494385 c -0.08714,0.451908 -0.240242,0.884767 -0.379236,1.322211 -0.519642,1.637242 -0.854075,3.326695 -1.396295,4.958292 -0.02399,0.07267 -0.04022,0.149578 -0.04904,0.225778 -0.04304,0.36583 0.137583,0.526697 0.477308,0.377472 0.419806,-0.18415 0.817386,-0.4191 1.279173,-0.6604 -0.144286,0.752828 -0.277989,1.451328 -0.413809,2.149475 -0.02187,0.113595 -0.06668,0.224367 -0.07691,0.338314 -0.02611,0.290336 0.116064,0.401108 0.389819,0.277989 0.261409,-0.117475 0.514703,-0.248708 0.862189,-0.334433 -0.244122,0.725311 -0.489303,1.403702 -0.684389,2.098322 -0.683683,2.435931 -1.005769,4.913842 -0.877358,7.441848 0.05962,1.176161 0.29598,2.332919 0.490361,3.492853 0.05115,0.303389 0.100189,0.606777 0.09172,0.941916 -0.261055,-0.484011 -0.542925,-0.958497 -0.777875,-1.454855 -0.5207,-1.09855 -1.003653,-2.215092 -1.526822,-3.312231 -0.742597,-1.557514 -1.769886,-2.916061 -3.129845,-3.969809 -1.473905,-1.141941 -3.135842,-1.953683 -5.047192,-1.920169 -2.270125,0.03986 -4.112331,0.894292 -5.201708,3.040592 -0.558448,1.100314 -0.873831,2.262716 -1.123421,3.454753 -0.09066,0.434269 -0.186973,0.868186 -0.251743,1.306336 -0.0393,0.264936 -0.129399,0.380647 -0.412326,0.310092 -0.99247,-0.247651 -1.986034,-0.23742 -2.983583,-0.01058 -0.354965,0.08043 -0.349039,0.05609 -0.427461,-0.326319 -0.25647,-1.246717 -0.455436,-2.507898 -0.916693,-3.703109 -0.328366,-0.851253 -0.752793,-1.648883 -1.353362,-2.345619 -0.267758,-0.310445 -0.567478,-0.5842 -0.923008,-0.783873 -1.731927,-0.972255 -3.531764,-1.243541 -5.458284,-0.606072 -2.639906,0.873478 -4.490861,2.638425 -5.828136,5.010503 -0.503096,0.892528 -0.884414,1.84397 -1.293812,2.7813 -0.378002,0.865364 -0.826982,1.693334 -1.324716,2.507898 0.368053,-2.327628 0.800206,-4.640087 0.595595,-7.017809 -0.203694,-2.361847 -0.699241,-4.6482 -1.549189,-6.919384 0.307305,0.03951 0.557283,0.153106 0.799818,0.291395 0.120297,0.06914 0.241547,0.133702 0.373309,0.02963 0.127988,-0.100895 0.105128,-0.236008 0.07715,-0.37077 -0.159985,-0.771877 -0.319828,-1.543402 -0.498722,-2.407002 0.380471,0.20073 0.677333,0.360538 0.977724,0.513997 0.136701,0.0702 0.27439,0.150283 0.421287,0.185914 0.26483,0.06421 0.424568,-0.0695 0.381,-0.337961 -0.046,-0.283987 -0.135043,-0.562328 -0.220204,-0.838553 -0.584694,-1.896534 -0.982133,-3.845278 -1.669203,-5.764037 0.210431,-0.01199 0.282222,0.104775 0.369711,0.185209 1.222869,1.122891 2.43526,2.257425 3.67097,3.366205 0.806415,0.723195 1.682151,1.36137 2.664566,1.830212 1.407266,0.671689 2.870165,0.638527 4.36178,0.331258 1.512676,-0.311856 2.996812,-0.735542 4.495165,-1.103136 1.173516,-0.28822 2.36153,-0.343606 3.556847,-0.387703 2.211176,-0.08114 4.325374,0.427919 6.430752,1.019528 0.9652,0.270933 1.947686,0.486128 2.940403,0.629708 1.869016,0.270228 3.495322,-0.322086 4.985808,-1.421342 1.060803,-0.782814 1.978025,-1.722966 2.959806,-2.592564 0.635706,-0.563386 1.256947,-1.142294 1.886303,-1.712736 0.06597,-0.05962 0.117828,-0.153458 0.255764,-0.118533"
         style="fill:#b37f63;fill-opacity:1;fill-rule:evenodd;stroke:none;stroke-width:0.0352778" /><path
         id="path73"
         d="m 59.616457,66.465181 c -0.762177,-1.295753 -1.365074,-2.563284 -1.895616,-3.865739 -0.08682,-0.213078 -0.155011,-0.438856 -0.192935,-0.665339 -0.08089,-0.482247 0.125131,-0.76447 0.602368,-0.883003 0.973561,-0.241653 1.945782,-0.242711 2.921424,-0.0085 0.513327,0.12312 0.690139,0.336198 0.635423,0.854075 -0.02177,0.207787 -0.08075,0.417337 -0.156562,0.613128 -0.521441,1.349728 -1.167201,2.639131 -1.914102,3.955345"
         style="fill:#fbd343;fill-opacity:1;fill-rule:evenodd;stroke:none;stroke-width:0.0352778" /><path
         id="path74"
         d="m 68.48014,56.909841 c 1.516239,-0.01058 2.78765,1.152878 2.7813,2.717801 -0.0063,1.636536 -1.174044,2.808464 -2.795411,2.839155 -1.486253,0.02787 -2.695575,-1.225197 -2.701925,-2.821164 -0.0063,-1.62313 1.289403,-2.743905 2.716036,-2.735792"
         style="fill:#100f0d;fill-opacity:1;fill-rule:evenodd;stroke:none;stroke-width:0.0352778" /><path
         id="path75"
         d="m 50.855467,56.909841 c 1.515957,-0.01446 2.791072,1.145823 2.788603,2.710745 -0.0028,1.635831 -1.165296,2.810581 -2.788356,2.846211 -1.47821,0.03316 -2.695434,-1.208616 -2.709051,-2.814108 -0.01351,-1.611842 1.274515,-2.746728 2.708804,-2.742848"
         style="fill:#100f0d;fill-opacity:1;fill-rule:evenodd;stroke:none;stroke-width:0.0352778" /><path
         id="path76"
         d="m 68.272001,66.053842 c -0.348544,0 -0.618772,0.01482 -0.88653,-0.0032 -0.555978,-0.03669 -0.931687,-0.319617 -0.98037,-0.714728 -0.06703,-0.542925 0.238478,-1.043517 0.760236,-1.215319 0.575381,-0.189089 1.176867,-0.211667 1.763536,-0.121356 0.407459,0.0628 0.829734,0.09701 1.217084,0.302331 0.419453,0.221544 0.567972,0.396169 0.546453,0.836789 -0.01834,0.372533 -0.184503,0.586316 -0.627239,0.709436 -0.610659,0.170039 -1.236486,0.247297 -1.79317,0.206022"
         style="fill:#cd9577;fill-opacity:1;fill-rule:evenodd;stroke:none;stroke-width:0.0352778" /><path
         id="path77"
         d="m 51.052105,66.051373 c -0.542395,0.0702 -1.071139,-0.04586 -1.600729,-0.121356 -0.610623,-0.08678 -0.952359,-0.454025 -0.893233,-0.92322 0.03263,-0.259291 0.136137,-0.476955 0.391618,-0.595841 1.028983,-0.479778 2.090914,-0.584906 3.184384,-0.267053 0.247756,0.07197 0.428273,0.256822 0.564304,0.472722 0.360645,0.573264 0.1385,1.142648 -0.503661,1.364545 -0.380083,0.13088 -0.763446,0.03563 -1.142683,0.0702"
         style="fill:#cd9577;fill-opacity:1;fill-rule:evenodd;stroke:none;stroke-width:0.0352778" /></g></g></svg>
