<?xml version="1.0" encoding="UTF-8" standalone="no"?>
<!-- Created with Inkscape (http://www.inkscape.org/) -->

<svg
   width="62.857113mm"
   height="36.568569mm"
   viewBox="0 0 62.857113 36.568569"
   version="1.1"
   id="svg1"
   xml:space="preserve"
   xmlns="http://www.w3.org/2000/svg"
   xmlns:svg="http://www.w3.org/2000/svg"><defs
     id="defs1" /><g
     id="layer1"
     transform="translate(-30.494245,-648.96832)"><g
       id="BUS"
       transform="matrix(0.26458333,0,0,0.26458333,-106.12187,591.66539)">
	<g
   id="g368">
		<g
   id="g346">
			<g
   id="g310">
				
					<linearGradient
   id="SVGID_00000135683014621326646520000009537100988566876831_"
   gradientUnits="userSpaceOnUse"
   x1="715.27228"
   y1="275.72672"
   x2="717.49249"
   y2="272.8233"
   gradientTransform="matrix(1.0152,-0.2291,0.1463,0.9722,-19.0787,207.4135)">
					<stop
   offset="0"
   style="stop-color:#CF0025"
   id="stop305" />
					<stop
   offset="1"
   style="stop-color:#FF4078"
   id="stop306" />
				</linearGradient>
				<path
   style="fill:url(#SVGID_00000135683014621326646520000009537100988566876831_)"
   d="m 753.842,311.433 c 0.566,3.762 -2.24,7.549 -6.267,8.458 -4.026,0.909 -7.75,-1.404 -8.316,-5.167 -0.565,-3.761 2.24,-7.549 6.267,-8.458 4.027,-0.908 7.749,1.405 8.316,5.167 z"
   id="path306-2" />
				
					<linearGradient
   id="SVGID_00000060005042131308502080000012558865008345626768_"
   gradientUnits="userSpaceOnUse"
   x1="818.78412"
   y1="75.994202"
   x2="820.43298"
   y2="73.837898"
   gradientTransform="matrix(1.0238,-0.0277,-0.0621,0.9984,-85.6416,256.8678)">
					<stop
   offset="0"
   style="stop-color:#FF002F"
   id="stop307" />
					<stop
   offset="1"
   style="stop-color:#FF6893"
   id="stop308" />
				</linearGradient>
				<path
   style="fill:url(#SVGID_00000060005042131308502080000012558865008345626768_)"
   d="m 753.347,310.833 c -0.161,2.579 -3.091,4.746 -6.547,4.841 -3.452,0.094 -6.123,-1.922 -5.963,-4.502 0.161,-2.58 3.091,-4.747 6.546,-4.841 3.455,-0.094 6.125,1.922 5.964,4.502 z"
   id="path308-4" />
				<path
   style="fill:#012e48"
   d="m 746.493,320.604 c 2.089,-4.668 1.966,-10.202 0.815,-14.775 -0.639,-2.534 -4.9,-1.598 -4.257,0.96 0.99,3.93 1.259,8.565 -0.542,12.588 -1.142,2.552 2.848,3.768 3.984,1.227 z"
   id="path309-0" />
				<path
   style="fill:#ffe5fe"
   d="m 751.7,309.229 c -0.317,0.438 -1.103,0.453 -1.754,0.036 -0.653,-0.417 -0.926,-1.11 -0.608,-1.547 0.316,-0.437 1.102,-0.454 1.754,-0.037 0.651,0.418 0.924,1.111 0.608,1.548 z"
   id="path310-6" />
			</g>
			<g
   id="g315">
				
					<linearGradient
   id="SVGID_00000024695110291002833370000017694572833112674748_"
   gradientUnits="userSpaceOnUse"
   x1="320.29941"
   y1="173.9162"
   x2="322.68341"
   y2="170.7986"
   gradientTransform="matrix(-0.9978,-0.2958,-0.2103,0.9604,878.9185,236.9896)">
					<stop
   offset="0"
   style="stop-color:#FBB200"
   id="stop310" />
					<stop
   offset="1"
   style="stop-color:#FFFF32"
   id="stop311" />
				</linearGradient>
				<path
   style="fill:url(#SVGID_00000024695110291002833370000017694572833112674748_)"
   d="m 516.499,309.742 c -0.752,3.985 1.298,8.011 4.868,9.126 3.946,1.232 8.265,-1.483 9.267,-6.247 1.017,-4.831 -1.913,-9.163 -6.126,-9.573 -3.803,-0.369 -7.248,2.662 -8.009,6.694 z"
   id="path311-2" />
				
					<linearGradient
   id="SVGID_00000162318459903819107970000007833574776123410075_"
   gradientUnits="userSpaceOnUse"
   x1="411.50839"
   y1="56.001999"
   x2="413.10101"
   y2="53.9193"
   gradientTransform="matrix(-1.0197,-0.0954,-0.004,1.0004,942.0555,290.777)">
					<stop
   offset="0"
   style="stop-color:#FFCB00"
   id="stop312" />
					<stop
   offset="1"
   style="stop-color:#FFFF93"
   id="stop313" />
				</linearGradient>
				<path
   style="fill:url(#SVGID_00000162318459903819107970000007833574776123410075_)"
   d="m 516.956,309.069 c -0.066,2.728 2.293,4.96 5.503,4.976 3.499,0.017 6.613,-2.566 6.658,-5.753 0.044,-3.171 -2.975,-5.327 -6.45,-4.868 -3.19,0.419 -5.645,2.929 -5.711,5.645 z"
   id="path313-9" />
				<path
   style="fill:#012e48"
   d="m 522.128,319.668 c -1.454,-5.387 -0.727,-11.618 0.882,-16.934 0.912,-3.016 5.258,-2.666 4.246,0.545 -1.52,4.82 -2.343,10.339 -0.927,15.211 0.932,3.208 -3.379,4.224 -4.201,1.178 z"
   id="path314-9" />
				<path
   style="fill:#fffffe"
   d="m 518.482,307.198 c 0.24,0.441 0.934,0.379 1.551,-0.148 0.629,-0.536 0.935,-1.34 0.679,-1.785 -0.255,-0.442 -0.963,-0.354 -1.576,0.186 -0.604,0.532 -0.893,1.31 -0.654,1.747 z"
   id="path315-0" />
			</g>
			<path
   style="fill:#ffc53b"
   d="m 539.2,279.19 c 0,0 -17.771,9.939 -14.923,43.9 0,0 -1.602,10.685 9.638,11.257 h 204.131 c 0,0 7.167,-0.31 7.167,-11.257 v -82.187 -2.421 l -172.528,-4.847 -7.964,11.094 c 0,0 -9.421,13.734 -10.065,14.324 -0.643,0.591 -15.456,20.137 -15.456,20.137 z"
   id="path316-8" />
			
				<linearGradient
   id="SVGID_00000169523198657783819330000009780982963858395575_"
   gradientUnits="userSpaceOnUse"
   x1="533.9762"
   y1="285.21021"
   x2="536.39899"
   y2="288.84439">
				<stop
   offset="0.0088"
   style="stop-color:#FFFFB3"
   id="stop316" />
				<stop
   offset="1"
   style="stop-color:#FFE153"
   id="stop317" />
			</linearGradient>
			<path
   style="fill:url(#SVGID_00000169523198657783819330000009780982963858395575_)"
   d="m 528.589,299.543 c 0,0 8.239,-12.6 19.386,-15.75 h -11.632 c 0,10e-4 -5.815,3.878 -7.754,15.75 z"
   id="path317-1" />
			
				<linearGradient
   id="SVGID_00000019664945132918743550000012803783249486243218_"
   gradientUnits="userSpaceOnUse"
   x1="744.61493"
   y1="285.8544"
   x2="739.76819"
   y2="289.00479">
				<stop
   offset="0.0088"
   style="stop-color:#FFFFB3"
   id="stop318" />
				<stop
   offset="1"
   style="stop-color:#FFE153"
   id="stop319" />
			</linearGradient>
			<path
   style="fill:url(#SVGID_00000019664945132918743550000012803783249486243218_)"
   d="m 730.432,283.794 c 0,0 8.967,3.15 13.086,14.054 l -0.242,-14.054 z"
   id="path319-3" />
			<g
   id="g323">
				
					<linearGradient
   id="SVGID_00000047756509251834438680000014282458312140266155_"
   gradientUnits="userSpaceOnUse"
   x1="508.25491"
   y1="327.28589"
   x2="756.54431"
   y2="327.28589">
					<stop
   offset="0"
   style="stop-color:#A6A6B0"
   id="stop320" />
					<stop
   offset="0.9947"
   style="stop-color:#7B7B8A"
   id="stop321" />
				</linearGradient>
				<path
   style="fill:url(#SVGID_00000047756509251834438680000014282458312140266155_)"
   d="M 526.698,331.482 H 742.93 c 1.267,-1.657 2.283,-4.27 2.283,-8.392 H 524.277 c 0,0 -0.758,5.05 2.421,8.392 z"
   id="path321" />
				<path
   style="fill:#646476"
   d="m 738.046,334.347 c 0,0 2.785,-0.122 4.884,-2.865 H 526.698 c 1.444,1.52 3.704,2.686 7.217,2.865 z"
   id="path322" />
				<path
   style="fill:#012e48"
   d="m 745.213,282.076 v -41.173 -2.421 l -172.528,-4.847 -7.964,11.094 c 0,0 -9.421,13.734 -10.065,14.324 -0.643,0.59 -15.456,20.136 -15.456,20.136 0,0 -1.476,0.827 -3.505,2.811 l 0.139,0.076 z"
   id="path323" />
			</g>
			<g
   id="g327">
				<g
   id="g324">
					<rect
   x="563.96698"
   y="286.94299"
   style="fill:#32566b"
   width="154.431"
   height="1.938"
   id="rect323" />
					<rect
   x="563.96698"
   y="288.88101"
   style="fill:#012e48"
   width="154.431"
   height="8.0179996"
   id="rect324" />
				</g>
				<g
   id="g326">
					<rect
   x="563.96698"
   y="299.05899"
   style="fill:#32566b"
   width="154.431"
   height="1.939"
   id="rect325" />
					<rect
   x="563.96698"
   y="300.99799"
   style="fill:#012e48"
   width="154.431"
   height="8.0170002"
   id="rect326" />
				</g>
			</g>
			<g
   id="g331">
				<path
   style="fill:#da852a"
   d="m 562.352,327.005 h -17.447 c 0,0 -7.753,-0.323 -7.753,-14.215 0,-13.893 4.523,-30.047 23.585,-29.724 0,0 4.845,0.646 8.399,6.138 3.555,5.493 17.446,25.847 17.446,25.847 z"
   id="path327" />
				<path
   style="fill:#ffc53b"
   d="m 544.906,326.043 c -0.231,-0.016 -6.794,-0.552 -6.794,-13.253 0,-5.564 0.765,-13.469 4.405,-19.527 3.684,-6.131 9.624,-9.239 17.659,-9.239 0.158,0 0.317,10e-4 0.478,0.003 0.505,0.085 4.568,0.901 7.674,5.701 3.088,4.771 14.089,20.922 16.835,24.95 l -23.036,11.365 z"
   id="path328" />
				
					<linearGradient
   id="SVGID_00000060742289241937352100000010929102848974718362_"
   gradientUnits="userSpaceOnUse"
   x1="411.4444"
   y1="346.0152"
   x2="411.4444"
   y2="354.59259"
   gradientTransform="matrix(0.7119,-0.3331,0.3331,0.7119,142.1256,176.3831)">
					<stop
   offset="0.0088"
   style="stop-color:#FFFFB3"
   id="stop328" />
					<stop
   offset="1"
   style="stop-color:#FFE153"
   id="stop329" />
				</linearGradient>
				<path
   style="fill:url(#SVGID_00000060742289241937352100000010929102848974718362_)"
   d="m 560.497,288.847 c 1.069,2.287 -2.117,3.794 -6.055,5.637 -3.937,1.843 -7.135,3.323 -8.205,1.037 -1.07,-2.287 1.255,-5.633 5.191,-7.477 3.939,-1.842 7.999,-1.483 9.069,0.803 z"
   id="path329" />
				
					<linearGradient
   id="SVGID_00000007430398494281356570000002849374428855112892_"
   gradientUnits="userSpaceOnUse"
   x1="545.12183"
   y1="291.89481"
   x2="566.7674"
   y2="324.84781">
					<stop
   offset="0"
   style="stop-color:#FFC53B"
   id="stop330" />
					<stop
   offset="1"
   style="stop-color:#FFAA20"
   id="stop331" />
				</linearGradient>
				<path
   style="fill:url(#SVGID_00000007430398494281356570000002849374428855112892_)"
   d="m 544.906,326.043 h 17.221 l 23.036,-11.365 c -2.746,-4.028 -13.747,-20.179 -16.835,-24.95 -1.118,-1.729 -2.36,-2.935 -3.516,-3.783 2.795,4.782 6.53,11.753 0.29,14.4 -4.205,1.783 -6.693,5.42 -9.685,8.762 -3.177,3.548 -6.501,7.715 -11.716,5.646 -3.219,-1.277 -4.725,-3.769 -5.399,-6.652 -0.138,1.67 -0.189,3.257 -0.189,4.689 -0.001,12.702 6.562,13.238 6.793,13.253 z"
   id="path331" />
			</g>
			<g
   id="g336">
				<path
   style="fill:#da852a"
   d="m 714.756,327.005 h 17.446 c 0,0 7.754,-0.323 7.754,-14.215 0,-13.893 -4.523,-30.047 -23.585,-29.724 0,0 -4.847,0.646 -8.4,6.138 -3.555,5.493 -17.445,25.847 -17.445,25.847 z"
   id="path332" />
				<path
   style="fill:#ffc53b"
   d="m 732.202,326.043 c 0.232,-0.016 6.792,-0.552 6.792,-13.253 0,-5.564 -0.765,-13.469 -4.405,-19.527 -3.683,-6.131 -9.624,-9.239 -17.658,-9.239 -0.159,0 -0.317,10e-4 -0.478,0.003 -0.507,0.085 -4.57,0.901 -7.675,5.701 -3.088,4.771 -14.09,20.922 -16.835,24.95 l 23.036,11.365 z"
   id="path333" />
				
					<linearGradient
   id="SVGID_00000033355083800992942020000002398083228933047484_"
   gradientUnits="userSpaceOnUse"
   x1="130.532"
   y1="214.7505"
   x2="130.532"
   y2="223.3277"
   gradientTransform="matrix(-0.7119,-0.3331,-0.3331,0.7119,891.2083,176.3831)">
					<stop
   offset="0.0088"
   style="stop-color:#FFFFB3"
   id="stop333" />
					<stop
   offset="1"
   style="stop-color:#FFE153"
   id="stop334" />
				</linearGradient>
				<path
   style="fill:url(#SVGID_00000033355083800992942020000002398083228933047484_)"
   d="m 716.61,288.847 c -1.069,2.287 2.115,3.794 6.054,5.637 3.938,1.843 7.137,3.323 8.206,1.037 1.07,-2.287 -1.254,-5.633 -5.192,-7.477 -3.938,-1.842 -7.997,-1.483 -9.068,0.803 z"
   id="path334" />
				
					<linearGradient
   id="SVGID_00000048477511305914726730000003828514628214480522_"
   gradientUnits="userSpaceOnUse"
   x1="301.46091"
   y1="292.06519"
   x2="323.10651"
   y2="325.01819"
   gradientTransform="matrix(-1,0,0,1,1033.334,0)">
					<stop
   offset="0"
   style="stop-color:#FFC53B"
   id="stop335" />
					<stop
   offset="1"
   style="stop-color:#FFAA20"
   id="stop336" />
				</linearGradient>
				<path
   style="fill:url(#SVGID_00000048477511305914726730000003828514628214480522_)"
   d="m 732.202,326.043 h -17.223 l -23.036,-11.365 c 2.745,-4.028 13.747,-20.179 16.835,-24.95 1.118,-1.729 2.36,-2.935 3.516,-3.783 -2.794,4.782 -6.528,11.753 -0.289,14.4 4.204,1.783 6.692,5.42 9.685,8.762 3.176,3.548 6.502,7.715 11.716,5.646 3.219,-1.277 4.725,-3.769 5.399,-6.652 0.137,1.67 0.189,3.257 0.189,4.689 0,12.702 -6.56,13.238 -6.792,13.253 z"
   id="path336" />
			</g>
			
				<linearGradient
   id="SVGID_00000049206732187402530330000003451835745386379703_"
   gradientUnits="userSpaceOnUse"
   x1="640.42969"
   y1="241.38921"
   x2="640.42969"
   y2="274.34311">
				<stop
   offset="0"
   style="stop-color:#54FFFF"
   id="stop337" />
				<stop
   offset="1"
   style="stop-color:#00E1FF"
   id="stop338" />
			</linearGradient>
			<path
   style="fill:url(#SVGID_00000049206732187402530330000003451835745386379703_)"
   d="m 563.481,239.451 c 0,0 -15.992,10.177 -24.23,39.739 h 31.016 v -46.932 l -3.392,-0.076 z m 10.535,39.739 h 25.643 v -46.938 h -25.643 z m 28.389,0 h 25.643 v -46.938 h -25.643 z m 28.39,0 h 25.644 v -46.938 h -25.644 z m 28.39,0 h 25.644 v -46.938 h -25.644 z m 28.39,0 h 25.643 v -46.938 h -25.643 z m 28.391,-46.938 v 46.938 h 25.643 v -46.938 z"
   id="path338" />
			<g
   id="g345">
				<g
   id="g341">
					<path
   style="fill:#ffe153"
   d="m 587.227,219.097 h 134.724 c 0,0 21.796,-2.723 23.191,20.839 h 0.07 c 0,-26.169 -23.262,-23.262 -23.262,-23.262 H 587.227 c -25.2,0 -24.716,6.785 -24.716,6.785 v 2.366 c 0.022,-0.649 0.861,-6.728 24.716,-6.728 z"
   id="path339" />
					<path
   style="fill:#ffc53b"
   d="m 562.512,225.881 v -0.057 c -10e-4,0.037 0,0.057 0,0.057 z"
   id="path340" />
					<path
   style="fill:#ffc53b"
   d="M 721.951,219.097 H 587.227 c -23.855,0 -24.694,6.08 -24.716,6.728 v 0.057 14.054 h 182.631 c -1.395,-23.562 -23.191,-20.839 -23.191,-20.839 z"
   id="path341" />
				</g>
				<path
   style="fill:#da852a"
   d="m 745.143,239.936 c -0.062,-1.019 -0.162,-1.985 -0.294,-2.908 H 562.512 v 2.908 z"
   id="path342" />
				<g
   id="g344">
					<path
   style="fill:#012e48"
   d="m 567.844,218.989 c -0.489,0.175 -0.931,0.352 -1.333,0.533 v 14.961 h -3.999 v 1.333 h 5.332 z"
   id="path343" />
					<path
   style="fill:#ffffff"
   d="m 562.512,223.459 v 2.366 c -10e-4,0.037 0,0.057 0,0.057 v 8.602 h 3.999 v -14.961 c -4.145,1.856 -3.999,3.936 -3.999,3.936 z"
   id="path344" />
				</g>
			</g>
		</g>
		<g
   id="g355">
			<path
   style="fill:#231f20"
   d="m 559.398,337.032 h 48.433 c 0,0 -3.588,-20.271 -23.319,-20.271 -19.733,10e-4 -25.114,20.271 -25.114,20.271 z"
   id="path346" />
			<g
   id="g350">
				<circle
   style="fill:#012e48"
   cx="584.02502"
   cy="336.62799"
   r="18.162001"
   id="circle346" />
				
					<linearGradient
   id="SVGID_00000119083540179594941020000014161780403357593525_"
   gradientUnits="userSpaceOnUse"
   x1="584.0249"
   y1="323.84671"
   x2="584.0249"
   y2="318.97379">
					<stop
   offset="0"
   style="stop-color:#012E48"
   id="stop346" />
					<stop
   offset="1"
   style="stop-color:#6F8998"
   id="stop347" />
				</linearGradient>
				<path
   style="fill:url(#SVGID_00000119083540179594941020000014161780403357593525_)"
   d="m 590.875,322.525 c 0,1.621 -3.066,0.42 -6.85,0.42 -3.784,0 -6.851,1.2 -6.851,-0.42 0,-1.621 3.067,-2.935 6.851,-2.935 3.784,0 6.85,1.313 6.85,2.935 z"
   id="path347" />
				<path
   style="fill:#231f20"
   d="m 593.954,336.628 c 0,5.483 -4.446,9.928 -9.929,9.928 -5.483,0 -9.93,-4.445 -9.93,-9.928 0,-5.483 4.446,-9.928 9.93,-9.928 5.483,-10e-4 9.929,4.444 9.929,9.928 z"
   id="path348" />
				<path
   style="fill:#87d1f4"
   d="m 592.002,336.628 c 0,4.406 -3.571,7.978 -7.977,7.978 -4.406,0 -7.978,-3.571 -7.978,-7.978 0,-4.405 3.571,-7.977 7.978,-7.977 4.406,-0.001 7.977,3.571 7.977,7.977 z"
   id="path349" />
				<path
   style="fill:#231f20"
   d="m 587.704,336.628 c 0,2.031 -1.648,3.678 -3.679,3.678 -2.032,0 -3.679,-1.647 -3.679,-3.678 0,-2.031 1.646,-3.677 3.679,-3.677 2.031,-0.001 3.679,1.646 3.679,3.677 z"
   id="path350" />
			</g>
			<g
   id="g354">
				<path
   style="fill:#da852a"
   d="m 606.473,323.649 c -5.018,-6.759 -13.742,-10.686 -22.139,-10.239 -0.548,0.028 -1.048,-0.064 -1.586,-0.057 -8.214,0.09 -16.435,3.06 -21.787,10.295 -2.527,3.418 -5.208,8.241 -5.33,12.844 -0.108,4.124 5.609,4.15 5.804,0.094 0.04,-0.202 0.071,-0.405 0.12,-0.604 0.195,-0.772 0.401,-1.532 0.658,-2.282 0.479,-1.403 1.69,-3.853 2.857,-5.485 4.313,-6.029 10.945,-8.331 17.678,-8.405 7.575,-0.083 14.997,1.959 19.615,8.405 0.631,0.88 1.183,1.836 1.684,2.814 0.468,0.913 0.949,2.033 1.124,2.53 0.269,0.763 0.486,1.539 0.685,2.327 0.058,0.23 0.098,0.464 0.143,0.697 0.191,4.055 5.912,4.043 5.804,-0.089 -0.121,-4.6 -2.799,-9.434 -5.33,-12.845 z"
   id="path351" />
				<g
   id="g353">
					<path
   style="fill:#ffc53b"
   d="m 605.615,324.286 c -0.191,-0.256 -0.392,-0.499 -0.591,-0.746 -3.519,-2.948 -10.27,-7.227 -19.796,-7.227 -9.72,0 -17.29,3.281 -21.24,5.455 -0.776,0.783 -1.505,1.618 -2.169,2.516 -1.857,2.513 -4.994,7.444 -5.12,12.237 -0.018,0.641 0.155,1.166 0.497,1.52 0.311,0.317 0.768,0.499 1.255,0.499 0.906,0 1.85,-0.62 1.917,-2.005 0.002,-0.05 0.009,-0.101 0.02,-0.151 l 0.028,-0.162 c 0.031,-0.167 0.063,-0.335 0.102,-0.5 0.176,-0.697 0.395,-1.523 0.683,-2.368 0.507,-1.477 1.767,-4.036 3.001,-5.761 5.152,-7.204 12.923,-8.789 18.534,-8.851 7.58,-0.083 15.106,1.885 19.996,8.18 0.17,0.221 0.336,0.443 0.5,0.67 0.602,0.84 1.179,1.805 1.765,2.95 0.48,0.938 0.987,2.11 1.183,2.661 0.244,0.697 0.471,1.466 0.713,2.422 0.051,0.208 0.091,0.419 0.13,0.63 l 0.024,0.129 c 0.01,0.048 0.015,0.098 0.018,0.147 0.065,1.387 1.013,2.008 1.922,2.008 0.486,0 0.941,-0.182 1.249,-0.498 0.344,-0.353 0.517,-0.878 0.5,-1.521 -0.129,-4.814 -3.263,-9.732 -5.121,-12.234 z"
   id="path352" />
					
						<radialGradient
   id="SVGID_00000084511601389961566320000003952752783420597932_"
   cx="811.22357"
   cy="190.6456"
   r="17.794701"
   gradientTransform="matrix(0.4277,0,0,0.4277,236.6902,233.4514)"
   gradientUnits="userSpaceOnUse">
						<stop
   offset="0.0088"
   style="stop-color:#FFFFB3"
   id="stop352" />
						<stop
   offset="1"
   style="stop-color:#FFE153"
   id="stop353" />
					</radialGradient>
					<path
   style="fill:url(#SVGID_00000084511601389961566320000003952752783420597932_)"
   d="m 605.024,323.54 c -0.681,-0.57 -1.218,-1.418 -1.863,-2.045 -0.715,-0.696 -1.475,-1.346 -2.274,-1.944 -1.584,-1.187 -3.319,-2.17 -5.143,-2.938 -1.905,-0.803 -3.907,-1.372 -5.943,-1.728 -1.047,-0.182 -2.104,-0.309 -3.162,-0.384 -1.252,-0.088 -2.633,-0.08 -3.879,-0.08 -7.6,0.084 -14.139,2.672 -18.771,7.347 3.95,-2.173 11.521,-5.455 21.24,-5.455 9.526,0.001 16.277,4.279 19.795,7.227 z"
   id="path353" />
				</g>
			</g>
		</g>
		<g
   id="g365">
			<path
   style="fill:#231f20"
   d="m 670.536,337.032 h 48.433 c 0,0 -3.588,-20.271 -23.318,-20.271 -19.733,10e-4 -25.115,20.271 -25.115,20.271 z"
   id="path355" />
			<g
   id="g360">
				<path
   style="fill:#012e48"
   d="m 713.326,336.628 c 0,10.031 -8.131,18.162 -18.162,18.162 -10.031,0 -18.163,-8.131 -18.163,-18.162 0,-10.031 8.132,-18.162 18.163,-18.162 10.031,-0.001 18.162,8.131 18.162,18.162 z"
   id="path356" />
				
					<linearGradient
   id="SVGID_00000127013504540186927750000015143789051786149778_"
   gradientUnits="userSpaceOnUse"
   x1="695.16412"
   y1="323.84671"
   x2="695.16412"
   y2="318.97379">
					<stop
   offset="0"
   style="stop-color:#012E48"
   id="stop356" />
					<stop
   offset="1"
   style="stop-color:#6F8998"
   id="stop357" />
				</linearGradient>
				<path
   style="fill:url(#SVGID_00000127013504540186927750000015143789051786149778_)"
   d="m 702.014,322.525 c 0,1.621 -3.066,0.42 -6.85,0.42 -3.782,0 -6.85,1.2 -6.85,-0.42 0,-1.621 3.067,-2.935 6.85,-2.935 3.783,-10e-4 6.85,1.313 6.85,2.935 z"
   id="path357" />
				<path
   style="fill:#231f20"
   d="m 705.092,336.628 c 0,5.483 -4.445,9.928 -9.928,9.928 -5.483,0 -9.929,-4.445 -9.929,-9.928 0,-5.483 4.445,-9.928 9.929,-9.928 5.482,-10e-4 9.928,4.444 9.928,9.928 z"
   id="path358" />
				<path
   style="fill:#87d1f4"
   d="m 703.141,336.628 c 0,4.406 -3.571,7.978 -7.977,7.978 -4.405,0 -7.978,-3.571 -7.978,-7.978 0,-4.405 3.572,-7.977 7.978,-7.977 4.405,-0.001 7.977,3.571 7.977,7.977 z"
   id="path359" />
				<path
   style="fill:#231f20"
   d="m 698.842,336.628 c 0,2.031 -1.646,3.678 -3.678,3.678 -2.03,0 -3.678,-1.647 -3.678,-3.678 0,-2.031 1.648,-3.677 3.678,-3.677 2.031,-0.001 3.678,1.646 3.678,3.677 z"
   id="path360" />
			</g>
			<g
   id="g364">
				<path
   style="fill:#da852a"
   d="m 717.611,323.649 c -5.018,-6.759 -13.742,-10.686 -22.139,-10.239 -0.548,0.028 -1.049,-0.064 -1.586,-0.057 -8.213,0.09 -16.436,3.06 -21.787,10.295 -2.527,3.418 -5.209,8.241 -5.33,12.844 -0.108,4.124 5.609,4.15 5.805,0.094 0.038,-0.202 0.069,-0.405 0.12,-0.604 0.194,-0.772 0.4,-1.532 0.656,-2.282 0.479,-1.403 1.69,-3.853 2.858,-5.485 4.313,-6.029 10.946,-8.331 17.678,-8.405 7.576,-0.083 14.998,1.959 19.615,8.405 0.631,0.88 1.184,1.836 1.684,2.814 0.468,0.913 0.95,2.033 1.125,2.53 0.269,0.763 0.485,1.539 0.685,2.327 0.057,0.23 0.097,0.464 0.142,0.697 0.191,4.055 5.914,4.043 5.805,-0.089 -0.123,-4.6 -2.799,-9.434 -5.331,-12.845 z"
   id="path361" />
				<g
   id="g363">
					<path
   style="fill:#ffc53b"
   d="m 716.754,324.286 c -0.19,-0.256 -0.392,-0.499 -0.591,-0.746 -3.519,-2.948 -10.269,-7.227 -19.796,-7.227 -9.72,0 -17.289,3.281 -21.24,5.455 -0.775,0.783 -1.503,1.618 -2.168,2.516 -1.859,2.513 -4.994,7.444 -5.122,12.237 -0.016,0.641 0.156,1.166 0.499,1.52 0.311,0.317 0.767,0.499 1.254,0.499 0.906,0 1.851,-0.62 1.917,-2.005 0.002,-0.05 0.009,-0.101 0.019,-0.151 l 0.03,-0.162 c 0.031,-0.167 0.062,-0.335 0.104,-0.5 0.174,-0.697 0.393,-1.523 0.682,-2.368 0.505,-1.477 1.766,-4.036 2.999,-5.761 5.152,-7.204 12.923,-8.789 18.535,-8.851 7.579,-0.083 15.104,1.885 19.995,8.18 0.171,0.221 0.339,0.443 0.5,0.67 0.602,0.84 1.18,1.805 1.767,2.95 0.479,0.938 0.986,2.11 1.182,2.661 0.245,0.697 0.472,1.466 0.712,2.422 0.053,0.208 0.092,0.419 0.131,0.63 l 0.024,0.129 c 0.009,0.048 0.017,0.098 0.019,0.147 0.065,1.387 1.012,2.008 1.921,2.008 0.486,0 0.941,-0.182 1.251,-0.498 0.342,-0.353 0.515,-0.878 0.498,-1.521 -0.13,-4.814 -3.266,-9.732 -5.122,-12.234 z"
   id="path362" />
					
						<radialGradient
   id="SVGID_00000078023955132687541510000018095303878852147594_"
   cx="1071.0889"
   cy="190.6456"
   r="17.794701"
   gradientTransform="matrix(0.4277,0,0,0.4277,236.6902,233.4514)"
   gradientUnits="userSpaceOnUse">
						<stop
   offset="0.0088"
   style="stop-color:#FFFFB3"
   id="stop362" />
						<stop
   offset="1"
   style="stop-color:#FFE153"
   id="stop363" />
					</radialGradient>
					<path
   style="fill:url(#SVGID_00000078023955132687541510000018095303878852147594_)"
   d="m 716.163,323.54 c -0.681,-0.57 -1.218,-1.418 -1.863,-2.045 -0.714,-0.696 -1.475,-1.346 -2.274,-1.944 -1.583,-1.187 -3.318,-2.17 -5.143,-2.938 -1.906,-0.803 -3.906,-1.372 -5.942,-1.728 -1.047,-0.182 -2.103,-0.309 -3.163,-0.384 -1.252,-0.088 -2.633,-0.08 -3.878,-0.08 -7.601,0.084 -14.141,2.672 -18.773,7.347 3.951,-2.173 11.521,-5.455 21.24,-5.455 9.527,0.001 16.277,4.279 19.796,7.227 z"
   id="path363" />
				</g>
			</g>
		</g>
		<path
   style="fill:#012e48"
   d="m 555.726,274.984 c -1.839,-2.285 -5.026,-3.809 -7.959,-2.761 -1.208,0.432 -0.982,2.107 -0.032,2.373 -1.506,1.402 -3.013,2.805 -4.517,4.207 -0.459,0.426 0.228,1.11 0.684,0.686 1.842,-1.716 3.685,-3.431 5.525,-5.146 1.796,-0.15 3.457,0.954 4.584,2.354 0.977,1.215 2.682,-0.508 1.715,-1.713 z"
   id="path365" />
		<g
   id="g367">
			<path
   style="fill:#da852a"
   d="m 538.767,271.112 c -2.677,0 -4.847,4.05 -4.847,9.046 0,4.996 2.17,9.046 4.847,9.046 0.108,0 0.216,-0.017 0.322,-0.03 v -18.032 c -0.107,-0.012 -0.214,-0.03 -0.322,-0.03 z"
   id="path366" />
			<path
   style="fill:#012e48"
   d="m 540.3,289.175 c 0,-6.021 0,-12.042 0,-18.063 0,-1.559 -2.421,-1.562 -2.421,0 0,6.021 0,12.042 0,18.063 0,1.559 2.421,1.561 2.421,0 z"
   id="path367" />
		</g>
	</g>
</g></g></svg>
