<?xml version="1.0" encoding="UTF-8" standalone="no"?>
<!-- Created with Inkscape (http://www.inkscape.org/) -->

<svg
   width="46.075863mm"
   height="27.781509mm"
   viewBox="0 0 46.075863 27.781509"
   version="1.1"
   id="svg1"
   xml:space="preserve"
   xmlns="http://www.w3.org/2000/svg"
   xmlns:svg="http://www.w3.org/2000/svg"><defs
     id="defs1" /><g
     id="layer1"
     transform="translate(99.807584,-607.23618)"><g
       id="CAR"
       transform="matrix(0.26458333,0,0,0.26458333,-106.12187,591.66539)">
	<g
   id="g643">
		
			<linearGradient
   id="SVGID_00000116920458361349876260000005951016636427632013_"
   gradientUnits="userSpaceOnUse"
   x1="119.1321"
   y1="52.712002"
   x2="119.1321"
   y2="96.529297">
			<stop
   offset="0.0018"
   style="stop-color:#00C6E0"
   id="stop577" />
			<stop
   offset="1"
   style="stop-color:#00A4CF"
   id="stop578" />
		</linearGradient>
		<path
   style="fill:url(#SVGID_00000116920458361349876260000005951016636427632013_)"
   d="m 141.595,58.85 h -28.561 c 0,0 -20.276,0.315 -25.383,16.617 -0.15,0.481 -0.302,0.99 -0.454,1.52 h 28.325 v 27.71 H 59.065 L 58.758,105 60.37,125.089 c 0,0 9.127,9.176 11.841,12.822 1.25,1.681 3.327,2.928 5.204,3.786 l 1.373,5.257 h 56.788 l 43.931,-35.765 c -0.001,0 -1.273,-52.339 -37.912,-52.339 z m -22.58,46.197 v -28.06 h 36.787 c 0,0 10.732,-1.687 10.732,28.06 z"
   id="path578" />
		
			<linearGradient
   id="SVGID_00000137102804425140593290000004181984490874482585_"
   gradientUnits="userSpaceOnUse"
   x1="119.1326"
   y1="110.5425"
   x2="119.1326"
   y2="121.2042">
			<stop
   offset="0.0018"
   style="stop-color:#00C6E0"
   id="stop579" />
			<stop
   offset="1"
   style="stop-color:#00A4CF"
   id="stop580" />
		</linearGradient>
		
			<rect
   x="66.915001"
   y="109.816"
   style="fill:url(#SVGID_00000137102804425140593290000004181984490874482585_)"
   width="104.435"
   height="29.804001"
   id="rect580" />
		<rect
   x="114.166"
   y="107.635"
   style="fill:#00a4cf"
   width="6.7839999"
   height="37.799999"
   id="rect581" />
		<path
   style="fill:#0097c2"
   d="m 116.346,105.374 c 0,12.169 0,24.338 0,36.507 0,1.56 2.423,1.562 2.423,0 0,-12.169 0,-24.338 0,-36.507 0,-1.56 -2.423,-1.562 -2.423,0 z"
   id="path581" />
		<path
   style="fill:#0097c2"
   d="m 77.496,143.093 c 18.174,0 36.348,0 54.522,0 2.61,0 5.222,0 7.833,0 1.559,0 1.561,-2.423 0,-2.423 -18.174,0 -36.348,0 -54.522,0 -2.611,0 -5.222,0 -7.832,0 -1.56,0 -1.563,2.423 -0.001,2.423 z"
   id="path582" />
		<path
   style="fill:#0097c2"
   d="m 77.496,147.212 c 18.174,0 36.348,0 54.522,0 2.61,0 5.222,0 7.833,0 1.559,0 1.561,-2.423 0,-2.423 -18.174,0 -36.348,0 -54.522,0 -2.611,0 -5.222,0 -7.832,0 -1.56,0 -1.563,2.423 -0.001,2.423 z"
   id="path583" />
		<path
   style="fill:#0097c2"
   d="m 77.496,145.274 c 18.174,0 36.348,0 54.522,0 2.61,0 5.222,0 7.833,0 1.559,0 1.561,-2.423 0,-2.423 -18.174,0 -36.348,0 -54.522,0 -2.611,0 -5.222,0 -7.832,0 -1.56,0 -1.563,2.423 -0.001,2.423 z"
   id="path584" />
		<path
   style="fill:#012e48"
   d="m 106.518,111.379 c -2.735,-0.027 -4.953,1.434 -4.953,3.264 l 9.906,0.101 c 0,-1.831 -2.218,-3.337 -4.953,-3.365 z"
   id="path585" />
		<path
   style="fill:#012e48"
   d="m 169.71,107.754 c 0,0 2.215,-32.044 -13.1,-35.129 -15.315,-3.087 -62.231,-5.935 -63.667,-5.697 -0.056,0.01 -0.124,0.023 -0.195,0.038 -2.17,2.19 -3.989,4.971 -5.096,8.503 -0.15,0.481 -0.302,0.99 -0.454,1.52 h 28.325 v 27.71 H 59.065 l -0.307,0.301 0.143,1.79 4.758,0.964 z M 119.015,76.987 h 36.787 c 0,0 10.732,-1.687 10.732,28.06 h -47.519 z"
   id="path586" />
		
			<linearGradient
   id="SVGID_00000039126054651480057170000013839468963122672532_"
   gradientUnits="userSpaceOnUse"
   x1="112.7993"
   y1="75.165604"
   x2="112.7993"
   y2="93.659203">
			<stop
   offset="0"
   style="stop-color:#54FFFF"
   id="stop586" />
			<stop
   offset="1"
   style="stop-color:#00E1FF"
   id="stop587" />
		</linearGradient>
		<path
   style="fill:url(#SVGID_00000039126054651480057170000013839468963122672532_)"
   d="m 59.065,104.697 h 56.457 V 76.987 H 87.197 Z m 96.737,-27.71 h -36.787 v 28.06 h 47.519 c 0,-29.747 -10.732,-28.06 -10.732,-28.06 z"
   id="path587" />
		<g
   id="g593">
			
				<linearGradient
   id="SVGID_00000169532464718386421790000016341564260589184939_"
   gradientUnits="userSpaceOnUse"
   x1="128.4792"
   y1="59.900002"
   x2="128.4792"
   y2="68.623199">
				<stop
   offset="0.0018"
   style="stop-color:#E0A300"
   id="stop588" />
				<stop
   offset="1"
   style="stop-color:#CF7700"
   id="stop589" />
			</linearGradient>
			<path
   style="fill:url(#SVGID_00000169532464718386421790000016341564260589184939_)"
   d="m 141.595,58.85 h -28.561 c 0,0 -19.03,0.296 -24.861,15.137 h 80.613 C 163.168,65.463 154.617,58.85 141.595,58.85 Z"
   id="path589" />
			<path
   style="fill:#ffc53b"
   d="m 89.636,73.025 c 2.468,-5.188 6.976,-8.967 13.42,-11.246 5.282,-1.868 9.947,-1.967 9.993,-1.968 h 28.544 c 10.5,0 19.023,4.444 25.36,13.213 H 89.636 Z"
   id="path590" />
			
				<linearGradient
   id="SVGID_00000050665364470551363170000013398335953177384327_"
   gradientUnits="userSpaceOnUse"
   x1="127.7095"
   y1="51.660702"
   x2="127.7095"
   y2="70.079201">
				<stop
   offset="0"
   style="stop-color:#FFFF54"
   id="stop590" />
				<stop
   offset="1"
   style="stop-color:#FFC53B"
   id="stop591" />
			</linearGradient>
			<path
   style="fill:url(#SVGID_00000050665364470551363170000013398335953177384327_)"
   d="m 111.367,61.371 h 31.696 c 5.304,0 10.148,0.93 14.522,2.759 -4.663,-2.868 -10.004,-4.318 -15.991,-4.318 H 113.05 c -0.046,0.001 -4.711,0.1 -9.993,1.968 -1.914,0.677 -3.653,1.489 -5.223,2.428 0.783,-0.311 1.593,-0.602 2.437,-0.87 5.865,-1.868 11.044,-1.966 11.096,-1.967 z"
   id="path591" />
			
				<linearGradient
   id="SVGID_00000123420355222313534340000000172064785970167719_"
   gradientUnits="userSpaceOnUse"
   x1="128.2952"
   y1="78.800301"
   x2="128.2952"
   y2="68.622803">
				<stop
   offset="0"
   style="stop-color:#CF7700"
   id="stop592" />
				<stop
   offset="1"
   style="stop-color:#FFC53B"
   id="stop593" />
			</linearGradient>
			<path
   style="fill:url(#SVGID_00000123420355222313534340000000172064785970167719_)"
   d="m 166.954,73.025 c -0.757,-1.049 -1.549,-2.031 -2.369,-2.957 H 91.377 v 0 c -0.661,0.93 -1.244,1.913 -1.741,2.957 z"
   id="path593" />
		</g>
		<g
   id="g599">
			
				<linearGradient
   id="SVGID_00000052064817834613809310000012958447930967175077_"
   gradientUnits="userSpaceOnUse"
   x1="193.61099"
   y1="137.93581"
   x2="195.1861"
   y2="135.8761">
				<stop
   offset="0"
   style="stop-color:#CF0025"
   id="stop594" />
				<stop
   offset="1"
   style="stop-color:#FF4078"
   id="stop595" />
			</linearGradient>
			<path
   style="fill:url(#SVGID_00000052064817834613809310000012958447930967175077_)"
   d="m 198.01,138.845 c 0,2.746 -2.281,4.971 -5.094,4.971 -2.814,0 -5.095,-2.226 -5.095,-4.971 0,-2.745 2.281,-4.97 5.095,-4.97 2.814,0 5.094,2.225 5.094,4.97 z"
   id="path595" />
			
				<linearGradient
   id="SVGID_00000077319682113499585730000013137914328148863930_"
   gradientUnits="userSpaceOnUse"
   x1="279.90359"
   y1="47.060001"
   x2="281.07321"
   y2="45.530499"
   gradientTransform="matrix(0.9793,0.2023,-0.2023,0.9793,-70.4986,34.2285)">
				<stop
   offset="0"
   style="stop-color:#FF002F"
   id="stop596" />
				<stop
   offset="1"
   style="stop-color:#FF6893"
   id="stop597" />
			</linearGradient>
			<path
   style="fill:url(#SVGID_00000077319682113499585730000013137914328148863930_)"
   d="m 197.737,138.342 c -0.371,1.795 -2.572,2.858 -4.915,2.374 -2.344,-0.484 -3.943,-2.332 -3.573,-4.127 0.371,-1.795 2.573,-2.858 4.916,-2.373 2.343,0.484 3.943,2.331 3.572,4.126 z"
   id="path597" />
			<path
   style="fill:#012e48"
   d="m 192.111,144.146 c 1.887,-2.961 2.367,-6.886 2.053,-10.297 -0.174,-1.891 -3.149,-1.909 -2.974,0 0.269,2.931 -0.021,6.244 -1.646,8.797 -1.032,1.619 1.541,3.113 2.567,1.5 z"
   id="path598" />
			<path
   style="fill:#ffe5fe"
   d="m 196.787,136.949 c -0.258,0.258 -0.791,0.145 -1.189,-0.254 -0.398,-0.399 -0.512,-0.931 -0.254,-1.188 0.259,-0.258 0.792,-0.145 1.19,0.253 0.397,0.398 0.511,0.931 0.253,1.189 z"
   id="path599" />
		</g>
		<path
   style="fill:#012e48"
   d="m 75.321,100.861 c -1.838,-2.285 -5.026,-3.808 -7.958,-2.76 -1.207,0.432 -0.981,2.108 -0.032,2.374 -1.505,1.402 -3.011,2.804 -4.517,4.206 -0.457,0.426 0.229,1.111 0.686,0.686 1.842,-1.715 3.683,-3.431 5.525,-5.146 1.795,-0.149 3.458,0.955 4.584,2.354 0.976,1.215 2.681,-0.509 1.712,-1.714 z"
   id="path600" />
		<g
   id="g611">
			<g
   id="g610">
				
					<linearGradient
   id="SVGID_00000154424172300778299710000015154459146247482259_"
   gradientUnits="userSpaceOnUse"
   x1="52.497601"
   y1="113.2081"
   x2="52.497601"
   y2="140.5905">
					<stop
   offset="0.0018"
   style="stop-color:#00C6E0"
   id="stop600" />
					<stop
   offset="1"
   style="stop-color:#00A4CF"
   id="stop601" />
				</linearGradient>
				<path
   style="fill:url(#SVGID_00000154424172300778299710000015154459146247482259_)"
   d="m 77.098,125.147 c -4.511,-14.069 -11.78,-21.52 -21.028,-21.551 -0.162,-0.012 -0.582,-0.04 -1.214,-0.04 -3.004,0 -10.749,0.615 -17.772,6.311 -8.771,7.113 -13.219,19.325 -13.219,36.295 0,0.758 0.615,1.374 1.374,1.374 h 54.52 c 0.38,0 0.743,-0.157 1.002,-0.435 0.26,-0.276 0.394,-0.649 0.369,-1.027 -0.029,-0.428 -0.717,-10.587 -4.032,-20.927 z"
   id="path601" />
				
					<linearGradient
   id="SVGID_00000145737758060509758350000010890300786640501920_"
   gradientUnits="userSpaceOnUse"
   x1="52.497898"
   y1="103.5157"
   x2="52.497898"
   y2="113.6956">
					<stop
   offset="0"
   style="stop-color:#54FFFF"
   id="stop602" />
					<stop
   offset="1"
   style="stop-color:#00E1FF"
   id="stop603" />
				</linearGradient>
				<path
   style="fill:url(#SVGID_00000145737758060509758350000010890300786640501920_)"
   d="m 25.238,146.574 c -0.227,0 -0.412,-0.185 -0.412,-0.412 0,-16.666 4.328,-28.626 12.862,-35.548 6.786,-5.501 14.266,-6.096 17.167,-6.096 0.602,0 0.998,0.026 1.14,0.036 0.024,0.002 0.047,0.003 0.071,0.004 8.79,0.029 15.746,7.25 20.115,20.883 3.279,10.225 3.96,20.272 3.987,20.695 0.007,0.113 -0.033,0.226 -0.111,0.308 -0.078,0.083 -0.188,0.131 -0.301,0.131 H 25.238 Z"
   id="path603" />
				
					<linearGradient
   id="SVGID_00000006701576046495362930000007467693231391339194_"
   gradientUnits="userSpaceOnUse"
   x1="52.497898"
   y1="179.1172"
   x2="52.497898"
   y2="118.7494">
					<stop
   offset="0"
   style="stop-color:#00A4CF"
   id="stop604" />
					<stop
   offset="1"
   style="stop-color:#00E1FF"
   id="stop605" />
				</linearGradient>
				<path
   style="fill:url(#SVGID_00000006701576046495362930000007467693231391339194_)"
   d="m 25.238,146.574 h 54.52 c 0.113,0 0.223,-0.048 0.301,-0.131 0.078,-0.083 0.118,-0.195 0.111,-0.308 -0.021,-0.327 -0.435,-6.406 -2.135,-13.873 -2.238,8.414 -3.67,-11.525 -23.719,-11.059 -20.838,0.485 -23.504,19.143 -26.411,18.9 -1.604,-0.134 -2.322,-1.447 -2.644,-2.598 -0.288,2.727 -0.434,5.612 -0.434,8.655 -0.001,0.229 0.184,0.414 0.411,0.414 z"
   id="path605" />
				<g
   id="g609">
					<path
   style="fill:#2f5469"
   d="m 26.301,127.02 c -0.145,0.491 -0.283,0.99 -0.415,1.495 0.168,0.092 0.338,0.179 0.517,0.253 0.124,0.051 0.249,0.097 0.375,0.137 0.127,-0.492 0.26,-0.978 0.399,-1.457 -0.067,-0.023 -0.135,-0.046 -0.202,-0.074 -0.237,-0.099 -0.46,-0.219 -0.674,-0.354 z m 12.201,-18.228 c -0.359,0.255 -0.717,0.524 -1.074,0.804 0.164,0.274 0.312,0.566 0.439,0.878 0.346,-0.275 0.693,-0.54 1.041,-0.791 -0.119,-0.312 -0.256,-0.609 -0.406,-0.891 z"
   id="path606" />
					<path
   d="m 37.343,120.032 c -2.209,5.377 -6.716,8.639 -10.166,7.414 -0.14,0.479 -0.272,0.964 -0.399,1.457 3.915,1.254 8.959,-2.453 11.447,-8.508 1.611,-3.919 1.766,-7.893 0.683,-10.712 -0.348,0.251 -0.695,0.516 -1.041,0.791 1.025,2.481 0.921,6.041 -0.524,9.558 z"
   id="path607" />
					<path
   style="fill:#ffa900"
   d="m 37.689,110.614 c 0.06,-0.048 0.12,-0.093 0.179,-0.14 -0.128,-0.311 -0.276,-0.603 -0.439,-0.878 -0.115,0.09 -0.23,0.178 -0.345,0.271 -5.018,4.069 -8.618,9.81 -10.782,17.152 0.214,0.135 0.437,0.256 0.674,0.354 0.067,0.027 0.135,0.05 0.202,0.074 2.104,-7.227 5.614,-12.861 10.511,-16.833 z"
   id="path608" />
					<path
   style="fill:#ffde00"
   d="m 37.343,120.032 c 1.445,-3.518 1.549,-7.078 0.524,-9.559 -0.059,0.047 -0.119,0.092 -0.179,0.14 -4.897,3.972 -8.406,9.606 -10.511,16.833 3.45,1.225 7.957,-2.037 10.166,-7.414 z"
   id="path609" />
				</g>
			</g>
			
				<linearGradient
   id="SVGID_00000051358900740519479600000016629921751033376916_"
   gradientUnits="userSpaceOnUse"
   x1="29.430901"
   y1="174.4068"
   x2="29.430901"
   y2="170.02879"
   gradientTransform="matrix(1,0,0.0446,0.8846,17.5792,-45.4294)">
				<stop
   offset="0"
   style="stop-color:#54FFFF"
   id="stop610" />
				<stop
   offset="0.999"
   style="stop-color:#FFFFFF"
   id="stop611" />
			</linearGradient>
			<path
   style="fill:url(#SVGID_00000051358900740519479600000016629921751033376916_)"
   d="m 59.797,107.123 c 0.05,1.006 -2.187,0.755 -4.997,0.755 -2.811,0 -5.129,0.251 -5.181,-0.755 -0.05,-1.006 2.187,-1.822 4.997,-1.822 2.811,0 5.13,0.815 5.181,1.822 z"
   id="path611" />
		</g>
		<g
   id="g619">
			
				<linearGradient
   id="SVGID_00000065779702680614720540000002449220397683472288_"
   gradientUnits="userSpaceOnUse"
   x1="161.6882"
   y1="108.7369"
   x2="161.6882"
   y2="121.1921">
				<stop
   offset="0.0018"
   style="stop-color:#00C6E0"
   id="stop612" />
				<stop
   offset="1"
   style="stop-color:#00A4CF"
   id="stop613" />
			</linearGradient>
			<path
   style="fill:url(#SVGID_00000065779702680614720540000002449220397683472288_)"
   d="m 131.773,148.335 c -0.505,0 -0.925,-0.392 -0.959,-0.896 -0.014,-0.2 -0.309,-4.97 2.161,-11.434 2.265,-5.926 7.395,-14.456 18.978,-21.44 6.415,-3.867 12.448,-5.829 17.933,-5.829 6.115,0 11.546,2.468 15.706,7.138 3.33,3.738 5.727,8.802 6.576,13.894 1.997,11.981 -3.894,18.033 -4.146,18.285 -0.18,0.181 -0.425,0.281 -0.68,0.281 h -55.569 z"
   id="path613" />
			
				<linearGradient
   id="SVGID_00000183934374370002137580000014992329942727141288_"
   gradientUnits="userSpaceOnUse"
   x1="161.6868"
   y1="108.7657"
   x2="161.6868"
   y2="121.2212">
				<stop
   offset="0"
   style="stop-color:#54FFFF"
   id="stop614" />
				<stop
   offset="1"
   style="stop-color:#00E1FF"
   id="stop615" />
			</linearGradient>
			<path
   style="fill:url(#SVGID_00000183934374370002137580000014992329942727141288_)"
   d="m 138.235,147.374 h -6.462 c 0,0 -1.292,-18.739 20.677,-31.985 24.436,-14.734 36.748,2.412 38.769,14.539 1.939,11.63 -3.877,17.447 -3.877,17.447 h -49.107 z"
   id="path615" />
			
				<linearGradient
   id="SVGID_00000078756243540613090050000013973974616138144915_"
   gradientUnits="userSpaceOnUse"
   x1="162.6635"
   y1="157.38969"
   x2="162.6635"
   y2="117.4878">
				<stop
   offset="0"
   style="stop-color:#00A4CF"
   id="stop616" />
				<stop
   offset="1"
   style="stop-color:#00E1FF"
   id="stop617" />
			</linearGradient>
			<path
   style="fill:url(#SVGID_00000078756243540613090050000013973974616138144915_)"
   d="m 187.342,147.374 c 0,0 4.693,-4.7 4.238,-14.092 -1.615,4.121 -5.967,7.725 -11.507,-1.093 -7.915,-12.6 -20.192,-11.631 -20.192,-11.631 -24.68,0 -26.088,24.596 -26.165,26.816 h 4.519 z"
   id="path617" />
			
				<linearGradient
   id="SVGID_00000129909263109086177730000005579542645367307431_"
   gradientUnits="userSpaceOnUse"
   x1="145.4575"
   y1="180.7066"
   x2="145.4575"
   y2="176.3293"
   gradientTransform="matrix(1,0,0.0446,0.8846,17.5792,-45.4294)">
				<stop
   offset="0"
   style="stop-color:#54FFFF"
   id="stop618" />
				<stop
   offset="0.999"
   style="stop-color:#FFFFFF"
   id="stop619" />
			</linearGradient>
			<path
   style="fill:url(#SVGID_00000129909263109086177730000005579542645367307431_)"
   d="m 176.105,112.696 c 0.051,1.006 -2.186,0.754 -4.996,0.754 -2.811,0 -5.129,0.251 -5.181,-0.754 -0.05,-1.007 2.186,-1.822 4.997,-1.822 2.81,0 5.13,0.815 5.18,1.822 z"
   id="path619" />
		</g>
		<g
   id="g631">
			<g
   id="g625">
				
					<linearGradient
   id="SVGID_00000047061101130884211810000017139722549259038369_"
   gradientUnits="userSpaceOnUse"
   x1="159.1133"
   y1="128.73199"
   x2="159.1133"
   y2="138.9474">
					<stop
   offset="0.0018"
   style="stop-color:#E0A300"
   id="stop620" />
					<stop
   offset="1"
   style="stop-color:#CF7700"
   id="stop621" />
				</linearGradient>
				<path
   style="fill:url(#SVGID_00000047061101130884211810000017139722549259038369_)"
   d="m 147.592,145.615 c 0.111,-6.275 5.175,-11.52 11.521,-11.52 6.351,0 11.41,5.239 11.521,11.52 0.13,7.421 11.676,7.444 11.544,0 -0.22,-12.528 -10.351,-23.088 -23.065,-23.066 -12.713,0.022 -22.846,10.508 -23.066,23.066 -0.13,7.432 11.414,7.433 11.545,0 z"
   id="path621" />
				<path
   style="fill:#ffc53b"
   d="m 176.512,150.308 c -2.367,0 -4.94,-1.473 -4.997,-4.709 -0.12,-6.83 -5.684,-12.387 -12.401,-12.387 -6.719,0 -12.282,5.557 -12.402,12.387 -0.057,3.235 -2.626,4.709 -4.989,4.709 v 0 c -1.415,0 -2.726,-0.509 -3.598,-1.395 -0.817,-0.833 -1.219,-1.937 -1.196,-3.283 0.215,-12.222 10.169,-22.181 22.187,-22.2 12.033,0 21.968,9.958 22.184,22.2 0.023,1.348 -0.379,2.454 -1.196,3.286 -0.871,0.885 -2.18,1.392 -3.592,1.392 z"
   id="path622" />
				
					<linearGradient
   id="SVGID_00000023960443809713426180000004228539905417836197_"
   gradientUnits="userSpaceOnUse"
   x1="159.11349"
   y1="125.6246"
   x2="159.11349"
   y2="133.4706">
					<stop
   offset="0"
   style="stop-color:#FFFF54"
   id="stop622" />
					<stop
   offset="1"
   style="stop-color:#FFC53B"
   id="stop623" />
				</linearGradient>
				<path
   style="fill:url(#SVGID_00000023960443809713426180000004228539905417836197_)"
   d="m 159.115,124.762 c 11.811,0 21.593,9.596 22.155,21.526 0.02,-0.213 0.033,-0.43 0.029,-0.657 -0.216,-12.242 -10.15,-22.2 -22.184,-22.2 -12.018,0.02 -21.972,9.979 -22.187,22.2 -0.004,0.226 0.009,0.444 0.029,0.656 0.564,-11.909 10.362,-21.505 22.158,-21.525 z"
   id="path623" />
				
					<linearGradient
   id="SVGID_00000097487974573251004470000001644868752266900393_"
   gradientUnits="userSpaceOnUse"
   x1="159.11369"
   y1="144.0518"
   x2="159.11369"
   y2="127.1655">
					<stop
   offset="0"
   style="stop-color:#CF7700"
   id="stop624" />
					<stop
   offset="1"
   style="stop-color:#FFC53B"
   id="stop625" />
				</linearGradient>
				<path
   style="fill:url(#SVGID_00000097487974573251004470000001644868752266900393_)"
   d="m 159.115,128.419 c -10.06,0.018 -18.39,8.926 -18.57,19.858 -0.012,0.74 0.111,1.398 0.367,1.968 0.265,0.038 0.534,0.063 0.81,0.063 v 0 c 2.363,0 4.932,-1.474 4.989,-4.709 0.121,-6.83 5.684,-12.387 12.402,-12.387 6.718,0 12.281,5.557 12.401,12.387 0.057,3.236 2.63,4.709 4.997,4.709 0.273,0 0.54,-0.025 0.803,-0.061 0.255,-0.571 0.378,-1.229 0.367,-1.969 -0.18,-10.951 -8.495,-19.859 -18.566,-19.859 z"
   id="path625" />
			</g>
			<g
   id="g630">
				<path
   style="fill:#012e48"
   d="m 175.469,147.495 c 0,9.033 -7.323,16.356 -16.355,16.356 -9.033,0 -16.356,-7.323 -16.356,-16.356 0,-9.033 7.323,-16.356 16.356,-16.356 9.033,0 16.355,7.323 16.355,16.356 z"
   id="path626" />
				
					<linearGradient
   id="SVGID_00000087402914050041418330000003243239191413458094_"
   gradientUnits="userSpaceOnUse"
   x1="159.1133"
   y1="135.9854"
   x2="159.1133"
   y2="131.5974">
					<stop
   offset="0"
   style="stop-color:#012E48"
   id="stop626" />
					<stop
   offset="1"
   style="stop-color:#6F8998"
   id="stop627" />
				</linearGradient>
				<path
   style="fill:url(#SVGID_00000087402914050041418330000003243239191413458094_)"
   d="m 165.282,134.794 c 0,1.46 -2.761,0.379 -6.168,0.379 -3.407,0 -6.169,1.08 -6.169,-0.379 0,-1.46 2.762,-2.643 6.169,-2.643 3.407,0 6.168,1.183 6.168,2.643 z"
   id="path627" />
				<path
   style="fill:#231f20"
   d="m 168.054,147.495 c 0,4.938 -4.003,8.941 -8.941,8.941 -4.938,0 -8.941,-4.003 -8.941,-8.941 0,-4.938 4.003,-8.941 8.941,-8.941 4.938,0 8.941,4.003 8.941,8.941 z"
   id="path628" />
				<path
   style="fill:#87d1f4"
   d="m 166.296,147.495 c 0,3.968 -3.216,7.184 -7.183,7.184 -3.968,0 -7.184,-3.216 -7.184,-7.184 0,-3.967 3.216,-7.183 7.184,-7.183 3.968,0 7.183,3.215 7.183,7.183 z"
   id="path629" />
				<path
   style="fill:#231f20"
   d="m 162.425,147.495 c 0,1.829 -1.483,3.312 -3.312,3.312 -1.829,0 -3.312,-1.483 -3.312,-3.312 0,-1.829 1.482,-3.312 3.312,-3.312 1.829,0 3.312,1.483 3.312,3.312 z"
   id="path630" />
			</g>
		</g>
		<g
   id="g641">
			<g
   id="g636">
				
					<linearGradient
   id="SVGID_00000171693865235637697340000008415727129686954173_"
   gradientUnits="userSpaceOnUse"
   x1="54.1936"
   y1="128.73199"
   x2="54.1936"
   y2="138.9474">
					<stop
   offset="0.0018"
   style="stop-color:#E0A300"
   id="stop631" />
					<stop
   offset="1"
   style="stop-color:#CF7700"
   id="stop632" />
				</linearGradient>
				<path
   style="fill:url(#SVGID_00000171693865235637697340000008415727129686954173_)"
   d="m 42.673,145.615 c 0.11,-6.275 5.174,-11.52 11.521,-11.52 6.351,0 11.411,5.239 11.521,11.52 0.13,7.421 11.676,7.444 11.545,0 -0.221,-12.528 -10.351,-23.088 -23.066,-23.066 -12.713,0.022 -22.845,10.508 -23.066,23.066 -0.131,7.432 11.414,7.433 11.545,0 z"
   id="path632" />
				<path
   style="fill:#ffc53b"
   d="m 71.593,150.308 c -2.367,0 -4.94,-1.473 -4.997,-4.709 -0.12,-6.83 -5.684,-12.387 -12.402,-12.387 -6.718,0 -12.282,5.557 -12.402,12.387 -0.057,3.235 -2.625,4.709 -4.989,4.709 v 0 c -1.415,0 -2.726,-0.509 -3.598,-1.395 -0.818,-0.833 -1.22,-1.937 -1.196,-3.283 0.215,-12.222 10.168,-22.181 22.187,-22.2 12.034,0 21.968,9.958 22.184,22.2 0.023,1.348 -0.378,2.454 -1.196,3.286 -0.871,0.885 -2.179,1.392 -3.591,1.392 z"
   id="path633" />
				
					<linearGradient
   id="SVGID_00000121974638814753128280000000066235534576055481_"
   gradientUnits="userSpaceOnUse"
   x1="54.193699"
   y1="125.6246"
   x2="54.193699"
   y2="133.4706">
					<stop
   offset="0"
   style="stop-color:#FFFF54"
   id="stop633" />
					<stop
   offset="1"
   style="stop-color:#FFC53B"
   id="stop634" />
				</linearGradient>
				<path
   style="fill:url(#SVGID_00000121974638814753128280000000066235534576055481_)"
   d="m 54.195,124.762 c 11.811,0 21.593,9.596 22.155,21.526 0.02,-0.213 0.033,-0.43 0.029,-0.657 -0.216,-12.242 -10.15,-22.2 -22.184,-22.2 -12.019,0.02 -21.971,9.979 -22.187,22.2 -0.005,0.226 0.008,0.444 0.029,0.656 0.564,-11.909 10.362,-21.505 22.158,-21.525 z"
   id="path634" />
				
					<linearGradient
   id="SVGID_00000040533082008963387630000017538609817491195798_"
   gradientUnits="userSpaceOnUse"
   x1="54.194099"
   y1="144.0518"
   x2="54.194099"
   y2="127.1655">
					<stop
   offset="0"
   style="stop-color:#CF7700"
   id="stop635" />
					<stop
   offset="1"
   style="stop-color:#FFC53B"
   id="stop636" />
				</linearGradient>
				<path
   style="fill:url(#SVGID_00000040533082008963387630000017538609817491195798_)"
   d="m 54.195,128.419 c -10.059,0.018 -18.39,8.926 -18.569,19.858 -0.013,0.74 0.111,1.398 0.367,1.968 0.265,0.038 0.534,0.063 0.81,0.063 v 0 c 2.363,0 4.932,-1.474 4.989,-4.709 0.121,-6.83 5.684,-12.387 12.402,-12.387 6.718,0 12.282,5.557 12.402,12.387 0.057,3.236 2.63,4.709 4.997,4.709 0.272,0 0.54,-0.025 0.803,-0.061 0.254,-0.571 0.378,-1.229 0.366,-1.969 -0.18,-10.951 -8.495,-19.859 -18.567,-19.859 z"
   id="path636" />
			</g>
			<g
   id="g640">
				<path
   style="fill:#012e48"
   d="m 70.549,147.495 c 0,9.033 -7.323,16.356 -16.355,16.356 -9.033,0 -16.356,-7.323 -16.356,-16.356 0,-9.033 7.323,-16.356 16.356,-16.356 9.033,0 16.355,7.323 16.355,16.356 z"
   id="path637" />
				
					<linearGradient
   id="SVGID_00000147920464797492173420000000282936299725223348_"
   gradientUnits="userSpaceOnUse"
   x1="54.1936"
   y1="135.9854"
   x2="54.1936"
   y2="131.5974">
					<stop
   offset="0"
   style="stop-color:#012E48"
   id="stop637" />
					<stop
   offset="1"
   style="stop-color:#6F8998"
   id="stop638" />
				</linearGradient>
				<path
   style="fill:url(#SVGID_00000147920464797492173420000000282936299725223348_)"
   d="m 60.362,134.794 c 0,1.46 -2.762,0.379 -6.168,0.379 -3.407,0 -6.169,1.08 -6.169,-0.379 0,-1.46 2.762,-2.643 6.169,-2.643 3.407,0 6.168,1.183 6.168,2.643 z"
   id="path638" />
				<path
   style="fill:#231f20"
   d="m 63.134,147.495 c 0,4.938 -4.002,8.941 -8.94,8.941 -4.938,0 -8.941,-4.003 -8.941,-8.941 0,-4.938 4.004,-8.941 8.941,-8.941 4.938,0 8.94,4.003 8.94,8.941 z"
   id="path639" />
				<path
   style="fill:#87d1f4"
   d="m 61.377,147.495 c 0,3.968 -3.217,7.184 -7.184,7.184 -3.968,0 -7.184,-3.216 -7.184,-7.184 0,-3.967 3.216,-7.183 7.184,-7.183 3.968,0 7.184,3.215 7.184,7.183 z"
   id="path640" />
				<circle
   style="fill:#231f20"
   cx="54.194"
   cy="147.495"
   r="3.312"
   id="circle640" />
			</g>
		</g>
		<g
   id="g642">
			<path
   style="fill:#0097c2"
   d="m 61.706,96.184 c -2.677,0 -4.846,2.671 -4.846,5.965 0,3.294 2.169,5.965 4.846,5.965 0.109,0 0.215,-0.011 0.323,-0.02 v -11.89 c -0.108,-0.009 -0.215,-0.02 -0.323,-0.02 z"
   id="path641" />
			<path
   style="fill:#012e48"
   d="m 63.24,108.095 c 0,-3.971 0,-7.94 0,-11.911 0,-1.028 -2.423,-1.03 -2.423,0 0,3.97 0,7.94 0,11.911 0,1.028 2.423,1.03 2.423,0 z"
   id="path642" />
		</g>
	</g>
</g></g></svg>
