<?xml version="1.0" encoding="UTF-8" standalone="no"?>
<!-- Created with Inkscape (http://www.inkscape.org/) -->

<svg
   width="2.2676547mm"
   height="7.8758922mm"
   viewBox="0 0 2.2676547 7.8758922"
   version="1.1"
   id="svg1"
   xmlns="http://www.w3.org/2000/svg"
   xmlns:svg="http://www.w3.org/2000/svg">
  <defs
     id="defs1" />
  <g
     id="layer1"
     transform="translate(-64.678681,-130.45022)">
    <path
       style="fill:#bec3c8;fill-opacity:1;stroke-width:0.201834"
       d="m 64.678688,130.84796 c 0.0055,-0.4896 0.472244,-0.44528 0.67496,-0.2978 0.512255,0.37268 1.491931,2.22816 1.58365,3.50779 0.100911,1.40786 -0.66608,3.41804 -1.17413,4.06836 -0.119187,0.15257 -0.465774,0.39271 -0.576491,-0.0706 -0.150057,-0.62798 0.894067,-2.24276 0.804681,-3.93237 -0.07457,-1.40964 -1.316313,-2.94904 -1.31267,-3.27535 z"
       id="path11-0" />
    <path
       style="fill:#bec3c8;fill-opacity:1;stroke-width:0.292215"
       d="m 66.511104,128.71619 c 0.0074,-0.76635 0.632407,-0.69698 0.903876,-0.46614 0.685989,0.58334 1.997927,3.48765 2.120753,5.4906 0.135135,2.20366 -0.891984,5.35011 -1.572342,6.36803 -0.15961,0.23881 -0.623744,0.61469 -0.772011,-0.11051 -0.200949,-0.98295 1.197295,-3.5105 1.077592,-6.15517 -0.09986,-2.20645 -1.762747,-4.61601 -1.757868,-5.12677 z"
       id="path11-9-3" />
  </g>
</svg>
