<?xml version="1.0" encoding="UTF-8" standalone="no"?>
<!-- Created with Inkscape (http://www.inkscape.org/) -->

<svg
   width="2.9726543mm"
   height="14.635049mm"
   viewBox="0 0 2.9726543 14.635049"
   version="1.1"
   id="svg1"
   xmlns="http://www.w3.org/2000/svg"
   xmlns:svg="http://www.w3.org/2000/svg">
  <defs
     id="defs1" />
  <g
     id="layer1"
     transform="translate(-69.502035,-126.44539)">
    <path
       style="fill:#bec3c8;fill-opacity:1;stroke-width:0.292215"
       d="m 66.511104,128.71619 c 0.0074,-0.76635 0.632407,-0.69698 0.903876,-0.46614 0.685989,0.58334 1.997927,3.48765 2.120753,5.4906 0.135135,2.20366 -0.891984,5.35011 -1.572342,6.36803 -0.15961,0.23881 -0.623744,0.61469 -0.772011,-0.11051 -0.200949,-0.98295 1.197295,-3.5105 1.077592,-6.15517 -0.09986,-2.20645 -1.762747,-4.61601 -1.757868,-5.12677 z"
       id="path11-9-3" />
    <path
       style="fill:#bec3c8;fill-opacity:1;stroke-width:0.31501"
       d="m 69.502054,127.18445 c 0.0072,-0.90978 0.61906,-0.82743 0.884799,-0.55338 0.671512,0.69251 1.955761,4.14039 2.075995,6.5182 0.132283,2.61611 -0.873159,6.35144 -1.539158,7.55988 -0.156241,0.2835 -0.61058,0.72973 -0.755717,-0.1312 -0.196708,-1.16691 1.172026,-4.16752 1.054849,-7.30717 -0.09775,-2.6194 -1.725544,-5.47993 -1.720768,-6.08628 z"
       id="path11-9-8-7" />
  </g>
</svg>
