<?xml version="1.0" encoding="UTF-8" standalone="no"?>
<!-- Created with Inkscape (http://www.inkscape.org/) -->

<svg
   width="45.864479mm"
   height="38.06982mm"
   viewBox="0 0 45.864479 38.06982"
   version="1.1"
   id="svg1"
   xml:space="preserve"
   xmlns="http://www.w3.org/2000/svg"
   xmlns:svg="http://www.w3.org/2000/svg"><defs
     id="defs1" /><g
     id="layer1"
     transform="translate(-147.72802,-91.773121)"><g
       id="g6"><path
         id="path27"
         d="m 163.53506,97.925905 c 3.92677,-1.386064 9.34014,-1.671461 14.24834,-0.01023 0.33091,-1.008592 0.73343,-1.982964 1.37301,-2.844448 1.17546,-1.583619 2.73474,-2.552347 4.63868,-3.052586 3.21733,-0.845609 6.82801,0.539397 8.74148,3.439936 1.02976,1.560336 1.37054,3.309409 0.73484,5.143503 -0.94086,2.71392 -2.64055,4.76673 -5.2825,5.98205 -0.17639,0.0811 -0.33831,0.097 -0.24342,0.39652 0.44839,1.42029 0.69498,2.87408 0.8001,4.36739 0.16793,2.37349 -0.20108,4.65737 -0.95955,6.88622 -0.7747,2.27719 -1.97661,4.2986 -3.68371,6.02016 -0.89852,0.90593 -1.77905,1.82033 -2.83351,2.55199 -1.44251,1.00189 -3.02648,1.68134 -4.70782,2.16359 -2.28176,0.65511 -4.59951,1.004 -6.97583,0.82726 -1.7974,-0.13335 -3.53518,-0.55033 -5.25603,-1.08761 -1.97097,-0.61525 -3.7144,-1.60761 -5.24369,-2.9718 -2.53894,-2.26554 -4.48875,-4.92654 -5.42184,-8.25359 -0.48754,-1.73673 -0.79975,-3.49779 -0.75495,-5.30825 0.0437,-1.76283 0.2794,-3.4992 0.83573,-5.17807 0.0924,-0.2794 -0.0159,-0.31433 -0.21131,-0.40746 -1.30175,-0.62124 -2.50014,-1.39665 -3.39478,-2.54917 -0.81809,-1.0534 -1.52471,-2.17523 -1.9297,-3.46922 -0.40887,-1.305629 -0.3757,-2.585154 0.13124,-3.849863 0.95849,-2.390069 2.76648,-3.829756 5.17066,-4.601986 3.24591,-1.042459 7.12258,0.358422 8.98843,3.1623 0.26881,0.403931 0.49706,0.82797 0.69603,1.265767 0.19826,0.437091 0.35277,0.893586 0.5401,1.377597"
         style="fill:#100f0d;fill-opacity:1;fill-rule:evenodd;stroke:none;stroke-width:0.0352778" /><path
         id="path28"
         d="m 170.62484,129.33054 c -1.96604,-0.0353 -3.90631,-0.39758 -5.8219,-0.95885 -1.55292,-0.45509 -3.00743,-1.09502 -4.32505,-2.03341 -0.39264,-0.2794 -0.77788,-0.57362 -1.13806,-0.89324 -3.27696,-2.90794 -5.4028,-6.46571 -6.0325,-10.84192 -0.35702,-2.47932 -0.1263,-4.92583 0.55562,-7.33284 0.0208,-0.0737 0.0459,-0.1471 0.0748,-0.21872 0.24483,-0.61242 0.23989,-0.60078 -0.32914,-0.86325 -1.55575,-0.71719 -2.87055,-1.72967 -3.82305,-3.17535 -0.79305,-1.20368 -1.42099,-2.46309 -1.56034,-3.936999 -0.0663,-0.70485 0.10054,-1.346553 0.32455,-1.978025 0.66993,-1.884187 2.02001,-3.158067 3.7652,-4.046009 0.95744,-0.487186 1.98649,-0.718608 3.05788,-0.785636 1.35255,-0.08537 2.60174,0.293864 3.78813,0.878417 1.92228,0.947208 3.11397,2.53753 3.82235,4.523317 0.0198,0.05468 0.0318,0.11183 0.0522,0.165805 0.16792,0.442736 0.16651,0.433917 0.64699,0.321381 1.74943,-0.408164 3.52249,-0.661459 5.31107,-0.821267 1.99461,-0.178506 3.96522,-0.0042 5.93337,0.321733 0.96979,0.160514 1.94875,0.271992 2.88855,0.571853 0.24694,0.07832 0.3122,-0.03281 0.37817,-0.208844 0.19579,-0.523875 0.39088,-1.047045 0.64453,-1.548342 1.04845,-2.073981 2.71639,-3.389842 4.95335,-3.942645 3.16865,-0.782814 5.75451,0.244475 7.87189,2.64795 0.60325,0.684389 0.96131,1.483078 1.21814,2.339976 0.23812,0.794808 0.25435,1.606902 0.0469,2.400652 -0.62477,2.395013 -1.95016,4.298243 -4.06118,5.625393 -0.44062,0.27729 -0.889,0.53975 -1.37689,0.73519 -0.37995,0.1524 -0.38665,0.21414 -0.20461,0.60149 0.18309,0.38876 0.24553,0.81033 0.35383,1.2199 0.39688,1.50389 0.5521,3.03742 0.50765,4.58541 -0.0769,2.70616 -0.78458,5.24651 -2.04012,7.64963 -0.67874,1.29928 -1.56139,2.42782 -2.54952,3.49462 -0.9077,0.97931 -1.84397,1.91558 -2.95628,2.67194 -1.42522,0.96837 -2.99932,1.56951 -4.64397,2.02777 -1.73496,0.48295 -3.49673,0.76835 -5.33258,0.80292"
         style="fill:#ba6942;fill-opacity:1;fill-rule:evenodd;stroke:none;stroke-width:0.0352778" /><path
         id="path29"
         d="m 172.7535,112.88509 c 1.78576,0.55739 3.08645,1.66194 3.66818,3.46252 0.39476,1.22202 0.14217,2.39924 -0.58138,3.46392 -0.57644,0.84808 -1.42204,1.3642 -2.3435,1.71486 -2.12055,0.80715 -4.23475,0.74012 -6.2484,-0.33938 -0.97861,-0.52458 -1.79987,-1.26082 -2.165,-2.37913 -0.46037,-1.40829 -0.18979,-2.68005 0.66534,-3.86997 0.56833,-0.79058 1.30528,-1.35114 2.16041,-1.78365 0.21167,-0.10653 0.42439,-0.18238 0.66464,-0.15733 0.22965,0.0734 0.29809,0.28716 0.40357,0.46707 0.2346,0.39899 0.44203,0.83573 0.79622,1.12925 0.57962,0.48013 0.71932,1.09149 0.74189,1.79352 0.0127,0.40463 -0.13299,0.57079 -0.51646,0.58455 -0.29246,0.0109 -0.57574,-0.0332 -0.85761,-0.10548 -0.5027,-0.12982 -1.00576,-0.2607 -1.53846,-0.29316 1.00824,0.97014 4.60375,1.15711 6.11646,0.012 -0.59408,0.0127 -1.12148,0.18662 -1.65841,0.30727 -1.17475,0.26317 -1.39241,0.0593 -1.21743,-1.12254 0.037,-0.25224 0.0751,-0.5013 0.26035,-0.68968 0.58702,-0.5962 1.05621,-1.27389 1.43051,-2.02072 0.0441,-0.0882 0.11924,-0.14993 0.21908,-0.17392"
         style="fill:#e28f62;fill-opacity:1;fill-rule:evenodd;stroke:none;stroke-width:0.0352778" /><path
         id="path30"
         d="m 172.7535,112.88509 c -0.3556,0.86749 -0.84208,1.64959 -1.53988,2.28212 -0.17745,0.16052 -0.24906,0.32562 -0.2346,0.55245 0.008,0.11466 -0.008,0.23107 -0.0197,0.34608 -0.0829,0.82867 -0.0667,0.8509 0.77682,0.72355 0.6096,-0.0924 1.19521,-0.31327 1.81327,-0.36795 0.18027,-0.0159 0.44874,-0.15099 0.51753,0.0582 0.0871,0.26282 -0.22155,0.30868 -0.40146,0.39088 -1.99355,0.91087 -3.99309,0.91933 -5.99088,0.018 -0.19261,-0.0868 -0.54151,-0.12947 -0.4392,-0.41628 0.0755,-0.21061 0.37782,-0.0579 0.5789,-0.0399 0.57927,0.0504 1.12819,0.25505 1.69828,0.35066 0.84102,0.14146 0.82656,0.12206 0.82867,-0.71932 0.001,-0.47942 -0.14146,-0.81703 -0.50024,-1.14652 -0.57326,-0.52635 -0.9338,-1.22097 -1.26717,-1.92017 -0.0127,-0.61737 0.10054,-0.80928 0.67874,-0.94263 0.92851,-0.21449 1.86584,-0.19932 2.79823,-0.005 0.44627,0.0931 0.7172,0.3482 0.70274,0.83573"
         style="fill:#110f0d;fill-opacity:1;fill-rule:evenodd;stroke:none;stroke-width:0.0352778" /><path
         id="path31"
         d="m 155.40494,93.957508 c 1.8281,-0.208492 3.18382,0.746477 4.46546,1.839736 0.73696,0.62865 1.37513,1.353255 1.72509,2.286706 0.19156,0.510822 0.19544,0.567266 -0.33408,0.764822 -1.98544,0.740833 -3.4671,2.129718 -4.80695,3.701698 -0.63924,0.74965 -1.25236,1.52118 -1.66617,2.42499 -0.12841,0.28081 -0.29951,0.21943 -0.51435,0.13124 -1.12078,-0.46108 -1.97697,-1.24919 -2.75167,-2.15548 -0.74718,-0.87347 -1.16628,-1.90676 -1.47814,-2.982731 -0.26388,-0.910873 -0.008,-1.803753 0.3242,-2.648656 0.71826,-1.826684 2.19111,-2.776714 4.00156,-3.279775 0.32738,-0.09102 0.68933,-0.05821 1.03505,-0.08255"
         style="fill:#12100e;fill-opacity:1;fill-rule:evenodd;stroke:none;stroke-width:0.0352778" /><path
         id="path32"
         d="m 185.87295,93.956097 c 2.05317,0.113241 3.70628,0.954969 4.76532,2.765777 0.58597,1.002242 0.91088,2.123723 0.60749,3.271662 -0.30551,1.154994 -0.81033,2.239084 -1.63301,3.157364 -0.73272,0.81774 -1.54376,1.50706 -2.55729,1.94169 -0.38065,0.16333 -0.38241,0.1591 -0.57326,-0.1958 -0.86043,-1.60161 -2.05423,-2.93193 -3.38385,-4.15113 -0.89076,-0.817388 -1.90076,-1.442863 -3.02824,-1.885599 -0.5581,-0.218723 -0.57115,-0.296334 -0.33937,-0.859367 0.38629,-0.936625 1.0615,-1.646767 1.80163,-2.30505 0.53517,-0.47625 1.13559,-0.868186 1.75684,-1.216731 0.79445,-0.446264 1.66617,-0.591608 2.58374,-0.522816"
         style="fill:#11100e;fill-opacity:1;fill-rule:evenodd;stroke:none;stroke-width:0.0352778" /><path
         id="path33"
         d="m 178.64206,111.67119 c 0.01,0.63253 -0.53304,1.22167 -1.13524,1.23331 -0.63782,0.0123 -1.26611,-0.60466 -1.27246,-1.24954 -0.006,-0.59761 0.53728,-1.18145 1.1123,-1.19521 0.68475,-0.0162 1.28553,0.54574 1.2954,1.21144"
         style="fill:#100f0d;fill-opacity:1;fill-rule:evenodd;stroke:none;stroke-width:0.0352778" /><path
         id="path34"
         d="m 162.66828,111.67436 c 0.004,-0.67098 0.59796,-1.23472 1.27918,-1.21355 0.57432,0.018 1.13559,0.60572 1.11583,1.19203 -0.018,0.54469 -0.55068,1.2894 -1.2707,1.25519 -0.60431,-0.0286 -1.12783,-0.58526 -1.12431,-1.23367"
         style="fill:#100f0d;fill-opacity:1;fill-rule:evenodd;stroke:none;stroke-width:0.0352778" /><path
         id="path35"
         d="m 162.40935,116.00436 c -0.24907,0.0152 -0.47202,-0.0106 -0.69462,-0.0935 -0.3235,-0.11994 -0.50448,-0.34607 -0.54399,-0.67733 -0.0286,-0.23919 0.23319,-0.57997 0.52917,-0.6918 0.52599,-0.19932 1.05304,-0.17709 1.5688,0.0434 0.27199,0.11607 0.41169,0.33443 0.43427,0.62759 0.0243,0.31574 -0.16651,0.50977 -0.4124,0.63606 -0.27693,0.14182 -0.58525,0.18203 -0.88123,0.15558"
         style="fill:#f5b491;fill-opacity:1;fill-rule:evenodd;stroke:none;stroke-width:0.0352778" /><path
         id="path36"
         d="m 178.90206,114.3964 c 0.37042,0.005 0.64911,0.0776 0.91722,0.17815 0.27341,0.10195 0.43886,0.31397 0.44874,0.61066 0.01,0.29421 -0.139,0.5341 -0.39229,0.65652 -0.58985,0.2868 -1.19874,0.21625 -1.77836,-0.0303 -0.23212,-0.0988 -0.37041,-0.3429 -0.35524,-0.61525 0.018,-0.32491 0.254,-0.51858 0.51505,-0.63817 0.22049,-0.1016 0.47837,-0.12242 0.64488,-0.16157"
         style="fill:#f5b491;fill-opacity:1;fill-rule:evenodd;stroke:none;stroke-width:0.0352778" /><path
         id="path37"
         d="m 161.48507,98.437433 c -2.22285,0.616303 -3.78742,2.085627 -5.21935,3.733447 -0.64629,0.74401 -1.24178,1.52859 -1.68769,2.41229 -0.13405,0.26635 -0.26882,0.18839 -0.4579,0.096 -0.85161,-0.41663 -1.49014,-1.08444 -2.12055,-1.76601 -0.82409,-0.89111 -1.24002,-1.98543 -1.55963,-3.124901 -0.21767,-0.775758 0.0822,-1.490133 0.33725,-2.192867 0.60149,-1.657703 1.8288,-2.669117 3.50379,-3.0607 1.42064,-0.331964 2.82046,-0.231422 4.10422,0.627945 0.69356,0.464255 1.34655,0.962025 1.93569,1.550105 0.4819,0.481542 0.87418,1.021998 1.16417,1.724731"
         style="fill:#e28f62;fill-opacity:1;fill-rule:evenodd;stroke:none;stroke-width:0.0352778" /><path
         id="path38"
         d="m 179.81364,98.438844 c 0.45896,-1.149703 1.27811,-1.913114 2.14983,-2.617258 0.44767,-0.361598 0.94897,-0.664281 1.45062,-0.949678 0.74224,-0.422275 1.57057,-0.5207 2.40665,-0.496359 1.31445,0.03739 2.47685,0.476956 3.47768,1.35502 0.6343,0.556683 0.97367,1.278114 1.28835,2.027414 0.42545,1.014942 0.36583,1.991783 -0.037,3.023657 -0.63853,1.63513 -1.71062,2.86456 -3.17183,3.78425 -0.47907,0.30127 -0.47837,0.27975 -0.76129,-0.1905 -1.12889,-1.8729 -2.55023,-3.48227 -4.32788,-4.765676 -0.73942,-0.533753 -1.55752,-0.913695 -2.47509,-1.17087"
         style="fill:#e28f62;fill-opacity:1;fill-rule:evenodd;stroke:none;stroke-width:0.0352778" /></g></g></svg>
