<?xml version="1.0" encoding="UTF-8" standalone="no"?>
<!-- Created with Inkscape (http://www.inkscape.org/) -->

<svg
   width="56.949818mm"
   height="40.932682mm"
   viewBox="0 0 56.949818 40.932682"
   version="1.1"
   id="svg1"
   xml:space="preserve"
   xmlns="http://www.w3.org/2000/svg"
   xmlns:svg="http://www.w3.org/2000/svg"><defs
     id="defs1" /><g
     id="layer1"
     transform="translate(-87.635781,-142.64304)"><g
       id="g8"><path
         id="path48"
         d="m 119.4784,176.99498 c 0.0607,0.76881 0.266,1.4719 0.4318,2.18091 0.1704,0.7324 0.36866,1.45739 0.47273,2.20525 0.0847,0.60925 -0.0861,1.14998 -0.40464,1.64814 -0.30797,0.4819 -0.80327,0.6241 -1.32115,0.50835 -1.37866,-0.30825 -2.7686,-0.16055 -4.15467,-0.16079 -0.2099,0 -0.42474,0.0419 -0.62794,0.0988 -1.28446,0.35845 -1.84538,-0.42196 -2.02212,-1.49793 -0.0889,-0.54226 0.0543,-1.07527 0.17321,-1.60236 0.22931,-1.01561 0.46673,-2.02984 0.69815,-3.04549 0.0215,-0.0931 0.025,-0.19015 0.042,-0.32491 -0.6544,-0.0868 -1.29822,-0.17325 -1.94275,-0.25718 -2.76754,-0.36269 -5.08035,-1.62344 -7.0425,-3.57117 -0.50694,-0.50313 -1.02905,-0.99522 -1.43193,-1.59067 -0.13158,-0.1947 -0.26881,-0.21841 -0.48577,-0.14605 -1.71591,0.57284 -3.456166,0.51827 -5.203122,0.16895 -0.828322,-0.16539 -1.556103,-0.56198 -2.259895,-1.00888 -1.676752,-1.06369 -2.934053,-2.48751 -3.726744,-4.31521 -0.320323,-0.73837 -0.474134,-1.50742 -0.445206,-2.3107 0.0381,-1.04175 0.08043,-2.08386 0.127706,-3.12526 0.0254,-0.56126 -0.01376,-1.11865 -0.06773,-1.67604 -0.07161,-0.73378 -0.413808,-1.31445 -0.978605,-1.77377 -0.343959,-0.28011 -0.681567,-0.56868 -1.035756,-0.83538 -0.475192,-0.35771 -0.662869,-0.83502 -0.635,-1.41252 0.02822,-0.58102 0.144992,-1.14512 0.309386,-1.70286 0.637117,-2.16111 1.775531,-4.05447 3.098448,-5.85188 0.687916,-0.93486 1.424164,-1.82315 2.280003,-2.61443 1.713089,-1.58397 3.732389,-2.32692 6.055783,-2.33363 0.977192,-0.003 1.923342,0.14852 2.854672,0.4057 1.16382,0.32102 2.10679,1.02164 2.98556,1.82104 0.1972,0.17921 0.34749,0.49459 0.59937,0.50376 0.21343,0.007 0.43109,-0.22331 0.65264,-0.3369 1.97661,-1.01106 4.06082,-1.66511 6.27098,-1.92193 1.75083,-0.2032 3.50202,-0.23883 5.26097,-0.14041 2.53401,0.14252 4.95759,0.71543 7.25064,1.81222 0.31292,0.14958 0.62089,0.31468 0.90911,0.50553 0.20426,0.13511 0.32174,0.0938 0.4826,-0.067 0.6156,-0.61489 1.27141,-1.18004 2.0313,-1.61819 0.97472,-0.56162 2.04681,-0.81844 3.14219,-0.91934 1.57198,-0.14464 3.11538,0.0127 4.59246,0.65264 0.93557,0.4057 1.74837,0.97296 2.49802,1.6503 0.83608,0.75423 1.54623,1.61642 2.2091,2.52236 1.18921,1.6256 2.26695,3.31152 2.9284,5.2324 0.25189,0.73236 0.46743,1.46826 0.52741,2.24613 0.055,0.71544 -0.16651,1.27988 -0.77576,1.69298 -0.31785,0.2159 -0.60749,0.47484 -0.90064,0.72532 -0.51576,0.43991 -0.84738,0.97049 -0.9458,1.66687 -0.14111,1.00542 -0.0646,2.00307 -0.0159,3.00496 0.048,0.98319 0.15628,1.97485 -0.0169,2.94711 -0.27164,1.52823 -1.08126,2.79753 -2.10785,3.92712 -0.61207,0.67303 -1.33561,1.22026 -2.10079,1.71909 -1.27494,0.83181 -2.6857,1.13167 -4.17759,1.17616 -1.08868,0.0321 -2.16288,-0.0487 -3.19335,-0.42471 -0.27516,-0.10019 -0.37324,0.0457 -0.51223,0.21939 -1.05869,1.3177 -2.26131,2.47784 -3.69923,3.38377 -1.70039,1.07143 -3.56023,1.64896 -5.55166,1.8335 -0.17286,0.0158 -0.34608,0.0285 -0.51859,0.0482 -0.17109,0.0194 -0.34113,0.0456 -0.58279,0.0787"
         style="fill:#100f0d;fill-opacity:1;fill-rule:evenodd;stroke:none;stroke-width:0.0352778" /><path
         id="path49"
         d="m 119.71018,160.91191 c -0.34361,0.48613 -0.44168,1.0407 -0.5334,1.58186 -0.22966,1.35043 -0.42439,2.70651 -0.62548,4.06188 -0.15063,1.01699 -0.11712,2.04294 -0.10477,3.06532 0.0296,2.45181 0.17533,4.89797 0.48189,7.33104 0.14923,1.18812 0.51012,2.33673 0.7419,3.51081 0.0635,0.3211 0.11288,0.64562 0.15098,0.97085 0.0385,0.33415 -0.0395,0.65235 -0.17709,0.95715 -0.21061,0.46662 -0.50659,0.64206 -1.01565,0.56293 -1.67005,-0.2589 -3.33904,-0.25425 -5.00909,-9.5e-4 -0.53305,0.0807 -0.84173,-0.0988 -1.05622,-0.59309 -0.21766,-0.50299 -0.18309,-1.02334 -0.0772,-1.53737 0.18732,-0.90661 0.3937,-1.80936 0.60289,-2.71142 0.29845,-1.28418 0.40534,-2.59263 0.47908,-3.90218 0.0917,-1.63752 0.24094,-3.273 0.23495,-4.91546 -0.006,-1.4701 -0.10125,-2.92637 -0.38242,-4.37663 -0.19755,-1.01989 -0.27763,-2.0634 -0.51505,-3.0794 -0.079,-0.3369 -0.20144,-0.6544 -0.41452,-0.93522 0.32632,1.68769 0.34573,3.40819 0.66217,5.0927 0.25435,1.35291 0.20849,2.7305 0.1457,4.10098 -0.0423,0.92466 -0.12242,1.84795 -0.16299,2.7729 -0.0473,1.08024 -0.16474,2.15371 -0.25894,3.22929 -0.0169,0.19375 -0.008,0.36379 -0.31926,0.34368 -2.29341,-0.14993 -4.45982,-0.70626 -6.39092,-1.99609 -1.50742,-1.0064 -2.80706,-2.23269 -3.80083,-3.76343 -0.63218,-0.97289 -1.22202,-1.97058 -1.63407,-3.05788 -0.65828,-1.73669 -1.188859,-3.51293 -1.390295,-5.36501 -0.48507,-4.45064 0.474133,-8.59296 2.742495,-12.43789 0.38135,-0.64664 0.78846,-1.28446 1.3021,-1.83867 0.19015,-0.20497 0.16898,-0.38665 0.002,-0.55634 -0.62089,-0.63253 -1.22943,-1.26223 -2.11878,-1.55645 -1.797405,-0.59514 -3.490385,-0.40711 -5.13186,0.51047 -1.77412,0.9913 -3.042709,2.46838 -4.090459,4.16877 -0.554919,0.901 -0.928864,1.85491 -1.010003,2.92347 -0.07303,0.95885 0.110772,1.79423 0.894292,2.4377 0.327378,0.26917 0.57785,0.62089 0.830086,0.96414 0.538692,0.73237 0.487892,1.56316 0.382411,2.3943 -0.155222,1.22414 -0.346428,2.44334 -0.445558,3.67524 -0.08431,1.04669 0.13723,2.03588 0.519642,2.99509 0.389466,0.97825 1.04775,1.74829 1.910291,2.34597 0.380295,0.26388 0.754592,0.53908 1.150056,0.77816 1.401233,0.84666 2.938992,0.86405 4.491212,0.66685 0.3168,-0.0407 0.44979,0.0165 0.57856,0.28 0.12594,0.25799 0.29986,0.49322 0.4512,0.73988 0.007,0.0116 -0.002,0.0328 -0.005,0.0787 -0.39264,0.19004 -0.83397,0.26102 -1.26788,0.31147 -1.038582,0.12097 -2.088802,0.1542 -3.116091,-0.0533 -3.173589,-0.64135 -5.195711,-2.62848 -6.359878,-5.56994 -0.26035,-0.65758 -0.246945,-1.36384 -0.230364,-2.06022 0.02646,-1.13912 0.06244,-2.27789 0.08714,-3.41701 0.0049,-0.23071 -0.0187,-0.46214 -0.03316,-0.69356 -0.05962,-0.96097 -0.474486,-1.73637 -1.222728,-2.33786 -0.330905,-0.26599 -0.646642,-0.55351 -0.993775,-0.79657 -0.433917,-0.30409 -0.55633,-0.72214 -0.51188,-1.21144 0.04022,-0.44168 0.103363,-0.88194 0.239183,-1.30739 0.483658,-1.51554 1.108075,-2.96087 2.035528,-4.26756 0.592314,-0.83432 1.163461,-1.68416 1.803753,-2.4832 0.788811,-0.9846 1.670403,-1.87607 2.737203,-2.56222 1.354666,-0.87101 2.854678,-1.24108 4.454525,-1.2319 0.773644,0.005 1.533174,0.10689 2.293414,0.27269 0.9465,0.20673 1.78506,0.60184 2.54529,1.18745 0.47413,0.36478 0.98143,0.69004 1.40406,1.11584 0.16898,0.17004 0.28575,0.11536 0.44838,0.0205 1.72191,-1.00824 3.61103,-1.55257 5.54813,-1.93499 1.40477,-0.27728 2.83387,-0.30832 4.26473,-0.33725 2.99121,-0.0596 5.8854,0.37782 8.66493,1.50918 0.51964,0.21132 1.02906,0.44239 1.50248,0.7433 0.2092,0.133 0.33444,0.13159 0.5387,-0.0504 0.63288,-0.56551 1.3021,-1.0922 2.02882,-1.53494 1.01283,-0.61736 2.14948,-0.85407 3.30729,-0.95708 1.46086,-0.13018 2.88643,0.043 4.24956,0.63535 0.80751,0.35101 1.51801,0.83573 2.17241,1.41605 0.90099,0.79904 1.66123,1.7205 2.37067,2.68922 1.17863,1.60867 2.27541,3.26108 2.89877,5.18196 0.1972,0.60819 0.36548,1.21743 0.4258,1.85702 0.0543,0.57291 -0.13088,1.00753 -0.61736,1.33597 -0.33443,0.22578 -0.63182,0.50623 -0.94791,0.75918 -0.90946,0.72707 -1.17369,1.72825 -1.21179,2.82892 -0.0325,0.94721 0.0579,1.89089 0.0847,2.83633 0.0141,0.50201 0.0222,1.00436 0.0169,1.50601 -0.006,0.56586 -0.13194,1.1109 -0.34749,1.63372 -0.91969,2.23375 -2.53506,3.79518 -4.69406,4.82141 -0.50906,0.24239 -1.06292,0.35705 -1.6189,0.42333 -1.34937,0.16126 -2.69628,0.20066 -4.02378,-0.16961 -0.0907,-0.0255 -0.17851,-0.0619 -0.32491,-0.113 0.20602,-0.34812 0.40076,-0.66809 0.58667,-0.99345 0.0829,-0.14563 0.19403,-0.15971 0.34149,-0.12443 0.64629,0.15339 1.30387,0.11921 1.96003,0.10654 0.92499,-0.0176 1.80023,-0.23357 2.59327,-0.71413 1.22979,-0.74496 2.41618,-1.5416 3.02719,-2.92939 0.51505,-1.16911 0.77223,-2.37702 0.59161,-3.66254 -0.1524,-1.08867 -0.23531,-2.18899 -0.42298,-3.27096 -0.23001,-1.32856 0.16898,-2.41794 1.16699,-3.26249 0.81385,-0.68897 1.03363,-1.53846 0.9405,-2.53647 -0.0529,-0.55986 -0.12206,-1.12077 -0.36054,-1.63195 -1.08655,-2.32974 -2.60914,-4.27637 -4.91596,-5.52379 -1.68416,-0.91088 -3.42229,-0.9906 -5.19888,-0.32139 -0.78105,0.29422 -1.33421,0.90382 -1.88913,1.49578 -0.14534,0.15522 -0.16757,0.31362 0.001,0.50518 0.6791,0.77117 1.22449,1.63583 1.71485,2.53506 1.43581,2.63243 2.23873,5.44089 2.44158,8.43845 0.16192,2.38724 -0.21237,4.68101 -0.88935,6.96066 -0.49425,1.66514 -1.19627,3.2138 -2.14454,4.65948 -1.38959,2.11738 -3.22227,3.71546 -5.52309,4.79104 -1.5173,0.70941 -3.13126,0.93734 -4.76885,1.09788 -0.22472,0.0222 -0.26,-0.0716 -0.27623,-0.25191 -0.0628,-0.7105 -0.14993,-1.41951 -0.20073,-2.13113 -0.15134,-2.11734 -0.31432,-4.23471 -0.2547,-6.36129 0.0215,-0.75491 0.0953,-1.50174 0.23636,-2.24328 0.22754,-1.19557 0.30833,-2.40948 0.43921,-3.61703 0.0328,-0.30269 0.21837,-0.58491 0.11959,-0.9264"
         style="fill:#94c3eb;fill-opacity:1;fill-rule:evenodd;stroke:none;stroke-width:0.0352778" /><path
         id="path50"
         d="m 131.24178,169.4297 c 3.67524,-7.1984 2.58657,-15.88908 -2.12937,-21.74413 1.20051,-1.35467 2.70863,-1.92864 4.49616,-1.71733 1.42381,0.16828 2.65253,0.82797 3.72392,1.74132 1.0481,0.89288 1.90959,1.96038 2.60174,3.16053 0.51152,0.88759 0.81174,1.83409 0.84843,2.85468 0.0268,0.756 -0.10584,1.46438 -0.77753,1.95615 -0.13829,0.1009 -0.23742,0.25365 -0.36583,0.37007 -0.97331,0.88265 -1.15182,2.00025 -0.97261,3.23144 0.18874,1.29752 0.45015,2.59151 0.46003,3.90384 0.0148,1.97203 -0.61172,3.67136 -2.28459,4.87186 -0.77188,0.55358 -1.54587,1.09788 -2.49485,1.29893 -1.02587,0.21759 -2.05775,0.27231 -3.1055,0.0726"
         style="fill:#77aae0;fill-opacity:1;fill-rule:evenodd;stroke:none;stroke-width:0.0352778" /><path
         id="path51"
         d="m 100.97768,169.42268 c -0.76941,0.18796 -1.535644,0.1422 -2.297291,0.071 -1.77553,-0.16662 -3.154892,-1.1085 -4.303183,-2.37713 -0.958498,-1.059 -1.284112,-2.4052 -1.288698,-3.8089 -0.0042,-1.19804 0.245534,-2.37596 0.397934,-3.5613 0.07867,-0.61065 0.181327,-1.21285 0.0949,-1.84044 -0.07161,-0.51823 -0.249061,-0.97084 -0.5715,-1.3656 -0.256117,-0.31291 -0.516114,-0.63465 -0.827617,-0.88759 -0.530225,-0.42933 -0.716492,-0.98778 -0.730603,-1.62842 -0.0187,-0.83997 0.105481,-1.66441 0.478014,-2.4197 1.039636,-2.10644 2.470503,-3.85834 4.595637,-4.96782 1.560336,-0.81421 3.155597,-0.93839 4.806597,-0.3041 0.72672,0.27905 1.20897,0.8689 1.81292,1.30669 -4.724748,5.78097 -5.843759,14.59125 -2.16711,21.78333"
         style="fill:#77aae0;fill-opacity:1;fill-rule:evenodd;stroke:none;stroke-width:0.0352778" /><path
         id="path52"
         d="m 123.68105,159.58688 c 0.0148,-1.05833 0.6865,-1.76107 1.64888,-1.76954 0.99977,-0.009 1.85208,1.00225 1.78576,1.83833 -0.0762,0.9585 -0.5461,1.7018 -1.64359,1.73919 -0.9518,0.0332 -1.80411,-0.84948 -1.79105,-1.80798"
         style="fill:#100f0d;fill-opacity:1;fill-rule:evenodd;stroke:none;stroke-width:0.0352778" /><path
         id="path53"
         d="m 108.53312,159.65391 c 0.12347,0.64911 -0.69215,1.52223 -1.27459,1.67146 -0.6992,0.17921 -1.43333,-0.012 -1.82174,-0.64453 -0.42228,-0.68721 -0.45438,-1.49084 0.0519,-2.09903 0.27516,-0.3302 0.57291,-0.62053 1.016,-0.71613 1.16452,-0.25083 2.03411,0.51329 2.02847,1.78823"
         style="fill:#100f0d;fill-opacity:1;fill-rule:evenodd;stroke:none;stroke-width:0.0352778" /><path
         id="path54"
         d="m 108.97833,166.74721 c -0.79622,-0.0187 -1.46544,-0.28751 -1.96039,-0.92781 -0.26317,-0.34078 -0.1845,-0.8837 0.19826,-1.17087 0.1517,-0.11394 0.32738,-0.21025 0.50694,-0.26881 0.78599,-0.25436 1.58186,-0.22931 2.37667,-0.0356 0.0734,0.0176 0.14287,0.0557 0.2106,0.091 0.86396,0.45473 0.93416,1.37513 0.13477,1.92229 -0.25083,0.17145 -0.52635,0.32385 -0.85514,0.29527 -0.21554,-0.0187 -0.41451,0.0635 -0.61171,0.0945"
         style="fill:#bfdff6;fill-opacity:1;fill-rule:evenodd;stroke:none;stroke-width:0.0352778" /><path
         id="path55"
         d="m 123.56745,164.21709 c 0.30727,-0.0162 0.68686,0.005 1.0608,0.115 0.18768,0.0554 0.35949,0.12665 0.51083,0.25118 0.6738,0.55492 0.64346,1.05057 -0.0349,1.59209 -0.88053,0.70273 -1.83515,0.64558 -2.81763,0.34113 -0.53235,-0.16474 -0.82903,-0.59266 -0.81351,-1.06362 0.0148,-0.45015 0.46814,-0.97402 0.93557,-1.12642 0.35701,-0.11642 0.71755,-0.10936 1.15887,-0.10936"
         style="fill:#bfdff6;fill-opacity:1;fill-rule:evenodd;stroke:none;stroke-width:0.0352778" /></g></g></svg>
