<?xml version="1.0" encoding="UTF-8" standalone="no"?>
<!-- Created with Inkscape (http://www.inkscape.org/) -->

<svg
   width="46.621777mm"
   height="37.382774mm"
   viewBox="0 0 46.621777 37.382774"
   version="1.1"
   id="svg1"
   xml:space="preserve"
   xmlns="http://www.w3.org/2000/svg"
   xmlns:svg="http://www.w3.org/2000/svg"><defs
     id="defs1" /><g
     id="layer1"
     transform="translate(-38.457166,-92.116741)"><g
       id="g4"><path
         id="path16"
         d="m 82.748944,113.12569 c 0.60713,0.97896 1.144411,1.91135 1.629833,2.87443 0.262114,0.51929 0.447675,1.06751 0.643467,1.61079 0.162983,0.45085 -0.02999,0.65969 -0.519642,0.57079 -0.955322,-0.17427 -1.912408,-0.1778 -2.910064,-0.0991 0.09596,0.32526 0.322792,0.52141 0.456495,0.77153 0.332669,0.623 0.2921,0.77822 -0.339725,1.05939 -0.300567,0.1337 -0.591962,0.27657 -0.868892,0.45755 -0.561622,0.36654 -0.988131,0.8696 -1.371953,1.39876 -2.446514,3.37538 -5.789789,5.42925 -9.708798,6.65445 -2.510367,0.78493 -5.072945,1.143 -7.703609,1.06468 -1.350257,-0.0406 -2.702807,0.037 -4.049148,-0.14358 -2.717483,-0.36583 -5.323346,-1.08796 -7.767038,-2.3569 -0.789341,-0.40993 -1.544497,-0.87101 -2.284095,-1.3642 -1.51638,-1.01176 -2.719811,-2.33538 -3.815363,-3.76802 -0.654579,-0.85583 -1.3837,-1.59984 -2.419703,-1.99919 -0.505178,-0.19508 -0.553402,-0.41134 -0.283316,-0.90205 0.155717,-0.28222 0.337609,-0.55104 0.526133,-0.85584 -0.949184,-0.12135 -1.85166,-0.066 -2.753466,0.0399 -0.07592,0.009 -0.148837,0.0448 -0.224755,0.0543 -0.441113,0.0571 -0.628791,-0.15099 -0.475297,-0.57926 0.188524,-0.52599 0.367418,-1.05516 0.618349,-1.55857 0.490149,-0.98284 1.03819,-1.93287 1.658479,-2.93123 -0.48193,0 -0.910343,-0.0194 -1.336852,0.004 -1.067435,0.0582 -1.008027,-0.26353 -0.699064,-1.02023 0.665304,-1.62913 1.664511,-3.04165 2.778795,-4.3808 0.888154,-1.0668 1.769146,-2.14136 2.736251,-3.13902 0.240453,-0.248 0.221015,-0.52105 0.16824,-0.80504 -0.517032,-2.77883 -0.678957,-5.59117 -0.78285,-8.407043 -0.02565,-0.69215 0.02604,-1.389944 0.08255,-2.081742 0.09024,-1.10878 0.691621,-1.426633 1.727342,-0.987425 1.065388,0.451909 2.070946,1.030464 3.041614,1.665112 1.49158,0.97543 2.823599,2.151239 4.17629,3.301647 0.0587,0.04974 0.109149,0.109361 0.164959,0.162631 0.248461,0.238477 0.401426,0.649111 0.72965,0.707672 0.291888,0.05186 0.623711,-0.149578 0.942587,-0.217664 1.357383,-0.290336 2.707852,-0.626534 4.076947,-0.844903 1.815289,-0.288572 3.641267,-0.345369 5.479592,-0.109008 1.899708,0.244827 3.758142,0.663222 5.604228,1.147233 0.252942,0.06632 0.382059,0.01164 0.547159,-0.15875 1.903941,-1.968853 4.053416,-3.623733 6.438194,-4.969581 0.452614,-0.255411 0.932745,-0.462844 1.401234,-0.690739 0.0515,-0.0254 0.10795,-0.04092 0.16263,-0.05962 0.936625,-0.322439 1.45662,0.01023 1.561042,0.990953 0.146403,1.36913 0.07585,2.736497 0.01023,4.106686 -0.09666,2.007659 -0.31115,4.001561 -0.602898,5.988401 -0.01411,0.0952 -0.02469,0.19368 -0.0568,0.28364 -0.170391,0.47237 -0.02187,0.81668 0.31997,1.18568 1.376186,1.48555 2.686755,3.02931 3.881614,4.66761 0.664986,0.91157 1.138414,1.9251 1.561747,2.96262 0.202142,0.49389 0.0635,0.68651 -0.464961,0.69709 -0.537986,0.0102 -1.076678,0.002 -1.687336,0.002"
         style="fill:#110f0e;fill-opacity:1;fill-rule:evenodd;stroke:none;stroke-width:0.0352778" /><path
         id="path17"
         d="m 84.349497,112.52879 c -0.55492,0 -1.074914,7e-4 -1.594909,-3.5e-4 -0.192969,-3.6e-4 -0.387703,-0.0212 -0.578555,-0.003 -0.253295,0.0243 -0.333728,0.17498 -0.222956,0.399 0.05115,0.1023 0.137231,0.18591 0.199672,0.28292 0.705203,1.0855 1.378303,2.1897 1.928637,3.36303 0.145697,0.3101 0.288219,0.62901 0.325966,1.02765 -0.903464,-0.0829 -1.783997,-0.0723 -2.664531,-0.0575 -0.192969,0.003 -0.388408,-0.005 -0.578202,0.0233 -0.367595,0.0561 -0.458611,0.23953 -0.284339,0.57009 0.197203,0.37394 0.517172,0.67168 0.718255,1.12218 -0.737658,-0.11112 -1.429455,-0.21096 -2.105378,-0.40393 -1.951919,-0.55703 -3.837869,-1.29822 -5.716764,-2.05669 -1.418519,-0.57256 -2.876903,-1.01636 -4.370917,-1.32786 -1.726494,-0.36054 -3.456517,-0.26282 -5.17137,0.1136 -0.2794,0.0614 -0.485775,0.0413 -0.74683,-0.11078 -0.585611,-0.34113 -1.262945,-0.3302 -1.916042,-0.30656 -0.610906,0.0222 -1.242307,0.0212 -1.760044,0.45191 -0.136137,0.11289 -0.29531,0.003 -0.443195,-0.0272 -1.11827,-0.23142 -2.243278,-0.34783 -3.39023,-0.32702 -1.450375,0.0261 -2.818906,0.42122 -4.191176,0.81668 -0.779428,0.22472 -1.532502,0.52458 -2.287411,0.82162 -1.920981,0.756 -3.833707,1.53987 -5.842459,2.04294 -0.538939,0.13511 -1.091671,0.21484 -1.667687,0.32561 0.01171,-0.26776 0.181469,-0.40852 0.288537,-0.57891 0.133667,-0.21202 0.294217,-0.40922 0.40834,-0.63077 0.125378,-0.24341 0.04244,-0.40781 -0.225319,-0.47448 -0.147461,-0.0367 -0.305929,-0.0374 -0.459599,-0.0388 -0.943257,-0.01 -1.88722,-0.0572 -2.895671,0.072 0.08491,-0.4512 0.231952,-0.83361 0.415925,-1.20227 0.569384,-1.14123 1.209746,-2.24155 1.926344,-3.29741 0.03253,-0.0476 0.07662,-0.0882 0.104598,-0.13829 0.154623,-0.27658 0.0726,-0.44909 -0.250119,-0.45438 -0.501474,-0.008 -1.00323,0.025 -1.505233,0.0279 -0.205034,10e-4 -0.417547,0.0593 -0.651827,-0.0487 0.434093,-1.10984 0.979946,-2.13995 1.672273,-3.10021 1.130688,-1.5681 2.422842,-2.99967 3.696017,-4.44747 0.22793,-0.2593 0.327696,-0.4946 0.287867,-0.87383 -0.296263,-2.82223 -0.569666,-5.647271 -0.654544,-8.486074 -0.02205,-0.733778 -0.0039,-1.468614 0.07923,-2.198158 0.08516,-0.750006 0.344241,-0.89535 1.045245,-0.569737 0.734625,0.340784 1.445543,0.728487 2.146159,1.138062 1.290673,0.755297 2.438295,1.690511 3.56168,2.668764 0.698641,0.608189 1.444872,1.160639 2.055319,1.865136 0.202036,0.232833 0.406682,0.254 0.715892,0.147814 0.544759,-0.186972 1.119823,-0.28822 1.685078,-0.413103 1.905142,-0.420511 3.825982,-0.766586 5.778395,-0.820208 1.875367,-0.05115 3.734506,0.169333 5.572478,0.559152 1.055864,0.224014 2.128661,0.373945 3.152423,0.733073 0.249061,0.08714 0.402519,-0.05151 0.553861,-0.207434 0.402872,-0.415572 0.797983,-0.837141 1.250597,-1.20403 0.703792,-0.5715 1.382889,-1.173339 2.084564,-1.747662 1.353256,-1.106311 2.860675,-1.964266 4.429478,-2.720975 0.0695,-0.03351 0.140758,-0.06491 0.214489,-0.08714 0.542219,-0.162983 0.75565,-0.02752 0.821267,0.538692 0.08467,0.729192 0.14605,1.461558 0.108655,2.195336 -0.120297,2.33292 -0.230716,4.666552 -0.516819,6.987472 -0.06879,0.55422 -0.0822,1.11584 -0.162278,1.66758 -0.04727,0.32315 0.05151,0.55139 0.255058,0.78387 0.8763,1.00048 1.75895,1.99637 2.607734,3.02049 1.062214,1.28129 2.031294,2.62713 2.653242,4.18994 0.04833,0.12171 0.13723,0.23424 0.111125,0.40499"
         style="fill:#f5804b;fill-opacity:1;fill-rule:evenodd;stroke:none;stroke-width:0.0352778" /><path
         id="path18"
         d="m 42.500419,119.64926 c 2.56921,-0.43815 4.915853,-1.43898 7.300278,-2.31599 1.650753,-0.60748 3.307856,-1.19274 5.049273,-1.46544 1.503998,-0.23565 3.002598,-0.11536 4.481231,0.25153 0.208103,0.0519 0.316547,0.13512 0.389325,0.3549 0.308681,0.93592 0.867446,1.71555 1.595755,2.37278 0.12058,0.10866 0.222568,0.19473 0.220063,0.37394 -0.0067,0.55669 -0.0023,1.11372 -0.0023,1.72297 -0.792374,-0.11183 -1.514475,-0.28751 -2.195478,-0.62265 -0.215829,-0.10584 -0.51375,-0.35701 -0.664386,-0.0963 -0.171133,0.29704 0.202988,0.44803 0.420335,0.57467 1.864889,1.08974 3.528836,1.09185 5.405261,-0.0384 0.203906,-0.12276 0.528814,-0.28116 0.360186,-0.54998 -0.134055,-0.21413 -0.418394,-0.0222 -0.6223,0.0875 -0.290336,0.15593 -0.595489,0.27658 -0.913694,0.36089 -0.409222,0.1083 -0.814917,0.23707 -1.309511,0.27235 0,-0.59902 0.0028,-1.18922 -0.0014,-1.77977 -0.0014,-0.16192 0.113948,-0.22189 0.214137,-0.31362 0.710494,-0.64664 1.266472,-1.40723 1.566686,-2.32339 0.0896,-0.27199 0.234597,-0.35172 0.479072,-0.40958 1.833386,-0.4325 3.660775,-0.4766 5.503686,-0.0293 2.014009,0.48895 3.923948,1.27565 5.867048,1.97027 1.398059,0.49988 2.782711,1.04492 4.236509,1.37266 0.357011,0.0801 0.719314,0.13546 1.084439,0.2032 -0.01835,0.1725 -0.176742,0.18203 -0.280811,0.23706 -0.685095,0.36477 -1.167342,0.94686 -1.630187,1.54023 -1.292578,1.65629 -2.7432,3.13514 -4.549069,4.24286 -1.722614,1.05727 -3.55847,1.84538 -5.492045,2.42147 -2.316692,0.68968 -4.685242,0.92286 -7.093656,0.87806 -0.771349,-0.0141 -1.542627,-0.008 -2.314752,-0.0388 -3.626309,-0.14287 -6.980732,-1.20473 -10.119643,-2.98026 -1.855505,-1.04916 -3.388854,-2.48144 -4.711488,-4.14655 -0.32385,-0.40817 -0.669996,-0.79834 -1.002242,-1.19945 -0.33722,-0.4071 -0.815411,-0.62688 -1.270282,-0.9278"
         style="fill:#fbc7ad;fill-opacity:1;fill-rule:evenodd;stroke:none;stroke-width:0.0352778" /><path
         id="path19"
         d="m 45.768834,94.609441 c 0.128024,0.05539 0.283599,0.09525 0.407212,0.180622 1.553175,1.071034 3.269121,1.909939 4.625129,3.261431 0.36904,0.367594 0.751557,0.721078 1.082851,1.125361 0.338455,0.412397 0.345334,0.492478 -0.09701,0.742245 -0.755297,0.42616 -1.510736,0.85901 -2.297748,1.21991 -0.53855,0.24729 -1.009262,0.55386 -1.415662,0.97684 -0.414796,0.43144 -0.841833,0.85054 -1.315614,1.21884 -0.121532,0.0945 -0.240594,0.19544 -0.372745,0.27305 -0.261161,0.15346 -0.439173,0.096 -0.447181,-0.18697 -0.03584,-1.29575 -0.469089,-2.53965 -0.475968,-3.838926 -0.0063,-1.234369 -0.151588,-2.465564 -0.102658,-3.701697 0.01295,-0.327025 0.046,-0.653345 0.08114,-0.978959 0.01877,-0.174625 0.132997,-0.267405 0.328259,-0.291747"
         style="fill:#12100e;fill-opacity:1;fill-rule:evenodd;stroke:none;stroke-width:0.0352778" /><path
         id="path20"
         d="m 78.146252,96.975522 c -0.0095,1.349022 -0.04692,2.69875 -0.2159,4.037898 -0.09419,0.74365 -0.300214,1.47249 -0.31115,2.22849 -0.0011,0.0571 -0.01623,0.11501 -0.03069,0.17075 -0.07973,0.3055 -0.18415,0.36442 -0.438855,0.19226 -0.286456,-0.19403 -0.553156,-0.41839 -0.818092,-0.6417 -0.191206,-0.16157 -0.37712,-0.33267 -0.545042,-0.51717 -0.565855,-0.62089 -1.211792,-1.10138 -2.002719,-1.42699 -0.691092,-0.28469 -1.333148,-0.6918 -1.985081,-1.065388 -0.494595,-0.283281 -0.500945,-0.371475 -0.110772,-0.821267 1.018469,-1.174044 2.192866,-2.168878 3.519311,-2.974975 0.675922,-0.410986 1.333853,-0.84702 1.997075,-1.275997 0.703439,-0.454378 0.912283,-0.346781 0.938742,0.474133 0.01764,0.539397 0.0032,1.079853 0.0032,1.619956"
         style="fill:#12100e;fill-opacity:1;fill-rule:evenodd;stroke:none;stroke-width:0.0352778" /><path
         id="path21"
         d="m 51.13836,111.64931 c -0.02258,-0.68721 0.271215,-1.19944 0.886918,-1.49613 1.014766,-0.48965 1.963985,0.0141 2.16214,1.12854 0.167005,0.93945 -0.31115,1.76248 -1.125855,1.93781 -1.0553,0.22754 -1.9177,-0.4766 -1.923203,-1.57022"
         style="fill:#110f0d;fill-opacity:1;fill-rule:evenodd;stroke:none;stroke-width:0.0352778" /><path
         id="path22"
         d="m 69.324337,111.63732 c -0.01023,-0.98143 0.539045,-1.63654 1.388534,-1.65559 0.9779,-0.0222 1.666875,0.66181 1.669697,1.65735 0.0021,0.85725 -0.644172,1.62208 -1.385006,1.63901 -1.018822,0.0226 -1.662641,-0.60784 -1.673225,-1.64077"
         style="fill:#100f0d;fill-opacity:1;fill-rule:evenodd;stroke:none;stroke-width:0.0352778" /><path
         id="path23"
         d="m 54.846654,119.02555 c -0.391478,0.0325 -0.788635,-10e-4 -1.168153,-0.17181 -0.347945,-0.15557 -0.561129,-0.41451 -0.570089,-0.79551 -0.0087,-0.35631 0.17279,-0.62124 0.494312,-0.78317 0.911825,-0.45861 1.851942,-0.44591 2.790931,-0.1203 0.343676,0.11889 0.53908,0.38136 0.545712,0.79552 0.0062,0.40675 -0.148555,0.64382 -0.505213,0.81139 -0.502708,0.23565 -1.027606,0.29527 -1.5875,0.26388"
         style="fill:#f89da5;fill-opacity:1;fill-rule:evenodd;stroke:none;stroke-width:0.0352778" /><path
         id="path24"
         d="m 68.720029,119.03542 c -0.353483,0.0416 -0.816681,-0.0476 -1.274586,-0.22225 -0.232834,-0.0889 -0.394406,-0.23636 -0.521406,-0.43039 -0.227894,-0.34819 -0.191205,-0.62547 0.09631,-0.92921 0.189441,-0.20073 0.407105,-0.33338 0.682625,-0.40005 0.687211,-0.16651 1.367719,-0.16228 2.047169,0.018 0.392995,0.10407 0.702028,0.34607 0.833967,0.72707 0.150636,0.43392 -0.135467,0.91123 -0.591608,1.11125 -0.368653,0.16158 -0.755298,0.11148 -1.27247,0.12559"
         style="fill:#f796a4;fill-opacity:1;fill-rule:evenodd;stroke:none;stroke-width:0.0352778" /><path
         id="path25"
         d="m 51.619725,99.552211 c -2.006565,0.897109 -3.865281,1.970259 -5.315092,3.758499 -0.532624,-2.76331 -0.547087,-5.443719 -0.489232,-8.23525 2.189727,1.226609 4.206487,2.53224 5.804324,4.476751"
         style="fill:#fbc7ad;fill-opacity:1;fill-rule:evenodd;stroke:none;stroke-width:0.0352778" /><path
         id="path26"
         d="m 71.908435,99.562441 c 1.584678,-1.954036 3.608917,-3.234619 5.778147,-4.479925 0.122767,1.39947 0.0021,2.733322 0.0071,4.066823 0.0049,1.357491 -0.296333,2.675471 -0.401461,4.098921 -0.869245,-0.71331 -1.527881,-1.62101 -2.464859,-2.15723 -0.931333,-0.53305 -1.841853,-1.115839 -2.918883,-1.528589"
         style="fill:#fbc7ad;fill-opacity:1;fill-rule:evenodd;stroke:none;stroke-width:0.0352778" /></g></g></svg>
