<?xml version="1.0" encoding="UTF-8" standalone="no"?>
<!-- Created with Inkscape (http://www.inkscape.org/) -->

<svg
   width="42.402943mm"
   height="41.386032mm"
   viewBox="0 0 42.402943 41.386032"
   version="1.1"
   id="svg1"
   xml:space="preserve"
   xmlns="http://www.w3.org/2000/svg"
   xmlns:svg="http://www.w3.org/2000/svg"><defs
     id="defs1" /><g
     id="layer1"
     transform="translate(-94.806603,-90.114959)"><g
       id="g5"><path
         id="path2"
         d="m 126.3872,98.56655 c -0.0843,-0.381 0.0653,-0.649817 0.20497,-0.927806 0.74612,-1.484842 1.7653,-2.723445 3.25473,-3.507317 1.19133,-0.627239 2.43769,-1.063625 3.82658,-0.887942 1.43898,0.182034 2.47791,0.886884 3.06987,2.231673 0.84526,1.919464 0.48648,3.693583 -0.63606,5.372802 -0.56021,0.8375 -1.22273,1.59209 -1.94592,2.29271 -0.0952,0.0921 -0.2099,0.16439 -0.2667,0.20814 -0.002,0.2293 0.12947,0.26987 0.20779,0.34007 0.83714,0.75107 1.02623,1.68381 0.78175,2.74073 -0.0392,0.16898 -0.0868,0.3362 -0.1404,0.50095 -0.0628,0.19332 -0.0522,0.34325 0.0896,0.52387 0.73237,0.93451 0.97578,2.33821 -0.14429,3.53131 -0.25329,0.27023 -0.31538,0.51929 -0.27763,0.87454 0.14005,1.30704 0.21308,2.62219 -0.0187,3.92465 -0.51505,2.90477 -1.47778,5.62892 -3.32105,7.98512 -1.74942,2.23591 -3.83787,4.05236 -6.39057,5.33612 -1.69757,0.85408 -3.43923,1.56775 -5.29802,1.96885 -1.17051,0.25224 -2.3502,0.45756 -3.55564,0.42193 -1.37654,-0.0406 -2.72592,-0.27058 -4.05201,-0.62795 -2.3495,-0.63359 -4.51379,-1.67852 -6.54614,-3.0032 -1.13948,-0.74224 -2.13184,-1.66158 -3.05753,-2.64936 -1.54728,-1.651 -2.785532,-3.50908 -3.555294,-5.64515 -0.912989,-2.53365 -1.40723,-5.13362 -0.998714,-7.83978 0.04233,-0.28046 -0.03739,-0.46602 -0.22613,-0.66428 -0.860425,-0.90487 -1.061508,-1.9364 -0.545042,-3.08927 0.01588,-0.0353 0.02434,-0.079 0.05045,-0.10337 0.503414,-0.47096 0.354542,-0.98883 0.211314,-1.57656 -0.244122,-1.0026 0.0067,-1.91488 0.820561,-2.61832 0.07091,-0.0617 0.139348,-0.12665 0.238126,-0.21731 -0.251884,-0.25576 -0.497064,-0.49424 -0.730251,-0.74401 -0.83185,-0.89182 -1.612547,-1.81998 -2.128661,-2.942518 -0.649816,-1.414286 -0.667455,-2.831395 -0.0575,-4.260498 0.535517,-1.254125 1.477081,-2.00413 2.817284,-2.232025 0.808214,-0.137583 1.610078,-0.0889 2.405597,0.143228 2.60562,0.759883 4.28131,2.502606 5.29272,4.958998 0.0212,0.05115 0.0416,0.102305 0.0593,0.146402 0.0508,0 0.0896,0.0085 0.12347,-0.0014 0.50589,-0.142522 0.50589,-0.143228 0.47378,-0.694619 -0.004,-0.07726 -0.0141,-0.154164 -0.018,-0.23107 -0.0716,-1.459441 0.68933,-2.293761 2.14701,-2.356908 0.0533,-0.0025 0.10548,-0.02505 0.20179,-0.04904 -0.0794,-0.324909 -0.0988,-0.648053 -0.0829,-0.971198 0.0367,-0.752827 0.33691,-1.386064 0.91617,-1.865136 0.63323,-0.523875 1.32256,-0.716139 2.07151,-0.224014 0.16616,0.109009 0.26705,0.138995 0.4258,-0.04798 0.64629,-0.76447 1.0989,-0.878064 2.03659,-0.565856 0.0706,0.02328 0.1404,0.04904 0.24765,0.08678 0.10548,-0.523169 0.31432,-0.961319 0.76094,-1.254478 0.32491,-0.21343 0.68227,-0.251883 1.05339,-0.240241 0.84138,0.02681 1.2693,0.412044 1.61784,1.450622 0.10266,0.03986 0.18627,-0.02611 0.27341,-0.05609 0.79516,-0.275872 1.48766,-0.180269 1.99284,0.5588 0.12523,0.183445 0.22154,0.189442 0.42016,0.08502 0.93697,-0.492478 1.76142,-0.29845 2.43734,0.561975 0.36795,0.467783 0.57397,1.000125 0.56621,1.605844 -0.004,0.286809 -0.005,0.573264 -0.0723,0.827264 0.091,0.129823 0.19332,0.08961 0.28539,0.09349 1.27106,0.05821 2.07222,0.895351 2.06975,2.166056 -3.5e-4,0.115359 -0.0166,0.230717 -0.0265,0.346428 -0.0526,0.615244 -0.0529,0.615244 0.64029,0.810331"
         style="fill:#100f0d;fill-opacity:1;fill-rule:evenodd;stroke:none;stroke-width:0.0352778" /><path
         id="path3"
         d="m 98.025986,113.52398 c -0.09066,-2.80953 0.917928,-5.32095 2.432054,-7.66939 0.15592,-0.24201 0.36371,-0.45015 0.53798,-0.68157 0.21237,-0.28258 0.19579,-0.35525 -0.10936,-0.53305 -0.26635,-0.15593 -0.54187,-0.29668 -0.80433,-0.45896 -1.61008,-0.9966 -2.822577,-2.3869 -3.860802,-3.94194 -0.322086,-0.482601 -0.531283,-1.021998 -0.691797,-1.585032 -0.319617,-1.122186 -0.146756,-2.179814 0.362655,-3.199341 0.680861,-1.363487 2.040114,-1.879953 3.581048,-1.670403 2.220386,0.301978 3.975456,1.410758 5.126916,3.381375 0.25295,0.432858 0.4879,0.8763 0.73413,1.313039 0.12136,0.214136 0.15981,0.398992 -0.005,0.633942 -0.27905,0.398286 -0.29457,0.874183 -0.24942,1.33985 0.1196,1.23014 0.52317,2.30152 1.73355,2.87232 0.20003,0.0945 0.22825,0.21554 0.20814,0.41028 -0.06,0.57502 0.078,1.1116 0.3549,1.61431 0.40287,0.7306 1.01847,1.15711 1.84996,1.21708 0.26388,0.019 0.35313,0.10972 0.4318,0.34572 0.44733,1.3388 1.45063,1.99849 2.79577,2.17805 0.27552,0.0367 0.39476,0.13688 0.50341,0.36654 0.44768,0.94403 1.2185,1.53247 2.18158,1.8729 1.28094,0.45261 2.84233,-0.1136 3.73204,-1.32045 0.19649,-0.26599 0.26705,-0.6544 0.50694,-0.8255 0.23918,-0.17039 0.64064,-0.0903 0.94474,-0.19614 1.03011,-0.35843 1.84256,-0.96838 2.18263,-2.06481 0.0582,-0.18733 0.10055,-0.32421 0.36266,-0.35419 1.38183,-0.15875 2.25637,-1.15112 2.27506,-2.53789 10e-4,-0.11571 0.01,-0.23424 -0.0113,-0.34678 -0.0339,-0.18662 0.0399,-0.2861 0.20885,-0.35242 1.27,-0.49671 1.8736,-2.16429 1.72826,-3.565526 -0.0328,-0.312561 -0.1584,-0.599017 -0.36266,-0.839964 -0.11818,-0.1397 -0.11959,-0.266347 -0.0441,-0.421569 0.77506,-1.585737 1.72332,-3.023659 3.33869,-3.883731 0.75283,-0.401108 1.54623,-0.690033 2.39395,-0.830439 0.60537,-0.09984 1.19486,-0.03351 1.77906,0.106186 0.96979,0.232128 1.62913,0.843139 2.04117,1.736725 0.60431,1.313392 0.54928,2.619728 -0.0511,3.917245 -0.50235,1.085143 -1.27741,1.972733 -2.07398,2.843033 -0.82938,0.90629 -1.7914,1.64007 -2.88255,2.20769 -0.35771,0.18626 -0.38911,0.29315 -0.1344,0.60924 1.06962,1.32574 1.76106,2.84163 2.32939,4.43336 0.58455,1.63795 0.71049,3.32811 0.55668,5.02638 -0.24201,2.66771 -1.03364,5.1809 -2.47368,7.45808 -0.88088,1.39241 -1.94839,2.63525 -3.16336,3.75496 -2.08209,1.92017 -4.5279,3.21028 -7.1822,4.11198 -1.778,0.60466 -3.61244,0.98143 -5.51039,0.92322 -1.26118,-0.0392 -2.49273,-0.28116 -3.70628,-0.60219 -2.2793,-0.6029 -4.4002,-1.58468 -6.32848,-2.92594 -3.05753,-2.12654 -5.35341,-4.89797 -6.588834,-8.44233 -0.602192,-1.72825 -1.08197,-3.50908 -0.98037,-5.42395"
         style="fill:#e7e6e5;fill-opacity:1;fill-rule:evenodd;stroke:none;stroke-width:0.0352778" /><path
         id="path4"
         d="m 125.2061,97.672611 c -0.0152,0.18415 -0.0515,0.491066 -0.0646,0.799041 -0.0123,0.288573 0.10407,0.452614 0.42721,0.498123 0.67381,0.09525 0.92181,0.4064 0.95603,1.078085 0.0268,0.53129 -0.0695,1.04035 -0.26705,1.52718 -0.23319,0.57397 -0.61313,1.016 -1.19839,1.27141 -0.60008,0.26211 -0.59584,0.27164 -0.49107,0.88371 0.20038,1.17193 -0.67733,2.24367 -1.87148,2.28423 -0.50024,0.0169 -0.5267,0.0377 -0.6731,0.53023 -0.35913,1.20826 -1.22979,1.92652 -2.47086,1.98049 -0.43251,0.0191 -0.65581,0.19756 -0.81421,0.58773 -0.47837,1.18216 -1.93216,1.99143 -3.03001,1.77165 -1.02764,-0.20567 -1.82668,-0.75318 -2.2546,-1.71697 -0.20461,-0.46037 -0.46743,-0.63288 -0.95603,-0.64699 -1.06539,-0.031 -2.03518,-0.82903 -2.33468,-1.85702 -0.18133,-0.62336 -0.18133,-0.62336 -0.80963,-0.64947 -1.09537,-0.0455 -1.93322,-1.131 -1.76001,-2.28035 0.0931,-0.62054 0.0963,-0.6276 -0.48754,-0.88583 -0.9405,-0.41592 -1.28128,-1.23084 -1.44074,-2.1597 -0.042,-0.24483 -0.0406,-0.50165 -0.024,-0.750363 0.0388,-0.566914 0.33161,-0.876653 0.88547,-0.972961 0.44909,-0.07796 0.50518,-0.138289 0.48931,-0.60325 -0.012,-0.346781 -0.0709,-0.692856 -0.0639,-1.038225 0.0208,-1.014589 0.76341,-1.622778 1.77377,-1.474612 0.57961,0.08502 0.70838,-0.03704 0.59937,-0.612422 -0.0656,-0.343605 -0.121,-0.686505 -0.0917,-1.034344 0.0568,-0.67557 0.36689,-1.205089 0.94403,-1.575506 0.39793,-0.255764 0.79163,-0.276578 1.19204,-0.01517 0.12911,0.08431 0.25082,0.180975 0.38452,0.257175 0.21449,0.122413 0.4064,0.09701 0.54999,-0.121356 0.042,-0.06421 0.0783,-0.132644 0.12065,-0.197203 0.45296,-0.695325 0.82303,-0.801158 1.61678,-0.500944 0.22648,0.08572 0.43038,0.330553 0.6932,0.213078 0.30233,-0.135114 0.13865,-0.446617 0.17886,-0.678392 0.1016,-0.583847 0.57503,-0.97402 1.19204,-0.959203 0.60395,0.01482 1.04775,0.38735 1.13312,0.953558 0.008,0.05715 0.007,0.115711 0.0113,0.173567 0.0437,0.597606 0.10866,0.635706 0.65123,0.395817 0.15839,-0.0702 0.31961,-0.137936 0.48507,-0.186267 0.57291,-0.166864 0.91828,-0.04339 1.25377,0.435681 0.44944,0.640644 0.45614,0.651227 1.09291,0.24518 0.44414,-0.28328 0.86042,-0.282575 1.29257,0.01129 0.54751,0.372181 0.84808,0.887236 0.89712,1.542697 0.0261,0.347134 -0.0173,0.690739 -0.0864,1.034698 -0.11536,0.574322 0.0187,0.707672 0.59125,0.617008 0.23213,-0.03669 0.4572,-0.05009 0.68721,0.01517 0.75283,0.213783 1.10561,0.754591 1.09114,1.80975"
         style="fill:#fffefe;fill-opacity:1;fill-rule:evenodd;stroke:none;stroke-width:0.0352778" /><path
         id="path5"
         d="m 97.7547,110.70211 c -0.889353,-0.94333 -0.944033,-2.04188 -0.142169,-2.9845 0.216253,-0.25436 0.278341,-0.46602 0.161925,-0.77717 -0.168981,-0.45121 -0.26917,-0.91687 -0.255059,-1.41076 0.01976,-0.68933 0.338314,-1.20721 0.825501,-1.65382 0.117827,-0.10795 0.221191,-0.13124 0.352425,-0.0279 0.576438,0.45402 1.209675,0.81668 1.906407,1.12747 -0.723543,0.85408 -1.259413,1.78541 -1.749421,2.74144 -0.481895,0.94086 -0.761295,1.96391 -1.099609,2.98521"
         style="fill:#fffefd;fill-opacity:1;fill-rule:evenodd;stroke:none;stroke-width:0.0352778" /><path
         id="path6"
         d="m 131.53,104.92078 c 0.64206,-0.29174 1.21003,-0.61701 1.72297,-1.02658 0.20108,-0.16087 0.32244,-0.10795 0.4893,0.0469 0.65052,0.60466 0.86819,1.34408 0.72637,2.20521 -0.0123,0.0758 -0.0303,0.15276 -0.0593,0.22366 -0.24588,0.59832 -0.24871,1.09044 0.2032,1.68029 0.6597,0.86148 0.46496,1.81751 -0.37606,2.6543 -0.52775,-2.10503 -1.50319,-3.96311 -2.70651,-5.7838"
         style="fill:#fffefd;fill-opacity:1;fill-rule:evenodd;stroke:none;stroke-width:0.0352778" /><path
         id="path7"
         d="m 115.78729,121.29638 c 0.007,-0.0815 0.012,-0.10055 0.009,-0.11818 -0.091,-0.51965 0.10936,-1.07809 -0.0318,-1.54552 -0.12947,-0.42969 -0.68439,-0.66922 -0.93521,-1.10314 -0.25047,-0.43392 -0.53305,-0.84843 -0.66322,-1.34232 -0.2212,-0.8382 0.0773,-1.31833 0.92427,-1.43827 0.61313,-0.0875 1.23085,-0.0875 1.84397,0.002 0.8315,0.12171 1.14865,0.58138 0.91723,1.38254 -0.25612,0.88653 -0.70627,1.66828 -1.45345,2.23661 -0.14711,0.11218 -0.18697,0.20743 -0.18662,0.37218 0.002,0.49953 0.084,0.99766 -0.005,1.52576 0.51682,0.0885 0.96238,-0.0804 1.39876,-0.27128 0.31715,-0.13829 0.62054,-0.30904 0.93098,-0.46426 0.12524,-0.0624 0.27129,-0.12065 0.35737,0.0289 0.0677,0.11889 -0.049,0.20673 -0.13441,0.2854 -1.15887,1.06221 -2.98556,1.33244 -4.43265,0.64593 -0.40076,-0.18979 -0.78634,-0.41098 -1.12677,-0.70061 -0.0762,-0.0646 -0.14041,-0.16263 -0.0811,-0.25153 0.0547,-0.0815 0.17215,-0.0914 0.26493,-0.0473 0.3302,0.1577 0.65652,0.32456 0.98566,0.48437 0.43604,0.21202 0.89112,0.34113 1.41817,0.31856"
         style="fill:#100f0d;fill-opacity:1;fill-rule:evenodd;stroke:none;stroke-width:0.0352778" /><path
         id="path8"
         d="m 99.332675,95.568997 c 0.552098,0.04127 1.217085,0.251177 1.792465,0.720725 0.91158,0.744008 1.55575,1.707797 2.18616,2.676525 0.46179,0.710142 0.84103,1.470023 1.19804,2.240843 0.13687,0.29492 0.12594,0.49107 -0.13371,0.70027 -0.48013,0.38593 -0.94932,0.78669 -1.40687,1.19944 -0.2025,0.18274 -0.39511,0.19756 -0.63218,0.0998 -1.53388,-0.63148 -2.930174,-1.4665 -4.017435,-2.74708 -0.720373,-0.848435 -1.162756,-1.809755 -1.134534,-2.951697 0.02999,-1.207558 0.76447,-1.934633 2.148064,-1.938866"
         style="fill:#11100e;fill-opacity:1;fill-rule:evenodd;stroke:none;stroke-width:0.0352778" /><path
         id="path9"
         d="m 134.84858,97.691661 c -0.0646,1.071033 -0.46531,1.972733 -1.13912,2.753079 -0.92145,1.06715 -2.04152,1.86866 -3.3281,2.4444 -1.02377,0.45861 -1.02024,0.46496 -1.88313,-0.26529 -0.29387,-0.24836 -0.58773,-0.49742 -0.88442,-0.74225 -0.20461,-0.16898 -0.25788,-0.34995 -0.1404,-0.60748 0.71508,-1.569862 1.5935,-3.036712 2.73226,-4.336346 0.56939,-0.649463 1.24107,-1.154641 2.1209,-1.315508 0.60713,-0.110772 1.19662,-0.08925 1.72226,0.269875 0.64276,0.439208 0.77611,1.110897 0.79975,1.79952"
         style="fill:#11100e;fill-opacity:1;fill-rule:evenodd;stroke:none;stroke-width:0.0352778" /><path
         id="path10"
         d="m 123.60837,112.94119 c 0.003,-0.889 0.68228,-1.5293 1.6122,-1.51977 0.86078,0.009 1.60725,0.76553 1.61678,1.63865 0.01,0.88971 -0.6918,1.60726 -1.55822,1.5935 -0.94368,-0.0152 -1.67358,-0.76341 -1.67076,-1.71238"
         style="fill:#100f0d;fill-opacity:1;fill-rule:evenodd;stroke:none;stroke-width:0.0352778" /><path
         id="path11"
         d="m 106.80345,111.42142 c 0.92251,-0.006 1.61043,0.64735 1.60867,1.52753 -0.002,0.94121 -0.74824,1.69756 -1.68346,1.70533 -0.87665,0.007 -1.54975,-0.69215 -1.54164,-1.60267 0.008,-0.87701 0.74895,-1.62455 1.61643,-1.63019"
         style="fill:#100f0d;fill-opacity:1;fill-rule:evenodd;stroke:none;stroke-width:0.0352778" /><path
         id="path12"
         d="m 108.02794,118.51155 c 1.00895,-0.037 1.31516,0.5902 1.30599,1.11795 -0.0113,0.66146 -0.43639,1.37725 -1.33915,1.32821 -0.84032,-0.0455 -1.3021,-0.4385 -1.30986,-1.18992 -0.007,-0.67522 0.38453,-1.35855 1.34302,-1.25624"
         style="fill:#f9b1be;fill-opacity:1;fill-rule:evenodd;stroke:none;stroke-width:0.0352778" /><path
         id="path13"
         d="m 124.08815,118.5112 c 0.71226,-0.11466 1.33033,0.5214 1.27741,1.26753 -0.054,0.76094 -0.46496,1.16522 -1.30492,1.17333 -0.85161,0.008 -1.31904,-0.55527 -1.276,-1.27846 0.0466,-0.7807 0.43039,-1.1617 1.30351,-1.1624"
         style="fill:#f9b1be;fill-opacity:1;fill-rule:evenodd;stroke:none;stroke-width:0.0352778" /><path
         id="path14"
         d="m 97.64675,97.577361 c -0.01799,-0.221545 0.02716,-0.465314 0.1143,-0.704498 0.182386,-0.500944 0.533048,-0.791633 1.064684,-0.849841 0.722136,-0.07937 1.378656,0.09208 1.954386,0.541514 0.42827,0.334433 0.7874,0.737305 1.12042,1.164519 0.83115,1.0668 1.59068,2.17805 2.18546,3.397955 0.13194,0.27058 0.11501,0.43498 -0.13793,0.62583 -0.36795,0.27728 -0.7045,0.59831 -1.04176,0.9144 -0.13052,0.12206 -0.23847,0.15028 -0.4064,0.078 -1.44885,-0.62265 -2.795407,-1.39206 -3.833985,-2.61549 -0.656519,-0.772938 -1.018822,-1.665466 -1.019175,-2.552349"
         style="fill:#f9b1be;fill-opacity:1;fill-rule:evenodd;stroke:none;stroke-width:0.0352778" /><path
         id="path15"
         d="m 132.83422,96.006441 c 0.97296,-0.0039 1.50636,0.502003 1.54023,1.478139 0.0342,0.998361 -0.37324,1.837972 -0.98178,2.59115 -0.67628,0.83714 -1.52965,1.46509 -2.46133,1.98579 -0.43604,0.24412 -0.90347,0.43145 -1.35044,0.65722 -0.20108,0.1016 -0.34149,0.073 -0.50623,-0.0871 -0.31715,-0.30833 -0.64453,-0.61207 -1.00013,-0.87348 -0.25435,-0.18732 -0.28152,-0.35454 -0.14993,-0.62547 0.32068,-0.6604 0.69074,-1.292583 1.09608,-1.901477 0.44803,-0.673806 0.91758,-1.336322 1.45803,-1.940984 0.4512,-0.505177 0.93028,-0.978252 1.61643,-1.170163 0.24447,-0.06844 0.48648,-0.115712 0.73907,-0.113595"
         style="fill:#f9b1be;fill-opacity:1;fill-rule:evenodd;stroke:none;stroke-width:0.0352778" /></g></g></svg>
