<?xml version="1.0" encoding="UTF-8" standalone="no"?>
<!-- Created with Inkscape (http://www.inkscape.org/) -->

<svg
   width="40.739567mm"
   height="36.903965mm"
   viewBox="0 0 40.739567 36.903965"
   version="1.1"
   id="svg1"
   xml:space="preserve"
   xmlns="http://www.w3.org/2000/svg"
   xmlns:svg="http://www.w3.org/2000/svg"><defs
     id="defs1" /><g
     id="layer1"
     transform="translate(-150.29016,-144.65751)"><g
       id="g9"><path
         id="path56"
         d="m 153.55674,156.43163 c -1.23225,-1.18639 -1.95651,-2.6416 -2.41653,-4.23827 -0.60184,-2.09021 -0.89888,-4.2231 -0.84349,-6.40292 0.0363,-1.43439 0.25612,-1.13171 1.18816,-1.04951 0.55668,0.0494 1.11442,0.10901 1.66405,0.20602 2.11561,0.3743 3.83787,1.45274 5.2959,2.99473 0.78493,0.83009 1.49648,1.71591 2.08562,2.72945 0.7807,-0.47555 1.54129,-0.91864 2.3936,-1.18569 2.77142,-0.86819 5.60211,-1.20827 8.50688,-1.14088 2.12161,0.0497 4.18465,0.36371 6.22159,0.92251 0.5588,0.15346 1.11019,0.32103 1.64218,0.55527 0.51224,0.22613 0.97367,0.5401 1.50319,0.83997 0.18203,-0.27693 0.35101,-0.55316 0.53834,-0.81527 1.03963,-1.45592 2.21086,-2.77919 3.7659,-3.71405 1.17369,-0.7052 2.41935,-1.18674 3.80153,-1.276 0.46179,-0.03 0.91934,-0.11359 1.37972,-0.16157 0.58208,-0.0603 0.69144,0.0219 0.71896,0.6036 0.085,1.82034 -0.019,3.62762 -0.43603,5.40809 -0.17569,0.75106 -0.3549,1.50072 -0.60572,2.23202 -0.32244,0.94016 -0.82021,1.78612 -1.3716,2.6035 -0.21661,0.32068 -0.47096,0.61207 -0.81386,0.81386 1.17828,1.64007 1.59632,3.51155 1.81151,5.42608 0.40076,3.57822 -0.20002,7.02797 -1.76495,10.24957 -1.98049,4.07705 -5.0232,7.03513 -9.47243,8.36468 -1.66723,0.49816 -3.35386,0.92011 -5.08776,1.06052 -1.24672,0.10117 -2.5012,0.12527 -3.75885,0.0868 -2.43558,-0.0746 -4.77979,-0.58318 -7.08202,-1.33103 -3.09174,-1.00475 -5.45606,-2.97396 -7.35718,-5.56052 -1.75401,-2.38732 -2.72062,-5.08388 -3.17288,-7.98619 -0.22966,-1.4739 -0.33514,-2.95275 -0.19544,-4.44288 0.16193,-1.72191 0.55245,-3.38384 1.27565,-4.96253 0.14675,-0.31961 0.36583,-0.58278 0.58596,-0.82938"
         style="fill:#100f0d;fill-opacity:1;fill-rule:evenodd;stroke:none;stroke-width:0.0352778" /><path
         id="path57"
         d="m 169.95809,181.11299 c -2.66418,0.10058 -5.79897,-0.64135 -8.81098,-1.94236 -2.08668,-0.90138 -3.72357,-2.38619 -5.15409,-4.1191 -2.16641,-2.62417 -3.29036,-5.67683 -3.76096,-9.01517 -0.31785,-2.25213 -0.1778,-4.46475 0.37253,-6.6615 0.16404,-0.65687 0.40005,-1.28905 0.65723,-1.91347 0.11077,-0.26987 0.25647,-0.51364 0.45579,-0.73236 0.27164,-0.29951 0.27622,-0.38418 -0.004,-0.67981 -0.33479,-0.35348 -0.60713,-0.74612 -0.86325,-1.15746 -1.31304,-2.1075 -1.78929,-4.45276 -1.99143,-6.88199 -0.0674,-0.81033 -0.0557,-1.62031 -0.0681,-2.43099 -0.004,-0.26882 0.0646,-0.37395 0.35737,-0.36654 2.35973,0.0628 4.47957,0.72743 6.21912,2.39995 0.9786,0.9405 1.87395,1.94627 2.61373,3.08822 0.30515,0.47131 0.33055,0.49424 0.81703,0.24059 1.74555,-0.90911 3.59798,-1.4859 5.52874,-1.82845 0.85584,-0.15204 1.71591,-0.28857 2.58727,-0.28645 1.60196,0.005 3.20887,-0.10548 4.80377,0.0995 2.21157,0.28399 4.35822,0.79022 6.37082,1.80905 1.08091,0.54715 0.81491,0.58843 1.512,-0.39053 1.04775,-1.47108 2.21686,-2.82787 3.76732,-3.80012 1.14723,-0.71932 2.37737,-1.18922 3.75355,-1.21532 0.34608,-0.006 0.6911,-0.0649 1.03541,-0.11219 0.27234,-0.0377 0.38064,0.0593 0.37853,0.34185 -0.007,1.00365 0.002,2.00765 -0.0924,3.00954 -0.10936,1.15747 -0.35384,2.28883 -0.66393,3.40502 -0.42333,1.52611 -1.12677,2.90971 -2.18369,4.1021 -0.1457,0.16439 -0.29422,0.33901 -0.084,0.54962 0.69038,0.69109 0.89005,1.61573 1.14335,2.49626 0.66569,2.31387 0.78034,4.67254 0.4385,7.05485 -0.27587,1.92225 -0.78846,3.77793 -1.62454,5.53325 -1.27353,2.673 -3.13902,4.855 -5.57354,6.53358 -1.39876,0.96365 -2.99649,1.50136 -4.61257,1.97376 -2.43275,0.7105 -3.55106,0.85259 -7.32507,0.89669"
         style="fill:#f46dbd;fill-opacity:1;fill-rule:evenodd;stroke:none;stroke-width:0.0352778" /><path
         id="path58"
         d="m 170.76595,171.87159 c -0.86431,0.0153 -1.60902,-0.11285 -2.33504,-0.42291 -1.97273,-0.84282 -2.80635,-3.30729 -2.57634,-5.07083 0.28858,-2.21121 1.70815,-3.35809 3.689,-3.98357 0.73448,-0.23177 1.49013,-0.23988 2.22497,-0.004 1.17405,0.37641 2.24684,0.90876 2.97603,1.97697 0.66675,0.97613 0.84985,2.05881 0.74754,3.1968 -0.0896,0.99949 -0.46496,1.90969 -1.07315,2.71074 -0.62371,0.82201 -1.49084,1.26796 -2.47474,1.48527 -0.40922,0.0907 -0.83361,0.17184 -1.17827,0.11176"
         style="fill:#11100e;fill-opacity:1;fill-rule:evenodd;stroke:none;stroke-width:0.0352778" /><path
         id="path59"
         d="m 189.34323,147.46437 c -0.13371,2.23838 -0.69321,4.36351 -1.74414,6.35212 -0.24377,0.46038 -0.51329,0.90558 -0.82444,1.32327 -0.23177,0.3108 -0.30304,0.32562 -0.58773,0.0522 -0.38911,-0.37359 -0.76129,-0.76623 -1.12324,-1.16663 -0.77752,-0.86043 -1.57515,-1.69686 -2.58869,-2.28812 -0.23106,-0.13511 -0.2547,-0.27199 -0.13617,-0.51682 0.31045,-0.64064 0.77576,-1.15006 1.30069,-1.60655 1.25519,-1.09149 2.58516,-2.07257 4.11375,-2.7619 0.39087,-0.17639 0.80045,-0.27199 1.20403,-0.39758 0.24835,-0.0776 0.37747,7.1e-4 0.38452,0.25859 0.007,0.25012 10e-4,0.50094 10e-4,0.75141"
         style="fill:#12100f;fill-opacity:1;fill-rule:evenodd;stroke:none;stroke-width:0.0352778" /><path
         id="path60"
         d="m 152.00452,147.48872 c 0,-0.25012 -0.0131,-0.50165 0.004,-0.75071 0.0208,-0.30622 0.0854,-0.34079 0.40992,-0.27094 0.93698,0.2025 1.76742,0.65088 2.58022,1.13277 0.94827,0.56198 1.81257,1.24213 2.64266,1.96427 0.55457,0.48189 1.05375,1.01035 1.37301,1.69439 0.11042,0.23601 0.0716,0.34572 -0.13018,0.46214 -1.20685,0.69885 -2.09444,1.74801 -3.02471,2.75131 -0.20955,0.22613 -0.41981,0.45297 -0.64453,0.66358 -0.3683,0.34501 -0.42121,0.34325 -0.7052,-0.0674 -0.92922,-1.34479 -1.59632,-2.81376 -2.00307,-4.3942 -0.26882,-1.04387 -0.53129,-2.09374 -0.50165,-3.18523"
         style="fill:#12100f;fill-opacity:1;fill-rule:evenodd;stroke:none;stroke-width:0.0352778" /><path
         id="path61"
         d="m 180.38408,168.27615 c -0.46919,0.0678 -0.87136,-0.0561 -1.26647,-0.21276 -0.41522,-0.16401 -0.65793,-0.46909 -0.65617,-0.91793 0.002,-0.31464 -0.11747,-0.66178 0.16016,-0.9313 0.0822,-0.0797 0.16651,-0.16263 0.26353,-0.22119 0.75741,-0.45755 2.35938,-0.22507 3.03953,0.35454 0.63288,0.53975 0.44133,1.52929 -0.44238,1.79839 -0.36301,0.11053 -0.74013,0.21664 -1.0982,0.13025"
         style="fill:#f9a8d8;fill-opacity:1;fill-rule:evenodd;stroke:none;stroke-width:0.0352778" /><path
         id="path62"
         d="m 160.75693,168.28772 c -0.30197,0.0185 -0.61983,-0.0231 -0.94226,-0.10336 -0.49813,-0.12305 -0.83503,-0.39716 -0.93592,-0.90206 -0.0885,-0.4409 0.17533,-0.9496 0.67204,-1.17362 0.57361,-0.25858 1.1691,-0.50377 1.83338,-0.28928 0.15946,0.0519 0.34502,0.0187 0.51576,0.042 0.4759,0.0656 0.76694,0.41805 0.80046,0.89465 0.079,1.11936 -0.52776,1.39305 -1.45415,1.52851 -0.15099,0.0223 -0.30798,0.003 -0.48931,0.003"
         style="fill:#f9a8d8;fill-opacity:1;fill-rule:evenodd;stroke:none;stroke-width:0.0352778" /><path
         id="path63"
         d="m 178.42546,162.41439 c -0.0113,-0.70485 0.52035,-1.30669 1.17016,-1.32362 0.77259,-0.0208 1.37054,0.57185 1.39312,1.38007 0.019,0.69179 -0.57397,1.30633 -1.26294,1.30774 -0.67628,0.001 -1.2887,-0.64135 -1.30034,-1.36419"
         style="fill:#100f0d;fill-opacity:1;fill-rule:evenodd;stroke:none;stroke-width:0.0352778" /><path
         id="path64"
         d="m 160.35971,162.45884 c 0.0212,-0.81244 0.61736,-1.39629 1.39559,-1.36807 0.63711,0.0229 1.18462,0.64911 1.16804,1.33456 -0.0173,0.70943 -0.6544,1.36172 -1.32009,1.35255 -0.69427,-0.01 -1.26224,-0.61172 -1.24354,-1.31904"
         style="fill:#100f0d;fill-opacity:1;fill-rule:evenodd;stroke:none;stroke-width:0.0352778" /><path
         id="path65"
         d="m 166.28743,167.0259 c -0.0681,-2.77248 2.64372,-4.47957 4.60869,-4.32505 1.80199,0.14181 4.29119,1.6069 4.14091,4.43332 -0.15699,2.95381 -1.83621,4.24847 -4.39385,4.52575 -2.57493,-0.30469 -4.19982,-1.67142 -4.35575,-4.63402"
         style="fill:#e84da8;fill-opacity:1;fill-rule:evenodd;stroke:none;stroke-width:0.0352778" /><path
         id="path66"
         d="m 186.36896,154.8205 c -1.20474,-1.22555 -2.27683,-2.53647 -3.74792,-3.39408 0.63642,-1.53035 4.62915,-4.40055 6.32108,-4.55753 0.37112,1.90782 -0.99201,6.16373 -2.57316,7.95161"
         style="fill:#e84da8;fill-opacity:1;fill-rule:evenodd;stroke:none;stroke-width:0.0352778" /><path
         id="path67"
         d="m 152.44761,146.78246 c 2.59221,0.85654 4.5914,2.49696 6.38175,4.57552 -1.55646,0.90982 -2.64866,2.21016 -3.81424,3.42406 -1.43474,-1.08902 -3.08081,-6.15562 -2.56751,-7.99958"
         style="fill:#e84da8;fill-opacity:1;fill-rule:evenodd;stroke:none;stroke-width:0.0352778" /><path
         id="path68"
         d="m 173.12109,166.91266 c -0.009,0.59122 -0.34255,1.01318 -0.77047,0.99625 -0.42721,-0.0165 -0.75106,-0.46952 -0.71296,-1.02271 0.0116,-0.17039 0.0519,-0.34501 0.11359,-0.50412 0.10266,-0.26458 0.2787,-0.47519 0.59126,-0.47307 0.31785,0.002 0.54575,0.16616 0.66993,0.46284 0.0755,0.17921 0.12241,0.36513 0.10865,0.54081"
         style="fill:#12100e;fill-opacity:1;fill-rule:evenodd;stroke:none;stroke-width:0.0352778" /><path
         id="path69"
         d="m 169.68045,166.92924 c 0.005,0.5927 -0.29386,0.98887 -0.73766,0.97716 -0.40287,-0.0102 -0.71014,-0.41878 -0.71508,-0.95775 -0.002,-0.21132 0.0169,-0.42016 0.11642,-0.61525 0.1337,-0.26105 0.34043,-0.4198 0.63535,-0.42122 0.30586,-0.002 0.48542,0.18945 0.60325,0.45509 0.0801,0.18062 0.097,0.36936 0.0977,0.56197"
         style="fill:#110f0e;fill-opacity:1;fill-rule:evenodd;stroke:none;stroke-width:0.0352778" /></g></g></svg>
