<?xml version="1.0" encoding="UTF-8" standalone="no"?>
<!-- Created with Inkscape (http://www.inkscape.org/) -->

<svg
   width="210mm"
   height="297mm"
   viewBox="0 0 210 297"
   version="1.1"
   id="svg1"
   xml:space="preserve"
   inkscape:version="1.4.3 (fcd0343856, 2026-01-01)"
   sodipodi:docname="1.svg"
   xmlns:inkscape="http://www.inkscape.org/namespaces/inkscape"
   xmlns:sodipodi="http://sodipodi.sourceforge.net/DTD/sodipodi-0.dtd"
   xmlns="http://www.w3.org/2000/svg"
   xmlns:svg="http://www.w3.org/2000/svg"><sodipodi:namedview
     id="namedview1"
     pagecolor="#ffffff"
     bordercolor="#000000"
     borderopacity="0.25"
     inkscape:showpageshadow="2"
     inkscape:pageopacity="0.0"
     inkscape:pagecheckerboard="0"
     inkscape:deskcolor="#d1d1d1"
     inkscape:document-units="mm"
     inkscape:zoom="0.47894045"
     inkscape:cx="-1749.6956"
     inkscape:cy="-40.714874"
     inkscape:window-width="1854"
     inkscape:window-height="1011"
     inkscape:window-x="0"
     inkscape:window-y="0"
     inkscape:window-maximized="1"
     inkscape:current-layer="layer1" /><defs
     id="defs1" /><g
     inkscape:label="Layer 1"
     inkscape:groupmode="layer"
     id="layer1"><g
       id="g2"><rect
         style="fill:#9187b4;fill-opacity:1;stroke-width:2.49395"
         id="rect1"
         width="133.51532"
         height="32.518055"
         x="43.038605"
         y="80.33873"
         ry="7.7805724" /><rect
         style="fill:#dcbeff;fill-opacity:1;stroke-width:2.19819"
         id="rect1-3"
         width="127.77685"
         height="26.397009"
         x="45.981144"
         y="83.118294"
         ry="6.3159938" /><circle
         style="fill:#ffffff;fill-opacity:1;stroke:#9187b4;stroke-width:1.5;stroke-dasharray:none;stroke-opacity:1"
         id="path1"
         cx="59.622726"
         cy="96.104675"
         r="10.042341" /><circle
         style="fill:#ffffff;fill-opacity:1;stroke:#9187b4;stroke-width:1.5;stroke-dasharray:none;stroke-opacity:1"
         id="path1-5"
         cx="84.622726"
         cy="96.104675"
         r="10.042341" /><circle
         style="fill:#ffffff;fill-opacity:1;stroke:#9187b4;stroke-width:1.5;stroke-dasharray:none;stroke-opacity:1"
         id="path1-5-9"
         cx="109.62273"
         cy="96.104675"
         r="10.042341" /><circle
         style="fill:#ffffff;fill-opacity:1;stroke:#9187b4;stroke-width:1.5;stroke-dasharray:none;stroke-opacity:1"
         id="path1-5-2"
         cx="134.62273"
         cy="96.104675"
         r="10.042341" /><circle
         style="fill:#ffffff;fill-opacity:1;stroke:#9187b4;stroke-width:1.5;stroke-dasharray:none;stroke-opacity:1"
         id="path1-5-4"
         cx="159.62273"
         cy="96.104675"
         r="10.042341" /></g><path
       sodipodi:type="star"
       style="fill:#fae173;fill-opacity:1;stroke:#9187b4;stroke-width:1.5;stroke-dasharray:none;stroke-opacity:1"
       id="path2"
       inkscape:flatsided="false"
       sodipodi:sides="5"
       sodipodi:cx="39.7868"
       sodipodi:cy="132.17635"
       sodipodi:r1="14.599018"
       sodipodi:r2="7.299509"
       sodipodi:arg1="1.0191413"
       sodipodi:arg2="1.6474599"
       inkscape:rounded="0"
       inkscape:randomized="0"
       d="m 47.438109,144.60972 -8.210367,-5.15531 -8.901399,3.84089 2.365844,-9.4016 -6.403579,-7.27884 9.672539,-0.6552 4.943769,-8.33945 3.612114,8.99666 9.458997,2.12477 -7.44013,6.21545 z"
       inkscape:transform-center-x="-0.040787383"
       inkscape:transform-center-y="-0.71175843"
       transform="matrix(-0.51035518,-0.04670164,-0.04827046,0.5274992,86.950166,62.55318)" /><circle
       style="fill:#ffffff;fill-opacity:1;stroke:#9187b4;stroke-width:1.5;stroke-dasharray:none;stroke-opacity:1"
       id="path1-5-0"
       cx="93.527191"
       cy="133.9953"
       r="10.042341" /><g
       id="g7"
       inkscape:export-filename="turtle.svg"
       inkscape:export-xdpi="96"
       inkscape:export-ydpi="96"><path
         id="path2-0"
         d="m -337.69523,-1.8197211 c -1.0276,0.6095069 -2.40895,1.35509494 -3.98399,1.71645358 -0.17165,0.03888036 -0.33983,0.0743301 -0.50568,0.10520568 -0.0267,0.00457416 -0.0533,0.00114354 -0.0777,-0.01029186 -0.009,-0.00457416 -0.0232,-0.00686124 -0.0383,-0.00228708 -0.47785,0.0972009 -0.94874,0.14065542 -1.41383,0.14065542 -1.80932,0 -3.53398,-0.6518178 -5.2134,-1.28648254 -1.39063,-0.5248848 -2.82881,-1.0692099 -4.28671,-1.2270184 -2.29181,-0.2504352 -4.5755,0.2149855 -6.30944,0.6472437 -0.3433,0.085765 -0.68429,0.1772487 -1.02412,0.2675883 -1.65739,0.4436935 -3.36929,0.90225308 -5.17861,0.62094224 -1.49849,-0.23328214 -2.71746,-0.91940614 -4.00835,-1.64669764 -0.18557,-0.1052056 -0.37346,-0.2115549 -0.56251,-0.315617 -1.89283,-1.0474826 -3.59777,-1.6844344 -5.77128,-1.3813963 -0.0835,0.011435 -0.12062,0.059464 -0.10902,0.1417989 0.005,0.033163 -0.006,0.066325 -0.0278,0.092627 -0.0209,0.026301 -0.0522,0.042311 -0.087,0.044598 -0.59499,0.044598 -1.20041,0.114354 -1.78612,0.1806794 -1.51125,0.1726745 -3.0747,0.3533538 -4.63234,0.116641 -0.065,-0.00915 -0.11018,-0.066325 -0.10438,-0.1303635 0.17745,-2.1521423 0.33983,-4.3328731 0.49756,-6.4415608 0.0881,-1.182421 0.1763,-2.362554 0.26676,-3.536969 10e-4,-0.0091 10e-4,-0.0263 -0.006,-0.03431 -0.0209,-0.0263 -0.0301,-0.05832 -0.0267,-0.09034 0.0997,-0.888531 0.19369,-1.758765 0.27951,-2.607272 0.005,-0.03888 0.0278,-0.07319 0.0615,-0.09263 0.0336,-0.02058 0.0754,-0.02287 0.11251,-0.0069 8.72999,3.699352 17.95406,5.760011 25.97539,5.802322 1.15287,0.0057 2.32893,-0.008 3.49223,-0.04574 4.84226,-0.153235 9.60333,-0.652961 14.14984,-1.487746 0.036,-0.0057 0.0719,0.0023 0.10091,0.02402 0.0278,0.02287 0.0452,0.05603 0.0464,0.09148 l 0.1125,2.8359793 c 0.002,0.041167 -0.0186,0.081191 -0.0534,0.1052056 -0.0116,0.008 -0.0267,0.024014 -0.0267,0.064038 0.036,2.6472951 0.12526,5.2579969 0.19833,7.2363211 0.001,0.044598 -0.022,0.086909 -0.0603,0.1097798"
         style="fill:#fbd241;fill-opacity:1;fill-rule:nonzero;stroke:none;stroke-width:0.0115165" /><path
         id="path3"
         d="m -292.32017,-23.327421 c -1.71712,1.610104 -3.92078,2.458611 -6.05161,3.278529 -0.791,0.304181 -1.60856,0.618655 -2.38401,0.966291 -2.08131,0.934272 -3.36268,2.109831 -4.42345,4.058424 -1.4376,2.641577 -3.0704,4.695375 -6.38054,6.159106 0.002,0.05489 -0.0325,0.1040621 -0.0847,0.1223588 -0.3062,0.1029186 -0.62515,0.201263 -0.94758,0.2893156 -0.0104,0.00343 -0.022,0.00457 -0.0336,0.00457 -0.0255,0 -0.0522,-0.008 -0.0731,-0.022871 -0.0313,-0.022871 -0.0499,-0.057177 -0.051,-0.094914 l -0.0116,-0.3030381 c -0.12642,-3.2796733 -0.25748,-6.6702693 -0.55672,-9.9899663 -0.003,-0.04231 -0.0244,-0.07204 -0.0615,-0.08805 -0.0359,-0.01487 -0.08,-0.01144 -0.10554,0.0069 -0.036,0.02745 -0.0847,0.03431 -0.12642,0.01487 -0.0418,-0.0183 -0.0708,-0.05718 -0.0742,-0.102919 l -0.1415,-1.92229 c -0.003,-0.04688 0.0197,-0.09034 0.0591,-0.114354 10.36279,-6.180834 17.73497,-14.463494 19.7214,-22.156088 0.0152,-0.05832 0.0637,-0.100631 0.13013,-0.09263 0.0604,0.0046 0.10844,0.05146 0.11413,0.110924 0.0165,0.172674 0.0373,0.36822 0.0687,0.512306 0.29042,1.345946 0.86059,2.65873 1.41185,3.929203 l 0.20459,0.472282 c 0.3991,0.926268 0.81211,1.883412 1.19567,2.889727 0.008,0.02058 0.0113,0.0526 0.007,0.07433 1.23034,4.249395 2.13547,8.677181 -1.40582,11.998022"
         style="fill:#fbd241;fill-opacity:1;fill-rule:nonzero;stroke:none;stroke-width:0.0115165" /><path
         id="path4"
         d="m -265.43675,-59.034458 c -0.10566,0 -0.21282,-0.0011 -0.31814,-0.0011 -3.67652,-0.02973 -7.44571,-0.502014 -11.20389,-1.403124 -2.12444,2.291654 -3.2018,5.328553 -4.04859,8.271225 -0.63118,2.19331 -1.19392,4.482677 -1.73811,6.69657 -1.56205,6.354652 -3.17757,12.925433 -6.64834,18.31608 -0.0234,0.03659 -0.0634,0.05718 -0.10496,0.05718 -0.0158,0 -0.0315,-0.0034 -0.0471,-0.0091 -0.0556,-0.02287 -0.0871,-0.08119 -0.0746,-0.138368 0.51102,-2.37742 -0.25504,-4.845179 -0.99582,-7.231747 -0.0893,-0.288172 -0.1778,-0.572914 -0.26317,-0.854225 l -0.0361,-0.0034 c -0.0103,0.05375 -0.0559,0.09491 -0.11134,0.09949 -0.0553,0.0046 -0.10752,-0.02745 -0.12723,-0.0789 -0.38216,-1.001741 -0.79402,-1.956597 -1.19218,-2.879433 l -0.20425,-0.471139 c -0.5559,-1.281908 -1.13071,-2.606128 -1.4267,-3.974945 -0.0336,-0.156665 -0.0559,-0.361359 -0.0728,-0.540894 -10e-4,-0.01372 -3.5e-4,-0.02745 0.003,-0.04117 0.135,-0.523741 0.2482,-1.050913 0.33658,-1.568937 0.27824,-1.627257 -0.22245,-3.11729 -1.37335,-4.087012 -0.0334,-0.02745 -0.0492,-0.0709 -0.0419,-0.11321 0.4753,-2.695324 0.59453,-5.697459 0.3541,-8.923043 -0.32313,-4.329442 -0.82661,-8.169449 -1.53955,-11.739581 -0.01,-0.05146 0.0133,-0.102919 0.0586,-0.12922 0.0452,-0.0263 0.10264,-0.02173 0.14289,0.01144 4.42832,3.639888 9.5523,6.541049 14.81767,8.39244 0.0588,0.02287 0.0913,-0.04574 0.0971,-0.06061 0.008,-0.01715 0.0278,-0.0789 -0.0237,-0.101775 -0.31477,-0.141799 -0.62618,-0.285885 -0.93632,-0.429971 -7.22895,-3.376873 -13.471,-7.697167 -19.64369,-13.597834 -0.0289,-0.02745 -0.0531,-0.03087 -0.0786,-0.01029 -0.0264,0.02173 -0.0595,0.03088 -0.0929,0.0263 -0.0331,-0.0034 -0.0634,-0.02058 -0.0841,-0.04689 -1.25643,-1.608961 -2.3469,-3.311692 -3.24159,-5.062452 -6.27359,-12.272471 -4.77742,-28.256867 3.81072,-40.722597 0.73022,-1.06006 1.508,-2.06409 2.31141,-2.98579 11.56796,-13.2662 31.25247,-11.75216 44.64565,-4.73196 11.69496,6.12937 19.05438,15.65506 22.49871,29.121382 2.78218,10.876209 -0.15113,22.873087 -7.47263,30.565681 -6.19983,6.513604 -15.87438,10.381056 -25.93515,10.381056"
         style="fill:#a9db5a;fill-opacity:1;fill-rule:nonzero;stroke:none;stroke-width:0.0115165" /><path
         id="path8"
         d="m -303.11337,-48.534474 c -2.92924,1.685578 -5.19496,4.372897 -7.38517,6.97102 -0.44189,0.524885 -0.88262,1.047483 -1.328,1.560932 -0.27371,0.316761 -0.55439,0.630091 -0.83971,0.938847 -0.0232,0.02516 -0.0557,0.04002 -0.0893,0.04002 -0.009,0 -0.0197,0.0069 -0.0302,0.01944 -0.3665,0.424253 -0.75504,0.847363 -1.15518,1.257894 -1.01833,1.045195 -2.16771,2.062946 -3.41336,3.024663 -7.46462,5.763442 -17.17698,8.736646 -24.01066,10.216386 -4.13129,0.894249 -8.23126,1.336799 -12.25585,1.336799 -11.87774,0 -23.08511,-3.851443 -32.40197,-11.283309 -0.0522,-0.04117 -0.0997,0.008 -0.10091,0.01029 -0.0441,0.0446 -0.11714,0.04917 -0.16817,0.01029 -2.05057,-1.616965 -4.10809,-3.431763 -6.11807,-5.392934 -0.0301,-0.02859 -0.0429,-0.0709 -0.0336,-0.112067 0.008,-0.04117 0.0383,-0.07433 0.0777,-0.0892 0.0162,-0.0069 0.0301,-0.02058 0.0336,-0.03545 0.001,-0.0046 0.003,-0.01715 -0.0162,-0.03774 l -0.28415,-0.301895 c -1.8302,-1.934869 -3.72188,-3.936064 -5.64138,-5.825192 -0.0371,-0.03659 -0.0603,-0.0263 -0.0696,-0.02287 -0.0487,0.02058 -0.10555,0.008 -0.14034,-0.03088 -1.27233,-1.398549 -2.66527,-2.876003 -4.23451,-4.199079 -0.0267,-0.02287 -0.0429,-0.05603 -0.0441,-0.09148 0,-0.03545 0.0139,-0.06861 0.0406,-0.09148 2.21758,-2.01263 4.29714,-4.497085 6.54604,-7.82067 0.0301,-0.0446 0.087,-0.06404 0.13918,-0.04917 0.0533,0.01601 0.0881,0.06404 0.0881,0.117784 0,0.01944 0.0302,0.04231 0.0638,0.05032 0.0186,0.0057 0.0545,0.0091 0.0696,-0.02058 0.79448,-1.55407 1.63999,-3.102424 2.5145,-4.601605 0.34447,-0.562621 0.68777,-1.126386 1.03224,-1.690152 0.31663,-0.52031 0.63326,-1.039478 0.95222,-1.559788 2.46462,-3.859448 5.26907,-7.59768 8.33332,-11.111778 0.0487,-0.05603 0.0104,-0.110924 -0.002,-0.126933 -0.0394,-0.04803 -0.0371,-0.116641 0.006,-0.16124 8.62329,-9.029391 20.01043,-13.801384 32.05055,-13.425159 0.065,0.0023 0.11714,0.05375 0.12062,0.117785 0.002,0.05718 0.0394,0.157808 0.1589,0.170387 8.81349,0.918263 16.44629,3.576993 22.68846,7.901861 6.90094,4.784572 11.34423,11.295888 14.78078,17.034172 0.0139,0.02287 0.0232,0.02287 0.0267,0.02287 0.002,-0.0069 0.0313,-0.0091 0.0417,-0.02745 0.0232,-0.03659 0.0638,-0.05946 0.1067,-0.05946 0.0313,0.0034 0.0858,0.02401 0.10787,0.06175 1.35583,2.311094 2.65831,4.769705 3.98248,7.513058 l 0.328,0.682693 c 1.3193,2.745411 2.68348,5.583906 4.64625,7.960182 0.27128,0.32934 0.55904,0.651818 0.85467,0.958287 0.0261,0.0263 0.0382,0.06404 0.0331,0.101775 -0.005,0.03659 -0.0276,0.06976 -0.0608,0.08805"
         style="fill:#c4824f;fill-opacity:1;fill-rule:nonzero;stroke:none;stroke-width:0.0115165" /><path
         id="path9"
         d="m -348.891,-73.127445 c -0.56135,0.09148 -1.12967,0.136081 -1.69798,0.136081 -3.89469,0 -7.81141,-2.068663 -9.45372,-5.153934 -0.38042,0.160095 -0.78404,0.24243 -1.20157,0.24243 -1.68407,0 -3.05382,-1.350521 -3.05382,-3.012084 0,-1.659277 1.36975,-3.009798 3.05382,-3.009798 0.31431,0 0.62514,0.04689 0.92322,0.140656 1.78844,-3.721079 7.66063,-4.638198 12.08187,-3.149309 2.80213,0.944564 5.9383,3.26595 6.62839,6.324919 0.28996,1.284196 0.0197,2.579827 -0.7794,3.747381 -1.25145,1.827377 -3.80422,3.293395 -6.50081,3.733658"
         style="fill:#df9256;fill-opacity:1;fill-rule:nonzero;stroke:none;stroke-width:0.0115165" /><path
         id="path10"
         d="m -319.33639,-58.424951 c -0.27372,0.05832 -0.54976,0.08577 -0.82579,0.08577 -3.68128,0 -7.58873,-4.834887 -8.88193,-7.551938 -0.78172,-1.642123 -1.62955,-4.072146 -1.23405,-6.329494 0.30619,-1.750759 1.865,-3.494658 3.8251,-3.260232 1.92646,0.229851 3.56877,2.142994 4.76803,3.5404 l 0.29227,0.339631 c 1.01021,1.16298 3.40177,4.559294 4.34818,7.626268 0.54512,1.769057 0.53004,3.153884 -0.0452,4.116744 -0.43494,0.727292 -1.18998,1.209866 -2.24658,1.432856"
         style="fill:#df9256;fill-opacity:1;fill-rule:nonzero;stroke:none;stroke-width:0.0115165" /><path
         id="path11"
         d="m -379.09395,-56.288818 c -0.77592,0.385144 -1.54372,0.574857 -2.28369,0.574857 -1.43238,0 -2.7569,-0.714255 -3.81698,-2.10034 -0.40826,1.03296 -1.43354,1.735551 -2.57365,1.735551 -1.52284,0 -2.76153,-1.220958 -2.76153,-2.722426 0,-1.500324 1.23869,-2.721625 2.76153,-2.721625 0.35375,0 0.69474,0.06404 1.01833,0.190971 -0.029,-0.141799 -0.0534,-0.284741 -0.0742,-0.42654 -0.40246,-2.707903 0.60311,-5.697116 2.44491,-7.269484 1.33495,-1.141253 2.9993,-1.463731 4.81558,-0.931985 3.31362,0.969722 4.66133,5.119629 4.00951,8.407306 -0.48945,2.472334 -1.78033,4.390851 -3.53978,5.263715"
         style="fill:#df9256;fill-opacity:1;fill-rule:nonzero;stroke:none;stroke-width:0.0115165" /><path
         id="path12"
         d="m -336.59803,-44.620136 c -1.14243,0.741014 -2.37184,1.112664 -3.64069,1.112664 -0.90582,0 -1.83252,-0.189827 -2.76154,-0.57177 -3.78218,-1.552927 -6.74669,-5.910958 -7.42982,-9.227224 -0.61819,-3.002364 0.39782,-5.784025 2.65251,-7.259192 2.29065,-1.500324 5.33403,-1.340229 7.94363,0.416249 1.06356,0.714712 2.08884,1.623826 2.96567,2.630142 1.76757,2.026696 2.86128,4.337447 3.08049,6.506742 v 0 c 0.26212,2.607271 -0.84088,5.117342 -2.81025,6.392389"
         style="fill:#df9256;fill-opacity:1;fill-rule:nonzero;stroke:none;stroke-width:0.0115165" /><path
         id="path13"
         d="m -362.5224,-46.959819 c 0.65066,0.561478 1.35004,1.006315 2.09116,1.478597 0.75273,0.480287 1.53097,0.976583 2.25586,1.60553 0.89654,0.778751 1.39295,1.76677 1.39642,2.78109 0.003,0.951425 -0.44073,1.869688 -1.25144,2.583256 -1.32104,1.162981 -3.25563,1.422564 -4.71816,1.422564 -0.39086,0 -0.74693,-0.0183 -1.04964,-0.04345 -3.33218,-0.272163 -6.40455,-2.428879 -8.02018,-5.627361 -1.55648,-3.08184 -1.45442,-6.527326 0.2714,-9.216932 0.69241,-1.078358 2.05636,-1.875406 3.31709,-1.936013 0.93482,-0.04574 1.7293,0.301894 2.28949,1.008602 0.55092,0.694129 0.85131,1.546066 1.14243,2.369415 0.25168,0.711282 0.51148,1.448865 0.93134,2.074382 0.3665,0.545468 0.80607,1.036047 1.34423,1.500324"
         style="fill:#df9256;fill-opacity:1;fill-rule:nonzero;stroke:none;stroke-width:0.0115165" /><path
         id="path14"
         d="m -354.21807,-25.521875 c -0.30503,-0.02173 -3.00046,-0.251578 -3.643,-1.413415 -0.19253,-0.346493 -0.17397,-0.733009 0.0545,-1.146971 1.41383,-2.561529 6.26537,-3.021232 7.71862,-3.10128 0.83856,-0.04688 1.66899,-0.04117 2.402,0.01487 0.37926,0.02859 3.72883,0.322478 4.53027,1.709592 0.23196,0.401383 0.22732,0.848507 -0.0139,1.329937 -0.71213,1.423707 -2.80561,1.812511 -4.33542,2.096109 -0.17397,0.03202 -0.33983,0.0629 -0.49524,0.09377 -1.58896,0.315617 -3.15472,0.473426 -4.67409,0.473426 -0.52076,0 -1.03572,-0.0183 -1.54373,-0.05603"
         style="fill:#df9256;fill-opacity:1;fill-rule:nonzero;stroke:none;stroke-width:0.0115165" /><path
         id="path15"
         d="m -293.80567,-43.160979 c -2.0022,7.753201 -9.41637,16.091895 -19.83367,22.304748 -1.14822,0.686124 -2.31153,1.328793 -3.45859,1.913142 -6.24797,3.181328 -13.26954,5.502714 -20.8687,6.897833 -4.55926,0.835928 -9.33309,1.337942 -14.18811,1.491176 -0.99977,0.03202 -2.00649,0.04803 -3.00278,0.04803 -0.16702,0 -0.33287,0 -0.49989,-0.0011 -8.05265,-0.04345 -17.31151,-2.110975 -26.07166,-5.82405 -2.87868,-1.219013 -5.6495,-2.593548 -8.2359,-4.083581 -5.77824,-3.328845 -10.77592,-7.447876 -14.85385,-12.241596 -0.72257,-0.850793 -1.57272,-1.86397 -2.38924,-2.919457 -1.6655,-2.15443 -3.96543,-5.445538 -4.70076,-9.12888 -0.37578,-1.884554 -0.15542,-3.75996 0.62166,-5.280868 0.73533,-1.439717 1.89399,-2.393429 3.25911,-2.683888 1.53212,-0.325909 3.22198,0.200119 4.88169,1.520908 0.19949,0.157808 0.3955,0.319048 0.58919,0.483717 1.57968,1.333368 2.98075,2.816539 4.25771,4.22195 0.0267,0.02859 0.0383,0.06976 0.029,0.108636 -0.009,0.03888 -0.036,0.0709 -0.0731,0.08577 -0.0232,0.01029 -0.0441,0.03431 -0.051,0.06175 -0.008,0.02859 -10e-4,0.05603 0.0197,0.08234 1.62028,2.037788 3.68012,4.135041 5.95801,6.06648 0.0174,0.01487 0.0336,0.01944 0.051,0.01258 0.0441,-0.01715 0.0963,-0.0069 0.13106,0.02744 2.00301,1.95431 4.05474,3.763391 6.09835,5.374638 0.0278,0.02173 0.0452,0.05375 0.0464,0.08805 0.002,0.03545 -0.0104,0.06861 -0.0348,0.09377 -0.0127,0.01258 -0.0162,0.02516 -0.0162,0.03202 0,0.0091 0.0116,0.01944 0.0186,0.02516 11.38367,9.718947 27.16422,13.53494 43.29968,10.469109 6.26652,-1.191569 21.74668,-5.035007 30.11596,-14.981517 0.007,-0.0091 0.0301,-0.03659 0.009,-0.08005 -0.0139,-0.02973 -0.0406,-0.04002 -0.058,-0.04689 -0.0534,-0.0091 -0.0951,-0.02745 -0.11599,-0.07204 -0.0209,-0.0446 -0.0128,-0.0972 0.0209,-0.132651 0.28416,-0.307612 0.56252,-0.617512 0.83507,-0.933129 0.44422,-0.512306 0.88495,-1.034903 1.32568,-1.557501 2.20448,-2.61642 4.48399,-5.320892 7.45152,-7.027054 0.29262,-0.1681 0.58826,-0.324765 0.87833,-0.46542 1.34145,-0.651818 3.36755,-1.32765 5.40408,-0.847363 0.78392,0.18411 1.46822,0.519167 2.03398,0.996023 1.21921,1.025755 1.75029,2.598123 1.45709,4.313433 -0.0895,0.523741 -0.2039,1.057774 -0.34076,1.588377"
         style="fill:#a76a3a;fill-opacity:1;fill-rule:nonzero;stroke:none;stroke-width:0.0115165" /><path
         id="path16"
         d="m -271.99415,-106.91105 c 0.23092,-3.49351 1.72141,-6.34893 4.42948,-8.48506 3.83043,-3.02124 8.88668,-4.03098 14.23729,-2.84513 6.21317,1.37796 11.67338,5.46955 14.25005,10.67952 1.44374,2.91946 3.49234,8.658884 0.99153,14.303397 -1.95361,4.408347 -5.61528,7.292355 -10.31002,8.120278 -0.95325,0.1681 -1.92577,0.250435 -2.90628,0.250435 -5.06993,0 -10.33437,-2.189879 -14.02388,-5.97271 -3.60288,-3.693634 -7.06205,-10.08831 -6.66817,-16.05073"
         style="fill:#f0f7c7;fill-opacity:1;fill-rule:nonzero;stroke:none;stroke-width:0.0115165" /><path
         id="path32"
         d="m -284.92514,-55.713732 c -0.22883,0 -0.4492,-0.0518 -0.64648,-0.154378 -0.49038,-0.255009 -0.82058,-0.792931 -0.86221,-1.404153 -0.0488,-0.719286 0.28102,-1.445434 0.82069,-1.805649 0.4267,-0.284742 0.93957,-0.3099 1.44514,-0.0709 0.78728,0.372794 1.09151,1.780492 0.73544,2.520591 -0.18511,0.384344 -0.54199,0.68681 -0.97936,0.830439 -0.17176,0.05626 -0.34481,0.08405 -0.51322,0.08405"
         style="fill:#c1e364;fill-opacity:1;fill-rule:nonzero;stroke:none;stroke-width:0.0115165" /><path
         id="path33"
         d="m -291.17473,-51.785558 c -0.0734,0.01258 -0.14776,0.0183 -0.2228,0.0183 -0.41823,0 -0.84551,-0.195546 -1.15599,-0.539751 -0.43065,-0.476856 -0.59963,-1.161837 -0.42032,-1.702731 0.14207,-0.429171 0.48863,-0.722489 0.97541,-0.825979 0.75632,-0.162497 1.74599,0.660166 1.90408,1.36916 0.0826,0.36822 -5.8e-4,0.77189 -0.22791,1.106947 -0.21085,0.311043 -0.5138,0.514593 -0.85247,0.574057"
         style="fill:#c1e364;fill-opacity:1;fill-rule:nonzero;stroke:none;stroke-width:0.0115165" /><path
         id="path34"
         d="m -289.54715,-47.04101 c -0.57817,-0.83021 -0.6749,-2.098396 -0.25237,-3.311692 0.54384,-1.559789 1.83484,-2.831405 3.06923,-3.02352 0.56321,-0.08805 1.38483,0.0034 2.08919,0.929698 0.96022,1.263612 0.31501,4.210514 -0.85003,5.405514 -0.58304,0.596928 -1.37938,0.938846 -2.16667,0.938846 -0.0722,0 -0.14451,-0.0023 -0.21642,-0.008 -0.70042,-0.05718 -1.29436,-0.38766 -1.67293,-0.930841"
         style="fill:#c1e364;fill-opacity:1;fill-rule:nonzero;stroke:none;stroke-width:0.0115165" /><path
         id="path35"
         d="m -279.59668,-94.614561 c 1.54326,-0.8851 3.43099,-1.021182 5.31628,-0.385373 1.77616,0.600358 3.30666,1.81251 4.19856,3.326557 1.10926,1.882267 1.14208,4.121319 0.0901,6.14081 -1.10682,2.125841 -3.16539,3.527821 -5.50603,3.750811 -0.18534,0.01715 -0.36743,0.02516 -0.54685,0.02516 -3.01798,0 -5.16725,-2.423161 -5.99153,-4.949241 -0.89086,-2.730773 -0.48168,-6.235723 2.43945,-7.908722"
         style="fill:#c1e364;fill-opacity:1;fill-rule:nonzero;stroke:none;stroke-width:0.0115165" /><path
         id="path36"
         d="m -272.66697,-122.44261 c -2.17513,1.60325 -4.77093,2.43117 -7.23022,2.43117 -1.77174,0 -3.4732,-0.42997 -4.89538,-1.30821 -1.54987,-0.95714 -2.48828,-2.34426 -2.51113,-3.71079 -0.044,-2.67245 1.87659,-5.09447 5.13755,-6.4793 3.63141,-1.54263 7.63024,-1.21215 9.72523,0.80506 1.19033,1.14468 1.83252,2.85427 1.71782,4.57187 -0.1023,1.5312 -0.7924,2.8417 -1.94387,3.6902"
         style="fill:#94c848;fill-opacity:1;fill-rule:nonzero;stroke:none;stroke-width:0.0115165" /><path
         id="path37"
         d="m -295.44427,-87.780766 c -1.22523,1.071497 -2.889,1.664994 -4.59197,1.664994 -0.32649,0 -0.65495,-0.02173 -0.98144,-0.06632 -1.80886,-0.245862 -3.30631,-1.152689 -4.21677,-2.552382 -2.96601,-4.55815 -3.09661,-10.360472 -0.31721,-14.110136 1.26618,-1.7073 2.99037,-2.67245 4.61227,-2.58669 3.17756,0.17382 5.89387,2.59698 7.26652,6.48044 1.52876,4.326012 0.80039,8.919612 -1.7714,11.170099"
         style="fill:#94c848;fill-opacity:1;fill-rule:nonzero;stroke:none;stroke-width:0.0115165" /><path
         id="path38"
         d="m -284.97675,-110.32223 c -0.62097,1.10009 -1.73695,1.92687 -3.06112,2.26879 -0.41904,0.10863 -0.83612,0.16238 -1.2424,0.16238 -0.77882,0 -1.51809,-0.19669 -2.15484,-0.58206 -1.37821,-0.83479 -2.27105,-2.53294 -2.27464,-4.32945 -0.004,-2.16586 1.12166,-4.2734 2.80085,-5.24427 0.92206,-0.53289 2.40977,-0.95257 4.25841,0.072 2.2649,1.25561 2.88309,5.51072 1.67374,7.65257"
         style="fill:#94c848;fill-opacity:1;fill-rule:nonzero;stroke:none;stroke-width:0.0115165" /><path
         id="path39"
         d="m -293.95076,-121.48432 c -0.43041,0 -0.84134,-0.0835 -1.14997,-0.25272 -0.47645,-0.26187 -0.83495,-0.73073 -0.98272,-1.28763 -0.13685,-0.51574 -0.0717,-1.02575 0.18395,-1.43514 0.36117,-0.58092 1.09522,-0.95714 1.86975,-0.95829 h 0.005 c 0.92809,0 1.83159,0.47114 2.2489,1.17327 0.32834,0.55233 0.31779,1.19157 -0.0295,1.79994 -0.36059,0.63237 -1.29135,0.96057 -2.14567,0.96057"
         style="fill:#94c848;fill-opacity:1;fill-rule:nonzero;stroke:none;stroke-width:0.0115165" /><path
         id="path40"
         d="m -299.58913,-109.07462 c -0.021,0 -0.0422,-0.001 -0.0631,-0.001 -0.6444,-0.0149 -1.21526,-0.25615 -1.60798,-0.67926 -0.55695,-0.60036 -0.75261,-1.55522 -0.49861,-2.43345 0.30504,-1.05435 1.15321,-1.92687 2.11076,-2.16816 0.75029,-0.18982 1.49014,0.0332 2.08328,0.62552 0.9289,0.92741 0.62909,3.08985 -0.26444,3.96808 -0.44758,0.43912 -1.08618,0.68842 -1.75992,0.68842"
         style="fill:#94c848;fill-opacity:1;fill-rule:nonzero;stroke:none;stroke-width:0.0115165" /><path
         id="path41"
         d="m -288.64991,-96.675221 c -0.01,0 -0.0195,-0.0011 -0.0295,-0.0011 -0.30874,-0.0069 -0.58339,-0.123502 -0.77267,-0.327053 -0.27012,-0.291602 -0.3621,-0.735296 -0.23985,-1.158406 0.14358,-0.497439 0.54477,-0.90797 0.9986,-1.023468 0.36268,-0.09263 0.71828,0.01601 1.00302,0.299608 0.45036,0.449411 0.31199,1.45687 -0.11969,1.879979 -0.21388,0.210412 -0.51856,0.330483 -0.83995,0.330483"
         style="fill:#94c848;fill-opacity:1;fill-rule:nonzero;stroke:none;stroke-width:0.0115165" /><path
         id="path42"
         d="m -302.08321,-80.887507 c -0.11239,-0.805052 0.27673,-1.700444 0.99118,-2.281363 h 2.4e-4 c 0.85861,-0.697559 2.05891,-0.938846 2.98619,-0.602645 0.72617,0.264158 1.20726,0.861085 1.35444,1.682147 0.23034,1.283052 -1.26223,2.895443 -2.50324,3.11729 -0.13292,0.02401 -0.26827,0.03545 -0.40397,0.03545 -0.51809,0 -1.04488,-0.170388 -1.49188,-0.490579 -0.52203,-0.372794 -0.85351,-0.890817 -0.93296,-1.4603"
         style="fill:#94c848;fill-opacity:1;fill-rule:nonzero;stroke:none;stroke-width:0.0115165" /><path
         id="path46"
         d="m -299.59342,-36.489567 c -0.0737,0.03545 -0.15565,0.05603 -0.23857,0.05603 -0.16447,0 -0.3316,-0.08005 -0.44062,-0.281311 -1.27766,-2.356836 -2.90408,-4.344309 -4.62584,-6.447279 l -0.15449,-0.188684 c -0.2134,-0.260727 -0.1415,-0.547755 0.0158,-0.70442 0.15843,-0.157809 0.45163,-0.232139 0.7199,-0.02173 1.98364,1.550641 3.66921,3.848012 5.00974,6.826934 0.14996,0.331627 -0.0355,0.639239 -0.2859,0.760454"
         style="fill:#6b4224;fill-opacity:1;fill-rule:nonzero;stroke:none;stroke-width:0.0115165" /><path
         id="path47"
         d="m -304.44902,-31.28989 c -0.0929,0.08462 -0.22071,0.142942 -0.35722,0.142942 -0.12074,0 -0.24855,-0.0446 -0.36419,-0.157808 l -0.1074,-0.104063 c -1.65379,-1.607817 -3.52783,-3.429476 -4.59208,-5.503858 -0.11831,-0.229851 -0.0545,-0.497439 0.15541,-0.650674 0.16818,-0.123502 0.43378,-0.155521 0.64718,0.04574 1.08896,1.028042 2.05289,2.245912 2.98492,3.423759 0.54176,0.68498 1.10195,1.392831 1.67525,2.04808 0.22791,0.260727 0.15148,0.577487 -0.0419,0.75588"
         style="fill:#6b4224;fill-opacity:1;fill-rule:nonzero;stroke:none;stroke-width:0.0115165" /><path
         id="path48"
         d="m -318.28559,-30.298441 c 1.46254,1.190425 2.47738,3.090988 3.27766,4.791432 0.13802,0.29389 -0.0186,0.57177 -0.23544,0.684981 -0.0696,0.03545 -0.15078,0.05603 -0.23313,0.05603 -0.14962,0 -0.30619,-0.06976 -0.41174,-0.247004 -0.48596,-0.813057 -1.00904,-1.604387 -1.553,-2.352262 -0.22152,-0.303038 -0.46625,-0.603789 -0.70285,-0.893105 -0.35143,-0.431114 -0.71561,-0.877095 -1.01833,-1.353951 -0.14729,-0.232139 -0.11366,-0.49401 0.087,-0.667828 0.19137,-0.164669 0.53236,-0.226421 0.78984,-0.0183"
         style="fill:#6b4224;fill-opacity:1;fill-rule:nonzero;stroke:none;stroke-width:0.0115165" /><path
         id="path49"
         d="m -331.22573,-24.082158 c 0.67269,2.346544 0.90698,4.348883 0.73416,6.299762 -0.0255,0.288172 -0.25516,0.437976 -0.47204,0.437976 h -0.005 c -0.20645,-0.0023 -0.4361,-0.141799 -0.45581,-0.440263 -0.11599,-1.810224 -0.30968,-3.939495 -0.86291,-6.009303 -0.0905,-0.3362 0.12874,-0.583205 0.3897,-0.652961 0.26212,-0.0709 0.57643,0.03202 0.67154,0.364789"
         style="fill:#6b4224;fill-opacity:1;fill-rule:nonzero;stroke:none;stroke-width:0.0115165" /><path
         id="path50"
         d="m -338.95596,-19.445103 c 0.0278,0.124646 0.0557,0.249292 0.0847,0.375081 0.15658,0.694129 0.32011,1.411128 0.28416,2.130415 -0.0116,0.226421 -0.15774,0.395665 -0.3723,0.429971 -0.0255,0.0046 -0.051,0.0069 -0.0777,0.0069 -0.19369,0 -0.37231,-0.120071 -0.44885,-0.309899 -0.2656,-0.660966 -0.34331,-1.384827 -0.41986,-2.08353 -0.0151,-0.137225 -0.0302,-0.273306 -0.0464,-0.408244 -0.029,-0.248148 0.13918,-0.451698 0.41057,-0.496296 0.24357,-0.04117 0.52308,0.06861 0.58571,0.355641"
         style="fill:#6b4224;fill-opacity:1;fill-rule:nonzero;stroke:none;stroke-width:0.0115165" /><path
         id="path51"
         d="m -353.84112,-12.88004 c -0.0209,0 -0.0418,-0.0011 -0.0626,-0.0034 -0.25632,-0.03087 -0.43958,-0.225277 -0.44654,-0.474569 -0.0592,-2.487199 0.41406,-5.126489 0.8316,-7.45588 0.0499,-0.275594 0.29807,-0.443694 0.60427,-0.405957 0.26791,0.03088 0.52771,0.229851 0.508,0.550043 -0.14034,2.23562 -0.31431,5.017853 -0.96961,7.437584 -0.0673,0.248148 -0.27256,0.35221 -0.46509,0.35221"
         style="fill:#6b4224;fill-opacity:1;fill-rule:nonzero;stroke:none;stroke-width:0.0115165" /><path
         id="path52"
         d="m -359.17863,-14.809192 c -0.0116,0.249292 -0.0244,0.505445 -0.12062,0.73644 -0.0812,0.195545 -0.27372,0.336201 -0.48133,0.34878 -0.0104,0.0011 -0.0209,0.0011 -0.0313,0.0011 -0.17166,0 -0.31895,-0.08805 -0.40942,-0.245861 -0.3839,-0.670114 -0.15078,-1.64098 0.002,-2.283649 0.0522,-0.214986 0.19137,-0.365933 0.39434,-0.425397 0.22501,-0.06404 0.49292,0.0023 0.66458,0.166957 0.15889,0.150947 0.21689,0.363645 0.15889,0.583205 -0.0905,0.344206 -0.14265,0.633521 -0.16469,0.910258 -0.006,0.06747 -0.009,0.137225 -0.0128,0.208124"
         style="fill:#6b4224;fill-opacity:1;fill-rule:nonzero;stroke:none;stroke-width:0.0115165" /><path
         id="path53"
         d="m -375.94387,-17.052817 c -0.10206,0.08577 -0.21921,0.12922 -0.33519,0.12922 -0.0963,0 -0.19137,-0.02973 -0.27488,-0.09148 -0.19137,-0.139511 -0.25284,-0.385373 -0.15193,-0.61065 0.2366,-0.528315 0.55207,-1.024612 0.85711,-1.506042 0.23544,-0.372794 0.48016,-0.758167 0.68313,-1.151545 0.48713,-0.941133 0.88031,-1.956597 1.20274,-3.102424 0.0881,-0.315617 0.3839,-0.416248 0.62978,-0.355641 0.254,0.06518 0.46973,0.300751 0.3897,0.628947 -0.72025,2.972061 -1.70146,4.953815 -3.00046,6.059619"
         style="fill:#6b4224;fill-opacity:1;fill-rule:nonzero;stroke:none;stroke-width:0.0115165" /><path
         id="path54"
         d="m -379.49641,-20.725868 c -0.27256,0.418536 -0.62166,0.851937 -1.14126,0.895392 -0.0116,0 -0.0244,0.0011 -0.036,0.0011 -0.1299,0 -0.25284,-0.05832 -0.34215,-0.163526 -0.10902,-0.128076 -0.15193,-0.301894 -0.11018,-0.455129 0.0684,-0.257296 0.2482,-0.448267 0.42218,-0.633521 0.0905,-0.09606 0.17629,-0.18754 0.24356,-0.284741 0.21225,-0.303038 0.35838,-0.628947 0.44885,-0.99488 0.0812,-0.327053 0.3665,-0.425397 0.59615,-0.376225 0.26328,0.05375 0.50916,0.298464 0.44769,0.643813 -0.0893,0.502014 -0.27256,0.97544 -0.52888,1.367674 v 0"
         style="fill:#6b4224;fill-opacity:1;fill-rule:nonzero;stroke:none;stroke-width:0.0115165" /><path
         id="path55"
         d="m -390.77221,-29.014246 c 0.55904,-0.714712 1.12851,-1.42142 1.69914,-2.126984 l 0.68778,-0.854225 c 0.18325,-0.228708 0.48017,-0.200119 0.67733,-0.0526 0.20181,0.14866 0.31432,0.427684 0.13918,0.670114 l -0.6147,0.851937 c -0.60079,0.834785 -1.2213,1.698157 -1.84992,2.536372 -0.17745,0.237856 -0.35259,0.483717 -0.52888,0.731866 -0.56599,0.798191 -1.1517,1.622683 -1.90095,2.245912 -0.10206,0.08577 -0.22037,0.128077 -0.33635,0.128077 -0.0997,0 -0.19717,-0.03088 -0.28299,-0.09491 -0.18906,-0.140656 -0.24821,-0.386517 -0.14614,-0.611794 0.43493,-0.960574 1.14822,-1.826233 1.83948,-2.663305 0.21108,-0.256153 0.41985,-0.508875 0.61702,-0.760454"
         style="fill:#6b4224;fill-opacity:1;fill-rule:nonzero;stroke:none;stroke-width:0.0115165" /><path
         id="path56"
         d="m -396.30572,-28.512232 c -0.13454,0 -0.26444,-0.04688 -0.36651,-0.122359 -0.21108,-0.154377 -0.35954,-0.466564 -0.18557,-0.786755 0.17745,-0.327052 0.42682,-0.631234 0.6669,-0.925124 0.10322,-0.126933 0.20529,-0.251579 0.29923,-0.376225 0.22037,-0.289315 0.5602,-0.375081 0.84551,-0.209267 0.1473,0.08576 0.26212,0.249291 0.3004,0.427684 0.0325,0.156665 0.002,0.307612 -0.0847,0.424253 -0.0997,0.134938 -0.19833,0.276737 -0.29691,0.419679 -0.23313,0.336201 -0.47437,0.684981 -0.76201,0.969722 -0.12874,0.126933 -0.27603,0.178392 -0.41637,0.178392"
         style="fill:#6b4224;fill-opacity:1;fill-rule:nonzero;stroke:none;stroke-width:0.0115165" /><path
         id="path57"
         d="m -397.5015,-41.147205 c 0.22385,0.152091 0.3665,0.459703 0.14962,0.777607 l -0.68546,1.007459 c -0.81999,1.206434 -1.66898,2.454037 -2.51681,3.67305 -0.0661,0.09491 -0.13338,0.195546 -0.20181,0.299608 -0.43494,0.657535 -0.96382,1.458013 -1.80585,1.458013 -0.10438,0 -0.21341,-0.01258 -0.32707,-0.03888 -0.17281,-0.03888 -0.30619,-0.166957 -0.35606,-0.339632 -0.0545,-0.182966 -0.007,-0.377368 0.1241,-0.507731 1.36511,-1.367674 2.50521,-3.016659 3.60705,-4.610754 0.36534,-0.529459 0.72953,-1.056631 1.10183,-1.573511 0.24008,-0.333913 0.64834,-0.324765 0.91046,-0.145229"
         style="fill:#6b4224;fill-opacity:1;fill-rule:nonzero;stroke:none;stroke-width:0.0115165" /><path
         id="path58"
         d="m -402.75434,-47.055876 c -1.01832,0.919406 -2.00649,1.829664 -2.89608,2.848558 -0.61238,0.70099 -1.15286,1.470592 -1.67478,2.21618 -0.29808,0.425397 -0.60659,0.86566 -0.9267,1.289913 -0.1125,0.149804 -0.2888,0.214986 -0.45929,0.214986 -0.1067,0 -0.20993,-0.02401 -0.29459,-0.0709 -0.21225,-0.116641 -0.28648,-0.33277 -0.19254,-0.566052 0.98006,-2.459754 3.14081,-4.993839 5.77824,-6.778905 0.22849,-0.154378 0.51496,-0.101775 0.69938,0.126933 0.16005,0.197832 0.19949,0.508875 -0.0336,0.719287"
         style="fill:#6b4224;fill-opacity:1;fill-rule:nonzero;stroke:none;stroke-width:0.0115165" /><path
         id="path59"
         d="m -404.35837,-40.311277 c -0.08,0.09377 -0.18674,0.142942 -0.29576,0.142942 -0.0754,0 -0.1531,-0.02287 -0.22384,-0.06976 -0.16818,-0.10978 -0.28416,-0.34878 -0.16702,-0.574057 0.14034,-0.269875 0.32011,-0.523741 0.49293,-0.768459 0.065,-0.09148 0.12874,-0.181823 0.19021,-0.273306 0.16353,-0.240143 0.45117,-0.239 0.63906,-0.116641 0.20645,0.134938 0.25632,0.370507 0.12178,0.57177 -0.0615,0.09148 -0.12178,0.18411 -0.18209,0.27788 -0.17629,0.273306 -0.35955,0.555761 -0.57527,0.809627"
         style="fill:#6b4224;fill-opacity:1;fill-rule:nonzero;stroke:none;stroke-width:0.0115165" /><path
         id="path60"
         d="m -297.19421,-42.306755 c -0.0811,0.05718 -0.18267,0.0892 -0.28647,0.0892 -0.13512,0 -0.27349,-0.05489 -0.37219,-0.182966 -0.20054,-0.260727 -0.43331,-0.528316 -0.73197,-0.842789 -0.098,-0.102919 -0.20215,-0.202407 -0.30654,-0.301895 -0.1597,-0.15209 -0.32475,-0.308755 -0.46775,-0.480286 -0.17688,-0.211555 -0.11981,-0.492866 0.0238,-0.650675 0.14649,-0.160095 0.36511,-0.18411 0.55567,-0.06061 0.69045,0.451698 1.23069,1.204147 1.68279,1.875405 0.13118,0.194402 0.091,0.42311 -0.0973,0.554617"
         style="fill:#6b4224;fill-opacity:1;fill-rule:nonzero;stroke:none;stroke-width:0.0115165" /><path
         id="path61"
         d="m -333.19163,-81.524459 c 0.0464,-0.250435 0.25632,-0.394521 0.51032,-0.353354 0.25516,0.04346 0.48828,0.27445 0.43725,0.586636 -0.71097,4.380902 -3.52122,8.547962 -7.91231,11.733864 -3.96428,2.876003 -8.926,4.761701 -13.61168,5.174519 -0.60543,0.05375 -1.20738,0.08005 -1.80701,0.08005 -9.48851,-0.0011 -17.93782,-6.58679 -20.0719,-15.93523 -0.0754,-0.331626 0.15542,-0.574057 0.41174,-0.634664 0.23661,-0.05489 0.53236,0.03431 0.61703,0.364789 2.46346,9.646903 11.22244,16.000412 20.82694,15.099302 8.81929,-0.823349 18.93527,-7.077369 20.59962,-16.115909"
         style="fill:#6b4224;fill-opacity:1;fill-rule:nonzero;stroke:none;stroke-width:0.0115165" /><path
         id="path62"
         d="m -312.50387,-46.783714 h -10e-4 c -13.21966,-0.03659 -23.95267,-10.610908 -23.92251,-23.574077 0.001,-0.365933 0.28879,-0.561478 0.57295,-0.564909 h 0.0104 c 0.2888,0 0.58571,0.190971 0.59731,0.561478 0.42333,12.658988 9.98955,22.186964 22.74645,22.656958 0.30155,0.01144 0.45465,0.248149 0.45117,0.476857 -0.005,0.220703 -0.16238,0.443693 -0.45465,0.443693"
         style="fill:#6b4224;fill-opacity:1;fill-rule:nonzero;stroke:none;stroke-width:0.0115165" /><path
         id="path63"
         d="m -326.3394,-46.593886 c 0.12062,-0.173818 0.30735,-0.263014 0.51728,-0.247005 0.21573,0.01715 0.4187,0.149804 0.50452,0.330483 0.0766,0.160096 0.0568,0.336201 -0.0557,0.494009 -3.50614,4.921797 -9.0501,7.631986 -14.63928,7.631986 -2.71399,0 -5.43841,-0.639238 -7.94479,-1.974893 -3.56994,-1.902851 -6.36975,-4.988122 -7.88332,-8.68633 -1.74205,-4.257399 -3.16168,-10.490836 -1.43122,-14.046102 0.0986,-0.204693 0.31663,-0.285885 0.53816,-0.205837 0.20413,0.07547 0.37578,0.285885 0.30619,0.544325 -1.20274,4.452945 0.45697,10.179793 1.22709,12.434854 1.26537,3.7085 3.88889,6.848661 7.38808,8.840708 7.2083,4.105308 16.64114,1.858252 21.47296,-5.116198"
         style="fill:#6b4224;fill-opacity:1;fill-rule:nonzero;stroke:none;stroke-width:0.0115165" /><path
         id="path64"
         d="m -372.02251,-68.113022 c -0.11946,-0.27788 0.0383,-0.547756 0.26096,-0.649531 0.18673,-0.08348 0.43262,-0.05375 0.56252,0.20355 3.05613,6.083633 -0.25865,14.646461 -5.26328,18.237176 -2.47506,1.775918 -5.37462,2.634717 -8.2417,2.634717 -4.09766,0 -8.12688,-1.753047 -10.75156,-5.08761 -0.21341,-0.271019 -0.12178,-0.596928 0.0742,-0.765028 0.17281,-0.14866 0.45117,-0.193258 0.68429,0.04117 4.90373,4.940093 11.50777,5.991006 16.82323,2.67474 5.48829,-3.423758 8.27766,-11.664108 5.85131,-17.289181"
         style="fill:#6b4224;fill-opacity:1;fill-rule:nonzero;stroke:none;stroke-width:0.0115165" /><path
         id="path65"
         d="m -352.8054,-37.486734 c 0.20065,-0.267588 0.55207,-0.271019 0.77244,-0.117784 0.22617,0.154378 0.2772,0.424253 0.12294,0.656392 -2.70703,4.087012 -6.86035,5.545025 -10.80143,5.545025 -1.55184,0 -3.07005,-0.225277 -4.45488,-0.606076 -5.3897,-1.480884 -10.93597,-5.99558 -11.17605,-12.740179 -0.008,-0.253866 0.17049,-0.457416 0.43725,-0.496297 0.22153,-0.02859 0.4964,0.06747 0.57295,0.359072 1.52865,5.832054 5.14382,10.003688 10.18093,11.744156 5.26327,1.818228 11.02759,0.07319 14.34585,-4.344309"
         style="fill:#6b4224;fill-opacity:1;fill-rule:nonzero;stroke:none;stroke-width:0.0115165" /><path
         id="path66"
         d="m -386.28601,-34.199056 c -0.0812,-0.06976 -0.10091,-0.147517 -0.10323,-0.20012 -0.003,-0.07776 0.0267,-0.153234 0.0858,-0.212698 0.10091,-0.102919 0.2888,-0.14866 0.43725,-0.03088 12.41243,9.90077 28.19878,13.417155 44.4479,9.898483 6.80816,-1.474023 16.48341,-4.435792 23.91091,-10.170645 1.23637,-0.954856 2.37648,-1.964602 3.38784,-3.001793 0.39666,-0.405956 0.78173,-0.825636 1.14475,-1.246458 0.0568,-0.06633 0.13338,-0.104062 0.21341,-0.105206 0.12642,-0.0057 0.23196,0.07204 0.28763,0.185253 0.0568,0.115498 0.0406,0.243575 -0.0417,0.343062 -8.42032,10.007119 -23.96658,13.868854 -30.25978,15.064996 -3.66852,0.69756 -7.31849,1.039478 -10.9035,1.039478 -12.25701,0 -23.75433,-4.00582 -32.60726,-11.563476"
         style="fill:#6b4224;fill-opacity:1;fill-rule:nonzero;stroke:none;stroke-width:0.0115165" /><path
         id="path67"
         d="m -398.63581,-46.248537 c 0.0278,-0.101775 0.10091,-0.186397 0.19601,-0.225278 0.11599,-0.04917 0.24473,-0.02058 0.34215,0.07433 1.92183,1.892558 3.81582,3.894897 5.64602,5.832054 l 0.28532,0.301894 c 0.0707,0.07319 0.0974,0.168101 0.0765,0.260727 -0.0232,0.09377 -0.0951,0.173818 -0.18789,0.208125 -0.0336,0.01258 -0.0696,0.01944 -0.10322,0.01944 -0.0708,0 -0.14034,-0.02516 -0.19833,-0.07433 -2.28949,-1.941731 -4.36094,-4.051563 -5.99165,-6.10193 -0.0684,-0.08576 -0.0916,-0.193258 -0.065,-0.295033"
         style="fill:#6b4224;fill-opacity:1;fill-rule:nonzero;stroke:none;stroke-width:0.0115165" /><path
         id="path68"
         d="m -313.15221,-65.568645 h -0.002 c -0.0974,0 -0.18557,-0.0526 -0.23893,-0.142943 -3.42379,-5.715413 -7.84852,-12.200428 -14.71119,-16.957555 -6.20505,-4.301997 -13.79958,-6.945862 -22.57016,-7.85955 -0.25052,-0.0263 -0.37346,-0.227564 -0.38158,-0.40367 -0.006,-0.112067 0.0336,-0.219559 0.10787,-0.292746 0.051,-0.05032 0.14149,-0.107493 0.29227,-0.104062 15.8571,0.690698 31.39061,11.109491 37.77428,25.338559 0.0406,0.09148 0.0348,0.192115 -0.0162,0.276737 -0.0545,0.09034 -0.15194,0.14523 -0.254,0.14523"
         style="fill:#6b4224;fill-opacity:1;fill-rule:nonzero;stroke:none;stroke-width:0.0115165" /><path
         id="path69"
         d="m -391.10624,-66.104966 c -0.67849,1.061205 -1.34423,2.152143 -1.97981,3.244223 -0.87103,1.493464 -1.71422,3.037243 -2.50638,4.587883 -0.0522,0.100631 -0.15194,0.157808 -0.26676,0.157808 -0.0267,0 -0.0557,-0.0023 -0.0847,-0.0091 -0.14962,-0.03659 -0.254,-0.155521 -0.25284,-0.289316 0,-0.03774 0.007,-0.07433 0.022,-0.109779 3.2881,-7.785221 8.93063,-14.641887 12.88911,-19.122276 0.0638,-0.07319 0.14498,-0.10635 0.24008,-0.110924 0.0951,0.0011 0.18673,0.04803 0.25284,0.126933 0.11135,0.136081 0.11019,0.31333 -0.002,0.44255 -3.05614,3.50495 -5.85247,7.234034 -8.3113,11.082046"
         style="fill:#6b4224;fill-opacity:1;fill-rule:nonzero;stroke:none;stroke-width:0.0115165" /><path
         id="path70"
         d="m -332.97475,-28.536246 c 0.12642,0.217273 0.0162,0.456272 -0.15193,0.570626 -0.0765,0.05146 -0.15774,0.07662 -0.23777,0.07662 -0.11018,0 -0.21573,-0.04803 -0.29459,-0.142943 -3.81814,-4.59017 -8.59429,-6.728589 -15.02667,-6.728589 -0.022,0 -0.051,-0.0011 -0.0661,0 -0.34215,0 -0.50568,-0.252723 -0.51264,-0.487148 -0.009,-0.259584 0.16237,-0.534034 0.50568,-0.555761 5.3955,-0.338488 12.37879,1.392832 15.78403,7.267197"
         style="fill:#6b4224;fill-opacity:1;fill-rule:nonzero;stroke:none;stroke-width:0.0115165" /><path
         id="path71"
         d="m -362.56995,-30.782159 c 0.13106,0.149804 0.11714,0.352211 -0.0336,0.490579 -0.68081,0.62666 -1.29784,1.387114 -1.83368,2.259635 -0.16121,0.263014 -0.30387,0.544325 -0.44305,0.816488 -0.24124,0.472282 -0.48944,0.961717 -0.84203,1.380252 -0.0731,0.08691 -0.17513,0.132651 -0.28648,0.132651 -0.0499,0 -0.1009,-0.0091 -0.15309,-0.02859 -0.17514,-0.06518 -0.2888,-0.221847 -0.28416,-0.391091 0.0406,-1.466018 1.12503,-3.008654 3.31477,-4.715959 0.19833,-0.154378 0.43726,-0.08577 0.56136,0.05603"
         style="fill:#6b4224;fill-opacity:1;fill-rule:nonzero;stroke:none;stroke-width:0.0115165" /><path
         id="path72"
         d="m -395.48109,-50.177741 c 0.003,0.162383 -0.0557,0.305326 -0.17629,0.424254 -0.10207,0.100631 -0.22385,0.153234 -0.35491,0.153234 -0.006,0 -0.0116,0 -0.0174,0 -0.27255,-0.01029 -0.5138,-0.241287 -0.63442,-0.378512 l -0.12642,-0.146373 c -0.1241,-0.144086 -0.25284,-0.29389 -0.39434,-0.429971 -0.1125,-0.107493 -0.17629,-0.256153 -0.17745,-0.417392 -10e-4,-0.163526 0.0626,-0.321335 0.17629,-0.432258 0.22965,-0.227564 0.60659,-0.229852 0.85595,-0.0034 0.27256,0.244718 0.83739,0.753593 0.84899,1.230449"
         style="fill:#6b4224;fill-opacity:1;fill-rule:nonzero;stroke:none;stroke-width:0.0115165" /><path
         id="path73"
         d="m -397.09788,-49.575095 c 0.0476,0.06632 0.0823,0.138368 0.11714,0.209268 0.0244,0.05032 0.0476,0.09949 0.0777,0.145229 0.12178,0.190972 0.087,0.432259 -0.0858,0.600359 -0.1009,0.09834 -0.22616,0.14866 -0.35027,0.14866 -0.0858,0 -0.17281,-0.02401 -0.24936,-0.07433 -0.0441,-0.02745 -0.0893,-0.04917 -0.1357,-0.07204 -0.0638,-0.02973 -0.12642,-0.06061 -0.18441,-0.100632 -0.12642,-0.08691 -0.2366,-0.186397 -0.36302,-0.300751 -0.15658,-0.140655 -0.29576,-0.299607 -0.42914,-0.453985 l -0.11482,-0.12922 c -0.254,-0.285885 -0.17977,-0.634665 0.0232,-0.833641 0.19485,-0.188684 0.53815,-0.271019 0.83391,-0.008 l 0.12758,0.112067 c 0.15426,0.134937 0.31431,0.274449 0.45581,0.431114 l 0.0476,0.05375 c 0.0789,0.08577 0.16006,0.173819 0.22965,0.272163"
         style="fill:#6b4224;fill-opacity:1;fill-rule:nonzero;stroke:none;stroke-width:0.0115165" /><path
         id="path74"
         d="m -329.34914,-35.619333 c 0.35722,0.290459 0.53816,0.70099 0.71213,1.097799 0.0383,0.08691 0.0765,0.173818 0.11598,0.25844 0.14614,0.309899 0.0545,0.636951 -0.2192,0.795903 -0.0905,0.05146 -0.19369,0.07776 -0.29924,0.07776 -0.0557,0 -0.1125,-0.0069 -0.16701,-0.02173 -0.15542,-0.04231 -0.28068,-0.138368 -0.35375,-0.271019 -0.0452,-0.08119 -0.0928,-0.162383 -0.14034,-0.243574 -0.23428,-0.404813 -0.47784,-0.823349 -0.50452,-1.325363 -0.009,-0.192115 0.0823,-0.349923 0.25168,-0.434545 0.19021,-0.09377 0.43957,-0.06747 0.60427,0.06632"
         style="fill:#6b4224;fill-opacity:1;fill-rule:nonzero;stroke:none;stroke-width:0.0115165" /><path
         id="path75"
         d="m -331.85668,-35.974974 c 0.14266,-0.06404 0.283,-0.0709 0.41754,-0.02058 0.27836,0.10635 0.45233,0.437976 0.57295,0.715857 0.21573,0.494009 0.3665,0.913688 0.47321,1.321932 0.0731,0.280167 -0.10903,0.510019 -0.32707,0.59121 -0.0591,0.02287 -0.12294,0.03545 -0.18789,0.03545 -0.15542,0 -0.31316,-0.07204 -0.40826,-0.251579 l -0.24704,-0.473426 c -0.13222,-0.253866 -0.26444,-0.508875 -0.40014,-0.761597 -0.12642,-0.232139 -0.28184,-0.575201 -0.18557,-0.853081 0.0464,-0.136081 0.14497,-0.237856 0.29227,-0.304182"
         style="fill:#6b4224;fill-opacity:1;fill-rule:nonzero;stroke:none;stroke-width:0.0115165" /><path
         id="path76"
         d="m -308.15164,-49.01476 c -0.12236,0 -0.24913,-0.04002 -0.36453,-0.136082 v 0 l -0.61911,-0.51688 c -0.22895,-0.190971 -0.44468,-0.37165 -0.54674,-0.694129 -0.0522,-0.163526 -0.0139,-0.329339 0.10206,-0.456272 0.12526,-0.134938 0.32707,-0.197832 0.50812,-0.160096 0.30921,0.06518 0.51079,0.261871 0.70564,0.451699 l 0.62004,0.600358 c 0.25122,0.243574 0.18963,0.544325 0.0257,0.721574 -0.10497,0.11321 -0.2634,0.189828 -0.43123,0.189828"
         style="fill:#6b4224;fill-opacity:1;fill-rule:nonzero;stroke:none;stroke-width:0.0115165" /><path
         id="path77"
         d="m -309.14108,-49.127971 c 0.10473,0.08234 0.1669,0.206981 0.17548,0.353354 0.01,0.166957 -0.0535,0.338488 -0.16481,0.448268 0,0 0,0 -3.5e-4,0 -0.10763,0.107492 -0.24507,0.160095 -0.38773,0.160095 -0.13802,0 -0.28067,-0.05031 -0.40594,-0.150947 -0.0522,-0.04117 -0.10554,-0.08234 -0.16005,-0.123502 -0.2714,-0.208125 -0.57991,-0.443694 -0.70749,-0.794761 -0.0487,-0.134937 -0.0139,-0.299607 0.0916,-0.427684 0.0974,-0.118928 0.23777,-0.179535 0.37231,-0.162382 0.40361,0.0526 0.71097,0.306468 1.00672,0.551186 0.0603,0.05032 0.12051,0.09949 0.18024,0.146373"
         style="fill:#6b4224;fill-opacity:1;fill-rule:nonzero;stroke:none;stroke-width:0.0115165" /><path
         id="path78"
         d="m -343.46303,-70.634528 c -0.10206,0.05832 -0.19949,0.08348 -0.29227,0.08348 -0.19833,0 -0.36651,-0.117785 -0.45929,-0.265302 -0.15078,-0.237856 -0.1415,-0.584348 0.16817,-0.787899 3.63373,-2.40029 7.21178,-5.251135 8.78102,-9.825295 0.0986,-0.287029 0.37694,-0.372794 0.59847,-0.3099 0.20993,0.06061 0.40246,0.263015 0.32823,0.564909 -0.99281,4.051562 -4.14753,7.697168 -9.12433,10.540008"
         style="fill:#6b4224;fill-opacity:1;fill-rule:nonzero;stroke:none;stroke-width:0.0115165" /><path
         id="path79"
         d="m -347.05268,-70.784331 c 0.1183,-0.08462 0.26908,-0.110924 0.4245,-0.07662 0.33171,0.07204 0.508,0.349924 0.66341,0.594641 0.0278,0.0446 0.0557,0.08805 0.0847,0.130364 0.0812,0.120071 0.10555,0.27788 0.0661,0.433401 -0.0418,0.160096 -0.1415,0.292747 -0.27604,0.362503 -0.0939,0.04917 -0.19021,0.07319 -0.28531,0.07319 -0.18557,0 -0.36419,-0.09263 -0.49989,-0.269875 -0.0278,-0.03545 -0.0568,-0.07204 -0.087,-0.108637 -0.16354,-0.202406 -0.35027,-0.429971 -0.31663,-0.734152 0.0186,-0.171531 0.0997,-0.315617 0.22616,-0.404813"
         style="fill:#6b4224;fill-opacity:1;fill-rule:nonzero;stroke:none;stroke-width:0.0115165" /><path
         id="path80"
         d="m -347.08052,-68.935227 c -0.0418,0.134938 -0.13106,0.243574 -0.25168,0.306469 -0.0916,0.04689 -0.18441,0.06976 -0.27603,0.06976 -0.1821,0 -0.35607,-0.09034 -0.48133,-0.260727 l -0.0673,-0.0892 c -0.0673,-0.08805 -0.1357,-0.178392 -0.19021,-0.280167 -0.087,-0.166957 -0.13106,-0.327053 -0.15194,-0.551186 -0.0139,-0.16124 0.065,-0.312187 0.21341,-0.40367 0.16005,-0.09834 0.3607,-0.105206 0.51148,-0.01601 0,0 0.003,0.0011 0.003,0.0023 0.0754,0.04345 0.1473,0.08691 0.21573,0.142942 0.0638,0.05375 0.11134,0.115498 0.15657,0.174962 l 0.0302,0.03888 c 0.0789,0.100632 0.13686,0.211555 0.19253,0.319048 l 0.051,0.0972 c 0.0742,0.136081 0.0905,0.299607 0.0441,0.449411"
         style="fill:#6b4224;fill-opacity:1;fill-rule:nonzero;stroke:none;stroke-width:0.0115165" /><path
         id="path81"
         d="m -370.73858,-80.989282 -0.57528,0.464277 c -0.19485,0.160095 -0.39666,0.325909 -0.69473,0.329339 h -0.006 c -0.16817,0 -0.33171,-0.08348 -0.43725,-0.224133 -0.10439,-0.138369 -0.13454,-0.306469 -0.0847,-0.463134 0.094,-0.288172 0.31547,-0.433402 0.53004,-0.574057 l 0.59963,-0.394522 c 0.26908,-0.177248 0.57063,-0.05375 0.73069,0.158953 0.17977,0.238999 0.15425,0.528315 -0.0626,0.703277"
         style="fill:#6b4224;fill-opacity:1;fill-rule:nonzero;stroke:none;stroke-width:0.0115165" /><path
         id="path82"
         d="m -371.96104,-82.074502 c -0.19485,0.226421 -0.43841,0.506588 -0.76432,0.567196 v 0 c -0.0313,0.0069 -0.0638,0.0091 -0.0963,0.0091 -0.12642,0 -0.25052,-0.04345 -0.34214,-0.122358 -0.10207,-0.08805 -0.15426,-0.209268 -0.14614,-0.341919 0.0197,-0.36822 0.2772,-0.652961 0.50452,-0.90454 0.0394,-0.0446 0.0789,-0.08805 0.11598,-0.130364 0.0928,-0.107492 0.23893,-0.171531 0.40014,-0.174961 0.16238,0 0.33171,0.06175 0.43494,0.171531 0.21572,0.230995 0.21572,0.569483 0,0.805052 -0.0336,0.03774 -0.0696,0.0789 -0.10671,0.121215"
         style="fill:#6b4224;fill-opacity:1;fill-rule:nonzero;stroke:none;stroke-width:0.0115165" /><path
         id="path83"
         d="m -372.64185,-70.924987 c 0.0939,0.211555 0.0568,0.492866 -0.19833,0.618655 v 0 l -0.46625,0.234426 c -0.0638,0.03431 -0.1357,0.07319 -0.21225,0.09377 -0.0765,0.02058 -0.14498,0.01944 -0.20645,0.01715 -0.0267,0 -0.0534,-0.0011 -0.0789,0.0011 -0.0128,0.0011 -0.0255,0.0023 -0.0383,0.0023 -0.1647,0 -0.31315,-0.101775 -0.38622,-0.266445 -0.0823,-0.185253 -0.0452,-0.39109 0.0928,-0.513449 0.0209,-0.0183 0.0383,-0.03774 0.0568,-0.05832 0.0406,-0.0446 0.087,-0.09491 0.15425,-0.133794 0.065,-0.03659 0.13918,-0.06175 0.20413,-0.08233 l 0.49756,-0.181823 c 0.23429,-0.08462 0.47321,0.02516 0.58108,0.268732"
         style="fill:#6b4224;fill-opacity:1;fill-rule:nonzero;stroke:none;stroke-width:0.0115165" /><path
         id="path84"
         d="m -374.14846,-70.898685 c -0.0835,0.03774 -0.1705,0.07547 -0.27256,0.0892 -0.0325,0.0046 -0.065,0.0069 -0.0986,0.0069 -0.0881,0 -0.17745,-0.01601 -0.26444,-0.04803 -0.16469,-0.05946 -0.28763,-0.171531 -0.34678,-0.314473 -0.0603,-0.142943 -0.0522,-0.311043 0.0232,-0.469995 0.0452,-0.09491 0.0974,-0.169244 0.16006,-0.227565 0.1009,-0.09263 0.21688,-0.136081 0.32823,-0.178392 l 0.38854,-0.147517 c 0.30039,-0.114354 0.63326,0.09263 0.74344,0.349924 0.11135,0.260727 0.029,0.641526 -0.26791,0.769602 l -0.39318,0.170388"
         style="fill:#6b4224;fill-opacity:1;fill-rule:nonzero;stroke:none;stroke-width:0.0115165" /><path
         id="path85"
         d="m -366.4252,-60.457022 c 0.26328,-0.02287 0.46393,0.118929 0.65414,0.25501 l 0.41405,0.290459 c 0.2772,0.196689 0.36303,0.53289 0.20413,0.800478 -0.11018,0.186397 -0.31199,0.290459 -0.51844,0.290459 -0.1009,0 -0.20413,-0.02516 -0.29807,-0.07776 l -0.46741,-0.26187 c -0.21457,-0.121216 -0.43262,-0.263014 -0.54048,-0.555761 -0.0557,-0.152091 -0.0371,-0.311043 0.051,-0.448267 0.10555,-0.16124 0.30156,-0.275594 0.50105,-0.292747"
         style="fill:#6b4224;fill-opacity:1;fill-rule:nonzero;stroke:none;stroke-width:0.0115165" /><path
         id="path86"
         d="m -366.28718,-58.788597 0.1183,0.102919 c 0.10554,0.09034 0.16701,0.229851 0.16933,0.384229 0.002,0.157809 -0.0603,0.311043 -0.16701,0.4071 -0.11367,0.102919 -0.24704,0.154378 -0.38274,0.154378 -0.13338,0 -0.27024,-0.04917 -0.39782,-0.14866 l -0.11599,-0.0892 c -0.12178,-0.09148 -0.2482,-0.186397 -0.35606,-0.300751 -0.14614,-0.154378 -0.20065,-0.367076 -0.13918,-0.542038 0.0545,-0.149804 0.13454,-0.252722 0.25632,-0.322478 0.17513,-0.09949 0.40362,-0.09949 0.56831,0.0034 0.16354,0.101775 0.30736,0.228708 0.44654,0.351067"
         style="fill:#6b4224;fill-opacity:1;fill-rule:nonzero;stroke:none;stroke-width:0.0115165" /><path
         id="path87"
         d="m -359.2227,-61.652021 c -0.0835,0.08348 -0.19485,0.128077 -0.31083,0.128077 -0.0348,0 -0.0696,-0.0046 -0.10439,-0.01258 -0.15657,-0.03774 -0.283,-0.154378 -0.33171,-0.305326 -0.0789,-0.241287 -0.003,-0.488291 0.0626,-0.707851 l 0.0336,-0.110923 c 0.0348,-0.12579 0.1241,-0.234426 0.24704,-0.299608 0.11482,-0.06175 0.24356,-0.07547 0.36302,-0.03774 0.25748,0.08234 0.39666,0.323622 0.33983,0.58778 l -0.0209,0.108636 c -0.0441,0.218416 -0.0928,0.466565 -0.27836,0.649531"
         style="fill:#6b4224;fill-opacity:1;fill-rule:nonzero;stroke:none;stroke-width:0.0115165" /><path
         id="path88"
         d="m -352.24173,-53.17839 v 0.0011 c 0.0708,-0.03659 0.0325,-0.03088 0,-0.0011 z m 0.0325,-0.867946 c 0.13222,0.02973 0.23428,0.131507 0.28531,0.251578 0.0487,0.110924 0.0487,0.221847 0,0.333914 -0.0568,0.134938 -0.15309,0.196689 -0.28531,0.251579 0.11946,-0.04917 0.0139,0.008 -0.0325,0.03202 l -0.0522,0.05146 c -0.002,0.0034 -0.005,0.0046 -0.007,0.0069 l -0.087,0.102918 c -0.0731,0.06976 -0.15077,0.108636 -0.24704,0.136081 -0.1473,0.04345 -0.33867,-0.0263 -0.41057,-0.164669 -0.0696,-0.130364 -0.094,-0.25844 -0.0476,-0.402526 0.0371,-0.113211 0.10207,-0.20012 0.18093,-0.289316 0.0963,-0.112067 0.22733,-0.206981 0.36303,-0.266445 0.11482,-0.05032 0.21689,-0.07204 0.33983,-0.04345"
         style="fill:#6b4224;fill-opacity:1;fill-rule:nonzero;stroke:none;stroke-width:0.0115165" /><path
         id="path89"
         d="m -352.68826,-54.327647 -0.22153,0.105205 c -0.0812,0.03431 -0.15193,0.06175 -0.26791,0.06747 l -0.0394,0.0023 c -0.005,0 -0.0104,0 -0.0162,0 -0.17281,0 -0.3491,-0.101775 -0.44189,-0.257182 -0.0464,-0.08028 -0.0707,-0.167643 -0.0707,-0.261299 0,-0.09274 0.0244,-0.180107 0.0661,-0.250778 0.0603,-0.128076 0.16354,-0.214871 0.25516,-0.291145 l 0.0394,-0.03293 c 0.11946,-0.103491 0.25168,-0.157008 0.40246,-0.163641 0.18209,-0.0027 0.3491,0.07753 0.4674,0.227107 0.0986,0.126018 0.13802,0.269876 0.11599,0.428142 -0.0255,0.188912 -0.1357,0.352324 -0.2888,0.426769"
         style="fill:#6b4224;fill-opacity:1;fill-rule:nonzero;stroke:none;stroke-width:0.0115165" /><path
         id="path90"
         d="m -338.34705,-64.273015 c -0.0673,-0.05832 -0.13686,-0.116641 -0.20761,-0.176105 -0.28995,-0.239 -0.58803,-0.487148 -0.72605,-0.843932 -0.0603,-0.158952 -0.0162,-0.341919 0.11599,-0.475713 0.13686,-0.138368 0.33287,-0.190971 0.49872,-0.134938 0.36071,0.123503 0.6321,0.425397 0.86987,0.691842 0.0638,0.0709 0.12642,0.140655 0.18905,0.204694 0.2366,0.247004 0.16585,0.540894 -0.002,0.710138 -0.0986,0.100632 -0.23776,0.16467 -0.38506,0.16467 -0.1183,0 -0.24125,-0.04117 -0.35259,-0.140656"
         style="fill:#6b4224;fill-opacity:1;fill-rule:nonzero;stroke:none;stroke-width:0.0115165" /><path
         id="path91"
         d="m -380.80469,-41.669803 c -0.1009,0.136081 -0.23892,0.210411 -0.38506,0.210411 -0.0394,0 -0.0789,-0.0046 -0.11714,-0.01601 -0.19369,-0.05146 -0.33635,-0.237856 -0.33287,-0.431115 0.003,-0.234425 0.0835,-0.44598 0.16005,-0.64953 l 0.0487,-0.132651 c 0.0893,-0.253866 0.3433,-0.395665 0.59383,-0.327053 0.12526,0.03431 0.23428,0.122359 0.29923,0.240144 0.0615,0.112067 0.0754,0.237856 0.0383,0.353354 -0.0174,0.05031 -0.0325,0.102918 -0.0487,0.156665 -0.0603,0.205837 -0.12294,0.417392 -0.25632,0.595784"
         style="fill:#6b4224;fill-opacity:1;fill-rule:nonzero;stroke:none;stroke-width:0.0115165" /><path
         id="path92"
         d="m -382.25795,-41.981989 c -0.10206,0.136081 -0.25748,0.214985 -0.41869,0.214985 -0.0255,0 -0.051,-0.0023 -0.0765,-0.0069 -0.17745,-0.02745 -0.31779,-0.149804 -0.37578,-0.327053 -0.0986,-0.29732 -0.0429,-0.615224 0.006,-0.895391 0.0104,-0.06175 0.022,-0.121216 0.0301,-0.18068 0.0197,-0.130363 0.0998,-0.247004 0.22501,-0.327052 0.14497,-0.09377 0.33287,-0.12579 0.48712,-0.08348 v 0 c 0.29576,0.08005 0.46277,0.362503 0.40478,0.687268 l -0.0244,0.144086 c -0.0417,0.266445 -0.0858,0.542038 -0.25748,0.774177"
         style="fill:#6b4224;fill-opacity:1;fill-rule:nonzero;stroke:none;stroke-width:0.0115165" /><path
         id="path93"
         d="m -289.74246,-26.017027 c -0.53549,1.296774 -1.45256,2.472333 -2.72582,3.494658 -1.0421,0.835928 -2.34261,1.591807 -3.97483,2.311094 -0.63245,0.279024 -1.2968,0.523741 -1.93899,0.760454 -0.96636,0.355641 -1.96544,0.723861 -2.87323,1.21444 -2.01612,1.089793 -2.83008,2.528367 -3.86047,4.350026 l -0.18696,0.330483 c -1.46126,2.571821 -3.52088,4.2528252 -6.12132,4.9926956 -0.0267,0.008 -0.0534,0.011435 -0.08,0.011435 -0.0592,0 -0.11715,-0.018297 -0.16702,-0.053746 -0.08,-0.056033 -0.13222,-0.1520908 -0.13686,-0.2481482 -0.006,-0.114354 0.0545,-0.2104114 0.16238,-0.2572965 3.23057,-1.4134159 4.83391,-3.4317639 6.24727,-6.0287429 1.08896,-2.001195 2.40396,-3.20763 4.53943,-4.165916 0.78172,-0.349923 1.60264,-0.66554 2.39666,-0.972009 2.10867,-0.81077 4.28891,-1.650128 5.971,-3.22707 3.44038,-3.22707 2.54743,-7.575953 1.33809,-11.753304 -0.0122,-0.04002 -0.0143,-0.08119 -0.007,-0.122359 0.022,-0.115498 0.12619,-0.200119 0.25307,-0.206981 0.13419,-0.0091 0.22999,0.06633 0.26618,0.185254 0.085,0.281311 0.17328,0.566052 0.26247,0.853081 0.74994,2.4163 1.5254,4.914935 1.00127,7.354105 -0.0874,0.405957 -0.21027,0.802765 -0.36534,1.177847"
         style="fill:#d18d27;fill-opacity:1;fill-rule:nonzero;stroke:none;stroke-width:0.0115165" /><path
         id="path94"
         d="m -342.1965,0.32670352 c -0.6263,0.18410994 -1.23521,0.26187066 -1.83136,0.26187066 -1.57388,0 -3.06889,-0.54089442 -4.62538,-1.10465964 l -0.17861,-0.0640382 c -3.67896,-1.32879354 -6.82788,-1.50146804 -10.53119,-0.57977484 -0.3839,0.096057 -0.76896,0.20011956 -1.15402,0.30532524 -1.75366,0.47685618 -3.56646,0.97086546 -5.4245,0.64495656 -1.5298,-0.26758836 -2.84156,-1.0086023 -4.10925,-1.7256019 -1.82324,-1.0303295 -3.5421,-2.0069127 -5.85711,-1.6821473 -0.12178,0.01601 -0.2366,-0.012579 -0.33171,-0.083479 -0.0997,-0.075474 -0.16933,-0.1944018 -0.18557,-0.3179041 -0.0278,-0.213842 0.10439,-0.385373 0.32243,-0.415105 2.23846,-0.3110429 3.98979,0.3384878 5.9267,1.4099848 0.18905,0.1052057 0.37694,0.2104114 0.56483,0.3167606 1.27001,0.7147125 2.46927,1.3916882 3.92368,1.6169656 1.75482,0.2744496 3.36697,-0.1578086 5.07423,-0.6152246 0.34099,-0.09034 0.68314,-0.1818228 1.0276,-0.2687319 1.75482,-0.4368322 4.06634,-0.9068272 6.39759,-0.6529613 1.49037,0.1623827 2.94363,0.7112819 4.34933,1.2418844 2.07725,0.78446852 4.22524,1.59638192 6.48689,1.13439176 0.0696,-0.014866 0.13802,-0.006861 0.19833,0.0217273 0.11367,0.0537464 0.18325,0.17496162 0.17282,0.30189456 -0.009,0.12121524 -0.0916,0.21841614 -0.21573,0.25386588"
         style="fill:#d18d27;fill-opacity:1;fill-rule:nonzero;stroke:none;stroke-width:0.0115165" /><path
         id="path95"
         d="m -300.6753,-21.599532 c -0.0244,0.0023 -0.048,0.0046 -0.0713,0.0046 -0.21306,0 -0.37915,-0.128077 -0.43215,-0.337345 -0.0614,-0.243574 0.0503,-0.572913 0.33774,-0.679262 5.85351,-2.175013 8.53699,-6.839513 7.00278,-12.172984 -0.0856,-0.29732 0.10172,-0.522597 0.33113,-0.59121 0.24136,-0.07319 0.53723,0.01487 0.63732,0.321335 1.01311,3.094419 0.58131,6.550197 -1.15507,9.247808 -1.52203,2.363697 -3.88378,3.85716 -6.65042,4.207084"
         style="fill:#fabd35;fill-opacity:1;fill-rule:nonzero;stroke:none;stroke-width:0.0115165" /><path
         id="path96"
         d="m -307.64665,-20.213562 c -0.65008,0.337344 -1.19299,0.765028 -1.65959,1.309353 -0.28416,0.330483 -0.49176,0.694129 -0.71097,1.078359 -0.1357,0.236712 -0.27604,0.48143 -0.43378,0.715856 -0.1009,0.149803 -0.27951,0.235569 -0.46392,0.235569 -0.0603,0 -0.12179,-0.0091 -0.17978,-0.02859 -0.21688,-0.0709 -0.34214,-0.255009 -0.33055,-0.48143 0.0951,-1.735894 1.75366,-3.159601 3.35433,-3.79884 0.2489,-0.100631 0.50777,0.01258 0.62978,0.272163 0.11111,0.236712 0.0764,0.552329 -0.20552,0.697559"
         style="fill:#fabd35;fill-opacity:1;fill-rule:nonzero;stroke:none;stroke-width:0.0115165" /><path
         id="path97"
         d="m -310.16915,-11.685041 c -0.0754,0.03774 -0.15078,0.05375 -0.22384,0.05375 -0.1705,0 -0.32475,-0.09034 -0.41406,-0.212699 -0.13918,-0.192114 -0.11598,-0.431114 0.058,-0.596928 1.49385,-1.42485 2.94583,-3.069261 3.44873,-5.435245 0.0661,-0.312187 0.32267,-0.412818 0.54686,-0.373938 0.26676,0.04803 0.51287,0.29389 0.46312,0.624373 -0.40304,2.693037 -1.85305,4.913791 -3.8788,5.94069"
         style="fill:#fabd35;fill-opacity:1;fill-rule:nonzero;stroke:none;stroke-width:0.0115165" /><path
         id="path98"
         d="m -361.17005,-4.3469445 c -0.0591,-0.2687319 0.0568,-0.6106503 0.38623,-0.7181431 2.85896,-0.9285545 5.78751,-1.230449 8.24518,-0.8507937 0.99281,0.1532343 2.14567,0.7227172 3.36696,1.3253628 2.46695,1.2167266 5.0174,2.4757641 6.62839,0.5580475 0.19485,-0.230995 0.49409,-0.2607271 0.73069,-0.072043 0.24008,0.1932583 0.34563,0.5671959 0.1067,0.8622292 -0.77012,0.9491382 -1.82092,1.4305685 -3.06657,1.4305685 -0.7736,0 -1.62375,-0.186397 -2.52841,-0.5614781 -0.63211,-0.2630142 -1.21318,-0.5386074 -1.77453,-0.8061957 -1.66203,-0.7913297 -3.09673,-1.4740231 -5.19717,-1.5266259 -1.35699,-0.034306 -2.72442,0.1978324 -4.04778,0.4208227 -0.74925,0.1269329 -1.52401,0.25844 -2.29065,0.3396314 -0.27604,0.029732 -0.49872,-0.126933 -0.55904,-0.4013826"
         style="fill:#fabd35;fill-opacity:1;fill-rule:nonzero;stroke:none;stroke-width:0.0115165" /><path
         id="path99"
         d="m -374.18558,-7.092584 c 2.36488,-0.2698754 4.76455,1.0486262 6.22245,2.3751326 0.21921,0.1989759 0.17398,0.4951528 0.0162,0.6838369 -0.10323,0.1223588 -0.23776,0.1852535 -0.3723,0.1852535 -0.0916,0 -0.18442,-0.028588 -0.26676,-0.089196 -1.73162,-1.2624682 -3.46092,-1.6935828 -5.71445,-2.1658648 -0.24356,-0.050316 -0.38738,-0.2275645 -0.37578,-0.4597031 0.0104,-0.2344257 0.19717,-0.4962963 0.4906,-0.529459"
         style="fill:#fabd35;fill-opacity:1;fill-rule:nonzero;stroke:none;stroke-width:0.0115165" /><path
         id="path100"
         d="m -373.91302,-11.212759 c -0.0336,0 -0.0673,-0.0023 -0.10322,-0.0091 -2.02274,-0.355641 -4.32266,-0.874808 -6.03572,-2.035501 -0.22733,-0.155522 -0.254,-0.401383 -0.17746,-0.576344 0.0893,-0.208125 0.30504,-0.317904 0.53932,-0.268732 1.31756,0.267588 2.6328,0.752449 3.90629,1.222444 0.66573,0.245861 1.35467,0.499727 2.02505,0.714713 0.30503,0.09834 0.38738,0.365932 0.33519,0.574057 -0.051,0.200119 -0.23081,0.378511 -0.48945,0.378511"
         style="fill:#fabd35;fill-opacity:1;fill-rule:nonzero;stroke:none;stroke-width:0.0115165" /><path
         id="path101"
         d="m -345.65161,-8.5059994 h -0.0545 c -0.23777,-0.00114 -0.42566,-0.1703875 -0.45698,-0.4093874 -0.0313,-0.2355692 0.10671,-0.4425499 0.33403,-0.502014 1.14591,-0.3030381 2.3614,-0.4116744 3.53746,-0.5168801 0.31896,-0.027445 0.63675,-0.056034 0.95106,-0.088052 0.28416,-0.02745 0.47205,0.197832 0.5022,0.4368319 0.0313,0.2355692 -0.0858,0.4962964 -0.36998,0.5397509 -0.31431,0.048029 -0.62979,0.1006315 -0.94758,0.1532343 -1.14706,0.1898277 -2.33124,0.3865166 -3.4957,0.3865166"
         style="fill:#fabd35;fill-opacity:1;fill-rule:nonzero;stroke:none;stroke-width:0.0115165" /><path
         id="path102"
         d="m -380.87428,-6.2486515 c -0.17165,-0.078904 -0.27604,-0.2481482 -0.28183,-0.4505547 -0.005,-0.2126985 0.10322,-0.4093874 0.27603,-0.499727 0.13106,-0.069756 0.26212,-0.1097799 0.38738,-0.1486602 0.17746,-0.05489 0.34447,-0.1074928 0.48945,-0.2344257 0.17977,-0.1555215 0.39898,-0.4116744 0.42449,-0.7375833 0.0255,-0.3190477 0.25633,-0.4677079 0.47437,-0.4734256 0.24472,-0.014866 0.48829,0.1520908 0.53004,0.4665643 0.0765,0.5774877 -0.13918,1.1938558 -0.56367,1.6089608 -0.31663,0.3098994 -0.79796,0.5694829 -1.26653,0.5694829 -0.16006,0 -0.32011,-0.030876 -0.46973,-0.1006315"
         style="fill:#fabd35;fill-opacity:1;fill-rule:nonzero;stroke:none;stroke-width:0.0115165" /><path
         id="path103"
         d="m -299.18852,-27.43273 c -0.40525,0.472282 -0.84192,0.776464 -1.50719,1.045196 -0.0537,0.02173 -0.10764,0.03316 -0.15994,0.03316 -0.12654,0 -0.2431,-0.06289 -0.32441,-0.179536 -0.10983,-0.158952 -0.13744,-0.420822 0.0282,-0.59121 0.70053,-0.721573 1.42496,-1.468305 1.8179,-2.399147 0.0993,-0.235569 0.28718,-0.38766 0.51566,-0.416248 0.21619,-0.02402 0.44769,0.06632 0.5813,0.239 0.13837,0.179535 0.15925,0.418535 0.0573,0.656392 -0.24797,0.577487 -0.58733,1.120669 -1.00881,1.612391"
         style="fill:#fabd35;fill-opacity:1;fill-rule:nonzero;stroke:none;stroke-width:0.0115165" /><path
         id="path104"
         d="m -246.35998,-93.029615 c -0.021,0 -0.0422,-0.0011 -0.0641,-0.0034 -0.36685,-0.02516 -0.76351,-0.296176 -0.77627,-0.745588 -0.13628,-4.739973 -0.80457,-9.469657 -4.73764,-11.952277 -1.66307,-1.05092 -3.33658,-1.35624 -4.9739,-0.91026 -2.04558,0.5569 -3.94549,2.31681 -5.21225,4.82802 -0.21665,0.43112 -0.62363,0.61294 -1.061,0.478 -0.46219,-0.14408 -0.8868,-0.64152 -0.79726,-1.22587 0.32869,-2.14643 1.66921,-3.98981 3.77429,-5.18939 2.39794,-1.36538 5.37671,-1.63983 7.77395,-0.71585 6.05381,2.33396 7.75399,9.152894 6.75365,14.875168 -0.0603,0.346492 -0.32406,0.561478 -0.67943,0.561478"
         style="fill:#2f5d45;fill-opacity:1;fill-rule:nonzero;stroke:none;stroke-width:0.0115165" /><path
         id="path105"
         d="m -263.36217,-81.585067 c -0.29518,0.947995 -0.78752,1.882267 -1.4267,2.707903 0.0813,0.07662 0.15055,0.1681 0.20703,0.271019 3.31535,6.103073 6.61006,11.195257 13.37253,11.697271 0.58617,0.04345 0.84922,0.489435 0.84585,0.8851 -0.003,0.38766 -0.27,0.819918 -0.84794,0.85308 -0.25041,0.01372 -0.49803,0.02173 -0.74287,0.02173 -7.36743,0 -12.40059,-6.378666 -14.54232,-12.057486 -1.47344,1.074928 -3.16609,1.508329 -4.7801,1.219014 -0.33565,-0.05946 -0.55474,-0.285885 -0.58606,-0.604933 -0.0376,-0.386517 0.2097,-0.795904 0.56333,-0.931985 2.50406,-0.958287 4.8578,-2.046937 6.1343,-4.800581 0.23417,-0.504301 0.75226,-0.576344 1.16075,-0.421966 0.44677,0.166957 0.8106,0.619798 0.6422,1.161836"
         style="fill:#2f5d45;fill-opacity:1;fill-rule:nonzero;stroke:none;stroke-width:0.0115165" /><path
         id="path106"
         d="m -281.26833,-61.129423 c -0.0353,0 -0.0713,-0.0057 -0.10717,-0.0183 -5.29239,-1.860539 -10.44235,-4.77771 -14.89282,-8.434751 -2.17722,-1.78964 -4.13233,-3.717648 -5.81164,-5.729135 -0.0573,-0.06976 -0.084,-0.154378 -0.0752,-0.239 0.009,-0.08462 0.0537,-0.16467 0.12167,-0.218416 0.12561,-0.100632 0.28926,-0.09148 0.40814,0.02401 6.15274,5.881226 12.37357,10.187798 19.577,13.552093 0.30886,0.144086 0.61969,0.287028 0.93319,0.428827 0.15785,0.0709 0.2213,0.247005 0.15089,0.417392 -0.0561,0.137225 -0.17513,0.217273 -0.3041,0.217273"
         style="fill:#2f5d45;fill-opacity:1;fill-rule:nonzero;stroke:none;stroke-width:0.0115165" /><g
         id="g4"><path
           id="path43"
           d="m -321.73722,19.442118 c -0.036,-0.0011 -0.0696,-0.01601 -0.0928,-0.04345 -0.0232,-0.0263 -0.0336,-0.06175 -0.029,-0.09606 0.0731,-0.52031 0.19833,-1.007458 0.37462,-1.451152 0.46045,-1.145827 1.46717,-2.312238 2.92043,-2.140707 v 0 c 0.83624,0.09949 1.58548,0.666684 2.13408,1.608961 0.26908,-0.905684 0.87102,-2.181874 2.16075,-2.489487 1.30712,-0.315617 2.38111,0.539751 3.0109,1.532344 0.2192,-1.690152 0.90582,-2.872573 1.91371,-3.273955 1.38645,-0.543182 2.63535,0.489435 3.34098,1.637549 0.28741,0.466565 0.53201,1.016607 0.72721,1.632975 0.0128,0.04002 0.004,0.08462 -0.024,0.116641 -0.963,1.111521 -2.62282,1.558645 -3.96068,1.822803 -3.79958,0.763885 -7.70006,1.149258 -11.60635,1.149258 -0.28995,0 -0.57991,-0.0023 -0.86986,-0.0057"
           style="fill:#94c848;fill-opacity:1;fill-rule:nonzero;stroke:none;stroke-width:0.0115165" /><path
           id="path107"
           d="m -304.66973,14.882824 c -0.0108,0 -0.0218,0 -0.0327,0 -0.11528,0 -0.22663,-0.04002 -0.30956,-0.112067 -0.0865,-0.07547 -0.13593,-0.179536 -0.14265,-0.299607 -0.13234,-2.373989 -1.7032,-3.692491 -3.36662,-5.0898968 -0.77221,-0.6472436 -1.57017,-1.317358 -2.21387,-2.1018265 -1.45326,-1.7701999 -1.83136,-3.9623661 -2.00882,-5.8720779 -0.57759,-6.2231447 -0.91046,-12.8556768 -1.016,-20.2761078 -10e-4,-0.10978 0.0429,-0.204694 0.12178,-0.265301 0.0974,-0.07433 0.23776,-0.09034 0.35839,-0.03888 0.11946,0.05146 0.19833,0.160096 0.20992,0.291603 0.29924,3.326558 0.4303,6.720585 0.55672,10.0025445 l 0.0116,0.3030381 c 0.0765,1.986329 0.15425,3.9280599 0.2656,5.8400588 0.087,1.5117599 0.18673,2.85999354 0.30387,4.1201746 0.0823,0.8793823 0.22501,2.0263529 0.60079,3.0955628 0.29691,0.8439325 0.71329,1.58609 1.27464,2.2710704 0.59267,0.7227173 1.32626,1.3162146 2.03549,1.8902717 0.40246,0.3259089 0.81884,0.6632532 1.2097,1.0223247 1.143,1.0532004 1.84922,2.0560854 2.22187,3.1561704 0.17792,0.523741 0.27871,1.058918 0.30817,1.637549 0.0121,0.23557 -0.14753,0.409388 -0.38831,0.425397"
           style="fill:#2f5d45;fill-opacity:1;fill-rule:nonzero;stroke:none;stroke-width:0.0115165" /><g
           id="g3"><path
             id="path7"
             d="m -313.48508,-18.940802 c -0.007,0.0057 -0.0267,0.02058 -0.0255,0.06861 0.10439,7.41357 0.43725,14.0403846 1.01369,20.256668 0.17513,1.8742621 0.54279,4.0206867 1.95546,5.7405708 0.62978,0.7673154 1.41835,1.429425 2.18128,2.0698074 1.63013,1.3688178 3.3157,2.7845198 3.45383,5.2625708 0.003,0.05489 0.0231,0.09835 0.0592,0.130364 0.0409,0.03431 0.10287,0.0526 0.16121,0.04917 0.0361,-0.0023 0.0731,0.01144 0.098,0.03774 0.0254,0.0263 0.0379,0.0629 0.0336,0.09949 -0.0413,0.360215 -0.14231,0.705564 -0.30016,1.025755 -0.12132,0.245861 -0.26711,0.466565 -0.44549,0.674689 -0.0298,0.03431 -0.0749,0.05032 -0.11958,0.04117 -0.0446,-0.0091 -0.0807,-0.04117 -0.0942,-0.08348 -0.18906,-0.598072 -0.42543,-1.129818 -0.70228,-1.579229 -0.65333,-1.062349 -1.79239,-2.024066 -3.03572,-1.536918 -1.4115,0.561479 -1.72929,2.604984 -1.80004,3.458065 -0.005,0.05489 -0.0464,0.100632 -0.10207,0.10978 -0.0534,0.01029 -0.11134,-0.0183 -0.13454,-0.06861 l -0.0394,-0.08577 c -0.55208,-1.007458 -1.5994,-1.972606 -2.88332,-1.66042 -1.31292,0.312187 -1.8534,1.7702 -2.05869,2.611846 -0.0116,0.04917 -0.0545,0.08691 -0.1067,0.09263 -0.0522,0.008 -0.10207,-0.02058 -0.12526,-0.06747 -0.5196,-1.031473 -1.26189,-1.653558 -2.09116,-1.751903 -1.30828,-0.155521 -2.23382,0.927411 -2.66064,1.987473 -0.16817,0.424253 -0.28995,0.893104 -0.35954,1.393975 -0.008,0.06061 -0.0603,0.106349 -0.12294,0.106349 h -0.002 c -2.15379,-0.03774 -4.32614,-0.192115 -6.45906,-0.460846 -4.34237,-0.550043 -7.02273,-1.923435 -8.19415,-4.197936 -0.64834,-1.271616 -0.75968,-2.728486 -0.82463,-4.233385 -10e-4,-0.03316 0.0104,-0.06404 0.0325,-0.08805 0.0232,-0.02402 0.0534,-0.03888 0.087,-0.04002 0.029,-0.0011 0.0963,-0.01258 0.0986,-0.0972 0.15309,-4.681653 -0.11599,-9.45364544 -0.37463,-14.0689729 -0.0997,-1.7759176 -0.20297,-3.6124428 -0.28067,-5.4146619 -0.001,-0.036593 -0.0162,-0.060608 -0.0464,-0.075474 -0.0336,-0.01601 -0.0777,-0.013723 -0.10554,0.00457 -0.0383,0.026302 -0.0858,0.028588 -0.12758,0.00915 -0.0394,-0.020584 -0.0661,-0.060608 -0.0684,-0.1052057 l -0.1125,-2.8359795 c -0.002,-0.06061 0.0406,-0.11321 0.1009,-0.124646 7.57596,-1.390544 14.57434,-3.703926 20.80143,-6.873819 1.14126,-0.582061 2.29993,-1.222444 3.44351,-1.905137 0.0371,-0.02173 0.0835,-0.02402 0.12178,-0.0046 0.0383,0.02058 0.0638,0.05832 0.0673,0.100631 l 0.1415,1.923434 c 0.003,0.04002 -0.0151,0.08005 -0.0476,0.105206"
             style="fill:#a9db5a;fill-opacity:1;fill-rule:nonzero;stroke:none;stroke-width:0.0115165" /><path
             id="path17"
             d="m -318.89682,-7.55 c -0.6437,-0.014866 -1.21549,-0.256153 -1.60751,-0.6804063 -0.55672,-0.599215 -0.75273,-1.5540709 -0.49872,-2.4323097 0.30503,-1.054344 1.15286,-1.926865 2.11087,-2.168152 0.74925,-0.188684 1.48922,0.03316 2.08305,0.625517 0.92901,0.927411 0.62862,3.0898447 -0.26444,3.9680835 -0.4477,0.4391193 -1.0856,0.6872675 -1.75946,0.6872675 -0.0209,0 -0.0429,0 -0.0638,0"
             style="fill:#c1e364;fill-opacity:1;fill-rule:nonzero;stroke:none;stroke-width:0.0115165" /><path
             id="path18"
             d="m -331.04596,3.0083048 c 0.26676,-0.5786312 0.71561,-1.001741 1.26536,-1.1915687 0.77825,-0.2698754 1.74438,-0.073187 2.46463,0.5008706 0.86523,0.6906981 1.34539,1.802219 1.19578,2.7662232 -0.11715,0.7535929 -0.61471,1.3367983 -1.40107,1.643267 -0.19949,0.077761 -0.41754,0.1132105 -0.6437,0.1132105 -1.16562,0 -2.56205,-0.942277 -2.95407,-1.9097118 -0.24124,-0.5957844 -0.21457,-1.2967744 0.0731,-1.9222908"
             style="fill:#c1e364;fill-opacity:1;fill-rule:nonzero;stroke:none;stroke-width:0.0115165" /><path
             id="path19"
             d="m -333.00838,0.63431578 c -0.1763,0.12922002 -0.37695,0.19668888 -0.57643,0.19668888 -0.0487,0 -0.0974,-0.004574 -0.14498,-0.0125789 -0.35027,-0.0583205 -0.65878,-0.3201912 -0.80608,-0.68154984 -0.17281,-0.4231098 -0.1183,-0.92398032 0.1357,-1.24645862 0.20297,-0.2584401 0.51148,-0.3739376 0.86755,-0.328196 0.56251,0.073187 1.02064,0.84965026 0.95221,1.37567866 -0.036,0.27101898 -0.19137,0.52374132 -0.42797,0.69641586"
             style="fill:#c1e364;fill-opacity:1;fill-rule:nonzero;stroke:none;stroke-width:0.0115165" /><path
             id="path20"
             d="m -330.85923,10.599123 c -0.0452,0.34878 -0.24588,0.675832 -0.55208,0.898823 -0.22732,0.166957 -0.48596,0.253866 -0.74344,0.253866 -0.0626,0 -0.1241,-0.0046 -0.18557,-0.01487 -0.45234,-0.07662 -0.85015,-0.415105 -1.04153,-0.882813 -0.225,-0.550043 -0.15425,-1.2007172 0.17514,-1.6181093 0.26096,-0.3327702 0.65878,-0.4837175 1.11691,-0.4231098 0.71329,0.09377 1.31756,1.1172385 1.23057,1.7862091"
             style="fill:#c1e364;fill-opacity:1;fill-rule:nonzero;stroke:none;stroke-width:0.0115165" /><path
             id="path21"
             d="m -324.74812,-2.1204721 c -0.7794,0.6003585 -1.67131,0.9171191 -2.55857,0.9171191 -0.17282,0 -0.34563,-0.011435 -0.51728,-0.036593 -1.4985,-0.2115549 -2.9042,-1.3436595 -3.5827,-2.8851514 -0.81767,-1.857109 -0.6437,-4.0778636 0.43262,-5.5255853 0.83739,-1.1252433 2.14451,-1.6569893 3.68475,-1.4968943 2.41824,0.250435 4.54999,3.6776251 4.31687,5.9589874 -0.11947,1.1721285 -0.76665,2.2893671 -1.77569,3.0681178"
             style="fill:#c1e364;fill-opacity:1;fill-rule:nonzero;stroke:none;stroke-width:0.0115165" /><path
             id="path108"
             d="m -337.08632,10.666592 c -0.006,0.0011 -0.0104,0.0011 -0.0162,0.0011 -0.0916,0 -0.18093,-0.03316 -0.24472,-0.09263 -0.0661,-0.06175 -0.10322,-0.146373 -0.10554,-0.243574 -0.0638,-2.9446155 -0.18326,-5.9372597 -0.29808,-8.8304159 -0.0452,-1.14010938 -0.0905,-2.2813623 -0.13222,-3.4214717 -0.0742,-1.9806113 -0.16237,-4.5924566 -0.19949,-7.2420388 -0.001,-0.1132105 0.0476,-0.2081243 0.13454,-0.2687319 0.10323,-0.069756 0.24356,-0.078904 0.35955,-0.022871 0.11134,0.05489 0.17861,0.1589521 0.18325,0.2847415 0.0777,1.8010755 0.18093,3.6364572 0.28068,5.4112312 0.2598,4.62104518 0.52771,9.3987553 0.37462,14.0907006 -0.006,0.188684 -0.14382,0.327052 -0.33635,0.333913"
             style="fill:#2f5d45;fill-opacity:1;fill-rule:nonzero;stroke:none;stroke-width:0.0115165" /></g><path
           id="path111"
           d="m -312.19768,7.5950438 c 0.22385,0.00457 0.34215,0.1772487 0.34331,0.3464926 0,0.1692439 -0.11714,0.3442055 -0.34215,0.3510668 -4.33078,0.1212152 -8.41683,0.8610856 -11.49153,1.4923197 -0.0278,0.00572 -0.0557,0.008 -0.0812,0.008 -0.17398,0 -0.29576,-0.1200717 -0.33287,-0.2572965 -0.0418,-0.1543779 0.0244,-0.345349 0.23196,-0.4116744 3.45048,-1.0977984 7.3788,-1.6112478 11.67246,-1.5289129"
           style="fill:#2f5d45;fill-opacity:1;fill-rule:nonzero;stroke:none;stroke-width:0.0115165" /></g><g
         id="g6"><path
           id="path5"
           d="m -305.51942,-13.675944 0.18639,-0.329339 c 1.04998,-1.855966 1.87914,-3.323128 3.95812,-4.446084 0.92357,-0.498583 1.93122,-0.870234 2.90571,-1.229305 0.63883,-0.23557 1.29923,-0.479144 1.92472,-0.754737 1.61216,-0.710138 2.89411,-1.454583 3.91963,-2.277931 0.0362,-0.02859 0.0854,-0.03545 0.12746,-0.01715 0.0428,0.0183 0.0713,0.05832 0.0749,0.104063 l 0.30178,4.104165 c 0.27256,3.705069 0.545,7.408995 0.81884,11.114065 0.005,0.067469 -0.0459,0.1257894 -0.1139,0.1315071 -0.0282,0.00229 -0.0546,0.013722 -0.0676,0.028588 -0.005,0.00572 -0.01,0.013722 -0.008,0.030875 0.14196,1.3047792 0.30526,2.3511183 0.51473,3.3036871 0.28589,1.9646017 0.81002,3.4134669 1.65008,4.56158106 0.62549,0.85536794 1.4565,1.56664984 2.26014,2.25391734 l 0.0336,0.028589 c 1.07226,1.0646357 2.06831,2.1338456 2.47042,3.5232467 0.0223,0.075474 0.0802,0.078904 0.11482,0.073187 0.0387,-0.00686 0.10311,-0.037737 0.0986,-0.1109234 -0.004,-0.059464 0.0368,-0.1132104 0.0956,-0.1269329 0.0598,-0.012579 0.11934,0.01601 0.143,0.0709 0.50082,1.1549754 0.52564,2.2493431 0.0728,3.1630316 -0.0525,0.1097798 -0.11691,0.2115549 -0.18151,0.31333 -0.0261,0.041167 -0.0753,0.062895 -0.12236,0.056033 -0.0485,-0.00686 -0.0886,-0.041167 -0.10218,-0.086909 -0.19242,-0.6541049 -0.43888,-1.2247314 -0.73301,-1.6993005 -0.65611,-1.0623486 -1.80063,-2.0217787 -3.03584,-1.5312 -1.41011,0.5614781 -1.72837,2.6004099 -1.79969,3.4512039 -0.005,0.05489 -0.0456,0.100631 -0.10045,0.10978 -0.055,0.01144 -0.1096,-0.01601 -0.13477,-0.06518 l -0.0413,-0.082335 c -0.55172,-1.0063152 -1.60009,-1.9726065 -2.88239,-1.6672813 -1.31709,0.3144735 -1.85131,1.7747743 -2.05242,2.6175633 -0.0122,0.05031 -0.0546,0.08805 -0.10682,0.09377 -0.0477,0.0069 -0.10195,-0.02058 -0.12538,-0.06747 -0.37207,-0.733009 -1.03804,-1.632975 -2.098,-1.7519031 -1.3106,-0.1623827 -2.2344,0.9216931 -2.66052,1.9886161 -0.21341,0.526028 -0.34864,1.141253 -0.40118,1.842243 0,0.03202 -0.0133,0.06404 -0.0371,0.08691 -0.0233,0.02287 -0.0546,0.03545 -0.0873,0.03545 h -0.002 c -1.30016,-0.01487 -2.63802,-0.07662 -3.97645,-0.185254 -0.0494,-0.0046 -0.092,-0.03774 -0.1074,-0.08348 -0.35931,-1.060062 -1.04465,-2.030927 -2.15634,-3.0543956 -0.38483,-0.3544974 -0.79785,-0.6895546 -1.19764,-1.0131764 -0.71862,-0.5809184 -1.46242,-1.1824204 -2.07017,-1.9245779 -0.57991,-0.7067077 -1.01136,-1.474023 -1.31755,-2.3454005 -0.38391,-1.0943678 -0.52888,-2.259635 -0.61239,-3.1527398 -0.11714,-1.26361168 -0.21805,-2.6141324 -0.30503,-4.1293229 -0.11135,-1.9131424 -0.18906,-3.8560169 -0.2656,-5.844633 -0.002,-0.056033 0.036,-0.1074927 0.0905,-0.1223587 0.31895,-0.088053 0.63211,-0.18411 0.93482,-0.285885 0.036,-0.012579 0.0777,-0.00686 0.11018,0.014866 0.0325,0.021727 0.0522,0.057177 0.0545,0.094914 0,0.021727 0.0151,0.046885 0.0336,0.060608 0.0139,0.010292 0.0244,0.00915 0.0325,0.00572 2.53596,-0.7215737 4.5457,-2.3625532 5.97425,-4.8771982"
           style="fill:#a9db5a;fill-opacity:1;fill-rule:nonzero;stroke:none;stroke-width:0.0115165" /><path
           id="path27"
           d="m -295.55503,-11.895452 c -0.0347,0.0023 -0.0689,0.0023 -0.10322,0.0023 -0.47344,0 -0.90293,-0.158952 -1.21828,-0.452842 -3.5e-4,0 -3.5e-4,0 -3.5e-4,0 -0.47727,-0.44598 -0.68894,-1.193856 -0.53862,-1.906281 0.18058,-0.854224 0.80329,-1.592951 1.54998,-1.839956 0.58514,-0.193258 1.1894,-0.05832 1.69764,0.380799 0.7925,0.683837 0.68105,2.418587 0.0226,3.165319 -0.34087,0.386516 -0.85467,0.624373 -1.40976,0.650674"
           style="fill:#c1e364;fill-opacity:1;fill-rule:nonzero;stroke:none;stroke-width:0.0115165" /><path
           id="path28"
           d="m -305.57289,-1.531549 c -0.22732,-0.4608466 -0.24692,-1.0200377 -0.0539,-1.5334871 0.17838,-0.4757127 0.51195,-0.8393584 0.939,-1.0211812 0.60276,-0.2584401 1.38424,-0.1578086 1.98967,0.25844 0.72628,0.499727 1.17154,1.3539514 1.10833,2.1281279 -0.0494,0.6083633 -0.41185,1.10122906 -1.0203,1.38940114 -0.1909,0.0914832 -0.40698,0.1315071 -0.63431,0.1315071 -0.90257,0 -1.97819,-0.64152594 -2.32846,-1.35280784"
           style="fill:#c1e364;fill-opacity:1;fill-rule:nonzero;stroke:none;stroke-width:0.0115165" /><path
           id="path29"
           d="m -308.03542,-5.464183 c -0.1502,0.1269329 -0.32835,0.1944018 -0.508,0.1944018 -0.0228,0 -0.0456,-0.00114 -0.0683,-0.00343 -0.28717,-0.027445 -0.55265,-0.2207032 -0.69334,-0.5043011 -0.16354,-0.3304831 -0.14962,-0.7375833 0.0371,-1.0120329 0.15032,-0.2229903 0.39272,-0.3384878 0.68627,-0.3190477 0.4586,0.027445 0.87497,0.6278035 0.85062,1.0554875 -0.0124,0.2207032 -0.12318,0.4356887 -0.30434,0.5889231"
           style="fill:#c1e364;fill-opacity:1;fill-rule:nonzero;stroke:none;stroke-width:0.0115165" /><path
           id="path30"
           d="m -307.16463,2.7041232 c -0.19218,0.1623827 -0.4195,0.2492917 -0.64869,0.2492917 -0.0291,0 -0.0579,-0.00229 -0.087,-0.00457 -0.36755,-0.03545 -0.70842,-0.2847414 -0.88935,-0.6495307 -0.21179,-0.4276839 -0.19323,-0.9525688 0.0462,-1.30592266 0.19148,-0.28359792 0.50626,-0.4288275 0.87624,-0.4059567 0.59,0.0354497 1.12503,0.80848276 1.09383,1.36081256 -0.0161,0.283598 -0.15843,0.5591911 -0.39121,0.75588"
           style="fill:#c1e364;fill-opacity:1;fill-rule:nonzero;stroke:none;stroke-width:0.0115165" /><path
           id="path31"
           d="m -297.15756,-8.7621524 c -0.0267,0.9331286 -0.47367,1.8536783 -1.22616,2.5260799 -0.63883,0.5706264 -1.40606,0.8782387 -2.18082,0.8782387 -0.0677,0 -0.1357,-0.00229 -0.20331,-0.00686 -1.19671,-0.084622 -2.37405,-0.8999659 -2.99919,-2.0800992 -0.75331,-1.4202767 -0.74391,-3.183616 0.0231,-4.387763 0.59696,-0.937703 1.60183,-1.438574 2.83008,-1.393976 1.92566,0.06289 3.80886,2.649583 3.75632,4.4643809"
           style="fill:#c1e364;fill-opacity:1;fill-rule:nonzero;stroke:none;stroke-width:0.0115165" /><path
           id="path44"
           d="m -300.74118,13.166371 c -0.068,-0.0011 -0.12294,-0.05603 -0.12294,-0.122359 0,-0.0034 3.5e-4,-0.03088 5.8e-4,-0.03431 0.055,-0.710139 0.19578,-1.349378 0.41881,-1.89942 0.46045,-1.1515451 1.46961,-2.3156688 2.92055,-2.1407072 1.03468,0.1166411 1.71909,0.8862435 2.13964,1.6078172 0.26502,-0.9079707 0.86198,-2.1853049 2.15542,-2.4940607 1.30781,-0.3121864 2.38216,0.5466122 3.01044,1.5369178 0.21816,-1.6890086 0.90524,-2.8714289 1.91347,-3.2716679 1.38181,-0.5500428 2.63187,0.4814303 3.34087,1.630688 0.30573,0.4917222 0.56124,1.0829324 0.75934,1.757621 0.0101,0.033163 0.005,0.069756 -0.0139,0.099488 -0.87103,1.3642428 -2.71631,1.8856978 -4.22616,2.1875918 -3.79738,0.761598 -7.69276,1.145827 -11.59081,1.145827 -0.23486,0 -0.47042,-0.0011 -0.70529,-0.0034"
           style="fill:#94c848;fill-opacity:1;fill-rule:nonzero;stroke:none;stroke-width:0.0115165" /><path
           id="path112"
           d="m -291.47373,1.4199278 c -2.36082,0.098344 -4.90535,0.2252773 -7.516,0.4860045 -0.011,0.00114 -0.0218,0.00114 -0.0325,0.00114 -0.15599,0 -0.28415,-0.1132105 -0.31048,-0.2801673 -0.0295,-0.1852535 0.0743,-0.3453491 0.24669,-0.3819424 2.57006,-0.54318146 5.20506,-0.68955458 7.6212,-0.42196622 0.16678,0.0182966 0.28857,0.1543779 0.28277,0.31676062 -0.005,0.1578085 -0.12526,0.273306 -0.2917,0.2801673"
           style="fill:#2f5d45;fill-opacity:1;fill-rule:nonzero;stroke:none;stroke-width:0.0115165" /><path
           id="path113"
           d="m -291.67461,-7.4047704 c 0.0555,-0.066325 0.14266,-0.1086363 0.23834,-0.1166411 0.16748,-0.011435 0.31397,0.084622 0.34319,0.2412869 0.0634,0.343062 0.12469,0.6895547 0.18604,1.0383344 0.50928,2.8874385 1.03607,5.8732214 3.13837,8.0322249 0.36395,0.3739376 0.75307,0.7181431 1.12931,1.0509133 1.11274,0.9845879 2.164,1.9154295 2.52969,3.4946582 0.005,0.024014 0.008,0.045742 0.009,0.065182 0.0125,0.2046937 -0.14382,0.3396314 -0.30492,0.3670763 -0.0216,0.00343 -0.0431,0.00572 -0.064,0.00572 -0.15507,0 -0.28682,-0.097201 -0.33171,-0.2527223 -0.38575,-1.3333676 -1.35919,-2.3774197 -2.40767,-3.4168975 l -0.27349,-0.271019 c -0.92322,-0.9102578 -1.87775,-1.85024772 -2.46196,-3.0017925 -0.54836,-1.0817888 -0.96601,-2.2927977 -1.2765,-3.701639 -0.20993,-0.9525688 -0.3745,-2.0080562 -0.51739,-3.3219837 -0.008,-0.078904 0.0133,-0.1532343 0.0637,-0.2126984"
           style="fill:#2f5d45;fill-opacity:1;fill-rule:nonzero;stroke:none;stroke-width:0.0115165" /></g><g
         id="g5"><path
           id="path6"
           d="m -416.08882,11.520817 c 0.88262,-0.706708 1.7954,-1.43743 2.49362,-2.332822 1.71073,-2.1933097 2.02969,-5.2145424 2.28717,-7.6411343 0.0858,-0.80733924 0.19137,-1.79307072 0.31431,-2.9217447 0.007,-0.066325 0.0591,-0.1132105 0.13454,-0.1097798 0.0673,0.00686 0.11714,0.065182 0.1125,0.1315071 -0.0255,0.3510667 -0.0499,0.70098998 -0.0742,1.0532003 -0.003,0.0365933 0.0464,0.0434545 0.0557,0.0457416 0.0174,0.001144 0.0534,0.002287 0.058,-0.027445 1.63536,-9.5131092 2.72095,-20.0634092 3.22663,-31.3581542 10e-4,-0.01258 0,-0.02973 -0.009,-0.04002 -0.0244,-0.02516 -0.0974,-0.01715 -0.13222,-0.05603 -0.0232,-0.02516 -0.0336,-0.05946 -0.0301,-0.09377 l 0.41985,-3.833146 c 0.005,-0.05032 0.0406,-0.09148 0.0893,-0.105206 0.0487,-0.01372 0.10207,0.0034 0.13222,0.04345 0.8142,1.052057 1.66203,2.061803 2.38344,2.91031 4.05822,4.771992 9.03386,8.872727 14.78774,12.187849 2.57829,1.485459 5.33983,2.854276 8.20923,4.071003 0.0499,0.02058 0.0789,0.0709 0.0742,0.124645 -0.087,0.848507 -0.18094,1.719885 -0.27952,2.609559 -0.006,0.04917 -0.0417,0.09034 -0.0905,0.104062 -0.0487,0.01487 -0.1009,-0.0034 -0.13222,-0.04231 -0.008,-0.01144 -0.0371,-0.0183 -0.0673,-0.0091 -0.0255,0.0069 -0.0568,0.02402 -0.0626,0.06861 -0.20529,1.689008 -0.42101,3.384878 -0.63674,5.0853223 -0.85943,6.7754745 -1.74901,13.781944 -2.04825,20.6271747 -10e-4,0.02058 0.005,0.03659 0.0174,0.05032 0.022,0.02516 0.0325,0.05832 0.0302,0.09148 -0.0452,0.535176 -0.087,1.055487 -0.12295,1.559788 -0.1067,1.517478 -0.22732,3.238506 -1.04036,4.695376 -1.31756,2.381993 -4.20784,3.749667 -8.83669,4.181925 -0.2598,0.02402 -0.52076,0.04688 -0.78172,0.06861 -0.003,0 -0.007,0 -0.0104,0 -0.0336,0 -0.0661,-0.01372 -0.0905,-0.03888 -0.0255,-0.0263 -0.0371,-0.06404 -0.0325,-0.100631 0.003,-0.01944 -10e-4,-0.04002 -0.0104,-0.05032 -0.008,-0.0091 -0.022,-0.01372 -0.0429,-0.01258 -0.44653,0.01258 -0.9035,0.02516 -1.36859,0.03888 -1.27001,0.03774 -2.58293,0.07547 -3.93992,0.09034 h -0.002 c -0.065,0 -0.1183,-0.04917 -0.1241,-0.11321 -0.008,-0.10978 -0.0174,-0.214986 -0.0267,-0.312187 l -0.008,-0.08234 c -0.0522,-0.727291 -0.19833,-1.390544 -0.43261,-1.97375 -0.45929,-1.14697 -1.45674,-2.313381 -2.87172,-2.147568 -1.14591,0.132651 -1.865,1.103516 -2.2663,1.893702 -0.0232,0.04574 -0.0731,0.07319 -0.12526,0.06747 -0.051,-0.0057 -0.0939,-0.04345 -0.1067,-0.09377 -0.21805,-0.907971 -0.79564,-2.482625 -2.2199,-2.825687 -1.38483,-0.331627 -2.51566,0.712425 -3.10949,1.795358 l -0.0429,0.09148 c -0.0244,0.05031 -0.08,0.0789 -0.13454,0.06861 -0.0557,-0.0091 -0.0974,-0.05489 -0.10206,-0.10978 -0.0777,-0.918262 -0.4245,-3.12072 -1.94851,-3.726797 -1.33611,-0.524884 -2.56901,0.514593 -3.27882,1.659277 -0.34562,0.567196 -0.63326,1.246459 -0.85363,2.019492 -0.0116,0.03888 -0.0406,0.06976 -0.0789,0.08233 -0.0383,0.01372 -0.08,0.008 -0.11367,-0.01601 -0.0673,-0.04688 -0.13454,-0.09491 -0.20181,-0.144086 -0.0197,-0.01487 -0.0371,-0.02058 -0.0626,-0.0011 -0.029,0.02173 -0.065,0.02973 -0.10206,0.02287 -0.0348,-0.008 -0.065,-0.02973 -0.0824,-0.06175 -0.0441,-0.07776 -0.0847,-0.157809 -0.12294,-0.241287 -0.86639,-1.901707 0.32823,-4.071002 1.61563,-5.351767 0.56484,-0.564909 1.20158,-1.073784 1.81629,-1.565506"
           style="fill:#a9db5a;fill-opacity:1;fill-rule:nonzero;stroke:none;stroke-width:0.0115165" /><path
           id="path22"
           d="m -405.89398,-22.062666 c 0.64022,-0.543182 1.39643,-0.705564 2.12828,-0.456273 0.93365,0.317905 1.70725,1.254464 1.92414,2.330535 0.18093,0.895392 -0.0928,1.830807 -0.69705,2.384281 -0.39202,0.359071 -0.92206,0.55233 -1.50545,0.55233 -0.051,0 -0.10207,-0.0011 -0.15426,-0.0034 -0.69589,-0.04002 -1.33727,-0.343062 -1.75945,-0.831354 -0.81884,-0.946851 -0.9383,-3.126438 0.0638,-3.976088"
           style="fill:#c1e364;fill-opacity:1;fill-rule:nonzero;stroke:none;stroke-width:0.0115165" /><path
           id="path23"
           d="m -396.62003,-6.7449478 c 0.76432,-0.514593 1.74437,-0.6335212 2.49825,-0.3030381 0.5312,0.2332821 0.9441,0.6918417 1.16215,1.2899131 0.23544,0.6472436 0.20413,1.3470901 -0.0858,1.9222907 -0.44537,0.8839564 -1.78961,1.6741426 -2.91812,1.6741426 -0.29227,0 -0.57063,-0.053746 -0.81535,-0.1726746 -0.75852,-0.3670763 -1.20622,-0.9891621 -1.26073,-1.7507597 -0.0707,-0.972009 0.49989,-2.0412189 1.41963,-2.659874"
           style="fill:#c1e364;fill-opacity:1;fill-rule:nonzero;stroke:none;stroke-width:0.0115165" /><path
           id="path24"
           d="m -390.11459,-9.9903144 c 0.35955,-0.014866 0.65762,0.1235024 0.83855,0.3968084 0.22617,0.3419185 0.23893,0.8462196 0.0325,1.2533199 -0.17745,0.3487797 -0.50684,0.5843489 -0.85943,0.6152245 -0.0255,0.00229 -0.051,0.00343 -0.0765,0.00343 -0.22268,0 -0.44305,-0.085765 -0.62862,-0.2447176 -0.22153,-0.1909711 -0.35607,-0.4562724 -0.36883,-0.7284349 -0.0244,-0.5306026 0.49641,-1.2681859 1.0624,-1.2956309"
           style="fill:#c1e364;fill-opacity:1;fill-rule:nonzero;stroke:none;stroke-width:0.0115165" /><path
           id="path25"
           d="m -392.39828,0.111718 c 0.46393,-0.02172726 0.84667,0.15780852 1.07864,0.51001884 0.29459,0.44254996 0.31083,1.09665486 0.0417,1.62725746 -0.22965,0.4516983 -0.6553,0.7558799 -1.11111,0.7959038 -0.0313,0.00229 -0.0638,0.00457 -0.0963,0.00457 -0.28647,0 -0.57063,-0.1109234 -0.80955,-0.3167606 -0.28648,-0.2458611 -0.46045,-0.5889231 -0.47669,-0.9399899 -0.0313,-0.6735451 0.6553,-1.64555406 1.37323,-1.6810038"
           style="fill:#c1e364;fill-opacity:1;fill-rule:nonzero;stroke:none;stroke-width:0.0115165" /><path
           id="path26"
           d="m -395.53676,-20.16782 c 1.5472,-0.0446 2.80793,0.599215 3.55022,1.786209 0.95337,1.528913 0.94293,3.756529 -0.0255,5.542738 -0.8026,1.480885 -2.29761,2.497492 -3.8077,2.588975 -0.0742,0.0046 -0.14845,0.0069 -0.22152,0.0069 -0.98817,0 -1.96474,-0.396808 -2.77198,-1.132104 -0.94178,-0.856512 -1.49385,-2.022923 -1.51705,-3.199625 -0.0441,-2.292798 2.36372,-5.538164 4.79355,-5.593054"
           style="fill:#c1e364;fill-opacity:1;fill-rule:nonzero;stroke:none;stroke-width:0.0115165" /><path
           id="path45"
           d="m -418.11503,16.650737 c 0.762,-1.231593 2.10391,-2.339683 3.58385,-1.759908 1.08675,0.432258 1.82788,1.711879 2.06216,3.541543 0.67154,-1.071497 1.82904,-2.009199 3.24055,-1.671855 1.39875,0.338488 2.04129,1.726745 2.32312,2.702185 0.59963,-1.040622 1.39295,-1.642124 2.30689,-1.748473 1.56112,-0.182966 2.63976,1.06921 3.13268,2.300803 0.24473,0.606076 0.3955,1.294487 0.45002,2.043506 l 0.007,0.08005 c 0.009,0.09835 0.0197,0.205838 0.0278,0.317905 0.002,0.03316 -0.009,0.06633 -0.0325,0.09148 -0.0232,0.02401 -0.0557,0.03888 -0.0893,0.03888 -0.3839,0.0046 -0.76896,0.0069 -1.1575,0.0069 -5.82464,0 -12.18163,-0.542038 -16.6887,-3.730227 -0.0429,-0.02973 -0.0615,-0.08234 -0.0476,-0.132651 0.22733,-0.79476 0.52308,-1.493463 0.88147,-2.080099"
           style="fill:#94c848;fill-opacity:1;fill-rule:nonzero;stroke:none;stroke-width:0.0115165" /><path
           id="path109"
           d="m -382.4354,-13.728547 c 0.0162,-0.133794 0.10902,-0.240143 0.2424,-0.276736 0.12758,-0.03659 0.25748,0.0023 0.33055,0.09377 0.0452,0.05603 0.0661,0.126933 0.0592,0.206981 -0.0905,1.174415 -0.17861,2.353405 -0.26676,3.534682 -0.15773,2.1098312 -0.32127,4.2917055 -0.49872,6.4438478 -0.36302,4.40605958 -0.90466,10.1855107 -1.86383,15.8128712 -0.0209,0.121215 -0.10439,0.213842 -0.22501,0.247005 -0.0325,0.0091 -0.0661,0.01372 -0.0997,0.01372 -0.10902,0 -0.21688,-0.0446 -0.28531,-0.122359 -0.0557,-0.06175 -0.0823,-0.138368 -0.0789,-0.22299 0.30039,-6.8555224 1.18998,-13.8665661 2.04941,-20.6477583 0.21688,-1.6993007 0.43145,-3.3951707 0.63674,-5.0830357"
           style="fill:#2f5d45;fill-opacity:1;fill-rule:nonzero;stroke:none;stroke-width:0.0115165" /><path
           id="path110"
           d="m -419.36416,18.523856 c 0.11134,-0.08462 0.25052,-0.08348 0.36302,-0.0011 0.065,0.04803 0.13106,0.09491 0.19717,0.141799 4.74948,3.35972 11.61099,3.742806 17.69774,3.677625 1.35467,-0.01487 2.66643,-0.05375 3.93528,-0.09034 0.46625,-0.01372 0.92322,-0.0263 1.36975,-0.03888 0.10554,-0.01144 0.17861,0.03088 0.23544,0.09377 0.058,0.06518 0.0847,0.155521 0.0719,0.248148 -0.0209,0.149804 -0.13802,0.261871 -0.29227,0.27788 -1.65971,0.165814 -3.37045,0.249292 -5.12294,0.249292 -2.85548,0 -5.82463,-0.220703 -8.87497,-0.659823 l -0.20181,-0.02973 c -3.01785,-0.433401 -7.1503,-1.028042 -9.43284,-3.360864 -0.065,-0.06632 -0.0963,-0.153234 -0.0893,-0.245861 0.008,-0.102918 0.0615,-0.200119 0.14382,-0.26187"
           style="fill:#2f5d45;fill-opacity:1;fill-rule:nonzero;stroke:none;stroke-width:0.0115165" /><path
           id="path114"
           d="m -400.27928,11.551692 c -0.0255,0 -0.0533,-0.0034 -0.0812,-0.01143 -3.30318,-0.850794 -6.62955,-1.199574 -10.47553,-1.097799 -0.003,0 -0.007,0 -0.0104,0 -0.20181,0 -0.32591,-0.170387 -0.33983,-0.333913 -0.0151,-0.1818232 0.0951,-0.3259092 0.26908,-0.3499236 3.50846,-0.4894351 7.21758,-0.068612 10.72488,1.2167266 0.17861,0.06518 0.22965,0.24243 0.18673,0.376225 -0.0394,0.123502 -0.14846,0.200119 -0.27372,0.200119"
           style="fill:#2f5d45;fill-opacity:1;fill-rule:nonzero;stroke:none;stroke-width:0.0115165" /><path
           id="path115"
           d="m -410.75132,-0.0083537 c -0.0151,0 -0.029,-0.00114354 -0.0429,-0.00343062 -0.1705,-0.01944018 -0.28532,-0.1486602 -0.27488,-0.30532518 0.0232,-0.35106678 0.0487,-0.7021336 0.0742,-1.0543439 0.44305,-6.0550443 1.1459,-12.2164376 1.8244,-18.1754246 0.45233,-3.968084 0.9209,-8.071105 1.30596,-12.098653 0.0186,-0.192115 0.18325,-0.29389 0.33171,-0.29389 0.002,0 0.005,0 0.007,0 0.0858,0.0023 0.16237,0.03545 0.21689,0.09263 0.0545,0.05603 0.0812,0.131507 0.0765,0.217272 0,0.0011 0,0.0011 0,0.0011 -0.50684,11.303893 -1.59243,21.8644846 -3.2301,31.38788568 -0.0232,0.13951188 -0.14266,0.23213862 -0.2888,0.23213862"
           style="fill:#2f5d45;fill-opacity:1;fill-rule:nonzero;stroke:none;stroke-width:0.0115165" /></g><path
         id="path116"
         d="m -236.46611,-80.209388 c -0.16504,0.128076 -0.38239,0.194402 -0.59754,0.194402 -0.1524,0 -0.30352,-0.03316 -0.43424,-0.101775 -0.26014,-0.136082 -0.397,-0.38766 -0.3752,-0.690698 0.0225,-0.308756 0.0732,-0.588924 0.12689,-0.887388 0.0194,-0.106349 0.0388,-0.214985 0.0571,-0.324765 l 0.0319,-0.20355 c 0.056,-0.37165 0.10949,-0.723861 0.32104,-1.071497 0.22768,-0.373938 0.67282,-0.569483 1.13443,-0.503158 0.43678,0.06518 0.7707,0.359072 0.87172,0.767316 0.25249,1.016607 -0.37903,2.233333 -1.13605,2.821113"
         style="fill:#2f5d45;fill-opacity:1;fill-rule:nonzero;stroke:none;stroke-width:0.0115165" /></g></g></svg>
