<?xml version="1.0" encoding="UTF-8" standalone="no"?>
<!-- Created with Inkscape (http://www.inkscape.org/) -->

<svg
   width="210mm"
   height="297mm"
   viewBox="0 0 210 297"
   version="1.1"
   id="svg1"
   xml:space="preserve"
   inkscape:version="1.4.3 (fcd0343856, 2026-01-01)"
   sodipodi:docname="Balloons.svg"
   xmlns:inkscape="http://www.inkscape.org/namespaces/inkscape"
   xmlns:sodipodi="http://sodipodi.sourceforge.net/DTD/sodipodi-0.dtd"
   xmlns="http://www.w3.org/2000/svg"
   xmlns:svg="http://www.w3.org/2000/svg"><sodipodi:namedview
     id="namedview1"
     pagecolor="#ffffff"
     bordercolor="#000000"
     borderopacity="0.25"
     inkscape:showpageshadow="2"
     inkscape:pageopacity="0.0"
     inkscape:pagecheckerboard="0"
     inkscape:deskcolor="#d1d1d1"
     inkscape:document-units="mm"
     inkscape:zoom="0.52023539"
     inkscape:cx="400.78012"
     inkscape:cy="529.56797"
     inkscape:window-width="1033"
     inkscape:window-height="991"
     inkscape:window-x="26"
     inkscape:window-y="23"
     inkscape:window-maximized="0"
     inkscape:current-layer="layer1" /><defs
     id="defs1">
	
	

		
		
		
			
		
			
		
			
		
		
	</defs><g
     inkscape:label="Layer 1"
     inkscape:groupmode="layer"
     id="layer1"><g
       id="g1"
       inkscape:export-filename="purple.svg"
       inkscape:export-xdpi="96"
       inkscape:export-ydpi="96"><path
         style="fill:#8563a7;stroke-width:0.0584031"
         d="m 165.52489,88.330811 c 0,-21.026353 -13.62814,-35.198281 -30.43936,-35.198281 -16.81123,0 -30.43936,14.171928 -30.43936,35.198281 0,23.680889 18.10041,39.763129 28.77487,41.351869 -0.0936,0.15354 -0.0308,0.3979 0.19793,0.38377 0.0374,-0.002 0.0757,-0.004 0.1133,-0.006 -0.75054,1.37598 -1.40448,3.22794 -1.2145,3.67339 0.31112,0.72963 4.66741,0.9442 5.15028,0 0.28431,-0.55606 -0.3357,-2.27276 -1.08413,-3.59051 1.14803,0.16487 2.25337,0.53071 3.14536,1.25969 1.39268,1.13822 1.84402,2.91088 1.85552,4.64335 0.007,1.08004 -0.16907,2.14701 -0.53894,3.16241 -0.31748,0.87143 -0.77402,1.68248 -1.26239,2.46806 -0.95313,1.53343 -2.01525,3.0324 -2.369,4.83969 -0.21399,1.09307 -0.17398,2.20904 0.0327,3.30007 0.2029,1.07076 0.68443,2.0357 1.40489,2.85322 1.29048,1.4644 3.18887,2.36305 5.12266,2.62108 0.12457,2.16161 1.41791,4.11678 3.22163,5.30656 0.51459,0.33944 1.0686,0.61201 1.64492,0.82962 0.3037,0.1147 0.43487,-0.3722 0.13398,-0.4858 -2.16845,-0.81887 -3.9821,-2.65039 -4.41808,-4.97285 -0.0384,-0.20429 -0.0619,-0.41378 -0.0775,-0.62485 0.12463,0.009 0.24926,0.017 0.37361,0.0211 1.12104,0.036 2.33279,-0.1331 3.33382,-0.66375 0.92517,-0.49041 1.66145,-1.3139 2.05532,-2.28228 0.30247,-0.74353 0.42086,-1.70899 -0.0477,-2.41392 -0.54105,-0.8139 -1.60591,-0.97346 -2.47781,-0.66889 -1.05307,0.36783 -1.91942,1.18886 -2.57494,2.06823 -0.68921,0.92447 -1.08519,1.97987 -1.16631,3.13181 -0.006,0.0831 -0.005,0.1654 -0.008,0.24804 -1.73013,-0.24448 -3.41016,-1.03619 -4.60736,-2.30354 -0.69891,-0.73985 -1.19137,-1.63844 -1.39589,-2.6376 -0.21031,-1.02725 -0.26936,-2.09737 -0.0758,-3.13222 0.32641,-1.74479 1.33469,-3.19085 2.25886,-4.66571 0.48071,-0.7673 0.92726,-1.55416 1.26641,-2.39546 0.38494,-0.95495 0.60459,-1.96713 0.66031,-2.99509 0.0961,-1.77276 -0.21686,-3.68185 -1.41932,-5.05718 -1.01761,-1.16392 -2.49533,-1.71226 -3.99711,-1.93712 9.87019,-1.79093 28.86692,-19.22391 28.86692,-41.329089 z m -20.59633,64.393419 c 0.45332,-0.95757 1.17921,-1.84209 2.05398,-2.44388 0.71812,-0.49403 1.69077,-0.86804 2.48336,-0.31572 0.59337,0.41349 0.61486,1.22483 0.43825,1.88367 -0.24406,0.91033 -0.86466,1.71846 -1.65164,2.22937 -0.89894,0.58356 -2.0305,0.78015 -3.08725,0.78698 -0.23332,0.002 -0.46751,-0.009 -0.70153,-0.0278 0.0106,-0.73021 0.15809,-1.46475 0.46483,-2.11262 z"
         id="path1" /><path
         style="fill:#714d9a;stroke-width:0.0584031"
         d="m 153.19926,118.47862 c -10.16717,1.94016 -19.84685,0.87885 -27.88604,-3.69516 -12.10784,-7.175 -18.06695,-24.056719 -19.31006,-37.437635 -5.2e-4,-0.0058 -10e-4,-0.0118 -0.002,-0.01764 -0.0999,0.385227 -0.19279,0.775244 -0.28214,1.167713 -0.017,0.07481 -0.0341,0.149512 -0.0506,0.22456 -0.17515,0.79072 -0.32857,1.595924 -0.45987,2.415027 -0.0137,0.08486 -0.0271,0.169662 -0.0403,0.254755 -0.0634,0.410924 -0.12277,0.824243 -0.1748,1.242059 -1.2e-4,9.93e-4 -1.8e-4,0.002 -3e-4,0.003 -0.0509,0.408822 -0.0944,0.822083 -0.13432,1.237329 -0.009,0.09707 -0.0184,0.194249 -0.0271,0.291607 -0.0376,0.419743 -0.0714,0.841647 -0.0975,1.267756 -2.9e-4,0.0053 -4.6e-4,0.01063 -8.1e-4,0.01589 -0.0255,0.417349 -0.0435,0.838727 -0.0578,1.262033 -0.004,0.106761 -0.007,0.213639 -0.01,0.32075 -0.0117,0.430665 -0.0197,0.863315 -0.0197,1.299937 0,23.680899 18.10042,39.763119 28.77488,41.351869 0.0392,-0.0643 0.10284,-0.11418 0.19792,-0.12008 0.13836,-0.009 0.27684,-0.0152 0.41537,-0.021 0.49309,-0.0204 0.98695,-0.0224 1.47999,0.004 0.2457,0.013 0.4938,0.0333 0.7423,0.0613 0.13381,0.0151 0.26767,0.0331 0.40141,0.0531 0.0879,-0.0159 0.17509,-0.0308 0.26439,-0.0492 0.0743,-0.0153 0.15033,-0.0338 0.22567,-0.0509 0.0899,-0.0203 0.1793,-0.0397 0.27052,-0.0625 0.0783,-0.0195 0.15816,-0.042 0.23741,-0.0633 0.0904,-0.0243 0.18029,-0.0478 0.27187,-0.0743 0.0819,-0.0238 0.16516,-0.0503 0.24804,-0.0759 0.0909,-0.0281 0.18151,-0.0555 0.27362,-0.0857 0.0856,-0.0281 0.17246,-0.0589 0.25901,-0.0889 0.0911,-0.0316 0.18199,-0.0626 0.27409,-0.0963 0.0892,-0.0326 0.17965,-0.0677 0.26982,-0.1022 0.0912,-0.0349 0.18222,-0.0694 0.27432,-0.10635 0.0919,-0.0369 0.18479,-0.0759 0.27753,-0.11465 0.0925,-0.0387 0.18491,-0.0771 0.27824,-0.11762 0.0938,-0.0408 0.18846,-0.0836 0.28308,-0.12633 0.0936,-0.0422 0.18718,-0.0844 0.2815,-0.12849 0.0965,-0.0451 0.19384,-0.0922 0.2912,-0.13923 0.0934,-0.0452 0.18683,-0.0905 0.28103,-0.13748 0.0999,-0.0499 0.20038,-0.10151 0.30101,-0.15337 0.093,-0.048 0.18613,-0.0961 0.27975,-0.14577 0.10238,-0.0543 0.20523,-0.11015 0.3082,-0.16645 0.0933,-0.051 0.18665,-0.10226 0.28051,-0.15489 0.10454,-0.0586 0.20949,-0.11873 0.31461,-0.17935 0.0933,-0.0538 0.18666,-0.10805 0.28046,-0.16347 0.10652,-0.063 0.21346,-0.1272 0.32051,-0.19221 0.0935,-0.0567 0.18718,-0.11406 0.2811,-0.17234 0.10833,-0.0672 0.21696,-0.13556 0.32583,-0.20482 0.0933,-0.0593 0.18665,-0.11938 0.28016,-0.18024 0.11067,-0.0719 0.22152,-0.14478 0.33255,-0.21872 0.0919,-0.0612 0.18402,-0.12323 0.27624,-0.18583 0.11365,-0.0772 0.22742,-0.15518 0.34149,-0.23449 0.0905,-0.0629 0.18104,-0.12674 0.27169,-0.19098 0.11563,-0.0819 0.23145,-0.16452 0.34744,-0.24857 0.0898,-0.0651 0.17976,-0.13123 0.2697,-0.19757 0.11745,-0.0866 0.23496,-0.17375 0.35258,-0.26246 0.0884,-0.0667 0.17685,-0.13444 0.26539,-0.20231 0.11972,-0.0918 0.23945,-0.18402 0.35941,-0.27799 0.0868,-0.068 0.17369,-0.13738 0.26059,-0.20659 0.12137,-0.0966 0.24279,-0.1936 0.36426,-0.29247 0.0859,-0.0699 0.17159,-0.14105 0.25739,-0.21194 0.12264,-0.10139 0.24535,-0.2029 0.36799,-0.30644 0.0841,-0.071 0.16815,-0.14344 0.25219,-0.21545 0.12492,-0.107 0.24985,-0.21412 0.37466,-0.32332 0.0805,-0.0705 0.16095,-0.14251 0.24149,-0.21393 0.12785,-0.11348 0.25563,-0.2269 0.38336,-0.34271 0.0781,-0.0709 0.15605,-0.14327 0.23408,-0.21493 0.1296,-0.11908 0.25919,-0.23805 0.3885,-0.35953 0.0752,-0.0706 0.15009,-0.14285 0.22514,-0.21422 0.13199,-0.12563 0.2641,-0.25102 0.3958,-0.37904 0.0704,-0.0684 0.14052,-0.13859 0.21078,-0.20779 0.13584,-0.13369 0.27175,-0.26721 0.40712,-0.40346 0.0645,-0.0649 0.12855,-0.13141 0.19291,-0.19694 0.1404,-0.14291 0.2808,-0.28565 0.42062,-0.43125 0.0564,-0.0588 0.11243,-0.1192 0.16878,-0.17848 0.14712,-0.15477 0.2943,-0.30965 0.4406,-0.46746 0.0409,-0.0441 0.0813,-0.0894 0.12212,-0.13374 0.16131,-0.17521 0.32244,-0.35094 0.48258,-0.52977 6e-5,0 0,0 0,-5.9e-4 z"
         id="path2" /><path
         style="fill:#714d9a;stroke-width:0.0584031"
         d="m 133.73221,130.06032 c -0.75054,1.37597 -1.40448,3.22794 -1.21449,3.67338 0.31111,0.72963 4.6674,0.9442 5.15028,0 0.2843,-0.55606 -0.3357,-2.27276 -1.08414,-3.59051 -0.95367,-0.13701 -1.93589,-0.13532 -2.85165,-0.0829 z"
         id="path3" /><ellipse
         transform="rotate(-23.660548)"
         style="fill:#946dad;stroke-width:0.0584006"
         cx="98.068153"
         cy="130.9704"
         rx="20.881557"
         ry="26.374838"
         id="ellipse3" /><path
         style="fill:#3b2742;stroke-width:0.0584031"
         d="m 135.51432,129.54526 c -0.49304,-0.0261 -0.98684,-0.0241 -1.47999,-0.004 -0.13853,0.006 -0.27707,0.0124 -0.41536,0.021 -0.0951,0.006 -0.15874,0.0558 -0.19793,0.12008 -0.0936,0.15354 -0.0308,0.3979 0.19793,0.38377 0.0374,-0.002 0.0757,-0.004 0.1133,-0.006 0.91576,-0.0525 1.89798,-0.0541 2.85171,0.0828 1.14803,0.16487 2.25336,0.53071 3.14535,1.2597 1.39269,1.13821 1.84403,2.91087 1.85553,4.64334 0.007,1.08005 -0.16908,2.14701 -0.53894,3.16241 -0.31748,0.87143 -0.77402,1.68248 -1.26239,2.46806 -0.95314,1.53343 -2.01526,3.0324 -2.369,4.83969 -0.21399,1.09307 -0.17399,2.20904 0.0327,3.30007 0.2029,1.07076 0.68443,2.0357 1.40489,2.85323 1.29048,1.4644 3.18887,2.36304 5.12266,2.62107 0.12457,2.16162 1.41791,4.11678 3.22163,5.30657 0.51459,0.33944 1.0686,0.612 1.64492,0.82961 0.3037,0.11471 0.43487,-0.3722 0.13398,-0.48579 -2.16845,-0.81888 -3.9821,-2.6504 -4.41808,-4.97286 -0.0384,-0.20429 -0.0618,-0.41378 -0.0775,-0.62485 0.12463,0.009 0.24926,0.0171 0.3736,0.0211 1.12105,0.036 2.3328,-0.1331 3.33383,-0.66375 0.92516,-0.49041 1.66145,-1.31389 2.05532,-2.28228 0.30247,-0.74353 0.42086,-1.70899 -0.0477,-2.41391 -0.54105,-0.81391 -1.60591,-0.97347 -2.47781,-0.6689 -1.05307,0.36783 -1.91942,1.18886 -2.57494,2.06823 -0.68922,0.92447 -1.08519,1.97987 -1.16631,3.13181 -0.006,0.0831 -0.005,0.1654 -0.008,0.24804 -1.73013,-0.24447 -3.41016,-1.03619 -4.60736,-2.30353 -0.69891,-0.73986 -1.19137,-1.63845 -1.3959,-2.63761 -0.21031,-1.02725 -0.26935,-2.09737 -0.0758,-3.13222 0.32641,-1.74479 1.33468,-3.19085 2.25885,-4.6657 0.48072,-0.7673 0.92727,-1.55417 1.26642,-2.39547 0.38493,-0.95495 0.60459,-1.96713 0.6603,-2.99508 0.0961,-1.77277 -0.21685,-3.68185 -1.41931,-5.05719 -1.01756,-1.16386 -2.49527,-1.7122 -3.99699,-1.93712 -0.13375,-0.02 -0.26761,-0.038 -0.40141,-0.0531 -0.24862,-0.0281 -0.49672,-0.0485 -0.74242,-0.0614 z m 9.41424,23.17897 c 0.45332,-0.95757 1.17921,-1.84209 2.05398,-2.44388 0.71812,-0.49403 1.69077,-0.86804 2.48336,-0.31572 0.59337,0.41349 0.61486,1.22483 0.43825,1.88367 -0.24406,0.91033 -0.86466,1.71846 -1.65164,2.22937 -0.89894,0.58356 -2.0305,0.78015 -3.08725,0.78698 -0.23332,0.002 -0.46751,-0.009 -0.70153,-0.0278 0.0106,-0.73021 0.15809,-1.46475 0.46483,-2.11262 z"
         id="path6" /></g><g
       id="g2"
       inkscape:export-filename="yellow.svg"
       inkscape:export-xdpi="96"
       inkscape:export-ydpi="96"><path
         style="fill:#ebd228;stroke-width:0.0584031;fill-opacity:1"
         d="m 83.693838,89.787414 c 0,-21.026353 -13.62814,-35.198281 -30.43936,-35.198281 -16.81123,0 -30.43936,14.171928 -30.43936,35.198281 0,23.680886 18.10041,39.763126 28.77487,41.351866 -0.0936,0.15354 -0.0308,0.3979 0.19793,0.38377 0.0374,-0.002 0.0757,-0.004 0.1133,-0.006 -0.75054,1.37598 -1.40448,3.22794 -1.2145,3.67339 0.31112,0.72963 4.66741,0.9442 5.15028,0 0.28431,-0.55606 -0.3357,-2.27276 -1.08413,-3.59051 1.14803,0.16487 2.25337,0.53071 3.14536,1.25969 1.39268,1.13822 1.84402,2.91088 1.85552,4.64335 0.007,1.08004 -0.16907,2.14701 -0.53894,3.16241 -0.31748,0.87143 -0.77402,1.68248 -1.26239,2.46806 -0.95313,1.53343 -2.01525,3.0324 -2.369,4.83969 -0.21399,1.09307 -0.17398,2.20904 0.0327,3.30007 0.2029,1.07076 0.68443,2.0357 1.40489,2.85322 1.29048,1.4644 3.18887,2.36305 5.12266,2.62108 0.12457,2.16161 1.41791,4.11678 3.22163,5.30656 0.51459,0.33944 1.0686,0.61201 1.64492,0.82962 0.3037,0.1147 0.43487,-0.3722 0.13398,-0.4858 -2.16845,-0.81887 -3.9821,-2.65039 -4.41808,-4.97285 -0.0384,-0.20429 -0.0619,-0.41378 -0.0775,-0.62485 0.12463,0.009 0.24926,0.017 0.37361,0.0211 1.12104,0.036 2.33279,-0.1331 3.33382,-0.66375 0.92517,-0.49041 1.66145,-1.3139 2.05532,-2.28228 0.30247,-0.74353 0.42086,-1.70899 -0.0477,-2.41392 -0.54105,-0.8139 -1.60591,-0.97346 -2.47781,-0.66889 -1.05307,0.36783 -1.91942,1.18886 -2.57494,2.06823 -0.68921,0.92447 -1.08519,1.97987 -1.16631,3.13181 -0.006,0.0831 -0.005,0.1654 -0.008,0.24804 -1.73013,-0.24448 -3.41016,-1.03619 -4.60736,-2.30354 -0.69891,-0.73985 -1.19137,-1.63844 -1.39589,-2.6376 -0.21031,-1.02725 -0.26936,-2.09737 -0.0758,-3.13222 0.32641,-1.74479 1.33469,-3.19085 2.25886,-4.66571 0.48071,-0.7673 0.92726,-1.55416 1.26641,-2.39546 0.38494,-0.95495 0.60459,-1.96713 0.66031,-2.99509 0.0961,-1.77276 -0.21686,-3.68185 -1.41932,-5.05718 -1.01761,-1.16392 -2.49533,-1.71226 -3.99711,-1.93712 9.87019,-1.79093 28.86692,-19.22391 28.86692,-41.329086 z m -20.59633,64.393416 c 0.45332,-0.95757 1.17921,-1.84209 2.05398,-2.44388 0.71812,-0.49403 1.69077,-0.86804 2.48336,-0.31572 0.59337,0.41349 0.61486,1.22483 0.43825,1.88367 -0.24406,0.91033 -0.86466,1.71846 -1.65164,2.22937 -0.89894,0.58356 -2.0305,0.78015 -3.08725,0.78698 -0.23332,0.002 -0.46751,-0.009 -0.70153,-0.0278 0.0106,-0.73021 0.15809,-1.46475 0.46483,-2.11262 z"
         id="path1-5" /><path
         style="fill:#ffe632;stroke-width:0.0584031;fill-opacity:1"
         d="m 71.368208,119.93522 c -10.16717,1.94016 -19.84685,0.87885 -27.88604,-3.69516 -12.10784,-7.175 -18.06695,-24.056716 -19.31006,-37.437632 -5.2e-4,-0.0058 -0.001,-0.0118 -0.002,-0.01764 -0.0999,0.385227 -0.19279,0.775244 -0.28214,1.167713 -0.017,0.07481 -0.0341,0.149512 -0.0506,0.22456 -0.17515,0.79072 -0.32857,1.595924 -0.45987,2.415027 -0.0137,0.08486 -0.0271,0.169662 -0.0403,0.254755 -0.0634,0.410924 -0.12277,0.824243 -0.1748,1.242059 -1.2e-4,9.93e-4 -1.8e-4,0.002 -3e-4,0.003 -0.0509,0.408822 -0.0944,0.822083 -0.13432,1.237329 -0.009,0.09707 -0.0184,0.194249 -0.0271,0.291607 -0.0376,0.419743 -0.0714,0.841647 -0.0975,1.267756 -2.9e-4,0.0053 -4.6e-4,0.01063 -8.1e-4,0.01589 -0.0255,0.417349 -0.0435,0.838727 -0.0578,1.262033 -0.004,0.106761 -0.007,0.213639 -0.01,0.32075 -0.0117,0.430665 -0.0197,0.863315 -0.0197,1.299937 0,23.680896 18.10042,39.763116 28.77488,41.351866 0.0392,-0.0643 0.10284,-0.11418 0.19792,-0.12008 0.13836,-0.009 0.27684,-0.0152 0.41537,-0.021 0.49309,-0.0204 0.98695,-0.0224 1.47999,0.004 0.2457,0.013 0.4938,0.0333 0.7423,0.0613 0.13381,0.0151 0.26767,0.0331 0.40141,0.0531 0.0879,-0.0159 0.17509,-0.0308 0.26439,-0.0492 0.0743,-0.0153 0.15033,-0.0338 0.22567,-0.0509 0.0899,-0.0203 0.1793,-0.0397 0.27052,-0.0625 0.0783,-0.0195 0.15816,-0.042 0.23741,-0.0633 0.0904,-0.0243 0.18029,-0.0478 0.27187,-0.0743 0.0819,-0.0238 0.16516,-0.0503 0.24804,-0.0759 0.0909,-0.0281 0.18151,-0.0555 0.27362,-0.0857 0.0856,-0.0281 0.17246,-0.0589 0.25901,-0.0889 0.0911,-0.0316 0.18199,-0.0626 0.27409,-0.0963 0.0892,-0.0326 0.17965,-0.0677 0.26982,-0.1022 0.0912,-0.0349 0.18222,-0.0694 0.27432,-0.10635 0.0919,-0.0369 0.18479,-0.0759 0.27753,-0.11465 0.0925,-0.0387 0.18491,-0.0771 0.27824,-0.11762 0.0938,-0.0408 0.18846,-0.0836 0.28308,-0.12633 0.0936,-0.0422 0.18718,-0.0844 0.2815,-0.12849 0.0965,-0.0451 0.19384,-0.0922 0.2912,-0.13923 0.0934,-0.0452 0.18683,-0.0905 0.28103,-0.13748 0.0999,-0.0499 0.20038,-0.10151 0.30101,-0.15337 0.093,-0.048 0.18613,-0.0961 0.27975,-0.14577 0.10238,-0.0543 0.20523,-0.11015 0.3082,-0.16645 0.0933,-0.051 0.18665,-0.10226 0.28051,-0.15489 0.10454,-0.0586 0.20949,-0.11873 0.31461,-0.17935 0.0933,-0.0538 0.18666,-0.10805 0.28046,-0.16347 0.10652,-0.063 0.21346,-0.1272 0.32051,-0.19221 0.0935,-0.0567 0.18718,-0.11406 0.2811,-0.17234 0.10833,-0.0672 0.21696,-0.13556 0.32583,-0.20482 0.0933,-0.0593 0.18665,-0.11938 0.28016,-0.18024 0.11067,-0.0719 0.22152,-0.14478 0.33255,-0.21872 0.0919,-0.0612 0.18402,-0.12323 0.27624,-0.18583 0.11365,-0.0772 0.22742,-0.15518 0.34149,-0.23449 0.0905,-0.0629 0.18104,-0.12674 0.27169,-0.19098 0.11563,-0.0819 0.23145,-0.16452 0.34744,-0.24857 0.0898,-0.0651 0.17976,-0.13123 0.2697,-0.19757 0.11745,-0.0866 0.23496,-0.17375 0.35258,-0.26246 0.0884,-0.0667 0.17685,-0.13444 0.26539,-0.20231 0.11972,-0.0918 0.23945,-0.18402 0.35941,-0.27799 0.0868,-0.068 0.17369,-0.13738 0.26059,-0.20659 0.12137,-0.0966 0.24279,-0.1936 0.36426,-0.29247 0.0859,-0.0699 0.17159,-0.14105 0.25739,-0.21194 0.12264,-0.10139 0.24535,-0.2029 0.36799,-0.30644 0.0841,-0.071 0.16815,-0.14344 0.25219,-0.21545 0.12492,-0.107 0.24985,-0.21412 0.37466,-0.32332 0.0805,-0.0705 0.16095,-0.14251 0.24149,-0.21393 0.12785,-0.11348 0.25563,-0.2269 0.38336,-0.34271 0.0781,-0.0709 0.15605,-0.14327 0.23408,-0.21493 0.1296,-0.11908 0.25919,-0.23805 0.3885,-0.35953 0.0752,-0.0706 0.15009,-0.14285 0.22514,-0.21422 0.13199,-0.12563 0.2641,-0.25102 0.3958,-0.37904 0.0704,-0.0684 0.14052,-0.13859 0.21078,-0.20779 0.13584,-0.13369 0.27175,-0.26721 0.40712,-0.40346 0.0645,-0.0649 0.12855,-0.13141 0.19291,-0.19694 0.1404,-0.14291 0.2808,-0.28565 0.42062,-0.43125 0.0564,-0.0588 0.11243,-0.1192 0.16878,-0.17848 0.14712,-0.15477 0.2943,-0.30965 0.4406,-0.46746 0.0409,-0.0441 0.0813,-0.0894 0.12212,-0.13374 0.16131,-0.17521 0.32244,-0.35094 0.48258,-0.52977 6e-5,0 0,0 0,-5.9e-4 z"
         id="path2-6" /><path
         style="fill:#d2b914;stroke-width:0.0584031;fill-opacity:1"
         d="m 51.901158,131.51692 c -0.75054,1.37597 -1.40448,3.22794 -1.21449,3.67338 0.31111,0.72963 4.6674,0.9442 5.15028,0 0.2843,-0.55606 -0.3357,-2.27276 -1.08414,-3.59051 -0.95367,-0.13701 -1.93589,-0.13532 -2.85165,-0.0829 z"
         id="path3-2" /><ellipse
         transform="rotate(-23.660548)"
         style="fill:#ffe632;stroke-width:0.0584006;fill-opacity:1"
         cx="22.53133"
         cy="99.464348"
         rx="20.881557"
         ry="26.374838"
         id="ellipse3-9" /><path
         style="fill:#3b2742;stroke-width:0.0584031"
         d="m 53.683268,131.00186 c -0.49304,-0.0261 -0.98684,-0.0241 -1.47999,-0.004 -0.13853,0.006 -0.27707,0.0124 -0.41536,0.021 -0.0951,0.006 -0.15874,0.0558 -0.19793,0.12008 -0.0936,0.15354 -0.0308,0.3979 0.19793,0.38377 0.0374,-0.002 0.0757,-0.004 0.1133,-0.006 0.91576,-0.0525 1.89798,-0.0541 2.85171,0.0828 1.14803,0.16487 2.25336,0.53071 3.14535,1.2597 1.39269,1.13821 1.84403,2.91087 1.85553,4.64334 0.007,1.08005 -0.16908,2.14701 -0.53894,3.16241 -0.31748,0.87143 -0.77402,1.68248 -1.26239,2.46806 -0.95314,1.53343 -2.01526,3.0324 -2.369,4.83969 -0.21399,1.09307 -0.17399,2.20904 0.0327,3.30007 0.2029,1.07076 0.68443,2.0357 1.40489,2.85323 1.29048,1.4644 3.18887,2.36304 5.12266,2.62107 0.12457,2.16162 1.41791,4.11678 3.22163,5.30657 0.51459,0.33944 1.0686,0.612 1.64492,0.82961 0.3037,0.11471 0.43487,-0.3722 0.13398,-0.48579 -2.16845,-0.81888 -3.9821,-2.6504 -4.41808,-4.97286 -0.0384,-0.20429 -0.0618,-0.41378 -0.0775,-0.62485 0.12463,0.009 0.24926,0.0171 0.3736,0.0211 1.12105,0.036 2.3328,-0.1331 3.33383,-0.66375 0.92516,-0.49041 1.66145,-1.31389 2.05532,-2.28228 0.30247,-0.74353 0.42086,-1.70899 -0.0477,-2.41391 -0.54105,-0.81391 -1.60591,-0.97347 -2.47781,-0.6689 -1.05307,0.36783 -1.91942,1.18886 -2.57494,2.06823 -0.68922,0.92447 -1.08519,1.97987 -1.16631,3.13181 -0.006,0.0831 -0.005,0.1654 -0.008,0.24804 -1.73013,-0.24447 -3.41016,-1.03619 -4.60736,-2.30353 -0.69891,-0.73986 -1.19137,-1.63845 -1.3959,-2.63761 -0.21031,-1.02725 -0.26935,-2.09737 -0.0758,-3.13222 0.32641,-1.74479 1.33468,-3.19085 2.25885,-4.6657 0.48072,-0.7673 0.92727,-1.55417 1.26642,-2.39547 0.38493,-0.95495 0.60459,-1.96713 0.6603,-2.99508 0.0961,-1.77277 -0.21685,-3.68185 -1.41931,-5.05719 -1.01756,-1.16386 -2.49527,-1.7122 -3.99699,-1.93712 -0.13375,-0.02 -0.26761,-0.038 -0.40141,-0.0531 -0.24862,-0.0281 -0.49672,-0.0485 -0.74242,-0.0614 z m 9.41424,23.17897 c 0.45332,-0.95757 1.17921,-1.84209 2.05398,-2.44388 0.71812,-0.49403 1.69077,-0.86804 2.48336,-0.31572 0.59337,0.41349 0.61486,1.22483 0.43825,1.88367 -0.24406,0.91033 -0.86466,1.71846 -1.65164,2.22937 -0.89894,0.58356 -2.0305,0.78015 -3.08725,0.78698 -0.23332,0.002 -0.46751,-0.009 -0.70153,-0.0278 0.0106,-0.73021 0.15809,-1.46475 0.46483,-2.11262 z"
         id="path6-1" /></g><g
       id="g3"
       inkscape:export-filename="lime.svg"
       inkscape:export-xdpi="96"
       inkscape:export-ydpi="96"><path
         style="fill:#50eb28;fill-opacity:1;stroke-width:0.0584031"
         d="m 85.956621,209.00038 c 0,-21.02635 -13.62814,-35.19828 -30.43936,-35.19828 -16.81123,0 -30.43936,14.17193 -30.43936,35.19828 0,23.68089 18.10041,39.76313 28.77487,41.35187 -0.0936,0.15354 -0.0308,0.3979 0.19793,0.38377 0.0374,-0.002 0.0757,-0.004 0.1133,-0.006 -0.75054,1.37598 -1.40448,3.22794 -1.2145,3.67339 0.31112,0.72963 4.66741,0.9442 5.15028,0 0.28431,-0.55606 -0.3357,-2.27276 -1.08413,-3.59051 1.14803,0.16487 2.25337,0.53071 3.14536,1.25969 1.39268,1.13822 1.84402,2.91088 1.85552,4.64335 0.007,1.08004 -0.16907,2.14701 -0.53894,3.16241 -0.31748,0.87143 -0.77402,1.68248 -1.26239,2.46806 -0.95313,1.53343 -2.01525,3.0324 -2.369,4.83969 -0.21399,1.09307 -0.17398,2.20904 0.0327,3.30007 0.2029,1.07076 0.68443,2.0357 1.40489,2.85322 1.29048,1.4644 3.18887,2.36305 5.12266,2.62108 0.12457,2.16161 1.41791,4.11678 3.22163,5.30656 0.51459,0.33944 1.0686,0.61201 1.64492,0.82962 0.3037,0.1147 0.43487,-0.3722 0.13398,-0.4858 -2.16845,-0.81887 -3.9821,-2.65039 -4.41808,-4.97285 -0.0384,-0.20429 -0.0619,-0.41378 -0.0775,-0.62485 0.12463,0.009 0.24926,0.017 0.37361,0.0211 1.12104,0.036 2.33279,-0.1331 3.33382,-0.66375 0.92517,-0.49041 1.66145,-1.3139 2.05532,-2.28228 0.30247,-0.74353 0.42086,-1.70899 -0.0477,-2.41392 -0.54105,-0.8139 -1.60591,-0.97346 -2.47781,-0.66889 -1.05307,0.36783 -1.91942,1.18886 -2.57494,2.06823 -0.68921,0.92447 -1.08519,1.97987 -1.16631,3.13181 -0.006,0.0831 -0.005,0.1654 -0.008,0.24804 -1.73013,-0.24448 -3.41016,-1.03619 -4.60736,-2.30354 -0.69891,-0.73985 -1.19137,-1.63844 -1.39589,-2.6376 -0.21031,-1.02725 -0.26936,-2.09737 -0.0758,-3.13222 0.32641,-1.74479 1.33469,-3.19085 2.25886,-4.66571 0.48071,-0.7673 0.92726,-1.55416 1.26641,-2.39546 0.38494,-0.95495 0.60459,-1.96713 0.66031,-2.99509 0.0961,-1.77276 -0.21686,-3.68185 -1.41932,-5.05718 -1.01761,-1.16392 -2.49533,-1.71226 -3.99711,-1.93712 9.87019,-1.79093 28.86692,-19.22391 28.86692,-41.32909 z m -20.59633,64.39342 c 0.45332,-0.95757 1.17921,-1.84209 2.05398,-2.44388 0.71812,-0.49403 1.69077,-0.86804 2.48336,-0.31572 0.59337,0.41349 0.61486,1.22483 0.43825,1.88367 -0.24406,0.91033 -0.86466,1.71846 -1.65164,2.22937 -0.89894,0.58356 -2.0305,0.78015 -3.08725,0.78698 -0.23332,0.002 -0.46751,-0.009 -0.70153,-0.0278 0.0106,-0.73021 0.15809,-1.46475 0.46483,-2.11262 z"
         id="path1-5-6" /><path
         style="fill:#64ff32;fill-opacity:1;stroke-width:0.0584031"
         d="m 73.630991,239.14819 c -10.16717,1.94016 -19.84685,0.87885 -27.88604,-3.69516 -12.10784,-7.175 -18.06695,-24.05672 -19.31006,-37.43763 -5.2e-4,-0.006 -0.001,-0.0118 -0.002,-0.0176 -0.0999,0.38522 -0.19279,0.77524 -0.28214,1.16771 -0.017,0.0748 -0.0341,0.14951 -0.0506,0.22456 -0.17515,0.79072 -0.32857,1.59592 -0.45987,2.41503 -0.0137,0.0849 -0.0271,0.16966 -0.0403,0.25475 -0.0634,0.41093 -0.12277,0.82425 -0.1748,1.24206 -1.2e-4,9.9e-4 -1.8e-4,0.002 -3e-4,0.003 -0.0509,0.40882 -0.0944,0.82208 -0.13432,1.23733 -0.009,0.0971 -0.0184,0.19425 -0.0271,0.29161 -0.0376,0.41974 -0.0714,0.84164 -0.0975,1.26775 -2.9e-4,0.005 -4.6e-4,0.0106 -8.1e-4,0.0159 -0.0255,0.41735 -0.0435,0.83873 -0.0578,1.26204 -0.004,0.10676 -0.007,0.21364 -0.01,0.32075 -0.0117,0.43066 -0.0197,0.86331 -0.0197,1.29993 0,23.6809 18.10042,39.76312 28.77488,41.35187 0.0392,-0.0643 0.10284,-0.11418 0.19792,-0.12008 0.13836,-0.009 0.27684,-0.0152 0.41537,-0.021 0.49309,-0.0204 0.98695,-0.0224 1.47999,0.004 0.2457,0.013 0.4938,0.0333 0.7423,0.0613 0.13381,0.0151 0.26767,0.0331 0.40141,0.0531 0.0879,-0.0159 0.17509,-0.0308 0.26439,-0.0492 0.0743,-0.0153 0.15033,-0.0338 0.22567,-0.0509 0.0899,-0.0203 0.1793,-0.0397 0.27052,-0.0625 0.0783,-0.0195 0.15816,-0.042 0.23741,-0.0633 0.0904,-0.0243 0.18029,-0.0478 0.27187,-0.0743 0.0819,-0.0238 0.16516,-0.0503 0.24804,-0.0759 0.0909,-0.0281 0.18151,-0.0555 0.27362,-0.0857 0.0856,-0.0281 0.17246,-0.0589 0.25901,-0.0889 0.0911,-0.0316 0.18199,-0.0626 0.27409,-0.0963 0.0892,-0.0326 0.17965,-0.0677 0.26982,-0.1022 0.0912,-0.0349 0.18222,-0.0694 0.27432,-0.10635 0.0919,-0.0369 0.18479,-0.0759 0.27753,-0.11465 0.0925,-0.0387 0.18491,-0.0771 0.27824,-0.11762 0.0938,-0.0408 0.18846,-0.0836 0.28308,-0.12633 0.0936,-0.0422 0.18718,-0.0844 0.2815,-0.12849 0.0965,-0.0451 0.19384,-0.0922 0.2912,-0.13923 0.0934,-0.0452 0.18683,-0.0905 0.28103,-0.13748 0.0999,-0.0499 0.20038,-0.10151 0.30101,-0.15337 0.093,-0.048 0.18613,-0.0961 0.27975,-0.14577 0.10238,-0.0543 0.20523,-0.11015 0.3082,-0.16645 0.0933,-0.051 0.18665,-0.10226 0.28051,-0.15489 0.10454,-0.0586 0.20949,-0.11873 0.31461,-0.17935 0.0933,-0.0538 0.18666,-0.10805 0.28046,-0.16347 0.10652,-0.063 0.21346,-0.1272 0.32051,-0.19221 0.0935,-0.0567 0.18718,-0.11406 0.2811,-0.17234 0.10833,-0.0672 0.21696,-0.13556 0.32583,-0.20482 0.0933,-0.0593 0.18665,-0.11938 0.28016,-0.18024 0.11067,-0.0719 0.22152,-0.14478 0.33255,-0.21872 0.0919,-0.0612 0.18402,-0.12323 0.27624,-0.18583 0.11365,-0.0772 0.22742,-0.15518 0.34149,-0.23449 0.0905,-0.0629 0.18104,-0.12674 0.27169,-0.19098 0.11563,-0.0819 0.23145,-0.16452 0.34744,-0.24857 0.0898,-0.0651 0.17976,-0.13123 0.2697,-0.19757 0.11745,-0.0866 0.23496,-0.17375 0.35258,-0.26246 0.0884,-0.0667 0.17685,-0.13444 0.26539,-0.20231 0.11972,-0.0918 0.23945,-0.18402 0.35941,-0.27799 0.0868,-0.068 0.17369,-0.13738 0.26059,-0.20659 0.12137,-0.0966 0.24279,-0.1936 0.36426,-0.29247 0.0859,-0.0699 0.17159,-0.14105 0.25739,-0.21194 0.12264,-0.10139 0.24535,-0.2029 0.36799,-0.30644 0.0841,-0.071 0.16815,-0.14344 0.25219,-0.21545 0.12492,-0.107 0.24985,-0.21412 0.37466,-0.32332 0.0805,-0.0705 0.16095,-0.14251 0.24149,-0.21393 0.12785,-0.11348 0.25563,-0.2269 0.38336,-0.34271 0.0781,-0.0709 0.15605,-0.14327 0.23408,-0.21493 0.1296,-0.11908 0.25919,-0.23805 0.3885,-0.35953 0.0752,-0.0706 0.15009,-0.14285 0.22514,-0.21422 0.13199,-0.12563 0.2641,-0.25102 0.3958,-0.37904 0.0704,-0.0684 0.14052,-0.13859 0.21078,-0.20779 0.13584,-0.13369 0.27175,-0.26721 0.40712,-0.40346 0.0645,-0.0649 0.12855,-0.13141 0.19291,-0.19694 0.1404,-0.14291 0.2808,-0.28565 0.42062,-0.43125 0.0564,-0.0588 0.11243,-0.1192 0.16878,-0.17848 0.14712,-0.15477 0.2943,-0.30965 0.4406,-0.46746 0.0409,-0.0441 0.0813,-0.0894 0.12212,-0.13374 0.16131,-0.17521 0.32244,-0.35094 0.48258,-0.52977 6e-5,0 0,0 0,-5.9e-4 z"
         id="path2-6-0" /><path
         style="fill:#3cd214;fill-opacity:1;stroke-width:0.0584031"
         d="m 54.163941,250.72989 c -0.75054,1.37597 -1.40448,3.22794 -1.21449,3.67338 0.31111,0.72963 4.6674,0.9442 5.15028,0 0.2843,-0.55606 -0.3357,-2.27276 -1.08414,-3.59051 -0.95367,-0.13701 -1.93589,-0.13532 -2.85165,-0.0829 z"
         id="path3-2-6" /><ellipse
         transform="rotate(-23.660548)"
         style="fill:#64ff32;fill-opacity:1;stroke-width:0.0584006"
         cx="-23.238312"
         cy="209.56427"
         rx="20.881557"
         ry="26.374838"
         id="ellipse3-9-2" /><path
         style="fill:#3b2742;stroke-width:0.0584031"
         d="m 55.946051,250.21483 c -0.49304,-0.0261 -0.98684,-0.0241 -1.47999,-0.004 -0.13853,0.006 -0.27707,0.0124 -0.41536,0.021 -0.0951,0.006 -0.15874,0.0558 -0.19793,0.12008 -0.0936,0.15354 -0.0308,0.3979 0.19793,0.38377 0.0374,-0.002 0.0757,-0.004 0.1133,-0.006 0.91576,-0.0525 1.89798,-0.0541 2.85171,0.0828 1.14803,0.16487 2.25336,0.53071 3.14535,1.2597 1.39269,1.13821 1.84403,2.91087 1.85553,4.64334 0.007,1.08005 -0.16908,2.14701 -0.53894,3.16241 -0.31748,0.87143 -0.77402,1.68248 -1.26239,2.46806 -0.95314,1.53343 -2.01526,3.0324 -2.369,4.83969 -0.21399,1.09307 -0.17399,2.20904 0.0327,3.30007 0.2029,1.07076 0.68443,2.0357 1.40489,2.85323 1.29048,1.4644 3.18887,2.36304 5.12266,2.62107 0.12457,2.16162 1.41791,4.11678 3.22163,5.30657 0.51459,0.33944 1.0686,0.612 1.64492,0.82961 0.3037,0.11471 0.43487,-0.3722 0.13398,-0.48579 -2.16845,-0.81888 -3.9821,-2.6504 -4.41808,-4.97286 -0.0384,-0.20429 -0.0618,-0.41378 -0.0775,-0.62485 0.12463,0.009 0.24926,0.0171 0.3736,0.0211 1.12105,0.036 2.3328,-0.1331 3.33383,-0.66375 0.92516,-0.49041 1.66145,-1.31389 2.05532,-2.28228 0.30247,-0.74353 0.42086,-1.70899 -0.0477,-2.41391 -0.54105,-0.81391 -1.60591,-0.97347 -2.47781,-0.6689 -1.05307,0.36783 -1.91942,1.18886 -2.57494,2.06823 -0.68922,0.92447 -1.08519,1.97987 -1.16631,3.13181 -0.006,0.0831 -0.005,0.1654 -0.008,0.24804 -1.73013,-0.24447 -3.41016,-1.03619 -4.60736,-2.30353 -0.69891,-0.73986 -1.19137,-1.63845 -1.3959,-2.63761 -0.21031,-1.02725 -0.26935,-2.09737 -0.0758,-3.13222 0.32641,-1.74479 1.33468,-3.19085 2.25885,-4.6657 0.48072,-0.7673 0.92727,-1.55417 1.26642,-2.39547 0.38493,-0.95495 0.60459,-1.96713 0.6603,-2.99508 0.0961,-1.77277 -0.21685,-3.68185 -1.41931,-5.05719 -1.01756,-1.16386 -2.49527,-1.7122 -3.99699,-1.93712 -0.13375,-0.02 -0.26761,-0.038 -0.40141,-0.0531 -0.24862,-0.0281 -0.49672,-0.0485 -0.74242,-0.0614 z m 9.41424,23.17897 c 0.45332,-0.95757 1.17921,-1.84209 2.05398,-2.44388 0.71812,-0.49403 1.69077,-0.86804 2.48336,-0.31572 0.59337,0.41349 0.61486,1.22483 0.43825,1.88367 -0.24406,0.91033 -0.86466,1.71846 -1.65164,2.22937 -0.89894,0.58356 -2.0305,0.78015 -3.08725,0.78698 -0.23332,0.002 -0.46751,-0.009 -0.70153,-0.0278 0.0106,-0.73021 0.15809,-1.46475 0.46483,-2.11262 z"
         id="path6-1-6" /></g><g
       id="g4"
       inkscape:export-filename="turquoise.svg"
       inkscape:export-xdpi="96"
       inkscape:export-ydpi="96"><path
         style="fill:#28ebc8;fill-opacity:1;stroke-width:0.0584031"
         d="m 181.04884,208.23384 c 0,-21.02635 -13.62814,-35.19828 -30.43936,-35.19828 -16.81123,0 -30.43936,14.17193 -30.43936,35.19828 0,23.68089 18.10041,39.76313 28.77487,41.35187 -0.0936,0.15354 -0.0308,0.3979 0.19793,0.38377 0.0374,-0.002 0.0757,-0.004 0.1133,-0.006 -0.75054,1.37598 -1.40448,3.22794 -1.2145,3.67339 0.31112,0.72963 4.66741,0.9442 5.15028,0 0.28431,-0.55606 -0.3357,-2.27276 -1.08413,-3.59051 1.14803,0.16487 2.25337,0.53071 3.14536,1.25969 1.39268,1.13822 1.84402,2.91088 1.85552,4.64335 0.007,1.08004 -0.16907,2.14701 -0.53894,3.16241 -0.31748,0.87143 -0.77402,1.68248 -1.26239,2.46806 -0.95313,1.53343 -2.01525,3.0324 -2.369,4.83969 -0.21399,1.09307 -0.17398,2.20904 0.0327,3.30007 0.2029,1.07076 0.68443,2.0357 1.40489,2.85322 1.29048,1.4644 3.18887,2.36305 5.12266,2.62108 0.12457,2.16161 1.41791,4.11678 3.22163,5.30656 0.51459,0.33944 1.0686,0.61201 1.64492,0.82962 0.3037,0.1147 0.43487,-0.3722 0.13398,-0.4858 -2.16845,-0.81887 -3.9821,-2.65039 -4.41808,-4.97285 -0.0384,-0.20429 -0.0619,-0.41378 -0.0775,-0.62485 0.12463,0.009 0.24926,0.017 0.37361,0.0211 1.12104,0.036 2.33279,-0.1331 3.33382,-0.66375 0.92517,-0.49041 1.66145,-1.3139 2.05532,-2.28228 0.30247,-0.74353 0.42086,-1.70899 -0.0477,-2.41392 -0.54105,-0.8139 -1.60591,-0.97346 -2.47781,-0.66889 -1.05307,0.36783 -1.91942,1.18886 -2.57494,2.06823 -0.68921,0.92447 -1.08519,1.97987 -1.16631,3.13181 -0.006,0.0831 -0.005,0.1654 -0.008,0.24804 -1.73013,-0.24448 -3.41016,-1.03619 -4.60736,-2.30354 -0.69891,-0.73985 -1.19137,-1.63844 -1.39589,-2.6376 -0.21031,-1.02725 -0.26936,-2.09737 -0.0758,-3.13222 0.32641,-1.74479 1.33469,-3.19085 2.25886,-4.66571 0.48071,-0.7673 0.92726,-1.55416 1.26641,-2.39546 0.38494,-0.95495 0.60459,-1.96713 0.66031,-2.99509 0.0961,-1.77276 -0.21686,-3.68185 -1.41932,-5.05718 -1.01761,-1.16392 -2.49533,-1.71226 -3.99711,-1.93712 9.87019,-1.79093 28.86692,-19.22391 28.86692,-41.32909 z m -20.59633,64.39342 c 0.45332,-0.95757 1.17921,-1.84209 2.05398,-2.44388 0.71812,-0.49403 1.69077,-0.86804 2.48336,-0.31572 0.59337,0.41349 0.61486,1.22483 0.43825,1.88367 -0.24406,0.91033 -0.86466,1.71846 -1.65164,2.22937 -0.89894,0.58356 -2.0305,0.78015 -3.08725,0.78698 -0.23332,0.002 -0.46751,-0.009 -0.70153,-0.0278 0.0106,-0.73021 0.15809,-1.46475 0.46483,-2.11262 z"
         id="path1-5-6-0" /><path
         style="fill:#32ffdc;fill-opacity:1;stroke-width:0.0584031"
         d="m 168.72321,238.38165 c -10.16717,1.94016 -19.84685,0.87885 -27.88604,-3.69516 -12.10784,-7.175 -18.06695,-24.05672 -19.31006,-37.43763 -5.2e-4,-0.006 -10e-4,-0.0118 -0.002,-0.0176 -0.0999,0.38522 -0.19279,0.77524 -0.28214,1.16771 -0.017,0.0748 -0.0341,0.14951 -0.0506,0.22456 -0.17515,0.79072 -0.32857,1.59592 -0.45987,2.41503 -0.0137,0.0849 -0.0271,0.16966 -0.0403,0.25475 -0.0634,0.41093 -0.12277,0.82425 -0.1748,1.24206 -1.2e-4,9.9e-4 -1.8e-4,0.002 -3e-4,0.003 -0.0509,0.40882 -0.0944,0.82208 -0.13432,1.23733 -0.009,0.0971 -0.0184,0.19425 -0.0271,0.29161 -0.0376,0.41974 -0.0714,0.84164 -0.0975,1.26775 -2.9e-4,0.005 -4.6e-4,0.0106 -8.1e-4,0.0159 -0.0255,0.41735 -0.0435,0.83873 -0.0578,1.26204 -0.004,0.10676 -0.007,0.21364 -0.01,0.32075 -0.0117,0.43066 -0.0197,0.86331 -0.0197,1.29993 0,23.6809 18.10042,39.76312 28.77488,41.35187 0.0392,-0.0643 0.10284,-0.11418 0.19792,-0.12008 0.13836,-0.009 0.27684,-0.0152 0.41537,-0.021 0.49309,-0.0204 0.98695,-0.0224 1.47999,0.004 0.2457,0.013 0.4938,0.0333 0.7423,0.0613 0.13381,0.0151 0.26767,0.0331 0.40141,0.0531 0.0879,-0.0159 0.17509,-0.0308 0.26439,-0.0492 0.0743,-0.0153 0.15033,-0.0338 0.22567,-0.0509 0.0899,-0.0203 0.1793,-0.0397 0.27052,-0.0625 0.0783,-0.0195 0.15816,-0.042 0.23741,-0.0633 0.0904,-0.0243 0.18029,-0.0478 0.27187,-0.0743 0.0819,-0.0238 0.16516,-0.0503 0.24804,-0.0759 0.0909,-0.0281 0.18151,-0.0555 0.27362,-0.0857 0.0856,-0.0281 0.17246,-0.0589 0.25901,-0.0889 0.0911,-0.0316 0.18199,-0.0626 0.27409,-0.0963 0.0892,-0.0326 0.17965,-0.0677 0.26982,-0.1022 0.0912,-0.0349 0.18222,-0.0694 0.27432,-0.10635 0.0919,-0.0369 0.18479,-0.0759 0.27753,-0.11465 0.0925,-0.0387 0.18491,-0.0771 0.27824,-0.11762 0.0938,-0.0408 0.18846,-0.0836 0.28308,-0.12633 0.0936,-0.0422 0.18718,-0.0844 0.2815,-0.12849 0.0965,-0.0451 0.19384,-0.0922 0.2912,-0.13923 0.0934,-0.0452 0.18683,-0.0905 0.28103,-0.13748 0.0999,-0.0499 0.20038,-0.10151 0.30101,-0.15337 0.093,-0.048 0.18613,-0.0961 0.27975,-0.14577 0.10238,-0.0543 0.20523,-0.11015 0.3082,-0.16645 0.0933,-0.051 0.18665,-0.10226 0.28051,-0.15489 0.10454,-0.0586 0.20949,-0.11873 0.31461,-0.17935 0.0933,-0.0538 0.18666,-0.10805 0.28046,-0.16347 0.10652,-0.063 0.21346,-0.1272 0.32051,-0.19221 0.0935,-0.0567 0.18718,-0.11406 0.2811,-0.17234 0.10833,-0.0672 0.21696,-0.13556 0.32583,-0.20482 0.0933,-0.0593 0.18665,-0.11938 0.28016,-0.18024 0.11067,-0.0719 0.22152,-0.14478 0.33255,-0.21872 0.0919,-0.0612 0.18402,-0.12323 0.27624,-0.18583 0.11365,-0.0772 0.22742,-0.15518 0.34149,-0.23449 0.0905,-0.0629 0.18104,-0.12674 0.27169,-0.19098 0.11563,-0.0819 0.23145,-0.16452 0.34744,-0.24857 0.0898,-0.0651 0.17976,-0.13123 0.2697,-0.19757 0.11745,-0.0866 0.23496,-0.17375 0.35258,-0.26246 0.0884,-0.0667 0.17685,-0.13444 0.26539,-0.20231 0.11972,-0.0918 0.23945,-0.18402 0.35941,-0.27799 0.0868,-0.068 0.17369,-0.13738 0.26059,-0.20659 0.12137,-0.0966 0.24279,-0.1936 0.36426,-0.29247 0.0859,-0.0699 0.17159,-0.14105 0.25739,-0.21194 0.12264,-0.10139 0.24535,-0.2029 0.36799,-0.30644 0.0841,-0.071 0.16815,-0.14344 0.25219,-0.21545 0.12492,-0.107 0.24985,-0.21412 0.37466,-0.32332 0.0805,-0.0705 0.16095,-0.14251 0.24149,-0.21393 0.12785,-0.11348 0.25563,-0.2269 0.38336,-0.34271 0.0781,-0.0709 0.15605,-0.14327 0.23408,-0.21493 0.1296,-0.11908 0.25919,-0.23805 0.3885,-0.35953 0.0752,-0.0706 0.15009,-0.14285 0.22514,-0.21422 0.13199,-0.12563 0.2641,-0.25102 0.3958,-0.37904 0.0704,-0.0684 0.14052,-0.13859 0.21078,-0.20779 0.13584,-0.13369 0.27175,-0.26721 0.40712,-0.40346 0.0645,-0.0649 0.12855,-0.13141 0.19291,-0.19694 0.1404,-0.14291 0.2808,-0.28565 0.42062,-0.43125 0.0564,-0.0588 0.11243,-0.1192 0.16878,-0.17848 0.14712,-0.15477 0.2943,-0.30965 0.4406,-0.46746 0.0409,-0.0441 0.0813,-0.0894 0.12212,-0.13374 0.16131,-0.17521 0.32244,-0.35094 0.48258,-0.52977 6e-5,0 0,0 0,-5.9e-4 z"
         id="path2-6-0-2" /><path
         style="fill:#14d2b4;fill-opacity:1;stroke-width:0.0584031"
         d="m 149.25616,249.96335 c -0.75054,1.37597 -1.40448,3.22794 -1.21449,3.67338 0.31111,0.72963 4.6674,0.9442 5.15028,0 0.2843,-0.55606 -0.3357,-2.27276 -1.08414,-3.59051 -0.95367,-0.13701 -1.93589,-0.13532 -2.85165,-0.0829 z"
         id="path3-2-6-3" /><ellipse
         transform="rotate(-23.660548)"
         style="fill:#32ffdc;fill-opacity:1;stroke-width:0.0584006"
         cx="64.167999"
         cy="247.02431"
         rx="20.881557"
         ry="26.374838"
         id="ellipse3-9-2-7" /><path
         style="fill:#3b2742;stroke-width:0.0584031"
         d="m 151.03827,249.44829 c -0.49304,-0.0261 -0.98684,-0.0241 -1.47999,-0.004 -0.13853,0.006 -0.27707,0.0124 -0.41536,0.021 -0.0951,0.006 -0.15874,0.0558 -0.19793,0.12008 -0.0936,0.15354 -0.0308,0.3979 0.19793,0.38377 0.0374,-0.002 0.0757,-0.004 0.1133,-0.006 0.91576,-0.0525 1.89798,-0.0541 2.85171,0.0828 1.14803,0.16487 2.25336,0.53071 3.14535,1.2597 1.39269,1.13821 1.84403,2.91087 1.85553,4.64334 0.007,1.08005 -0.16908,2.14701 -0.53894,3.16241 -0.31748,0.87143 -0.77402,1.68248 -1.26239,2.46806 -0.95314,1.53343 -2.01526,3.0324 -2.369,4.83969 -0.21399,1.09307 -0.17399,2.20904 0.0327,3.30007 0.2029,1.07076 0.68443,2.0357 1.40489,2.85323 1.29048,1.4644 3.18887,2.36304 5.12266,2.62107 0.12457,2.16162 1.41791,4.11678 3.22163,5.30657 0.51459,0.33944 1.0686,0.612 1.64492,0.82961 0.3037,0.11471 0.43487,-0.3722 0.13398,-0.48579 -2.16845,-0.81888 -3.9821,-2.6504 -4.41808,-4.97286 -0.0384,-0.20429 -0.0618,-0.41378 -0.0775,-0.62485 0.12463,0.009 0.24926,0.0171 0.3736,0.0211 1.12105,0.036 2.3328,-0.1331 3.33383,-0.66375 0.92516,-0.49041 1.66145,-1.31389 2.05532,-2.28228 0.30247,-0.74353 0.42086,-1.70899 -0.0477,-2.41391 -0.54105,-0.81391 -1.60591,-0.97347 -2.47781,-0.6689 -1.05307,0.36783 -1.91942,1.18886 -2.57494,2.06823 -0.68922,0.92447 -1.08519,1.97987 -1.16631,3.13181 -0.006,0.0831 -0.005,0.1654 -0.008,0.24804 -1.73013,-0.24447 -3.41016,-1.03619 -4.60736,-2.30353 -0.69891,-0.73986 -1.19137,-1.63845 -1.3959,-2.63761 -0.21031,-1.02725 -0.26935,-2.09737 -0.0758,-3.13222 0.32641,-1.74479 1.33468,-3.19085 2.25885,-4.6657 0.48072,-0.7673 0.92727,-1.55417 1.26642,-2.39547 0.38493,-0.95495 0.60459,-1.96713 0.6603,-2.99508 0.0961,-1.77277 -0.21685,-3.68185 -1.41931,-5.05719 -1.01756,-1.16386 -2.49527,-1.7122 -3.99699,-1.93712 -0.13375,-0.02 -0.26761,-0.038 -0.40141,-0.0531 -0.24862,-0.0281 -0.49672,-0.0485 -0.74242,-0.0614 z m 9.41424,23.17897 c 0.45332,-0.95757 1.17921,-1.84209 2.05398,-2.44388 0.71812,-0.49403 1.69077,-0.86804 2.48336,-0.31572 0.59337,0.41349 0.61486,1.22483 0.43825,1.88367 -0.24406,0.91033 -0.86466,1.71846 -1.65164,2.22937 -0.89894,0.58356 -2.0305,0.78015 -3.08725,0.78698 -0.23332,0.002 -0.46751,-0.009 -0.70153,-0.0278 0.0106,-0.73021 0.15809,-1.46475 0.46483,-2.11262 z"
         id="path6-1-6-5" /></g></g></svg>
