<?xml version="1.0" encoding="UTF-8" standalone="no"?>
<!-- Generator: Adobe Illustrator 27.5.0, SVG Export Plug-In . SVG Version: 6.00 Build 0)  -->

<svg
   version="1.1"
   id="Capa_2"
   x="0px"
   y="0px"
   viewBox="0 0 976120 1099195.8"
   xml:space="preserve"
   sodipodi:docname="136471106_d268b8b7-4182-4d15-9ed6-57608aa7d3a6.svg"
   width="976120"
   height="1099195.8"
   xmlns:inkscape="http://www.inkscape.org/namespaces/inkscape"
   xmlns:sodipodi="http://sodipodi.sourceforge.net/DTD/sodipodi-0.dtd"
   xmlns="http://www.w3.org/2000/svg"
   xmlns:svg="http://www.w3.org/2000/svg"><defs
   id="defs33" /><sodipodi:namedview
   id="namedview31"
   pagecolor="#ffffff"
   bordercolor="#000000"
   borderopacity="0.25"
   inkscape:showpageshadow="2"
   inkscape:pageopacity="0.0"
   inkscape:pagecheckerboard="0"
   inkscape:deskcolor="#d1d1d1"
   showgrid="false" />














<g
   id="objects"
   transform="translate(-1727914.9,-1346563.9)"
   inkscape:export-filename="Cup2.svg"
   inkscape:export-xdpi="96"
   inkscape:export-ydpi="96">
	<g
   id="g1640">
		<ellipse
   style="fill:#d8dfea"
   cx="300.616"
   cy="554.03101"
   rx="175.98801"
   ry="4.9689999"
   id="ellipse1582" />
		<path
   style="fill:#e8a615"
   d="m 530,92.139 v 48.298 c 0,78.441 -63.577,142.052 -141.975,142.052 h -19.877 l 22.063,-22.757 c 64.769,-1.165 117.073,-54.235 117.073,-119.295 v -36.933 h -85.185 l 2.84,-22.728 h 93.704 C 524.917,80.774 530,85.86 530,92.139 Z"
   id="path1584" />
		<path
   style="fill:#e8a615"
   d="m 373.827,419.34 v 25.086 H 226.173 V 419.34 c 0,-2.045 1.107,-3.949 2.896,-4.943 l 11.188,-6.307 c 19.365,-10.909 31.348,-31.393 31.348,-53.639 v -26.507 h 56.79 v 26.507 c 0,22.245 11.983,42.729 31.348,53.639 l 11.188,6.307 c 1.789,0.994 2.896,2.898 2.896,4.943 z"
   id="path1586" />
		<path
   style="fill:#b7791d"
   d="m 373.827,419.34 v 25.086 H 359.63 V 419.34 c 0,-2.045 -1.107,-3.949 -2.896,-4.943 l -11.188,-6.307 c -19.365,-10.909 -31.348,-31.393 -31.348,-53.639 v -26.507 h 14.198 v 26.507 c 0,22.245 11.983,42.729 31.348,53.639 l 11.188,6.307 c 1.788,0.994 2.895,2.898 2.895,4.943 z"
   id="path1588" />
		<path
   style="fill:#e8a615"
   d="m 345.432,305.784 v 16.478 c 0,7.841 -6.36,14.205 -14.198,14.205 h -62.469 c -7.837,0 -14.198,-6.364 -14.198,-14.205 v -16.478 z"
   id="path1590" />
		<rect
   x="271.60501"
   y="336.46799"
   style="fill:#b7791d"
   width="56.790001"
   height="8.3529997"
   id="rect1592" />
		<path
   style="fill:#343b49"
   d="m 396.543,438.745 v 99.436 H 203.457 v -99.436 c 0,-3.125 2.556,-5.682 5.679,-5.682 h 181.728 c 3.124,0 5.679,2.557 5.679,5.682 z"
   id="path1594" />
		<path
   style="fill:#262d38"
   d="m 396.543,438.745 v 99.436 h -11.358 v -99.436 c 0,-3.125 -2.556,-5.682 -5.679,-5.682 h 11.358 c 3.124,0 5.679,2.557 5.679,5.682 z"
   id="path1596" />
		<path
   style="fill:#262d38"
   d="m 413.58,535.34 v 11.364 c 0,3.125 -2.556,5.682 -5.679,5.682 H 192.099 c -3.123,0 -5.679,-2.557 -5.679,-5.682 V 535.34 c 0,-3.125 2.556,-5.682 5.679,-5.682 h 215.802 c 3.124,0 5.679,2.557 5.679,5.682 z"
   id="path1598" />
		<path
   style="fill:#171c23"
   d="m 413.58,535.34 v 11.364 c 0,3.125 -2.556,5.682 -5.679,5.682 h -11.358 c 3.123,0 5.679,-2.557 5.679,-5.682 V 535.34 c 0,-3.125 -2.556,-5.682 -5.679,-5.682 h 11.358 c 3.124,0 5.679,2.557 5.679,5.682 z"
   id="path1600" />
		<path
   style="fill:#e8a615"
   d="m 368.148,461.473 v 39.774 c 0,3.125 -2.556,5.682 -5.679,5.682 H 237.531 c -3.123,0 -5.679,-2.557 -5.679,-5.682 v -39.774 c 0,-3.125 2.556,-5.682 5.679,-5.682 h 124.938 c 3.124,0 5.679,2.557 5.679,5.682 z"
   id="path1602" />
		<path
   style="fill:#b7791d"
   d="m 345.432,305.784 v 16.478 c 0,7.841 -6.36,14.205 -14.198,14.205 h -11.358 c 7.837,0 14.198,-6.364 14.198,-14.205 v -16.478 z"
   id="path1604" />
		<path
   style="fill:#e8a615"
   d="M 240.37,282.488 H 211.975 C 133.577,282.488 70,218.877 70,140.436 V 92.139 C 70,85.86 75.083,80.775 81.358,80.775 h 93.704 v 22.728 H 92.716 v 36.933 c 0,65.06 52.304,118.13 117.073,119.295 z"
   id="path1606" />
		<path
   style="fill:#e8a615"
   d="M 439.136,58.046 V 69.41 c 0,138.074 -62.299,250.011 -139.136,250.011 -76.837,0 -139.136,-111.936 -139.136,-250.011 V 58.046 Z"
   id="path1608" />
		<path
   style="fill:#b7791d"
   d="m 162.142,103.503 h -11.358 c -0.568,-7.472 -0.937,-15.057 -1.136,-22.728 h 11.358 c 0.199,7.67 0.568,15.256 1.136,22.728 z"
   id="path1610" />
		<path
   style="fill:#b7791d"
   d="m 227.195,282.488 h -11.358 c -6.332,-6.989 -12.352,-14.887 -17.946,-23.581 3.919,0.483 7.865,0.739 11.898,0.824 5.452,8.381 11.273,15.995 17.406,22.757 z"
   id="path1612" />
		<path
   style="fill:#b7791d"
   d="m 345.432,305.784 v 5.682 c -14.254,8.836 -29.531,13.637 -45.432,13.637 -15.901,0 -31.178,-4.801 -45.432,-13.637 v -5.682 c 14.254,8.836 29.531,13.637 45.432,13.637 15.901,0 31.178,-4.801 45.432,-13.637 z"
   id="path1614" />
		<path
   style="fill:#b7791d"
   d="M 439.136,58.046 V 69.41 c 0,133.756 -58.466,242.994 -131.98,249.699 71.442,-6.79 97.906,-115.999 97.906,-249.699 V 58.046 Z"
   id="path1616" />
		<path
   style="fill:#e8a615"
   d="m 453.333,55.205 c 0,3.921 -1.59,7.472 -4.146,10.057 -2.584,2.557 -6.133,4.148 -10.052,4.148 H 160.864 c -7.837,0 -14.198,-6.364 -14.198,-14.205 0,-3.921 1.59,-7.472 4.146,-10.057 C 153.396,42.591 156.945,41 160.864,41 h 278.272 c 7.837,0 14.197,6.364 14.197,14.205 z"
   id="path1618" />
		<path
   style="fill:#b7791d"
   d="m 439.136,69.41 c 0,3.807 -0.057,7.586 -0.142,11.364 H 161.006 c -0.085,-3.779 -0.142,-7.557 -0.142,-11.364 z"
   id="path1620" />
		<path
   style="fill:#b7791d"
   d="m 453.333,55.205 c 0,3.921 -1.59,7.472 -4.146,10.057 -2.584,2.557 -6.133,4.148 -10.052,4.148 H 407.9 c 3.919,0 7.468,-1.591 10.052,-4.148 2.556,-2.585 4.146,-6.137 4.146,-10.057 C 422.098,47.364 415.738,41 407.9,41 h 31.235 c 7.838,0 14.198,6.364 14.198,14.205 z"
   id="path1622" />
		<path
   style="fill:#b7791d"
   d="m 368.148,461.473 v 39.774 c 0,3.125 -2.556,5.682 -5.679,5.682 H 249.741 c 22.943,-0.455 98.531,-5.341 98.531,-51.139 h 14.198 c 3.123,10e-4 5.678,2.558 5.678,5.683 z"
   id="path1624" />
		<path
   style="fill:#ffcc66"
   d="m 237.531,487.042 v -23.245 c 0,-1.284 1.04,-2.324 2.323,-2.324 h 50.918 c 0,0 -40.463,4.262 -53.241,25.569 z"
   id="path1626" />
		<path
   style="fill:#4e5868"
   d="m 209.846,464.314 v -23.245 c 0,-1.284 1.04,-2.324 2.323,-2.324 h 50.918 c -10e-4,0 -40.464,4.261 -53.241,25.569 z"
   id="path1628" />
		<path
   style="fill:#ffcc66"
   d="m 300,310.898 c -30.837,0 -116.363,-65.088 -126.727,-218.76 h 33.733 c 8.49,188.02 92.994,218.76 92.994,218.76 z"
   id="path1630" />
		<path
   style="fill:#ffcc66"
   d="m 240.37,421.699 c 0,0 39.753,-25.569 39.753,-62.503 v 62.503 z"
   id="path1632" />
		<path
   style="fill:#ffcc66"
   d="m 166.543,46.682 v 8.523 h -14.198 c 0,-4.688 3.805,-8.523 8.519,-8.523 z"
   id="path1634" />
		<path
   style="fill:#b7791d"
   d="m 447.512,80.774 c -0.199,7.671 -0.568,15.256 -1.164,22.728 h -24.249 l 2.84,-22.728 z"
   id="path1636" />
		<path
   style="fill:#b7791d"
   d="m 399.07,259.248 c -5.565,8.551 -11.5,16.336 -17.747,23.24 h -13.175 l 10.052,-10.341 12.011,-12.415 c 2.982,-0.058 5.935,-0.228 8.859,-0.484 z"
   id="path1638" />
	</g>
</g></svg>
