<?xml version="1.0" encoding="UTF-8" standalone="no"?>
<!-- Generator: Adobe Illustrator 27.5.0, SVG Export Plug-In . SVG Version: 6.00 Build 0)  -->

<svg
   version="1.1"
   id="Capa_2"
   x="0px"
   y="0px"
   viewBox="0 0 774018.25 578477.5"
   xml:space="preserve"
   sodipodi:docname="136471106_d268b8b7-4182-4d15-9ed6-57608aa7d3a6.svg"
   width="774018.25"
   height="578477.5"
   xmlns:inkscape="http://www.inkscape.org/namespaces/inkscape"
   xmlns:sodipodi="http://sodipodi.sourceforge.net/DTD/sodipodi-0.dtd"
   xmlns="http://www.w3.org/2000/svg"
   xmlns:svg="http://www.w3.org/2000/svg"><defs
   id="defs33" /><sodipodi:namedview
   id="namedview31"
   pagecolor="#ffffff"
   bordercolor="#000000"
   borderopacity="0.25"
   inkscape:showpageshadow="2"
   inkscape:pageopacity="0.0"
   inkscape:pagecheckerboard="0"
   inkscape:deskcolor="#d1d1d1"
   showgrid="false" />














<path
   style="fill:#e8a615;fill-opacity:1;stroke:none;stroke-width:3.77953;stroke-linecap:round"
   d="m -2895908.4,-1370834.5 c 0,0 4.9,247.3 137.6,247.7 132.6,0.3 140.7,-248.9 140.7,-248.9 z"
   id="path2793"
   sodipodi:nodetypes="czcc" /><path
   style="fill:#b7791d;fill-opacity:1;stroke:none;stroke-width:3.77953;stroke-linecap:round"
   d="m -2895658.9,-1370835.1 30.1,-0.6 c 0,0 -3.6,49 -18.9,115.7 -10.8,47.1 -45.7,95.4 -45.7,95.4 0,0 22.9,-70.8 26.8,-107.6 3.5,-34.1 7.7,-102.9 7.7,-102.9 z"
   id="path3174"
   sodipodi:nodetypes="ccscsc" /><rect
   style="fill:#b7791d;fill-opacity:1;stroke:none;stroke-width:3.77953;stroke-linecap:round"
   id="rect3351"
   width="364.75882"
   height="25.597134"
   x="-2895955.5"
   y="-1370859.1"
   ry="12.798567" /><rect
   style="fill:#e8a615;fill-opacity:1;stroke:none;stroke-width:3.52921;stroke-linecap:round"
   id="rect3351-9"
   width="318.04413"
   height="25.597134"
   x="-2895955.2"
   y="-1370859.4"
   ry="12.798567" /><path
   style="fill:#ffcc66;fill-opacity:1;stroke:none;stroke-width:3.77953;stroke-linecap:round"
   d="m -2895880.3,-1370807.6 h 23.7 c 0,0 -0.6,36.6 5.1,64.6 5.8,28 33.3,101.2 33.3,101.2 0,0 -39.8,-54.5 -49.9,-83.2 -10.1,-28.7 -12.2,-82.6 -12.2,-82.6 z"
   id="path3658"
   sodipodi:nodetypes="cczczc" /></svg>
