<?xml version="1.0" encoding="UTF-8" standalone="no"?>
<!-- Created with Inkscape (http://www.inkscape.org/) -->

<svg
   width="54.833389mm"
   height="34.439133mm"
   viewBox="0 0 54.833389 34.439133"
   version="1.1"
   id="svg5"
   xml:space="preserve"
   xmlns:inkscape="http://www.inkscape.org/namespaces/inkscape"
   xmlns:sodipodi="http://sodipodi.sourceforge.net/DTD/sodipodi-0.dtd"
   xmlns="http://www.w3.org/2000/svg"
   xmlns:svg="http://www.w3.org/2000/svg"><sodipodi:namedview
     id="namedview7"
     pagecolor="#ffffff"
     bordercolor="#000000"
     borderopacity="0.25"
     inkscape:showpageshadow="2"
     inkscape:pageopacity="0.0"
     inkscape:pagecheckerboard="0"
     inkscape:deskcolor="#d1d1d1"
     inkscape:document-units="mm"
     showgrid="false"
     showguides="false"
     inkscape:zoom="0.73851712"
     inkscape:cx="838.84312"
     inkscape:cy="575.47752"
     inkscape:window-width="1920"
     inkscape:window-height="1009"
     inkscape:window-x="1912"
     inkscape:window-y="-8"
     inkscape:window-maximized="1"
     inkscape:current-layer="layer1" /><defs
     id="defs2" /><g
     inkscape:label="Слой 1"
     inkscape:groupmode="layer"
     id="layer1"
     transform="translate(-244.15325,-153.01831)"><path
       style="fill:#000000;fill-opacity:1;stroke:#080402;stroke-width:1;stroke-linecap:round;stroke-dasharray:none;stroke-opacity:1"
       d="m 251.85145,154.73814 c 0,0 2.30574,9.15848 1.66838,10.52857 -0.63736,1.37009 -8.87912,-4.34181 -8.86656,4.93994 0.0126,9.28175 7.15691,1.94746 8.3599,3.41995 1.20299,1.47249 -1.07215,12.05624 -1.07215,12.05624 0,0 14.92203,2.57733 16.58412,0.40172 1.66209,-2.17561 -4.91639,-9.2276 4.0546,-8.29974 8.971,0.92786 3.09693,8.61959 3.09693,8.61959 l 14.82936,-0.74462 c 0,0 -1.91247,-9.87869 -1.13998,-11.16827 0.77249,-1.28957 9.20928,5.59124 9.11988,-3.27156 -0.0894,-8.8628 -9.24655,-5.31993 -9.24655,-5.31993 l 0.75999,-11.01986 c 0,0 -13.75759,-1.79755 -15.06546,0.35058 -1.30787,2.14814 6.043,7.01078 -2.19265,7.53432 -8.23566,0.52354 -4.1088,-7.3696 -4.78161,-8.77156 -0.67281,-1.40196 -16.1082,0.74463 -16.1082,0.74463 z"
       id="path8872-4"
       sodipodi:nodetypes="czzzczzcczzcczzzc"
       inkscape:export-filename="10.svg"
       inkscape:export-xdpi="96"
       inkscape:export-ydpi="96" /></g></svg>
