<?xml version="1.0" encoding="UTF-8" standalone="no"?>
<!-- Created with Inkscape (http://www.inkscape.org/) -->

<svg
   width="42.930481mm"
   height="46.968231mm"
   viewBox="0 0 42.930481 46.968231"
   version="1.1"
   id="svg5"
   xml:space="preserve"
   xmlns:inkscape="http://www.inkscape.org/namespaces/inkscape"
   xmlns:sodipodi="http://sodipodi.sourceforge.net/DTD/sodipodi-0.dtd"
   xmlns="http://www.w3.org/2000/svg"
   xmlns:svg="http://www.w3.org/2000/svg"><sodipodi:namedview
     id="namedview7"
     pagecolor="#ffffff"
     bordercolor="#000000"
     borderopacity="0.25"
     inkscape:showpageshadow="2"
     inkscape:pageopacity="0.0"
     inkscape:pagecheckerboard="0"
     inkscape:deskcolor="#d1d1d1"
     inkscape:document-units="mm"
     showgrid="false"
     showguides="false"
     inkscape:zoom="0.73851712"
     inkscape:cx="838.84312"
     inkscape:cy="575.47752"
     inkscape:window-width="1920"
     inkscape:window-height="1009"
     inkscape:window-x="1912"
     inkscape:window-y="-8"
     inkscape:window-maximized="1"
     inkscape:current-layer="layer1" /><defs
     id="defs2" /><g
     inkscape:label="Слой 1"
     inkscape:groupmode="layer"
     id="layer1"
     transform="translate(-302.55271,-147.40205)"><path
       style="fill:#000000;fill-opacity:1;stroke:#080402;stroke-width:1;stroke-linecap:round;stroke-dasharray:none;stroke-opacity:1"
       d="m 304.70519,155.70552 c 0,0 12.62236,2.94101 15.22617,0.98521 2.60381,-1.9558 -4.5006,-10.64315 5.10525,-8.41917 9.60585,2.22398 0.66608,5.71878 2.5974,7.79222 1.93132,2.07344 15.40532,0.44782 15.40532,0.44782 0,0 2.89147,8.24074 1.61217,10.56876 -1.2793,2.32802 -7.24803,-5.45482 -8.41918,3.94089 -1.17115,9.39571 7.04422,2.85477 8.06092,5.01568 1.01671,2.16092 -0.80609,10.2105 -0.80609,10.2105 0,0 -15.26453,-1.77117 -15.85314,-0.98522 -0.58861,0.78595 6.4544,8.92501 -2.8661,8.59831 -9.3205,-0.3267 -2.78439,-7.49131 -4.83655,-8.59831 -2.05216,-1.107 -14.86791,1.43305 -14.86791,1.43305 0,0 -3.31274,-10.75816 -1.43306,-11.64355 1.87968,-0.88539 8.75931,5.89922 9.22527,-2.95566 0.46596,-8.85489 -8.86701,-5.64265 -8.86701,-5.64265 z"
       id="path8652-6"
       sodipodi:nodetypes="czzzczzzczzzczzcc"
       inkscape:export-filename="13.svg"
       inkscape:export-xdpi="96"
       inkscape:export-ydpi="96" /></g></svg>
