<?xml version="1.0" encoding="UTF-8" standalone="no"?>
<!-- Created with Inkscape (http://www.inkscape.org/) -->

<svg
   width="45.490326mm"
   height="47.988358mm"
   viewBox="0 0 45.490326 47.988358"
   version="1.1"
   id="svg5"
   xml:space="preserve"
   xmlns:inkscape="http://www.inkscape.org/namespaces/inkscape"
   xmlns:sodipodi="http://sodipodi.sourceforge.net/DTD/sodipodi-0.dtd"
   xmlns="http://www.w3.org/2000/svg"
   xmlns:svg="http://www.w3.org/2000/svg"><sodipodi:namedview
     id="namedview7"
     pagecolor="#ffffff"
     bordercolor="#000000"
     borderopacity="0.25"
     inkscape:showpageshadow="2"
     inkscape:pageopacity="0.0"
     inkscape:pagecheckerboard="0"
     inkscape:deskcolor="#d1d1d1"
     inkscape:document-units="mm"
     showgrid="false"
     showguides="false"
     inkscape:zoom="0.73851712"
     inkscape:cx="838.84312"
     inkscape:cy="575.47752"
     inkscape:window-width="1920"
     inkscape:window-height="1009"
     inkscape:window-x="1912"
     inkscape:window-y="-8"
     inkscape:window-maximized="1"
     inkscape:current-layer="layer1" /><defs
     id="defs2" /><g
     inkscape:label="Слой 1"
     inkscape:groupmode="layer"
     id="layer1"
     transform="translate(-353.35484,-146.33284)"><path
       style="fill:#000000;fill-opacity:1;stroke:#080402;stroke-width:1.00755;stroke-linecap:round;stroke-dasharray:none;stroke-opacity:1"
       d="m 398.21234,155.58329 0.12665,28.87202 c 0,0 -13.70709,-1.07008 -15.19724,0.25721 -1.49013,1.32729 2.9519,10.17067 -4.17924,9.00242 -7.13112,-1.16825 -3.21358,-4.39956 -2.40622,-8.10217 0.80737,-3.70262 -15.45051,-0.57873 -15.45051,-0.57873 0,0 3.07483,-9.93099 0.31661,-10.22417 -2.75821,-0.29316 -8.76804,3.55056 -7.34533,-5.07993 1.4227,-8.63048 6.09273,-2.23845 7.97856,-3.47236 1.88582,-1.2339 -0.83091,-10.30798 -0.83091,-10.30798 0,0 13.31737,2.28959 14.63504,0.14812 1.31767,-2.14148 -5.40775,-9.14241 2.27958,-9.25963 7.68735,-0.11722 3.34078,6.74622 4.30589,9.45254 0.96512,2.70632 15.76712,-0.70734 15.76712,-0.70734 z"
       id="path7040-2"
       sodipodi:nodetypes="cczzzczzzczzzc"
       inkscape:export-filename="12.svg"
       inkscape:export-xdpi="96"
       inkscape:export-ydpi="96" /></g></svg>
