<?xml version="1.0" encoding="UTF-8" standalone="no"?>
<!-- Created with Inkscape (http://www.inkscape.org/) -->

<svg
   width="53.608627mm"
   height="40.107391mm"
   viewBox="0 0 53.608627 40.107391"
   version="1.1"
   id="svg5"
   xml:space="preserve"
   xmlns:inkscape="http://www.inkscape.org/namespaces/inkscape"
   xmlns:sodipodi="http://sodipodi.sourceforge.net/DTD/sodipodi-0.dtd"
   xmlns="http://www.w3.org/2000/svg"
   xmlns:svg="http://www.w3.org/2000/svg"><sodipodi:namedview
     id="namedview7"
     pagecolor="#ffffff"
     bordercolor="#000000"
     borderopacity="0.25"
     inkscape:showpageshadow="2"
     inkscape:pageopacity="0.0"
     inkscape:pagecheckerboard="0"
     inkscape:deskcolor="#d1d1d1"
     inkscape:document-units="mm"
     showgrid="false"
     showguides="false"
     inkscape:zoom="0.73851712"
     inkscape:cx="838.84312"
     inkscape:cy="575.47752"
     inkscape:window-width="1920"
     inkscape:window-height="1009"
     inkscape:window-x="1912"
     inkscape:window-y="-8"
     inkscape:window-maximized="1"
     inkscape:current-layer="layer1" /><defs
     id="defs2" /><g
     inkscape:label="Слой 1"
     inkscape:groupmode="layer"
     id="layer1"
     transform="translate(-244.0425,-188.81362)"><path
       style="fill:#000000;fill-opacity:1;stroke:#080402;stroke-width:1;stroke-linecap:round;stroke-dasharray:none;stroke-opacity:1"
       d="m 290.20862,228.40527 c 0,0 -2.57153,-9.31634 -1.29606,-11.19132 1.27547,-1.87498 7.53587,7.52686 8.19479,-3.91892 0.65893,-11.44578 -6.762,-2.44094 -7.71756,-4.82866 -0.95556,-2.38772 0.49129,-10.66795 0.49129,-10.66795 0,0 -2.60131,-0.16982 -7.97522,0.23393 -5.37391,0.40375 -7.31415,0.0629 -7.31415,0.0629 0,0 6.65271,-7.15023 -2.53331,-8.59785 -9.18601,-1.44761 -2.52468,6.3111 -4.30661,8.3599 -1.78194,2.0488 -16.77863,-0.4913 -16.77863,-0.4913 0,0 3.15525,8.41438 1.99591,10.86246 -1.15934,2.44808 -7.26578,-5.92626 -8.32916,3.3675 -1.06338,9.29377 7.02745,2.77593 8.91002,5.44023 1.88257,2.66431 -2.12257,11.3845 -2.12257,11.3845 z"
       id="path8726-2"
       sodipodi:nodetypes="czzzczczzczzzcc"
       inkscape:export-filename="14.svg"
       inkscape:export-xdpi="96"
       inkscape:export-ydpi="96" /></g></svg>
