<?xml version="1.0" encoding="UTF-8" standalone="no"?>
<!-- Created with Inkscape (http://www.inkscape.org/) -->

<svg
   width="42.151245mm"
   height="33.495071mm"
   viewBox="0 0 42.151245 33.495071"
   version="1.1"
   id="svg5"
   xml:space="preserve"
   xmlns:inkscape="http://www.inkscape.org/namespaces/inkscape"
   xmlns:sodipodi="http://sodipodi.sourceforge.net/DTD/sodipodi-0.dtd"
   xmlns="http://www.w3.org/2000/svg"
   xmlns:svg="http://www.w3.org/2000/svg"><sodipodi:namedview
     id="namedview7"
     pagecolor="#ffffff"
     bordercolor="#000000"
     borderopacity="0.25"
     inkscape:showpageshadow="2"
     inkscape:pageopacity="0.0"
     inkscape:pagecheckerboard="0"
     inkscape:deskcolor="#d1d1d1"
     inkscape:document-units="mm"
     showgrid="false"
     showguides="false"
     inkscape:zoom="0.73851712"
     inkscape:cx="838.84312"
     inkscape:cy="575.47752"
     inkscape:window-width="1920"
     inkscape:window-height="1009"
     inkscape:window-x="1912"
     inkscape:window-y="-8"
     inkscape:window-maximized="1"
     inkscape:current-layer="layer1" /><defs
     id="defs2" /><g
     inkscape:label="Слой 1"
     inkscape:groupmode="layer"
     id="layer1"
     transform="translate(-305.10773,-195.17375)"><path
       style="fill:#000000;fill-opacity:1;stroke:#080402;stroke-width:1;stroke-linecap:round;stroke-dasharray:none;stroke-opacity:1"
       d="m 344.41173,228.16836 -37.45,-0.0486 c 0,0 -2.30695,-9.50388 -0.89566,-11.28529 1.41129,-1.78141 7.64117,7.72895 8.34498,-3.55189 0.70381,-11.28085 -6.41548,-3.516 -7.80759,-4.86729 -1.39211,-1.35129 0.4632,-10.94688 0.4632,-10.94688 0,0 13.35177,-2.81792 14.82632,-1.31725 1.47455,1.50067 -3.91881,7.85867 4.82568,8.40831 8.74448,0.54963 2.07338,-7.51687 3.11942,-8.57845 1.04604,-1.06157 14.92039,0.96984 14.92039,0.96984 0,0 2.18325,12.58309 0.68393,13.34079 -1.49932,0.75769 -7.8412,-5.19358 -7.84919,1.87451 -0.008,7.0681 7.91654,5.28643 8.95657,6.30221 1.04003,1.01578 -2.13805,9.69999 -2.13805,9.69999 z"
       id="path8688-3"
       sodipodi:nodetypes="cczzzczzzczzzc"
       inkscape:export-filename="15.svg"
       inkscape:export-xdpi="96"
       inkscape:export-ydpi="96" /></g></svg>
