<?xml version="1.0" encoding="UTF-8" standalone="no"?>
<!-- Created with Inkscape (http://www.inkscape.org/) -->

<svg
   width="46.159424mm"
   height="33.376251mm"
   viewBox="0 0 46.159424 33.376251"
   version="1.1"
   id="svg5"
   xml:space="preserve"
   xmlns:inkscape="http://www.inkscape.org/namespaces/inkscape"
   xmlns:sodipodi="http://sodipodi.sourceforge.net/DTD/sodipodi-0.dtd"
   xmlns="http://www.w3.org/2000/svg"
   xmlns:svg="http://www.w3.org/2000/svg"><sodipodi:namedview
     id="namedview7"
     pagecolor="#ffffff"
     bordercolor="#000000"
     borderopacity="0.25"
     inkscape:showpageshadow="2"
     inkscape:pageopacity="0.0"
     inkscape:pagecheckerboard="0"
     inkscape:deskcolor="#d1d1d1"
     inkscape:document-units="mm"
     showgrid="false"
     showguides="false"
     inkscape:zoom="0.73851712"
     inkscape:cx="838.84312"
     inkscape:cy="575.47752"
     inkscape:window-width="1920"
     inkscape:window-height="1009"
     inkscape:window-x="1912"
     inkscape:window-y="-8"
     inkscape:window-maximized="1"
     inkscape:current-layer="layer1" /><defs
     id="defs2" /><g
     inkscape:label="Слой 1"
     inkscape:groupmode="layer"
     id="layer1"
     transform="translate(-352.93778,-196.77081)"><path
       style="fill:#000000;fill-opacity:1;stroke:#080402;stroke-width:0.975909;stroke-linecap:round;stroke-dasharray:none;stroke-opacity:1"
       d="m 398.60778,229.65895 -0.12355,-31.77124 c 0,0 -14.32267,-1.03955 -15.51408,0.41864 -0.11132,4.8852 2.10651,9.59176 -3.97492,8.96414 -8.87179,-0.9156 -1.86598,-7.36131 -2.64238,-8.54028 -0.77641,-1.17897 -5.30664,-2.64354 -15.13561,0.0571 0,0 2.55006,13.20583 0.1747,12.81214 -2.37533,-0.39367 -7.60857,-4.90796 -7.96498,2.91161 0.58569,5.3035 7.06758,4.6564 8.74154,5.06234 1.67394,0.40594 -1.72876,9.99806 -1.72876,9.99806 12.72267,0.025 25.44534,0.0576 38.168,0.0875 z"
       id="path6150-2-8"
       sodipodi:nodetypes="cccszczczccc"
       inkscape:export-filename="16.svg"
       inkscape:export-xdpi="96"
       inkscape:export-ydpi="96" /></g></svg>
