<?xml version="1.0" encoding="UTF-8" standalone="no"?>
<!-- Created with Inkscape (http://www.inkscape.org/) -->

<svg
   width="54.405304mm"
   height="38.458252mm"
   viewBox="0 0 54.405304 38.458252"
   version="1.1"
   id="svg5"
   xml:space="preserve"
   xmlns:inkscape="http://www.inkscape.org/namespaces/inkscape"
   xmlns:sodipodi="http://sodipodi.sourceforge.net/DTD/sodipodi-0.dtd"
   xmlns="http://www.w3.org/2000/svg"
   xmlns:svg="http://www.w3.org/2000/svg"><sodipodi:namedview
     id="namedview7"
     pagecolor="#ffffff"
     bordercolor="#000000"
     borderopacity="0.25"
     inkscape:showpageshadow="2"
     inkscape:pageopacity="0.0"
     inkscape:pagecheckerboard="0"
     inkscape:deskcolor="#d1d1d1"
     inkscape:document-units="mm"
     showgrid="false"
     showguides="false"
     inkscape:zoom="0.73851712"
     inkscape:cx="838.84312"
     inkscape:cy="575.47752"
     inkscape:window-width="1920"
     inkscape:window-height="1009"
     inkscape:window-x="1912"
     inkscape:window-y="-8"
     inkscape:window-maximized="1"
     inkscape:current-layer="layer1" /><defs
     id="defs2" /><g
     inkscape:label="Слой 1"
     inkscape:groupmode="layer"
     id="layer1"
     transform="translate(-242.84733,-67.916456)"><path
       style="fill:#000000;fill-opacity:1;stroke:#080402;stroke-width:1;stroke-linecap:round;stroke-dasharray:none;stroke-opacity:1"
       d="m 288.4154,68.493334 c 0,0 -1.32792,7.54171 -0.0525,9.41669 1.27547,1.87498 8.32658,-3.40574 8.38929,5.50674 0.0627,8.912476 -7.20983,-0.1231 -8.16539,2.264616 -0.95556,2.38772 1.01331,12.07663 1.01331,12.07663 -4.55669,-0.50502 -13.39814,-2.19238 -15.36291,-0.77341 -1.06514,1.02759 6.05583,7.26219 -3.13019,8.70981 -9.18601,1.44761 -3.65699,-6.37827 -5.43892,-8.42707 -1.78194,-2.0488 -14.50634,0.45354 -14.50634,0.45354 0,0 2.1202,-9.53263 1.05043,-11.35376 -1.06978,-1.821116 -7.71361,4.49585 -8.77699,-4.797906 -1.06338,-9.29377 7.9141,-2.26926 8.91002,-4.42691 0.99591,-2.15765 -0.60259,-8.72454 -0.60259,-8.72454 z"
       id="path8726-2-3-4"
       sodipodi:nodetypes="czzzcczzczzzcc"
       inkscape:export-filename="2.svg"
       inkscape:export-xdpi="96"
       inkscape:export-ydpi="96" /></g></svg>
