<?xml version="1.0" encoding="UTF-8" standalone="no"?>
<!-- Created with Inkscape (http://www.inkscape.org/) -->

<svg
   width="42.282715mm"
   height="32.835167mm"
   viewBox="0 0 42.282715 32.835167"
   version="1.1"
   id="svg5"
   xml:space="preserve"
   xmlns:inkscape="http://www.inkscape.org/namespaces/inkscape"
   xmlns:sodipodi="http://sodipodi.sourceforge.net/DTD/sodipodi-0.dtd"
   xmlns="http://www.w3.org/2000/svg"
   xmlns:svg="http://www.w3.org/2000/svg"><sodipodi:namedview
     id="namedview7"
     pagecolor="#ffffff"
     bordercolor="#000000"
     borderopacity="0.25"
     inkscape:showpageshadow="2"
     inkscape:pageopacity="0.0"
     inkscape:pagecheckerboard="0"
     inkscape:deskcolor="#d1d1d1"
     inkscape:document-units="mm"
     showgrid="false"
     showguides="false"
     inkscape:zoom="0.73851712"
     inkscape:cx="838.84312"
     inkscape:cy="575.47752"
     inkscape:window-width="1920"
     inkscape:window-height="1009"
     inkscape:window-x="1912"
     inkscape:window-y="-8"
     inkscape:window-maximized="1"
     inkscape:current-layer="layer1" /><defs
     id="defs2" /><g
     inkscape:label="Слой 1"
     inkscape:groupmode="layer"
     id="layer1"
     transform="translate(-306.41456,-68.448027)"><path
       style="fill:#000000;fill-opacity:1;stroke:#080402;stroke-width:1;stroke-linecap:round;stroke-dasharray:none;stroke-opacity:1"
       d="m 346.14925,68.948027 h -38.87153 c 0,0 -0.98728,8.597876 0.29494,9.662234 1.28222,1.064358 8.10597,-3.067059 8.25091,4.984947 0.14494,8.052001 -5.98334,1.717131 -7.71352,2.180311 -1.73019,0.46318 0.71653,12.18094 0.71653,12.18094 0,0 14.02561,3.192991 14.73037,1.92884 0.70476,-1.26414 -4.24867,-10.30871 5.75581,-8.80817 10.00447,1.50054 -0.19087,6.45118 1.72611,8.67064 1.91698,2.219461 15.40531,0.17913 15.40531,0.17913 0,0 2.87243,-10.91017 1.25392,-12.71833 -1.61851,-1.80816 -8.16333,7.33898 -9.18817,-2.06451 -1.02485,-9.403495 7.36441,-2.401919 8.82991,-4.921615 1.4655,-2.519696 -1.19059,-11.274417 -1.19059,-11.274417 z"
       id="path8561-5"
       sodipodi:nodetypes="cczzzczzzczzzc"
       inkscape:export-filename="3.svg"
       inkscape:export-xdpi="96"
       inkscape:export-ydpi="96" /></g></svg>
