<?xml version="1.0" encoding="UTF-8" standalone="no"?>
<!-- Created with Inkscape (http://www.inkscape.org/) -->

<svg
   width="46.788422mm"
   height="33.37751mm"
   viewBox="0 0 46.788422 33.37751"
   version="1.1"
   id="svg5"
   xml:space="preserve"
   xmlns:inkscape="http://www.inkscape.org/namespaces/inkscape"
   xmlns:sodipodi="http://sodipodi.sourceforge.net/DTD/sodipodi-0.dtd"
   xmlns="http://www.w3.org/2000/svg"
   xmlns:svg="http://www.w3.org/2000/svg"><sodipodi:namedview
     id="namedview7"
     pagecolor="#ffffff"
     bordercolor="#000000"
     borderopacity="0.25"
     inkscape:showpageshadow="2"
     inkscape:pageopacity="0.0"
     inkscape:pagecheckerboard="0"
     inkscape:deskcolor="#d1d1d1"
     inkscape:document-units="mm"
     showgrid="false"
     showguides="false"
     inkscape:zoom="0.73851712"
     inkscape:cx="838.84312"
     inkscape:cy="575.47752"
     inkscape:window-width="1920"
     inkscape:window-height="1009"
     inkscape:window-x="1912"
     inkscape:window-y="-8"
     inkscape:window-maximized="1"
     inkscape:current-layer="layer1" /><defs
     id="defs2" /><g
     inkscape:label="Слой 1"
     inkscape:groupmode="layer"
     id="layer1"
     transform="translate(-351.51881,-68.782553)"><path
       style="fill:#000000;fill-opacity:1;stroke:#080402;stroke-width:1;stroke-linecap:round;stroke-dasharray:none;stroke-opacity:1"
       d="m 360.23335,69.418687 37.57283,-0.134343 -0.0633,30.062409 c 0,0 -13.49354,3.271577 -14.71502,1.778197 -1.22148,-1.493377 3.50673,-4.831187 1.43305,-7.523517 -0.80539,-1.03817 -3.11282,-1.80231 -5.01567,-2.01523 -1.90285,-0.21292 -7.34819,-0.52004 -5.09438,3.81028 1.18086,2.26883 2.43879,3.34494 1.57922,4.57785 -1.23038,1.764767 -5.39578,2.707347 -15.47279,-0.0585 0,0 3.06224,-12.897603 0.62697,-12.49442 -2.43527,0.40319 -7.80058,6.14599 -9.06163,-2.937091 0.60047,-5.431505 4.89138,-4.128707 8.12119,-3.422074 3.22981,0.706632 0.0896,-11.643551 0.0896,-11.643551 z"
       id="path6150-1"
       sodipodi:nodetypes="ccczczssczczcc"
       inkscape:export-filename="4.svg"
       inkscape:export-xdpi="96"
       inkscape:export-ydpi="96" /></g></svg>
