<?xml version="1.0" encoding="UTF-8" standalone="no"?>
<!-- Created with Inkscape (http://www.inkscape.org/) -->

<svg
   width="46.14212mm"
   height="40.789146mm"
   viewBox="0 0 46.14212 40.789146"
   version="1.1"
   id="svg5"
   xml:space="preserve"
   xmlns:inkscape="http://www.inkscape.org/namespaces/inkscape"
   xmlns:sodipodi="http://sodipodi.sourceforge.net/DTD/sodipodi-0.dtd"
   xmlns="http://www.w3.org/2000/svg"
   xmlns:svg="http://www.w3.org/2000/svg"><sodipodi:namedview
     id="namedview7"
     pagecolor="#ffffff"
     bordercolor="#000000"
     borderopacity="0.25"
     inkscape:showpageshadow="2"
     inkscape:pageopacity="0.0"
     inkscape:pagecheckerboard="0"
     inkscape:deskcolor="#d1d1d1"
     inkscape:document-units="mm"
     showgrid="false"
     showguides="false"
     inkscape:zoom="0.73851712"
     inkscape:cx="838.84312"
     inkscape:cy="575.47752"
     inkscape:window-width="1920"
     inkscape:window-height="1009"
     inkscape:window-x="1912"
     inkscape:window-y="-8"
     inkscape:window-maximized="1"
     inkscape:current-layer="layer1" /><defs
     id="defs2" /><g
     inkscape:label="Слой 1"
     inkscape:groupmode="layer"
     id="layer1"
     transform="translate(-198.39887,-104.6392)"><path
       style="fill:#000000;fill-opacity:1;stroke:#080402;stroke-width:1;stroke-linecap:round;stroke-dasharray:none;stroke-opacity:1"
       d="m 199.53415,113.87357 0.0633,30.27295 c 0,0 12.31963,1.98938 14.56649,-0.37999 2.24686,-2.36937 -5.01996,-9.86273 5.26878,-7.99395 10.28874,1.86879 0.70267,7.65781 2.94272,8.54671 2.24004,0.8889 13.82822,-1.05942 13.82822,-1.05942 0,0 -0.66296,-9.22013 0.27506,-11.08956 0.93802,-1.86943 8.00171,5.3136 7.53976,-3.32722 -0.46195,-8.64081 -5.13308,-4.10869 -7.59859,-4.82095 -2.4655,-0.71225 0.0787,-10.96197 0.0787,-10.96197 0,0 -13.19307,2.65957 -14.73568,0.52298 -1.54261,-2.1366 6.61553,-7.22613 -2.99106,-8.33368 -9.60659,-1.10755 -3.19278,6.66538 -4.36545,8.69736 -1.17266,2.03198 -14.87228,-0.0733 -14.87228,-0.0733 z"
       id="path9049-4"
       sodipodi:nodetypes="cczzzczzzczzzc"
       inkscape:export-filename="5.svg"
       inkscape:export-xdpi="96"
       inkscape:export-ydpi="96" /></g></svg>
