<?xml version="1.0" encoding="UTF-8" standalone="no"?>
<!-- Created with Inkscape (http://www.inkscape.org/) -->

<svg
   width="41.780258mm"
   height="40.582169mm"
   viewBox="0 0 41.780258 40.582169"
   version="1.1"
   id="svg5"
   xml:space="preserve"
   xmlns:inkscape="http://www.inkscape.org/namespaces/inkscape"
   xmlns:sodipodi="http://sodipodi.sourceforge.net/DTD/sodipodi-0.dtd"
   xmlns="http://www.w3.org/2000/svg"
   xmlns:svg="http://www.w3.org/2000/svg"><sodipodi:namedview
     id="namedview7"
     pagecolor="#ffffff"
     bordercolor="#000000"
     borderopacity="0.25"
     inkscape:showpageshadow="2"
     inkscape:pageopacity="0.0"
     inkscape:pagecheckerboard="0"
     inkscape:deskcolor="#d1d1d1"
     inkscape:document-units="mm"
     showgrid="false"
     showguides="false"
     inkscape:zoom="0.73851712"
     inkscape:cx="838.84312"
     inkscape:cy="575.47752"
     inkscape:window-width="1920"
     inkscape:window-height="1009"
     inkscape:window-x="1912"
     inkscape:window-y="-8"
     inkscape:window-maximized="1"
     inkscape:current-layer="layer1" /><defs
     id="defs2" /><g
     inkscape:label="Слой 1"
     inkscape:groupmode="layer"
     id="layer1"
     transform="translate(-249.41317,-109.16063)"><path
       style="fill:#000000;fill-opacity:1;stroke:#080402;stroke-width:1;stroke-linecap:round;stroke-dasharray:none;stroke-opacity:1"
       d="m 290.12918,111.06586 c 0,0 1.26109,9.40203 -0.0672,11.37485 -1.32826,1.97282 -7.65966,-5.51553 -8.09165,4.32089 -0.43199,9.83642 6.83548,2.44858 8.23818,3.6351 1.40269,1.18652 -0.68393,11.21108 -0.68393,11.21108 0,0 -13.80352,-1.80703 -15.22618,0.17913 -1.42265,1.98616 6.3814,7.18661 -2.4445,7.44933 -8.82591,0.26272 -3.31881,-7.48816 -4.36249,-8.70325 -1.04368,-1.21509 -16.30097,0.89566 -16.30097,0.89566 0,0 -0.73382,-9.36319 0.35827,-11.28528 1.09208,-1.92209 8.00533,6.20598 7.36426,-3.82509 -0.64108,-10.03108 -6.74964,-1.55529 -8.43905,-4.59409 -1.68941,-3.0388 1.11957,-10.56876 1.11957,-10.56876 0,0 12.8427,-2.50391 14.644,-0.89566 1.8013,1.60825 -3.44259,10.3758 5.77567,8.41918 9.21826,-1.95662 1.444,-7.05141 2.72857,-8.53498 1.28457,-1.48356 15.38742,0.92189 15.38742,0.92189 z"
       id="path8828-5"
       sodipodi:nodetypes="czzzczzzczzzczzzc"
       inkscape:export-filename="6.svg"
       inkscape:export-xdpi="96"
       inkscape:export-ydpi="96" /></g></svg>
