<?xml version="1.0" encoding="UTF-8" standalone="no"?>
<!-- Created with Inkscape (http://www.inkscape.org/) -->

<svg
   width="54.607269mm"
   height="40.680748mm"
   viewBox="0 0 54.607269 40.680748"
   version="1.1"
   id="svg5"
   xml:space="preserve"
   xmlns:inkscape="http://www.inkscape.org/namespaces/inkscape"
   xmlns:sodipodi="http://sodipodi.sourceforge.net/DTD/sodipodi-0.dtd"
   xmlns="http://www.w3.org/2000/svg"
   xmlns:svg="http://www.w3.org/2000/svg"><sodipodi:namedview
     id="namedview7"
     pagecolor="#ffffff"
     bordercolor="#000000"
     borderopacity="0.25"
     inkscape:showpageshadow="2"
     inkscape:pageopacity="0.0"
     inkscape:pagecheckerboard="0"
     inkscape:deskcolor="#d1d1d1"
     inkscape:document-units="mm"
     showgrid="false"
     showguides="false"
     inkscape:zoom="0.73851712"
     inkscape:cx="838.84312"
     inkscape:cy="575.47752"
     inkscape:window-width="1920"
     inkscape:window-height="1009"
     inkscape:window-x="1912"
     inkscape:window-y="-8"
     inkscape:window-maximized="1"
     inkscape:current-layer="layer1" /><defs
     id="defs2" /><g
     inkscape:label="Слой 1"
     inkscape:groupmode="layer"
     id="layer1"
     transform="translate(-297.23554,-103.1045)"><path
       style="fill:#000000;fill-opacity:1;stroke:#080402;stroke-width:1;stroke-linecap:round;stroke-dasharray:none;stroke-opacity:1"
       d="m 343.33469,112.54772 c 0,0 -2.69036,9.79873 -1.25392,11.64354 1.43643,1.84481 6.18391,-5.61447 8.82223,3.35872 2.63831,8.9732 -7.4174,2.07211 -8.3744,4.4335 -0.957,2.36139 0.80609,10.47919 0.80609,10.47919 0,0 -12.89225,1.70329 -15.13661,-0.35826 -2.24436,-2.06155 7.15883,-5.71208 -2.77654,-7.97135 -9.93536,-2.25927 -2.813,7.14533 -4.74698,8.68788 -1.93398,1.54255 -15.49488,-1.25392 -15.49488,-1.25392 0,0 2.27239,-9.00594 0.89566,-11.10615 -1.37673,-2.10022 -8.03594,6.74901 -8.32961,-3.58263 -0.29367,-10.33163 6.26144,-2.58422 7.70265,-4.38873 1.44121,-1.80451 0.44783,-11.55398 0.44783,-11.55398 0,0 13.185,2.63635 14.59921,1.88088 1.41421,-0.75547 -4.10856,-10.59753 5.64264,-9.04614 9.75121,1.55138 -0.14377,6.98828 1.52262,9.04615 1.66639,2.05787 15.67401,-0.2687 15.67401,-0.2687 z"
       id="path8593-2"
       sodipodi:nodetypes="czzzczzzczzzczzzc"
       inkscape:export-filename="7.svg"
       inkscape:export-xdpi="96"
       inkscape:export-ydpi="96" /></g></svg>
