<?xml version="1.0" encoding="UTF-8" standalone="no"?>
<!-- Created with Inkscape (http://www.inkscape.org/) -->

<svg
   width="39.819519mm"
   height="41.586868mm"
   viewBox="0 0 39.819519 41.586868"
   version="1.1"
   id="svg5"
   xml:space="preserve"
   xmlns:inkscape="http://www.inkscape.org/namespaces/inkscape"
   xmlns:sodipodi="http://sodipodi.sourceforge.net/DTD/sodipodi-0.dtd"
   xmlns="http://www.w3.org/2000/svg"
   xmlns:svg="http://www.w3.org/2000/svg"><sodipodi:namedview
     id="namedview7"
     pagecolor="#ffffff"
     bordercolor="#000000"
     borderopacity="0.25"
     inkscape:showpageshadow="2"
     inkscape:pageopacity="0.0"
     inkscape:pagecheckerboard="0"
     inkscape:deskcolor="#d1d1d1"
     inkscape:document-units="mm"
     showgrid="false"
     showguides="false"
     inkscape:zoom="0.73851712"
     inkscape:cx="838.84312"
     inkscape:cy="575.47752"
     inkscape:window-width="1920"
     inkscape:window-height="1009"
     inkscape:window-x="1912"
     inkscape:window-y="-8"
     inkscape:window-maximized="1"
     inkscape:current-layer="layer1" /><defs
     id="defs2" /><g
     inkscape:label="Слой 1"
     inkscape:groupmode="layer"
     id="layer1"
     transform="translate(-358.28462,-104.16575)"><path
       style="fill:#000000;fill-opacity:1;stroke:#080402;stroke-width:1;stroke-linecap:round;stroke-dasharray:none;stroke-opacity:1"
       d="M 397.60415,143.00899 V 112.4607 c 0,0 -12.40285,3.68852 -14.28706,1.63392 -1.88421,-2.0546 6.7929,-8.20509 -4.20959,-9.31484 -11.00248,-1.10975 -1.12866,6.76176 -3.40349,8.86701 -2.27483,2.10525 -15.31575,-0.53739 -15.31575,-0.53739 0,0 -2.60984,9.52281 -1.16435,11.55398 1.44549,2.03117 5.428,-5.0919 8.41918,3.22437 2.99118,8.31627 -6.22565,3.39736 -8.06092,4.47828 -1.83527,1.08092 0.98523,10.83746 0.98523,10.83746 0,0 13.59589,2.47688 14.82312,0.62696 1.22724,-1.84993 -5.57888,-9.29895 2.68698,-8.95658 8.26586,0.34236 1.95643,6.1003 3.94089,9.22528 1.98445,3.12497 15.58576,-1.09016 15.58576,-1.09016 z"
       id="path7064-5"
       sodipodi:nodetypes="cczzzczzzczzzc"
       inkscape:export-filename="8.svg"
       inkscape:export-xdpi="96"
       inkscape:export-ydpi="96" /></g></svg>
