<?xml version="1.0" encoding="UTF-8" standalone="no"?>
<!-- Created with Inkscape (http://www.inkscape.org/) -->

<svg
   width="39.621719mm"
   height="47.300247mm"
   viewBox="0 0 39.621719 47.300247"
   version="1.1"
   id="svg5"
   xml:space="preserve"
   xmlns:inkscape="http://www.inkscape.org/namespaces/inkscape"
   xmlns:sodipodi="http://sodipodi.sourceforge.net/DTD/sodipodi-0.dtd"
   xmlns="http://www.w3.org/2000/svg"
   xmlns:svg="http://www.w3.org/2000/svg"><sodipodi:namedview
     id="namedview7"
     pagecolor="#ffffff"
     bordercolor="#000000"
     borderopacity="0.25"
     inkscape:showpageshadow="2"
     inkscape:pageopacity="0.0"
     inkscape:pagecheckerboard="0"
     inkscape:deskcolor="#d1d1d1"
     inkscape:document-units="mm"
     showgrid="false"
     showguides="false"
     inkscape:zoom="0.73851712"
     inkscape:cx="838.84312"
     inkscape:cy="575.47752"
     inkscape:window-width="1920"
     inkscape:window-height="1009"
     inkscape:window-x="1912"
     inkscape:window-y="-8"
     inkscape:window-maximized="1"
     inkscape:current-layer="layer1" /><defs
     id="defs2" /><g
     inkscape:label="Слой 1"
     inkscape:groupmode="layer"
     id="layer1"
     transform="translate(-199.08782,-147.42045)"><path
       style="fill:#000000;fill-opacity:1;stroke:#080402;stroke-width:1;stroke-linecap:round;stroke-dasharray:none;stroke-opacity:1"
       d="m 199.59074,156.78224 0.15404,30.2011 c 0,0 12.89582,-1.87221 14.34045,-0.20537 1.44463,1.66684 -5.28437,7.69569 4.56785,7.43396 9.85223,-0.26173 2.55548,-6.86372 4.56786,-8.50874 2.01238,-1.64502 13.16616,0.98522 13.16616,0.98522 0,0 2.55653,-10.71649 0.89566,-11.82268 -1.66087,-1.10618 -8.06511,4.72455 -8.15048,-3.76175 -0.0854,-8.48631 7.16773,-3.66708 8.66708,-4.57779 1.49935,-0.91071 -1.60132,-10.69092 -1.60132,-10.69092 0,0 -12.75398,2.03812 -13.95146,0.66855 -1.19748,-1.36957 7.24582,-5.81958 -2.7874,-8.15498 -10.03323,-2.3354 -3.25211,5.7514 -5.29525,7.94511 -2.04314,2.19371 -14.57319,0.48829 -14.57319,0.48829 z"
       id="path9101-6"
       sodipodi:nodetypes="cczzzczzzczzzc"
       inkscape:export-filename="9.svg"
       inkscape:export-xdpi="96"
       inkscape:export-ydpi="96" /></g></svg>
