<?xml version="1.0" encoding="UTF-8" standalone="no"?>
<!-- Created with Inkscape (http://www.inkscape.org/) -->

<svg
   width="152.04971mm"
   height="123.35582mm"
   viewBox="0 0 152.04971 123.35582"
   version="1.1"
   id="svg5"
   xml:space="preserve"
   xmlns:inkscape="http://www.inkscape.org/namespaces/inkscape"
   xmlns:sodipodi="http://sodipodi.sourceforge.net/DTD/sodipodi-0.dtd"
   xmlns="http://www.w3.org/2000/svg"
   xmlns:svg="http://www.w3.org/2000/svg"><sodipodi:namedview
     id="namedview7"
     pagecolor="#ffffff"
     bordercolor="#000000"
     borderopacity="0.25"
     inkscape:showpageshadow="2"
     inkscape:pageopacity="0.0"
     inkscape:pagecheckerboard="0"
     inkscape:deskcolor="#d1d1d1"
     inkscape:document-units="mm"
     showgrid="false"
     showguides="false"
     inkscape:zoom="0.73851712"
     inkscape:cx="838.84312"
     inkscape:cy="575.47752"
     inkscape:window-width="1920"
     inkscape:window-height="1009"
     inkscape:window-x="1912"
     inkscape:window-y="-8"
     inkscape:window-maximized="1"
     inkscape:current-layer="layer1" /><defs
     id="defs2" /><g
     inkscape:label="Слой 1"
     inkscape:groupmode="layer"
     id="layer1"
     transform="translate(-34.792371,-79.799482)"><g
       id="g9153"
       inkscape:export-filename="outline.svg"
       inkscape:export-xdpi="96"
       inkscape:export-ydpi="96"><g
         id="g9099"
         transform="translate(0.06178021,-0.21710547)"><g
           id="g9047"
           transform="translate(-2.6523803e-6,0.17912935)"><g
             id="g8986"><g
               id="g8938"><g
                 id="g8870"
                 transform="translate(-0.01483523,-0.07792559)"><g
                   id="g8826"
                   transform="translate(0.09545084,-0.05571454)"><g
                     id="g8786"
                     transform="translate(-0.17913042)"><g
                       id="g8724"
                       transform="translate(0.1266607,-0.12666509)"><g
                         id="g8686"
                         transform="translate(-0.01347961,0.27879111)"><g
                           id="g8628"><g
                             id="g8591"
                             transform="translate(-0.00602265,-0.21077049)"><g
                               id="g7107"
                               transform="translate(-0.02146703,0.07419869)"><path
                                 style="fill:none;stroke:#080402;stroke-width:1;stroke-linecap:round;stroke-dasharray:none;stroke-opacity:1"
                                 d="m 148.68798,80.865133 37.57283,-0.134343 -0.0633,30.06241 c 0,0 -13.49354,3.27158 -14.71502,1.7782 -1.22148,-1.49338 3.50673,-4.83119 1.43305,-7.52352 -0.80539,-1.03817 -3.11282,-1.80231 -5.01567,-2.01523 -1.90285,-0.21292 -7.34819,-0.52004 -5.09438,3.81028 1.18086,2.26883 2.43879,3.34494 1.57922,4.57785 -1.23038,1.76477 -5.39578,2.70735 -15.47279,-0.0585 0,0 3.06224,-12.897604 0.62697,-12.494421 -2.43527,0.40319 -7.80058,6.145991 -9.06163,-2.937091 0.60047,-5.431505 4.89138,-4.128707 8.12119,-3.422074 3.22981,0.706632 0.0896,-11.643551 0.0896,-11.643551 z"
                                 id="path6150"
                                 sodipodi:nodetypes="ccczczssczczcc" /><path
                                 style="fill:none;stroke:#080402;stroke-width:0.975909;stroke-linecap:round;stroke-dasharray:none;stroke-opacity:1"
                                 d="m 186.30242,202.59921 -0.12355,-31.77124 c 0,0 -14.32267,-1.03955 -15.51408,0.41864 -0.11132,4.8852 2.10651,9.59176 -3.97492,8.96414 -8.87179,-0.9156 -1.86598,-7.36131 -2.64238,-8.54028 -0.77641,-1.17897 -5.30664,-2.64354 -15.13561,0.0571 0,0 2.55006,13.20583 0.1747,12.81214 -2.37533,-0.39367 -7.60857,-4.90796 -7.96498,2.91161 0.58569,5.3035 7.06758,4.6564 8.74154,5.06234 1.67394,0.40594 -1.72876,9.99806 -1.72876,9.99806 12.72267,0.025 25.44534,0.0576 38.168,0.0875 z"
                                 id="path6150-2"
                                 sodipodi:nodetypes="cccszczczccc" /><path
                                 style="fill:none;fill-opacity:1;stroke:#080402;stroke-width:1.00755;stroke-linecap:round;stroke-dasharray:none;stroke-opacity:1"
                                 d="m 186.16031,141.69672 0.12665,28.87202 c 0,0 -13.70709,-1.07008 -15.19724,0.25721 -1.49013,1.32729 2.9519,10.17067 -4.17924,9.00242 -7.13112,-1.16825 -3.21358,-4.39956 -2.40622,-8.10217 0.80737,-3.70262 -15.45051,-0.57873 -15.45051,-0.57873 0,0 3.07483,-9.93099 0.31661,-10.22417 -2.75821,-0.29316 -8.76804,3.55056 -7.34533,-5.07993 1.4227,-8.63048 6.09273,-2.23845 7.97856,-3.47236 1.88582,-1.2339 -1.05257,-10.87797 -1.05257,-10.87797 0,0 13.53903,2.85958 14.8567,0.71811 1.31767,-2.14148 -5.40775,-9.14241 2.27958,-9.25963 7.68735,-0.11722 3.34078,6.74622 4.30589,9.45254 0.96512,2.70632 15.76712,-0.70734 15.76712,-0.70734 z"
                                 id="path7040"
                                 sodipodi:nodetypes="cczzzczzzczzzc" /><path
                                 style="fill:none;fill-opacity:1;stroke:#080402;stroke-width:1;stroke-linecap:round;stroke-dasharray:none;stroke-opacity:1"
                                 d="m 186.05878,141.28227 v -30.54829 c 0,0 -12.40285,3.68852 -14.28706,1.63392 -1.88421,-2.0546 6.7929,-8.20509 -4.20959,-9.31484 -11.00248,-1.10975 -1.12866,6.76176 -3.40349,8.86701 -2.27483,2.10525 -15.31575,-0.53739 -15.31575,-0.53739 0,0 -2.60984,9.52281 -1.16435,11.55398 1.44549,2.03117 5.428,-5.0919 8.41918,3.22437 2.99118,8.31627 -6.22565,3.39736 -8.06092,4.47828 -1.83527,1.08092 0.98523,10.83746 0.98523,10.83746 0,0 13.59589,2.47688 14.82312,0.62696 1.22724,-1.84993 -5.57888,-9.29895 2.68698,-8.95658 8.26586,0.34236 1.95643,6.1003 3.94089,9.22528 1.98445,3.12497 15.58576,-1.09016 15.58576,-1.09016 z"
                                 id="path7064"
                                 sodipodi:nodetypes="cczzzczzzczzzc" /></g><path
                               style="fill:none;fill-opacity:1;stroke:#080402;stroke-width:1;stroke-linecap:round;stroke-dasharray:none;stroke-opacity:1"
                               d="m 148.3842,80.799164 h -38.87154 c 0,0 -0.98728,8.597876 0.29494,9.662234 1.28222,1.064358 8.10598,-3.067059 8.25092,4.984947 0.14494,8.052005 -5.98334,1.717131 -7.71353,2.180313 -1.73019,0.463182 0.5374,12.315292 0.5374,12.315292 0,0 14.20475,3.05864 14.90951,1.79449 0.70476,-1.26414 -4.24867,-10.30871 5.75581,-8.80817 10.00447,1.50054 -0.19087,6.45118 1.72611,8.67064 1.91698,2.21946 15.40531,0.17913 15.40531,0.17913 0,0 2.87243,-10.91017 1.25392,-12.71833 -1.61851,-1.808159 -8.16333,7.33898 -9.18817,-2.064514 -1.02485,-9.403495 7.36441,-2.401919 8.82991,-4.921615 1.4655,-2.519696 -1.19059,-11.274417 -1.19059,-11.274417 z"
                               id="path8561"
                               sodipodi:nodetypes="cczzzczzzczzzc" /></g><path
                             style="fill:none;fill-opacity:1;stroke:#080402;stroke-width:1;stroke-linecap:round;stroke-dasharray:none;stroke-opacity:1"
                             d="m 148.5,111.50935 c 0,0 -2.69036,9.79873 -1.25392,11.64354 1.43643,1.84481 6.18391,-5.61447 8.82223,3.35872 2.63831,8.9732 -7.4174,2.07211 -8.3744,4.4335 -0.957,2.36139 0.80609,10.47919 0.80609,10.47919 0,0 -12.89225,1.70329 -15.13661,-0.35826 -2.24436,-2.06155 7.15883,-5.71208 -2.77654,-7.97135 -9.93536,-2.25927 -2.813,7.14533 -4.74698,8.68788 -1.93398,1.54255 -15.49488,-1.25392 -15.49488,-1.25392 0,0 2.27239,-9.00594 0.89566,-11.10615 -1.37673,-2.10022 -8.03594,6.74901 -8.32961,-3.58263 -0.29367,-10.33163 6.26144,-2.58422 7.70265,-4.38873 1.44121,-1.80451 0.49262,-11.73312 0.49262,-11.73312 0,0 13.14021,2.81549 14.55442,2.06002 1.41421,-0.75547 -4.10856,-10.59753 5.64264,-9.04614 9.75121,1.55138 -0.14377,6.98828 1.52262,9.04615 1.66639,2.05787 15.67401,-0.2687 15.67401,-0.2687 z"
                             id="path8593"
                             sodipodi:nodetypes="czzzczzzczzzczzzc" /></g><path
                           style="fill:none;fill-opacity:1;stroke:#080402;stroke-width:1;stroke-linecap:round;stroke-dasharray:none;stroke-opacity:1"
                           d="m 110.345,140.61822 c 0,0 12.62236,2.94101 15.22617,0.98521 2.60381,-1.9558 -4.5006,-10.64315 5.10525,-8.41917 9.60585,2.22398 0.66608,5.71878 2.5974,7.79222 1.93132,2.07344 15.40532,0.44782 15.40532,0.44782 0,0 2.89147,8.24074 1.61217,10.56876 -1.2793,2.32802 -7.24803,-5.45482 -8.41918,3.94089 -1.17115,9.39571 7.04422,2.85477 8.06092,5.01568 1.01671,2.16092 -0.80609,10.2105 -0.80609,10.2105 0,0 -15.26453,-1.77117 -15.85314,-0.98522 -0.58861,0.78595 6.4544,8.92501 -2.8661,8.59831 -9.3205,-0.3267 -2.78439,-7.49131 -4.83655,-8.59831 -2.05216,-1.107 -14.86791,1.43305 -14.86791,1.43305 0,0 -2.14839,-10.31033 -1.43306,-11.64355 0.71533,-1.33322 8.75931,5.89922 9.22527,-2.95566 0.46596,-8.85489 -8.86701,-5.64265 -8.86701,-5.64265 z"
                           id="path8652"
                           sodipodi:nodetypes="czzzczzzczzzczzcc" /></g><path
                         style="fill:none;fill-opacity:1;stroke:#080402;stroke-width:1;stroke-linecap:round;stroke-dasharray:none;stroke-opacity:1"
                         d="m 148.15326,202.64633 -37.45,-0.0486 c 0,0 -2.30695,-9.50388 -0.89566,-11.28529 1.41129,-1.78141 7.64117,7.72895 8.34498,-3.55189 0.70381,-11.28085 -6.41548,-3.516 -7.80759,-4.86729 -1.39211,-1.35129 0.4632,-10.94688 0.4632,-10.94688 0,0 13.35177,-2.81792 14.82632,-1.31725 1.47455,1.50067 -3.91881,7.85867 4.82568,8.40831 8.74448,0.54963 2.07338,-7.51687 3.11942,-8.57845 1.04604,-1.06157 14.92039,0.96984 14.92039,0.96984 0,0 2.18325,12.58309 0.68393,13.34079 -1.49932,0.75769 -7.8412,-5.19358 -7.84919,1.87451 -0.008,7.0681 7.91654,5.28643 8.95657,6.30221 1.04003,1.01578 -2.13805,9.69999 -2.13805,9.69999 z"
                         id="path8688"
                         sodipodi:nodetypes="cczzzczzzczzzc" /></g><path
                       style="fill:none;fill-opacity:1;stroke:#080402;stroke-width:1;stroke-linecap:round;stroke-dasharray:none;stroke-opacity:1"
                       d="m 111.30152,202.48501 c 0,0 -2.57153,-9.31634 -1.29606,-11.19132 1.27547,-1.87498 7.53587,7.52686 8.19479,-3.91892 0.65893,-11.44578 -6.762,-2.44094 -7.71756,-4.82866 -0.95556,-2.38772 0.49129,-10.66795 0.49129,-10.66795 0,0 -2.60131,-0.16982 -7.97522,0.23393 -5.373906,0.40375 -7.314154,0.0629 -7.314154,0.0629 0,0 6.652714,-7.15023 -2.533303,-8.59785 -9.186013,-1.44761 -2.524675,6.3111 -4.306612,8.3599 -1.781936,2.0488 -16.778623,-0.4913 -16.778623,-0.4913 0,0 3.155247,8.41438 1.995909,10.86246 -1.159339,2.44808 -7.265781,-5.92626 -8.329164,3.3675 -1.063382,9.29377 7.027454,2.77593 8.910021,5.44023 1.882568,2.66431 -2.122571,11.3845 -2.122571,11.3845 z"
                       id="path8726"
                       sodipodi:nodetypes="czzzczczzczzzcc" /></g><path
                     style="fill:none;fill-opacity:1;stroke:#080402;stroke-width:1;stroke-linecap:round;stroke-dasharray:none;stroke-opacity:1"
                     d="m 109.67613,80.783362 c 0,0 -1.32792,7.54171 -0.0525,9.41669 1.27547,1.87498 8.32658,-3.405746 8.38929,5.506735 0.0627,8.912483 -7.16505,-0.212662 -8.12061,2.175061 -0.95556,2.387712 1.01331,12.076622 1.01331,12.076622 -4.55669,-0.50502 -13.442927,-2.10281 -15.407692,-0.68384 -1.065145,1.02759 6.055832,7.26219 -3.130195,8.70981 -9.18601,1.44761 -3.656982,-6.37827 -5.438912,-8.42707 -1.78194,-2.0488 -14.506343,0.45354 -14.506343,0.45354 0,0 2.120197,-9.53263 1.050423,-11.353757 -1.069775,-1.821123 -7.713609,4.495847 -8.776989,-4.797918 -1.06338,-9.29377 7.914106,-2.26926 8.91002,-4.42691 0.995915,-2.157649 -0.602588,-8.724533 -0.602588,-8.724533 z"
                     id="path8726-2-3"
                     sodipodi:nodetypes="czzzcczzczzzcc" /></g><path
                   style="fill:none;fill-opacity:1;stroke:#080402;stroke-width:1;stroke-linecap:round;stroke-dasharray:none;stroke-opacity:1"
                   d="m 110.94956,110.07629 c 0,0 1.26109,9.40203 -0.0672,11.37485 -1.32826,1.97282 -7.65966,-5.51553 -8.09165,4.32089 -0.43199,9.83642 6.83548,2.44858 8.23818,3.6351 1.40269,1.18652 -0.68393,11.21108 -0.68393,11.21108 0,0 -13.803521,-1.80703 -15.226174,0.17913 -1.422653,1.98616 6.381394,7.18661 -2.444507,7.44933 -8.825903,0.26272 -3.31881,-7.48816 -4.362489,-8.70325 -1.043679,-1.21509 -16.300964,0.89566 -16.300964,0.89566 0,0 -0.733822,-9.36319 0.358262,-11.28528 1.092084,-1.92209 8.005333,6.20598 7.36426,-3.82509 -0.641073,-10.03108 -6.74964,-1.55529 -8.439048,-4.59409 -1.689408,-3.0388 1.119571,-10.56876 1.119571,-10.56876 0,0 12.842704,-2.50391 14.644,-0.89566 1.801296,1.60825 -3.442588,10.3758 5.77567,8.41918 9.218259,-1.95662 1.444001,-7.05141 2.728573,-8.53498 1.284572,-1.48356 15.387416,0.92189 15.387416,0.92189 z"
                   id="path8828"
                   sodipodi:nodetypes="czzzczzzczzzczzzc" /></g><path
                 style="fill:none;fill-opacity:1;stroke:#080402;stroke-width:1;stroke-linecap:round;stroke-dasharray:none;stroke-opacity:1"
                 d="m 72.050701,140.32955 c 0,0 2.305739,9.15848 1.66838,10.52857 -0.637359,1.37009 -8.879122,-4.34181 -8.866558,4.93994 0.01256,9.28175 7.156906,1.94746 8.359896,3.41995 1.20299,1.47249 -1.072152,12.05624 -1.072152,12.05624 0,0 14.922036,2.57733 16.584125,0.40172 1.662089,-2.17561 -4.916393,-9.2276 4.054601,-8.29974 8.970997,0.92786 3.09693,8.61959 3.09693,8.61959 l 14.829357,-0.74462 c 0,0 -1.91247,-9.87869 -1.13998,-11.16827 0.77249,-1.28957 9.20928,5.59124 9.11988,-3.27156 -0.0894,-8.8628 -9.24655,-5.31993 -9.24655,-5.31993 l 0.75999,-11.01986 c 0,0 -13.757588,-1.79755 -15.065457,0.35058 -1.30787,2.14814 6.042997,7.01078 -2.192657,7.53432 -8.235655,0.52354 -4.108796,-7.3696 -4.781608,-8.77156 -0.672812,-1.40196 -16.108197,0.74463 -16.108197,0.74463 z"
                 id="path8872"
                 sodipodi:nodetypes="czzzczzcczzcczzzc" /></g><path
               style="fill:none;fill-opacity:1;stroke:#080402;stroke-width:1;stroke-linecap:round;stroke-dasharray:none;stroke-opacity:1"
               d="M 72.660208,80.564384 35.288902,80.340466 v 30.541924 c 0,0 12.727305,1.94526 14.68878,0.35826 1.961476,-1.58699 -5.63809,-10.36738 4.567854,-8.86701 10.205945,1.50037 1.336553,6.46994 2.776538,8.41918 1.439986,1.94924 15.13661,-0.94044 15.13661,-0.94044 0,0 1.753599,-10.312646 0.94044,-11.464416 -0.813158,-1.151769 -7.823122,4.081506 -8.687877,-4.612637 -0.864755,-8.694138 6.460582,-3.166872 8.486356,-4.164808 2.025775,-0.997935 -0.537395,-9.046135 -0.537395,-9.046135 z"
               id="path8940"
               sodipodi:nodetypes="ccczzzczzzc" /></g><path
             style="fill:none;fill-opacity:1;stroke:#080402;stroke-width:1;stroke-linecap:round;stroke-dasharray:none;stroke-opacity:1"
             d="m 72.692973,202.46633 -37.371306,0.22391 0.179131,-30.98975 c 0,0 11.921214,-2.12439 13.882689,-0.53739 1.961476,1.58699 -4.563302,7.76997 5.28438,7.34439 9.847682,-0.42558 2.411342,-6.29081 3.851327,-8.24005 1.439986,-1.94924 13.434861,1.03001 13.434861,1.03001 0,0 3.365782,10.22308 1.656965,11.37485 -1.708816,1.15177 -6.210937,-5.78325 -7.702653,2.46306 -1.491716,8.24631 5.385792,4.95818 8.217658,5.23959 2.831867,0.28142 -1.433052,12.09138 -1.433052,12.09138 z"
             id="path8940-2"
             sodipodi:nodetypes="ccczzzczzzc" /></g><path
           style="fill:none;fill-opacity:1;stroke:#080402;stroke-width:1;stroke-linecap:round;stroke-dasharray:none;stroke-opacity:1"
           d="m 35.276226,111.08528 0.06333,30.27295 c 0,0 12.319623,1.98938 14.566485,-0.37999 2.246862,-2.36937 -5.019953,-9.86273 5.268784,-7.99395 10.288738,1.86879 0.702669,7.65781 2.942714,8.54671 2.240045,0.8889 13.828227,-1.05942 13.828227,-1.05942 0,0 -0.662958,-9.22013 0.275061,-11.08956 0.93802,-1.86943 8.001711,5.3136 7.539757,-3.32722 -0.461955,-8.64081 -5.133083,-4.10869 -7.598588,-4.82095 -2.465505,-0.71225 0.0787,-10.96197 0.0787,-10.96197 0,0 -13.193074,2.65957 -14.735682,0.52298 -1.542607,-2.1366 6.615525,-7.22613 -2.991063,-8.33368 -9.606589,-1.10755 -3.192775,6.66538 -4.365444,8.69736 -1.172668,2.03198 -14.872283,-0.0733 -14.872284,-0.0733 z"
           id="path9049"
           sodipodi:nodetypes="cczzzczzzczzzc" /></g><path
         style="fill:none;fill-opacity:1;stroke:#080402;stroke-width:1;stroke-linecap:round;stroke-dasharray:none;stroke-opacity:1"
         d="m 35.393617,141.25396 0.154044,30.2011 c 0,0 12.895823,-1.87221 14.340454,-0.20537 1.444631,1.66684 -5.284378,7.69569 4.567851,7.43396 9.852229,-0.26173 2.555474,-6.86372 4.567854,-8.50874 2.01238,-1.64502 13.166164,0.98522 13.166164,0.98522 0,0 2.556523,-10.71649 0.895657,-11.82268 -1.660867,-1.10618 -8.065105,4.72455 -8.150482,-3.76175 -0.08538,-8.48631 7.167728,-3.66708 8.667078,-4.57779 1.49935,-0.91071 -1.601319,-10.69092 -1.601319,-10.69092 0,0 -12.753975,2.03812 -13.951454,0.66855 -1.19748,-1.36957 7.24582,-5.81958 -2.787406,-8.15498 -10.033226,-2.3354 -3.252103,5.7514 -5.295243,7.94511 -2.04314,2.19371 -14.573198,0.48829 -14.573198,0.48829 z"
         id="path9101"
         sodipodi:nodetypes="cczzzczzzczzzc" /></g></g></svg>
