<?xml version="1.0" encoding="utf-8"?>
<!-- Generator: Adobe Illustrator 27.5.0, SVG Export Plug-In . SVG Version: 6.00 Build 0)  -->
<svg version="1.1" id="Layer_1" xmlns="http://www.w3.org/2000/svg" xmlns:xlink="http://www.w3.org/1999/xlink" x="0px" y="0px"
	 viewBox="0 0 258.962 329.507" style="enable-background:new 0 0 258.962 329.507;" xml:space="preserve">
<g>
	<g>
		<g>
			<path style="fill:#CD8F5F;" d="M139.473,192.844c0,0,9.791,65.315,12.85,68.277c12.362-0.157,23.269,3.735,24.051,13.573
				c0.255,8.801-5.521,9.577-9.129,8.499c-3.567,5.424-10.804,6.189-17.726,2.932c-8.089,5.212-20.126-0.114-23.057-8.258
				c-8.806-3.806-8.337-4.562-9.647-13.596c-1.31-9.034-7.644-32.307-7.644-32.307L139.473,192.844z"/>
			<path style="fill:#99582B;" d="M142.196,288.433c-1.788,0-3.638-0.307-5.475-0.929c-4.913-1.663-8.907-5.28-10.452-9.456
				c-8.263-3.579-8.402-4.569-9.458-12.083c-0.074-0.52-0.151-1.072-0.236-1.659c-1.293-8.917-7.575-32.046-7.639-32.279
				c-0.02-0.073-0.005-0.152,0.043-0.212l30.303-39.119c0.059-0.076,0.154-0.108,0.253-0.086c0.094,0.025,0.164,0.103,0.178,0.199
				c3.353,22.366,10.283,65.087,12.716,68.069c0.214-0.003,0.429-0.004,0.641-0.004c14.075,0,22.857,5.13,23.546,13.802
				c0.108,3.726-0.822,6.366-2.767,7.858c-1.655,1.27-4.075,1.62-6.501,0.942c-3.474,5.099-10.591,6.273-17.811,2.925
				C147.395,287.748,144.864,288.433,142.196,288.433z M109.435,232.016c0.488,1.799,6.369,23.603,7.619,32.219
				c0.085,0.588,0.163,1.141,0.237,1.661c1.049,7.463,1.159,8.242,9.267,11.747c0.061,0.027,0.109,0.078,0.132,0.14
				c1.469,4.082,5.373,7.63,10.188,9.26c4.485,1.52,9.045,1.109,12.51-1.122c0.071-0.046,0.159-0.051,0.235-0.016
				c7.102,3.342,14.104,2.199,17.42-2.846c0.058-0.089,0.169-0.135,0.272-0.099c0.876,0.26,3.909,0.977,6.241-0.813
				c1.813-1.392,2.681-3.897,2.577-7.447c-0.678-8.528-9.6-13.523-23.806-13.338c-0.086,0.003-0.126-0.025-0.172-0.068
				c-2.966-2.871-11.81-61.045-12.837-67.855L109.435,232.016z"/>
		</g>
		<g>
			<path style="fill:#4C261C;" d="M126.775,217.913c1.285,5.053,3.083,10.009,5.522,14.623c2.117,4.003,4.777,7.975,8.404,10.765
				c2.29,1.761,4.94,2.87,7.735,2.981c-3.969-20.122-8.964-53.438-8.964-53.438l-14.109,18.214
				C125.729,213.364,126.201,215.654,126.775,217.913z"/>
			<path style="fill:#2D110B;" d="M148.437,246.525c-0.003,0-0.007,0-0.01,0c-2.713-0.108-5.435-1.156-7.874-3.031
				c-3.148-2.422-5.839-5.867-8.469-10.843c-2.317-4.382-4.182-9.32-5.543-14.677l0,0c-0.576-2.262-1.052-4.576-1.416-6.877
				c-0.01-0.066,0.007-0.134,0.048-0.187l14.109-18.214c0.059-0.076,0.154-0.108,0.253-0.086c0.094,0.025,0.164,0.103,0.178,0.199
				c0.05,0.333,5.039,33.541,8.962,53.427c0.014,0.073-0.006,0.149-0.053,0.205C148.575,246.493,148.508,246.525,148.437,246.525z
				 M125.62,211.124c0.36,2.253,0.827,4.516,1.391,6.73l0,0c1.353,5.32,3.204,10.221,5.502,14.569
				c2.597,4.913,5.246,8.309,8.337,10.686c2.266,1.743,4.78,2.747,7.289,2.915c-3.634-18.495-8.15-48.147-8.821-52.583
				L125.62,211.124z"/>
		</g>
		<path style="fill:#CD8F5F;" d="M176.374,274.694c-0.782-9.838-11.689-13.73-24.051-13.573c-0.476-0.461-1.116-2.434-1.856-5.436
			c-0.128,0.204-0.264,0.401-0.417,0.583c-1.049,1.248-2.755,1.63-4.289,1.885c-2.618,0.436-5.277-0.026-7.909-0.019
			c-1.216,0.003-2.484,0.062-3.648,0.442c-0.835,0.273-1.616,0.687-2.368,1.134c-1.288,0.766-2.581,1.838-4.084,2.131
			c-1.613,0.314-2.92-0.734-3.757-2.021c-1.069-1.645-1.621-3.695-2.149-5.567c-0.598-2.122-1.07-4.28-1.452-6.45
			c-0.378-2.148-0.668-4.314-0.832-6.49c-0.137-1.812-0.324-3.759,0.084-5.546c0.827-3.62,3.753-6.018,6.7-7.986
			c1.562-1.043,3.176-2.009,4.705-3.102c1.742-1.245,3.268-2.704,4.619-4.367c2.812-3.462,4.708-7.574,6.246-11.74
			c-1.45-9.112-2.442-15.727-2.442-15.727l-30.303,39.119c0,0,6.334,23.273,7.644,32.307c1.31,9.034,0.841,9.79,9.647,13.596
			c2.932,8.144,14.968,13.47,23.057,8.258c6.922,3.258,14.159,2.492,17.726-2.932C170.852,284.271,176.629,283.495,176.374,274.694z
			"/>
		<g>
			<path style="fill:#ECCEB0;" d="M176.374,274.694c-0.782-9.838-11.689-13.73-24.051-13.573c-0.04-0.038-0.081-0.094-0.123-0.153
				c-0.067,0.016-0.132,0.04-0.199,0.055c-3.062,0.704-6.271-0.054-9.298,0.918c-1.99,0.638-4.071,1.557-5.644,2.962
				c-0.563,0.503-1.184,1.181-1.124,1.994c0.074,1.008,1.07,1.7,1.869,2.147c0.235,0.132,0.065,0.437-0.074,0.58
				c-2.377,2.437-5.004,4.778-6.716,7.76c-0.802,1.397-1.361,2.947-1.472,4.563c-0.017,0.249-0.022,0.497-0.019,0.743
				c4.908,5.135,13.661,7.516,19.996,3.435c6.922,3.258,14.159,2.492,17.726-2.932C170.852,284.271,176.629,283.495,176.374,274.694
				z"/>
			<path style="fill:#A57346;" d="M142.249,288.435c-4.855,0-9.754-2.283-12.902-5.577c-0.043-0.044-0.066-0.103-0.067-0.164
				c-0.004-0.253,0.002-0.507,0.02-0.763c0.105-1.543,0.611-3.113,1.502-4.666c1.417-2.47,3.463-4.513,5.442-6.489
				c0.441-0.44,0.88-0.879,1.312-1.321c0.078-0.08,0.124-0.184,0.121-0.218c-0.808-0.437-1.902-1.176-1.985-2.321
				c-0.068-0.928,0.608-1.66,1.204-2.193c1.38-1.232,3.255-2.218,5.733-3.012c1.676-0.538,3.417-0.557,5.101-0.575
				c1.395-0.016,2.839-0.031,4.216-0.348l0.197-0.055c0.096-0.025,0.197,0.014,0.255,0.096c0.011,0.017,0.024,0.033,0.035,0.049
				c0.212-0.003,0.426-0.004,0.637-0.004c14.075,0,22.857,5.129,23.546,13.801c0.001,0.004,0.001,0.008,0.001,0.012
				c0.107,3.714-0.824,6.354-2.768,7.846c-1.655,1.27-4.075,1.62-6.501,0.942c-3.474,5.099-10.591,6.273-17.811,2.925
				C147.288,287.817,144.774,288.435,142.249,288.435z M129.764,282.592c4.69,4.848,13.283,7.413,19.623,3.33
				c0.071-0.046,0.159-0.051,0.235-0.016c7.102,3.342,14.104,2.199,17.42-2.846c0.058-0.089,0.169-0.135,0.272-0.099
				c0.876,0.26,3.91,0.977,6.24-0.813c1.813-1.392,2.681-3.895,2.578-7.442c-0.671-8.386-9.273-13.348-23.061-13.348
				c-0.247,0-0.494,0.002-0.744,0.005c-0.079-0.005-0.127-0.024-0.172-0.069c-0.015-0.014-0.03-0.031-0.046-0.049l-0.051,0.014
				c-1.43,0.329-2.901,0.345-4.322,0.361c-1.647,0.018-3.352,0.036-4.958,0.552c-2.412,0.773-4.23,1.726-5.557,2.912
				c-0.514,0.459-1.097,1.078-1.045,1.795c0.067,0.911,1.029,1.552,1.747,1.954c0.131,0.072,0.215,0.191,0.236,0.332
				c0.044,0.302-0.205,0.575-0.255,0.627c-0.433,0.443-0.873,0.884-1.316,1.326c-1.956,1.953-3.979,3.973-5.364,6.385
				c-0.855,1.49-1.339,2.99-1.44,4.459C129.769,282.174,129.763,282.383,129.764,282.592z"/>
		</g>
		<path style="fill:#ECCEB0;" d="M175.216,278.853c-1.761,0.255-3.038-1.274-3.739-2.68c-1.293-2.593-3.045-4.806-5.827-5.682
			c1.413,2.338,2.569,5.014,2.031,7.773c-0.811,4.16-5.139,7.946-9.518,7.037c-1.137-0.236-2.204-0.754-3.11-1.48
			c-0.948-0.76-1.513-1.784-1.922-2.91c-0.427-1.175-0.744-2.355-1.558-3.334c-0.687-0.826-1.521-1.522-2.427-2.1
			c0.96,1.992,1.226,4.28,0.527,6.429c-0.702,2.159-2.364,3.955-4.541,4.662c-2.7,0.877-5.664,0.093-7.666-1.885
			c-2.105-2.08-3.084-5.271-2.491-8.17c0.599-2.926,2.858-5.278,5.174-7.12c-0.594-0.155-1.193-0.397-1.512-0.869
			c-0.346-0.512-0.17-1.163,0.142-1.645c0.766-1.184,2.362-1.86,3.608-2.386c1.662-0.702,3.343-1.071,5.131-1.302
			c2.462-0.318,4.941-0.473,7.401-0.807c1.298-0.176,2.607-0.37,3.876-0.694c0.197-0.05,0.384-0.114,0.575-0.173
			c-2.251-0.296-4.62-0.428-7.05-0.397c-0.04-0.038-0.081-0.094-0.123-0.153c-0.067,0.016-0.132,0.04-0.199,0.055
			c-3.062,0.704-6.271-0.054-9.298,0.918c-1.99,0.638-4.071,1.557-5.644,2.962c-0.563,0.503-1.184,1.181-1.124,1.994
			c0.074,1.008,1.07,1.7,1.869,2.147c0.235,0.132,0.065,0.437-0.074,0.58c-2.377,2.437-5.004,4.778-6.716,7.76
			c-0.802,1.397-1.361,2.947-1.472,4.563c-0.017,0.249-0.022,0.497-0.019,0.743c4.908,5.135,13.661,7.516,19.996,3.435
			c6.922,3.258,14.159,2.492,17.726-2.932c2.975,0.889,7.416,0.504,8.742-4.588C175.743,278.72,175.49,278.814,175.216,278.853z"/>
		<g>
			<path style="fill:#A57346;" d="M152.846,260.854c-2.318-0.207-4.66-0.217-6.986-0.295c-2.127-0.071-4.324-0.272-6.408,0.273
				c-3.76,0.982-6.642,3.831-9.322,6.481c-1.67,1.651-3.378,3.291-5.395,4.518c-0.132,0.081-0.253,0.411,0.004,0.278
				c3.488-1.802,5.946-4.894,8.903-7.383c1.415-1.191,2.978-2.263,4.735-2.88c2.037-0.715,4.18-0.568,6.299-0.484
				c2.573,0.102,5.158,0.282,7.733,0.247C152.712,261.606,153.331,260.897,152.846,260.854z"/>
			<path style="fill:#A57346;" d="M150.787,276.193c-1.54-2.826-4.695-4.639-7.917-4.448c-0.121,0.007-0.43,0.326-0.217,0.345
				c2.921,0.259,5.706,1.876,7.173,4.451c1.592,2.796,1.256,6.096-0.22,8.85c-0.242,0.452,0.332,0.313,0.514,0.085
				C152.168,282.912,152.34,279.044,150.787,276.193z"/>
			<path style="fill:#A57346;" d="M168.483,275.102c-0.803-2.956-2.981-5.42-5.747-6.703c-1.589-0.737-3.305-1.057-5.052-0.966
				c-0.141,0.007-0.466,0.376-0.238,0.38c3.614,0.078,7.168,2.095,9.041,5.195c0.966,1.599,1.458,3.502,1.459,5.366
				c0.001,1.994-0.609,3.717-1.475,5.483c-0.268,0.547,0.411,0.422,0.637,0.119C168.928,281.535,169.266,277.982,168.483,275.102z"
				/>
		</g>
		<path style="fill:#4C261C;" d="M137.686,197.519c0.33,3.736,0.823,7.458,1.363,11.169c0.961,6.608,2.175,13.185,3.52,19.725
			c1.179,5.736,2.39,11.492,3.857,17.162c0.811,3.136,1.946,6.375,3.796,9.093c-4.047-17.114-10.749-61.824-10.749-61.824
			l-1.954,2.523C137.57,196.085,137.622,196.802,137.686,197.519z"/>
		<path style="fill:#ECCEB0;" d="M141.017,271.987c0,0,8.109,2.445,7.509,10.629C152.557,278.109,145.671,271.609,141.017,271.987z"
			/>
		<path style="fill:#ECCEB0;" d="M158.509,269.044c0,0,8.109,2.445,7.509,10.629C170.049,275.166,163.163,268.667,158.509,269.044z"
			/>
		<path style="fill:#ECCEB0;" d="M166.356,265.448c0,0,8.109,2.445,7.509,10.629C177.896,271.57,171.01,265.07,166.356,265.448z"/>
	</g>
	<g>
		<g>
			<g>
				<path style="fill:#CD8F5F;" d="M39.424,225.12c0,0-25.19,6.468-32.338-13.786c-8.68,8.34,1.362,34.721,33.529,26.381
					C39.083,229.375,39.424,225.12,39.424,225.12z"/>
				<path style="fill:#99582B;" d="M28.755,239.601c-14.6,0-20.755-8.592-22.513-11.739c-3.383-6.053-3.098-13.078,0.675-16.704
					c0.06-0.057,0.146-0.08,0.224-0.061c0.081,0.019,0.145,0.078,0.172,0.155c6.993,19.807,31.8,13.696,32.05,13.632
					c0.078-0.017,0.157,0,0.217,0.049c0.06,0.05,0.092,0.127,0.085,0.205c-0.003,0.043-0.319,4.329,1.188,12.532
					c0.023,0.125-0.055,0.246-0.178,0.279C36.187,239.113,32.232,239.601,28.755,239.601z M6.988,211.776
					c-3.362,3.548-3.517,10.134-0.323,15.851c2.128,3.807,10.825,15.746,33.671,9.909c-1.243-6.859-1.212-10.965-1.17-12.107
					C36.223,226.08,13.847,230.35,6.988,211.776z"/>
			</g>
			<path style="fill:#ECCEB0;" d="M11.501,228.932c0.834-0.697,1.276-1.45,1.225-2.548c-0.044-0.958-0.183-1.911-0.286-2.864
				c-0.124-1.149-0.23-2.466,0.037-3.64c-2.214-2.11-4.1-4.887-5.391-8.546c-4.276,4.109-3.998,12.592,1.22,19.149
				C9.472,230.161,10.594,229.691,11.501,228.932z"/>
			<path style="fill:#4C261C;" d="M35.951,228.279c-1.744-0.152-3.479-0.363-5.233-0.342c-2.976,0.035-6.008,1.013-8.541,2.565
				c-0.594,0.364-1.189,0.778-1.718,1.233c-0.309,0.266-0.799,0.713-0.747,1.167c0.052,0.453,0.605,0.914,0.91,1.195
				c0.497,0.458,1.043,0.862,1.581,1.269c1.388,1.049,3.034,1.746,4.586,2.515c0.908,0.45,1.817,0.914,2.697,1.425
				c3.363-0.051,7.064-0.538,11.128-1.591c-0.745-4.054-1.045-7.135-1.159-9.239C38.29,228.438,37.125,228.381,35.951,228.279z"/>
		</g>
		<path style="fill:#CD8F5F;" d="M39.424,225.12c0,0-1.664,0.424-4.248,0.715c-0.283,3.397-1.747,7.021-4.992,8.563
			c-2.057,0.978-4.371,0.9-6.558,0.458c-2.928-0.592-5.716-1.871-8.177-3.553c-4.416-3.018-8.194-7.672-10.075-12.693
			c-0.352-0.94-0.624-1.91-0.798-2.895c-2.943,10.62,8.336,29.181,36.039,21.999C39.083,229.375,39.424,225.12,39.424,225.12z"/>
	</g>
	<g>
		<g>
			<path style="fill:#CD8F5F;" d="M187.763,204.797c0,0,17.419,63.706,20.805,66.287c12.257-1.613,23.547,0.968,25.483,10.645
				c1.29,8.709-4.355,10.161-8.064,9.516c-2.903,5.806-9.999,7.419-17.257,5c-7.419,6.129-19.999,2.258-23.87-5.484
				c-9.193-2.742-8.817-3.548-11.182-12.365c-2.366-8.817-11.397-31.181-11.397-31.181L187.763,204.797z"/>
			<path style="fill:#99582B;" d="M199.831,299.51c-1.192,0-2.414-0.129-3.647-0.389c-5.074-1.072-9.467-4.193-11.494-8.157
				c-8.627-2.58-8.882-3.548-10.817-10.886c-0.134-0.508-0.276-1.047-0.429-1.62c-2.335-8.701-11.298-30.929-11.388-31.153
				c-0.028-0.071-0.023-0.151,0.017-0.216l25.482-42.418c0.049-0.083,0.145-0.123,0.241-0.115c0.097,0.013,0.175,0.083,0.201,0.176
				c5.965,21.816,17.881,63.423,20.648,66.097c14.327-1.856,23.914,2.194,25.644,10.852c0.546,3.688-0.067,6.419-1.821,8.129
				c-1.495,1.456-3.854,2.089-6.346,1.701c-2.85,5.473-9.779,7.476-17.343,5.003C206.351,298.478,203.213,299.51,199.831,299.51z
				 M162.551,247.236c0.696,1.729,9.106,22.688,11.361,31.097c0.154,0.573,0.297,1.112,0.43,1.621
				c1.921,7.288,2.122,8.05,10.587,10.575c0.064,0.019,0.117,0.063,0.148,0.123c1.94,3.88,6.235,6.944,11.208,7.994
				c4.632,0.98,9.114,0.036,12.291-2.589c0.064-0.054,0.15-0.071,0.231-0.044c7.448,2.484,14.263,0.521,16.964-4.877
				c0.047-0.096,0.149-0.153,0.259-0.131c0.9,0.158,3.998,0.508,6.1-1.542c1.637-1.596,2.202-4.186,1.682-7.698
				c-1.678-8.39-11.099-12.299-25.211-10.44c-0.065,0.006-0.127-0.009-0.178-0.047c-3.283-2.502-18.921-59.228-20.743-65.87
				L162.551,247.236z"/>
		</g>
		<g>
			<path style="fill:#4C261C;" d="M178.108,231.187c1.871,4.867,4.241,9.576,7.207,13.87c2.573,3.726,5.683,7.356,9.614,9.7
				c2.481,1.479,5.244,2.268,8.032,2.049c-6.313-19.514-15.198-52.009-15.198-52.009l-11.864,19.749
				C176.533,226.793,177.272,229.011,178.108,231.187z"/>
			<path style="fill:#2D110B;" d="M202.044,257.085c-2.416,0-4.9-0.725-7.24-2.119c-3.411-2.034-6.49-5.138-9.69-9.769
				c-2.815-4.078-5.249-8.762-7.232-13.922l0,0c-0.835-2.172-1.582-4.413-2.217-6.662c-0.019-0.064-0.009-0.133,0.026-0.191
				l11.864-19.75c0.049-0.083,0.145-0.123,0.241-0.115c0.097,0.013,0.175,0.083,0.201,0.176c0.089,0.325,8.956,32.714,15.195,51.999
				c0.023,0.071,0.011,0.148-0.029,0.209c-0.042,0.062-0.109,0.101-0.183,0.107C202.669,257.073,202.358,257.085,202.044,257.085z
				 M176.161,224.581c0.624,2.201,1.355,4.393,2.174,6.519l0,0c1.969,5.125,4.385,9.775,7.179,13.821
				c3.158,4.571,6.189,7.631,9.538,9.628c2.456,1.464,5.083,2.17,7.582,2.036c-5.788-17.938-13.766-46.851-14.955-51.177
				L176.161,224.581z"/>
		</g>
		<path style="fill:#CD8F5F;" d="M234.051,281.729c-1.935-9.677-13.225-12.257-25.483-10.645c-0.527-0.402-1.395-2.286-2.484-5.18
			c-0.103,0.217-0.215,0.429-0.345,0.628c-0.894,1.363-2.544,1.943-4.037,2.377c-2.549,0.741-5.244,0.596-7.856,0.913
			c-1.207,0.146-2.459,0.354-3.571,0.869c-0.797,0.369-1.523,0.872-2.218,1.405c-1.188,0.912-2.346,2.129-3.805,2.597
			c-1.564,0.502-2.986-0.384-3.969-1.564c-1.256-1.508-2.045-3.479-2.79-5.275c-0.844-2.036-1.567-4.124-2.202-6.234
			c-0.628-2.089-1.172-4.205-1.591-6.346c-0.35-1.783-0.765-3.695-0.57-5.517c0.395-3.692,3.018-6.418,5.712-8.72
			c1.428-1.22,2.917-2.369,4.306-3.635c1.583-1.442,2.927-3.07,4.072-4.88c2.385-3.77,3.783-8.076,4.819-12.394
			c-2.514-8.877-4.278-15.33-4.278-15.33l-25.483,42.417c0,0,9.032,22.365,11.397,31.181c2.365,8.817,1.989,9.623,11.182,12.365
			c3.871,7.742,16.451,11.612,23.87,5.484c7.258,2.419,14.354,0.806,17.257-5C229.697,291.89,235.342,290.438,234.051,281.729z"/>
		<g>
			<path style="fill:#ECCEB0;" d="M234.051,281.729c-1.935-9.677-13.225-12.257-25.483-10.645c-0.044-0.034-0.092-0.083-0.14-0.137
				c-0.065,0.024-0.126,0.055-0.192,0.078c-2.958,1.06-6.233,0.686-9.125,2.007c-1.902,0.869-3.86,2.026-5.256,3.607
				c-0.5,0.566-1.037,1.312-0.882,2.113c0.192,0.992,1.263,1.561,2.109,1.912c0.249,0.103,0.116,0.426-0.005,0.584
				c-2.073,2.7-4.407,5.334-5.755,8.498c-0.632,1.482-1.004,3.087-0.924,4.704c0.012,0.25,0.036,0.496,0.069,0.74
				c5.479,4.521,14.452,5.854,20.261,1.055c7.258,2.419,14.354,0.806,17.257-5C229.697,291.89,235.342,290.438,234.051,281.729z"/>
			<path style="fill:#A57346;" d="M199.887,299.504c-4.235,0.001-8.517-1.607-11.573-4.128c-0.047-0.039-0.078-0.094-0.086-0.155
				c-0.033-0.25-0.058-0.503-0.071-0.759c-0.077-1.546,0.241-3.165,0.944-4.811c1.116-2.619,2.907-4.89,4.64-7.085
				c0.386-0.489,0.77-0.976,1.146-1.465c0.068-0.089,0.102-0.198,0.095-0.23c-0.854-0.339-2.026-0.943-2.245-2.072
				c-0.179-0.926,0.45-1.768,0.938-2.32c1.225-1.387,2.971-2.586,5.338-3.667c1.6-0.731,3.327-0.956,4.997-1.173
				c1.385-0.179,2.816-0.366,4.147-0.842l0.083-0.034c0.035-0.015,0.071-0.03,0.107-0.044c0.092-0.032,0.197-0.007,0.263,0.066
				c0.013,0.015,0.027,0.03,0.04,0.044c14.318-1.86,23.908,2.194,25.64,10.852c0.001,0.004,0.002,0.008,0.002,0.011
				c0.545,3.676-0.069,6.407-1.823,8.118c-1.495,1.456-3.854,2.089-6.346,1.701c-2.85,5.473-9.779,7.476-17.343,5.003
				C206.198,298.604,203.055,299.504,199.887,299.504z M188.697,295.064c5.231,4.261,14.065,5.797,19.878,0.994
				c0.064-0.054,0.15-0.071,0.231-0.044c7.448,2.484,14.263,0.521,16.964-4.877c0.047-0.096,0.149-0.153,0.259-0.131
				c0.9,0.158,3.998,0.508,6.1-1.542c1.636-1.595,2.201-4.183,1.683-7.693c-1.684-8.398-11.105-12.302-25.212-10.445
				c-0.065,0.006-0.128-0.009-0.179-0.048c-0.016-0.012-0.034-0.027-0.051-0.043c-0.017,0.007-0.034,0.013-0.052,0.019
				c-1.378,0.495-2.837,0.684-4.247,0.867c-1.635,0.212-3.325,0.432-4.859,1.133c-2.303,1.052-3.996,2.212-5.175,3.547
				c-0.457,0.516-0.963,1.198-0.826,1.907c0.174,0.898,1.205,1.419,1.965,1.733c0.139,0.058,0.237,0.167,0.274,0.305
				c0.079,0.295-0.135,0.595-0.179,0.652c-0.377,0.491-0.763,0.98-1.15,1.47c-1.713,2.171-3.484,4.415-4.575,6.975
				c-0.673,1.579-0.978,3.126-0.904,4.597C188.653,294.648,188.672,294.856,188.697,295.064z"/>
		</g>
		<path style="fill:#ECCEB0;" d="M233.392,285.995c-1.719,0.461-3.167-0.907-4.029-2.221c-1.589-2.423-3.59-4.414-6.456-4.956
			c1.678,2.155,3.142,4.677,2.933,7.479c-0.315,4.227-4.167,8.496-8.622,8.11c-1.157-0.1-2.278-0.489-3.262-1.103
			c-1.031-0.643-1.713-1.593-2.252-2.663c-0.562-1.117-1.016-2.251-1.94-3.127c-0.779-0.739-1.689-1.333-2.658-1.799
			c1.188,1.865,1.722,4.106,1.281,6.322c-0.443,2.226-1.882,4.206-3.96,5.164c-2.578,1.189-5.613,0.759-7.834-0.969
			c-2.336-1.817-3.684-4.871-3.436-7.82c0.25-2.976,2.216-5.578,4.299-7.68c-0.608-0.084-1.232-0.254-1.604-0.685
			c-0.404-0.467-0.305-1.134-0.053-1.65c0.621-1.266,2.127-2.126,3.302-2.795c1.568-0.893,3.193-1.457,4.942-1.897
			c2.407-0.606,4.851-1.052,7.255-1.673c1.268-0.328,2.545-0.674,3.768-1.146c0.189-0.073,0.368-0.158,0.55-0.24
			c-2.271-0.029-4.638,0.119-7.047,0.436c-0.044-0.034-0.092-0.083-0.14-0.137c-0.065,0.024-0.126,0.055-0.191,0.078
			c-2.958,1.06-6.233,0.686-9.125,2.007c-1.902,0.869-3.86,2.026-5.256,3.607c-0.5,0.566-1.037,1.312-0.882,2.113
			c0.192,0.992,1.263,1.561,2.109,1.912c0.249,0.103,0.116,0.426-0.005,0.584c-2.073,2.7-4.407,5.334-5.755,8.498
			c-0.632,1.482-1.004,3.087-0.924,4.704c0.013,0.25,0.037,0.496,0.069,0.74c5.479,4.521,14.452,5.854,20.261,1.055
			c7.258,2.419,14.354,0.806,17.257-5c3.059,0.532,7.423-0.373,8.141-5.586C233.9,285.802,233.659,285.924,233.392,285.995z"/>
		<g>
			<path style="fill:#A57346;" d="M209.057,270.757c-2.326,0.068-4.653,0.334-6.972,0.53c-2.121,0.18-4.326,0.24-6.331,1.026
				c-3.618,1.419-6.144,4.587-8.493,7.535c-1.464,1.837-2.967,3.666-4.825,5.122c-0.122,0.095-0.203,0.438,0.037,0.276
				c3.251-2.201,5.328-5.56,7.971-8.381c1.265-1.35,2.691-2.598,4.363-3.418c1.938-0.95,4.083-1.057,6.198-1.223
				c2.567-0.201,5.155-0.328,7.708-0.666C209.013,271.52,209.543,270.743,209.057,270.757z"/>
			<path style="fill:#A57346;" d="M208.819,286.232c-1.862-2.625-5.209-4.054-8.386-3.484c-0.119,0.021-0.389,0.374-0.175,0.368
				c2.931-0.087,5.887,1.19,7.648,3.575c1.911,2.589,1.965,5.906,0.824,8.815c-0.187,0.477,0.367,0.272,0.521,0.023
				C210.982,292.741,210.698,288.88,208.819,286.232z"/>
			<path style="fill:#A57346;" d="M226.264,283.064c-1.146-2.841-3.599-5.031-6.497-5.98c-1.665-0.545-3.406-0.66-5.13-0.364
				c-0.139,0.024-0.418,0.428-0.191,0.406c3.598-0.349,7.365,1.235,9.59,4.093c1.148,1.474,1.86,3.306,2.081,5.156
				c0.236,1.98-0.166,3.763-0.819,5.619c-0.202,0.574,0.458,0.371,0.646,0.044C227.464,289.399,227.381,285.831,226.264,283.064z"/>
		</g>
		<path style="fill:#4C261C;" d="M186.54,209.65c0.768,3.672,1.696,7.309,2.67,10.931c1.733,6.449,3.714,12.837,5.82,19.173
			c1.847,5.557,3.727,11.13,5.852,16.588c1.175,3.019,2.684,6.102,4.841,8.583c-6.035-16.518-17.958-60.126-17.958-60.126
			l-1.643,2.736C186.256,208.239,186.392,208.945,186.54,209.65z"/>
	</g>
	<g>
		<path style="fill:#4C261C;" d="M114.156,145.663c0,0-5.747,2.477-8.206,8.713c-2.46,6.236,0.439,11.243-2.723,16.426
			c-3.162,5.183-5.943,10.449-7.395,12.062c-1.452,1.613-15.806,8.709-22.418,12.903c-6.613,4.193-11.29,8.709-11.935,13.064
			c0,0-20.913-14.515-23.708,16.881c0,26.02,10.107,34.622,10.107,34.622s-11.612-7.096-23.44-2.15
			c-11.827,4.946-14.408,21.504-5.161,21.934c6.666,9.677,17.419,7.957,19.999,6.021c9.462,5.376,19.139-0.43,19.354-5.591
			c8.602-1.29,15.268-4.301,17.633-12.257c4.301,1.935,10.322,2.796,10.322,2.796s0.43,18.494,0.645,27.741
			c0.215,9.247,5.591,23.225,26.02,21.289c9.462,6.881,18.709,4.301,23.87-0.645c9.032,4.516,15.483-3.871,12.688-12.903
			c-2.796-9.032-12.472-13.548-20.214-15.053c-1.29-9.892-1.29-13.333-1.29-13.333s18.494-0.86,34.407-27.526
			c15.913-26.665,29.676-40.858,30.106-60.857c0.43-19.999-17.634-38.385-17.634-38.385L114.156,145.663z"/>
		<path style="fill:#2D110B;" d="M125.128,324.564c-3.693,0.001-7.771-1.184-11.945-4.2c-8.131,0.754-14.584-0.931-19.171-5.008
			c-6.119-5.438-6.95-13.368-7.024-16.525l-0.64-27.537c-1.069-0.168-6.12-1.018-9.932-2.672c-2.144,6.848-7.576,10.6-17.557,12.135
			c-0.19,2.195-1.979,4.477-4.722,5.998c-4.478,2.483-10.015,2.359-14.845-0.33c-1.565,1.071-5.142,1.855-8.9,1.239
			c-3.172-0.519-7.69-2.21-11.247-7.312c-2.978-0.186-4.998-2.072-5.548-5.192c-1.01-5.715,3.068-13.99,10.748-17.201
			c9.503-3.978,18.957-0.195,22.348,1.47c-2.588-3.052-9.165-12.863-9.165-33.718c0.938-10.54,4.003-17.086,9.112-19.476
			c6.045-2.827,13.104,1.212,14.664,2.191c0.788-3.996,4.816-8.322,11.981-12.865c3.051-1.935,7.835-4.535,12.055-6.828
			c4.915-2.67,9.557-5.193,10.313-6.032c0.925-1.027,2.447-3.648,4.211-6.683c0.958-1.649,2.043-3.517,3.157-5.343
			c1.641-2.689,1.614-5.355,1.585-8.177c-0.026-2.576-0.053-5.238,1.12-8.212c2.469-6.258,8.278-8.821,8.337-8.847
			c0.037-0.017,0.076-0.024,0.118-0.019l61.027,5.75c0.057,0.006,0.11,0.031,0.151,0.072c0.181,0.184,18.13,18.689,17.702,38.559
			c-0.32,14.866-7.887,26.409-18.36,42.385c-3.582,5.465-7.643,11.66-11.78,18.592c-8.249,13.822-17.204,20.6-23.265,23.852
			c-5.828,3.127-10.072,3.682-11.103,3.775c0.024,0.905,0.187,4.631,1.261,12.903c15.347,3.048,19.361,12.387,20.228,15.186
			c1.519,4.911,0.424,9.845-2.789,12.572c-2.667,2.263-6.336,2.515-10.086,0.694C134.3,322.452,130.057,324.564,125.128,324.564z
			 M113.251,319.871c0.051,0,0.101,0.016,0.143,0.046c9.611,6.992,18.697,4.033,23.559-0.624c0.074-0.071,0.185-0.087,0.276-0.042
			c3.621,1.809,7.161,1.609,9.709-0.555c3.065-2.601,4.102-7.335,2.639-12.059c-0.849-2.744-4.803-11.927-20.028-14.887
			c-0.102-0.02-0.181-0.103-0.194-0.206c-1.277-9.795-1.292-13.33-1.292-13.364c0-0.13,0.101-0.236,0.231-0.242
			c0.045-0.002,4.668-0.259,11.163-3.75c5.998-3.226,14.865-9.947,23.047-23.657c4.142-6.942,8.206-13.141,11.792-18.609
			c10.428-15.908,17.964-27.402,18.28-42.129c0.41-19.085-16.35-36.943-17.503-38.147l-60.873-5.735
			c-0.589,0.273-5.757,2.811-8.023,8.554c-1.138,2.885-1.111,5.5-1.086,8.029c0.029,2.893,0.058,5.627-1.655,8.434
			c-1.112,1.822-2.196,3.688-3.153,5.334c-1.851,3.185-3.312,5.7-4.27,6.763c-0.811,0.902-5.273,3.327-10.441,6.134
			c-4.213,2.29-8.99,4.885-12.027,6.811c-7.261,4.605-11.239,8.943-11.825,12.895c-0.012,0.082-0.066,0.153-0.143,0.187
			c-0.077,0.032-0.165,0.026-0.235-0.024c-0.079-0.053-7.947-5.419-14.498-2.353c-4.94,2.312-7.912,8.724-8.831,19.057
			c0.001,25.56,9.923,34.33,10.023,34.415c0.097,0.082,0.114,0.224,0.039,0.327c-0.075,0.104-0.216,0.132-0.322,0.064
			c-0.115-0.069-11.647-6.975-23.219-2.133c-7.465,3.121-11.434,11.14-10.458,16.67c0.523,2.962,2.375,4.666,5.214,4.798
			c0.076,0.004,0.145,0.043,0.188,0.105c3.471,5.038,7.894,6.699,10.994,7.207c4.193,0.684,7.536-0.399,8.66-1.242
			c0.078-0.059,0.181-0.064,0.265-0.017c4.711,2.677,10.133,2.828,14.506,0.404c2.681-1.486,4.399-3.706,4.486-5.794
			c0.005-0.116,0.092-0.212,0.207-0.229c10.021-1.503,15.399-5.231,17.437-12.086c0.02-0.067,0.067-0.122,0.131-0.152
			c0.064-0.028,0.138-0.028,0.201,0c4.219,1.898,10.197,2.768,10.257,2.776c0.118,0.016,0.206,0.116,0.208,0.234l0.645,27.741
			c0.072,3.094,0.885,10.862,6.861,16.174c4.5,3.999,10.853,5.646,18.894,4.879C113.236,319.871,113.244,319.871,113.251,319.871z"
			/>
	</g>
	<path style="fill:#4C261C;" d="M174.677,152.679c1.806,2.819,3.56,5.66,5.421,8.443c3.517,5.26,6.545,11.04,8.206,17.17
		c0.864,3.189,1.507,6.477,1.982,9.746c0.467,3.207,0.715,6.451,0.493,9.688c-0.18,2.624-0.598,5.218-1.169,7.78
		c1.936-5.049,3.087-10.155,3.206-15.709c0.43-19.999-17.634-38.385-17.634-38.385l-1.424-0.134
		C174.068,151.743,174.376,152.209,174.677,152.679z"/>
	<g>
		<path style="fill:#CD8F5F;" d="M129.594,291.513c-1.29-9.892-1.29-13.333-1.29-13.333s0.235-0.013,0.653-0.067
			c-0.357-0.956-0.661-1.937-0.901-2.941c-0.534-2.233,0.369-5.087,0.069-7.361c-0.312-2.367,0.191-7.066,0-9.445
			c-0.736-9.145-0.771-15.395-0.515-24.557c-1.357,2.745-4.145,5.673-4.935,8.613c-0.648,2.412-1.045,4.878-1.519,7.329
			c-0.799,4.13-1.739,8.39-3.891,12.056c-2.137,3.64-5.552,6.393-9.724,7.295c-4.053,0.877-8.484,0.249-12.323-1.226
			c-3.565-1.37-7-3.753-8.688-7.261c-0.304,1.462-0.494,2.946-0.611,4.436c-0.151,1.935-0.213,3.91-0.527,5.835
			c0.736,0.132,1.192,0.198,1.192,0.198s0.43,18.494,0.645,27.741c0.215,9.247,5.591,23.225,26.02,21.289
			c9.462,6.881,18.709,4.301,23.87-0.645c9.032,4.516,15.483-3.871,12.688-12.903C147.013,297.534,137.336,293.018,129.594,291.513z
			"/>
		<path style="fill:#99582B;" d="M125.128,324.564c-3.693,0.001-7.771-1.184-11.945-4.2c-8.131,0.754-14.584-0.931-19.171-5.008
			c-6.119-5.438-6.95-13.368-7.024-16.525l-0.64-27.537c-0.203-0.032-0.549-0.088-0.998-0.169c-0.131-0.024-0.218-0.147-0.197-0.278
			c0.229-1.4,0.324-2.852,0.416-4.257c0.034-0.521,0.068-1.041,0.109-1.558c0.128-1.632,0.329-3.093,0.615-4.466
			c0.022-0.102,0.105-0.179,0.208-0.191c0.102-0.009,0.203,0.043,0.248,0.135c1.465,3.047,4.504,5.583,8.556,7.139
			c4.135,1.589,8.462,2.022,12.185,1.215c3.953-0.855,7.351-3.405,9.565-7.181c2.128-3.623,3.075-7.905,3.863-11.979
			c0.11-0.571,0.217-1.144,0.323-1.717c0.344-1.854,0.7-3.77,1.199-5.628c0.489-1.821,1.717-3.622,2.906-5.364
			c0.78-1.144,1.517-2.226,2.046-3.293c0.05-0.101,0.161-0.16,0.276-0.128c0.11,0.027,0.187,0.128,0.184,0.242
			c-0.249,8.932-0.239,15.178,0.514,24.531c0.088,1.098,0.032,2.644-0.027,4.282c-0.069,1.909-0.141,3.883,0.026,5.152
			c0.139,1.06,0.024,2.25-0.088,3.401c-0.132,1.355-0.267,2.756,0.014,3.935c0.231,0.968,0.531,1.949,0.892,2.912
			c0.025,0.069,0.019,0.147-0.02,0.21c-0.038,0.064-0.103,0.106-0.176,0.116c-0.18,0.023-0.327,0.039-0.437,0.049
			c0.024,0.903,0.186,4.628,1.261,12.905c15.347,3.048,19.361,12.387,20.228,15.186c1.519,4.911,0.424,9.845-2.789,12.572
			c-2.667,2.263-6.338,2.515-10.086,0.694C134.3,322.452,130.057,324.564,125.128,324.564z M113.251,319.871
			c0.051,0,0.101,0.016,0.143,0.046c9.611,6.992,18.697,4.033,23.559-0.624c0.074-0.071,0.185-0.087,0.276-0.042
			c3.621,1.809,7.161,1.609,9.709-0.555c3.065-2.601,4.102-7.335,2.639-12.059c-0.849-2.744-4.803-11.927-20.028-14.887
			c-0.102-0.02-0.181-0.103-0.194-0.206c-1.277-9.795-1.292-13.33-1.292-13.364c0-0.129,0.101-0.235,0.229-0.242
			c0.004,0,0.12-0.007,0.333-0.028c-0.321-0.889-0.59-1.789-0.803-2.681c-0.3-1.257-0.16-2.7-0.025-4.094
			c0.109-1.123,0.222-2.285,0.089-3.291c-0.172-1.309-0.1-3.304-0.029-5.233c0.059-1.623,0.115-3.155,0.029-4.224
			c-0.726-9.018-0.765-15.152-0.544-23.57c-0.467,0.801-1.018,1.609-1.592,2.451c-1.166,1.709-2.371,3.477-2.839,5.217
			c-0.493,1.84-0.848,3.747-1.191,5.592c-0.106,0.574-0.213,1.147-0.324,1.721c-0.796,4.115-1.753,8.442-3.92,12.133
			c-2.285,3.893-5.795,6.524-9.882,7.408c-3.814,0.823-8.238,0.387-12.461-1.236c-3.891-1.495-6.88-3.88-8.496-6.761
			c-0.212,1.157-0.368,2.383-0.474,3.729c-0.04,0.515-0.074,1.034-0.108,1.553c-0.087,1.338-0.178,2.718-0.384,4.067
			c0.591,0.102,0.949,0.154,0.951,0.155c0.117,0.017,0.205,0.116,0.207,0.234l0.645,27.741c0.072,3.094,0.885,10.862,6.861,16.174
			c4.5,3.999,10.853,5.646,18.894,4.879C113.236,319.871,113.244,319.871,113.251,319.871z"/>
	</g>
	<path style="fill:#ECCEB0;" d="M183.025,202.835c0.116-3.445-0.152-6.902-0.996-10.251c-0.782-3.106-2.06-6.051-3.58-8.862
		c-1.66-3.068-3.603-5.981-5.551-8.871c-2.242-3.326-4.632-6.52-6.116-10.28c-1.384-3.508-1.952-7.307-1.388-11.051
		c0.151-1.003,0.378-1.994,0.668-2.967l-42.137-3.97c1.728,4.781,3.305,9.641,4.588,14.549c1.471,5.628,2.677,11.54,2.535,17.387
		c-0.237,9.748-8.98,16.296-11.89,25.111c-0.919,2.784-1.289,5.79-1.114,8.713c0.183,3.045,0.809,6.395,2.123,9.165
		c1.108,2.337,2.813,4.331,4.353,6.387c1.35,1.804,2.799,3.806,3.133,6.093c0.398,2.726-0.222,5.546-0.463,8.258
		c-0.286,3.226,0.213,6.504,0.393,9.728c0.283,5.081,0.073,10.125,0.011,15.206c-0.044,3.668,0.077,7.444,1.257,10.948
		c3.151-0.382,19.546-3.486,33.86-27.472c6.295-10.549,12.25-19.143,17.18-26.919C181.577,216.89,182.79,209.857,183.025,202.835z"
		/>
	<path style="fill:#ECCEB0;" d="M182.03,192.584c-0.782-3.106-2.06-6.051-3.58-8.862c-1.659-3.068-3.602-5.981-5.551-8.871
		c-2.242-3.326-4.632-6.52-6.116-10.28c-1.384-3.508-1.952-7.307-1.389-11.051c0.151-1.003,0.378-1.994,0.668-2.967l-1.567-0.148
		c-0.278,2.809-0.174,5.633,0.34,8.451c0.394,2.159,0.994,4.283,1.733,6.349c0.914,2.554,2.044,5.037,3.306,7.436
		c0.469,0.892,0.954,1.77,1.493,2.622c2.13,3.364,4.11,6.82,5.664,10.492c1.589,3.752,2.628,7.659,3.246,11.681
		c1.215,7.9,0.965,15.952-0.465,23.806c-0.236,1.299-0.514,2.589-0.808,3.874c0.294-0.46,0.597-0.926,0.885-1.38
		c1.686-6.846,2.899-13.879,3.135-20.901C183.141,199.389,182.873,195.933,182.03,192.584z"/>
	<path style="opacity:0.5;fill:#4C261C;" d="M179.891,223.736c0,0-2.342,3.99-5.879,9.195c-3.536,5.205-14.746,25.355-23.22,33.563
		c-8.474,8.207-19.925,11.721-22.176,11.736c-1.123-5.72-1.204-9.185-1.066-17.619c0.139-8.465-1.268-15.48-0.289-24.966
		c0.431-4.173-4.363-7.735-5.784-11.683c-0.681-1.892-2.438-4.22-3.123-7.172c-0.621-2.676,0.024-6.858-1.605-9.102
		c-1.321-1.818-3.4-3.197-5.734-2.997c-2.047,0.175-3.533,1.746-4.509,3.431c-1.179,2.034-1.853,4.356-2.376,6.633
		c-0.66,2.873-1.151,5.816-1.402,8.752c-0.365,4.261-0.27,8.542-0.187,12.812c0.081,4.191,0.165,8.393-0.27,12.569
		c-0.433,4.155-1.201,8.266-1.604,12.425c-0.381,3.935-0.41,7.936,0.514,11.802c0.547,2.29,1.443,4.59,3.252,6.179
		c1.438,1.263,3.297,1.822,5.116,2.282c2.612,0.661,5.143,1.339,7.611,2.447c4.083,1.834,7.963,4.219,12.193,5.581
		c0.076,0.61,0.156,1.242,0.243,1.91c7.742,1.505,17.418,6.021,20.214,15.053c2.796,9.032-3.656,17.418-12.688,12.903
		c-5.161,4.946-14.408,7.526-23.87,0.645c-20.429,1.935-25.805-12.043-26.02-21.289c-0.215-9.247-0.645-27.741-0.645-27.741
		s-6.021-0.86-10.322-2.796c-2.366,7.956-9.032,10.967-17.634,12.257c-0.215,5.161-9.892,10.967-19.354,5.591
		c-2.58,1.935-13.333,3.656-19.999-6.021c-9.247-0.43-6.666-16.988,5.161-21.934c11.827-4.946,23.44,2.15,23.44,2.15
		s-5.017-4.283-7.981-15.915c1.721,3.496,4.071,6.648,7.298,8.78c3.16,2.088,6.889,2.805,10.625,2.327
		c0.43-0.055,0.46-0.756,0.269-1.043c-2.06-3.11-2.74-6.902-2.637-10.581c0.108-3.879,1.087-7.77,2.759-11.267
		c0.669-1.401,1.462-2.739,2.392-3.979c-0.607,3.851-0.06,7.984,0.854,11.685c1.134,4.592,3.129,9.426,6.748,12.622
		c2.965,2.618,7.399,3.766,10.883,1.491c3.427-2.237,5.25-6.534,6.507-10.26c1.394-4.135,2.163-8.418,2.805-12.723
		c0.919-6.171,1.661-12.738,0.142-18.875c-1.069-4.32-3.889-8.074-7.772-10.28c-2.574-1.462-6.608-2.531-8.638,0.376
		c-1.178,1.688-1.282,3.935-1.137,5.917c0.205,2.823,1.217,5.637,2.105,8.303c1.862,5.59,4.424,11.721,3.278,17.725
		c-0.142,0.742-0.349,1.465-0.614,2.166c-1.322-7.306-4.619-14.305-8.786-20.378c-2.11-3.076-4.547-6.028-7.29-8.646
		c1.118,0.584,1.792,1.051,1.792,1.051c0.645-4.355,5.322-8.87,11.935-13.064c6.613-4.193,20.967-11.29,22.418-12.903
		c1.452-1.613,4.232-6.879,7.395-12.061c3.162-5.182,0.263-10.189,2.723-16.426c2.459-6.237,8.206-8.713,8.206-8.713l61.027,5.75
		c0,0,8.231,8.388,13.448,19.989c-2.687-0.579-5.529-0.102-8.191,0.891c-4.527,1.688-8.611,4.428-12.693,6.963
		c-2.822,1.753-5.737,3.275-8.871,4.399c-3.278,1.176-6.694,1.92-10.161,2.249c-3.312,0.314-6.636-0.303-9.954-0.277
		c-3.281,0.026-6.615,0.715-9.292,2.713c-3.729,2.783-5.784,6.954-6.122,11.55c-0.357,4.852,0.852,9.722,2.258,14.326
		c1.486,4.868,3.378,9.603,4.832,14.48C135.99,247.327,150.978,265.702,179.891,223.736z"/>
	<g>
		<path style="fill:#ECCEB0;" d="M72.045,266.388c-1.123-0.869-2.254-1.965-3.651-2.375c-1.243-0.364-2.632-0.02-3.873,0.187
			c-2.206,0.369-4.412,0.719-6.657,0.631c-2.152-0.084-4.221-0.61-6.201-1.445c-1.582-0.667-3.075-1.531-4.447-2.562
			c-0.747-0.561-1.442-1.177-2.083-1.855c-4.13-1.777-12.357-4.276-20.696-0.788c-11.827,4.946-14.408,21.504-5.161,21.934
			c6.666,9.677,17.419,7.957,19.999,6.021c9.462,5.376,19.139-0.43,19.354-5.591c8.349-1.252,14.862-4.139,17.401-11.582
			C74.777,268.003,73.296,267.356,72.045,266.388z"/>
		<path style="fill:#A57346;" d="M47.181,288.532c-2.656,0-5.369-0.705-7.89-2.108c-1.565,1.071-5.142,1.855-8.9,1.239
			c-3.172-0.519-7.69-2.21-11.247-7.312c-2.978-0.186-4.998-2.072-5.548-5.192c-1.01-5.715,3.068-13.99,10.748-17.201
			c8.408-3.516,16.693-1.014,20.884,0.789c0.03,0.013,0.058,0.032,0.08,0.056c0.621,0.656,1.312,1.271,2.054,1.828
			c1.368,1.029,2.847,1.88,4.394,2.533c2.058,0.868,4.117,1.347,6.116,1.426c2.318,0.094,4.694-0.308,6.607-0.628
			c0.17-0.029,0.343-0.06,0.518-0.091c1.094-0.197,2.333-0.421,3.463-0.09c1.171,0.343,2.139,1.13,3.074,1.891
			c0.221,0.179,0.439,0.356,0.657,0.526c0.619,0.478,1.314,0.888,1.986,1.284c0.672,0.395,1.366,0.804,1.999,1.289
			c0.082,0.063,0.115,0.172,0.081,0.271c-2.249,6.592-7.62,10.211-17.401,11.714c-0.19,2.195-1.979,4.477-4.722,5.998
			C51.996,287.941,49.612,288.532,47.181,288.532z M39.276,285.895c0.041,0,0.083,0.01,0.119,0.031
			c4.711,2.677,10.133,2.828,14.506,0.404c2.681-1.486,4.399-3.706,4.486-5.794c0.005-0.116,0.092-0.212,0.207-0.229
			c9.619-1.443,14.918-4.917,17.15-11.254c-0.573-0.423-1.201-0.793-1.81-1.152c-0.685-0.404-1.393-0.821-2.037-1.319l0,0
			c-0.221-0.171-0.442-0.35-0.666-0.532c-0.898-0.73-1.827-1.485-2.904-1.801c-1.02-0.299-2.148-0.095-3.241,0.1
			c-0.177,0.032-0.352,0.063-0.525,0.092c-1.934,0.325-4.34,0.732-6.706,0.636c-2.058-0.081-4.173-0.573-6.285-1.464
			c-1.585-0.668-3.099-1.54-4.499-2.592c-0.749-0.564-1.448-1.184-2.079-1.847c-4.138-1.771-12.253-4.202-20.46-0.767
			c-7.465,3.122-11.434,11.14-10.458,16.67c0.523,2.962,2.375,4.666,5.214,4.798c0.076,0.004,0.145,0.043,0.188,0.105
			c3.471,5.038,7.894,6.699,10.994,7.207c4.193,0.684,7.536-0.399,8.66-1.242C39.174,285.911,39.225,285.895,39.276,285.895z"/>
	</g>
	<path style="fill:#ECCEB0;" d="M72.045,266.388c-1.123-0.869-2.254-1.965-3.651-2.375c-1.243-0.364-2.632-0.02-3.873,0.187
		c-2.206,0.369-4.412,0.719-6.657,0.631c-2.152-0.084-4.221-0.61-6.201-1.445c-1.581-0.667-3.074-1.531-4.446-2.562
		c-0.747-0.561-1.442-1.177-2.083-1.855c-1.091-0.469-2.473-0.987-4.061-1.433c0.472,1.438,1.114,2.81,2.042,4.022
		c2.218,2.898,5.701,4.425,9.232,4.977c1.838,0.287,3.702,0.359,5.556,0.473c1.334,0.082,2.703,0.128,4.01,0.427
		c1.323,0.303,2.645,0.975,3.229,2.269c0.602,1.333,0.217,2.691-0.955,3.557c-1.073,0.793-2.342,1.03-3.643,0.823
		c-0.619-0.098-1.603-0.6-2.027,0.083c-0.376,0.607-0.468,1.467-0.556,2.155c-0.104,0.824-0.155,1.654-0.321,2.47
		c-0.303,1.486-1.019,2.875-2.031,4.001c-1.874,2.087-4.741,3.54-7.578,3.483c-2.688-0.054-5.221-1.661-6.012-4.291
		c-0.694-2.307-0.008-4.935,1.218-6.939c0.687-1.123,1.618-2.161,2.739-2.846c-1.104-0.034-2.21,0.027-3.283,0.23
		c-0.981,0.185-2.012,0.485-2.807,1.114c-0.818,0.647-1.381,1.539-1.834,2.464c-0.814,1.665-1.332,3.471-2.383,5.015
		c-1.114,1.635-2.978,2.769-4.975,2.828c-2.072,0.062-4.048-0.969-5.584-2.287c-1.227-1.053-2.154-2.383-2.604-3.943
		c-1.575-5.471,3.054-11.664,8.484-12.738c-2.371-0.878-5.205-0.729-7.316,0.65c-1.823,1.192-2.692,3.24-3.738,5.061
		c-1.132,1.971-3.126,5.016-5.832,4.27c-0.118-0.033-0.21-0.093-0.32-0.135c0.4,3.01,2.186,5.231,5.493,5.385
		c6.666,9.677,17.419,7.957,19.999,6.021c9.462,5.376,19.139-0.43,19.354-5.591c8.349-1.252,14.862-4.139,17.401-11.582
		C74.777,268.003,73.296,267.356,72.045,266.388z"/>
	<g>
		<path style="fill:#ECCEB0;" d="M131.857,292.036c-0.208,0.009-0.416,0.028-0.625,0.03c-1.492,0.014-2.76-0.29-4.089-0.969
			c-1.521-0.777-2.903-1.558-4.593-1.917c-3.073-0.652-6.308-0.631-9.354,0.157c-5.907,1.529-10.77,5.514-14.971,9.773
			c-3.14,3.184-6.235,6.962-7.462,11.351c-0.044,0.158-0.08,0.317-0.118,0.477c3.568,5.804,10.398,10.332,22.607,9.175
			c9.462,6.881,18.709,4.301,23.87-0.645c9.032,4.516,15.483-3.871,12.688-12.903C147.279,298.396,139.122,293.93,131.857,292.036z"
			/>
		<path style="fill:#A57346;" d="M125.128,324.564c-3.693,0.001-7.771-1.184-11.945-4.2c-13.303,1.234-19.717-4.372-22.745-9.298
			c-0.034-0.055-0.045-0.12-0.029-0.183l0.023-0.098c0.03-0.13,0.062-0.26,0.097-0.387c1.34-4.788,4.935-8.831,7.524-11.457
			c3.658-3.71,8.68-8.181,15.083-9.838c3.008-0.778,6.284-0.835,9.465-0.158c1.525,0.323,2.79,0.976,4.128,1.667l0.525,0.27
			c1.302,0.666,2.529,0.947,3.977,0.943c0.133-0.001,0.264-0.01,0.397-0.017l0.219-0.012c0.024-0.002,0.048,0.002,0.073,0.008
			c4.439,1.158,15.091,4.905,18.121,14.692c1.519,4.911,0.424,9.845-2.789,12.572c-2.667,2.263-6.338,2.515-10.086,0.694
			C134.3,322.452,130.057,324.564,125.128,324.564z M113.251,319.871c0.051,0,0.101,0.016,0.143,0.046
			c9.611,6.992,18.697,4.033,23.559-0.624c0.074-0.071,0.185-0.087,0.276-0.042c3.621,1.809,7.161,1.609,9.709-0.555
			c3.065-2.601,4.102-7.335,2.639-12.059c-2.949-9.528-13.36-13.21-17.743-14.357l-0.177,0.009c-0.173,0.01-0.349,0.021-0.525,0.019
			c-1.485,0-2.754-0.31-4.098-0.997l-0.527-0.271c-1.308-0.676-2.544-1.315-4.006-1.625c-3.109-0.657-6.306-0.605-9.243,0.154
			c-6.289,1.627-11.244,6.044-14.86,9.71c-2.55,2.587-6.093,6.566-7.401,11.246c-0.034,0.121-0.063,0.245-0.092,0.37l0,0
			c5.379,8.654,15.103,9.657,22.324,8.975C113.236,319.871,113.244,319.871,113.251,319.871z"/>
	</g>
	<path style="fill:#ECCEB0;" d="M150.362,312.085c-1.258,0.49-2.528,0.377-3.807,0.043c-1.886-0.493-2.842-1.94-3.309-3.733
		c-0.228-0.875-0.399-1.767-0.723-2.615c-0.372-0.973-1.033-1.859-1.742-2.615c-2.8-2.982-7.032-3.366-10.861-2.681
		c2.361,1.927,4.094,4.659,5.013,7.54c0.744,2.333,1.08,5.327-0.465,7.427c-1.888,2.566-5.764,2.524-8.545,1.791
		c-1.868-0.492-3.384-1.66-4.463-3.247c-1.072-1.575-1.754-3.364-2.665-5.028c-0.518-0.945-1.103-1.862-1.841-2.652
		c-0.811-0.868-1.809-1.609-2.799-2.258c-2.07-1.359-4.432-2.262-6.899-2.374c1.402,1.314,2.544,2.885,3.127,4.75
		c0.578,1.849,0.52,3.867-0.25,5.651c-1.248,2.89-4.301,4.818-7.469,4.312c-3.999-0.639-7.081-4.793-7.621-8.623
		c-0.319-2.26,0.204-4.445,1.147-6.477c-2.368,2.69-4.468,5.739-5.427,9.166c-0.044,0.158-0.08,0.317-0.118,0.477
		c3.568,5.804,10.398,10.332,22.607,9.175c9.462,6.881,18.709,4.301,23.87-0.645c7.132,3.566,12.65-0.915,13.282-7.404
		C150.388,312.071,150.376,312.079,150.362,312.085z"/>
	<g>
		<g>
			<path d="M96.263,191.577c-2.992,10.13-2.156,20.792-3.561,31.16c-1.438,10.603-4.863,20.815-6.39,31.402
				c-0.418,2.895-0.695,5.814-0.755,8.739c-0.06,2.91-0.067,6.037,0.691,8.864c0.116,0.434,0.833-0.307,0.816-0.585
				c-0.164-2.651-0.52-5.26-0.512-7.926c0.008-2.684,0.213-5.362,0.548-8.024c0.663-5.264,1.826-10.447,3.02-15.611
				c1.191-5.153,2.417-10.306,3.202-15.54c0.761-5.071,0.946-10.184,1.173-15.3c0.258-5.807,0.597-11.674,2.084-17.317
				C96.64,191.204,96.299,191.454,96.263,191.577z"/>
		</g>
		<path d="M66.183,213.908c-0.695-0.992-1.428-1.959-2.199-2.894c-0.798-0.967-1.657-2.19-2.725-2.862
			c-0.202-0.127-0.635,0.312-0.512,0.512c0.559,0.905,1.423,1.641,2.118,2.444c0.734,0.848,1.439,1.723,2.11,2.622
			c1.35,1.807,2.562,3.717,3.633,5.701c2.117,3.921,3.675,8.126,4.627,12.479c0.541,2.475,0.923,4.987,1.089,7.515
			c0.009,0.13,0.225-0.066,0.224-0.152C74.418,230.208,71.374,221.32,66.183,213.908z"/>
		<path d="M77.76,267.82c-2.756-0.118-4.844-1.89-6.766-3.688c-1.799-1.683-3.454-3.52-4.948-5.479
			c-3.01-3.947-5.359-8.388-6.978-13.078c-0.9-2.606-1.586-5.296-2.012-8.02c-0.021-0.133-0.337,0.132-0.324,0.251
			c1.097,10.119,5.843,19.639,13.156,26.71c1.936,1.872,4.57,4.535,7.525,3.94C77.581,268.421,78.064,267.833,77.76,267.82z"/>
		<path d="M98.092,179.976c-1.579,1.518-2.853,3.399-4.207,5.115c-1.411,1.787-2.843,3.562-4.394,5.23
			c-2.845,3.061-6.133,5.79-10.015,7.422c-0.111,0.047-0.316,0.399-0.09,0.319c3.927-1.382,7.213-4,10.07-6.973
			c1.614-1.679,3.086-3.491,4.531-5.314c0.747-0.942,1.486-1.89,2.232-2.832c0.719-0.907,1.482-1.785,2.125-2.748
			C98.511,179.946,98.316,179.76,98.092,179.976z"/>
	</g>
	<g>
		<path style="fill:#A57346;" d="M115.614,311.276c-0.207-3.019-1.65-5.819-3.916-7.813c-1.276-1.123-2.779-1.903-4.422-2.327
			c-0.093-0.024-0.288,0.221-0.176,0.263c3.362,1.258,6.166,3.962,7.347,7.372c1.316,3.8,0.347,7.773-2.002,10.93
			c-0.252,0.339,0.118,0.411,0.341,0.168C114.863,317.61,115.822,314.309,115.614,311.276z"/>
		<path style="fill:#A57346;" d="M138.983,310.761c-0.585-3.228-2.48-6.015-4.885-8.186c-1.431-1.292-3.021-2.426-4.771-3.243
			c-0.104-0.049-0.335,0.203-0.239,0.275c1.617,1.198,3.283,2.327,4.735,3.729c1.443,1.393,2.706,3.003,3.563,4.824
			c0.814,1.728,1.219,3.648,1.145,5.558c-0.078,2.023-0.802,3.768-1.93,5.424c-0.255,0.374,0.126,0.435,0.366,0.182
			C139.061,317.122,139.504,313.638,138.983,310.761z"/>
	</g>
	<g>
		<path style="fill:#A57346;" d="M32.592,265.082c-3.276-0.592-6.659,0.429-9.226,2.514c-2.611,2.122-4.133,5.327-4.176,8.688
			c-0.024,1.876,0.412,3.791,1.534,5.318c0.12,0.164,0.502-0.274,0.432-0.433c-1.267-2.871-1.67-6.029-0.522-9.014
			c1.121-2.913,3.531-5.017,6.445-6.046c1.689-0.596,3.52-0.837,5.306-0.717C32.497,265.401,32.729,265.107,32.592,265.082z"/>
		<path style="fill:#A57346;" d="M49.353,271.466c-2.858-0.516-5.809,0.374-8.048,2.193c-2.278,1.851-3.605,4.647-3.643,7.579
			c-0.021,1.636,0.359,3.307,1.338,4.639c0.105,0.143,0.438-0.239,0.376-0.377c-1.105-2.504-1.457-5.259-0.455-7.863
			c0.978-2.541,3.08-4.376,5.622-5.274c1.473-0.52,3.07-0.73,4.629-0.626C49.271,271.744,49.472,271.488,49.353,271.466z"/>
	</g>
	<path style="fill:#4C261C;" d="M108.245,162.07c2.444,2.752,5.553,4.908,8.811,6.586c3.657,1.883,7.634,3.165,11.637,4.08
		c3.986,0.911,8.069,1.391,12.158,1.428c8.017,0.073,15.968-1.535,23.429-4.438c6.331-2.463,12.26-5.838,17.779-9.785
		c-3.674-5.263-6.875-8.528-6.875-8.528l-61.027-5.75c0,0-5.747,2.476-8.206,8.713c-0.403,1.022-0.653,2.009-0.818,2.971
		C105.926,159.048,106.97,160.634,108.245,162.07z"/>
	<g>
		<g>
			<g>
				<g>
					<path style="fill:#4C261C;" d="M248.923,82.731c-8.168-10.637-11.777-14.816-18.615-31.721
						c-5.888-15.766-24.123-14.626-24.123-14.626c1.088,2.141,2.015,4.378,2.805,6.674c14.902-0.16,15.808,14.899,15.136,25.757
						c-0.716,11.57-1.606,26.072-1.606,26.072c3.229,26.592,14.056,24.883,24.123,16.335
						C257.281,100.206,257.091,93.368,248.923,82.731z"/>
					<path style="fill:#2D110B;" d="M235.059,117.073c-1.044,0-2.032-0.182-2.964-0.547c-5.01-1.961-8.312-9.231-9.815-21.609
						c-0.002-0.044,0.889-14.546,1.604-26.116c0.656-10.607-0.866-17.701-4.655-21.688c-2.447-2.576-5.891-3.87-10.236-3.812
						c-0.13-0.01-0.198-0.065-0.232-0.164c-0.812-2.36-1.751-4.595-2.792-6.644c-0.037-0.073-0.035-0.159,0.006-0.23
						c0.04-0.071,0.114-0.117,0.195-0.122c0.187-0.01,18.482-0.97,24.366,14.783c6.417,15.863,10.011,20.53,17.169,29.825
						l1.411,1.833c8.557,11.145,7.999,18.144-2.297,28.808C242.365,115.174,238.427,117.073,235.059,117.073z M209.221,42.815
						c4.376,0,7.86,1.333,10.36,3.964c3.887,4.09,5.452,11.304,4.788,22.053c-0.715,11.569-1.606,26.071-1.606,26.071
						c1.478,12.143,4.678,19.281,9.508,21.171c3.763,1.473,8.545-0.222,14.216-5.036c10.183-10.548,10.712-17.132,2.244-28.159
						l-1.41-1.832c-7.187-9.331-10.793-14.014-17.237-29.946c-5.295-14.177-20.882-14.531-23.511-14.486
						c0.959,1.926,1.828,4.009,2.59,6.2C209.182,42.815,209.202,42.815,209.221,42.815z"/>
				</g>
				<path style="fill:#4C261C;" d="M226.742,46.963c3.021,5.637,5.181,11.669,7.719,17.526c1.26,2.908,2.622,5.779,4.227,8.514
					c0.781,1.33,1.618,2.627,2.526,3.875c1.08,1.485,2.269,2.887,3.351,4.372c4.49,6.162,7.932,13.314,8.81,20.951
					c3.064-6.45,1.26-12.032-4.451-19.47c-8.168-10.637-11.777-14.816-18.615-31.721c-1.596-4.274-4.102-7.298-6.904-9.446
					C224.632,43.289,225.742,45.098,226.742,46.963z"/>
				<path style="opacity:0.5;fill:#4C261C;" d="M251.363,86.18c-0.055,0.4-0.109,0.8-0.175,1.198
					c-0.57,3.455-1.568,7.301-4.058,9.908c-2.374,2.485-5.723,2.66-8.802,1.469c-1.856-0.718-3.352-1.825-4.527-3.439
					c-1.246-1.711-2.007-3.732-2.562-5.759c-1.372-5.015-1.564-10.332-1.724-15.501c-0.154-4.971-0.032-10.011-0.658-14.954
					c-0.209-1.648-0.522-3.226-1.251-4.725c-0.878-1.807-1.925-3.531-2.938-5.264c-1.161-1.985-2.321-3.974-3.357-6.028
					c-0.627-1.241-1.228-2.528-1.687-3.856c-6.637-3.261-13.439-2.843-13.439-2.843c1.088,2.141,2.015,4.378,2.805,6.674
					c14.902-0.16,15.808,14.899,15.136,25.757c-0.716,11.57-1.606,26.072-1.606,26.072c3.229,26.592,14.056,24.883,24.123,16.335
					C256.087,101.443,256.991,94.954,251.363,86.18z"/>
				<g>
					<path style="fill:#F797A3;" d="M208.991,43.059c7.764,22.559,2.133,50.879,2.133,50.879s5.508,3.039,11.397,0.95
						c0,0,0.89-14.502,1.606-26.072C224.799,57.958,223.893,42.899,208.991,43.059z"/>
					<path style="fill:#C44D61;" d="M218.189,95.857c-4.028,0-7.141-1.683-7.183-1.707c-0.092-0.051-0.141-0.156-0.12-0.26
						c0.056-0.282,5.529-28.517-2.125-50.753c-0.026-0.074-0.014-0.155,0.031-0.219c0.089-0.129,0.275-0.105,0.428-0.104
						c4.376,0,7.86,1.333,10.36,3.964c3.887,4.09,5.452,11.304,4.788,22.053c-0.715,11.569-1.606,26.071-1.606,26.071
						c-0.007,0.097-0.07,0.181-0.161,0.214C221.081,95.656,219.581,95.857,218.189,95.857z M211.396,93.805
						c0.919,0.455,5.772,2.647,10.894,0.907c0.099-1.616,0.924-15.053,1.595-25.91c0.656-10.607-0.866-17.701-4.655-21.688
						c-2.384-2.509-5.714-3.791-9.901-3.813C216.548,64.674,211.852,91.353,211.396,93.805z"/>
				</g>
				<path style="fill:#F797A3;" d="M217.787,45.528c-0.085,0.432-0.137,0.87-0.16,1.295c-0.102,1.888,0.197,3.798,0.575,5.642
					c0.373,1.824,0.855,3.624,1.347,5.419c0.355,1.294,0.75,2.596,0.952,3.925c0.457,3.012,0.68,6.077,0.884,9.115
					c0.224,3.334,0.347,6.674,0.405,10.014c0.081,4.73,0.029,9.462-0.068,14.192c0.266-0.075,0.531-0.148,0.799-0.243
					c0,0,0.89-14.502,1.606-26.072C224.629,60.694,224.247,50.224,217.787,45.528z"/>
			</g>
			<g>
				<g>
					<path style="fill:#F797A3;" d="M103.359,28.798c-5.136,6.013-9.147,21.727-8.955,35.07c0.041-0.115,0.088-0.229,0.129-0.345
						c3.472-9.944,8.538-25.655,24.276-37.912C115.577,24.613,108.171,23.165,103.359,28.798z"/>
					<path style="fill:#C44D61;" d="M94.405,64.111c-0.013,0-0.027-0.001-0.04-0.003c-0.116-0.019-0.201-0.118-0.203-0.236
						c-0.193-13.382,3.851-29.187,9.012-35.231l0,0c4.95-5.793,12.633-4.211,15.707-3.26c0.086,0.027,0.151,0.099,0.167,0.188
						c0.016,0.089-0.018,0.18-0.09,0.235c-15.154,11.804-20.382,26.837-23.841,36.784l-0.484,1.364
						C94.598,64.048,94.505,64.111,94.405,64.111z M103.544,28.956L103.544,28.956c-4.92,5.76-8.81,20.552-8.901,33.519l0.016-0.047
						c3.45-9.92,8.648-24.87,23.632-36.717C115.062,24.792,108.081,23.643,103.544,28.956z"/>
				</g>
				<path style="fill:#F797A3;" d="M98.572,40.513c1.561-1.292,3.104-2.604,4.665-3.896c1.421-1.176,2.79-2.417,3.974-3.836
					c1.24-1.486,2.346-3.241,2.766-5.151c0.192-0.873,0.259-1.791,0.245-2.717c-2.412,0.435-4.861,1.542-6.862,3.885
					c-2.269,2.656-4.318,7.208-5.882,12.611C97.841,41.109,98.208,40.814,98.572,40.513z"/>
				<g>
					<path style="fill:#4C261C;" d="M99.888,22.237c-8.81,7.428-16.066,17.447-28.849,24.185
						C58.947,52.813,54.11,56.441,60.156,73.198c6.046,16.757,13.647,18.484,18.311,14.684c4.615-3.76,12.098-13.272,15.937-24.013
						c-0.192-13.343,3.819-29.057,8.955-35.07c4.812-5.633,12.218-4.185,15.45-3.187c1.486-1.158,3.061-2.287,4.745-3.375
						C123.555,22.237,108.698,14.809,99.888,22.237z"/>
					<path style="fill:#2D110B;" d="M74.016,89.81c-0.631,0-1.269-0.088-1.912-0.266c-3.197-0.886-7.905-4.427-12.176-16.264
						c-6.169-17.096-0.781-20.847,10.998-27.073c8.657-4.562,14.713-10.579,20.57-16.398c2.78-2.762,5.406-5.371,8.237-7.757l0,0
						c8.831-7.444,23.782-0.107,23.931-0.032c0.079,0.039,0.13,0.117,0.135,0.204c0.005,0.087-0.038,0.17-0.111,0.217
						c-1.604,1.036-3.194,2.167-4.729,3.362c-0.062,0.048-0.144,0.065-0.221,0.04c-2.982-0.921-10.433-2.461-15.193,3.113
						c-5.097,5.967-9.088,21.627-8.897,34.909c0,0.029-0.005,0.058-0.014,0.085c-3.627,10.147-10.956,20-16.012,24.119
						C77.205,89.223,75.639,89.81,74.016,89.81z M100.045,22.422c-2.815,2.373-5.435,4.976-8.207,7.731
						c-5.883,5.845-11.965,11.888-20.685,16.483c-11.835,6.255-16.813,9.727-10.768,26.479c4.201,11.642,8.762,15.106,11.849,15.961
						c2.139,0.594,4.242,0.116,6.08-1.383c4.998-4.072,12.245-13.815,15.847-23.865c-0.183-13.374,3.857-29.15,9.013-35.188
						c4.886-5.717,12.436-4.249,15.585-3.297c1.398-1.085,2.842-2.117,4.299-3.072c-1.071-0.49-4.244-1.843-8.09-2.584
						C110.631,18.854,104.52,18.649,100.045,22.422L100.045,22.422z"/>
				</g>
				<path style="fill:#4C261C;" d="M65.597,54.542c2.302-1.46,4.691-2.748,6.938-4.301c2.275-1.573,4.452-3.283,6.557-5.076
					c4.133-3.521,7.986-7.351,11.917-11.092c3.656-3.48,7.359-7.075,11.547-9.917c3.014-2.046,6.257-3.732,9.633-5.112
					c-4.166-0.387-8.73,0.183-12.302,3.194c-8.81,7.428-16.066,17.447-28.849,24.185c-9.008,4.762-13.986,7.993-13.442,16.257
					C59.523,59.345,62.341,56.608,65.597,54.542z"/>
				<path style="opacity:0.5;fill:#4C261C;" d="M109.792,18.941c-0.534,0.773-1.254,1.44-1.968,2.014
					c-1.427,1.147-2.819,2.332-4.139,3.602c-2.684,2.582-5.094,5.467-7.066,8.631c-1.213,1.947-2.184,3.772-2.971,5.821
					c-0.497,1.292-0.958,2.599-1.422,3.903c-1.312,3.686-2.625,7.372-4.06,11.013c-1.595,4.048-3.32,8.059-5.388,11.891
					c-1.675,3.103-3.606,6.339-6.307,8.667c-1.958,1.688-4.489,2.776-6.99,1.587c-1.421-0.676-2.564-1.867-3.501-3.105
					c-1.662-2.198-2.985-4.764-3.846-7.375c-1.003-3.042-1.513-6.865,0.355-9.704c1.833-2.786,5.019-4.374,7.265-6.776
					c0.929-0.993,1.713-2.132,2.412-3.317c-0.376,0.209-0.742,0.425-1.128,0.629C58.947,52.813,54.11,56.441,60.156,73.198
					c6.046,16.757,13.647,18.484,18.311,14.684c4.615-3.76,12.098-13.272,15.937-24.013c-0.192-13.343,3.819-29.057,8.955-35.07
					c4.812-5.633,12.218-4.185,15.45-3.187c1.486-1.158,3.061-2.287,4.745-3.375C123.555,22.237,116.859,18.895,109.792,18.941z"/>
			</g>
			<g>
				<path style="fill:#4C261C;" d="M145.888,13.981c0,0-23.118-0.701-42.266,23.118c-15.646,16.813-10.275,33.86-12.61,42.5
					c-2.335,8.64-17.981,23.118-15.646,31.758c1.401-4.67,3.97-4.904,3.97-4.904s-1.868,6.071,2.569,10.275
					c0,0,5.838,23.585,36.195,33.159c-1.168,15.412,11.676,19.849,20.783,19.382c9.107-0.467,16.346,0.467,27.088-13.077
					c24.052-5.838,37.282-14.527,37.569-23.047c1.053,7.371-0.287,8.52-0.287,8.52s5.265-3.925,4.308-11.775
					c6.031,7.371,6.031,11.775,6.031,11.775s1.913-11.864,0.461-18.638c3.871,4.032,8.225,3.226,8.225,3.226
					s-10.752-5.914-6.881-35.375c3.871-29.461,3.656-49.675-24.73-67.523c-3.011-9.892-14.623-12.688-24.3-11.397
					C171.958,6.581,184,8.731,184,8.731s-12.17-7.735-24.427-0.424C151.401,12.608,149.494,14.07,145.888,13.981z"/>
				<path style="fill:#2D110B;" d="M137.522,169.547c-6.089,0-11.715-2.09-15.251-5.712c-3.331-3.414-4.821-8.047-4.427-13.774
					c-15.632-4.976-24.624-13.724-29.42-20.199c-4.918-6.639-6.55-12.315-6.736-13.006c-3.767-3.619-3.008-8.614-2.685-10.064
					c-0.724,0.265-2.382,1.23-3.404,4.635c-0.03,0.103-0.125,0.173-0.232,0.173c-0.001,0-0.002,0-0.004,0
					c-0.108-0.001-0.202-0.075-0.23-0.179c-1.432-5.301,3.623-12.554,8.513-19.568c3.194-4.582,6.211-8.91,7.133-12.318
					c0.629-2.328,0.692-5.287,0.765-8.713c0.194-9.113,0.459-21.593,11.901-33.888c18.959-23.583,42.139-23.208,42.45-23.195l0,0
					c2.894,0.065,4.633-0.859,9.77-3.621c1.099-0.591,2.349-1.263,3.796-2.025c12.232-7.296,24.546,0.356,24.67,0.434
					c0.098,0.062,0.138,0.185,0.097,0.293c-0.043,0.108-0.157,0.168-0.269,0.151c-0.115-0.021-11.188-1.929-16.844,2.652
					c9.85-1.087,20.798,2.043,23.759,11.575c13.382,8.432,21.165,17.807,24.489,29.498c3.017,10.61,2.343,22.488,0.277,38.215
					c-3.806,28.962,6.651,35.072,6.757,35.13c0.09,0.05,0.139,0.15,0.123,0.252c-0.016,0.101-0.095,0.181-0.195,0.199
					c-0.174,0.031-4.126,0.713-7.886-2.748c1.16,6.834-0.587,17.847-0.605,17.961c-0.019,0.124-0.112,0.214-0.259,0.203
					c-0.126-0.01-0.223-0.115-0.224-0.241c0-0.042-0.082-4.169-5.469-10.992c0.519,7.364-4.43,11.147-4.482,11.185
					c-0.105,0.079-0.252,0.059-0.334-0.043c-0.081-0.102-0.067-0.251,0.031-0.336c0.006-0.006,0.995-1.059,0.43-6.49
					c-2.029,8.245-15.73,16.143-37.415,21.418c-9.873,12.418-16.856,12.691-24.938,13.005c-0.747,0.029-1.505,0.059-2.276,0.098
					C138.435,169.536,137.978,169.547,137.522,169.547z M79.336,106.211c0.073,0,0.142,0.033,0.188,0.09
					c0.05,0.063,0.067,0.147,0.044,0.224c-0.018,0.06-1.769,5.981,2.503,10.027c0.034,0.032,0.058,0.073,0.068,0.118
					c0.015,0.059,1.516,5.947,6.689,12.923c4.771,6.436,13.736,15.141,29.344,20.063c0.107,0.034,0.177,0.137,0.169,0.25
					c-0.429,5.67,1.01,10.242,4.278,13.59c3.704,3.797,9.776,5.869,16.251,5.531c0.773-0.04,1.533-0.069,2.282-0.098
					c7.977-0.31,14.866-0.578,24.628-12.887c0.034-0.043,0.081-0.072,0.133-0.085c23.115-5.611,37.091-14.141,37.383-22.82
					c0.005-0.125,0.104-0.227,0.229-0.234c0.151-0.016,0.236,0.084,0.253,0.208c0.604,4.228,0.434,6.448,0.154,7.592
					c1.413-1.481,4.079-5.098,3.387-10.784c-0.013-0.107,0.046-0.21,0.145-0.253c0.1-0.043,0.215-0.015,0.283,0.07
					c3.962,4.843,5.345,8.401,5.828,10.318c0.456-3.448,1.354-11.779,0.241-16.978c-0.023-0.106,0.028-0.214,0.123-0.265
					c0.096-0.051,0.213-0.032,0.289,0.046c2.856,2.976,6.011,3.247,7.35,3.21c-2.233-1.724-9.791-9.58-6.421-35.222
					c2.058-15.664,2.732-27.488-0.262-38.018c-3.296-11.591-11.036-20.892-24.357-29.268c-0.049-0.031-0.086-0.079-0.103-0.135
					c-2.916-9.581-14.18-12.544-24.036-11.227c-0.11,0.015-0.205-0.041-0.251-0.135c-0.046-0.094-0.025-0.207,0.051-0.28
					c2.943-2.83,7.645-3.572,11.073-3.696c2.228-0.082,4.221,0.082,5.458,0.225c-3.29-1.661-13.191-5.668-23.033,0.205
					c-1.456,0.767-2.705,1.439-3.802,2.029c-5.078,2.731-6.962,3.749-10.012,3.679c-0.013-0.003-0.048-0.001-0.137-0.001
					c-1.932,0-23.845,0.527-41.934,23.029c-11.326,12.172-11.59,24.546-11.782,33.581c-0.074,3.458-0.137,6.444-0.782,8.83
					c-0.944,3.489-3.984,7.851-7.203,12.468c-4.553,6.531-9.253,13.273-8.616,18.282c1.471-3.934,3.783-4.192,3.888-4.201
					C79.322,106.211,79.329,106.211,79.336,106.211z"/>
			</g>
			<path style="fill:#4C261C;" d="M93.567,63.414c0.851-6.383,4.006-12.185,7.644-17.478c3.586-5.217,7.501-10.193,12.045-14.613
				c4.577-4.452,9.684-8.175,15.089-11.55c3.198-1.997,6.614-3.514,10.076-4.938c-8.377,1.715-22.414,6.859-34.798,22.264
				c-6.649,7.145-9.496,14.33-10.758,20.896C93.012,59.812,93.26,61.625,93.567,63.414z"/>
			<path style="fill:#4C261C;" d="M159.96,9.249c0.937-0.764,2.138-1.295,3.174-1.667c5.249-1.883,11.109-1.353,16.402,0.054
				c0.989,0.263,1.974,0.557,2.946,0.89C183.43,8.63,184,8.731,184,8.731s-11.277-7.161-23.054-1.176
				C160.579,8.097,160.239,8.658,159.96,9.249z"/>
			<path style="opacity:0.5;fill:#4C261C;" d="M222.278,126.253c0,0-10.075-5.543-7.208-32.623
				c-0.025,0.096-0.043,0.194-0.068,0.291c-0.548,2.086-1.201,4.183-2.225,6.09c-0.743,1.384-1.757,2.835-3.26,3.454
				c-1.376,0.567-2.875,0.239-3.854-0.889c-1.151-1.327-1.486-3.203-1.635-4.899c-0.402-4.585,0.387-9.269,1.069-13.791
				c0.237-1.571,0.542-3.15,0.668-4.736c0.12-1.506,0.006-3.346-0.113-4.956c-0.148-2.006-0.409-4.004-0.763-5.983
				c-0.702-3.932-1.775-7.802-3.158-11.548c-0.676-1.831-1.421-3.623-2.367-5.332c-0.92-1.663-1.972-3.247-3.044-4.815
				c-1.115-1.631-2.258-3.219-3.109-5.01c-0.761-1.601-1.305-3.309-1.609-5.055c-0.593-3.405-0.246-6.886,0.663-10.202
				c0.143-0.52,0.302-1.034,0.47-1.546c-0.677-0.451-1.359-0.901-2.071-1.349c-0.377-1.24-0.89-2.368-1.517-3.39
				c0.216,1.743,0.216,3.521,0.013,5.24c-0.322,2.728-1.168,5.463-2.941,7.608c-0.333,0.403-0.509-0.175-0.496-0.462
				c0.104-2.436-0.268-4.899-1.536-7.017c-1.757-2.935-4.898-4.708-7.943-6.045c-3.29-1.446-6.735-2.532-9.943-4.164
				c-0.361-0.184-0.6-0.771-0.372-1.128c0.572-0.899,1.349-1.635,2.226-2.229c-0.602,0.048-1.2,0.11-1.791,0.189
				C171.958,6.581,184,8.731,184,8.731s-0.612-0.387-1.693-0.906c-2.975-0.391-5.977-0.521-8.932-0.241
				c-1.431,0.135-2.863,0.371-4.232,0.816c-1.317,0.428-2.581,1.037-3.811,1.669c-2.52,1.294-4.94,2.769-7.526,3.936
				c-0.196,0.088-0.316-0.102-0.389-0.255c-0.738-1.539-0.448-3.085,0.323-4.47c-5.305,2.832-7.58,4.188-9.972,4.579
				c0.394,0.145,0.787,0.294,1.178,0.451c1.548,0.619,3.071,1.3,4.619,1.917c1.556,0.62,3.148,1.144,4.739,1.667
				c2.959,0.974,5.87,2.001,8.629,3.466c1.961,1.042,3.821,2.308,5.554,3.694c1.941,1.551,3.771,3.303,5.192,5.352
				c1.202,1.734,2.128,3.815,1.893,5.969c-0.027,0.249-0.334,0.297-0.534,0.242c-4.399-1.219-9.609-0.516-13.33,2.206
				c-2.757,2.017-4.605,4.994-5.887,8.113c-0.671,1.632-1.199,3.322-1.634,5.032c-0.56,2.204-1.162,4.396-1.665,6.615
				c-1.036,4.569-1.826,9.436-1.213,14.122c0.598,4.568,2.378,8.932,2.376,13.585c0,0.35-0.533,0.234-0.712,0.166
				c-1.827-0.692-3.081-2.347-4.287-3.799c-1.043-1.254-2.084-2.397-3.624-3.019c-1.38-0.557-2.892-0.825-4.376-0.852
				c-2.79-0.051-5.942,0.863-7.15,3.628c-0.257,0.587-1.289-0.285-1.172-0.764c0.268-1.104,0.654-2.17,1.098-3.215
				c0.894-2.101,1.999-4.109,2.728-6.277c0.784-2.332,1.467-4.697,2.084-7.079c1.171-4.52,2.255-9.117,3.022-13.725
				c0.698-4.195,1.033-8.592,0.112-12.782c-0.863-3.924-2.861-8.015-6.298-10.283c-6.469-4.27-15.163-1.583-21.119,2.3
				c-6.813,4.443-11.212,11.54-14.936,18.582c-2.144,4.054-3.901,8.422-5.083,12.854c-0.657,2.463-1.002,4.894-1.04,7.443
				c-0.036,2.445,0.069,4.893-0.142,7.332c-0.014,0.158-0.303,0.963-0.58,0.629c-2.15-2.593-3.595-5.655-4.328-8.937
				c-0.014-0.062-0.019-0.124-0.032-0.186c-0.137,4.499-0.048,8.376-0.836,11.292c-2.335,8.64-17.981,23.118-15.646,31.758
				c1.401-4.67,3.97-4.904,3.97-4.904s-1.868,6.071,2.569,10.275c0,0,5.838,23.585,36.195,33.159
				c-1.168,15.412,11.676,19.849,20.783,19.382c9.107-0.467,16.346,0.467,27.088-13.077c24.052-5.838,37.282-14.527,37.569-23.047
				c1.053,7.371-0.287,8.52-0.287,8.52s5.265-3.925,4.308-11.775c6.031,7.371,6.031,11.775,6.031,11.775s1.913-11.864,0.461-18.638
				C217.923,127.059,222.278,126.253,222.278,126.253z"/>
			<path style="fill:#BA713C;" d="M161.127,54.61c0,0-7.682,19.205,1.69,39.332c0,0,8.604,3.38,13.52,9.986
				c2.151,3.38,6.146,1.383,8.604,1.229c2.458-0.154,13.674-6.76,15.671-18.898s0.915-38.532-17.204-45.486
				C167.442,34.644,161.127,54.61,161.127,54.61z"/>
			<path style="opacity:0.48;fill:#BA713C;" d="M162.993,56.426c0,0-6.912,17.281,1.521,35.392c0,0,7.742,3.041,12.166,8.986
				c1.936,3.041,5.53,1.244,7.742,1.106c2.212-0.138,12.304-6.083,14.101-17.005c1.797-10.922,0.823-34.672-15.48-40.93
				C168.675,38.46,162.993,56.426,162.993,56.426z"/>
			<path style="fill:#BA713C;" d="M102.898,57.836c0,0,7.221-20.741,25.658-25.965c7.989-1.69,13.981,1.69,12.445,26.887
				c-2.766,20.741-13.828,35.644-26.58,36.105C105.664,94.248,97.06,81.035,102.898,57.836z"/>
			<path style="opacity:0.48;fill:#BA713C;" d="M105.26,56.916c0,0,6.285-18.052,22.331-22.599
				c6.954-1.471,12.169,1.471,10.831,23.401c-2.407,18.052-12.035,31.023-23.134,31.424
				C107.667,88.608,100.179,77.108,105.26,56.916z"/>
			<path style="fill:#3E1506;" d="M133.63,75.068c-2.969,9.454-11.545,15.181-19.155,12.791c-7.61-2.39-11.372-11.991-8.404-21.445
				c2.969-9.454,11.545-15.181,19.155-12.791C132.836,56.013,136.599,65.615,133.63,75.068z"/>
			<g>
				<path style="fill:#E6E6E6;" d="M109.152,91.926c0,0,12.467,2.513,18.072-2.803s8.891-18.652,4.446-26.963
					c-4.446-8.311-19.425-8.311-25.513,5.702C100.068,81.876,105.576,90.767,109.152,91.926z"/>
				<path style="fill:#2D110B;" d="M115.794,92.778c-3.561,0-6.444-0.564-6.69-0.613c-0.008-0.002-0.018-0.004-0.026-0.007
					c-1.603-0.52-3.281-2.36-4.383-4.801c-1.383-3.068-3.062-9.692,1.239-19.59c3.015-6.939,8.615-11.236,14.98-11.495
					c4.756-0.195,8.962,2.019,10.97,5.776c4.519,8.45,1.238,21.819-4.493,27.253C124.442,92.096,119.708,92.778,115.794,92.778z
					 M109.214,91.692c0.47,0.09,12.475,2.347,17.844-2.744c5.575-5.286,8.699-18.632,4.398-26.673
					c-1.92-3.59-5.929-5.708-10.522-5.519c-6.175,0.251-11.616,4.439-14.555,11.204c-4.227,9.727-2.593,16.203-1.242,19.197
					C106.383,89.92,108.057,91.31,109.214,91.692z"/>
			</g>
			<path style="fill:#FFFFFF;" d="M110.275,89.854c0,0,10.983,2.214,15.921-2.469c4.938-4.683,7.833-16.432,3.917-23.754
				c-3.917-7.322-17.113-7.322-22.477,5.023C102.272,80.999,107.125,88.832,110.275,89.854z"/>
			<path style="fill:#3E1506;" d="M165.011,83.809c0,0-1.063-23.387,15.849-24.16c8.215,0.193,19.328,9.181,13.433,30.152
				C181.343,88.254,165.011,83.809,165.011,83.809z"/>
			<g>
				<path style="fill:#E6E6E6;" d="M165.398,78.493c0,0-1.836,9.664,2.126,16.429c3.092,5.122,12.467,6.282,15.849,6.475
					c3.382,0.193,9.084-3.672,10.921-11.597c1.836-7.925,1.45-22.807-11.984-25.803C168.877,61.001,165.688,75.594,165.398,78.493z"
					/>
				<path style="fill:#2D110B;" d="M183.612,101.647c-0.085,0-0.171-0.002-0.254-0.007c-2.086-0.119-12.665-0.998-16.042-6.592
					c-3.904-6.665-2.229-16.207-2.16-16.589c0.244-2.417,1.94-9.422,6.814-12.944c2.856-2.065,6.35-2.655,10.392-1.755
					c4.352,0.97,7.681,3.247,9.896,6.766c3.637,5.777,3.558,13.773,2.271,19.329C192.72,97.664,187.127,101.647,183.612,101.647z
					 M178.854,63.838c-2.483,0-4.693,0.692-6.6,2.07c-4.735,3.423-6.382,10.263-6.616,12.61c-0.001,0.007-0.002,0.014-0.003,0.021
					c-0.019,0.096-1.772,9.655,2.097,16.262c3.25,5.383,13.609,6.239,15.654,6.356c3.31,0.176,8.876-3.669,10.671-11.41
					c1.265-5.461,1.349-13.31-2.209-18.961c-2.144-3.405-5.371-5.609-9.592-6.55C181.073,63.97,179.937,63.838,178.854,63.838z
					 M165.397,78.493h0.006H165.397z"/>
			</g>
			<path style="fill:#FFFFFF;" d="M167.368,79.033c0,0-1.589,8.363,1.84,14.217c2.676,4.432,10.788,5.436,13.715,5.603
				c2.927,0.167,7.861-3.178,9.45-10.036c1.589-6.858,1.254-19.737-10.37-22.329C170.378,63.896,167.618,76.524,167.368,79.033z"/>
			<g>
				<g>
					<path style="fill:#682A15;" d="M131.25,77.671c0,7.504-5.681,13.586-12.69,13.586s-12.69-6.083-12.69-13.586
						c0-7.503,5.682-13.586,12.69-13.586S131.25,70.168,131.25,77.671z"/>
					<path style="fill:#441306;" d="M118.559,91.631c-7.196,0-13.05-6.262-13.05-13.96s5.854-13.96,13.05-13.96
						s13.051,6.263,13.051,13.96S125.756,91.631,118.559,91.631z M118.559,64.458c-6.797,0-12.328,5.927-12.328,13.213
						c0,7.285,5.531,13.212,12.328,13.212c6.799,0,12.33-5.927,12.33-13.212C130.889,70.385,125.358,64.458,118.559,64.458z"/>
				</g>
				<path style="fill:#080202;" d="M127.217,77.671c0,5.119-3.876,9.268-8.657,9.268c-4.781,0-8.657-4.15-8.657-9.268
					c0-5.118,3.876-9.268,8.657-9.268C123.341,68.403,127.217,72.552,127.217,77.671z"/>
				<g>
					<path style="fill:#FFFFFF;" d="M116.872,68.463c-0.712-1.158-2.002-1.638-3.298-1.343c-3.142,0.717-4.949,4.7-5.297,7.686
						c-0.208,1.788,0.329,4.653,2.354,5.078c1.774,0.372,3.603-1.271,4.641-2.575C117.135,74.971,118.594,71.261,116.872,68.463z"/>
					<path style="fill:#FFFFFF;" d="M113.674,81.284c-0.206-0.358-0.55-0.553-0.921-0.613c-0.576-0.287-1.315,0.081-1.771,0.496
						c-0.32,0.291-0.604,0.688-0.712,1.13c-0.094,0.385-0.057,0.763,0.104,1.12c0.256,0.572,0.873,0.848,1.437,0.871
						c0.694,0.028,1.368-0.31,1.784-0.903C114.006,82.798,114.033,81.906,113.674,81.284z"/>
				</g>
				<path style="fill:#ECCEB0;" d="M127.079,81.456c-0.281-0.674-0.972-1.071-1.753-1.072c-1.894-0.003-3.385,1.817-3.921,3.3
					c-0.321,0.888-0.332,2.413,0.789,2.867c0.982,0.398,2.222-0.226,2.968-0.769C126.5,84.808,127.759,83.086,127.079,81.456z"/>
			</g>
			<g>
				<g>
					<path style="fill:#682A15;" d="M191.396,85.478c0,7.504-5.681,13.586-12.69,13.586c-7.009,0-12.69-6.083-12.69-13.586
						c0-7.503,5.682-13.586,12.69-13.586C185.714,71.892,191.396,77.974,191.396,85.478z"/>
					<path style="fill:#441306;" d="M178.705,99.438c-7.196,0-13.05-6.262-13.05-13.96s5.854-13.96,13.05-13.96
						c7.196,0,13.051,6.263,13.051,13.96S185.901,99.438,178.705,99.438z M178.705,72.265c-6.797,0-12.328,5.927-12.328,13.213
						c0,7.285,5.531,13.212,12.328,13.212c6.799,0,12.329-5.927,12.329-13.212C191.035,78.192,185.504,72.265,178.705,72.265z"/>
				</g>
				<path style="fill:#080202;" d="M187.362,85.478c0,5.119-3.876,9.268-8.657,9.268c-4.781,0-8.657-4.149-8.657-9.268
					c0-5.118,3.876-9.268,8.657-9.268C183.487,76.21,187.362,80.359,187.362,85.478z"/>
				<g>
					<path style="fill:#FFFFFF;" d="M177.018,76.269c-0.712-1.158-2.002-1.638-3.298-1.343c-3.142,0.717-4.949,4.7-5.297,7.686
						c-0.208,1.788,0.329,4.653,2.354,5.078c1.774,0.372,3.602-1.271,4.641-2.575C177.281,82.778,178.739,79.068,177.018,76.269z"/>
					<path style="fill:#FFFFFF;" d="M173.819,89.091c-0.206-0.357-0.55-0.553-0.921-0.613c-0.576-0.287-1.315,0.081-1.771,0.496
						c-0.32,0.291-0.604,0.688-0.712,1.13c-0.094,0.385-0.057,0.763,0.104,1.12c0.256,0.572,0.873,0.848,1.437,0.871
						c0.694,0.028,1.368-0.31,1.784-0.903C174.152,90.605,174.178,89.713,173.819,89.091z"/>
				</g>
				<path style="fill:#ECCEB0;" d="M187.225,89.263c-0.281-0.674-0.972-1.071-1.753-1.072c-1.894-0.003-3.385,1.817-3.921,3.3
					c-0.321,0.888-0.332,2.413,0.789,2.867c0.982,0.398,2.222-0.226,2.969-0.769C186.646,92.615,187.904,90.893,187.225,89.263z"/>
			</g>
			<path style="fill:#2D110B;" d="M179.543,50.771c0,0,7.017-3.715,16.51,7.842C193.577,46.23,184.909,42.378,179.543,50.771z"/>
			<path style="fill:#2D110B;" d="M130.287,46.368c0,0-3.99-4.816-17.749,2.064C121.482,34.398,129.462,39.764,130.287,46.368z"/>
			<g>
				<g>
					<path style="fill:#CD8F5F;" d="M222.278,126.253c0,0-4.694-2.589-6.762-12.844c-3.245-0.214-8.08-1.22-13.453-4.682
						c-11.182-7.742-22.579-0.645-24.945-3.656c-14.408-17.849-41.503-17.634-52.686-13.118c-11.182,4.516-9.032,2.796-25.59,0.86
						c-10.924-0.9-18.542,6.494-22.907,12.591c-0.763,2.162-1.049,4.181-0.57,5.953c1.401-4.67,3.97-4.904,3.97-4.904
						s-1.868,6.071,2.569,10.275c0,0,5.838,23.585,36.195,33.159c-1.167,15.412,11.676,19.849,20.783,19.382
						c9.107-0.467,16.346,0.467,27.088-13.077c24.052-5.838,37.282-14.527,37.569-23.047c1.053,7.371-0.287,8.52-0.287,8.52
						s5.265-3.925,4.308-11.775c6.031,7.371,6.031,11.775,6.031,11.775s1.913-11.864,0.461-18.638
						C217.923,127.059,222.278,126.253,222.278,126.253z"/>
					<path style="fill:#99582B;" d="M137.522,169.547c-6.089,0-11.715-2.09-15.251-5.712c-3.331-3.414-4.821-8.047-4.427-13.774
						c-29.167-9.284-35.765-31.772-36.156-33.205c-3.767-3.619-3.008-8.614-2.685-10.064c-0.724,0.265-2.382,1.23-3.404,4.635
						c-0.03,0.103-0.125,0.173-0.232,0.173c-0.001,0-0.002,0-0.004,0c-0.108-0.001-0.202-0.075-0.23-0.18
						c-0.46-1.703-0.272-3.698,0.576-6.097c0.008-0.022,0.018-0.042,0.031-0.061c4.5-6.287,12.155-13.604,23.124-12.691
						c4.103,0.479,7.011,0.938,9.347,1.306c6.888,1.086,7.772,1.226,16.132-2.15c10.78-4.354,38.271-5.014,52.965,13.19
						c0.805,1.023,2.883,0.741,5.761,0.35c4.807-0.65,12.067-1.634,19.134,3.258c5.373,3.463,10.215,4.435,13.33,4.639
						c0.109,0.007,0.2,0.087,0.222,0.194c2.017,10.001,6.596,12.655,6.641,12.68c0.089,0.05,0.138,0.151,0.121,0.252
						c-0.016,0.101-0.094,0.181-0.194,0.199c-0.174,0.031-4.126,0.713-7.886-2.748c1.16,6.834-0.587,17.847-0.605,17.961
						c-0.019,0.124-0.112,0.214-0.259,0.203c-0.126-0.01-0.223-0.115-0.224-0.241c0-0.042-0.082-4.169-5.469-10.992
						c0.519,7.364-4.43,11.147-4.482,11.185c-0.105,0.079-0.252,0.059-0.334-0.043c-0.081-0.102-0.067-0.251,0.031-0.336
						c0.006-0.006,0.995-1.059,0.43-6.49c-2.029,8.245-15.73,16.143-37.415,21.418c-9.873,12.418-16.856,12.691-24.938,13.005
						c-0.747,0.029-1.505,0.059-2.276,0.098C138.435,169.536,137.978,169.547,137.522,169.547z M79.336,106.211
						c0.073,0,0.142,0.033,0.188,0.09c0.05,0.063,0.067,0.147,0.044,0.224c-0.018,0.06-1.769,5.981,2.503,10.027
						c0.034,0.032,0.058,0.073,0.068,0.118c0.059,0.234,6.166,23.567,36.033,32.987c0.107,0.034,0.177,0.137,0.169,0.25
						c-0.429,5.67,1.01,10.242,4.278,13.59c3.704,3.797,9.776,5.869,16.251,5.531c0.773-0.04,1.533-0.069,2.282-0.098
						c7.977-0.31,14.866-0.578,24.628-12.887c0.034-0.043,0.081-0.072,0.133-0.085c23.115-5.611,37.091-14.141,37.383-22.82
						c0.005-0.125,0.104-0.227,0.229-0.234c0.151-0.016,0.236,0.084,0.253,0.208c0.604,4.228,0.434,6.448,0.154,7.592
						c1.413-1.481,4.079-5.098,3.387-10.784c-0.013-0.107,0.046-0.21,0.145-0.253c0.1-0.043,0.215-0.015,0.283,0.07
						c3.962,4.843,5.345,8.401,5.828,10.318c0.456-3.448,1.354-11.779,0.241-16.978c-0.023-0.106,0.028-0.214,0.123-0.265
						c0.096-0.051,0.213-0.032,0.289,0.046c2.862,2.981,6.033,3.246,7.357,3.21c-1.327-1.04-4.598-4.329-6.27-12.431
						c-3.176-0.234-8.021-1.251-13.383-4.707c-6.92-4.791-13.786-3.86-18.798-3.18c-3.036,0.412-5.234,0.71-6.206-0.529
						c-14.536-18.007-41.739-17.351-52.405-13.042c-8.481,3.425-9.381,3.283-16.39,2.179c-2.332-0.368-5.234-0.825-9.319-1.303
						c-10.721-0.891-18.231,6.284-22.661,12.463c-0.66,1.881-0.9,3.492-0.726,4.894c1.471-3.933,3.782-4.19,3.887-4.199
						C79.322,106.211,79.329,106.211,79.336,106.211z"/>
				</g>
			</g>
			<g>
				<path style="fill:#CD8F5F;" d="M183.946,106.172c2.735,0.564,5.525,0.792,8.263,1.354c3.554,0.729,7.046,1.747,10.476,2.924
					c2.77,0.95,5.493,1.943,8.042,3.398c2.172,1.24,4.195,2.724,6.108,4.334c-0.494-1.37-0.949-2.945-1.317-4.774
					c-3.245-0.214-8.08-1.22-13.452-4.682c-7.604-5.264-15.304-3.669-20.199-3.054C182.557,105.864,183.254,106.029,183.946,106.172
					z"/>
			</g>
			<g>
				<path style="fill:#CD8F5F;" d="M80.776,102.58c3.996-3.778,8.865-6.387,14.405-6.818c2.919-0.227,5.745,0.22,8.646,0.404
					c3.471,0.22,6.942-0.081,10.352-0.749c3.248-0.636,6.477-1.552,9.593-2.669c1.696-0.608,3.357-1.312,4.964-2.122
					c-1.602,0.377-3.056,0.823-4.302,1.327c-11.182,4.516-9.032,2.796-25.59,0.86c-10.924-0.9-18.542,6.494-22.907,12.591
					c-0.453,1.282-0.731,2.512-0.788,3.672C76.803,106.734,78.694,104.548,80.776,102.58z"/>
			</g>
			<g>
				<path style="fill:#CD8F5F;" d="M215.516,113.409c-0.13-0.009-0.267-0.021-0.402-0.032c-2.107,0.031-4.204,0.029-6.23,0.136
					c0.652,2.352,1.725,4.576,2.467,6.899c0.722,2.262,1.366,4.935,0.281,7.188c-0.222,0.46-1.113-0.117-1.25-0.393
					c-1.261-2.554-2.186-5.452-3.771-7.87c0.593,2.998,0.59,6.311-0.852,8.974c-0.188,0.346-0.835-0.112-0.971-0.251
					c-1.04-1.067-1.747-2.326-2.354-3.645c-0.289,2.624-1.078,5.155-2.381,7.485c-1.322,2.364-3.118,4.359-5.103,6.179
					c-1.495,1.371-3.064,2.667-4.718,3.841c-1.727,1.225-3.565,2.376-5.569,3.089c-1.647,0.586-3.537,0.88-5.171,0.091
					c-1.826-0.883-2.868-2.738-2.96-4.725c-0.112-2.439,0.793-4.892,1.775-7.082c1-2.23,2.225-4.362,3.522-6.431
					c0.662-1.056,1.345-2.174,2.261-3.032c0.526-0.492,1.166-0.877,1.909-0.796c0.876,0.096,1.631,0.728,2.217,1.34
					c0.722,0.754,1.342,1.602,1.932,2.465c1.476-2.665,1.941-5.73,0.272-8.456c-1.419-2.317-3.816-3.969-6.065-5.401
					c-2.104-1.339-4.945-2.615-5.677-5.244c-0.191-0.686-0.156-1.325,0.016-1.921c-0.695-0.088-1.233-0.307-1.576-0.744
					c-14.408-17.849-41.503-17.634-52.686-13.118c-6.739,2.722-8.64,3.177-12.707,2.686c0.914,0.649,1.752,1.4,2.471,2.286
					c0.108,0.133,0.342,0.465,0.163,0.639c-0.49,0.475-1.051,0.868-1.688,1.119c-2.452,0.969-5.32-0.06-7.636,1.361
					c-1.335,0.819-2.187,2.338-2.738,3.763c-0.479,1.24-0.732,2.57-0.746,3.899c-0.03,2.828,0.872,5.58,1.937,8.167
					c1.16,2.814,2.566,5.516,3.799,8.298c1.2,2.709,2.299,5.541,2.648,8.502c0.165,1.393,0.173,2.801-0.064,4.187
					c-0.22,1.286-0.635,2.744-1.673,3.618c-1.802,1.517-4.426-0.07-5.953-1.223c-2.333-1.761-4.41-3.917-6.175-6.238
					c-4.559-5.994-7.344-13.144-8.508-20.558c-1.177,0.931-2.289,2.183-2.501,3.688c-0.036,0.254-0.295,0.719-0.538,0.31
					c-1.426-2.398-1.848-5.101-1.514-7.85c0.32-2.634,1.214-5.15,2.023-7.665c-2.705,1.103-4.639,3.981-5.904,6.463
					c-0.001,0.003-0.003,0.006-0.004,0.008c-0.323,1.875-0.582,6.129,2.781,9.315c0,0,5.838,23.585,36.195,33.159
					c-1.167,15.412,11.676,19.849,20.783,19.382c9.107-0.467,16.346,0.467,27.088-13.077c24.052-5.838,37.282-14.527,37.569-23.047
					c1.053,7.371-0.287,8.52-0.287,8.52s5.265-3.925,4.308-11.775c6.031,7.371,6.031,11.775,6.031,11.775s1.913-11.864,0.461-18.638
					c3.871,4.032,8.225,3.226,8.225,3.226S217.584,123.663,215.516,113.409z"/>
			</g>
			<g>
				<g>
					<path style="fill:#ECCEB0;" d="M165.131,157.226c0.339-0.54,0.679-1.08,1.01-1.625c1.71-2.814,2.943-5.817,4.178-8.858
						c1.14-2.807,2.376-5.563,3.423-8.408c0.515-1.401,1.005-2.811,1.476-4.228c0.458-1.377,0.833-2.781,1.307-4.152
						c0.822-2.375,1.935-4.622,3.654-6.474c1.254-1.351,3.285-3.177,2.735-5.251c-0.231-0.871-1.127-1.263-1.898-1.559
						c-0.807-0.31-1.657-0.526-2.416-0.95c-1.846-1.032-2.326-3.303-2.588-5.237c-0.321-2.369-0.487-4.714-1.294-6.989
						c-0.251-0.707-0.57-1.372-0.928-2.015c-14.473-13.758-37.517-13.73-48.363-9.899c-3.305,1.567-6.431,3.456-9.289,5.827
						c-3.503,2.908-6.522,6.678-7.452,11.229c-1.183,5.793,1.526,11.516,3.236,16.915c0.481,1.518,0.94,3.032,1.264,4.592
						c0.344,1.657,0.592,3.333,0.922,4.993c0.652,3.29,2.038,6.322,2.939,9.54c0.472,1.684,0.607,3.354,0.508,5.026
						c0.184,0.06,0.358,0.125,0.544,0.184c-1.167,15.412,11.676,19.849,20.783,19.382
						C147.75,168.814,154.848,169.682,165.131,157.226z"/>
					<path style="fill:#A57346;" d="M137.522,169.547c-6.089,0-11.715-2.09-15.251-5.712c-3.332-3.415-4.822-8.049-4.427-13.777
						c-0.038-0.013-0.076-0.027-0.113-0.039l-0.251-0.085c-0.105-0.034-0.173-0.135-0.168-0.245
						c0.104-1.759-0.059-3.376-0.499-4.946c-0.358-1.279-0.801-2.552-1.23-3.783c-0.648-1.859-1.319-3.782-1.713-5.775
						c-0.153-0.765-0.287-1.534-0.422-2.302c-0.154-0.883-0.314-1.797-0.5-2.688c-0.333-1.601-0.803-3.135-1.258-4.568
						c-0.315-0.995-0.673-2.025-1.017-3.02c-1.574-4.538-3.203-9.23-2.225-14.017c0.836-4.086,3.37-7.91,7.535-11.368
						c2.708-2.247,5.763-4.164,9.34-5.86c11.572-4.087,34.284-3.698,48.633,9.942c0.018,0.017,0.033,0.037,0.046,0.058
						c0.404,0.726,0.712,1.397,0.944,2.052c0.663,1.872,0.904,3.82,1.136,5.705c0.054,0.443,0.109,0.888,0.17,1.333
						c0.279,2.067,0.771,4.11,2.466,5.057c0.505,0.282,1.045,0.467,1.616,0.663c0.258,0.088,0.515,0.176,0.769,0.273
						c0.855,0.328,1.789,0.759,2.045,1.723c0.528,1.99-1.156,3.757-2.384,5.046c-0.142,0.149-0.279,0.293-0.407,0.432
						c-1.514,1.631-2.659,3.662-3.602,6.389c-0.257,0.742-0.489,1.508-0.712,2.249c-0.192,0.635-0.385,1.27-0.594,1.9
						c-0.501,1.507-0.984,2.892-1.479,4.235c-0.693,1.885-1.482,3.761-2.244,5.575c-0.398,0.945-0.795,1.89-1.181,2.841
						c-1.141,2.812-2.436,5.999-4.195,8.893c-0.285,0.469-0.577,0.934-0.868,1.398l-0.144,0.229
						c-0.006,0.008-0.011,0.017-0.019,0.026c-9.46,11.46-16.27,11.726-24.155,12.033c-0.745,0.029-1.499,0.059-2.268,0.098
						C138.435,169.536,137.978,169.547,137.522,169.547z M117.807,149.532c0.027,0.009,0.056,0.019,0.083,0.029
						c0.093,0.032,0.187,0.065,0.282,0.095c0.108,0.034,0.177,0.137,0.169,0.25c-0.429,5.67,1.01,10.242,4.278,13.59
						c3.704,3.797,9.776,5.869,16.251,5.531c0.77-0.039,1.526-0.069,2.273-0.098c7.766-0.303,14.473-0.565,23.791-11.846
						l0.135-0.216c0.29-0.462,0.58-0.926,0.864-1.393c1.738-2.861,3.025-6.029,4.16-8.824c0.388-0.952,0.785-1.899,1.183-2.846
						c0.76-1.809,1.546-3.679,2.236-5.555c0.492-1.338,0.974-2.719,1.473-4.22c0.208-0.626,0.399-1.257,0.59-1.887
						c0.225-0.746,0.458-1.517,0.718-2.267c0.967-2.793,2.144-4.877,3.705-6.56c0.131-0.141,0.269-0.286,0.412-0.436
						c1.214-1.274,2.725-2.859,2.268-4.588c-0.197-0.743-0.974-1.096-1.751-1.394c-0.247-0.095-0.499-0.181-0.751-0.267
						c-0.567-0.194-1.154-0.395-1.697-0.698c-1.885-1.054-2.428-3.329-2.71-5.415c-0.06-0.448-0.116-0.894-0.17-1.339
						c-0.24-1.944-0.466-3.781-1.111-5.602c-0.22-0.619-0.512-1.257-0.894-1.946c-14.046-13.325-36.994-13.74-48.088-9.82
						c-3.517,1.669-6.539,3.564-9.214,5.785c-4.078,3.385-6.558,7.117-7.37,11.092c-0.951,4.656,0.655,9.285,2.207,13.76
						c0.347,0.999,0.705,2.031,1.022,3.033c0.439,1.382,0.934,2.993,1.271,4.616c0.186,0.899,0.347,1.816,0.502,2.703
						c0.134,0.765,0.268,1.53,0.42,2.292c0.388,1.959,1.052,3.865,1.695,5.709c0.432,1.238,0.878,2.519,1.241,3.812
						C117.72,146.179,117.892,147.79,117.807,149.532z M165.131,157.226h0.006H165.131z"/>
				</g>
			</g>
			<g>
				<path style="fill:#ECCEB0;" d="M182.913,118.23c-0.231-0.871-1.127-1.263-1.898-1.559c-0.762-0.292-1.558-0.507-2.283-0.886
					c-0.161,0.462-0.33,0.923-0.514,1.379c-1.406,3.503-3.523,6.705-6.463,9.105c-3.049,2.488-6.714,3.783-10.562,4.394
					c-3.245,0.515-6.64,1.003-9.917,0.503c-1.539-0.235-3.145-0.724-4.209-1.929c-1.079-1.221-1.357-3.041-0.92-4.584
					c1.092-3.859,5.866-4.842,9.117-6.082c3.61-1.377,6.346-4.328,7.88-7.834c1.547-3.536,1.967-7.682,0.945-11.421
					c-0.62-2.269-1.834-4.347-3.403-6.118c-12.861-5.179-27.324-4.419-35.259-1.616c-0.003,0.002-0.006,0.003-0.009,0.005
					c-0.04,0.322-0.101,0.627-0.173,0.882c-0.587,2.081-2.195,3.678-3.055,5.641c-1.032,2.355-1.576,4.788-1.584,7.362
					c-0.006,1.954,0.38,3.881,1.231,5.646c0.855,1.775,2.131,3.32,3.517,4.705c1.348,1.347,2.865,2.538,4.04,4.052
					c0.646,0.832,1.493,2.115,1.002,3.211c-0.583,1.302-2.577,1.495-3.789,1.614c-1.398,0.137-2.815,0.068-4.192-0.214
					c-2.58-0.529-4.933-1.828-6.889-3.575c-3.358-2.999-5.564-7.123-6.982-11.408c-0.768,5.497,1.753,10.921,3.377,16.051
					c0.481,1.518,0.94,3.032,1.264,4.592c0.344,1.657,0.592,3.333,0.922,4.993c0.268,1.354,0.663,2.663,1.095,3.959
					c1.149-0.118,2.34,0.099,3.144,0.653c1.32,0.91,2.13,2.532,2.774,3.949c0.731,1.607,1.287,3.291,2.046,4.885
					c1.425,2.993,3.273,5.954,6.029,7.89c2.636,1.852,5.885,2.462,9.052,2.518c2.188,0.039,4.217-0.517,6.284-1.176
					c1.889-0.603,3.814-1.222,5.821-1.134c0.364,0.016,0.585,0.452,0.654,0.755c0.826,3.606-3.061,5.09-5.885,5.678
					c-3.048,0.635-6.397,0.787-9.474,0.254c-1.841-0.319-3.616-1.206-5.248-2.083c-2.08-1.117-4.015-2.488-5.836-3.986
					c-2.308-1.898-4.432-3.991-6.526-6.117c-0.368,14.364,12,18.539,20.846,18.086c8.867-0.455,15.965,0.413,26.248-12.043
					c0.339-0.54,0.679-1.08,1.01-1.625c1.71-2.814,2.943-5.817,4.178-8.858c1.14-2.807,2.376-5.563,3.423-8.408
					c0.515-1.401,1.005-2.811,1.476-4.228c0.458-1.377,0.833-2.781,1.307-4.152c0.822-2.375,1.935-4.622,3.654-6.474
					C181.431,122.129,183.462,120.303,182.913,118.23z"/>
			</g>
			<path style="fill:#660F08;" d="M109.541,117.866c0,0,13.548,19.193,27.902,10c5,9.354,29.192,8.387,42.417-4.516
				c0,0-2.258,8.548-14.677,18.709c-12.741,10.806-15.322,17.741-28.87,15.967c-13.548-1.774-9.677-11.774-16.773-20.483
				C112.445,128.833,109.541,117.866,109.541,117.866z"/>
			<path style="opacity:0.55;fill:#660F08;" d="M167,138.43c-1.871-0.1-3.746-0.108-5.618-0.041c-1.945,0.069-3.871,0.287-5.81,0.42
				c-4.887,0.335-9.713,0.007-14.451-1.272c-2.127-0.574-4.166-1.403-6.278-2.017c-1.443-0.419-2.934-0.67-4.431-0.798
				c-3.173-0.273-6.375,0.022-9.441,0.882c-0.78,0.219-1.559,0.486-2.321,0.799c0.291,0.383,0.586,0.764,0.892,1.139
				c7.096,8.709,3.226,18.709,16.773,20.483c13.548,1.774,16.128-5.161,28.87-15.967c1.446-1.183,2.749-2.343,3.932-3.472
				C168.409,138.521,167.703,138.467,167,138.43z"/>
			<path style="fill:#2D110B;" d="M190.351,21.519c-0.062-0.286-0.6,0.235-0.587,0.435c0.108,1.62,0.198,3.226-0.005,4.843
				c-0.196,1.566-0.567,3.106-1.04,4.611c-0.858,2.726-2.066,5.325-3.313,7.893c-0.76-3.079-1.941-5.921-3.7-8.592
				c-1.782-2.704-3.729-5.357-6.075-7.603c-4.13-3.953-9.485-6.558-15.089-7.611c-3.181-0.597-6.428-0.675-9.622-0.144
				c-0.075,0.013-0.231,0.237-0.111,0.225c5.701-0.612,11.5,0.327,16.657,2.855c2.53,1.24,4.89,2.85,6.97,4.751
				c2.365,2.162,4.299,4.738,6.078,7.389c1.027,1.531,1.983,3.108,2.701,4.81c0.718,1.701,1.237,3.475,1.642,5.273
				c0.086,0.383,0.647-0.231,0.702-0.343c1.45-2.98,2.869-5.992,3.853-9.163C190.347,28.137,191.033,24.651,190.351,21.519z"/>
			<g>
				<g>
					<path style="fill:#F797A3;" d="M142.065,143.055c-8.371-7.431-16.405-4.618-20.394-2.334
						c4.285,7.815,2.724,15.743,14.644,17.304c12.251,1.604,15.535-3.914,25.472-12.975
						C158.137,141.045,150.852,139.342,142.065,143.055z"/>
					<path style="fill:#C44D61;" d="M140.285,158.548c-1.226,0-2.551-0.093-4.002-0.282c-8.814-1.155-10.405-5.796-12.246-11.171
						c-0.697-2.036-1.419-4.142-2.578-6.258c-0.064-0.116-0.023-0.262,0.092-0.327c4.07-2.331,12.139-5.124,20.56,2.262
						c6.033-2.508,14.794-3.44,19.855,2.114c0.09,0.099,0.083,0.252-0.016,0.342c-1.507,1.375-2.834,2.642-4.118,3.867
						C151.695,154.956,147.932,158.547,140.285,158.548z M121.997,140.815c1.113,2.081,1.817,4.135,2.499,6.123
						c1.862,5.437,3.334,9.732,11.849,10.847c10.279,1.345,14.139-2.344,21.152-9.039c1.233-1.178,2.508-2.395,3.945-3.71
						c-4.954-5.211-13.458-4.22-19.283-1.758c-0.085,0.036-0.185,0.02-0.256-0.042C133.81,136.051,126.037,138.565,121.997,140.815z
						"/>
				</g>
			</g>
			<g>
				<path style="fill:#F797A3;" d="M142.065,143.055c-0.913-0.81-1.821-1.492-2.72-2.072c1.012,3.923-2.209,7.751-1.928,11.695
					c0.066-0.264,0.128-0.528,0.212-0.787c0.968-2.982,3.135-4.923,5.657-6.637c1.741-1.184,3.506-2.266,5.591-2.744
					c1.975-0.452,4.042-0.097,4.674,2.091c0.696,2.411-0.418,4.838-2.068,6.565c-1.872,1.96-4.388,3.321-6.906,4.261
					c-2.294,0.857-4.857,1.499-7.324,1.292c-2.664-0.224-5.226-1.498-7.383-3.011c-1.718-1.205-3.256-2.651-4.703-4.176
					c1.625,4.219,3.879,7.542,11.15,8.493c12.251,1.604,15.535-3.914,25.472-12.975
					C158.137,141.045,150.852,139.342,142.065,143.055z"/>
			</g>
			<g>
				<path style="fill:#571B09;" d="M110.834,120.324c-2.604-5.391-5.101-11.361-3.564-17.417c0.208-0.017,0.418-0.013,0.624,0.029
					c0.634,0.13,1.167,0.51,1.787,0.677c0.232,0.062,0.672-0.423,0.471-0.626c-0.517-0.523-1.309-0.839-2.041-0.896
					c-0.67-0.052-1.318,0.166-1.868,0.544c-1.223,0.841-1.781,2.179-2.159,3.562c-0.028,0.103,0.037,0.121,0.12,0.104
					c0.102-0.021,0.185-0.163,0.218-0.251c0.397-1.073,0.891-2.302,1.948-2.882c0.197-0.108,0.411-0.179,0.629-0.224
					c-1.905,6.081,0.327,12.482,3.306,17.839C110.445,121.035,110.939,120.54,110.834,120.324z"/>
				<path style="fill:#571B09;" d="M188.581,120.859c-0.596-1.889-1.512-3.94-3.353-4.912c-1.934-1.022-4.149-0.104-6.151,0.192
					c-0.141,0.021-0.513,0.49-0.282,0.507c1.88,0.141,3.817-0.848,5.614-0.006c-0.943,1.614-1.872,3.207-3.052,4.674
					c-1.27,1.58-2.724,3.021-4.273,4.327c-0.206,0.174-0.313,0.772,0.088,0.487c1.758-1.247,3.297-2.733,4.628-4.429
					c1.156-1.474,2.239-3.13,2.942-4.891c1.697,1.021,2.342,2.966,3.084,4.692C187.997,121.899,188.686,121.193,188.581,120.859z"/>
				<path style="fill:#571B09;" d="M139.174,163.169c-2.816,0.817-5.653,0.791-8.431-0.178c-2.791-0.973-5.264-2.721-7.218-4.926
					c-4.217-4.757-6.24-11.122-8.135-17.069c-1.227-3.851-2.3-7.816-2.537-11.868c-0.008-0.13-0.225,0.066-0.224,0.152
					c0.04,3.728,0.692,7.391,1.689,10.976c0.917,3.294,1.961,6.575,3.254,9.741c2.332,5.708,5.914,11.173,11.827,13.596
					c3.003,1.231,6.615,1.636,9.625,0.213C139.239,163.705,139.651,163.03,139.174,163.169z"/>
				<path style="fill:#C44D61;" d="M146,141.771c-2.507-0.37-4.927,1.65-6.268,3.568c-1.716,2.453-2.184,5.567-2.229,8.494
					c-0.004,0.247,0.396-0.115,0.411-0.267c0.262-2.623,0.645-5.374,2.081-7.647c0.602-0.953,1.4-1.788,2.348-2.402
					c1.015-0.658,2.153-0.968,3.336-1.162C145.832,142.329,146.287,141.813,146,141.771z"/>
				<path style="fill:#571B09;" d="M177.452,127.697c-1.789,4.13-3.575,8.252-5.26,12.426c-1.643,4.068-3.274,8.142-4.931,12.205
					c-0.869,2.131-1.796,4.25-3.026,6.201c-0.383,0.608,0.325,0.59,0.62,0.165c2.371-3.423,3.684-7.525,5.22-11.363
					c1.67-4.174,3.339-8.348,4.987-12.531c0.938-2.38,1.772-4.793,2.661-7.19C177.797,127.413,177.491,127.607,177.452,127.697z"/>
				<path style="fill:#571B09;" d="M138.822,120.771c0.113-0.255-0.201-0.071-0.266,0.048c-0.627,1.153-1.265,2.309-1.511,3.613
					c-0.212,1.12-0.196,2.402,0.463,3.374c0.198,0.292,0.443,0.54,0.324,0.281c-0.477-1.028-0.338-2.941-0.132-4.059
					C137.907,122.898,138.359,121.816,138.822,120.771z"/>
			</g>
			<g>
				<g>
					<path style="fill:#6D3721;" d="M128.859,110.367c0,0-6.341-0.309-5.731-8.178c0.61-7.868,6.545-11.192,19.841-9.441
						c13.739,1.81,17.348,7.479,16.886,13.848c-0.462,6.368-6.957,7.436-7.732,7.474c-1.292,5.289-7.351,8.45-14.207,6.674
						C131.059,118.968,128.501,114.366,128.859,110.367z"/>
					<path style="fill:#571B09;" d="M142.384,121.602c-1.457,0.072-2.989-0.08-4.542-0.482c-7.171-1.858-9.504-6.675-9.351-10.406
						c-0.806-0.118-2.793-0.585-4.217-2.401c-1.188-1.513-1.688-3.586-1.488-6.161c0.237-3.061,1.285-5.458,3.116-7.125
						c3.171-2.888,8.766-3.758,17.105-2.66c11.98,1.578,17.764,6.378,17.192,14.266c-0.428,5.904-5.928,7.592-7.81,7.803
						C151.226,118.655,147.22,121.363,142.384,121.602z M135.113,92.713c-3.953,0.195-6.851,1.162-8.774,2.914
						c-1.706,1.553-2.644,3.713-2.868,6.601c-0.182,2.356,0.26,4.233,1.317,5.58c1.593,2.03,4.057,2.173,4.082,2.174
						c0.094,0.005,0.184,0.053,0.247,0.135c0.063,0.081,0.094,0.187,0.083,0.293c-0.309,3.463,1.807,8.15,8.789,9.959
						c6.454,1.672,12.516-1.14,13.802-6.404c0.039-0.159,0.165-0.272,0.313-0.279c0.069-0.003,6.944-0.74,7.409-7.124
						c0.543-7.495-4.88-11.888-16.58-13.429C139.972,92.742,137.37,92.602,135.113,92.713z"/>
				</g>
				<g style="opacity:0.49;">
					<path style="fill:#6D3721;" d="M142.969,92.749c-0.468-0.062-0.907-0.103-1.357-0.152c4.415,1.034,8.241,2.61,8.767,5.001
						c1.322,6.009-9.743,6.916-18.832,6.709c19.836,2.598,16.256,15.253,9.561,16.076c-3.505,0.431-7.367-1.685-10.26-3.799
						c1.462,1.787,3.761,3.303,7.068,4.16c6.857,1.776,12.915-1.384,14.207-6.674c0.775-0.038,7.27-1.106,7.732-7.474
						C160.317,100.228,156.708,94.559,142.969,92.749z"/>
				</g>
				<path style="opacity:0.52;fill:#571B09;" d="M155.516,110.966c0.083,1.686-1.631,3.141-3.829,3.249
					c-2.198,0.109-4.047-1.17-4.13-2.856c-0.083-1.686,1.631-3.141,3.829-3.249C153.583,108.001,155.433,109.28,155.516,110.966z"/>
				<g>
					<path style="opacity:0.52;fill:#571B09;" d="M151.251,111.347c1.624-0.08,2.979-0.898,3.545-1.999
						c-0.75-0.808-2.006-1.308-3.41-1.239c-1.624,0.08-2.979,0.898-3.545,1.999C148.59,110.916,149.846,111.416,151.251,111.347z"/>
					<path style="opacity:0.52;fill:#571B09;" d="M151.251,111.347c1.624-0.08,2.979-0.898,3.545-1.999
						c-0.75-0.808-2.006-1.308-3.41-1.239c-1.624,0.08-2.979,0.898-3.545,1.999C148.59,110.916,149.846,111.416,151.251,111.347z"/>
				</g>
				<path style="opacity:0.52;fill:#571B09;" d="M132.204,110.415c-1.005,1.245-3.148,0.904-4.789-0.762
					c-1.64-1.666-2.156-4.025-1.151-5.27c1.004-1.245,3.148-0.903,4.789,0.762C132.693,106.811,133.208,109.17,132.204,110.415z"/>
				<g>
					<path style="opacity:0.52;fill:#571B09;" d="M131.053,105.145c-0.996-1.011-2.175-1.526-3.174-1.502
						c-0.408,1.304,0.164,3.149,1.521,4.528c0.996,1.011,2.175,1.526,3.174,1.502C132.981,108.369,132.41,106.524,131.053,105.145z"
						/>
					<path style="opacity:0.52;fill:#571B09;" d="M131.053,105.145c-0.996-1.011-2.175-1.526-3.174-1.502
						c-0.408,1.304,0.164,3.149,1.521,4.528c0.996,1.011,2.175,1.526,3.174,1.502C132.981,108.369,132.41,106.524,131.053,105.145z"
						/>
				</g>
				<path style="fill:#6D3721;" d="M125.159,102.905c0,0,1.042-7.833,17.559-8.191C133.567,91.275,123.735,94.736,125.159,102.905z"
					/>
			</g>
			<path style="fill:#99582B;" d="M140.286,158.548c-1.227,0-2.551-0.092-4.003-0.282c-8.812-1.155-10.402-5.794-12.242-11.168
				c-1.011-2.951-2.157-6.296-4.687-9.403c-7.049-8.65-10.017-19.657-10.046-19.768c-0.03-0.114,0.025-0.232,0.132-0.282
				c0.104-0.049,0.232-0.017,0.3,0.08c0.134,0.189,13.574,18.899,27.573,9.935c0.058-0.036,0.126-0.049,0.192-0.03
				c0.065,0.017,0.12,0.061,0.153,0.12c1.565,2.928,5.191,4.969,10.21,5.745c8.827,1.365,22.558-1.281,31.823-10.321
				c0.078-0.076,0.198-0.091,0.292-0.036c0.094,0.055,0.14,0.166,0.113,0.271c-0.024,0.086-2.42,8.741-14.758,18.834
				c-2.962,2.512-5.378,4.819-7.509,6.854C151.693,154.957,147.931,158.548,140.286,158.548z M110.149,119.05
				c0.988,3.115,3.989,11.479,9.58,18.34c2.586,3.173,3.746,6.562,4.77,9.551c1.862,5.436,3.333,9.729,11.846,10.844
				c10.27,1.342,14.136-2.342,21.148-9.036c2.136-2.04,4.557-4.351,7.534-6.875c9.874-8.079,13.312-15.195,14.276-17.664
				c-9.363,8.603-22.785,11.115-31.511,9.766c-5.043-0.78-8.736-2.824-10.436-5.768C125.048,135.849,113.277,122.924,110.149,119.05
				z"/>
		</g>
		<path style="fill:#F797A3;" d="M133.142,140.553c0,0.475-1.155,0.86-2.581,0.86c-1.425,0-2.58-0.385-2.58-0.86
			c0-0.475,1.155-0.86,2.58-0.86C131.987,139.693,133.142,140.078,133.142,140.553z"/>
	</g>
	<path style="fill:#4C261C;" d="M171.039,13.258c0,0,16.296,1.189,16.716,13.289C188.804,16.265,183.139,12.628,171.039,13.258z"/>
	<path style="fill:#4C261C;" d="M58.978,209.21c0,0-18.615-8.448-18.472,21.049C37.786,214.651,43.656,200.332,58.978,209.21z"/>
	<path style="fill:#ECCEB0;" d="M220.457,273.386c0,0,10.457,1.046,11.677,11.154C235.968,278.092,226.034,271.818,220.457,273.386z
		"/>
	<path style="fill:#ECCEB0;" d="M138.222,298.139c0,0,10.134,2.782,9.644,12.952C152.726,305.376,143.983,297.527,138.222,298.139z"
		/>
	<path style="fill:#ECCEB0;" d="M126.176,300.588c0,0,9.176,5.123,6.27,14.881C138.531,311.08,131.916,301.37,126.176,300.588z"/>
	<path style="fill:#ECCEB0;" d="M103.329,301.438c0,0,6.808,3.943,4.156,12.343C112.339,309.795,107.694,301.85,103.329,301.438z"/>
	<path style="fill:#ECCEB0;" d="M29.31,267.151c0,0-6.808,3.943-4.156,12.343C20.3,275.508,24.945,267.563,29.31,267.151z"/>
	<path style="fill:#ECCEB0;" d="M48.559,272.207c0,0-6.808,3.943-4.156,12.343C39.549,280.564,44.194,272.619,48.559,272.207z"/>
	<path style="fill:#ECCEB0;" d="M24.005,260.689c0,0-8.289,2.629-7.433,12.327C12.286,267.556,19.197,260.092,24.005,260.689z"/>
	<path style="fill:#ECCEB0;" d="M212.259,277.982c0,0,10.457,1.046,11.677,11.154C227.77,282.688,217.836,276.414,212.259,277.982z"
		/>
	<path style="fill:#ECCEB0;" d="M197.949,283.5c0,0,8.427,0.843,9.411,8.989C210.45,287.293,202.444,282.236,197.949,283.5z"/>
</g>
</svg>
