<?xml version="1.0" encoding="UTF-8" standalone="no"?>
<!-- Created with Inkscape (http://www.inkscape.org/) -->

<svg
   width="49.273876mm"
   height="32.397442mm"
   viewBox="0 0 49.273876 32.397442"
   version="1.1"
   id="svg1"
   xml:space="preserve"
   xmlns="http://www.w3.org/2000/svg"
   xmlns:svg="http://www.w3.org/2000/svg"><defs
     id="defs1" /><g
     id="layer1"
     transform="translate(43.260576,-602.21171)"><g
       id="TAXI"
       transform="matrix(0.26458333,0,0,0.26458333,-106.12187,591.66539)">
	<g
   id="g511">
		<g
   id="g499">
			<g
   id="g482">
				<rect
   x="327.009"
   y="39.860001"
   style="fill:#012e48"
   width="40.433998"
   height="18.379999"
   id="rect481" />
				<rect
   x="328.66101"
   y="41.513"
   style="fill:#ffc53b"
   width="37.129002"
   height="15.074"
   id="rect482" />
				<path
   style="fill:#012e48"
   d="m 339.921,44.879 v -0.875 c 0,-0.155 -0.125,-0.279 -0.28,-0.279 h -9.391 c -0.155,0 -0.28,0.125 -0.28,0.279 v 0.875 c 0,0.154 0.124,0.279 0.28,0.279 h 3.579 v 6.811 c 0,0.154 0.125,0.28 0.28,0.28 h 1.656 c 0.154,0 0.28,-0.125 0.28,-0.28 v -6.811 h 3.597 c 0.154,0 0.279,-0.125 0.279,-0.279 z m 5.291,-1.008 c -0.049,-0.09 -0.143,-0.146 -0.245,-0.146 h -1.977 c -0.103,0 -0.196,0.056 -0.246,0.146 l -4.311,7.964 c -0.046,0.087 -0.044,0.191 0.006,0.275 0.051,0.085 0.142,0.137 0.24,0.137 h 1.694 c 0.104,0 0.199,-0.058 0.247,-0.149 l 1.24,-2.355 h 4.163 l 1.276,2.358 c 0.048,0.09 0.144,0.146 0.246,0.146 h 1.751 c 0.098,0 0.189,-0.052 0.24,-0.137 0.05,-0.084 0.052,-0.189 0.005,-0.275 z m -2.715,4.509 1.024,-1.898 c 0.139,-0.275 0.273,-0.563 0.41,-0.882 0.123,0.287 0.26,0.585 0.432,0.901 l 1.018,1.879 z m 13.681,-0.497 3.665,-3.681 c 0.08,-0.082 0.104,-0.201 0.06,-0.305 -0.043,-0.104 -0.145,-0.172 -0.258,-0.172 h -1.883 c -0.078,0 -0.152,0.033 -0.205,0.089 l -1.73,1.868 c -0.377,0.406 -0.673,0.738 -0.977,1.122 -0.287,-0.346 -0.597,-0.693 -0.982,-1.119 l -1.675,-1.868 c -0.053,-0.058 -0.128,-0.092 -0.208,-0.092 h -1.9 c -0.112,0 -0.213,0.067 -0.257,0.169 -0.044,0.102 -0.023,0.221 0.054,0.302 l 3.543,3.741 -3.692,3.837 c -0.078,0.081 -0.1,0.2 -0.056,0.303 0.043,0.104 0.145,0.171 0.257,0.171 h 1.882 c 0.081,0 0.157,-0.036 0.211,-0.096 l 1.517,-1.74 c 0.562,-0.594 0.902,-0.988 1.2,-1.361 0.359,0.405 0.753,0.816 1.271,1.346 l 1.619,1.761 c 0.053,0.057 0.127,0.09 0.206,0.09 h 1.9 c 0.113,0 0.213,-0.068 0.258,-0.171 0.043,-0.103 0.021,-0.222 -0.057,-0.303 z m 7.098,-4.158 h -1.638 c -0.155,0 -0.28,0.125 -0.28,0.279 v 7.964 c 0,0.154 0.125,0.28 0.28,0.28 h 1.638 c 0.154,0 0.279,-0.125 0.279,-0.28 v -7.964 c 0,-0.154 -0.125,-0.279 -0.279,-0.279 z"
   id="path482" />
			</g>
			<g
   id="g484">
				
					<linearGradient
   id="SVGID_00000157280465551837794850000011046933811850911678_"
   gradientUnits="userSpaceOnUse"
   x1="332.94141"
   y1="136.8082"
   x2="332.94141"
   y2="142.96181">
					<stop
   offset="0"
   style="stop-color:#A6A6B0"
   id="stop482" />
					<stop
   offset="0.9947"
   style="stop-color:#7B7B8A"
   id="stop483" />
				</linearGradient>
				<path
   style="fill:url(#SVGID_00000157280465551837794850000011046933811850911678_)"
   d="m 419.176,145.541 -172.47,-0.001 c -1.794,0 -3.261,-1.468 -3.261,-3.261 v -3.02 c 0,-1.793 1.467,-3.26 3.261,-3.26 h 172.47 c 1.793,0 3.262,1.467 3.262,3.261 v 3.019 c 0,1.793 -1.469,3.262 -3.262,3.262 z"
   id="path483" />
				<path
   style="fill:#646476"
   d="m 250.443,145.54 164.996,0.001 c 2.575,0 4.832,-0.784 6.047,-1.941 h -177.09 c 1.216,1.156 3.473,1.94 6.047,1.94 z"
   id="path484" />
			</g>
			<g
   id="g498">
				<path
   style="fill:#ffc53b"
   d="M 418.375,137.359 H 245.751 c 0,0 -8.165,-3.499 -8.165,-20.606 0,-17.107 11.275,-20.217 19.44,-20.217 8.165,0 24.883,0 24.883,0 0,0 6.22,0.777 13.607,-12.053 7.387,-12.83 18.662,-29.937 50.932,-29.937 32.27,0 40.823,15.163 44.711,20.606 3.888,5.443 8.553,20.995 15.94,20.995 7.387,0 16.718,2.721 16.718,11.664 0,8.942 0,20.605 0,20.605 0,0 0,8.943 -5.442,8.943 z"
   id="path485" />
				<path
   style="fill:#ffe153"
   d="m 419.406,99.355 c -3.379,-2.347 -8.15,-3.208 -12.307,-3.208 -7.387,0 -12.053,-15.551 -15.94,-20.995 -3.888,-5.443 -12.441,-20.606 -44.711,-20.606 -32.27,0 -43.545,17.106 -50.932,29.937 -7.388,12.83 -13.607,12.053 -13.607,12.053 0,0 -16.718,0 -24.883,0 -2.548,0 -5.398,0.303 -8.115,1.24 l 1.116,1.579 z"
   id="path486" />
				<g
   id="g488">
					<path
   style="fill:#012e48"
   d="m 247.139,105.682 c 3.058,-2.432 4.564,-5.863 4.011,-8.534 -0.411,0.092 -0.821,0.196 -1.23,0.313 0.61,2.301 -0.675,5.35 -3.364,7.488 -2.376,1.891 -5.196,2.546 -7.274,1.907 -0.15,0.371 -0.292,0.754 -0.424,1.15 2.413,0.616 5.59,-0.183 8.281,-2.324 z"
   id="path487" />
					<path
   style="fill:#ffff3e"
   d="m 239.282,106.856 c 2.078,0.64 4.897,-0.016 7.274,-1.907 2.689,-2.139 3.974,-5.188 3.364,-7.488 -4.313,1.235 -8.421,3.941 -10.638,9.395 z"
   id="path488" />
				</g>
				<g
   id="g490">
					<path
   style="fill:#012e48"
   d="m 417.602,103.227 c -2.002,-1.719 -2.84,-4.13 -2.152,-5.809 -0.3,-0.101 -0.601,-0.194 -0.907,-0.282 -0.651,1.961 0.347,4.663 2.616,6.61 2.074,1.78 4.611,2.416 6.436,1.792 -0.063,-0.311 -0.14,-0.611 -0.228,-0.902 -1.565,0.71 -3.888,0.202 -5.765,-1.409 z"
   id="path489" />
					<path
   style="fill:#ff0000"
   d="m 417.602,103.227 c 1.878,1.611 4.2,2.119 5.766,1.408 -1.126,-3.719 -4.243,-5.976 -7.918,-7.217 -0.688,1.679 0.15,4.09 2.152,5.809 z"
   id="path490" />
				</g>
				<path
   style="fill:#da852a"
   d="m 245.751,137.359 h 172.624 c 1.994,0 3.254,-1.201 4.055,-2.722 H 335.757 V 67.571 c 0,-0.751 -1.165,-0.752 -1.165,0 v 67.066 l -92.048,-0.001 c 1.71,2.077 3.207,2.723 3.207,2.723 z"
   id="path491" />
				<g
   id="g493">
					<path
   style="fill:#ffffff"
   d="m 423.817,116.525 v -5.859 h -6.454 v 5.859 h -6.535 v 6.085 h 6.676 v 0 0 -6.085 z m -113.272,0 h -6.535 v 6.085 h 6.675 v 0 0 -6.085 h 6.536 v -5.859 h -6.676 z m -13.352,0 h -6.535 v 6.085 h 6.677 v 0 0 -6.085 h 6.535 v -5.859 h -6.676 v 5.859 z m -13.352,0 h -6.535 v 6.085 h 6.676 v -5.86 -0.225 h 6.535 v -5.859 h -6.676 z m 40.056,0 h -6.535 v 6.085 h 6.676 v 0 0 -6.085 h 6.536 v -5.859 h -6.676 v 5.859 z m -53.409,0 h -6.535 v 6.085 h 6.676 v -6.085 h 6.536 v -5.859 h -6.677 z m -26.704,0 h -6.192 c -0.001,0.077 -0.005,0.148 -0.005,0.225 0,0.001 0,0.002 0,0.003 0,2.163 0.132,4.108 0.359,5.856 h 5.98 v -6.085 h 6.534 v -5.859 h -6.676 z m 13.352,0 h -6.535 v 6.085 h 6.676 v -6.085 h 6.536 v -5.859 h -6.677 z m 120.171,0 h -6.535 v 0.225 5.86 l 6.676,0.001 v -6.085 l 6.536,0.001 v -5.859 h -6.676 v 5.857 z m 13.352,0 h -6.535 v 6.085 h 6.676 v -6.085 h 6.536 v -5.859 h -6.676 v 5.859 z m 13.353,0 h -6.535 v 6.085 h 6.675 v -0.001 0 -6.084 h 6.536 v -5.859 h -6.676 z m -40.057,0 h -6.536 v 6.085 h 6.676 v -6.085 h 6.536 v -5.859 h -6.676 z m -26.705,0 h -6.535 v 6.085 h 6.676 v -6.085 h 6.535 v -5.859 h -6.676 z m 20.028,0 v -5.859 h -6.676 v 5.859 h -6.535 v 6.085 h 6.677 v -5.86 -0.225 z"
   id="path492" />
					<path
   style="fill:#231f20"
   d="m 330.574,116.525 h -6.536 v 6.085 h 6.677 v -5.86 0 -0.225 h 6.535 v -5.859 h -6.676 z m 66.761,0 H 390.8 v 6.085 0 l 6.677,-0.001 v -5.86 0 -0.225 h 6.535 v -5.859 h -6.676 v 5.86 z m -53.409,0 h -6.535 v 6.085 h 6.676 v -5.86 0 -0.225 h 6.535 v -5.859 h -6.676 z m 40.057,0 -6.536,-0.001 v 6.085 h 6.677 v -5.86 0 -0.225 h 6.535 v -5.859 h -6.676 z m -120.17,0 h -6.536 v 6.085 h 6.676 v -5.86 0 -0.225 h 6.535 v -5.859 h -6.676 v 5.859 z m 26.704,0 h -6.535 v 0.225 5.86 h 6.676 v -6.085 h 6.535 v -5.859 h -6.676 z m 13.352,0 h -6.535 v 6.085 h 6.675 v -5.86 0 -0.225 h 6.535 v -5.859 h -6.676 v 5.859 z m 66.761,0 h -6.536 v 6.085 h 6.677 v -6.085 h 6.535 v -5.859 h -6.676 z m -13.352,0 h -6.534 v 0.225 5.86 h 6.675 v -6.085 h 6.536 v -5.859 h -6.677 z m -80.113,-5.859 v 5.859 h -6.536 v 6.085 h 6.676 v -5.86 0 -0.225 h 6.535 v -5.859 z m 133.523,5.859 h -6.536 v 6.084 h 6.677 v -5.859 0 -0.225 h 6.535 v -5.859 h -6.676 z m -160.228,0 h -6.534 v 6.085 h 6.675 v -5.86 h 0.001 v -0.225 h 6.535 v -5.859 h -6.676 v 5.859 z m 66.761,0 h -6.536 v 6.085 h 6.677 v -5.86 0 -0.225 h 6.535 v -5.859 h -6.676 z m -79.63,0 h 6.192 v -5.859 h -5.63 c -0.351,1.739 -0.548,3.684 -0.562,5.859 z m 179.913,0 v 6.085 h 6.314 v -6.085 z"
   id="path493" />
				</g>
				<path
   style="fill:#012e48"
   d="m 346.448,54.546 c -19.153,0 -30.909,6.026 -38.848,13.607 h 78.146 C 379.833,61.861 368.863,54.546 346.448,54.546 Z"
   id="path494" />
				<path
   style="fill:#012e48"
   d="m 339.839,96.536 h 31.103 V 70.876 H 339.839 Z M 303.542,72.528 c -3.31,3.991 -5.84,8.16 -8.025,11.955 -3.423,5.945 -6.593,8.964 -9.012,10.497 -1.963,1.245 -3.432,1.51 -4.134,1.556 h 48.137 v -25.66 h -25.54 c -0.491,0.546 -0.965,1.097 -1.426,1.652 z M 388.826,85.26 C 384.16,75.54 385.327,70.875 375.218,70.875 h -0.389 v 25.66 h 24.882 c 10e-4,0.001 -6.219,-1.554 -10.885,-11.275 z"
   id="path495" />
				
					<linearGradient
   id="SVGID_00000154425633755652736760000016630876455470562978_"
   gradientUnits="userSpaceOnUse"
   x1="66.498497"
   y1="83.753998"
   x2="493.09619"
   y2="83.753998">
					<stop
   offset="0"
   style="stop-color:#54FFFF"
   id="stop495" />
					<stop
   offset="1"
   style="stop-color:#00E1FF"
   id="stop496" />
				</linearGradient>
				<path
   style="fill:url(#SVGID_00000154425633755652736760000016630876455470562978_)"
   d="m 295.517,84.483 c -3.423,5.945 -6.593,8.964 -9.012,10.497 h 25.049 l -0.025,-0.097 h 17.325 V 72.528 h -25.312 c -3.31,3.991 -5.84,8.16 -8.025,11.955 z m 45.975,10.4 h 27.797 V 72.528 h -27.797 z m 45.844,-8.906 c -1.091,-2.272 -1.857,-4.24 -2.533,-5.978 -2.031,-5.213 -2.804,-7.202 -8.32,-7.444 v 22.329 h 17.342 c -2.081,-1.83 -4.439,-4.638 -6.489,-8.907 z"
   id="path496" />
				<path
   style="fill:#012e48"
   d="m 304.343,90.854 c -1.938,-2.409 -5.297,-4.015 -8.389,-2.91 -1.272,0.455 -1.034,2.221 -0.034,2.501 -1.587,1.478 -3.174,2.957 -4.762,4.435 -0.482,0.449 0.242,1.17 0.723,0.722 1.942,-1.808 3.883,-3.616 5.825,-5.424 1.892,-0.158 3.644,1.007 4.831,2.482 1.03,1.281 2.827,-0.536 1.806,-1.806 z"
   id="path497" />
				<path
   style="fill:#012e48"
   d="m 324.069,98.803 c -2.403,-0.024 -4.351,1.259 -4.351,2.867 l 8.7,0.089 c 10e-4,-1.609 -1.946,-2.931 -4.349,-2.956 z"
   id="path498" />
			</g>
		</g>
		<g
   id="g503">
			<path
   style="fill:#012e48"
   d="m 299.93,145.748 c 0,9.145 -7.415,16.559 -16.56,16.559 -9.146,0 -16.56,-7.414 -16.56,-16.56 0,-9.145 7.414,-16.559 16.56,-16.559 9.146,0.001 16.56,7.415 16.56,16.56 z"
   id="path499" />
			
				<linearGradient
   id="SVGID_00000110461525632031277340000010407898486618885261_"
   gradientUnits="userSpaceOnUse"
   x1="283.37039"
   y1="134.09531"
   x2="283.37039"
   y2="129.6525">
				<stop
   offset="0"
   style="stop-color:#012E48"
   id="stop499" />
				<stop
   offset="1"
   style="stop-color:#6F8998"
   id="stop500" />
			</linearGradient>
			<path
   style="fill:url(#SVGID_00000110461525632031277340000010407898486618885261_)"
   d="m 289.616,132.889 c 0,1.478 -2.796,0.384 -6.246,0.384 -3.449,0 -6.245,1.094 -6.245,-0.384 0,-1.477 2.796,-2.675 6.245,-2.675 3.449,-0.001 6.246,1.197 6.246,2.675 z"
   id="path500" />
			<path
   style="fill:#231f20"
   d="m 292.422,145.748 c 0,4.999 -4.053,9.052 -9.052,9.052 -5,0 -9.052,-4.053 -9.052,-9.053 0,-4.999 4.053,-9.052 9.052,-9.052 5,0.001 9.052,4.054 9.052,9.053 z"
   id="path501" />
			<path
   style="fill:#87d1f4"
   d="m 290.643,145.748 c 0,4.017 -3.257,7.273 -7.273,7.273 -4.017,0 -7.273,-3.256 -7.273,-7.273 0,-4.017 3.256,-7.273 7.273,-7.273 4.017,0 7.273,3.257 7.273,7.273 z"
   id="path502" />
			<path
   style="fill:#231f20"
   d="m 286.724,145.748 c 0,1.852 -1.502,3.352 -3.353,3.352 -1.852,0 -3.353,-1.501 -3.353,-3.352 0,-1.852 1.501,-3.353 3.353,-3.353 1.851,0 3.353,1.501 3.353,3.353 z"
   id="path503" />
		</g>
		<g
   id="g508">
			<path
   style="fill:#012e48"
   d="m 408.402,145.748 c 0,9.145 -7.414,16.56 -16.559,16.559 -9.146,0 -16.56,-7.414 -16.56,-16.56 0,-9.145 7.414,-16.559 16.56,-16.559 9.145,0.001 16.559,7.415 16.559,16.56 z"
   id="path504" />
			
				<linearGradient
   id="SVGID_00000149377901902745578410000002756518322975350934_"
   gradientUnits="userSpaceOnUse"
   x1="391.84299"
   y1="134.09531"
   x2="391.84299"
   y2="129.6523">
				<stop
   offset="0"
   style="stop-color:#012E48"
   id="stop504" />
				<stop
   offset="1"
   style="stop-color:#6F8998"
   id="stop505" />
			</linearGradient>
			<path
   style="fill:url(#SVGID_00000149377901902745578410000002756518322975350934_)"
   d="m 398.088,132.889 c 0,1.478 -2.796,0.384 -6.245,0.384 -3.45,0 -6.246,1.094 -6.246,-0.384 0,-1.477 2.796,-2.675 6.246,-2.675 3.45,-0.001 6.245,1.197 6.245,2.675 z"
   id="path505" />
			<path
   style="fill:#231f20"
   d="m 400.895,145.748 c 0,4.999 -4.053,9.052 -9.052,9.052 -5,0 -9.052,-4.053 -9.052,-9.052 0,-4.999 4.052,-9.052 9.052,-9.052 4.999,0 9.052,4.053 9.052,9.052 z"
   id="path506" />
			<path
   style="fill:#87d1f4"
   d="m 399.116,145.748 c 0,4.017 -3.256,7.273 -7.273,7.273 -4.017,0 -7.273,-3.256 -7.273,-7.273 0.001,-4.017 3.256,-7.273 7.273,-7.273 4.017,0.001 7.273,3.257 7.273,7.273 z"
   id="path507" />
			<path
   style="fill:#231f20"
   d="m 395.196,145.748 c 0,1.852 -1.501,3.354 -3.353,3.354 -1.852,-0.001 -3.353,-1.501 -3.353,-3.354 0,-1.852 1.501,-3.353 3.353,-3.353 1.852,10e-4 3.353,1.501 3.353,3.353 z"
   id="path508" />
		</g>
		<g
   id="g510">
			<path
   style="fill:#da852a"
   d="m 285.923,89.884 c -2.677,0 -4.846,2.671 -4.846,5.965 0,3.294 2.169,5.966 4.846,5.966 0.109,0 0.215,-0.012 0.322,-0.021 v -11.89 c -0.106,-0.009 -0.213,-0.02 -0.322,-0.02 z"
   id="path509" />
			<path
   style="fill:#012e48"
   d="m 287.457,101.794 c 0,-3.97 0,-7.94 0,-11.91 0,-1.028 -2.423,-1.03 -2.423,0 0,3.97 0,7.941 0,11.91 0.001,1.029 2.423,1.03 2.423,0 z"
   id="path510" />
		</g>
	</g>
</g></g></svg>
