<?xml version="1.0" encoding="UTF-8" standalone="no"?>
<!-- Created with Inkscape (http://www.inkscape.org/) -->

<svg
   width="37.962215mm"
   height="48.289528mm"
   viewBox="0 0 37.962215 48.289528"
   version="1.1"
   id="svg1"
   xml:space="preserve"
   xmlns="http://www.w3.org/2000/svg"
   xmlns:svg="http://www.w3.org/2000/svg"><defs
     id="defs1" /><g
     id="layer1"
     transform="translate(-395.5855,-281.17782)"><g
       id="g218"
       transform="matrix(0.26458333,0,0,0.26458333,306.71892,244.96649)">
		<path
   style="fill:#ac9f0c"
   d="m 389.465,188.589 c -0.075,0 -0.148,-0.038 -0.19,-0.105 -0.852,-1.352 -1.557,-2.909 -2.158,-4.759 -0.01,-0.031 -0.01,-0.095 -0.006,-0.128 -0.762,-5.027 -0.398,-10.285 -0.045,-15.369 0.095,-1.354 0.188,-2.701 0.259,-4.034 0.042,-0.766 0.063,-1.559 0.083,-2.365 0.062,-2.396 0.123,-4.873 0.739,-7.086 0.519,-1.863 2.776,-2.091 4.27,-2.241 0.176,-0.018 0.286,-0.023 0.387,-0.023 0.511,0 0.896,0.146 1.145,0.435 0.423,0.492 0.369,1.304 0.26,2.033 -0.369,2.46 -0.7,4.969 -1.021,7.395 -0.316,2.393 -0.643,4.866 -1.006,7.295 -0.195,1.299 -0.403,2.596 -0.611,3.895 -0.351,2.188 -0.714,4.451 -1.002,6.685 -0.091,0.695 -0.21,1.426 -0.332,2.176 -0.324,1.991 -0.662,4.049 -0.545,5.96 0.005,0.102 -0.058,0.195 -0.156,0.227 -0.024,0.005 -0.047,0.009 -0.071,0.009 z"
   id="path180-0" />
		<path
   style="fill:#ac9f0c"
   d="m 389.594,192.061 c -0.045,0 -0.09,-0.014 -0.128,-0.04 -1.396,-0.962 -2.921,-1.786 -4.396,-2.583 -1.324,-0.714 -2.692,-1.452 -3.971,-2.292 -0.077,-0.051 -0.116,-0.146 -0.097,-0.238 1.056,-4.596 0.064,-9.455 -0.895,-14.154 l -0.216,-1.063 c -0.692,-3.436 -1.454,-6.918 -2.188,-10.285 -0.503,-2.305 -1.007,-4.608 -1.492,-6.915 -0.006,-0.124 -0.013,-0.155 -0.031,-0.188 l -0.184,-0.826 c -0.1,-0.467 -0.199,-0.934 -0.294,-1.403 -0.305,-1.497 -0.592,-2.999 -0.877,-4.5 -0.275,-1.447 -0.553,-2.893 -0.845,-4.336 l -0.034,-0.16 c -0.327,-1.61 -0.611,-3.002 1.104,-3.854 0.895,-0.443 1.875,-0.705 2.802,-0.934 0.166,-0.04 0.314,-0.081 0.452,-0.119 0.352,-0.095 0.627,-0.17 0.862,-0.17 0.617,0 0.775,0.532 0.849,1.053 0.158,1.108 0.31,2.219 0.459,3.329 l 0.078,0.577 c 0.56,4.139 1.111,8.28 1.662,12.42 0.524,3.931 1.047,7.862 1.578,11.791 0.174,1.286 0.32,2.634 0.472,4.018 0.779,7.105 1.662,15.158 6.719,20.14 0.058,0.056 0.08,0.14 0.06,0.218 -0.021,0.078 -0.083,0.139 -0.162,0.159 -0.409,0.105 -0.817,0.223 -1.223,0.343 -0.022,0.009 -0.043,0.012 -0.064,0.012 z"
   id="path181-6" />
		<path
   style="fill:#ac9f0c"
   d="m 380.417,186.64 c -0.047,0 -0.092,-0.015 -0.13,-0.042 -0.38,-0.271 -0.753,-0.55 -1.113,-0.85 -1.131,-0.941 -1.79,-2.46 -2.186,-3.521 -0.026,-0.07 -0.016,-0.148 0.028,-0.21 0.029,-0.039 0.041,-0.074 0.041,-0.118 -0.009,-4.684 -0.22,-9.444 -0.425,-14.048 -0.131,-2.965 -0.268,-6.031 -0.348,-9.049 -0.003,-0.117 0.083,-0.216 0.198,-0.23 0.008,-0.001 0.017,-0.001 0.025,-0.001 0.105,0 0.199,0.074 0.221,0.179 l 0.103,0.499 c 0.513,2.493 1.023,4.986 1.561,7.476 0.222,1.027 0.47,2.083 0.72,3.16 1.239,5.28 2.64,11.264 1.523,16.576 -0.016,0.074 -0.068,0.135 -0.138,0.163 -0.026,0.011 -0.053,0.016 -0.08,0.016 z"
   id="path182-8" />
		<path
   style="fill:#ac9f0c"
   d="m 376.357,179.8 c -0.097,0 -0.185,-0.063 -0.214,-0.159 -0.184,-0.6 -0.362,-1.179 -0.559,-1.695 -1.348,-3.583 -2.506,-6.501 -3.646,-9.183 -0.077,-0.185 -0.414,-1.009 -0.414,-1.009 -0.526,-3.324 -1.138,-6.639 -1.726,-9.846 -0.278,-1.51 -0.557,-3.021 -0.825,-4.532 l -0.197,-1.091 c -0.257,-1.412 -0.521,-2.871 -0.697,-4.317 -0.095,-0.772 0.061,-1.393 0.461,-1.843 0.726,-0.82 2.138,-0.915 3.136,-0.915 0.445,0 0.89,0.021 1.296,0.04 0.263,0.012 0.511,0.024 0.734,0.029 0.01,-0.001 0.02,-0.001 0.029,-0.001 0.107,0 0.224,0.063 0.246,0.166 0,0.001 0.022,0.1 0.023,0.101 0.527,2.52 1.042,5.039 1.556,7.561 l 0.225,1.096 c 0.007,0.04 0.005,0.083 -0.01,0.122 0.005,4.57 0.208,9.135 0.402,13.55 0.171,3.833 0.346,7.796 0.403,11.699 0.002,0.111 -0.078,0.208 -0.189,0.226 -0.011,0 -0.022,0.001 -0.034,0.001 z"
   id="path183-5" />
		<path
   style="fill:#ac9f0c"
   d="m 368.053,177.508 c -0.076,0 -0.151,-0.04 -0.191,-0.109 -2.245,-3.723 -4.495,-7.441 -6.751,-11.158 -0.458,-0.757 -0.911,-1.521 -1.363,-2.287 -1.117,-1.888 -2.271,-3.839 -3.53,-5.66 -0.263,-0.381 -0.529,-0.76 -0.797,-1.138 -0.759,-1.076 -1.544,-2.189 -2.235,-3.346 -0.746,-1.246 -1.185,-2.167 -0.52,-3.581 0.532,-1.13 1.611,-2.085 2.563,-2.927 l 0.231,-0.205 c 0.042,-0.037 0.096,-0.057 0.15,-0.057 0.015,0 0.032,0.002 0.05,0.006 0.069,0.016 0.129,0.066 0.157,0.133 l 0.268,0.648 c 0.254,0.617 0.504,1.223 0.737,1.811 1.385,3.504 2.986,7.004 4.536,10.389 2.537,5.543 5.16,11.276 6.909,17.192 0.034,0.108 -0.021,0.223 -0.123,0.268 -0.03,0.014 -0.061,0.021 -0.091,0.021 z"
   id="path184-4" />
		<path
   style="fill:#ac9f0c"
   d="m 373.738,202.644 c -0.078,-0.008 -0.147,-0.057 -0.18,-0.129 -1.931,-4.161 -2.325,-8.842 -2.709,-13.367 l -0.073,-0.864 c -0.003,-0.038 0.004,-0.078 0.02,-0.113 0.015,-0.032 0.026,-0.079 -0.018,-0.151 -0.018,-0.029 -0.029,-0.063 -0.032,-0.097 -0.099,-1.125 -0.223,-2.448 -0.392,-3.732 -0.147,-1.105 -0.365,-2.298 -0.667,-3.642 -0.004,-0.098 -0.01,-0.13 -0.027,-0.164 -1.086,-4.694 -2.871,-9.2 -4.478,-12.997 -1.129,-2.667 -2.36,-5.345 -3.551,-7.933 -1.587,-3.453 -3.229,-7.023 -4.651,-10.622 -0.523,-1.323 -1.054,-2.789 -1.621,-4.482 -0.075,-0.22 -0.181,-0.489 -0.298,-0.788 -0.496,-1.263 -1.178,-2.994 -0.646,-3.953 0.57,-1.03 3.014,-2.118 4.754,-2.118 1.038,0 1.738,0.366 2.025,1.059 0.748,1.806 1.258,3.792 1.75,5.712 0.255,0.993 0.517,2.019 0.807,2.991 0.79,2.65 1.523,4.996 2.235,7.169 1.763,5.366 3.281,9.401 4.923,13.082 l 0.207,0.48 c 0.009,0.013 0.042,0.095 0.048,0.109 1.353,3.078 2.571,6.226 3.689,9.169 0.389,1.021 0.771,2.044 1.152,3.066 l 0.623,1.656 c 0.108,0.294 0.199,0.564 0.29,0.837 0.282,0.838 0.572,1.704 1.092,2.383 1.649,2.161 4.577,3.634 7.158,4.935 0.855,0.429 1.66,0.834 2.406,1.253 0.347,0.194 0.69,0.395 1.029,0.604 0.074,0.045 0.115,0.129 0.105,0.216 -0.011,0.086 -0.069,0.159 -0.152,0.188 -4.485,1.502 -8.443,3.844 -11.763,6.962 -1.018,0.956 -1.952,2 -2.853,3.193 -0.043,0.057 -0.108,0.089 -0.179,0.089 -0.008,0 -0.015,0 -0.023,-0.001 z"
   id="path185-9" />
		<path
   style="fill:#ac9f0c"
   d="m 368.246,197.732 c -0.074,0 -0.144,-0.035 -0.189,-0.1 l -0.012,-0.022 c -2.303,-3.49 -4.475,-6.785 -7.67,-9.417 -3.653,-3.011 -8.055,-5.198 -12.313,-7.313 -1.359,-0.675 -2.711,-1.347 -4.031,-2.042 -0.353,-0.186 -0.768,-0.385 -1.212,-0.601 -2.221,-1.075 -5.261,-2.547 -5.982,-4.695 -0.276,-0.822 -0.19,-1.684 0.255,-2.559 0.738,-1.447 2.291,-3.874 4.408,-3.874 0.468,0 0.938,0.122 1.397,0.364 0.982,0.517 1.894,1.438 2.773,2.329 0.368,0.374 0.726,0.735 1.07,1.047 l 1.712,1.549 c 3.914,3.548 7.961,7.217 12.295,10.35 1.3,1.687 2.348,3.21 3.249,4.701 1.87,3.095 3.177,6.487 4.46,9.981 0.04,0.107 -0.008,0.227 -0.11,0.278 -0.032,0.018 -0.067,0.024 -0.1,0.024 z"
   id="path186-4" />
		<path
   style="fill:#ac9f0c"
   d="m 372.089,205.117 c -0.084,-0.004 -0.158,-0.055 -0.192,-0.131 -1.056,-2.311 -1.952,-4.729 -2.819,-7.068 -1.26,-3.397 -2.562,-6.907 -4.36,-10.123 -2.67,-4.765 -6.427,-8.818 -10.064,-12.738 -4.714,-5.085 -9.228,-9.244 -13.795,-12.717 -0.259,-0.195 -0.525,-0.388 -0.792,-0.583 -1.84,-1.333 -3.922,-2.843 -3.185,-5.512 0.675,-2.445 2.439,-4.355 3.432,-5.275 0.651,-0.605 1.242,-0.898 1.805,-0.898 1.055,0 1.758,1.004 2.5,2.068 0.161,0.23 0.322,0.461 0.49,0.686 1.919,2.563 3.815,5.184 5.649,7.718 4.642,6.412 9.448,13.143 14.286,20.004 l 0.215,0.305 c 1.678,2.379 3.412,4.839 5.07,7.292 0.021,0.031 0.034,0.068 0.037,0.105 l 0.142,1.55 c 0.397,4.443 0.809,9.037 2.746,13.126 0.016,0.032 0.037,0.055 0.068,0.077 0.052,0.032 0.086,0.085 0.098,0.145 0.011,0.06 -0.001,0.122 -0.036,0.172 -0.399,0.57 -0.766,1.137 -1.089,1.687 -0.042,0.069 -0.114,0.11 -0.193,0.11 -0.006,0 -0.009,0 -0.013,0 z"
   id="path187-6" />
		<path
   style="fill:#ff7f06"
   d="m 468.586,318.706 c -3.917,0 -7.975,-1.369 -11.554,-2.577 -4.653,-1.57 -9.479,-3.763 -14.817,-6.724 -16.02,-8.884 -31.787,-22.143 -48.203,-40.534 -12.074,-13.523 -23.481,-28.403 -25.183,-45.546 -0.957,-9.662 2.526,-18.699 9.556,-24.795 3.05,-2.642 6.872,-4.708 11.053,-5.972 0.021,-0.014 0.194,-0.06 0.219,-0.066 3.143,-0.927 6.396,-1.396 9.666,-1.396 0.317,0 0.635,0.004 0.951,0.013 13.083,0.631 23.251,10.266 30.648,18.589 6.446,7.252 12.038,15.4 17.445,23.279 0.996,1.451 1.989,2.898 2.987,4.342 14.07,20.318 26.745,40.495 27.307,63.903 0.189,7.853 -0.673,16.936 -9.085,17.457 -0.329,0.018 -0.659,0.027 -0.99,0.027 z"
   id="path188-8" />
		<path
   style="fill:#ff7f06"
   d="m 377.182,224.316 c -0.074,0 -0.196,-0.063 -0.237,-0.123 -0.043,-0.062 -0.056,-0.182 -0.029,-0.252 2.195,-5.618 6.577,-10.647 13.021,-14.951 6.488,-4.333 12.564,-7.018 18.57,-8.208 0.009,-0.001 0.018,-0.001 0.024,-0.001 0.251,0 0.396,0.123 0.427,0.298 0.034,0.183 -0.064,0.359 -0.242,0.428 -12.813,4.978 -25.468,11.167 -31.289,22.659 -0.037,0.076 -0.16,0.15 -0.245,0.15 z"
   id="path189-3" />
		<path
   style="fill:#ff7f06"
   d="m 390.869,251.226 c -0.071,0 -0.169,-0.049 -0.211,-0.105 -0.043,-0.057 -0.063,-0.162 -0.045,-0.227 1.162,-4.31 3.914,-7.876 6.343,-11.021 l 0.186,-0.243 c 2.478,-3.207 5.038,-6.527 7.942,-9.49 7.114,-7.258 13.688,-11.657 20.685,-13.845 0.021,-0.006 0.079,-0.016 0.103,-0.016 0.159,0 0.298,0.112 0.336,0.273 0.039,0.157 -0.029,0.313 -0.17,0.386 -8.025,4.192 -14.859,9.201 -20.313,14.888 -4.802,5.009 -10.805,11.725 -14.625,19.255 -0.04,0.078 -0.147,0.145 -0.231,0.145 z"
   id="path190-2" />
		<path
   style="fill:#ff7f06"
   d="m 397.823,244.716 c -0.079,0 -0.186,-0.059 -0.226,-0.126 -0.042,-0.066 -0.044,-0.189 -0.008,-0.258 2.411,-4.668 6.389,-8.983 11.503,-12.483 0.039,-0.026 0.126,-0.053 0.171,-0.053 0.129,0 0.247,0.082 0.295,0.206 0.048,0.119 0.018,0.252 -0.073,0.34 -4.929,4.578 -8.461,8.361 -11.452,12.269 -0.042,0.055 -0.143,0.105 -0.21,0.105 z"
   id="path191-3" />
		<path
   style="fill:#ff7f06"
   d="m 411.059,276.589 c -0.066,0 -0.168,-0.047 -0.21,-0.1 -0.042,-0.051 -0.069,-0.161 -0.057,-0.228 1.714,-8.682 8.207,-15.449 13.351,-19.599 6.841,-5.516 13.838,-8.963 21.391,-10.541 0.008,0 0.015,0 0.022,0 0.244,0 0.384,0.126 0.411,0.3 0.028,0.178 -0.074,0.341 -0.248,0.397 -16.204,5.242 -28.744,16.03 -34.404,29.597 -0.035,0.085 -0.165,0.174 -0.256,0.174 z"
   id="path192-6" />
		<path
   style="fill:#ff7f06"
   d="m 427.214,253.034 c -0.089,0 -0.21,-0.081 -0.245,-0.161 -0.036,-0.08 -0.016,-0.23 0.043,-0.298 2.296,-2.586 5.337,-4.604 9.295,-6.171 0.028,-0.01 0.087,-0.022 0.115,-0.022 0.135,0 0.252,0.092 0.29,0.227 0.041,0.141 -0.012,0.286 -0.134,0.36 l -0.138,0.088 c -3.013,1.888 -6.126,3.841 -9.071,5.927 -0.036,0.026 -0.109,0.05 -0.155,0.05 z"
   id="path193-2" />
		<path
   style="fill:#ff7f06"
   d="m 430.589,291.875 c -0.07,0 -0.199,-0.064 -0.242,-0.118 -0.043,-0.055 -0.07,-0.187 -0.056,-0.254 1.441,-5.896 5.876,-11.085 13.557,-15.867 6.531,-4.07 13.368,-6.675 20.322,-7.742 0.003,0 0.007,0 0.011,0 0.23,0 0.381,0.134 0.406,0.309 0.024,0.175 -0.082,0.331 -0.255,0.379 -12.065,3.414 -27.67,10.194 -33.482,23.123 -0.036,0.08 -0.174,0.17 -0.261,0.17 z"
   id="path194-2" />
		<path
   style="fill:#ff7f06"
   d="m 437.311,278.161 c -0.088,0 -0.207,-0.082 -0.243,-0.162 -0.036,-0.082 -0.016,-0.229 0.046,-0.294 3.372,-3.681 7.706,-5.695 12.608,-7.768 0.029,-0.012 0.117,-0.029 0.148,-0.029 0.162,0 0.306,0.107 0.351,0.263 0.045,0.152 -0.018,0.307 -0.156,0.393 -1.882,1.188 -3.84,2.316 -5.732,3.409 -2.281,1.314 -4.638,2.676 -6.875,4.143 -0.037,0.022 -0.103,0.045 -0.147,0.045 z"
   id="path195-4" />
		<path
   style="fill:#ff7f06"
   d="m 452.344,307.346 c -0.064,0 -0.17,-0.044 -0.213,-0.09 -0.042,-0.044 -0.081,-0.149 -0.076,-0.211 0.25,-4.726 3.926,-8.647 7.1,-11.537 3.534,-3.217 7.4,-6.317 11.729,-7.213 0.011,0 0.019,0 0.027,0 0.231,0 0.368,0.107 0.413,0.263 0.047,0.159 -0.018,0.325 -0.158,0.417 l -1.145,0.729 c -6.946,4.426 -14.819,9.443 -17.397,17.441 -0.03,0.091 -0.183,0.201 -0.28,0.201 z"
   id="path196-7" />
		<path
   style="fill:#ff7f06"
   d="m 390.868,207.464 c -0.093,0 -0.205,-0.076 -0.238,-0.162 -0.034,-0.084 -0.008,-0.214 0.059,-0.277 3.265,-3.147 6.07,-5.316 9.965,-6.41 0.012,0 0.023,-0.001 0.035,-0.001 0.211,0 0.328,0.099 0.362,0.236 0.037,0.143 -0.026,0.287 -0.155,0.357 -1.743,0.949 -3.428,2.078 -5.059,3.17 -1.561,1.045 -3.174,2.126 -4.846,3.054 -0.034,0.02 -0.087,0.033 -0.123,0.033 z"
   id="path197-0" />
		<path
   style="fill:#cd6b06"
   d="m 465.499,314.452 c -8.332,-2.934 -16.6,-8.108 -24.121,-12.699 -7.994,-4.883 -15.363,-10.7 -22.254,-17.029 -13.149,-12.074 -25.372,-26.81 -33.298,-42.884 -4.489,-9.101 -6.76,-19.31 -6.814,-29.431 -0.022,-4.537 0.719,-8.917 1.94,-13.27 0.313,-1.114 0.696,-2.206 1.103,-3.286 -1.314,0.807 -2.546,1.702 -3.671,2.676 -7.029,6.096 -10.513,15.133 -9.556,24.795 1.701,17.144 13.108,32.023 25.183,45.546 16.416,18.392 32.184,31.65 48.203,40.534 5.339,2.961 10.164,5.153 14.817,6.724 3.579,1.208 7.637,2.577 11.554,2.577 0.331,0 0.66,-0.009 0.99,-0.028 2.602,-0.162 4.478,-1.146 5.825,-2.653 -3.124,0.187 -6.405,-0.339 -9.901,-1.572 z"
   id="path198-4" />
		<path
   style="fill:#8c7f03"
   d="m 355.358,144.349 c 0.567,1.693 1.098,3.159 1.621,4.482 1.423,3.6 3.064,7.17 4.651,10.622 1.19,2.588 2.422,5.266 3.551,7.933 1.606,3.796 3.392,8.303 4.478,12.997 0.018,0.034 0.023,0.066 0.027,0.164 0.302,1.344 0.52,2.537 0.667,3.642 0.17,1.284 0.294,2.607 0.392,3.732 0.003,0.034 0.015,0.068 0.032,0.097 0.045,0.072 0.033,0.119 0.018,0.151 -0.017,0.035 -0.023,0.074 -0.02,0.113 l 0.073,0.864 c 0.384,4.525 0.778,9.206 2.709,13.367 0.033,0.072 0.102,0.121 0.18,0.129 0.008,0.001 0.016,0.001 0.023,0.001 0.07,0 0.136,-0.032 0.179,-0.089 0.392,-0.518 0.792,-1.003 1.2,-1.471 -0.451,-0.999 -0.849,-2.027 -1.204,-3.066 -2.413,-7.039 -1.218,-14.874 -3.254,-22.077 -1.82,-6.444 -4.944,-12.648 -7.597,-18.777 -2.382,-5.502 -6.663,-12.416 -6.99,-18.874 -0.781,0.383 -1.424,0.853 -1.682,1.316 -0.531,0.959 0.15,2.69 0.646,3.953 0.119,0.302 0.225,0.571 0.3,0.791 z"
   id="path199-9" />
		<path
   style="fill:#8c7f03"
   d="m 369.168,194.167 c -1.744,-5.385 -3.614,-10.851 -7.281,-15.282 -4.126,-4.983 -9.612,-8.726 -14.457,-12.971 -2.435,-2.136 -5.039,-4.082 -7.336,-6.371 -1.558,-1.551 -2.228,-3.345 -2.403,-5.253 -0.329,0.603 -0.618,1.253 -0.81,1.955 -0.737,2.668 1.345,4.179 3.185,5.512 0.267,0.195 0.533,0.388 0.792,0.583 4.567,3.473 9.081,7.632 13.795,12.717 3.638,3.92 7.395,7.973 10.064,12.738 1.799,3.215 3.101,6.726 4.36,10.123 0.867,2.338 1.764,4.757 2.819,7.068 0.034,0.077 0.108,0.127 0.192,0.131 0.004,0.001 0.007,0.001 0.012,0.001 0.079,0 0.151,-0.042 0.193,-0.11 0.165,-0.281 0.342,-0.568 0.529,-0.855 -1.334,-3.296 -2.565,-6.63 -3.654,-9.986 z"
   id="path200-6" />
		<path
   style="fill:#8c7f03"
   d="m 375.051,139.226 c -1.715,0.852 -1.431,2.243 -1.104,3.854 l 0.034,0.16 c 0.292,1.443 0.569,2.889 0.845,4.336 0.285,1.501 0.572,3.003 0.877,4.5 0.095,0.468 0.194,0.936 0.294,1.403 l 0.184,0.826 c 0.018,0.033 0.025,0.064 0.031,0.188 0.485,2.307 0.989,4.61 1.492,6.915 0.733,3.367 1.495,6.85 2.188,10.285 l 0.216,1.063 c 0.959,4.699 1.95,9.558 0.895,14.154 -0.02,0.092 0.02,0.187 0.097,0.238 0.743,0.488 1.516,0.937 2.293,1.371 0.586,-6.707 -0.142,-13.59 -1.708,-20.067 -1.324,-5.482 -2.62,-10.969 -3.91,-16.46 -0.636,-2.711 -1.36,-5.401 -2.002,-8.11 -0.412,-1.734 -0.48,-3.256 -0.382,-4.803 -0.115,0.049 -0.228,0.093 -0.34,0.147 z"
   id="path201-5" />
		<path
   style="fill:#8c7f03"
   d="m 368.056,197.632 c 0.045,0.066 0.115,0.1 0.189,0.1 0.033,0 0.068,-0.007 0.1,-0.023 0.103,-0.052 0.15,-0.171 0.11,-0.278 -0.605,-1.647 -1.218,-3.27 -1.89,-4.852 -3.073,-3.674 -6.834,-6.888 -11.455,-9.723 -5.421,-3.325 -15.121,-6.525 -17.397,-12.965 -0.247,0.388 -0.458,0.766 -0.624,1.092 -0.445,0.876 -0.531,1.737 -0.255,2.559 0.722,2.148 3.762,3.62 5.982,4.695 0.444,0.216 0.858,0.415 1.212,0.601 1.32,0.695 2.672,1.366 4.031,2.042 4.259,2.115 8.66,4.302 12.313,7.313 3.195,2.632 5.367,5.927 7.67,9.417 z"
   id="path202-4" />
		<path
   style="fill:#8c7f03"
   d="m 387.117,183.726 c 0.602,1.85 1.307,3.407 2.158,4.759 0.042,0.067 0.115,0.105 0.19,0.105 0.023,0 0.047,-0.004 0.068,-0.011 0.041,-0.013 0.072,-0.042 0.099,-0.073 -1.159,-4.029 -1.288,-8.328 -1.1,-12.487 0.233,-5.02 0.519,-10.059 1.01,-15.061 0.224,-2.279 0.341,-5.414 0.984,-8.166 -1.065,0.269 -2.059,0.794 -2.38,1.952 -0.616,2.212 -0.678,4.69 -0.739,7.086 -0.021,0.806 -0.041,1.6 -0.083,2.365 -0.071,1.333 -0.164,2.68 -0.259,4.034 -0.353,5.083 -0.717,10.342 0.045,15.369 -0.003,0.033 -0.003,0.096 0.007,0.128 z"
   id="path203-6" />
		<path
   style="fill:#8c7f03"
   d="m 370.639,146.357 c -0.012,-0.371 0.014,-0.736 0.053,-1.1 -0.803,0.08 -1.643,0.296 -2.151,0.869 -0.4,0.451 -0.556,1.071 -0.461,1.843 0.176,1.446 0.44,2.905 0.697,4.317 l 0.197,1.091 c 0.268,1.511 0.547,3.021 0.825,4.532 0.588,3.207 1.199,6.521 1.726,9.846 0,0 0.337,0.824 0.414,1.009 0.997,2.347 2.008,4.874 3.148,7.87 -0.289,-2.182 -0.544,-4.37 -0.86,-6.545 -0.753,-5.19 -1.513,-10.379 -2.403,-15.547 -0.473,-2.74 -1.091,-5.397 -1.185,-8.185 z"
   id="path204-4" />
		<path
   style="fill:#8c7f03"
   d="m 355.42,157.157 c 0.268,0.378 0.534,0.757 0.797,1.138 1.259,1.821 2.413,3.772 3.53,5.66 0.452,0.766 0.905,1.53 1.363,2.287 2.256,3.716 4.506,7.435 6.751,11.158 0.04,0.069 0.115,0.109 0.191,0.109 0.03,0 0.061,-0.006 0.091,-0.02 0.102,-0.045 0.157,-0.161 0.123,-0.268 -0.69,-2.336 -1.521,-4.642 -2.424,-6.92 -0.345,-0.601 -0.716,-1.214 -1.106,-1.847 -2.049,-3.312 -4.166,-6.581 -6.217,-9.892 -1.855,-2.998 -4,-5.988 -5.241,-9.303 -0.239,0.309 -0.454,0.631 -0.613,0.971 -0.665,1.413 -0.227,2.335 0.52,3.581 0.691,1.156 1.477,2.27 2.235,3.346 z"
   id="path205-2" />
		<path
   style="fill:#ff9408"
   d="m 435.601,225.551 c -6.518,-8.052 -13.905,-15.295 -21.407,-22.42 -3.409,-3.239 -7.166,-6.161 -11.781,-7.299 -2.608,-0.644 -8.892,-0.741 -8.804,3.409 0.061,2.848 2.708,6.413 4.747,8.287 2.971,2.729 5.724,5.732 8.44,8.712 6.43,7.052 12.896,14.052 18.835,21.53 12.116,15.258 20.662,34.396 35.832,46.975 1.32,1.097 3.612,0.488 3.566,-1.478 -0.25,-10.53 -4.787,-20.948 -9.939,-30.005 -5.586,-9.823 -12.387,-18.938 -19.489,-27.711 z"
   id="path206-5" />
		<path
   style="fill:#441203"
   d="m 453.256,238.891 c -6.158,-8.973 -12.23,-18.069 -19.143,-26.486 -6.749,-8.217 -15.103,-16.819 -25.35,-20.475 -2.719,-0.971 -5.625,-1.357 -8.495,-1.496 -2.837,-0.081 -5.669,0.201 -8.423,0.815 -0.489,-0.446 -0.934,-0.927 -1.345,-1.432 0.021,-0.069 0.03,-0.145 0.012,-0.23 -0.413,-1.921 0.142,-3.982 0.322,-5.913 0.241,-2.588 0.631,-5.161 1.029,-7.729 0.628,-4.072 1.25,-8.139 1.806,-12.222 0.371,-2.739 0.734,-5.48 1.128,-8.215 0.151,-1.044 0.809,-2.898 -0.517,-3.447 -1.556,-0.644 -4.631,-0.213 -5.836,1.002 -1.673,1.685 -1.362,4.661 -1.516,6.832 -0.418,5.911 -1.145,12.169 -0.953,18.235 -0.059,-0.304 -0.113,-0.607 -0.168,-0.907 -0.833,-4.582 -1.238,-9.25 -1.857,-13.864 -1.085,-8.096 -2.125,-16.198 -3.261,-24.287 -0.052,-0.376 -0.013,-1.303 -0.432,-1.523 -0.962,-0.502 -2.476,0.051 -3.426,0.313 -1.207,0.333 -2.657,0.802 -3.537,1.74 -0.878,0.935 -0.205,3.397 0.233,4.996 -1.542,-0.049 -4.363,-0.349 -5.529,0.733 -1.239,1.148 -0.439,3.773 -0.198,5.214 0.742,4.433 1.609,8.846 2.384,13.274 -3.232,-8.327 -5.826,-16.819 -8.334,-25.423 -0.794,-2.723 -5.269,-1.178 -6.822,-0.249 -0.858,0.513 -1.618,1.369 -1.486,2.419 0.245,1.919 0.944,3.907 1.711,5.826 -0.015,0.011 -0.03,0.015 -0.046,0.027 -1.476,1.339 -3.141,2.776 -3.593,4.799 -0.249,1.115 0.733,2.507 1.26,3.386 1.851,3.095 4.024,6.002 5.904,9.092 3.375,5.552 6.748,11.109 10.096,16.68 0.466,1.955 0.842,3.94 1.07,5.973 0.003,0.021 0.005,0.044 0.008,0.064 -7.635,-11.24 -15.627,-22.281 -23.717,-33.193 -0.879,-1.184 -1.748,-2.741 -2.916,-3.672 -1.934,-1.543 -4.629,2.056 -5.506,3.308 -0.89,1.271 -1.591,2.764 -1.819,4.306 -0.233,1.58 0.534,2.385 1.633,3.408 2.031,1.893 4.383,3.441 6.506,5.228 2.739,2.306 5.293,4.829 7.798,7.386 2.174,2.22 4.343,4.49 6.372,6.872 -4.743,-3.744 -9.145,-7.953 -13.634,-11.973 -2.084,-1.866 -3.893,-2.327 -6.061,-0.29 -1.675,1.572 -3.845,4.86 -2.074,7.106 1.877,2.38 5.719,3.774 8.344,5.143 3.606,1.883 7.262,3.68 10.774,5.737 2.783,1.629 5.367,3.564 7.488,6.005 2.383,2.747 4.176,6.052 6.242,9.032 0.038,0.056 0.085,0.096 0.133,0.128 0.627,1.665 1.285,3.316 2.039,4.92 0.001,0.002 0.003,0.003 0.004,0.006 -3.386,6.335 -4.155,13.89 -2.899,21.101 2.047,11.77 8.942,22.492 16.078,31.813 4.792,6.258 10.072,12.153 15.538,17.826 14.545,15.096 31.312,29.446 50.689,37.885 4.373,1.904 8.94,3.461 13.621,4.406 2.818,0.57 5.901,0.799 8.611,-0.333 6.275,-2.62 6.225,-11.751 6.138,-17.343 -0.357,-23.206 -13.348,-43.786 -26.078,-62.334 z M 387.55,164.208 c 0.162,-3.021 -0.001,-6.472 0.812,-9.403 0.484,-1.739 2.654,-1.935 4.14,-2.084 1.628,-0.165 1.671,0.954 1.484,2.194 -0.734,4.888 -1.295,9.801 -2.028,14.689 -0.528,3.529 -1.156,7.044 -1.612,10.583 -0.325,2.517 -1.043,5.509 -0.88,8.178 -0.912,-1.449 -1.596,-3.05 -2.136,-4.708 0,-0.03 0.011,-0.056 0.005,-0.087 -0.962,-6.337 -0.128,-12.998 0.215,-19.362 z m -12.398,-24.781 c 0.863,-0.428 1.825,-0.687 2.757,-0.917 1.23,-0.304 1.714,-0.63 1.887,0.578 0.185,1.301 0.359,2.603 0.535,3.905 1.092,8.069 2.15,16.142 3.24,24.211 1.071,7.924 1.153,18.276 7.256,24.287 -0.414,0.106 -0.825,0.224 -1.232,0.345 -2.66,-1.831 -5.672,-3.107 -8.373,-4.876 1.148,-5.002 -0.116,-10.384 -1.11,-15.312 -1.157,-5.749 -2.471,-11.465 -3.68,-17.202 0,-0.014 -0.001,-0.028 -0.001,-0.042 0,-0.081 -0.02,-0.148 -0.051,-0.206 -0.152,-0.723 -0.308,-1.444 -0.456,-2.168 -0.6,-2.94 -1.125,-5.895 -1.722,-8.836 -0.338,-1.661 -0.664,-2.965 0.95,-3.767 z m 1.356,19.369 c 0.547,2.66 1.094,5.321 1.665,7.978 1.326,6.145 3.573,13.322 2.243,19.642 -0.374,-0.268 -0.743,-0.544 -1.1,-0.84 -0.975,-0.809 -1.612,-2.071 -2.118,-3.427 0.048,-0.066 0.083,-0.145 0.083,-0.249 -0.013,-7.708 -0.567,-15.403 -0.773,-23.104 z m -7.313,-5.459 c -0.319,-1.792 -0.675,-3.588 -0.893,-5.396 -0.37,-3.054 3.452,-2.477 5.398,-2.437 0.024,0.001 0.04,-0.009 0.063,-0.011 0.007,0.031 0.017,0.068 0.022,0.098 0.605,2.883 1.19,5.769 1.779,8.655 -0.016,0.047 -0.031,0.098 -0.031,0.158 0.043,8.393 0.699,16.776 0.823,25.171 -0.185,-0.604 -0.366,-1.188 -0.562,-1.708 -1.162,-3.086 -2.361,-6.155 -3.649,-9.192 -0.142,-0.334 -0.272,-0.672 -0.414,-1.007 -0.75,-4.792 -1.687,-9.556 -2.536,-14.331 z m -7.892,12.787 c -1.61,-2.655 -3.135,-5.402 -4.9,-7.957 -1.026,-1.482 -2.1,-2.923 -3.026,-4.472 -0.682,-1.139 -1.145,-2.02 -0.509,-3.37 0.556,-1.179 1.752,-2.181 2.741,-3.061 0.345,0.84 0.689,1.665 1.003,2.457 3.657,9.251 8.629,18.053 11.44,27.561 -2.244,-3.721 -4.494,-7.441 -6.749,-11.158 z m 8.602,14.374 c 0.004,-0.07 -0.008,-0.143 -0.048,-0.218 -1.024,-4.46 -2.693,-8.782 -4.471,-12.98 -2.635,-6.228 -5.711,-12.258 -8.198,-18.551 -0.583,-1.474 -1.113,-2.968 -1.618,-4.471 -0.373,-1.112 -1.561,-3.476 -0.959,-4.561 0.759,-1.369 5.537,-3.1 6.375,-1.08 1.132,2.729 1.702,5.843 2.548,8.681 0.718,2.401 1.458,4.795 2.239,7.175 1.451,4.42 3.033,8.854 4.931,13.104 0.071,0.159 0.136,0.32 0.206,0.48 0.016,0.04 0.027,0.08 0.048,0.109 1.324,3.014 2.517,6.084 3.685,9.16 0.598,1.571 1.182,3.147 1.773,4.721 0.002,0.002 0.003,0.005 0.004,0.007 0.003,0.009 0.005,0.017 0.008,0.024 0.404,1.085 0.692,2.313 1.404,3.247 2.211,2.897 6.542,4.513 9.631,6.247 0.346,0.193 0.686,0.393 1.022,0.599 -4.375,1.465 -8.446,3.818 -11.845,7.012 -1.07,1.006 -2.022,2.088 -2.879,3.221 -2.035,-4.387 -2.347,-9.329 -2.761,-14.157 0.048,-0.106 0.049,-0.231 -0.03,-0.362 -0.112,-1.26 -0.231,-2.511 -0.396,-3.741 -0.162,-1.236 -0.398,-2.455 -0.669,-3.666 z m -9.387,7.522 c -4.833,-3.981 -10.882,-6.488 -16.385,-9.379 -2.703,-1.42 -8.832,-3.651 -6.844,-7.555 0.988,-1.938 3.012,-4.724 5.503,-3.413 1.366,0.719 2.65,2.31 3.796,3.344 4.545,4.1 9.058,8.322 14.027,11.915 1.14,1.492 2.218,3.028 3.188,4.635 1.883,3.116 3.184,6.519 4.442,9.943 -2.262,-3.431 -4.5,-6.831 -7.727,-9.49 z m 4.395,-0.334 c -2.663,-4.755 -6.41,-8.811 -10.094,-12.782 -4.27,-4.604 -8.825,-8.941 -13.825,-12.743 -2.056,-1.562 -4.692,-2.976 -3.896,-5.857 0.541,-1.961 1.898,-3.805 3.368,-5.169 2.22,-2.06 3.182,0.114 4.463,1.826 1.909,2.552 3.778,5.134 5.647,7.716 4.805,6.636 9.564,13.306 14.284,20.001 1.776,2.52 3.556,5.04 5.282,7.594 0.473,5.008 0.729,10.153 2.91,14.751 0.038,0.081 0.091,0.131 0.147,0.168 -0.388,0.556 -0.756,1.121 -1.098,1.703 -2.585,-5.665 -4.141,-11.763 -7.188,-17.208 z m 104.651,130.766 c -4.204,0.259 -8.604,-1.234 -12.527,-2.559 -5.111,-1.726 -10.001,-4.071 -14.713,-6.685 -18.335,-10.168 -34.251,-24.925 -48.143,-40.486 -11.352,-12.714 -23.392,-27.917 -25.128,-45.42 -0.923,-9.313 2.384,-18.452 9.479,-24.604 3.158,-2.738 6.946,-4.711 10.971,-5.926 0.079,0.001 0.153,-0.021 0.216,-0.066 3.431,-1.011 7.026,-1.475 10.55,-1.373 12.619,0.608 22.484,9.51 30.485,18.514 7.604,8.557 13.913,18.204 20.417,27.599 13.188,19.047 26.692,39.894 27.266,63.781 0.161,6.67 -0.252,16.691 -8.873,17.225 z"
   id="path207-1" />
		<path
   style="fill:#441203"
   d="m 408.55,201.002 c -6.659,1.32 -12.873,4.425 -18.49,8.175 -5.513,3.683 -10.49,8.59 -12.935,14.846 -0.023,0.059 0.074,0.1 0.101,0.043 6.028,-11.898 19.598,-18.178 31.407,-22.767 0.185,-0.072 0.116,-0.337 -0.083,-0.297 z"
   id="path208-6" />
		<path
   style="fill:#441203"
   d="m 425.933,216.741 c 0.128,-0.066 0.038,-0.273 -0.098,-0.231 -8.033,2.512 -14.769,7.849 -20.589,13.787 -2.968,3.028 -5.528,6.365 -8.112,9.714 -2.589,3.354 -5.185,6.791 -6.306,10.941 -0.011,0.041 0.051,0.07 0.07,0.029 3.603,-7.102 9.172,-13.58 14.664,-19.309 5.879,-6.129 12.862,-11.009 20.371,-14.931 z"
   id="path209-1" />
		<path
   style="fill:#441203"
   d="m 409.218,232.036 c -4.658,3.187 -8.825,7.358 -11.43,12.399 -0.023,0.047 0.037,0.077 0.067,0.039 3.438,-4.49 7.34,-8.454 11.475,-12.296 0.075,-0.069 -0.024,-0.201 -0.112,-0.142 z"
   id="path210-3" />
		<path
   style="fill:#441203"
   d="m 445.578,246.344 c -7.98,1.666 -14.961,5.388 -21.293,10.496 -6.094,4.913 -11.721,11.609 -13.272,19.465 -0.013,0.064 0.07,0.084 0.094,0.027 6.102,-14.627 19.692,-24.921 34.543,-29.725 0.17,-0.055 0.1,-0.301 -0.072,-0.263 z"
   id="path211-7" />
		<path
   style="fill:#441203"
   d="m 436.459,246.778 c 0.086,-0.054 0.032,-0.208 -0.068,-0.167 -3.497,1.387 -6.687,3.27 -9.211,6.112 -0.034,0.039 0.013,0.11 0.061,0.077 2.994,-2.122 6.111,-4.073 9.218,-6.022 z"
   id="path212-7" />
		<path
   style="fill:#441203"
   d="m 464.204,268.115 c -7.278,1.116 -13.985,3.814 -20.237,7.71 -5.89,3.667 -11.746,8.734 -13.456,15.732 -0.02,0.078 0.1,0.136 0.135,0.057 5.714,-12.71 20.955,-19.663 33.627,-23.247 0.163,-0.048 0.091,-0.277 -0.069,-0.252 z"
   id="path213-1" />
		<path
   style="fill:#441203"
   d="m 437.335,277.927 c 4.098,-2.689 8.463,-4.938 12.609,-7.553 0.148,-0.095 0.02,-0.296 -0.135,-0.23 -4.602,1.943 -9.095,3.962 -12.53,7.711 -0.032,0.037 0.012,0.102 0.056,0.072 z"
   id="path214-2" />
		<path
   style="fill:#441203"
   d="m 470.93,288.517 c -4.441,0.917 -8.358,4.184 -11.625,7.158 -3.215,2.926 -6.783,6.806 -7.026,11.383 -0.004,0.078 0.109,0.087 0.131,0.017 2.75,-8.527 11.543,-13.75 18.634,-18.289 0.143,-0.092 0.049,-0.303 -0.114,-0.269 z"
   id="path215-1" />
		<path
   style="fill:#ff7f06"
   d="m 457.286,303.308 c -0.083,0 -0.215,-0.081 -0.256,-0.152 -0.041,-0.071 -0.035,-0.218 0.007,-0.287 1.423,-2.317 2.916,-4.47 5.522,-5.354 0.023,-0.01 0.096,-0.021 0.12,-0.021 0.146,0 0.273,0.094 0.321,0.238 0.052,0.157 0,0.326 -0.131,0.425 -2.095,1.559 -3.973,3.521 -5.377,5.059 -0.041,0.046 -0.145,0.092 -0.206,0.092 z"
   id="path216-0" />
		<path
   style="fill:#441203"
   d="m 462.631,297.726 c -2.561,0.87 -4.057,3.067 -5.403,5.262 -0.038,0.06 0.05,0.129 0.1,0.076 1.655,-1.813 3.435,-3.62 5.409,-5.088 0.115,-0.085 0.053,-0.304 -0.106,-0.25 z"
   id="path217-8" />
		<path
   style="fill:#441203"
   d="m 400.789,201.01 c 0.099,-0.053 0.03,-0.209 -0.076,-0.179 -4.038,1.134 -6.888,3.482 -9.868,6.354 -0.026,0.025 0.006,0.066 0.037,0.05 3.41,-1.894 6.484,-4.362 9.907,-6.225 z"
   id="path218-9" />
	</g></g></svg>
