<?xml version="1.0" encoding="UTF-8" standalone="no"?>
<!-- Created with Inkscape (http://www.inkscape.org/) -->

<svg
   width="39.60585mm"
   height="28.33506mm"
   viewBox="0 0 39.60585 28.33506"
   version="1.1"
   id="svg1"
   xml:space="preserve"
   xmlns="http://www.w3.org/2000/svg"
   xmlns:svg="http://www.w3.org/2000/svg"><defs
     id="defs1" /><g
     id="layer1"
     transform="translate(-315.95664,-301.46304)"><g
       id="g283"
       transform="matrix(0.26458333,0,0,0.26458333,309.30796,245.33635)">
		<path
   style="fill:#441203"
   d="m 56.142,293.844 c -0.003,-0.021 -0.002,-0.043 -0.006,-0.065 -0.01,0.016 -0.02,0.032 -0.031,0.048 0.012,0.006 0.024,0.011 0.037,0.017 z"
   id="path248-3" />
		<path
   style="fill:#efede8"
   d="m 89.74,227.825 c -0.049,-0.083 -0.046,-0.188 0.009,-0.268 0.054,-0.078 0.146,-0.119 0.241,-0.107 0.002,0.001 0.003,0.001 0.005,0.001 5.198,0.838 10.275,2.402 15.094,4.647 2.799,1.306 3.614,3.736 3.443,5.576 -0.184,1.974 -0.829,3.871 -1.741,6.113 -0.248,0.61 -0.551,1.261 -0.865,1.937 -0.763,1.638 -1.627,3.494 -1.896,5.25 -0.014,0.088 -0.072,0.161 -0.155,0.194 -0.04,0.017 -0.084,0.021 -0.126,0.016 -0.042,-0.006 -0.084,-0.022 -0.119,-0.05 -0.265,-0.206 -0.538,-0.404 -0.828,-0.587 -1.438,-0.901 -2.966,-1.453 -4.668,-1.686 -2.377,-0.326 -5.019,-0.017 -8.311,0.973 -0.035,0.01 -0.071,0.013 -0.106,0.008 -0.049,-0.006 -0.095,-0.028 -0.133,-0.061 -0.065,-0.058 -0.095,-0.146 -0.079,-0.232 0.227,-1.207 0.496,-2.437 0.768,-3.679 1.345,-6.144 2.737,-12.497 -0.533,-18.045 z m 12.091,24.804 c -1.453,-1.1 -3.261,-1.805 -5.377,-2.095 -7.018,-0.961 -15.364,2.773 -18.273,4.986 -2.149,1.636 -3.368,3.444 -3.728,5.528 -0.662,3.842 0.488,8.433 3.028,12.016 1.726,1.739 3.769,3.677 6.174,4.654 1.081,0.439 2.282,0.739 3.779,0.944 0,0 0,0 0,0 0.647,0.089 1.3,0.154 1.96,0.216 6.434,0.592 12.128,-2.793 14.862,-8.834 2.529,-5.587 2.848,-13.419 -2.425,-17.415 z m -32.125,8.027 c 0.449,-1.948 0.914,-3.963 0.974,-6.054 0.1,-3.507 -0.053,-6.67 -0.47,-9.671 -0.492,-3.541 -1.466,-8.722 -4.228,-12.814 -0.91,-1.348 -1.742,-2.22 -3.08,-2.403 -0.885,-0.121 -1.966,0.058 -3.505,0.581 -2.938,0.999 -5.821,2.209 -8.571,3.601 -0.078,0.039 -0.129,0.116 -0.136,0.203 -0.007,0.087 0.032,0.171 0.102,0.223 1.13,0.823 1.77,1.976 2.449,3.197 0.277,0.499 0.56,1.009 0.884,1.511 0.76,1.179 1.728,2.212 2.662,3.212 0.776,0.831 1.579,1.69 2.25,2.62 3.199,4.433 3.417,10.766 3.301,15.143 -0.167,6.352 -3.045,11.166 -6.505,16.355 l -0.112,0.168 c -1.357,2.039 -2.639,3.964 -4.891,4.968 -2.725,1.215 -5.151,3.321 -6.833,5.933 -0.036,0.057 -0.048,0.125 -0.034,0.189 0.014,0.066 0.054,0.122 0.11,0.157 2.674,1.69 5.427,3.229 8.181,4.574 0.893,0.436 1.482,0.651 1.97,0.718 v 0 c 1.378,0.188 2.018,-0.801 3.222,-2.878 0.731,-1.259 1.347,-2.304 2.063,-3.335 0.723,-1.042 1.587,-2.009 2.423,-2.944 0.901,-1.008 1.832,-2.051 2.6,-3.199 2.121,-3.17 3.331,-5.999 3.809,-8.901 0.219,-1.33 0.285,-2.692 0.349,-4.01 0.067,-1.377 0.136,-2.8 0.381,-4.168 0.179,-1.004 0.411,-2.007 0.635,-2.976 z m 25.206,20.125 c -0.028,-0.004 -0.057,-0.003 -0.086,0.003 -1.177,0.247 -2.354,0.36 -3.507,0.336 -0.664,0.011 -1.327,-0.028 -1.968,-0.116 -0.365,-0.051 -0.732,-0.116 -1.101,-0.201 -2.14,-0.491 -4.263,-1.386 -6.141,-2.587 -0.031,-0.02 -0.065,-0.032 -0.101,-0.037 -0.045,-0.007 -0.092,0 -0.135,0.019 -0.077,0.034 -0.131,0.104 -0.146,0.186 -0.217,1.267 -0.32,2.575 -0.42,3.841 -0.217,2.748 -0.442,5.588 -1.851,8.043 -0.996,1.733 -2.375,3.241 -3.709,4.701 -1.139,1.247 -2.317,2.537 -3.268,3.974 -0.046,0.069 -0.055,0.156 -0.022,0.234 0.032,0.077 0.101,0.133 0.183,0.148 1.187,0.232 2.38,0.43 3.546,0.59 1.423,0.194 2.85,0.338 4.242,0.426 3.207,0.204 5.721,-0.907 8.15,-3.604 0.852,-0.944 1.674,-2.024 2.443,-3.209 0.378,-0.583 0.747,-1.188 1.115,-1.825 1.657,-3.686 2.497,-7.832 2.985,-10.631 0.014,-0.081 -0.014,-0.164 -0.073,-0.223 -0.035,-0.037 -0.085,-0.061 -0.136,-0.068 z m 44.608,-0.968 c -0.094,-0.995 -0.279,-2 -0.46,-2.972 -0.318,-1.721 -0.647,-3.498 -0.464,-5.248 0.128,-1.232 0.408,-2.393 0.855,-3.55 0.84,-2.179 0.246,-3.297 -2.447,-4.601 -0.379,-0.185 -0.757,-0.386 -1.132,-0.605 -3.624,-2.116 -6.325,-5.53 -8.273,-8.27 -0.04,-0.057 -0.102,-0.094 -0.17,-0.104 -0.002,0 -0.003,0 -0.004,0 -0.07,-0.009 -0.14,0.013 -0.193,0.06 -3.189,2.751 -5,6.769 -4.728,10.482 0.065,0.889 0.171,1.77 0.277,2.65 0.288,2.396 0.56,4.659 0.044,6.996 -0.367,1.66 -1.308,3.145 -2.218,4.58 -0.824,1.3 -1.676,2.643 -2.132,4.142 -0.276,0.908 -0.475,1.849 -0.668,2.756 -0.217,1.024 -0.442,2.083 -0.776,3.086 -0.239,0.718 -0.579,1.423 -0.907,2.104 -0.394,0.818 -0.802,1.665 -1.051,2.561 -0.024,0.086 0,0.179 0.063,0.242 0.039,0.04 0.09,0.064 0.143,0.072 0.033,0.004 0.066,0.002 0.099,-0.007 3.718,-0.999 7.663,-1.853 11.324,-1.353 0.932,0.128 1.824,0.342 2.654,0.638 0.871,0.31 1.53,0.518 2.118,0.599 1.53,0.209 2.369,-0.555 2.719,-2.481 0.033,-0.178 0.07,-0.351 0.115,-0.517 0.183,-0.671 0.534,-1.416 1.012,-2.154 0.384,-0.593 0.81,-1.176 1.238,-1.763 1.591,-2.177 3.233,-4.431 2.962,-7.343 z"
   id="path249-3" />
		<path
   style="fill:#ef521b"
   d="m 120.026,301.64 c 0.93,4.576 -3.104,7.79 -6.841,9.152 -1.509,0.551 -3.198,0.703 -5.018,0.454 v 0 c -1.956,-0.269 -4.122,-1.011 -6.44,-2.208 -3.372,-1.741 -5.845,-4.313 -8.271,-8.598 -0.04,-0.07 -0.043,-0.157 -0.008,-0.23 0.036,-0.074 0.104,-0.126 0.185,-0.14 2.562,-0.419 5.265,-0.984 8.264,-1.729 2.124,-0.526 4.285,-1.145 6.374,-1.746 1.855,-0.532 3.773,-1.082 5.672,-1.569 0.874,-0.225 1.511,-0.298 2.002,-0.23 1.058,0.145 1.433,0.933 1.952,2.022 0.138,0.288 0.289,0.605 0.469,0.949 l 0.247,0.468 c 0.573,1.079 1.167,2.195 1.413,3.405 z m 17.201,-62.201 c -0.681,-1.462 -1.384,-2.973 -2.722,-3.992 -0.77,-0.586 -1.652,-1.08 -2.702,-1.51 l -0.716,-0.27 c -1.225,-0.422 -2.455,-0.72 -3.659,-0.885 -1.689,-0.231 -3.36,-0.206 -4.967,0.073 -1.763,0.307 -3.445,0.93 -5.071,1.532 l -0.749,0.276 c -1.064,0.389 -1.647,0.89 -1.782,1.529 -0.16,0.757 0.323,1.647 1.519,2.799 3.407,3.285 6.147,7.189 8.885,11.236 l 1.137,1.684 c 1.207,1.785 2.861,2.941 4.537,3.171 10e-4,0 10e-4,0 10e-4,0 1.338,0.183 2.625,-0.214 3.825,-1.18 1.52,-1.223 2.712,-2.78 3.543,-4.63 1.596,-3.556 0.584,-6.268 -1.021,-9.712 z m -64.75,65.189 c 0.357,-2.359 0.47,-4.715 -2.331,-5.349 -2.649,-0.6 -5.306,-1.359 -7.898,-2.259 -5,-1.734 -9.785,-3.862 -14.222,-6.323 -0.027,-0.015 -0.057,-0.024 -0.087,-0.028 -0.059,-0.009 -0.12,0.005 -0.171,0.038 -0.078,0.052 -0.121,0.142 -0.111,0.234 0.416,4.168 2.308,9.288 4.4,11.909 0.95,1.189 2.007,1.885 3.125,2.621 0.434,0.285 0.878,0.578 1.33,0.909 0.635,0.466 1.166,1.054 1.679,1.623 0.472,0.522 0.959,1.064 1.536,1.522 1.46,1.165 3.614,2.061 5.621,2.335 0,10e-4 0,10e-4 0.001,10e-4 3.097,0.424 5.357,-0.613 6.365,-2.921 0.45,-1.031 0.533,-1.989 0.621,-3.005 0.037,-0.425 0.074,-0.858 0.142,-1.307 z M 89.684,231.63 c -0.796,-2.79 -2.698,-4.354 -5.816,-4.78 -0.46,-0.063 -0.954,-0.102 -1.47,-0.118 -3.235,-0.094 -6.545,0.077 -9.838,0.51 -2.365,0.312 -4.736,0.747 -7.048,1.295 -0.085,0.021 -0.153,0.084 -0.18,0.167 -0.027,0.083 -0.008,0.174 0.05,0.241 1.381,1.58 2.587,3.478 3.688,5.803 0.802,1.692 1.019,3.27 1.249,4.94 0.119,0.866 0.242,1.762 0.452,2.707 1.217,5.486 1.169,11.271 -0.151,18.206 -0.398,2.089 -0.581,4.22 -0.758,6.28 -0.359,4.173 -0.698,8.113 -2.656,11.906 -1.187,2.3 -2.827,4.351 -4.413,6.333 -2.207,2.761 -4.489,5.615 -5.601,9.192 -0.038,0.124 0.024,0.256 0.144,0.306 2.99,1.233 5.973,2.288 8.867,3.133 0.725,0.211 1.336,0.35 1.871,0.423 0,0 0,0 0,0 2.102,0.288 2.793,-0.507 3.667,-1.512 0.302,-0.349 0.646,-0.744 1.086,-1.14 0.449,-0.402 0.926,-0.793 1.407,-1.188 1.517,-1.243 3.085,-2.527 3.964,-4.313 1.385,-2.81 1.54,-5.811 1.691,-8.711 0.074,-1.409 0.149,-2.867 0.364,-4.294 0.013,-0.085 -0.02,-0.173 -0.087,-0.228 -1.348,-1.141 -2.47,-2.423 -3.335,-3.812 -2.256,-3.629 -4.116,-8.98 -2.569,-13.121 0.704,-1.886 1.983,-3.497 3.911,-4.925 0.785,-0.58 4.908,-3.196 9.307,-4.44 0.093,-0.027 0.162,-0.104 0.179,-0.199 0.275,-1.606 0.729,-3.202 1.167,-4.746 0.644,-2.268 1.311,-4.612 1.441,-7.066 0.147,-2.761 -0.039,-4.938 -0.583,-6.849 z m -19.062,-4.646 c 0.024,0.003 0.048,0.003 0.073,-0.001 6.08,-0.948 12.132,-1.04 17.989,-0.274 0.044,0.006 0.088,0 0.129,-0.017 0.021,-0.009 0.042,-0.015 0.08,-0.01 0.028,0.004 0.064,0.014 0.116,0.032 0.035,0.027 0.076,0.044 0.119,0.05 4.755,0.658 9.34,1.889 13.627,3.659 0.592,0.245 1.086,0.392 1.511,0.451 0.606,0.083 1.069,-0.018 1.414,-0.308 0.574,-0.482 0.723,-1.423 0.771,-2.688 0.034,-0.923 0.246,-1.793 0.47,-2.713 l 0.15,-0.628 c 0.336,-1.443 0.793,-3.418 -0.482,-4.722 -1.112,-1.135 -2.346,-1.43 -3.297,-1.561 -0.544,-0.075 -1.086,-0.103 -1.66,-0.133 -0.457,-0.024 -0.922,-0.048 -1.392,-0.099 l -0.277,-0.034 c -1.537,-0.211 -3.001,-0.809 -4.417,-1.387 -1.438,-0.588 -2.923,-1.194 -4.507,-1.412 -0.165,-0.022 -0.331,-0.041 -0.498,-0.055 -3.425,-0.283 -6.544,0.31 -9.361,1.791 -0.037,0.003 -0.074,0.014 -0.106,0.033 l -0.285,0.162 c -0.193,0.109 -0.386,0.218 -0.573,0.337 -3.194,2.02 -5.711,4.749 -8.145,7.388 -0.528,0.573 -1.057,1.147 -1.596,1.717 -0.074,0.078 -0.089,0.193 -0.04,0.288 0.038,0.075 0.108,0.123 0.187,0.134 z m 43.468,63.915 c 0.362,-0.834 0.742,-1.726 1.049,-2.655 0.254,-0.769 0.454,-1.562 0.647,-2.329 0.274,-1.087 0.557,-2.21 0.995,-3.256 0.427,-1.021 0.944,-2.054 1.443,-3.053 1.25,-2.498 2.542,-5.081 2.708,-7.939 0.053,-0.914 0.081,-1.883 0.11,-2.884 0.118,-4.069 0.25,-8.681 2.173,-12.107 1.824,-3.252 2.358,-5.116 0.698,-7.562 -3.38,-4.998 -7.331,-10.155 -13.29,-14.01 -0.031,-0.02 -0.066,-0.033 -0.102,-0.038 -0.054,-0.007 -0.111,0.003 -0.16,0.032 -0.081,0.047 -0.129,0.137 -0.123,0.23 0.215,3.621 -1.192,7.018 -2.554,10.303 -0.935,2.256 -1.902,4.589 -2.365,7.014 -0.014,0.072 0.005,0.145 0.051,0.203 2.726,3.39 3.687,8.872 2.445,13.968 -1.527,6.271 -5.684,11.386 -10.848,13.347 -0.087,0.033 -0.148,0.111 -0.16,0.204 -0.992,8.265 -4.511,15.382 -9.656,19.525 -0.086,0.069 -0.116,0.185 -0.076,0.286 0.034,0.086 0.11,0.145 0.199,0.156 0.017,0.003 0.034,0.003 0.051,0.002 l 0.35,-0.022 c 0.236,-0.016 0.472,-0.029 0.708,-0.051 6.482,-0.583 12.647,-2.162 19.46,-4.012 3.53,-0.96 4.815,-2.06 6.247,-5.352 z m 53.857,-13.491 c 0.04,-1.053 0.081,-2.14 0.189,-3.208 0.067,-0.667 0.169,-1.344 0.271,-2.025 0.329,-2.199 0.67,-4.474 -0.087,-6.642 -0.389,-1.111 -0.894,-2.119 -1.5,-2.995 -0.931,-1.34 -1.709,-2.148 -2.937,-2.317 -0.908,-0.124 -2.042,0.105 -3.676,0.742 l -0.729,0.283 c -2.309,0.899 -4.696,1.828 -7.097,2.537 -3.669,1.082 -6.83,1.484 -9.662,1.229 -0.107,-0.01 -0.208,0.052 -0.252,0.149 -1.622,3.74 -2.815,6.928 -2.209,11.032 0.052,0.352 0.113,0.716 0.176,1.091 0.323,1.918 0.689,4.093 -0.028,5.833 -0.464,1.125 -1.202,2.141 -1.917,3.123 -0.78,1.072 -1.585,2.182 -2.057,3.451 -0.369,0.997 -0.532,2.023 -0.688,3.014 -0.218,1.377 -0.423,2.677 -1.141,3.888 -0.058,0.099 -0.042,0.226 0.04,0.306 2.228,2.196 3.976,5.004 5.666,7.718 0.649,1.042 1.292,2.076 1.954,3.063 0.401,0.599 0.841,1.331 1.32,2.129 0.281,0.469 0.575,0.959 0.883,1.459 1.144,1.854 2.444,2.855 3.976,3.065 h 0.001 c 1.078,0.147 2.259,-0.096 3.613,-0.743 3.658,-1.752 5.964,-5.31 7.839,-8.507 0.373,-0.635 0.774,-1.256 1.177,-1.877 0.957,-1.478 1.947,-3.007 2.524,-4.728 0.55,-1.643 0.775,-3.367 0.991,-5.035 0.147,-1.135 0.301,-2.309 0.555,-3.439 0.273,-1.216 0.71,-2.418 1.132,-3.579 0.504,-1.39 1.026,-2.825 1.283,-4.314 0.273,-1.577 0.332,-3.167 0.39,-4.703 z m -120.941,5.22 c -0.897,0.457 -1.717,0.994 -2.507,1.644 -0.992,0.817 -1.848,1.523 -2.994,1.366 h -0.001 c -0.535,-0.073 -1.109,-0.322 -1.808,-0.785 l -0.518,-0.34 c -1.745,-1.14 -3.916,-2.558 -4.736,-4.178 -0.728,-1.439 1.078,-3.305 2.273,-4.54 0.198,-0.204 0.373,-0.385 0.506,-0.534 0.928,-1.042 3.34,-3.749 1.91,-5.136 -0.503,-0.486 -1.331,-0.804 -2.53,-0.968 -0.917,-0.126 -1.936,-0.146 -2.834,-0.165 -0.748,-0.016 -1.455,-0.029 -2.017,-0.101 l -0.384,-0.051 c -1.654,-0.227 -3.499,-0.631 -4.644,-1.913 -1.606,-1.802 -0.729,-5.818 0.071,-8.683 1.886,-6.756 7.216,-12.172 11.062,-15.66 2.321,-2.017 4.829,-3.886 7.456,-5.559 1.028,-0.654 2.127,-1.239 3.203,-1.092 0.912,0.125 1.726,0.736 2.562,1.925 0.399,0.566 0.732,1.158 1.083,1.784 0.492,0.874 1,1.777 1.705,2.612 0.642,0.761 1.373,1.406 2.08,2.031 1.15,1.016 2.341,2.066 3.142,3.621 1.632,3.163 1.66,7.092 1.687,10.89 0.008,1.246 0.017,2.425 0.082,3.547 0.237,4.034 -2.034,7.046 -4.23,9.958 -0.922,1.222 -1.875,2.486 -2.623,3.803 -1.64,2.888 -3.797,4.899 -6.996,6.524 z m 6.629,-22.603 c 1.68,-2.925 2.111,-7.313 -0.908,-10.034 -1.284,-1.159 -2.827,-1.889 -4.461,-2.112 -3.033,-0.415 -6.077,0.956 -7.944,3.579 l -0.081,0.128 c -1.48,2.53 -1.856,5.692 -0.957,8.216 0.729,2.04 2.208,3.524 4.279,4.291 0.478,0.177 0.979,0.303 1.488,0.372 3.242,0.444 6.852,-1.423 8.584,-4.44 z"
   id="path250-9" />
		<path
   style="fill:#efede8"
   d="m 44.752,263.881 c -2.109,-0.288 -3.7,-1.411 -4.602,-3.245 -1.229,-2.497 -0.998,-6.142 0.56,-8.861 1.795,-2.499 4.672,-3.796 7.521,-3.405 1.694,0.232 3.249,1.038 4.497,2.332 2.473,2.563 1.905,6.312 0.668,8.745 -1.575,3.097 -5.009,4.885 -8.544,4.448 0,-10e-4 -0.098,-0.014 -0.1,-0.014 z"
   id="path251-0" />
		<g
   id="g255">
			<path
   style="fill:#cecbc4"
   d="m 134.195,291.592 c 0.033,-0.178 0.07,-0.351 0.115,-0.517 0.013,-0.045 0.032,-0.094 0.046,-0.141 -0.22,0.123 -0.448,0.237 -0.687,0.344 -3.092,1.375 -6.008,-1.067 -9.057,-1.002 -3.634,0.078 -5.682,-0.307 -3.096,-5.623 1.561,-3.209 3.076,-6.468 3.786,-9.724 0.686,-3.144 0.309,-5.851 -0.26,-8.99 -0.579,-3.191 -0.275,-6.016 -0.033,-8.989 -1.772,2.435 -2.706,5.325 -2.506,8.056 0.065,0.889 0.171,1.77 0.277,2.65 0.288,2.396 0.56,4.659 0.044,6.996 -0.367,1.66 -1.308,3.145 -2.218,4.58 -0.824,1.3 -1.676,2.643 -2.132,4.142 -0.276,0.908 -0.475,1.849 -0.668,2.756 -0.217,1.024 -0.442,2.083 -0.776,3.086 -0.239,0.718 -0.579,1.423 -0.907,2.104 -0.394,0.818 -0.802,1.665 -1.051,2.561 -0.024,0.086 0,0.179 0.063,0.242 0.039,0.04 0.09,0.064 0.143,0.072 0.033,0.004 0.066,0.002 0.099,-0.007 3.718,-0.999 7.663,-1.853 11.324,-1.353 0.932,0.128 1.824,0.342 2.654,0.638 0.871,0.31 1.53,0.518 2.118,0.599 1.532,0.21 2.371,-0.554 2.722,-2.48 z"
   id="path252-4" />
			<path
   style="fill:#cecbc4"
   d="m 85.088,297.16 c -1.968,0.79 -4.062,0.822 -6.142,0.717 -3.185,-0.163 -2.046,-1.425 -0.431,-3.436 3.272,-4.073 4.708,-7.842 5.192,-13.051 0.069,-0.733 0.14,-1.452 0.216,-2.16 -0.622,-0.311 -1.232,-0.642 -1.814,-1.014 -0.031,-0.02 -0.065,-0.032 -0.101,-0.037 -0.045,-0.007 -0.092,0 -0.135,0.019 -0.077,0.034 -0.131,0.104 -0.146,0.186 -0.217,1.267 -0.32,2.575 -0.42,3.841 -0.217,2.748 -0.442,5.588 -1.851,8.043 -0.996,1.733 -2.375,3.241 -3.709,4.701 -1.139,1.247 -2.317,2.537 -3.268,3.974 -0.046,0.069 -0.055,0.156 -0.022,0.234 0.032,0.077 0.101,0.133 0.183,0.148 1.187,0.232 2.38,0.43 3.546,0.59 1.423,0.194 2.85,0.338 4.242,0.426 3.207,0.204 5.721,-0.907 8.15,-3.604 0.764,-0.847 1.498,-1.816 2.197,-2.859 -1.702,1.304 -3.568,2.432 -5.687,3.282 z"
   id="path253-3" />
			<path
   style="fill:#cecbc4"
   d="m 57.426,290.223 c -2.83,0.842 -5.85,0.65 -9.023,-1.323 -2.675,-1.666 6.436,-7.526 7.429,-8.506 2.876,-2.83 4.986,-7.458 6.543,-11.124 4.667,-10.981 1.066,-26.512 -9.625,-32.618 0.166,0.283 0.327,0.571 0.491,0.865 0.277,0.499 0.56,1.009 0.884,1.511 0.76,1.179 1.728,2.212 2.662,3.212 0.776,0.831 1.579,1.69 2.25,2.62 3.199,4.433 3.417,10.766 3.301,15.143 -0.167,6.352 -3.045,11.166 -6.505,16.355 l -0.112,0.168 c -1.357,2.039 -2.639,3.964 -4.891,4.968 -2.725,1.215 -5.151,3.321 -6.833,5.933 -0.036,0.057 -0.048,0.125 -0.034,0.189 0.014,0.066 0.054,0.122 0.11,0.157 2.674,1.69 5.427,3.229 8.181,4.574 0.893,0.436 1.482,0.651 1.97,0.718 v 0 c 1.371,0.188 2.012,-0.791 3.202,-2.842 z"
   id="path254-3" />
			<path
   style="fill:#cecbc4"
   d="m 90.272,245.87 c -0.272,1.242 -0.541,2.472 -0.768,3.679 -0.016,0.086 0.014,0.174 0.079,0.232 0.038,0.034 0.084,0.055 0.133,0.061 0.035,0.005 0.071,0.002 0.106,-0.008 0.709,-0.213 1.383,-0.388 2.036,-0.54 0.022,-0.093 0.045,-0.187 0.069,-0.281 1.138,-4.658 2.861,-12.891 -0.624,-17.25 1.06,4.518 0.006,9.374 -1.031,14.107 z"
   id="path255-4" />
		</g>
		<g
   id="g257">
			<path
   style="fill:#cecbc4"
   d="m 82.11,278.215 c -0.031,-0.02 -0.065,-0.032 -0.101,-0.037 -0.045,-0.007 -0.092,0 -0.135,0.019 -0.077,0.034 -0.131,0.104 -0.146,0.186 -0.021,0.127 -0.031,0.258 -0.051,0.385 0.892,0.367 1.883,0.587 2.866,0.754 -0.839,-0.385 -1.661,-0.812 -2.433,-1.307 z"
   id="path256-2" />
			<path
   style="fill:#cecbc4"
   d="m 104.256,270.045 c 1.314,-2.902 2.021,-6.408 1.668,-9.67 -0.232,1.953 -0.857,3.926 -1.854,6.01 -2.862,5.982 -7.424,10.719 -14.489,9.625 -2.081,-0.322 -6.331,-0.619 -7.695,-2.338 -1.311,-1.652 -2.405,-3.433 -3.797,-5.047 -2.038,-2.361 -1.983,-5.696 -3.521,-8.078 -0.041,0.166 -0.085,0.332 -0.114,0.502 -0.662,3.842 0.488,8.433 3.028,12.016 1.726,1.739 3.769,3.677 6.174,4.654 1.081,0.439 2.282,0.739 3.779,0.944 0,0 0,0 0,0 0.647,0.089 1.3,0.154 1.96,0.216 6.433,0.592 12.127,-2.793 14.861,-8.834 z"
   id="path257-4" />
		</g>
		<g
   id="g262">
			<path
   style="fill:#bc3b13"
   d="m 89.018,298.184 c -0.595,0.613 -1.218,1.184 -1.866,1.706 -0.086,0.069 -0.116,0.185 -0.076,0.286 0.034,0.086 0.11,0.145 0.199,0.156 0.017,0.003 0.034,0.003 0.051,0.002 l 0.35,-0.022 c 0.236,-0.016 0.472,-0.029 0.708,-0.051 6.482,-0.583 12.647,-2.162 19.46,-4.012 3.53,-0.96 4.814,-2.06 6.247,-5.352 0.362,-0.834 0.742,-1.726 1.049,-2.655 0.254,-0.769 0.454,-1.562 0.647,-2.329 0.274,-1.087 0.557,-2.21 0.995,-3.256 0.427,-1.021 0.944,-2.054 1.443,-3.053 1.25,-2.498 2.542,-5.081 2.708,-7.939 0.053,-0.914 0.081,-1.883 0.11,-2.884 0.118,-4.069 0.25,-8.681 2.173,-12.107 0.627,-1.118 1.088,-2.066 1.373,-2.936 -1.458,2.332 -3.31,4.364 -4.475,6.923 -1.036,2.272 -1.046,4.95 -1.046,7.384 -0.001,6.664 -4.336,11.943 -5.456,18.416 -1.474,8.521 -10.304,8.063 -16.848,9.993 -2.727,0.805 -5.11,1.543 -7.746,1.73 z"
   id="path258-5" />
			<path
   style="fill:#bc3b13"
   d="m 47.006,282.628 c 3.199,-1.625 5.356,-3.637 6.995,-6.524 0.748,-1.316 1.701,-2.581 2.623,-3.803 2.196,-2.912 4.467,-5.924 4.23,-9.958 -0.065,-1.122 -0.074,-2.301 -0.082,-3.547 -0.027,-3.798 -0.055,-7.727 -1.687,-10.89 -0.801,-1.555 -1.992,-2.604 -3.142,-3.621 -0.1,-0.089 -0.201,-0.184 -0.302,-0.273 0.791,1.857 1.756,3.682 2.355,5.491 2.229,6.732 1.396,15.074 -2.498,20.982 -2.976,4.517 -6.356,8.054 -10.86,10.948 -2.454,1.577 -5.236,1.53 -8.095,1.232 0.844,0.675 1.788,1.294 2.634,1.847 l 0.518,0.34 c 0.699,0.463 1.273,0.712 1.808,0.785 h 10e-4 c 1.145,0.157 2.002,-0.549 2.994,-1.366 0.791,-0.648 1.611,-1.185 2.508,-1.643 z"
   id="path259-3" />
			<path
   style="fill:#bc3b13"
   d="m 168.136,274.2 c 0.067,-0.667 0.169,-1.344 0.271,-2.025 0.295,-1.973 0.593,-4.006 0.105,-5.969 0.007,0.295 0.004,0.598 -0.018,0.912 -0.224,3.162 -2.615,6.279 -3.024,9.612 -0.525,4.279 -0.872,7.539 -2.791,11.5 -1.546,3.192 -0.736,6.873 -2.034,10.188 -1.272,3.253 -3.329,6.425 -4.929,9.544 -1.245,2.427 -3.268,4.768 -6.544,3.829 -2.421,-0.695 -3.978,-3.922 -5.089,-5.919 -2.27,-4.076 -5.967,-7.551 -8.657,-11.463 -0.173,0.754 -0.41,1.484 -0.823,2.183 -0.058,0.099 -0.042,0.226 0.04,0.306 2.228,2.196 3.976,5.004 5.666,7.718 0.649,1.042 1.292,2.076 1.954,3.063 0.401,0.599 0.841,1.331 1.32,2.129 0.281,0.469 0.575,0.959 0.883,1.459 1.144,1.854 2.444,2.855 3.976,3.065 h 0.001 c 1.078,0.147 2.259,-0.096 3.613,-0.743 3.658,-1.752 5.964,-5.31 7.839,-8.507 0.373,-0.635 0.774,-1.256 1.177,-1.877 0.957,-1.478 1.947,-3.007 2.524,-4.728 0.55,-1.643 0.775,-3.367 0.991,-5.035 0.147,-1.135 0.301,-2.309 0.555,-3.439 0.273,-1.216 0.71,-2.418 1.132,-3.579 0.504,-1.39 1.026,-2.825 1.283,-4.314 0.271,-1.574 0.331,-3.164 0.389,-4.7 0.04,-1.055 0.081,-2.142 0.19,-3.21 z"
   id="path260-8" />
			<path
   style="fill:#bc3b13"
   d="m 87.659,250.294 c 0.275,-1.606 0.729,-3.202 1.167,-4.746 0.644,-2.268 1.311,-4.612 1.441,-7.066 0.098,-1.842 0.045,-3.42 -0.161,-4.835 -2.01,4.935 -2.603,10.486 -4.516,15.422 -0.311,0.802 -0.618,1.602 -0.921,2.402 0.903,-0.367 1.849,-0.707 2.81,-0.979 0.094,-0.026 0.163,-0.103 0.18,-0.198 z"
   id="path261-1" />
			<path
   style="fill:#bc3b13"
   d="m 79.889,281.312 c 0.074,-1.409 0.149,-2.867 0.364,-4.294 0.013,-0.085 -0.02,-0.173 -0.087,-0.228 -1.348,-1.141 -2.47,-2.423 -3.335,-3.812 -1.764,-2.838 -3.278,-6.727 -3.118,-10.268 -0.565,1.837 -0.775,3.768 -0.602,5.448 0.323,3.156 2.156,6.85 4.809,9.358 -0.46,5.97 -0.95,12.329 -5.207,16.024 -3.739,3.245 -8.425,2.559 -13.089,1.986 2.22,0.85 4.424,1.595 6.579,2.225 0.725,0.211 1.336,0.35 1.871,0.423 0,0 0,0 0,0 2.102,0.288 2.793,-0.507 3.667,-1.512 0.302,-0.349 0.646,-0.744 1.086,-1.14 0.449,-0.402 0.926,-0.793 1.407,-1.188 1.517,-1.243 3.085,-2.527 3.964,-4.313 1.385,-2.808 1.54,-5.809 1.691,-8.709 z"
   id="path262-1" />
		</g>
		<g
   id="g266">
			<path
   style="fill:#bc3b13"
   d="m 118.612,298.235 -0.247,-0.468 c -0.181,-0.344 -0.332,-0.661 -0.469,-0.949 -0.519,-1.089 -0.894,-1.877 -1.952,-2.022 -0.491,-0.067 -1.128,0.006 -2.002,0.23 -0.279,0.071 -0.559,0.151 -0.839,0.226 0.729,0.266 1.434,0.604 2.096,1.057 2.376,1.624 4.856,6.401 3.279,9.04 -3.629,6.077 -14.248,4.009 -18.949,0.986 -1.886,-1.213 -3.233,-2.842 -4.858,-3.917 2.056,3.121 4.242,5.167 7.055,6.62 2.318,1.197 4.484,1.939 6.44,2.208 v 0 c 1.82,0.249 3.509,0.097 5.018,-0.454 3.738,-1.362 7.771,-4.576 6.841,-9.152 -0.245,-1.21 -0.839,-2.326 -1.413,-3.405 z"
   id="path263-3" />
			<path
   style="fill:#bc3b13"
   d="m 72.477,304.628 c 0.268,-1.771 0.398,-3.54 -0.738,-4.579 0.246,1.29 0.236,2.679 -0.059,4.226 -1.081,5.68 -6.498,8.5 -10.402,3.288 -1.858,-2.479 -4.835,-3.17 -7.587,-4.179 -0.921,-0.339 -1.711,-0.936 -2.437,-1.675 0.262,0.417 0.531,0.801 0.802,1.142 0.95,1.189 2.007,1.885 3.125,2.621 0.434,0.285 0.878,0.578 1.33,0.909 0.635,0.466 1.166,1.054 1.679,1.623 0.472,0.522 0.959,1.064 1.536,1.522 1.46,1.165 3.614,2.061 5.621,2.335 0,0.001 0,0.001 0.001,0.001 3.097,0.424 5.357,-0.613 6.365,-2.921 0.45,-1.031 0.533,-1.989 0.621,-3.005 0.038,-0.426 0.075,-0.859 0.143,-1.308 z"
   id="path264-1" />
			<path
   style="fill:#bc3b13"
   d="m 137.227,239.439 c -0.094,-0.201 -0.192,-0.402 -0.288,-0.603 0.63,2.302 -0.165,4.762 -0.233,7.269 -0.064,2.326 -1.453,4.563 -3.465,5.705 -3.909,2.221 -5.512,-1.62 -7.455,-3.859 -0.925,-1.065 -1.875,-1.899 -2.989,-2.772 -1.697,-1.331 -2.207,-4.002 -3.961,-5.419 -1.247,-1.008 -2.389,-1.781 -3.611,-2.128 0.256,0.412 0.633,0.861 1.153,1.361 3.407,3.285 6.147,7.189 8.885,11.236 l 1.137,1.684 c 1.207,1.785 2.861,2.941 4.537,3.171 10e-4,0 10e-4,0 10e-4,0 1.338,0.183 2.625,-0.214 3.825,-1.18 1.52,-1.223 2.712,-2.78 3.543,-4.63 1.596,-3.556 0.584,-6.268 -1.021,-9.712 z"
   id="path265-5" />
			<path
   style="fill:#bc3b13"
   d="m 104.265,230.874 c 0.606,0.083 1.069,-0.018 1.414,-0.308 0.574,-0.482 0.723,-1.423 0.771,-2.688 0.034,-0.923 0.246,-1.793 0.47,-2.713 l 0.15,-0.628 c 0.336,-1.443 0.793,-3.418 -0.482,-4.722 -1.112,-1.135 -2.346,-1.43 -3.297,-1.561 -0.156,-0.021 -0.315,-0.033 -0.471,-0.048 1.539,1.025 2.672,2.233 2.485,3.75 -0.182,1.469 -0.488,2.918 -0.656,4.395 -0.431,3.788 -7.529,-1.074 -9.044,-1.383 -1.535,-0.313 -2.862,-0.311 -4.406,-0.146 -3.259,0.35 -5.882,-0.229 -9.016,-0.922 -3.001,-0.664 -6.139,0.824 -8.52,2.695 5.078,-0.56 10.119,-0.528 15.021,0.113 0.044,0.006 0.088,0 0.129,-0.017 0.021,-0.009 0.042,-0.015 0.08,-0.01 0.028,0.004 0.064,0.014 0.116,0.032 0.035,0.027 0.076,0.044 0.119,0.05 4.755,0.658 9.34,1.889 13.627,3.659 0.591,0.247 1.085,0.394 1.51,0.452 z"
   id="path266-8" />
		</g>
		<g
   id="g275">
			<path
   style="fill:#ef7e20"
   d="m 80.215,217.46 c -1.955,1.237 -3.655,2.741 -5.239,4.325 0.845,-0.416 1.755,-0.795 2.775,-1.133 4.727,-1.563 10.537,-3.746 15.508,-3.1 2,0.259 3.711,0.332 5.395,0.164 -1.066,-0.285 -2.101,-0.701 -3.11,-1.113 -1.438,-0.588 -2.923,-1.194 -4.507,-1.412 -0.165,-0.022 -0.331,-0.041 -0.498,-0.055 -3.425,-0.283 -6.544,0.31 -9.361,1.791 -0.037,0.003 -0.074,0.014 -0.106,0.033 l -0.285,0.162 c -0.193,0.11 -0.386,0.219 -0.572,0.338 z"
   id="path267-1" />
			<path
   style="fill:#ef7e20"
   d="m 108.313,296.585 c -0.014,0.004 -0.028,0.008 -0.043,0.012 -2.089,0.601 -4.25,1.22 -6.374,1.746 -2.999,0.744 -5.703,1.31 -8.264,1.729 -0.081,0.014 -0.149,0.065 -0.185,0.14 -0.036,0.073 -0.033,0.16 0.008,0.23 0.397,0.701 0.797,1.341 1.201,1.954 3.06,-0.032 6.213,-0.796 8.297,-2.032 1.882,-1.118 3.61,-2.462 5.36,-3.779 z"
   id="path268-3" />
			<path
   style="fill:#ef7e20"
   d="m 106.775,269.993 c 0.024,-0.05 0.056,-0.092 0.079,-0.142 0.762,-1.594 1.131,-3.136 1.267,-4.655 -0.082,0.542 -0.175,1.083 -0.306,1.619 -0.267,1.099 -0.62,2.159 -1.04,3.178 z"
   id="path269-3" />
			<path
   style="fill:#ef7e20"
   d="m 166.819,262.538 c -0.931,-1.34 -1.709,-2.148 -2.937,-2.317 -0.908,-0.124 -2.042,0.105 -3.676,0.742 l -0.729,0.283 c -2.309,0.899 -4.696,1.828 -7.097,2.537 -3.669,1.082 -6.83,1.484 -9.662,1.229 -0.107,-0.01 -0.208,0.052 -0.252,0.149 -1.622,3.74 -2.815,6.928 -2.209,11.032 0.052,0.352 0.113,0.716 0.176,1.091 0.323,1.918 0.689,4.093 -0.028,5.833 -0.464,1.125 -1.202,2.141 -1.917,3.123 -0.491,0.677 -0.984,1.372 -1.406,2.108 3.566,-3.761 7.696,-6.079 6.177,-12.065 -0.837,-3.301 -2.021,-5.916 1.753,-7.978 2.489,-1.359 6.006,-1.01 8.751,-1.561 2.738,-0.55 5.122,-1.845 7.625,-3.008 2.568,-1.193 4.408,0.017 6.489,0.75 -0.309,-0.696 -0.651,-1.361 -1.058,-1.948 z"
   id="path270-9" />
			<path
   style="fill:#ef7e20"
   d="m 69.069,234.748 c 0.802,1.692 1.019,3.27 1.249,4.94 0.119,0.866 0.242,1.762 0.452,2.707 1.217,5.486 1.169,11.271 -0.151,18.206 -0.398,2.089 -0.581,4.22 -0.758,6.28 -0.359,4.173 -0.698,8.113 -2.656,11.906 -1.187,2.3 -2.827,4.351 -4.413,6.333 -0.363,0.453 -0.726,0.912 -1.087,1.373 1.412,-1.238 2.905,-2.403 4.203,-3.736 5.754,-5.915 5.47,-13.772 6.389,-21.383 0.421,-3.487 1.726,-6.669 1.729,-10.239 0.003,-4.296 -1.631,-8.2 -1.566,-12.48 0.066,-4.301 -1.673,-7.801 -4.304,-10.676 -0.886,0.175 -1.772,0.349 -2.644,0.556 -0.085,0.021 -0.153,0.084 -0.18,0.167 -0.027,0.083 -0.008,0.174 0.05,0.241 1.38,1.581 2.586,3.48 3.687,5.805 z"
   id="path271-7" />
			<path
   style="fill:#ef7e20"
   d="m 135.738,236.763 c -0.351,-0.483 -0.74,-0.94 -1.233,-1.316 -0.77,-0.586 -1.652,-1.08 -2.702,-1.51 l -0.716,-0.27 c -1.225,-0.422 -2.455,-0.72 -3.659,-0.885 -1.689,-0.231 -3.36,-0.206 -4.967,0.073 -0.738,0.128 -1.46,0.32 -2.171,0.535 1.018,0.17 2.044,0.407 3.102,0.811 2.654,1.014 5.391,1.583 8.196,1.98 1.391,0.198 2.776,0.37 4.15,0.582 z"
   id="path272-5" />
			<path
   style="fill:#ef7e20"
   d="m 110.096,238.145 c -0.386,2.585 -1.409,5.066 -2.412,7.485 -0.935,2.256 -1.902,4.589 -2.365,7.014 -0.014,0.072 0.005,0.145 0.051,0.203 0.886,1.103 1.564,2.439 2.063,3.898 -0.223,-1.674 -0.385,-3.385 -0.28,-5.17 0.269,-4.572 5.381,-9.167 2.943,-13.43 z"
   id="path273-4" />
			<path
   style="fill:#ef7e20"
   d="m 97.925,286.064 c 1.009,-2.074 1.063,-4.872 1.705,-7.25 -0.85,0.541 -1.74,0.997 -2.663,1.348 -0.087,0.033 -0.148,0.111 -0.16,0.204 -0.484,4.038 -1.576,7.798 -3.162,11.074 1.735,-1.513 3.244,-3.246 4.28,-5.376 z"
   id="path274-4" />
			<path
   style="fill:#ef7e20"
   d="m 59.225,298.975 c 3.598,0.554 7.316,0.254 10.973,0.32 -0.018,-0.005 -0.033,-0.011 -0.052,-0.016 -2.649,-0.6 -5.306,-1.359 -7.898,-2.259 -5,-1.734 -9.785,-3.862 -14.222,-6.323 -0.027,-0.015 -0.057,-0.024 -0.087,-0.028 -0.059,-0.009 -0.12,0.005 -0.171,0.038 -0.078,0.052 -0.121,0.142 -0.111,0.234 0.063,0.632 0.163,1.286 0.29,1.95 2.773,3.379 7.033,5.431 11.278,6.084 z"
   id="path275-9" />
		</g>
		<path
   style="fill:#ef7e20"
   d="m 34.369,269.01 c -0.841,-0.308 -1.765,-0.488 -2.68,-0.779 -4.328,-1.379 -4.925,-6.433 -3.554,-10.052 2.076,-5.483 8.195,-9.217 12.094,-13.358 2.027,-2.152 3.711,-4.605 5.909,-6.593 0.853,-0.771 1.635,-1.476 2.135,-2.307 -0.999,-0.04 -2.011,0.499 -2.963,1.105 -2.627,1.673 -5.135,3.542 -7.456,5.559 -3.846,3.488 -9.176,8.904 -11.062,15.66 -0.8,2.864 -1.677,6.881 -0.071,8.683 1.144,1.282 2.99,1.687 4.644,1.913 l 0.384,0.051 c 0.562,0.071 1.269,0.085 2.017,0.101 0.192,0.004 0.402,0.012 0.603,0.017 z"
   id="path276-6" />
		<g
   id="g282">
			<g
   id="g280">
				<path
   style="fill:#441203"
   d="m 49.678,253.259 c -1.226,-1.065 -2.728,-1.413 -4.118,-1.119 -2.823,0.598 -4.617,3.458 -3.667,6.563 0.335,1.096 1.077,2.046 2.284,2.616 2.244,1.061 4.815,-0.243 6.055,-2.164 1.151,-1.783 1.129,-4.434 -0.554,-5.896 z"
   id="path277-7" />
				<g
   id="g279">
					<path
   style="fill:#ffffff"
   d="m 46.842,254.67 c -0.475,-0.412 -1.057,-0.549 -1.596,-0.434 -1.095,0.232 -1.791,1.341 -1.422,2.544 0.129,0.425 0.417,0.794 0.885,1.016 0.87,0.411 1.867,-0.095 2.348,-0.839 0.447,-0.693 0.438,-1.719 -0.215,-2.287 z"
   id="path278-2" />
					<path
   style="fill:#ffffff"
   d="m 48.479,257.673 c -0.289,-0.248 -0.64,-0.331 -0.967,-0.262 -0.663,0.14 -1.084,0.811 -0.861,1.541 0.079,0.257 0.253,0.48 0.536,0.615 0.527,0.248 1.131,-0.058 1.422,-0.509 0.27,-0.418 0.265,-1.041 -0.13,-1.385 z"
   id="path279-1" />
				</g>
			</g>
			<g
   id="g281">
				<path
   style="fill:#441203"
   d="m 174.812,270.878 c -0.083,-3.681 -0.617,-8.056 -3.155,-10.926 -2.983,-3.373 -8.148,-1.065 -11.562,0.246 -6.555,2.52 -13.773,5.711 -20.838,3.421 -3.596,-1.166 -6.41,-3.682 -8.817,-6.593 5.557,-0.288 10.726,-3.511 12.822,-8.779 1.72,-4.325 -0.516,-9.055 -3.696,-12.037 -6.866,-6.438 -20.121,-6.583 -27.572,-1.12 -0.123,-0.083 -0.233,-0.175 -0.357,-0.257 -1.189,-0.784 -2.405,-1.511 -3.642,-2.187 2.603,-4.107 5.013,-8.923 2.558,-13.677 -1.976,-3.827 -6.885,-5.426 -10.767,-6.354 -5.742,-1.371 -12.188,0.371 -17.391,2.809 -5.619,2.635 -9.166,7.27 -13.384,11.589 -8.282,1.5 -16.309,4.539 -23.42,8.894 -2.898,1.775 -5.61,3.839 -8.174,6.066 -4.878,4.425 -9.286,9.57 -11.304,15.945 -0.936,2.958 -2.148,8.787 1.384,10.567 3.402,1.715 7.306,0.748 10.778,1.97 1.89,0.665 -1.737,4.446 -2.31,5.09 -1.046,1.172 -2.285,2.493 -2.389,4.142 -0.099,1.582 1.681,2.629 2.713,3.472 2.584,2.112 5.35,3.996 8.184,5.754 0.457,0.283 0.921,0.555 1.384,0.829 0.006,0.059 0.02,0.119 0.054,0.184 0.933,1.755 0.947,4.07 1.317,6.001 0.396,2.063 1.069,4.058 1.934,5.967 0.536,1.297 1.163,2.558 1.884,3.744 2.479,4.089 5.711,7.585 10.224,9.401 3.721,1.498 8.844,0.785 11.543,-2.402 3.003,-3.548 1.135,-7.933 1.838,-12.09 0.01,-0.054 0.001,-0.1 -0.005,-0.146 2.052,0.324 4.118,0.565 6.191,0.694 1.016,0.063 2.029,0.084 3.04,0.083 0.002,-10e-4 0.005,-10e-4 0.008,-10e-4 2.192,-0.003 4.372,-0.154 6.542,-0.408 3.28,7.833 11.705,13.356 20.187,13.224 4.639,-0.072 8.715,-2.496 11.54,-6.065 3.521,-4.448 0.178,-9.58 -1.386,-14.066 0.824,-0.119 1.65,-0.222 2.481,-0.291 3.936,-0.327 7.529,0.765 10.485,3.39 2.922,2.595 4.93,6.501 7.012,9.756 2.609,4.081 5.364,10.343 10.197,12.15 3.545,1.325 6.797,-1.266 8.954,-3.803 2.781,-3.271 4.579,-7.372 6.262,-11.278 2.735,-6.35 4.941,-12.938 6.717,-19.615 1.175,-4.421 2.039,-8.713 1.936,-13.293 z m -56.668,27.006 c 0.648,1.236 1.363,2.461 1.637,3.806 0.896,4.407 -3.015,7.531 -6.682,8.868 -3.747,1.366 -7.9,-0.007 -11.259,-1.741 -3.778,-1.952 -6.128,-4.896 -8.167,-8.499 2.78,-0.455 5.542,-1.053 8.284,-1.732 4.008,-0.994 8.006,-2.279 12.047,-3.316 3.023,-0.778 2.941,0.327 4.14,2.614 z m 7.325,-47.796 c -2.789,-4.122 -5.49,-7.971 -8.919,-11.275 -1.851,-1.784 -2.131,-3.069 0.176,-3.913 1.891,-0.691 3.771,-1.447 5.777,-1.797 2.889,-0.503 5.771,-0.14 8.502,0.801 0.056,0.02 0.112,0.041 0.167,0.061 0.182,0.064 0.361,0.136 0.541,0.206 0.936,0.383 1.829,0.857 2.641,1.476 1.326,1.009 2.021,2.555 2.704,4.021 1.524,3.271 2.595,5.993 1.019,9.504 -0.799,1.778 -1.956,3.318 -3.472,4.537 -3.062,2.466 -6.254,0.644 -7.998,-1.936 -0.385,-0.569 -0.764,-1.133 -1.138,-1.685 z m -53.24,54.502 c -0.225,1.49 -0.122,2.823 -0.746,4.252 -1.996,4.573 -8.66,2.837 -11.602,0.489 -1.189,-0.948 -1.982,-2.243 -3.223,-3.151 -1.611,-1.18 -3.118,-1.869 -4.408,-3.484 -1.986,-2.488 -3.926,-7.563 -4.347,-11.779 4.555,2.526 9.343,4.635 14.261,6.341 2.596,0.9 5.244,1.659 7.926,2.267 2.406,0.543 2.545,2.382 2.139,5.065 z m 0.363,-77.1 c 3.299,-0.433 6.569,-0.602 9.799,-0.508 4.281,0.125 6.25,1.9 7.053,4.716 0.614,2.156 0.695,4.494 0.574,6.771 -0.217,4.091 -1.922,7.806 -2.605,11.782 -4.254,1.204 -8.399,3.749 -9.388,4.481 -1.742,1.29 -3.194,2.89 -3.996,5.037 -1.599,4.283 0.323,9.692 2.592,13.341 0.913,1.468 2.071,2.759 3.386,3.87 -0.66,4.388 -0.005,8.819 -2.032,12.932 -1.132,2.297 -3.461,3.765 -5.314,5.425 -2.057,1.849 -1.888,3.487 -6.388,2.175 -3.009,-0.878 -5.965,-1.936 -8.842,-3.124 1.893,-6.094 7.144,-9.96 9.997,-15.485 2.987,-5.786 2.263,-12.093 3.437,-18.255 1.166,-6.122 1.503,-12.205 0.15,-18.306 -0.611,-2.756 -0.479,-5.086 -1.719,-7.701 -0.989,-2.088 -2.202,-4.116 -3.726,-5.861 2.308,-0.548 4.652,-0.979 7.022,-1.29 z m 35.691,10.161 c -0.186,2 -0.85,3.896 -1.724,6.043 -0.865,2.126 -2.394,4.738 -2.777,7.243 -0.271,-0.21 -0.551,-0.414 -0.848,-0.6 -4.15,-2.601 -8.735,-2.079 -13.185,-0.741 1.348,-7.172 4.195,-15.128 0.206,-21.897 5.153,0.831 10.178,2.368 15.028,4.628 2.551,1.189 3.479,3.39 3.3,5.324 z m -6.603,15.178 c 5.271,3.993 4.772,11.759 2.349,17.113 -2.662,5.883 -8.155,9.282 -14.612,8.688 -1.947,-0.18 -3.84,-0.399 -5.667,-1.142 -2.313,-0.94 -4.299,-2.793 -6.091,-4.599 -2.336,-3.301 -3.637,-7.867 -2.959,-11.797 0.395,-2.285 1.845,-4.012 3.633,-5.372 4.014,-3.054 16.638,-7.973 23.347,-2.891 z M 56.136,293.78 c 0.003,0.022 0.002,0.043 0.006,0.065 -0.012,-0.006 -0.025,-0.011 -0.037,-0.017 0.011,-0.016 0.02,-0.033 0.031,-0.048 z m 24.213,-76.11 c 0.276,-0.175 0.566,-0.329 0.85,-0.494 0.06,-0.005 0.122,-0.02 0.188,-0.055 2.83,-1.509 5.954,-1.999 9.133,-1.736 3.414,0.282 6.278,2.525 9.694,2.887 2.27,0.24 4.413,-0.104 6.197,1.718 1.177,1.202 0.751,3.052 0.417,4.491 -0.262,1.128 -0.583,2.224 -0.627,3.388 -0.086,2.287 -0.487,3.506 -3.351,2.323 -4.395,-1.814 -8.996,-3.026 -13.688,-3.676 -0.139,-0.107 -0.301,-0.116 -0.445,-0.055 -5.967,-0.78 -12.067,-0.66 -18.06,0.275 3.065,-3.246 5.85,-6.635 9.692,-9.066 z m -45.683,62.551 c -0.767,-1.514 1.878,-3.822 2.742,-4.794 0.963,-1.08 3.511,-3.916 1.897,-5.48 -1.583,-1.534 -5.516,-1.05 -7.523,-1.303 -1.689,-0.214 -3.684,-0.55 -4.873,-1.883 -1.633,-1.83 -0.455,-6.372 0.125,-8.448 1.726,-6.18 6.35,-11.334 10.989,-15.542 2.349,-2.041 4.831,-3.884 7.423,-5.534 2.108,-1.341 3.637,-1.776 5.426,0.766 0.96,1.364 1.587,2.974 2.802,4.413 1.708,2.023 3.927,3.153 5.191,5.605 2.138,4.144 1.477,9.811 1.742,14.337 0.33,5.625 -4.294,9.17 -6.821,13.623 -1.678,2.956 -3.879,4.895 -6.892,6.425 -0.931,0.474 -1.775,1.034 -2.552,1.673 -1.588,1.31 -2.449,1.928 -4.505,0.566 -1.79,-1.181 -4.299,-2.701 -5.171,-4.424 z m 9.542,7.341 c 1.625,-2.523 3.989,-4.621 6.724,-5.84 2.381,-1.061 3.699,-3.109 5.109,-5.226 3.459,-5.189 6.379,-10.111 6.547,-16.487 0.134,-5.097 -0.288,-11.056 -3.349,-15.296 -1.487,-2.061 -3.524,-3.685 -4.904,-5.821 -1.123,-1.741 -1.752,-3.577 -3.396,-4.774 2.757,-1.394 5.61,-2.591 8.539,-3.587 3.561,-1.208 4.738,-0.585 6.297,1.725 2.502,3.707 3.58,8.336 4.188,12.709 0.442,3.187 0.56,6.418 0.468,9.629 -0.089,3.098 -1.063,5.967 -1.604,8.992 -0.481,2.69 -0.285,5.474 -0.73,8.181 -0.534,3.245 -1.958,6.094 -3.77,8.803 -1.471,2.199 -3.51,3.962 -5.022,6.141 -0.75,1.08 -1.413,2.215 -2.074,3.352 -1.698,2.929 -2.117,3.402 -4.866,2.062 -2.802,-1.371 -5.523,-2.898 -8.157,-4.563 z M 72.69,299.08 c 2.054,-3.103 5.124,-5.449 6.984,-8.688 2.089,-3.638 1.613,-7.944 2.301,-11.966 1.911,1.223 4.035,2.119 6.219,2.62 1.058,0.243 2.103,0.341 3.129,0.324 1.164,0.024 2.352,-0.089 3.554,-0.341 -0.59,3.386 -1.444,7.186 -2.966,10.571 -0.354,0.61 -0.721,1.211 -1.097,1.79 -0.727,1.119 -1.528,2.189 -2.419,3.178 -2.14,2.376 -4.526,3.741 -7.949,3.523 -2.6,-0.165 -5.19,-0.511 -7.756,-1.011 z m 14.619,1.006 c 5.795,-4.667 8.878,-12.451 9.747,-19.69 5.677,-2.156 9.604,-7.777 11.003,-13.522 1.127,-4.629 0.566,-10.379 -2.494,-14.183 1.138,-5.954 5.29,-11.218 4.923,-17.378 5.554,3.593 9.482,8.415 13.219,13.94 1.621,2.39 1.042,4.176 -0.709,7.3 -2.428,4.327 -2.044,10.446 -2.315,15.099 -0.23,3.951 -2.646,7.357 -4.133,10.91 -0.755,1.804 -1.037,3.752 -1.649,5.603 -0.297,0.897 -0.664,1.768 -1.041,2.635 -1.375,3.161 -2.531,4.245 -6.083,5.209 -6.391,1.736 -12.794,3.409 -19.416,4.005 -0.351,0.031 -0.702,0.047 -1.052,0.072 z m 28.005,-6.138 c 0.45,-1.616 1.422,-3.056 1.954,-4.652 0.635,-1.906 0.861,-3.926 1.446,-5.848 0.951,-3.127 3.646,-5.536 4.354,-8.741 0.72,-3.261 -0.076,-6.448 -0.316,-9.719 -0.287,-3.902 1.745,-7.775 4.642,-10.275 2.316,3.258 4.938,6.349 8.351,8.341 0.381,0.223 0.765,0.428 1.149,0.614 2.499,1.211 3.128,2.198 2.323,4.285 -0.44,1.139 -0.737,2.329 -0.871,3.615 -0.29,2.781 0.666,5.522 0.923,8.268 0.336,3.592 -2.362,6.182 -4.158,8.949 -0.438,0.676 -0.831,1.447 -1.044,2.226 -0.047,0.172 -0.086,0.352 -0.12,0.538 -0.533,2.925 -2.091,2.55 -4.508,1.689 -4.44,-1.581 -9.488,-0.536 -14.125,0.71 z m 27.158,13.591 c -2.402,-3.58 -4.55,-7.76 -7.652,-10.818 1.278,-2.16 0.99,-4.626 1.848,-6.941 0.89,-2.398 2.987,-4.184 3.97,-6.566 0.887,-2.15 0.191,-4.867 -0.132,-7.056 -0.605,-4.099 0.602,-7.232 2.192,-10.896 3.194,0.289 6.463,-0.267 9.755,-1.238 2.66,-0.785 5.257,-1.822 7.845,-2.827 3.72,-1.448 4.77,-0.742 6.316,1.485 0.61,0.881 1.094,1.862 1.469,2.935 0.968,2.771 0.089,5.747 -0.196,8.559 -0.268,2.639 -0.122,5.26 -0.575,7.892 -0.467,2.71 -1.81,5.197 -2.413,7.88 -0.629,2.801 -0.623,5.718 -1.539,8.45 -0.805,2.402 -2.414,4.401 -3.68,6.56 -2.135,3.642 -4.331,6.779 -7.731,8.406 -3.034,1.453 -5.347,0.886 -7.269,-2.227 -0.835,-1.355 -1.57,-2.644 -2.208,-3.598 z"
   id="path280-0" />
				<path
   style="fill:#441203"
   d="m 53.852,260.149 c 1.861,-3.243 2.019,-7.662 -0.958,-10.344 -3.945,-3.557 -9.724,-2.782 -12.777,1.507 -0.018,0.025 -0.021,0.05 -0.033,0.074 -0.01,0.015 -0.023,0.021 -0.033,0.037 -2.657,4.526 -1.958,10.911 3.424,12.903 3.897,1.443 8.386,-0.708 10.377,-4.177 z m -12.925,-8.25 c 2.82,-3.923 8.199,-4.572 11.622,-1.024 2.236,2.317 1.983,5.79 0.625,8.458 -1.571,3.089 -4.914,4.729 -8.29,4.313 -5.788,-0.715 -6.321,-7.619 -3.957,-11.747 z"
   id="path281-1" />
			</g>
		</g>
	</g></g></svg>
