<?xml version="1.0" encoding="UTF-8" standalone="no"?>
<!-- Created with Inkscape (http://www.inkscape.org/) -->

<svg
   version="1.1"
   id="svg1"
   width="1206.3026"
   height="2398.2793"
   viewBox="0 0 1206.3026 2398.2793"
   xmlns="http://www.w3.org/2000/svg"
   xmlns:svg="http://www.w3.org/2000/svg">
  <defs
     id="defs1" />
  <g
     id="g1"
     transform="translate(-808.34522,-214.88885)">
    <g
       id="group-R5"
       transform="rotate(-49.741697,1414.2131,1414.2183)"
       style="fill:#000000">
      <path
         id="path2"
         d="m 18601,15031.2 c -1043.3,824.7 -1367.8,440 -1905.6,1056.5 -537.7,616.4 -530.6,1268.9 -908.2,1997.5 -534.5,1031.5 -2330.5,1115.4 -3224.5,114.2 -1123.9,-1258.7 163.1,-2159.1 -210.5,-3500.8 C 12079.6,13720.1 7107.04,9649 6289.43,9545.3 4907.79,9370 4223.75,10807.9 2800.39,9901.5 1668.26,9180.5 1461.72,7394.4 2393.69,6700.7 c 658.27,-490 1299.23,-560.5 1821.03,-1190.6 521.82,-630 93.95,-915.9 739.8,-2078.4 651.84,-1173.4 2392.65,-1482.7 3415.34,-613.4 900.58,765.5 456.92,1929.3 696.96,3393.1 130.44,795.5 5269.28,5256.8 6128.18,5209 1481.2,-82.4 2560.5,-624.3 3461.1,141.2 1022.7,869.3 997.8,2637.2 -55.1,3469.6"
         style="fill:#000000;fill-opacity:1;fill-rule:nonzero;stroke:none"
         transform="matrix(0.13333333,0,0,-0.13333333,0,2829.3333)" />
      <path
         id="path3"
         d="m 16262.9,15879.5 c 786.9,-771.7 2045.2,-1404.6 1796.2,-2729.3 -104.5,-416.3 -387.7,-853.4 -885.7,-883.9 -931.4,-136.8 -1501.6,688.1 -2398.7,973.2 -243.2,55.1 -556.9,115.9 -746.9,-45.6 C 11769.8,11536.5 9192.47,9869.6 8099.59,7303.7 7744.17,6412.3 8230.74,4992.5 7156.86,4407.1 6641.78,4165.7 6020.27,4357.6 5626.83,4743.5 4807.77,5707.1 3691.16,6578.7 2406.78,6691.4 3060.45,6210.1 3696.38,6136 4214.73,5510.1 c 521.81,-630 93.94,-915.9 739.79,-2078.4 651.84,-1173.4 2392.65,-1482.7 3415.34,-613.4 900.58,765.5 456.92,1929.3 696.96,3393.1 130.44,795.5 5269.28,5256.8 6128.18,5209 1481.2,-82.4 2560.5,-624.3 3461.1,141.2 1022.7,869.3 997.8,2637.2 -55.1,3469.6 -1043.3,824.7 -1367.8,440 -1905.6,1056.4 -537.7,616.5 -530.6,1269 -908.2,1997.6 -65.9,127.2 -151.2,240 -251.5,338.1 -73.2,-940.9 21.1,-1829 727.2,-2543.8"
         style="fill:#000000;fill-opacity:1;fill-rule:nonzero;stroke:none"
         transform="matrix(0.13333333,0,0,-0.13333333,0,2829.3333)" />
      <path
         id="path4"
         d="m 5518.62,5644.9 c -168.33,229.6 -347.28,448.1 -562.65,636.4 -385.4,337 -868.66,541.2 -1358.06,675.4 -138.84,38.1 -279.54,69.7 -420.37,99.4 -139.46,29.3 -287.77,60.9 -430.31,60 -25.11,-0.2 -30.76,-30.9 -8.82,-41.6 114.33,-55.8 241.78,-90.9 363.21,-129.4 120.17,-38.1 240.13,-76.5 358.81,-119.1 233.83,-84 466.34,-175.3 687.02,-290.1 220.85,-114.8 434.28,-251.9 624.3,-413.1 97.03,-82.3 185.04,-174.3 268.5,-270.2 92.21,-105.9 176.98,-227.6 284.76,-318.4 120.59,-101.6 231.93,-213.4 356.69,-310.6 124.03,-96.7 257.53,-168.3 409.59,-208.3 8.99,-2.4 17.23,7.7 10.65,15.5 -181.9,215.7 -415.71,385.5 -583.32,614.1"
         style="fill:#000000;fill-opacity:1;fill-rule:nonzero;stroke:none"
         transform="matrix(0.13333333,0,0,-0.13333333,0,2829.3333)" />
      <path
         id="path5"
         d="m 15105.8,18041.9 c -49.1,-116 -94.5,-227.9 -115.6,-353.2 -20.3,-120.6 -29.8,-240.3 -27.9,-362.6 4,-249.9 38.9,-496.4 112.4,-735.4 74.2,-241.4 178.1,-469 322.8,-676.4 152,-218 344.5,-397.9 557.3,-555.7 67.1,-49.8 140.5,-79.7 212.1,-120.8 72.4,-41.7 141.5,-93.8 208.8,-143.1 66,-48.3 134.6,-98.3 194.7,-153.7 27.8,-25.5 53,-53.3 78.9,-80.6 31.9,-33.6 71.8,-56.9 102.5,-90.4 29.3,-31.9 75.5,0.9 61.8,39.6 -12.9,36.4 -15.5,73.5 -33.1,108.5 -12.8,25.5 -31.1,49.3 -47.5,72.5 -43,60.7 -89.5,122 -142.3,174.3 -99.5,98.8 -217.7,178.2 -315.8,277.5 -103.4,104.8 -224.7,185.3 -336.4,280.6 -85.3,72.7 -162.7,155.4 -233.5,242.3 -293.5,360.2 -460.7,807.1 -512.6,1266.4 -14.8,130.5 -19.3,262.9 -19.4,394.1 -0.2,134.3 -7.5,268.7 -1,402.1 1.9,39.4 -51.1,49.6 -66.2,14"
         style="fill:#000000;fill-opacity:1;fill-rule:nonzero;stroke:none"
         transform="matrix(0.13333333,0,0,-0.13333333,0,2829.3333)" />
      <path
         id="path6"
         d="m 4894.26,6846.4 c -119.5,83.2 -253.12,149.8 -388.25,203.4 -138.82,55.2 -283.75,61.7 -430.51,74.8 -33.93,3 -45.29,-47.7 -12.44,-58.6 128.39,-42.8 243.68,-117.8 365.37,-176.4 123.52,-59.5 237.64,-135.6 347.74,-216.8 108.61,-80.2 198.05,-176.6 298.51,-265.6 50.8,-45 97.43,-87.3 140.12,-140.5 43.96,-54.8 86.89,-110.3 130.41,-165.5 49.01,-62.1 142.78,3.8 113.82,73 -56.84,135.8 -145.68,262.1 -232.55,380.6 -84.22,115 -216.15,210.8 -332.22,291.6"
         style="fill:#000000;fill-opacity:1;fill-rule:nonzero;stroke:none"
         transform="matrix(0.13333333,0,0,-0.13333333,0,2829.3333)" />
      <path
         id="path7"
         d="m 14685.7,16634.2 c -29.2,-73.7 -55.2,-151.9 -67.9,-230.1 -12.2,-75.5 -3.1,-152.5 11.2,-227.3 31.8,-165.6 99.2,-317.2 191.2,-457.6 104.2,-159 237.6,-288.6 388.6,-403 154.2,-116.9 330.8,-224.6 513.1,-291.3 21.6,-8 41,19.8 25.6,37.2 -117.8,132.8 -261.8,244.3 -391.9,364.7 -126.7,117.2 -250.6,246.9 -349.2,388.8 -78.2,112.4 -142.8,245 -177.5,377.6 -17.4,66.3 -24,134 -36.6,201 -14.1,74.8 -20.2,143.9 -10.2,219.6 7.6,57.6 -76.3,71.5 -96.4,20.4"
         style="fill:#000000;fill-opacity:1;fill-rule:nonzero;stroke:none"
         transform="matrix(0.13333333,0,0,-0.13333333,0,2829.3333)" />
      <path
         id="path8"
         d="m 6164.7,9340.5 c -80.57,-1.8 -162.58,-29.6 -240.87,-33.1 -73.76,-3.3 -155.57,5.7 -230.89,19.2 -73.27,13.1 -142.08,40.1 -210.8,67.8 -73.84,29.8 -145.95,61.8 -208.49,111.5 -34.13,27.1 -77.37,-23.9 -50.33,-56 55.61,-66.1 112.43,-130.7 183.6,-180.3 72.73,-50.8 159.8,-86.6 244.61,-111.6 85.54,-25.2 174.45,-37.2 263.61,-36.4 88.06,0.9 202.95,2.2 279.81,50.1 34,21.2 57.34,53.9 49.9,95.9 -6.36,36 -41.36,73.7 -80.15,72.9"
         style="fill:#000000;fill-opacity:1;fill-rule:nonzero;stroke:none"
         transform="matrix(0.13333333,0,0,-0.13333333,0,2829.3333)" />
      <path
         id="path9"
         d="m 6046.35,9038.2 c -45.89,27 -93.93,-2 -139.37,-18.3 l -2.79,-0.8 -5.12,-1.8 -0.73,-0.2 -2.52,-1 1.71,0.8 c -7.14,-2 -14.3,-3.8 -21.52,-5.5 -16.21,-3.6 -32.62,-6.2 -49.15,-7.9 l -11.79,-1 -4.72,-0.3 c -5.46,-0.3 -3.14,-0.2 6.95,0.3 l -18.85,-0.8 c -6.34,-0.3 -12.28,-0.9 -18.52,-1.7 -7.63,-1 -15.27,-1.6 -22.94,-2.2 l -0.22,-0.1 -11.22,-0.1 c -7.87,0 -15.72,0.2 -23.57,0.6 -4.64,0.3 -9.36,0.5 -13.98,1.1 l -6.19,1.1 -8.02,1.8 -11.51,3 c -8.39,2.3 -16.65,4.9 -24.88,7.8 -22.76,7.8 -48.76,-2.6 -59.27,-24.3 -10.01,-20.6 -5.49,-49.4 15.73,-62 32.7,-19.5 68.24,-35.6 103.91,-48.9 37.43,-13.9 76.02,-22.9 116.07,-21.7 39.77,1.1 79.03,4.8 117.48,15.4 21.45,5.8 43.98,12 64.39,21.2 13.78,6.2 25.2,15.6 35.93,25.9 19.2,18.5 27.08,36.6 27.78,59.5 l 0.33,1.1 c 7.83,27.6 -7.18,51.7 -33.4,59"
         style="fill:#000000;fill-opacity:1;fill-rule:nonzero;stroke:none"
         transform="matrix(0.13333333,0,0,-0.13333333,0,2829.3333)" />
      <path
         id="path10"
         d="m 12600,15294.5 c 1.9,-73.4 -0.7,-148 -6.2,-221.4 -28.6,-53.2 -17,-128.1 -22.2,-186.7 -5.2,-59 -12.3,-118.3 -22.9,-176.6 -20.3,-111.7 -47.6,-229.4 -91.6,-334.2 -18.6,-44.2 45.6,-72.4 72.4,-36.5 38,50.8 74.8,99.3 105.4,155.4 31.7,58.1 58.3,117.3 78.8,180.3 20.3,62.4 35.7,125.9 45.3,190.8 10.1,67.2 27.5,148 -4.9,209.6 -9.8,81.7 -29,158.8 -57.7,236.6 -17,46.2 -97.7,32.9 -96.4,-17.3"
         style="fill:#000000;fill-opacity:1;fill-rule:nonzero;stroke:none"
         transform="matrix(0.13333333,0,0,-0.13333333,0,2829.3333)" />
      <path
         id="path11"
         d="m 13013.7,15223.9 c -15.4,9.6 -31.7,14.3 -49.9,13.4 -37.4,-1.7 -78.7,-33.6 -77.9,-74.5 0.5,-23.4 0.3,-46.4 2.3,-69.7 l 0.9,-11.7 c 0.2,-8.2 0.3,-16.4 0.5,-24.6 0.8,-34.8 -0.6,-69.5 -5.2,-104 -2.2,-16.7 -5.1,-33.3 -7.4,-50 -1.2,-9.1 -2.7,-18.1 -4.3,-27.2 l -1.9,-10 -0.3,-1.2 c -8.6,-34.5 -19,-68.1 -32.7,-101 -11.5,-27.3 4.6,-59.7 29.5,-72.3 26.8,-13.5 58,-5 75.7,19.2 45.2,61.6 84.6,133.6 101.1,208.6 18,81.5 29.4,170.4 4.2,251.6 -6.5,20.9 -14.7,41.2 -34.6,53.4"
         style="fill:#000000;fill-opacity:1;fill-rule:nonzero;stroke:none"
         transform="matrix(0.13333333,0,0,-0.13333333,0,2829.3333)" />
      <path
         id="path12"
         d="m 14849.3,14767.2 c -12.9,8.7 -27.2,13.7 -42.7,15.1 -7.5,-0.4 -15.1,-0.7 -22.6,-1.1 -15.8,-2.8 -29.8,-9.4 -42,-19.8 -9.6,-7.5 -16.6,-16.8 -21.1,-27.9 -6,-9.9 -9.3,-20.7 -9.8,-32.5 -1.4,-11.7 0.1,-22.9 4.5,-33.6 2.6,-11.6 8,-22 16.3,-31 5.9,-5.3 11.8,-10.6 17.7,-15.9 12.9,-8.7 27.1,-13.7 42.7,-15 7.5,0.3 15.1,0.7 22.6,1.1 15.8,2.8 29.7,9.4 42,19.7 9.6,7.6 16.6,16.9 21.1,28 6,9.8 9.3,20.6 9.8,32.4 1.4,11.7 -0.1,22.9 -4.5,33.6 -2.6,11.7 -8,22 -16.3,31 -5.9,5.3 -11.8,10.6 -17.7,15.9"
         style="fill:#000000;fill-opacity:1;fill-rule:nonzero;stroke:none"
         transform="matrix(0.13333333,0,0,-0.13333333,0,2829.3333)" />
      <path
         id="path13"
         d="m 15221.4,13831.3 c -133.7,-113.7 42.8,-321.8 176.7,-207.9 133.8,113.7 -42.7,321.8 -176.7,207.9"
         style="fill:#000000;fill-opacity:1;fill-rule:nonzero;stroke:none"
         transform="matrix(0.13333333,0,0,-0.13333333,0,2829.3333)" />
      <path
         id="path14"
         d="m 15553.1,14539.4 c -80.3,-68.2 25.6,-193 106,-124.7 80.2,68.2 -25.6,193.1 -106,124.7"
         style="fill:#000000;fill-opacity:1;fill-rule:nonzero;stroke:none"
         transform="matrix(0.13333333,0,0,-0.13333333,0,2829.3333)" />
      <path
         id="path15"
         d="m 16126.6,14066.6 c -12.6,-2.3 -23.8,-7.6 -33.7,-15.9 -9.7,-8.3 -16.7,-18.5 -21,-30.6 l -2,-8.7 -1,-4.3 -0.4,-2 -0.3,-1.2 c -1.1,-4.9 -2.1,-9.9 -3.2,-14.9 -0.4,-5.2 -0.1,-10.4 0.8,-15.5 3.7,-20.8 18.7,-38.5 38.7,-45.6 l 7.7,-1.6 c 7.4,-2.2 15,-2.5 22.7,-0.9 l 1,0.1 2.2,0.1 4.5,0.3 8.8,0.6 c 12.7,2.3 23.9,7.6 33.7,15.8 9.7,8.4 16.8,18.6 21.1,30.7 8.2,23.7 3.3,50.5 -13,69.6 -16.2,19.1 -41.9,28.3 -66.6,24"
         style="fill:#000000;fill-opacity:1;fill-rule:nonzero;stroke:none"
         transform="matrix(0.13333333,0,0,-0.13333333,0,2829.3333)" />
      <path
         id="path16"
         d="m 16345.4,13094.8 c -125.2,-106.4 40,-301.1 165.3,-194.6 125.2,106.4 -39.9,301.1 -165.3,194.6"
         style="fill:#000000;fill-opacity:1;fill-rule:nonzero;stroke:none"
         transform="matrix(0.13333333,0,0,-0.13333333,0,2829.3333)" />
      <path
         id="path17"
         d="m 16862.6,14252 c -18.7,12.6 -39.4,19.9 -61.9,21.8 -11,-0.5 -21.9,-1 -32.9,-1.5 -22.8,-4.2 -43.1,-13.7 -60.8,-28.7 -13.9,-11 -24.1,-24.5 -30.6,-40.6 -8.8,-14.2 -13.6,-29.9 -14.3,-47 -2,-17 0.2,-33.3 6.5,-48.8 3.8,-16.9 11.7,-31.9 23.7,-44.9 l 25.6,-23.1 c 18.8,-12.6 39.5,-19.9 62,-21.8 10.9,0.5 21.9,1 32.9,1.5 22.8,4.1 43.1,13.7 60.8,28.7 13.9,10.9 24.1,24.5 30.6,40.5 8.8,14.3 13.5,30 14.3,47.1 2,17 -0.2,33.2 -6.6,48.7 -3.7,16.9 -11.6,31.9 -23.6,45 l -25.7,23.1"
         style="fill:#000000;fill-opacity:1;fill-rule:nonzero;stroke:none"
         transform="matrix(0.13333333,0,0,-0.13333333,0,2829.3333)" />
      <path
         id="path18"
         d="m 17261.8,13773.9 c -120.4,-102.3 38.4,-289.6 159,-187.1 120.4,102.4 -38.4,289.6 -159,187.1"
         style="fill:#000000;fill-opacity:1;fill-rule:nonzero;stroke:none"
         transform="matrix(0.13333333,0,0,-0.13333333,0,2829.3333)" />
      <path
         id="path19"
         d="m 6233.5,7212.1 c -19.79,6.8 -39.99,8.5 -60.61,4.9 -21.27,-3.8 -40.16,-12.7 -56.69,-26.7 -16.44,-14 -28.27,-31.2 -35.5,-51.6 -6.81,-19.8 -8.46,-40 -4.9,-60.6 3.84,-21.3 12.74,-40.2 26.7,-56.7 14.06,-16.5 31.29,-28.3 51.65,-35.5 l 9,-2.8 c 9.5,-2 19.02,-4 28.52,-6 l 0.67,-0.1 h 0.85 1.84 l 4.03,-0.1 c 14.04,-1.7 27.46,0.1 40.27,5.4 13.95,3.1 26.32,9.6 37.1,19.5 6.35,7.1 12.71,14.1 19.06,21.2 10.44,15.5 16.45,32.5 18.01,51.2 l 0.54,3.8 c 1.55,11.2 1.24,17.2 -0.88,32.6 l -1.3,9.3 c -3.85,21.3 -12.75,40.2 -26.72,56.7 -14.06,16.5 -31.28,28.3 -51.64,35.5"
         style="fill:#000000;fill-opacity:1;fill-rule:nonzero;stroke:none"
         transform="matrix(0.13333333,0,0,-0.13333333,0,2829.3333)" />
      <path
         id="path20"
         d="m 6486.62,6461.7 c -105.09,-89.4 33.57,-252.9 138.85,-163.4 105.09,89.4 -33.57,252.8 -138.85,163.4"
         style="fill:#000000;fill-opacity:1;fill-rule:nonzero;stroke:none"
         transform="matrix(0.13333333,0,0,-0.13333333,0,2829.3333)" />
      <path
         id="path21"
         d="m 7186.38,6178.6 c -9.03,4.6 -18.05,9.1 -27.07,13.7 -9.76,2 -19.51,4.1 -29.26,6.2 -9.96,-0.5 -19.92,-1 -29.87,-1.4 -9.64,-3.1 -19.28,-6.1 -28.92,-9.1 -14.99,-6.4 -27.29,-15.9 -36.88,-28.7 -8.02,-6.8 -13.79,-15.2 -17.31,-25.2 -7.99,-12.9 -12.34,-27.2 -13.02,-42.7 -0.87,-4.9 -1.74,-9.8 -2.61,-14.7 -1.62,-13.7 0.14,-26.8 5.27,-39.2 3.06,-13.6 9.4,-25.7 19.05,-36.2 6.87,-6.2 13.76,-12.4 20.65,-18.6 15.11,-10.2 31.74,-16 49.88,-17.6 4.96,0.1 9.91,0.2 14.86,0.3 9.95,0.4 19.92,0.9 29.87,1.4 9.65,3 19.28,6 28.92,9.1 15,6.3 27.29,15.9 36.88,28.6 8.02,6.8 13.79,15.2 17.31,25.2 5.75,8.5 9.06,17.9 9.91,28.1 3.34,9.7 4.14,19.5 2.4,29.6 0.8,10.2 -0.94,20 -5.24,29.4 -3.45,15.3 -10.62,29 -21.51,40.8 -7.77,7 -15.54,14 -23.31,21"
         style="fill:#000000;fill-opacity:1;fill-rule:nonzero;stroke:none"
         transform="matrix(0.13333333,0,0,-0.13333333,0,2829.3333)" />
      <path
         id="path22"
         d="m 7160.5,7230.2 c -100.51,33.7 -157.42,-112.8 -62.29,-157.7 102.87,-48.6 169.99,121.5 62.29,157.7"
         style="fill:#000000;fill-opacity:1;fill-rule:nonzero;stroke:none"
         transform="matrix(0.13333333,0,0,-0.13333333,0,2829.3333)" />
      <path
         id="path23"
         d="m 6655.24,5502.6 c -19.14,6.6 -38.67,8.2 -58.62,4.8 -20.57,-3.8 -38.85,-12.4 -54.84,-25.9 -15.9,-13.6 -27.34,-30.2 -34.33,-49.9 -6.59,-19.2 -8.18,-38.7 -4.75,-58.7 3.72,-20.5 12.34,-38.8 25.84,-54.8 13.6,-15.9 30.25,-27.3 49.96,-34.3 l 11.87,-4.9 c 18.02,-6.3 36.42,-7.7 55.19,-4.5 19.37,3.5 36.57,11.6 51.63,24.3 14.96,12.8 25.74,28.5 32.31,47 6.22,18 7.7,36.4 4.48,55.2 l -2.95,12.5 c -3.72,20.6 -12.33,38.9 -25.83,54.9 -13.61,15.9 -30.26,27.3 -49.96,34.3"
         style="fill:#000000;fill-opacity:1;fill-rule:nonzero;stroke:none"
         transform="matrix(0.13333333,0,0,-0.13333333,0,2829.3333)" />
      <path
         id="path24"
         d="m 6229.21,6497.9 c -11.74,10.6 -23.44,21.1 -35.17,31.7 -13.6,6.8 -27.21,13.7 -40.82,20.6 -21.76,8.4 -43.97,11.2 -66.65,8.2 -15.46,1.2 -30.23,-1.4 -44.33,-7.9 -15.65,-2.8 -29.55,-9.4 -41.7,-19.6 -14.62,-6.9 -26.53,-17.1 -35.72,-30.4 -12.09,-10.3 -20.79,-23 -26.11,-38 -12.05,-19.5 -18.59,-41.1 -19.62,-64.5 0.69,-15 1.4,-30 2.1,-45.1 4.58,-14.5 9.16,-29 13.74,-43.6 8.52,-13.2 17.04,-26.5 25.56,-39.8 11.72,-10.5 23.44,-21.1 35.16,-31.6 13.61,-6.9 27.21,-13.7 40.82,-20.6 21.75,-8.5 43.97,-11.2 66.65,-8.3 15.46,-1.2 30.23,1.5 44.33,8 23.16,5.2 43.69,16 61.6,32.4 l 8.13,5.4 c 18.17,14.3 31.47,31.9 39.9,52.9 11.47,18.6 17.69,39.1 18.67,61.4 -0.66,14.3 -1.33,28.6 -1.99,42.8 -5.39,29.8 -17.86,56.3 -37.41,79.4 l -7.14,6.6"
         style="fill:#000000;fill-opacity:1;fill-rule:nonzero;stroke:none"
         transform="matrix(0.13333333,0,0,-0.13333333,0,2829.3333)" />
      <path
         id="path25"
         d="m 7273.56,5429.4 c -5.87,2.9 -11.74,5.9 -17.59,8.8 l -9.52,2 c -9.44,2.9 -19.08,3.2 -28.92,1.1 -6.27,-1.9 -12.53,-3.9 -18.8,-5.9 -12.6,-5.9 -22.87,-14.7 -30.79,-26.1 l -7.72,-13.1 -0.42,-0.7 -0.24,-0.4 c -5.51,-9.4 -4.89,-8.3 -6.62,-16.5 l -1.21,-5.7 c -0.71,-6 0.07,-11.8 2.34,-17.4 l 1.9,-5.9 0.39,-1 1.36,-3.5 2.75,-7.1 0.77,-1.9 0.38,-1 0.17,-0.5 c 5.21,-13.1 9.85,-16.2 18.68,-24.1 l 7.58,-6.9 c 8.2,-6 17.23,-9.6 27.1,-10.8 6.28,-2.2 12.68,-2.7 19.22,-1.6 9.95,-0.4 19.45,1.8 28.5,6.4 l 8.58,5.5 c 9.17,4.8 16.57,11.7 22.21,20.6 2.96,5.9 5.92,11.8 8.87,17.6 3.66,9.4 4.85,19 3.58,28.8 l -0.46,9.7 c -1.41,10.2 -5.23,19.4 -11.43,27.3 -4.82,9.2 -11.7,16.6 -20.66,22.3"
         style="fill:#000000;fill-opacity:1;fill-rule:nonzero;stroke:none"
         transform="matrix(0.13333333,0,0,-0.13333333,0,2829.3333)" />
      <path
         id="path26"
         d="m 6273.75,4845 c -55.41,-47.1 17.7,-133.3 73.2,-86.1 55.42,47.1 -17.7,133.3 -73.2,86.1"
         style="fill:#000000;fill-opacity:1;fill-rule:nonzero;stroke:none"
         transform="matrix(0.13333333,0,0,-0.13333333,0,2829.3333)" />
      <path
         id="path27"
         d="m 7407.46,6769.5 c -52.55,-44.7 16.78,-126.4 69.42,-81.7 52.55,44.7 -16.79,126.4 -69.42,81.7"
         style="fill:#000000;fill-opacity:1;fill-rule:nonzero;stroke:none"
         transform="matrix(0.13333333,0,0,-0.13333333,0,2829.3333)" />
      <path
         id="path28"
         d="m 6937.21,7798.7 c -50.65,-43.1 16.16,-121.9 66.89,-78.7 50.63,43 -16.18,121.8 -66.89,78.7"
         style="fill:#000000;fill-opacity:1;fill-rule:nonzero;stroke:none"
         transform="matrix(0.13333333,0,0,-0.13333333,0,2829.3333)" />
      <path
         id="path29"
         d="m 5354.87,7164.3 c -13.91,9.3 -29.22,14.7 -45.94,16.1 -16.72,1.3 -32.7,-1.5 -47.95,-8.5 -15.82,-7.5 -28.69,-18.5 -38.64,-32.9 -9.37,-13.9 -14.76,-29.2 -16.18,-45.9 -0.99,-12.9 1.24,-25.1 5.14,-37.1 1.59,-5.6 3.22,-11.2 4.84,-16.8 2.17,-6.9 4.35,-13.8 6.53,-20.7 4.55,-10.8 11.39,-19.6 20.5,-26.4 4.92,-5.8 10.93,-9.9 18.05,-12.5 9.31,-5.7 19.53,-8.8 30.67,-9.3 7.13,0.3 14.27,0.7 21.41,1 6.91,2.2 13.82,4.4 20.73,6.5 10.74,4.6 19.55,11.4 26.42,20.5 8.17,7.7 13.95,16.9 17.31,27.8 2.49,5.3 5,10.5 7.48,15.8 5.78,11.2 9.95,22.9 11.04,35.8 1.3,16.7 -1.56,32.7 -8.57,47.9 -7.48,15.8 -18.43,28.7 -32.84,38.7"
         style="fill:#000000;fill-opacity:1;fill-rule:nonzero;stroke:none"
         transform="matrix(0.13333333,0,0,-0.13333333,0,2829.3333)" />
      <path
         id="path30"
         d="m 3796.25,7357 c -87.9,-74.7 28.07,-211.5 116.12,-136.6 87.9,74.7 -28.07,211.4 -116.12,136.6"
         style="fill:#000000;fill-opacity:1;fill-rule:nonzero;stroke:none"
         transform="matrix(0.13333333,0,0,-0.13333333,0,2829.3333)" />
      <path
         id="path31"
         d="m 14696.9,17087.7 c -11.7,7.2 -24.7,11.2 -38.8,11.8 -18.6,1.4 -36.5,-1.7 -53.4,-9.5 -17.6,-8.4 -32,-20.6 -43.1,-36.6 l -8.9,-11.2 c -4,-8 -8.1,-16 -12.1,-24 -5,-12.7 -6.6,-25.8 -4.8,-39 -0.7,-9.1 0.8,-17.8 4.6,-26 3.1,-13.6 9.4,-25.6 19,-36.1 6.9,-6.2 13.7,-12.4 20.6,-18.6 8,-4 16,-8 23.9,-12 12.8,-5 25.8,-6.6 39.1,-4.9 13.5,-0.5 26.4,2.4 38.8,8.7 l 12.5,7 c 17.6,8.4 32,20.6 43,36.6 10.5,15.5 16.5,32.5 18.1,51.2 -0.5,9 -0.9,18.1 -1.3,27.1 -3.4,18.8 -11.3,35.6 -23.7,50.2 -9,11.5 -20.2,20 -33.5,25.3"
         style="fill:#000000;fill-opacity:1;fill-rule:nonzero;stroke:none"
         transform="matrix(0.13333333,0,0,-0.13333333,0,2829.3333)" />
      <path
         id="path32"
         d="m 2108.75,7887.4 c 9.94,227.6 82.46,447.7 165.66,659.8 132.59,338.1 294.1,664.8 482.17,975.4 72.65,120 151.9,240.4 265.51,322.7 121.39,87.9 273.01,125.1 422.49,136.1 717.56,53.2 1367.39,-454.2 1774.52,-1047.4 47.41,-69.1 93.98,-143.4 101.14,-226.9 19.67,-229.5 -254.88,-371.4 -485.01,-380.1 -309.13,-11.7 -615.4,95.5 -923.65,69.4 -559.67,-47.3 -991.48,-518.4 -1259.67,-1012 -287.97,-530.1 -555.03,230.9 -543.16,503"
         style="fill:#000000;fill-opacity:1;fill-rule:nonzero;stroke:none"
         transform="matrix(0.13333333,0,0,-0.13333333,0,2829.3333)" />
      <path
         id="path33"
         d="m 12459.4,17189.7 c 55.1,427.2 258.9,845.8 604.5,1102.9 345.6,257.1 839.6,326.5 1217.3,119.5 69.2,-37.9 135.8,-86.2 176,-154.1 44.1,-74.5 52.1,-165 47.9,-251.5 -16.8,-344.5 -205.9,-655.7 -280.7,-992.3 -80.6,-362.6 -25.8,-741.9 62,-1102.9 16,-65.9 33.1,-135.7 13.3,-200.7 -40.3,-132.7 -216.1,-176.5 -348.7,-135.4 -132.5,41.1 -238.5,138.9 -358,209.6 -242.1,143.2 -549.2,171 -813.5,73.4 -316.6,-115.9 -347.5,1118.6 -320.1,1331.5"
         style="fill:#000000;fill-opacity:1;fill-rule:nonzero;stroke:none"
         transform="matrix(0.13333333,0,0,-0.13333333,0,2829.3333)" />
      <path
         id="path34"
         d="m 9283.53,11077.1 c -731.41,-552.9 -1515.65,-1041.4 -2182.69,-1670.5 -98.21,-92.6 -197.41,-247.9 -105.95,-347.2 43.95,-47.8 115.22,-56.7 180.1,-58.1 395.07,-8.9 774.75,146.7 1127.04,325.7 1214.61,617.2 2248.67,1533.6 3235.37,2473.2 395.5,376.6 805.5,793.9 907.6,1330.4 50.2,264.1 -57.1,647.5 -395,552.2 -304.9,-86.1 -591.2,-603.2 -798.7,-826.9 -602.3,-648.9 -1261.49,-1245 -1967.77,-1778.8"
         style="fill:#000000;fill-opacity:1;fill-rule:nonzero;stroke:none"
         transform="matrix(0.13333333,0,0,-0.13333333,0,2829.3333)" />
    </g>
  </g>
</svg>
