<?xml version="1.0" encoding="UTF-8" standalone="no"?>
<!-- Created with Inkscape (http://www.inkscape.org/) -->

<svg
   version="1.1"
   id="svg1"
   width="2829.3333"
   height="2829.3333"
   viewBox="0 0 2829.3333 2829.3333"
   xmlns="http://www.w3.org/2000/svg"
   xmlns:svg="http://www.w3.org/2000/svg">
  <defs
     id="defs1" />
  <g
     id="g1">
    <g
       id="group-R5">
      <path
         id="path2"
         d="m 17119.6,14940.8 c -75.9,94 -450.3,444.2 -476.3,184 -14.5,-144.5 135.9,-334.5 179.6,-470.1 63.2,-195.4 113,-395.2 149.1,-597.4 147.9,-827.3 64.4,-1695.3 -261.1,-2471.7 -177,-422.1 -399.5,-705.4 -700.2,-935.8 -124.6,129.2 -269.1,238.1 -433.4,318.3 -352.3,171.9 -754.3,199.9 -1142.9,250.5 -418.6,54.5 -833.1,138.9 -1240.1,251.1 -583.3,242.7 -1190.7,440.7 -1723.1,779.1 -476.2,302.7 -876.7,718.2 -1172.1,1198.5 -180.5,293.5 -321.8,611.2 -416.99,942 -2.6,9 -4.79,17.6 -7.29,26.6 76.77,99 153.58,198.1 230.38,297.2 125.7,162.3 253.8,328.8 317.2,524.1 85.5,263.5 44.3,549.4 -2.9,822.3 -52.9,305.7 -112.7,610.2 -178.5,913.5 70.8,-87.4 145.7,-172.6 226.3,-255 450.6,-460.2 1026.4,-813.5 1660.6,-925.8 101.5,-17.9 208.1,-29.3 305.8,3.5 97.7,32.9 183.5,121.3 182.4,224.4 -1.2,117.6 -105.6,203.6 -194.7,280.6 -375,324 -626.3,787.7 -693,1278.8 -32.6,240 -22.7,485.3 -69,723.1 -79.3,407.5 -923.7,1652.4 -1400,1073.4 -132.4,-160.9 -343.73,-253.6 -551.81,-242.1 -194.79,10.8 -413.01,100.5 -569.36,-16.1 -42,-31.4 -71.87,-64.7 -92.62,-99.4 -687.45,213.1 -1424.25,265.7 -2134.9,151.3 -154.17,-24.8 -311.06,-60.3 -459.17,-113.6 -17.81,21.2 -39.46,41.8 -66.04,61.7 -156.4,116.6 -374.61,26.9 -569.41,16.1 -208.08,-11.5 -419.33,81.2 -551.76,242.1 -476.34,579 -1320.78,-665.9 -1400.04,-1073.4 -46.24,-237.8 -36.4,-483.1 -69,-723.1 -66.75,-491.1 -318.04,-954.8 -693.05,-1278.8 -89.02,-77 -193.37,-163 -194.64,-280.6 -1.08,-103.1 84.72,-191.5 182.36,-224.4 97.69,-32.8 204.34,-21.4 305.82,-3.5 634.2,112.3 1210.04,465.6 1660.61,925.8 118.61,121.1 225,248.3 323.52,380 -87.5,-365.3 -169.98,-731.7 -246.25,-1099.5 -37.17,-179 -73.13,-362.5 -47.4,-543.5 39.55,-278 217.97,-513.5 390.4,-735.1 156.67,-201.6 313.39,-403.1 470.08,-604.6 -33.16,-82.2 -57.79,-166.5 -70.28,-251.7 -38.2,-261.1 46.77,-520.4 297.2,-639.1 125.83,-59.6 254.37,-87.8 382.38,-91.3 87.07,-538.4 119.67,-1085.6 96.16,-1630.4 -14.04,-326.2 -47.84,-654.6 -68.84,-981.9 -28.9,-451.7 -33.77,-901.3 70.25,-1339.5 96.36,-405.7 286.53,-781.9 540.8,-1111.9 282.67,-913.1 471.95,-1855.7 555.91,-2808 63.77,-722.7 147.29,-1524.1 -62.07,-2231.4 -59.2,-200.7 -142.26,-393.8 -255.94,-575.4 -165.3,-264 -403.7,-507.9 -436.09,-832.7 -4.58,-45.9 -4.1,-94.6 18.16,-135.1 38.4,-69.5 126,-92.2 204.5,-104.6 340.41,-53.9 690.91,-43.5 1027.52,30.5 97.58,21.5 197.37,49.9 273.77,114.3 71.66,60.3 116.04,146.4 155.21,231.5 212.81,462.6 326.05,969.9 336.13,1478.9 3.95,197.9 -8.81,396.9 -11.06,595.3 -2.04,194 5.85,387.6 49.6,578.6 96.95,423 196.1,847.1 289.55,1272.1 74.88,341 149.36,683.2 199.39,1028.4 41.51,-7.5 83.12,-14.5 124.84,-21 93.94,-472.4 163.5,-949.6 205.81,-1429.4 56.51,-642.1 129,-1346.8 -2.69,-1992.1 -58.41,-286.9 -157.12,-561.9 -315.47,-814.7 -165.3,-264 -403.7,-507.9 -436.1,-832.7 -4.58,-45.9 -4.09,-94.6 18.17,-135.1 38.4,-69.5 126.15,-92.2 204.49,-104.6 340.56,-53.9 690.96,-43.5 1027.56,30.5 97.5,21.5 197.5,49.9 273.9,114.3 71.5,60.3 115.9,146.4 155.1,231.5 212.8,462.6 326,969.9 336.1,1478.9 5.3,266.1 -19.6,534.2 -8.4,799.9 5.2,125.4 18.5,250.2 46.9,374 96.9,423 196.1,847.1 289.6,1272.1 73.5,334.5 146.5,670.1 196.5,1008.6 220.4,-231.3 479.8,-428.1 718.8,-642.2 260.9,-233.6 508.3,-510 629.8,-833.8 -1.3,-244.7 -7.9,-489.4 -27.2,-733.3 -45.3,-570.8 -160,-1146.1 -427,-1655 -36.6,-70.1 -76.4,-139.1 -119.2,-206.5 -141.3,-222.8 -315,-427.4 -420.6,-669.1 -34,-77.7 -58.6,-174 -8.2,-242.1 33.6,-45.3 91.3,-64.6 145.7,-79.1 283.1,-75 582,-90.1 871.3,-44 96.9,15.6 195.2,38.8 277.3,92.6 92.1,60.2 156.7,153.7 213.8,247.6 230.9,378.6 378.6,792.3 476.7,1223 139.1,610.7 178.3,1255.5 212.2,1883.3 2.3,42.2 4.5,84.5 6.7,126.7 38.6,192.6 75.7,385.4 111,578.5 235.9,-220.4 452.6,-477 563.7,-773.3 -1.3,-244.7 -7.9,-489.4 -27.2,-733.3 -45.3,-570.8 -160,-1146.2 -426.9,-1655 -36.7,-70.1 -76.5,-139.1 -119.2,-206.5 -141.4,-222.8 -315,-427.4 -420.7,-669.2 -33.9,-77.6 -58.6,-174 -8.2,-242 33.6,-45.3 91.3,-64.6 145.7,-79.1 283.2,-75 582,-90.2 871.3,-44 96.9,15.6 195.3,38.8 277.4,92.6 92,60.2 156.6,153.6 213.8,247.6 230.8,378.6 378.6,792.3 476.6,1223 139.1,610.7 178.3,1255.5 212.2,1883.3 2.3,42.3 4.6,84.7 6.7,127 197.8,986.7 353.3,1982 462,2982.7 27.7,254.1 50,520.4 -9.4,765 26.4,186.5 39.4,368.5 37.5,534.8 -0.9,87.9 -7.1,176.3 -18.2,264.3 135.6,121.1 252.8,263.6 359.4,411.6 15.5,21.5 30.8,43.1 45.9,64.9 502.5,725.1 777.7,1598.2 813.9,2477.8 34,826.5 -117.5,1867 -653.1,2529.9"
         style="fill:#d38b4e;fill-opacity:1;fill-rule:nonzero;stroke:none"
         transform="matrix(0.13333333,0,0,-0.13333333,0,2829.3333)" />
      <path
         id="path3"
         d="m 9882.11,14389.3 c -2.6,9 -4.79,17.6 -7.29,26.6 -118.74,-153.2 -237.49,-306.5 -356.22,-459.7 -4.03,168.1 -63.02,338.7 -175.25,488.9 -187.96,251.4 -460.04,440.1 -750.78,576.5 23.83,35.9 46.25,73 57.28,114.4 39.13,146.9 -74.15,291.5 -199.07,378 -350.35,242.6 -821.92,239.8 -1230.01,116.9 -139.97,-42.2 -281.81,-101.1 -376.76,-212.3 -85.62,-100.2 -119.86,-252.5 -61.77,-367.4 -102.69,-61.4 -199.74,-132.2 -289.21,-210.2 -215.99,-188.3 -433.21,-445.1 -546.29,-725.7 -33.16,-82.2 -57.79,-166.5 -70.28,-251.7 -38.2,-261.1 46.77,-520.4 297.2,-639.1 125.83,-59.6 254.37,-87.8 382.38,-91.3 87.07,-538.4 119.67,-1085.6 96.16,-1630.4 -14.04,-326.2 -47.84,-654.6 -68.84,-981.9 378.94,125 725.01,284.2 910.55,374.5 1063.52,518 1976.6,1334.1 2646.29,2306.1 55.1,79.9 109,161.7 158.9,245.8 -180.5,293.5 -321.8,611.2 -416.99,942"
         style="fill:#b86f38;fill-opacity:1;fill-rule:nonzero;stroke:none"
         transform="matrix(0.13333333,0,0,-0.13333333,0,2829.3333)" />
      <path
         id="path4"
         d="m 14250.3,5799.2 c -328.1,293.8 -695.2,554.2 -945.9,917.5 -72.9,105.6 -136,221.7 -163.1,346.8 -492.5,-105.5 -983,-225.9 -1477.5,-313 -2.7,-19.5 -5.6,-38.9 -8.5,-58.4 220.4,-231.3 479.8,-428.1 718.8,-642.2 260.9,-233.6 508.3,-510 629.8,-833.8 -1.3,-244.7 -7.9,-489.4 -27.2,-733.3 -45.3,-570.8 -160,-1146.1 -427,-1655 -36.6,-70.1 -76.4,-139.1 -119.2,-206.5 -141.3,-222.8 -315,-427.4 -420.6,-669.1 -34,-77.7 -58.6,-174 -8.2,-242.1 33.6,-45.3 91.3,-64.6 145.7,-79.1 283.1,-75 582,-90.1 871.3,-44 96.9,15.6 195.2,38.8 277.3,92.6 92.1,60.2 156.7,153.7 213.8,247.6 230.9,378.6 378.6,792.3 476.7,1223 139.1,610.7 178.3,1255.5 212.2,1883.3 2.3,42.2 4.5,84.5 6.7,126.7 38.6,192.6 75.7,385.4 111,578.5 -21.9,20.5 -43.9,40.7 -66.1,60.5"
         style="fill:#b86f38;fill-opacity:1;fill-rule:nonzero;stroke:none"
         transform="matrix(0.13333333,0,0,-0.13333333,0,2829.3333)" />
      <path
         id="path5"
         d="m 8220.67,7180 c -395.13,224.9 -748.9,529.6 -1026.26,889.5 282.67,-913.1 471.95,-1855.7 555.91,-2808 63.77,-722.7 147.29,-1524.1 -62.07,-2231.4 -59.2,-200.7 -142.26,-393.8 -255.94,-575.4 -165.3,-264 -403.7,-507.9 -436.09,-832.7 -4.58,-45.9 -4.1,-94.6 18.16,-135.1 38.4,-69.5 126,-92.2 204.5,-104.6 340.41,-53.9 690.91,-43.5 1027.52,30.5 97.58,21.5 197.37,49.9 273.77,114.3 71.66,60.3 116.04,146.4 155.21,231.5 212.81,462.6 326.05,969.9 336.13,1478.9 3.95,197.9 -8.81,396.9 -11.06,595.3 -2.04,194 5.85,387.6 49.6,578.6 96.95,423 196.1,847.1 289.55,1272.1 74.88,341 149.36,683.2 199.39,1028.4 -462.34,84 -910.26,235.8 -1318.32,468.1"
         style="fill:#b86f38;fill-opacity:1;fill-rule:nonzero;stroke:none"
         transform="matrix(0.13333333,0,0,-0.13333333,0,2829.3333)" />
      <path
         id="path6"
         d="m 9343.35,14445.1 c -187.96,251.4 -460.04,440.1 -750.78,576.5 23.83,35.9 46.25,73 57.28,114.4 39.13,146.9 -74.15,291.5 -199.07,378 -350.35,242.6 -821.92,239.8 -1230.01,116.9 -139.97,-42.2 -281.81,-101.1 -376.76,-212.3 -85.62,-100.2 -119.86,-252.5 -61.77,-367.4 -102.69,-61.4 -199.74,-132.2 -289.21,-210.2 -215.99,-188.3 -433.21,-445.1 -546.29,-725.7 -33.16,-82.2 -57.79,-166.5 -70.28,-251.7 -38.2,-261.1 46.77,-520.4 297.2,-639.1 125.83,-59.6 254.37,-87.8 382.38,-91.3 135.51,-3.7 270.31,20.7 400.78,64.7 7.55,2.6 15.06,5.3 22.57,8 0.2,-5.1 0.45,-10.1 0.69,-15.1 2.85,-62.4 8.22,-122.1 15.98,-176.2 36.99,-257.4 113.43,-523.5 299.79,-704.9 186.41,-181.5 508.64,-243.1 707.33,-75.2 143.33,121.1 187.53,321.4 209.51,507.8 14.31,121.2 22.85,243 29.27,364.9 1.18,22.5 2.26,45.1 3.21,67.7 0.1,2.7 0.24,5.4 0.35,8.1 8.02,-2.7 16.18,-4.7 24.24,-7.2 39.51,-12 79.47,-22.2 120.03,-28.8 285.06,-46.7 604.92,24.1 830.35,197.7 207.34,159.8 303.93,383.2 298.46,611.5 -4.03,168.1 -63.02,338.7 -175.25,488.9"
         style="fill:#a6552e;fill-opacity:1;fill-rule:nonzero;stroke:none"
         transform="matrix(0.13333333,0,0,-0.13333333,0,2829.3333)" />
      <path
         id="path7"
         d="m 13532.9,2993 c -143.2,-110.4 -289.1,-242.3 -469.4,-252.8 -171,-10 -332.4,93.4 -503.3,88.1 l -10.5,-0.5 c -36.6,-70.1 -76.4,-139.1 -119.2,-206.5 -141.3,-222.8 -315,-427.4 -420.6,-669.1 -34,-77.7 -58.6,-174 -8.2,-242.1 33.6,-45.3 91.3,-64.6 145.7,-79.1 283.1,-75 582,-90.1 871.3,-44 96.9,15.6 195.2,38.8 277.3,92.6 92.1,60.2 156.7,153.7 213.8,247.6 230.9,378.6 378.6,792.3 476.7,1223 -156.3,34.9 -322.9,-56.4 -453.6,-157.2"
         style="fill:#773521;fill-opacity:1;fill-rule:nonzero;stroke:none"
         transform="matrix(0.13333333,0,0,-0.13333333,0,2829.3333)" />
      <path
         id="path8"
         d="m 16912.9,9868.2 c 15.5,21.5 30.8,43.1 45.9,64.9 502.5,725.1 777.7,1598.2 813.9,2477.8 34,826.5 -117.5,1867 -653.1,2529.9 -75.9,94 -450.3,444.2 -476.3,184 -14.5,-144.5 135.9,-334.5 179.6,-470.1 63.2,-195.4 113,-395.2 149.1,-597.4 147.9,-827.3 64.4,-1695.3 -261.1,-2471.7 -177,-422.1 -399.5,-705.4 -700.2,-935.8 302.7,-313.8 486.8,-748.7 542.8,-1193.2 135.6,121.1 252.8,263.6 359.4,411.6"
         style="fill:#b86f38;fill-opacity:1;fill-rule:nonzero;stroke:none"
         transform="matrix(0.13333333,0,0,-0.13333333,0,2829.3333)" />
      <path
         id="path9"
         d="m 8245.17,13174.9 c 8.19,0.3 16.4,0.6 24.59,0.9 -8.06,2.5 -16.22,4.5 -24.24,7.2 -0.11,-2.7 -0.25,-5.4 -0.35,-8.1"
         style="fill:#d38b4e;fill-opacity:1;fill-rule:nonzero;stroke:none"
         transform="matrix(0.13333333,0,0,-0.13333333,0,2829.3333)" />
      <path
         id="path10"
         d="m 6956.82,13197.9 c 7.74,-2.4 15.47,-4.8 23.26,-7.1 -0.24,5 -0.49,10 -0.69,15.1 -7.51,-2.7 -15.02,-5.4 -22.57,-8"
         style="fill:#d38b4e;fill-opacity:1;fill-rule:nonzero;stroke:none"
         transform="matrix(0.13333333,0,0,-0.13333333,0,2829.3333)" />
      <path
         id="path11"
         d="m 6451.54,19056.1 c -17.81,21.2 -39.46,41.8 -66.04,61.7 -156.4,116.6 -374.61,26.9 -569.41,16.1 -208.08,-11.5 -419.33,81.2 -551.76,242.1 -476.34,579 -1320.78,-665.9 -1400.04,-1073.4 -46.24,-237.8 -36.4,-483.1 -69,-723.1 -66.75,-491.1 -318.04,-954.8 -693.05,-1278.8 -89.02,-77 -193.37,-163 -194.64,-280.6 -1.08,-103.1 84.72,-191.5 182.36,-224.4 97.69,-32.8 204.34,-21.4 305.82,-3.5 634.2,112.3 1210.04,465.6 1660.61,925.8 118.61,121.1 225,248.3 323.52,380 233.87,312.6 422.45,651 618.06,997.7 132.6,234.9 703.85,661.8 453.57,960.4"
         style="fill:#844831;fill-opacity:1;fill-rule:nonzero;stroke:none"
         transform="matrix(0.13333333,0,0,-0.13333333,0,2829.3333)" />
      <path
         id="path12"
         d="m 7837.48,13423.3 c -175.68,156.8 -296.9,98.8 -477.12,-22.3 -119.27,-80.1 -247.72,-147.6 -380.97,-195.1 0.2,-5.1 0.45,-10.1 0.69,-15.1 2.85,-62.4 8.22,-122.1 15.98,-176.2 36.99,-257.4 113.43,-523.5 299.79,-704.9 186.41,-181.5 508.64,-243.1 707.33,-75.2 143.33,121.1 187.53,321.4 209.51,507.8 14.31,121.2 22.85,243 29.27,364.9 1.18,22.5 2.26,45.1 3.21,67.7 0.1,2.7 0.24,5.4 0.35,8.1 -150.58,50 -291.11,135.9 -408.04,240.3"
         style="fill:#f46938;fill-opacity:1;fill-rule:nonzero;stroke:none"
         transform="matrix(0.13333333,0,0,-0.13333333,0,2829.3333)" />
      <path
         id="path13"
         d="m 12421.4,16300.7 c -375,324 -626.3,787.7 -693,1278.8 -32.6,240 -22.7,485.3 -69,723.1 -79.3,407.5 -923.7,1652.4 -1400,1073.4 -132.4,-160.9 -343.73,-253.6 -551.81,-242.1 -194.79,10.8 -413.01,100.5 -569.36,-16.1 -42,-31.4 -71.87,-64.7 -92.62,-99.4 -177.02,-295.9 352.99,-697.5 480.1,-922.7 222.03,-393.5 434.89,-776.3 715.29,-1122.7 70.8,-87.4 145.7,-172.6 226.3,-255 450.6,-460.2 1026.4,-813.5 1660.6,-925.8 101.5,-17.9 208.1,-29.3 305.8,3.5 97.7,32.9 183.5,121.3 182.4,224.4 -1.2,117.6 -105.6,203.6 -194.7,280.6"
         style="fill:#844831;fill-opacity:1;fill-rule:nonzero;stroke:none"
         transform="matrix(0.13333333,0,0,-0.13333333,0,2829.3333)" />
      <path
         id="path14"
         d="m 4287.03,16933 c 103.68,371.5 210.77,722.5 401.71,1061.1 190.94,338.6 448.14,602.1 711.77,882.1 30.2,32.1 -9.65,90.6 -49.02,63.6 -612.13,-420.1 -1066.89,-1262.9 -1103.24,-2001.5 -1.12,-22.5 32.89,-26.4 38.78,-5.3"
         style="fill:#693526;fill-opacity:1;fill-rule:nonzero;stroke:none"
         transform="matrix(0.13333333,0,0,-0.13333333,0,2829.3333)" />
      <path
         id="path15"
         d="m 10873.7,18093.9 c 171.3,-268.4 248.6,-573.8 403,-846.8 9.6,-17 37,-9.5 36.8,10 -2.7,317 -196.2,667.1 -359,929.7 -169.4,273.1 -396.4,580.2 -681.3,739.1 -42.1,23.5 -77.1,-29 -49,-63.5 214.7,-262.9 464,-477.8 649.5,-768.5"
         style="fill:#693526;fill-opacity:1;fill-rule:nonzero;stroke:none"
         transform="matrix(0.13333333,0,0,-0.13333333,0,2829.3333)" />
      <path
         id="path16"
         d="m 8922.06,14227.9 c 3.74,5.2 7.92,10 13.45,13.4 l -7.63,-5.9 -5.82,-7.5"
         style="fill:#a6552e;fill-opacity:1;fill-rule:nonzero;stroke:none"
         transform="matrix(0.13333333,0,0,-0.13333333,0,2829.3333)" />
      <path
         id="path17"
         d="m 8450.78,15514 c -350.35,242.6 -821.92,239.8 -1230.01,116.9 -139.97,-42.2 -281.81,-101.1 -376.76,-212.3 -85.62,-100.2 -119.86,-252.5 -61.77,-367.4 6.32,-12.5 12.83,-25 21.43,-36.5 35.76,-47.8 86.97,-81.3 129.26,-123.4 141.83,-141.4 205.79,-334.5 398.97,-426.2 163.22,-77.6 401.86,-99.6 575.35,-60.3 299.73,68 499.98,342.5 672.15,597.1 4.43,6.5 8.78,13.1 13.17,19.7 23.83,35.9 46.25,73 57.28,114.4 39.13,146.9 -74.15,291.5 -199.07,378"
         style="fill:#773521;fill-opacity:1;fill-rule:nonzero;stroke:none"
         transform="matrix(0.13333333,0,0,-0.13333333,0,2829.3333)" />
      <path
         id="path18"
         d="m 7586.33,17290.1 c -38.94,286.5 -103.88,579.5 -273.09,813.9 -98.27,136.2 -254.22,255.6 -419.72,227.7 -144.17,-24.3 -248.68,-153.8 -305.1,-288.6 -56.47,-134.9 -79.07,-282.2 -138.03,-416 -136.81,-310.4 -445.55,-504 -660.9,-766 -174.32,-212.1 -286.33,-468.8 -369.65,-730.4 -62.46,-196.3 -110.29,-404.6 -73.27,-607.2 85.84,-469.7 594.35,-627.1 974.72,-373.5 217.92,145.3 317.75,414.4 507.96,594.5 153.72,145.6 360.24,226.8 510.5,376 293.44,291.3 302.21,759.8 246.58,1169.6"
         style="fill:#a6552e;fill-opacity:1;fill-rule:nonzero;stroke:none"
         transform="matrix(0.13333333,0,0,-0.13333333,0,2829.3333)" />
      <path
         id="path19"
         d="m 6576.34,16938.3 c -184.41,0 -333.89,-179.7 -333.89,-401.4 0,-221.7 149.48,-401.3 333.89,-401.3 184.36,0 333.84,179.6 333.84,401.3 0,221.7 -149.48,401.4 -333.84,401.4"
         style="fill:#251321;fill-opacity:1;fill-rule:nonzero;stroke:none"
         transform="matrix(0.13333333,0,0,-0.13333333,0,2829.3333)" />
      <path
         id="path20"
         d="m 8884,16938.3 c -184.35,0 -333.82,-179.7 -333.82,-401.4 0,-221.7 149.47,-401.3 333.82,-401.3 184.42,0 333.89,179.6 333.89,401.3 0,221.7 -149.47,401.4 -333.89,401.4"
         style="fill:#251321;fill-opacity:1;fill-rule:nonzero;stroke:none"
         transform="matrix(0.13333333,0,0,-0.13333333,0,2829.3333)" />
      <path
         id="path21"
         d="m 8497.46,17107.9 c 65.38,-5.2 107.81,22 169.93,40.7 71.82,21.6 146.95,28.4 221.68,23.8 147.48,-9.2 263.39,-76.6 397.91,-126.8 45.01,-16.9 84.91,41.5 61.29,79.7 -89.06,144.1 -274.88,212.8 -436.63,229.1 -146.51,14.8 -393.87,-0.4 -472.94,-144.1 -26.26,-47.7 7.5,-98.4 58.76,-102.4"
         style="fill:#251321;fill-opacity:1;fill-rule:nonzero;stroke:none"
         transform="matrix(0.13333333,0,0,-0.13333333,0,2829.3333)" />
      <path
         id="path22"
         d="m 6185.21,17096.3 c -10.83,-28.8 17.39,-64.8 47.54,-62.5 124.58,9.5 224.13,103 356.69,112 130.38,8.7 243.56,-53.4 369.8,-55.8 26.65,-0.5 43.55,30.1 30.25,52.7 -131.45,223.4 -710.69,202.8 -804.28,-46.4"
         style="fill:#251321;fill-opacity:1;fill-rule:nonzero;stroke:none"
         transform="matrix(0.13333333,0,0,-0.13333333,0,2829.3333)" />
      <path
         id="path23"
         d="m 7248.45,15072.6 c 53.05,33.8 87.69,102 134.37,144.2 68.84,62.3 149.87,84.8 228.21,130 37.51,21.6 71.76,54 82,96.1 5.06,20.9 3.21,44.9 -11.16,60.9 -7.75,8.6 -18.32,14.1 -29.04,18.5 -78.48,32.5 -167.89,15.9 -250.23,-5 -94.28,-24 -189.33,-54.1 -267.14,-112.4 -53.06,-39.7 -97.93,-94.5 -111.56,-159.3 -27.29,-129.7 105.72,-248.7 224.55,-173"
         style="fill:#e7b391;fill-opacity:1;fill-rule:nonzero;stroke:none"
         transform="matrix(0.13333333,0,0,-0.13333333,0,2829.3333)" />
      <path
         id="path24"
         d="m 6676.6,14389.7 c 82.54,0 82.69,128.3 0,128.3 -82.53,0 -82.67,-128.3 0,-128.3"
         style="fill:#251321;fill-opacity:1;fill-rule:nonzero;stroke:none"
         transform="matrix(0.13333333,0,0,-0.13333333,0,2829.3333)" />
      <path
         id="path25"
         d="m 6809.61,14169.8 c 0.29,-5.6 1.95,-11 5.07,-15.9 3.81,-6.4 8.91,-11.5 15.35,-15.3 l 1.37,-0.7 10.51,-4.4 11.65,-1.6 11.69,1.6 10.47,4.4 8.88,6.9 6.86,8.9 4.44,10.5 c 1.85,5.8 2.1,11.6 0.78,17.5 l -2.97,11.1 -5.65,9.6 -7.89,7.9 -9.7,5.7 -11.07,3 h -11.69 l -11.06,-3 c -5.45,-1.8 -10.18,-4.8 -14.12,-9.1 l -1.17,-1.2 c -5.27,-5.3 -8.92,-11.6 -10.96,-18.8 -1.81,-5.7 -2.05,-11.4 -0.79,-17.1"
         style="fill:#251321;fill-opacity:1;fill-rule:nonzero;stroke:none"
         transform="matrix(0.13333333,0,0,-0.13333333,0,2829.3333)" />
      <path
         id="path26"
         d="m 6354.41,14086.9 10.29,-7.9 c 7.89,-4.6 16.46,-6.9 25.62,-6.9 7.02,-0.3 13.55,1.2 19.58,4.4 6.29,2 11.75,5.5 16.38,10.4 4.97,4.7 8.43,10.1 10.47,16.4 3.22,6.1 4.69,12.6 4.39,19.6 -0.58,4.5 -1.22,9 -1.8,13.5 -2.45,8.6 -6.78,16.1 -13.06,22.4 l -10.28,8 c -7.94,4.6 -16.47,6.9 -25.68,6.9 -6.96,0.3 -13.49,-1.2 -19.58,-4.3 -6.29,-2.1 -11.75,-5.6 -16.33,-10.6 -4.97,-4.6 -8.47,-10 -10.51,-16.3 -3.18,-6.1 -4.64,-12.6 -4.4,-19.6 0.64,-4.5 1.22,-9 1.81,-13.5 2.44,-8.6 6.78,-16.1 13.1,-22.5"
         style="fill:#251321;fill-opacity:1;fill-rule:nonzero;stroke:none"
         transform="matrix(0.13333333,0,0,-0.13333333,0,2829.3333)" />
      <path
         id="path27"
         d="m 8598.55,14473.1 c 3.36,-6.3 7.94,-11.3 13.74,-15 3.36,-3.3 7.26,-5.6 11.79,-6.9 6.39,-3.3 13.21,-4.8 20.56,-4.6 4.73,0.7 9.45,1.3 14.23,1.9 l 12.71,5.4 c 6.24,3.4 11.21,7.9 15.01,13.7 4.68,5.2 7.89,11.2 9.55,18.2 l 1.32,7.2 c 2.63,9.7 2.63,19.4 0,29.1 -2.59,9.3 -7.31,17.3 -14.08,24.2 l -11.07,8.5 c -8.57,5 -17.78,7.5 -27.67,7.5 -7.5,0.3 -14.56,-1.3 -21.1,-4.7 -6.76,-2.2 -12.66,-6 -17.63,-11.3 -6.77,-6.9 -11.45,-14.9 -14.08,-24.2 -2.58,-9.7 -2.58,-19.4 0,-29.1 l 1.36,-7.2 5.36,-12.7"
         style="fill:#251321;fill-opacity:1;fill-rule:nonzero;stroke:none"
         transform="matrix(0.13333333,0,0,-0.13333333,0,2829.3333)" />
      <path
         id="path28"
         d="m 8470.03,14265.6 c -9.6,5.6 -19.98,8.4 -31.13,8.4 -8.49,0.3 -16.42,-1.4 -23.78,-5.3 -7.6,-2.5 -14.23,-6.7 -19.84,-12.7 -5.98,-5.6 -10.27,-12.2 -12.75,-19.9 -3.86,-7.3 -5.61,-15.3 -5.32,-23.8 0.74,-5.4 1.46,-10.9 2.24,-16.4 2.93,-10.4 8.19,-19.5 15.83,-27.2 l 12.48,-9.6 c 9.65,-5.6 20.02,-8.4 31.14,-8.4 8.47,-0.4 16.41,1.4 23.77,5.3 7.65,2.5 14.27,6.7 19.83,12.7 6.04,5.6 10.27,12.2 12.76,19.9 3.85,7.3 5.66,15.3 5.32,23.7 -0.74,5.5 -1.47,11 -2.19,16.4 -2.93,10.5 -8.24,19.6 -15.89,27.3 l -12.47,9.6"
         style="fill:#251321;fill-opacity:1;fill-rule:nonzero;stroke:none"
         transform="matrix(0.13333333,0,0,-0.13333333,0,2829.3333)" />
      <path
         id="path29"
         d="m 8935.51,14241.3 c -5.53,-3.4 -9.71,-8.2 -13.45,-13.4 l 5.82,7.5 z m 22.8,12.7 c -6.87,-0.3 -13.3,-2.3 -19.25,-6.1 -7.79,-4.6 -13.98,-10.8 -18.61,-18.6 -2.52,-4.4 -4.23,-8.9 -5.41,-13.7 -1.7,-5 -2.87,-10.2 -2.87,-15.6 0,-8.8 2.24,-17.1 6.68,-24.7 4.33,-7.4 10.17,-13.2 17.53,-17.5 l 0.79,-0.5 12.03,-5 0.39,-0.2 0.44,-0.1 13.5,-1.8 7.45,0.9 c 8.81,1.2 5.21,0.2 13.3,3.6 l 6.37,2.7 10.48,8.1 0.3,0.3 8.13,10.5 0.24,0.4 5.37,12.7 c 2.44,9.1 2.44,18.3 0,27.5 -2.49,8.8 -6.92,16.4 -13.35,22.9 -6.43,6.4 -14.09,10.8 -22.86,13.3 -6.86,2.1 -13.78,2.5 -20.65,0.9"
         style="fill:#251321;fill-opacity:1;fill-rule:nonzero;stroke:none"
         transform="matrix(0.13333333,0,0,-0.13333333,0,2829.3333)" />
      <path
         id="path30"
         d="m 11122.3,4037.4 c -24.6,-19.9 -45.9,-45.2 -65.5,-70.4 -126.9,-165.2 -214.1,-358.6 -346,-520 -131.6,-161.3 -329.9,-292.7 -536.1,-263 -101.8,14.7 -208.11,66 -307.75,85.4 -58.41,-286.9 -157.12,-561.9 -315.47,-814.7 -165.3,-264 -403.7,-507.9 -436.1,-832.7 -4.58,-45.9 -4.09,-94.6 18.17,-135.1 38.4,-69.5 126.15,-92.2 204.49,-104.6 340.56,-53.9 690.96,-43.5 1027.56,30.5 97.5,21.5 197.5,49.9 273.9,114.3 71.5,60.3 115.9,146.4 155.1,231.5 212.8,462.6 326,969.9 336.1,1478.9 5.3,266.1 -19.6,534.2 -8.4,799.9"
         style="fill:#a6552e;fill-opacity:1;fill-rule:nonzero;stroke:none"
         transform="matrix(0.13333333,0,0,-0.13333333,0,2829.3333)" />
      <path
         id="path31"
         d="m 9000.45,3832.8 c -50.52,-15 -96.76,-54.4 -133.73,-94.3 -243.6,-263.5 -408.78,-666 -763.71,-719 -134.17,-20.1 -281.51,15.1 -414.76,10.6 -59.2,-200.7 -142.26,-393.8 -255.94,-575.4 -165.3,-264 -403.7,-507.9 -436.09,-832.7 -4.58,-45.9 -4.1,-94.6 18.16,-135.1 38.4,-69.5 126,-92.2 204.5,-104.6 340.41,-53.9 690.91,-43.5 1027.52,30.5 97.58,21.5 197.37,49.9 273.77,114.3 71.66,60.3 116.04,146.4 155.21,231.5 212.81,462.6 326.05,969.9 336.13,1478.9 3.95,197.9 -8.81,396.9 -11.06,595.3"
         style="fill:#773521;fill-opacity:1;fill-rule:nonzero;stroke:none"
         transform="matrix(0.13333333,0,0,-0.13333333,0,2829.3333)" />
      <path
         id="path32"
         d="m 11574.2,8438.3 c -130,317.3 -381.3,772 -730.9,884.4 -34.1,11 -64.4,-30.3 -46.3,-60.1 80.5,-132 203.7,-228.9 302.4,-347.1 122.8,-147.3 225.9,-315.7 303.9,-490.9 166.9,-374.8 150,-734.7 191.5,-1130.9 5.4,-51.5 70.2,-60.9 89.2,-12.1 137.3,355.1 29,817.7 -109.8,1156.7"
         style="fill:#b86f38;fill-opacity:1;fill-rule:nonzero;stroke:none"
         transform="matrix(0.13333333,0,0,-0.13333333,0,2829.3333)" />
      <path
         id="path33"
         d="m 12236.4,8770.9 c -47.1,-200 -82.4,-402.2 -135.9,-600.7 -53.4,-198.4 -136.4,-388.8 -183.3,-588.2 -8,-33.9 37.1,-53.1 55.9,-23.6 214,335.7 316.4,809.5 325.3,1204.1 0.8,35.3 -53.8,43.3 -62,8.4"
         style="fill:#b86f38;fill-opacity:1;fill-rule:nonzero;stroke:none"
         transform="matrix(0.13333333,0,0,-0.13333333,0,2829.3333)" />
      <path
         id="path34"
         d="m 10049.3,10875.9 c 25.4,-235.6 265.8,-397.1 500.6,-429.5 182.3,-25.2 379.6,4 541.4,-83.8 141.8,-76.9 224.7,-226.8 322.2,-355.3 97.5,-128.6 241.4,-250.3 401,-226.6 209.1,31 299.9,277.8 341.1,485.1 8.2,41.2 18.5,86.5 52.4,111.4 46.1,33.9 110,13.6 166.7,5.1 161.3,-24 332.6,76.6 390.3,229.1 57.7,152.6 -4.2,341.3 -141,430.1 -166.5,108 -383.9,62.7 -582.1,74.1 -364.6,21 -706.7,267.3 -842.2,606.4 -46.6,116.5 -71.1,243.3 -139.6,348.5 -117.7,180.8 -659.1,397.1 -773,109.2 -46.9,-118.6 38.7,-244.8 59.7,-370.7 54.6,-328.5 -333.3,-602 -297.5,-933.1"
         style="fill:#b86f38;fill-opacity:1;fill-rule:nonzero;stroke:none"
         transform="matrix(0.13333333,0,0,-0.13333333,0,2829.3333)" />
      <path
         id="path35"
         d="m 6496.39,16801.5 c -55.06,0 -99.63,-59.2 -99.63,-132.3 0,-73 44.57,-132.3 99.63,-132.3 55.01,0 99.64,59.3 99.64,132.3 0,73.1 -44.63,132.3 -99.64,132.3"
         style="fill:#e7b391;fill-opacity:1;fill-rule:nonzero;stroke:none"
         transform="matrix(0.13333333,0,0,-0.13333333,0,2829.3333)" />
      <path
         id="path36"
         d="m 8799.81,16801.5 c -55,0 -99.62,-59.2 -99.62,-132.3 0,-73 44.62,-132.3 99.62,-132.3 55.01,0 99.64,59.3 99.64,132.3 0,73.1 -44.63,132.3 -99.64,132.3"
         style="fill:#e7b391;fill-opacity:1;fill-rule:nonzero;stroke:none"
         transform="matrix(0.13333333,0,0,-0.13333333,0,2829.3333)" />
      <path
         id="path37"
         d="m 9656.24,7274.5 c -23.53,263.3 -74.16,521.5 -81.76,786.7 -7.64,265.2 27.43,527.8 23.93,792.4 -0.49,33.6 -46.83,38.6 -57.2,7.8 -159.23,-473.2 -122.68,-1130.1 54.9,-1595 11.3,-29.6 63.44,-29 60.13,8.1"
         style="fill:#b86f38;fill-opacity:1;fill-rule:nonzero;stroke:none"
         transform="matrix(0.13333333,0,0,-0.13333333,0,2829.3333)" />
      <path
         id="path38"
         d="m 15017.2,10002.7 c -1109.7,-74.6 -2060.5,-1276 -1954.3,-2368.8 6.2,-63.9 112.7,-92.3 123,-16.7 74.7,545 203.8,1047.8 566.1,1479.1 343.1,408.5 789.8,639.1 1274.6,836.6 33.8,13.7 34.3,72.7 -9.4,69.8"
         style="fill:#b86f38;fill-opacity:1;fill-rule:nonzero;stroke:none"
         transform="matrix(0.13333333,0,0,-0.13333333,0,2829.3333)" />
      <path
         id="path39"
         d="m 15430.2,5249.8 c -90.6,36.1 -197.8,46.6 -294.9,43.4 -44.4,-1.4 -56.5,-68.2 -10.8,-79.4 97.9,-24.1 206.2,-35.4 305.7,-18.3 30.5,5.3 22.7,45.3 0,54.3"
         style="fill:#b86f38;fill-opacity:1;fill-rule:nonzero;stroke:none"
         transform="matrix(0.13333333,0,0,-0.13333333,0,2829.3333)" />
      <path
         id="path40"
         d="m 15409.1,2742.2 c -143.2,-110.3 -289.1,-242.2 -469.4,-252.7 -171,-10 -332.3,93.4 -503.3,88.1 l -10.4,-0.5 c -36.7,-70.1 -76.5,-139.1 -119.2,-206.5 -141.4,-222.8 -315,-427.4 -420.7,-669.2 -33.9,-77.6 -58.6,-174 -8.2,-242 33.6,-45.3 91.3,-64.6 145.7,-79.1 283.2,-75 582,-90.2 871.3,-44 96.9,15.6 195.3,38.8 277.4,92.6 92,60.2 156.6,153.6 213.8,247.6 230.8,378.6 378.6,792.3 476.6,1223 -156.3,34.9 -322.9,-56.4 -453.6,-157.3"
         style="fill:#a6552e;fill-opacity:1;fill-rule:nonzero;stroke:none"
         transform="matrix(0.13333333,0,0,-0.13333333,0,2829.3333)" />
      <path
         id="path41"
         d="m 8252.88,2177.1 c -244.87,117 -567.12,188.3 -826.21,75.6 -16.32,-7.1 -7.9,-34.1 8.96,-33.1 284.28,15.9 523.8,37.7 793.86,-82.5 26.8,-12 50.58,27 23.39,40"
         style="fill:#251321;fill-opacity:1;fill-rule:nonzero;stroke:none"
         transform="matrix(0.13333333,0,0,-0.13333333,0,2829.3333)" />
      <path
         id="path42"
         d="m 9611.56,2235.4 c -44.19,-11.3 -25.18,-75.9 18.62,-67.6 240.91,45.7 413.72,-25.7 636.92,-97.5 20.8,-6.7 34.9,20.8 20.6,35.5 -164.9,169.9 -460.06,184.9 -676.14,129.6"
         style="fill:#251321;fill-opacity:1;fill-rule:nonzero;stroke:none"
         transform="matrix(0.13333333,0,0,-0.13333333,0,2829.3333)" />
      <path
         id="path43"
         d="m 12444.9,2314.4 c -42.3,-2.3 -42.8,-65 0,-66.2 222.8,-6 456.1,-52.9 677.4,-36.8 14.8,1.1 25.2,24.1 8.5,31.3 -205,89 -467.2,83.2 -685.9,71.7"
         style="fill:#251321;fill-opacity:1;fill-rule:nonzero;stroke:none"
         transform="matrix(0.13333333,0,0,-0.13333333,0,2829.3333)" />
      <path
         id="path44"
         d="m 14934.4,2066.2 c -175.9,90 -376.1,97.6 -566.3,51.9 -25.3,-6.1 -20.7,-49.1 6.3,-46.5 186.1,17.9 362.2,-6.1 544.4,-42.4 21.2,-4.2 37.3,26 15.6,37"
         style="fill:#251321;fill-opacity:1;fill-rule:nonzero;stroke:none"
         transform="matrix(0.13333333,0,0,-0.13333333,0,2829.3333)" />
      <path
         id="path45"
         d="m 14728.2,1852 c -56,-60.4 -107.6,-125.9 -148.8,-197.4 -31.1,-54.1 -76.5,-129.8 -64.7,-193.8 1.8,-9.9 14.2,-10.8 20.7,-5.4 46.2,38.6 67.9,115.5 97.4,168 38.3,68.1 82.4,131.3 133.8,190.3 22.8,26.1 -14.4,64.2 -38.4,38.3"
         style="fill:#251321;fill-opacity:1;fill-rule:nonzero;stroke:none"
         transform="matrix(0.13333333,0,0,-0.13333333,0,2829.3333)" />
      <path
         id="path46"
         d="m 14374,1896.8 c -119.7,-76.7 -231.2,-196.3 -241.9,-344.2 -1,-14.3 18.9,-17.9 25.7,-7 70.9,113.6 131.8,224.6 244.1,303.4 28.7,20.2 2.4,67.2 -27.9,47.8"
         style="fill:#251321;fill-opacity:1;fill-rule:nonzero;stroke:none"
         transform="matrix(0.13333333,0,0,-0.13333333,0,2829.3333)" />
      <path
         id="path47"
         d="m 12840.5,2087.6 c -90.7,-47.5 -226.4,-166.8 -197.1,-283.7 3.4,-13.4 21,-17.6 30.5,-8 34.2,34.3 48.3,83.1 75.1,122.8 31.8,47 72.9,88.7 119.8,120.4 30,20.2 4,65.5 -28.3,48.5"
         style="fill:#251321;fill-opacity:1;fill-rule:nonzero;stroke:none"
         transform="matrix(0.13333333,0,0,-0.13333333,0,2829.3333)" />
      <path
         id="path48"
         d="m 12373.1,2059.5 c -29.8,-28.8 -58.4,-57.1 -84.7,-89.1 -20.8,-25.3 -51.6,-55.8 -43.1,-91 2.3,-9.7 11.6,-15.5 20.9,-16 35.8,-1.9 62.5,38.3 83.1,62.7 26.1,30.9 48,63.9 70.3,97.5 19,28.6 -22.8,58.7 -46.5,35.9"
         style="fill:#251321;fill-opacity:1;fill-rule:nonzero;stroke:none"
         transform="matrix(0.13333333,0,0,-0.13333333,0,2829.3333)" />
      <path
         id="path49"
         d="m 10053.8,1949.9 c -122.63,-109.5 -239.02,-289 -228.79,-460.6 0.53,-9 13.89,-14.5 18.41,-5 34.11,71.7 54.32,148.5 91.16,219.6 40.59,78.3 90.22,150.9 146.42,218.8 15.7,18.9 -8.4,44 -27.2,27.2"
         style="fill:#251321;fill-opacity:1;fill-rule:nonzero;stroke:none"
         transform="matrix(0.13333333,0,0,-0.13333333,0,2829.3333)" />
      <path
         id="path50"
         d="m 9642.94,1949.8 c -141.97,-93.1 -308.02,-281.7 -280.73,-465.6 2.18,-14.9 24.01,-15.5 30.69,-4 41.76,72 60.66,153.9 104.36,225.6 46.87,76.9 109.97,143.3 180.95,198.2 26.07,20.2 -7.8,63.8 -35.27,45.8"
         style="fill:#251321;fill-opacity:1;fill-rule:nonzero;stroke:none"
         transform="matrix(0.13333333,0,0,-0.13333333,0,2829.3333)" />
      <path
         id="path51"
         d="m 7932.44,1995.8 c -76.49,-55.7 -137.88,-123.9 -173.98,-212.4 -26.07,-63.9 -61.1,-169.5 -12.08,-228.6 4.91,-5.9 16.71,-5.9 21.63,0 38.83,47.1 33.42,121.9 53.4,179.3 29.47,84.6 75.56,162.7 137.34,227.7 16.22,17 -5.61,49.1 -26.31,34"
         style="fill:#251321;fill-opacity:1;fill-rule:nonzero;stroke:none"
         transform="matrix(0.13333333,0,0,-0.13333333,0,2829.3333)" />
      <path
         id="path52"
         d="m 7454.24,2005.6 c -120.72,-96 -229.08,-288.5 -169.54,-445.7 7.4,-19.6 33.9,-20.7 40.92,0 22.02,64.8 27.33,133.7 50.47,198.4 26.65,74.4 68.22,146.5 116.5,208.9 21.38,27.6 -10.72,60.4 -38.35,38.4"
         style="fill:#251321;fill-opacity:1;fill-rule:nonzero;stroke:none"
         transform="matrix(0.13333333,0,0,-0.13333333,0,2829.3333)" />
      <path
         id="path53"
         d="m 16011.5,8093.6 c -108.6,317.4 156,623 -73.4,922.3 -133.9,174.8 -372.6,281.5 -592.5,252.2 -247.1,-33 -369,-199.2 -420.3,-429.3 -36.6,-163.8 -26.2,-332 -113.7,-482.4 -80,-137.5 -220.9,-223.4 -322.9,-342.4 -102.3,-119.4 -159.6,-311.3 -53.6,-427.5 105.8,-116 304.8,-83.9 428,-181.2 181,-142.8 82.3,-428.7 113.1,-657.2 27.9,-206.8 206.4,-397.1 415,-394 282.7,4.1 456.8,330.3 453.8,613 -1,90.3 -12.3,186.2 29.6,266.3 73.8,140.9 282.6,176.2 340.4,324.5 71.8,184.3 -139.5,348.6 -203.5,535.7"
         style="fill:#b86f38;fill-opacity:1;fill-rule:nonzero;stroke:none"
         transform="matrix(0.13333333,0,0,-0.13333333,0,2829.3333)" />
      <path
         id="path54"
         d="m 7657.31,14206.2 c 3.17,35 -48.28,45.8 -64.36,17.4 -84.97,-150.5 -124.53,-488.7 27.19,-611.9 13.88,-11.3 40.68,-10 44.53,11.7 16.02,90.7 -22.66,182.6 -28.46,273.9 -6.62,104.5 11.9,205.3 21.1,308.9"
         style="fill:#773521;fill-opacity:1;fill-rule:nonzero;stroke:none"
         transform="matrix(0.13333333,0,0,-0.13333333,0,2829.3333)" />
      <path
         id="path55"
         d="m 7613.26,13159.9 c 3.91,26 -31.02,36.8 -39.99,11 -59.05,-170.2 -88.19,-456.2 38.39,-604.4 8.18,-9.6 23.19,-1.3 23.58,9.8 3.12,91.3 -33.85,180.7 -39.7,272.4 -6.63,103.8 2.28,208.6 17.72,311.2"
         style="fill:#773521;fill-opacity:1;fill-rule:nonzero;stroke:none"
         transform="matrix(0.13333333,0,0,-0.13333333,0,2829.3333)" />
    </g>
  </g>
</svg>
