<?xml version="1.0" encoding="UTF-8" standalone="no"?>
<!-- Created with Inkscape (http://www.inkscape.org/) -->

<svg
   width="59.74968mm"
   height="25.29723mm"
   viewBox="0 0 59.74968 25.29723"
   version="1.1"
   id="svg1"
   xml:space="preserve"
   xmlns="http://www.w3.org/2000/svg"
   xmlns:svg="http://www.w3.org/2000/svg"><defs
     id="defs1" /><g
     id="layer1"
     transform="translate(-335.98376,-807.08534)"><g
       id="g161-3"
       transform="matrix(0.26458333,0,0,0.26458333,291.03337,709.3397)">
		<g
   id="g135-27">
			<g
   id="g122">
				<path
   style="fill:#c68b59"
   d="m 317.27,416.366 c 20.069,-0.465 40.138,-0.93 60.208,-1.395 4.636,-0.107 9.546,-0.134 13.508,2.646 3.961,2.781 6.29,9.462 3.52,13.87 -2.374,3.776 -6.985,4.087 -10.956,4.023 -25.161,-0.403 -50.306,-1.586 -75.399,-3.548"
   id="path121-2" />
			</g>
			<g
   style="opacity:0.39"
   id="g123-2">
				<path
   style="fill:#c68b59"
   d="m 394.507,431.488 c -2.378,3.774 -6.987,4.086 -10.955,4.021 -25.161,-0.398 -50.313,-1.589 -75.407,-3.542 l 1.46,-2.498 c 23.679,1.779 47.396,2.848 71.132,3.238 3.977,0.065 8.587,-0.247 10.955,-4.021 2.101,-3.335 1.272,-7.979 -0.97,-11.242 0.089,0.052 0.178,0.115 0.267,0.177 3.953,2.779 6.29,9.456 3.518,13.867 z"
   id="path122-8" />
			</g>
			<g
   style="opacity:0.51"
   id="g124">
				<path
   style="fill:#c68b59"
   d="m 335.143,422.304 c -2.699,-0.068 -5.84,0.018 -8.436,-0.643 -1.286,-0.328 -3.031,-1.22 -0.66,-1.993 1.347,-0.439 3.824,-0.079 5.273,-0.112 4.564,-0.104 9.129,-0.208 13.693,-0.312 8.959,-0.204 17.919,-0.408 26.878,-0.613 4.592,-0.105 9.186,-0.209 13.778,-0.141 0.854,0.013 1.86,0.1 2.281,0.689 0.409,0.574 -0.025,1.34 -0.719,1.704 -0.694,0.363 -1.563,0.428 -2.392,0.48 -16.528,1.043 -33.127,1.358 -49.696,0.941 z"
   id="path123-2" />
			</g>
			<g
   id="g126-6">
				<g
   id="g125">
					<path
   style="fill:#a06135"
   d="m 386.184,423.882 c -0.207,0.804 -0.542,1.476 -0.977,2.226 -0.208,0.359 -0.449,0.692 -0.685,1.032 -0.064,0.092 -0.128,0.184 -0.195,0.275 -0.03,0.04 -0.06,0.08 -0.09,0.12 0.051,-0.066 0.022,-0.028 -0.013,0.015 -0.098,0.12 -0.193,0.242 -0.284,0.368 -0.029,0.04 -0.058,0.08 -0.087,0.119 -0.012,0.016 -0.109,0.142 -0.041,0.054 -0.239,0.305 -0.32,0.756 0,1.05 0.318,0.292 0.731,0.267 1.05,0 0.728,-0.611 1.278,-1.393 1.703,-2.239 0.424,-0.845 0.675,-1.754 0.855,-2.679 0.066,-0.339 -0.096,-0.691 -0.447,-0.788 -0.331,-0.092 -0.702,0.11 -0.789,0.447 z"
   id="path124-21" />
				</g>
			</g>
			<g
   id="g128">
				<g
   id="g127-6">
					<path
   style="fill:#a06135"
   d="m 382.56,424.502 c -0.026,0.071 -0.054,0.142 -0.084,0.212 0.02,-0.048 0.041,-0.096 0.061,-0.144 -0.186,0.432 -0.448,0.832 -0.733,1.204 0.035,-0.046 0.071,-0.092 0.106,-0.138 -0.058,0.075 -0.118,0.147 -0.181,0.218 -0.12,0.136 -0.199,0.295 -0.199,0.481 0,0.167 0.074,0.366 0.199,0.481 0.13,0.119 0.3,0.207 0.481,0.199 0.173,-0.008 0.362,-0.064 0.481,-0.199 0.251,-0.285 0.483,-0.589 0.639,-0.936 0.156,-0.344 0.284,-0.696 0.36,-1.067 0.032,-0.155 0.023,-0.312 -0.059,-0.452 -0.071,-0.122 -0.211,-0.237 -0.35,-0.269 -0.15,-0.034 -0.318,-0.027 -0.452,0.059 -0.134,0.088 -0.214,0.201 -0.269,0.351 z"
   id="path126-0" />
				</g>
			</g>
			<g
   id="g130">
				<g
   id="g129">
					<path
   style="fill:#a06135"
   d="m 345.667,424.635 c -0.276,0.359 -0.553,0.718 -0.829,1.076 -0.136,0.176 -0.276,0.35 -0.408,0.53 -0.136,0.187 -0.254,0.377 -0.363,0.581 -0.13,0.242 -0.078,0.536 0.141,0.706 0.216,0.167 0.52,0.147 0.718,-0.043 0.167,-0.16 0.316,-0.325 0.461,-0.506 0.167,-0.208 0.322,-0.427 0.482,-0.64 0.275,-0.368 0.549,-0.736 0.824,-1.104 0.086,-0.116 0.096,-0.325 0.06,-0.458 -0.038,-0.138 -0.144,-0.287 -0.273,-0.355 -0.138,-0.073 -0.305,-0.109 -0.458,-0.06 -0.158,0.051 -0.256,0.144 -0.355,0.273 z"
   id="path128-89" />
				</g>
			</g>
			<g
   id="g132">
				<g
   id="g131">
					<path
   style="fill:#a06135"
   d="m 357.246,425.027 c -0.225,0.333 -0.449,0.667 -0.674,1 -0.112,0.167 -0.225,0.333 -0.337,0.5 -0.053,0.079 -0.105,0.154 -0.144,0.242 -0.043,0.099 -0.087,0.197 -0.13,0.296 -0.079,0.181 -0.065,0.376 0.101,0.504 0.149,0.115 0.378,0.112 0.513,-0.031 0.155,-0.165 0.307,-0.323 0.431,-0.513 0.113,-0.174 0.227,-0.348 0.34,-0.522 0.223,-0.342 0.446,-0.684 0.668,-1.027 0.127,-0.196 0.046,-0.501 -0.16,-0.609 -0.223,-0.118 -0.468,-0.046 -0.608,0.16 z"
   id="path130-2" />
				</g>
			</g>
			<g
   id="g134-8">
				<g
   id="g133">
					<path
   style="fill:#a06135"
   d="m 369.562,425.312 c -0.205,0.337 -0.411,0.674 -0.616,1.011 -0.103,0.169 -0.205,0.337 -0.308,0.505 -0.117,0.192 -0.195,0.399 -0.279,0.607 -0.069,0.171 0.045,0.411 0.201,0.494 0.164,0.087 0.399,0.081 0.53,-0.068 0.149,-0.17 0.293,-0.335 0.412,-0.527 0.104,-0.168 0.208,-0.335 0.312,-0.503 0.208,-0.335 0.416,-0.671 0.624,-1.006 0.14,-0.226 0.056,-0.569 -0.182,-0.695 -0.247,-0.131 -0.546,-0.061 -0.694,0.182 z"
   id="path132-8" />
				</g>
			</g>
		</g>
		<g
   id="g151">
			<g
   id="g136-5">
				<path
   style="fill:#536177"
   d="m 291.796,415.273 26.949,-0.904 c 1.165,-0.039 2.106,1.05 2.045,2.366 l -0.746,16.064 c -0.017,0.357 -0.041,0.741 -0.239,1.021 -0.278,0.395 -0.784,0.441 -1.229,0.452 -9.619,0.249 -28.798,-1.494 -28.798,-1.494"
   id="path135-5" />
			</g>
			<g
   style="opacity:0.45"
   id="g137">
				<path
   style="fill:#536177"
   d="m 291.796,415.273 26.949,-0.904 c 1.165,-0.039 2.106,1.05 2.045,2.366 l -0.746,16.064 c -0.017,0.357 -0.041,0.741 -0.239,1.021 -0.278,0.395 -0.784,0.441 -1.229,0.452 -9.619,0.249 -28.798,-1.494 -28.798,-1.494"
   id="path136-4" />
			</g>
			<g
   style="opacity:0.58"
   id="g139">
				<g
   id="g138">
					<path
   style="fill:#fcfcfc"
   d="m 301.159,421.121 c 2.342,0.262 4.74,0.089 7.094,0.055 1.162,-0.017 2.323,-0.056 3.485,-0.098 0.581,-0.021 1.161,-0.042 1.742,-0.063 0.606,-0.022 1.243,0.013 1.824,-0.18 0.694,-0.232 0.775,-1.296 0,-1.492 -0.601,-0.152 -1.21,-0.083 -1.824,-0.059 -0.622,0.024 -1.244,0.049 -1.867,0.073 -1.163,0.046 -2.323,0.096 -3.485,0.167 -2.363,0.144 -4.775,0.159 -7.104,0.6 -0.608,0.115 -0.387,0.939 0.135,0.997 z"
   id="path137-89" />
				</g>
			</g>
			<g
   style="opacity:0.58"
   id="g141-8">
				<g
   id="g140">
					<path
   style="fill:#fcfcfc"
   d="m 317.608,416.927 c -0.251,2.382 -0.516,4.752 -0.665,7.143 -0.072,1.149 -0.141,2.299 -0.212,3.448 -0.076,1.23 -0.2,2.465 -0.061,3.694 0.076,0.676 1.117,0.96 1.289,0.174 0.26,-1.192 0.28,-2.408 0.329,-3.623 0.048,-1.19 0.096,-2.381 0.144,-3.571 0.097,-2.425 0.076,-4.84 0.067,-7.266 -0.003,-0.584 -0.833,-0.557 -0.891,0.001 z"
   id="path139-97" />
				</g>
			</g>
			<g
   id="g142">
				<path
   style="fill:#536177"
   d="m 176.476,387.292 c -0.142,8.421 0.487,6.737 0.344,15.158 -0.248,14.679 -1.784,31.204 5.877,42.592 7.179,10.672 19.133,14.384 30.328,16.56 14.589,2.836 31.037,3.662 45.803,3.394 11.975,-0.217 25.167,-2.153 33.208,-12.903 7.383,-9.869 8.316,-24.352 8.874,-37.685 0.609,-14.553 0.69,-11.99 1.299,-26.544"
   id="path141-6" />
			</g>
			<g
   style="opacity:0.45"
   id="g143">
				<path
   style="fill:#536177"
   d="m 302.207,387.871 c -0.607,14.544 -0.69,11.987 -1.297,26.541 -0.559,13.333 -1.492,27.815 -8.875,37.685 -8.044,10.749 -21.228,12.686 -33.21,12.898 -14.761,0.27 -31.216,-0.552 -45.805,-3.394 -11.194,-2.169 -23.142,-5.883 -30.325,-16.559 -0.546,-0.813 -1.052,-1.658 -1.508,-2.534 7.066,6.333 16.401,9.018 25.259,10.743 14.598,2.831 31.044,3.664 45.805,3.394 11.981,-0.223 25.166,-2.16 33.209,-12.909 7.383,-9.87 8.316,-24.352 8.875,-37.685 0.455,-10.858 0.611,-12.184 0.926,-18.209 z"
   id="path142-4" />
			</g>
			<g
   id="g145-5">
				<g
   id="g144">
					<path
   style="fill:#fcfcfc"
   d="m 182.19,409.987 c -0.572,4.609 -0.281,9.354 0.301,13.948 0.577,4.551 1.4,9.249 3.29,13.454 0.331,0.736 1.392,0.189 1.242,-0.524 -0.468,-2.236 -1.087,-4.433 -1.606,-6.657 -0.51,-2.186 -0.927,-4.398 -1.255,-6.619 -0.667,-4.516 -0.762,-9.05 -0.911,-13.603 -0.021,-0.7 -0.979,-0.661 -1.061,0.001 z"
   id="path143-35" />
				</g>
			</g>
			<g
   id="g147">
				<g
   id="g146">
					<path
   style="fill:#fcfcfc"
   d="m 243.394,451.579 c 3.523,-1.408 6.199,-4.326 7.252,-7.979 0.172,-0.598 -0.52,-1.137 -1.056,-0.812 -1.792,1.088 -3.253,3.408 -1.787,5.378 1.23,1.651 3.976,1.061 4.19,-1.053 0.049,-0.488 -0.482,-0.744 -0.881,-0.671 -1.219,0.221 -1.227,1.998 -0.268,2.554 0.606,0.351 1.362,0.213 1.936,-0.132 0.68,-0.408 1.052,-1.151 1.713,-1.569 -0.329,-0.086 -0.657,-0.172 -0.986,-0.258 0.289,0.531 0.577,1.063 0.866,1.594 0.242,0.445 0.797,0.433 1.143,0.147 0.832,-0.685 1.663,-1.371 2.495,-2.056 -0.386,-0.05 -0.772,-0.1 -1.158,-0.149 0.224,0.444 0.448,0.888 0.672,1.332 0.135,0.268 0.548,0.451 0.838,0.341 0.821,-0.312 1.442,-0.789 1.96,-1.497 -0.431,0 -0.861,0 -1.291,0 0.909,1.516 3.013,2.266 4.564,1.264 0.605,-0.391 0.234,-1.463 -0.512,-1.214 -1.005,0.336 -2.178,0.155 -2.761,-0.805 -0.312,-0.513 -0.967,-0.449 -1.291,0 -0.268,0.371 -0.635,0.655 -1.063,0.82 0.279,0.114 0.559,0.227 0.838,0.341 -0.227,-0.443 -0.453,-0.885 -0.679,-1.328 -0.233,-0.456 -0.817,-0.434 -1.159,-0.149 -0.827,0.69 -1.654,1.38 -2.482,2.069 0.381,0.049 0.762,0.098 1.143,0.147 -0.292,-0.529 -0.586,-1.058 -0.879,-1.587 -0.183,-0.329 -0.663,-0.466 -0.986,-0.258 -0.6,0.387 -0.958,0.956 -1.484,1.419 -0.202,0.178 -0.426,0.321 -0.702,0.32 -0.044,0 -0.001,-0.038 -0.034,-0.042 -0.038,-0.004 0,0.024 -0.065,0.036 -0.294,-0.224 -0.587,-0.447 -0.881,-0.671 -0.037,0.406 -0.529,0.642 -0.888,0.652 -0.501,0.015 -0.855,-0.393 -1.01,-0.835 -0.436,-1.249 0.632,-2.319 1.612,-2.9 -0.352,-0.271 -0.704,-0.541 -1.056,-0.812 -0.959,3.201 -3.288,5.901 -6.288,7.361 -0.545,0.27 -0.154,1.234 0.425,1.002 z"
   id="path145-7" />
				</g>
			</g>
			<path
   style="opacity:0.45;fill:#536177"
   d="m 278.08,424.577 c 0.412,-1.748 0.908,-3.565 1.936,-4.739 1.028,-1.174 2.75,-1.394 3.609,0.013 0.358,0.586 0.515,1.35 0.635,2.097 0.848,5.277 -0.116,18.96 -4.838,21.199 -6.972,3.304 -2.286,-14.564 -1.342,-18.57 z"
   id="path147-69" />
			<path
   style="opacity:0.45;fill:#536177"
   d="m 287.86,428.44 c 0.272,-0.648 0.803,-5.63 -0.85,-4.962 -0.285,0.115 -0.396,0.452 -0.474,0.749 -0.357,1.359 -0.532,2.67 -0.074,4.039 0.141,0.422 0.43,0.887 0.815,0.822 0.276,-0.047 0.46,-0.355 0.583,-0.648 z"
   id="path148-51" />
			<g
   style="opacity:0.45"
   id="g150">
				<g
   id="g149">
					<path
   style="fill:#536177"
   d="m 178.916,404.523 c 1.128,1.199 2.686,1.993 4.164,2.669 2.311,1.057 4.719,1.848 7.168,2.514 6.908,1.88 14.003,3.059 21.098,3.96 8.695,1.104 17.444,1.789 26.201,2.13 9.096,0.354 18.218,0.342 27.306,-0.22 8.017,-0.496 16.087,-1.412 23.896,-3.346 0.811,-0.201 1.612,-0.453 2.409,-0.702 0.796,-0.248 0.47,-1.444 -0.345,-1.251 -7.541,1.792 -15.171,2.829 -22.895,3.41 -8.911,0.669 -17.864,0.767 -26.794,0.505 -8.851,-0.259 -17.698,-0.876 -26.496,-1.889 -7.252,-0.835 -14.527,-1.872 -21.648,-3.502 -2.62,-0.6 -5.235,-1.288 -7.786,-2.136 -1.721,-0.572 -3.443,-1.209 -4.943,-2.259 -0.25,-0.175 -0.422,-0.309 -0.672,-0.546 -0.439,-0.415 -1.077,0.223 -0.663,0.663 z"
   id="path149-1" />
				</g>
			</g>
		</g>
		<g
   id="g158">
			<path
   style="fill:#eaeaea"
   d="m 305.953,392.81 c 1.426,12.187 -20.042,18.329 -71.161,16.464 -41.017,-1.497 -67.09,-10.598 -64.756,-23.804 1.863,-10.539 31.365,-17.722 68.898,-15.695 38.681,2.088 65.773,12.387 67.019,23.035 z"
   id="path151-5" />
			<path
   style="fill:#d5dbdb"
   d="m 288.412,402.243 c -5.252,0.982 -11.167,1.662 -17.053,2.123 -14.749,1.158 -29.304,0.947 -32.688,0.756 -13.526,-0.735 -25.758,-2.286 -36.021,-4.405 -4.85,-0.992 -9.254,-2.121 -13.155,-3.335 -12.384,-3.879 -19.616,-8.729 -19.377,-13.647 0.295,-6.181 27.663,-16.196 70.26,-13.892 19.126,1.026 56.736,8.435 64.293,18.233 0.952,1.23 1.449,2.398 1.619,3.473 0.851,5.363 -7.107,8.678 -17.878,10.694 z"
   id="path152-5" />
			<g
   id="g154">
				<g
   id="g153-9">
					<path
   style="fill:#bec6c6"
   d="m 184.018,387.438 c 1.465,-1.497 3.548,-2.395 5.353,-3.132 2.849,-1.163 5.86,-1.92 8.871,-2.526 3.762,-0.757 7.573,-1.253 11.393,-1.607 4.427,-0.41 8.868,-0.656 13.313,-0.755 4.808,-0.107 9.62,-0.049 14.425,0.156 4.878,0.209 9.749,0.57 14.603,1.099 4.679,0.51 9.343,1.18 13.968,2.056 4.297,0.814 8.566,1.803 12.753,3.07 3.578,1.083 7.095,2.355 10.433,4.021 2.745,1.37 5.325,2.948 7.46,5.018 0.463,0.449 0.902,0.922 1.314,1.418 0.701,0.844 1.9,-0.367 1.204,-1.204 -1.89,-2.275 -4.364,-4.045 -6.915,-5.506 -3.195,-1.83 -6.635,-3.231 -10.116,-4.413 -4.059,-1.377 -8.219,-2.446 -12.411,-3.332 -4.655,-0.983 -9.357,-1.732 -14.076,-2.324 -4.876,-0.612 -9.775,-1.044 -14.681,-1.321 -4.893,-0.276 -9.795,-0.398 -14.695,-0.356 -4.609,0.039 -9.218,0.222 -13.812,0.594 -4.08,0.33 -8.159,0.843 -12.185,1.583 -3.24,0.596 -6.474,1.342 -9.577,2.461 -2.309,0.833 -4.532,1.842 -6.292,3.537 -0.328,0.316 -0.628,0.656 -0.905,1.018 -0.258,0.335 0.29,0.736 0.575,0.445 z"
   id="path153-0" />
				</g>
			</g>
			<g
   id="g156-6">
				<g
   id="g155">
					<path
   style="fill:#fcfcfc"
   d="m 176.832,382.123 c 0.083,-0.083 0.172,-0.159 0.263,-0.234 -0.01,0.008 -0.057,0.038 0.057,-0.041 0.058,-0.041 0.116,-0.082 0.175,-0.121 0.278,-0.184 0.571,-0.345 0.868,-0.495 0.77,-0.389 1.491,-0.649 2.391,-0.967 2.48,-0.876 5.044,-1.517 7.61,-2.086 3.524,-0.781 7.084,-1.398 10.656,-1.914 4.258,-0.615 8.539,-1.094 12.827,-1.451 4.861,-0.404 9.736,-0.647 14.614,-0.727 5.167,-0.084 10.337,-0.019 15.497,0.266 5.279,0.292 10.549,0.799 15.777,1.591 5.205,0.789 10.374,1.849 15.447,3.264 4.861,1.356 9.646,3.033 14.228,5.154 4.433,2.053 8.674,4.519 12.582,7.454 0.924,0.694 1.831,1.407 2.758,2.097 0.622,0.462 1.344,-0.53 0.814,-1.055 -1.728,-1.713 -3.73,-3.159 -5.746,-4.515 -2.045,-1.376 -4.171,-2.633 -6.352,-3.78 -4.504,-2.368 -9.246,-4.284 -14.088,-5.84 -5.03,-1.616 -10.18,-2.849 -15.377,-3.791 -5.306,-0.962 -10.666,-1.628 -16.04,-2.056 -5.274,-0.42 -10.566,-0.608 -15.856,-0.6 -4.994,0.008 -9.994,0.236 -14.973,0.611 -4.555,0.342 -9.103,0.815 -13.624,1.468 -3.794,0.548 -7.575,1.204 -11.321,2.022 -2.823,0.616 -5.639,1.313 -8.383,2.223 -1.716,0.569 -3.408,1.122 -4.929,2.195 -0.232,0.163 -0.46,0.338 -0.657,0.543 -0.497,0.515 0.277,1.292 0.782,0.785 z"
   id="path154-62" />
				</g>
			</g>
			<g
   id="g157">
				<path
   style="fill:#bec6c6"
   d="m 271.359,404.366 c -14.749,1.158 -29.304,0.947 -32.688,0.756 -13.526,-0.735 -25.758,-2.286 -36.021,-4.405 12.304,-7.5 27.678,-8.095 41.987,-6.548 9.599,1.045 19.764,3.258 26.722,10.197 z"
   id="path156-77" />
			</g>
		</g>
		<g
   id="g160-6">
			<g
   id="g159">
				<path
   style="fill:#a06135"
   d="m 332.805,424.821 c -0.161,0.201 -0.322,0.401 -0.482,0.602 -0.111,0.138 -0.22,0.277 -0.316,0.426 -0.07,0.108 -0.139,0.216 -0.209,0.324 -0.082,0.127 -0.11,0.338 -0.063,0.481 0.043,0.132 0.114,0.24 0.224,0.325 0.105,0.081 0.242,0.14 0.379,0.134 0.159,-0.007 0.334,-0.059 0.442,-0.183 0.201,-0.231 0.4,-0.459 0.576,-0.71 0.148,-0.211 0.296,-0.422 0.443,-0.632 0.086,-0.123 0.109,-0.348 0.064,-0.488 -0.043,-0.133 -0.115,-0.243 -0.227,-0.329 -0.107,-0.082 -0.245,-0.142 -0.383,-0.136 -0.157,0.007 -0.345,0.058 -0.448,0.186 z"
   id="path158-75" />
			</g>
		</g>
	</g></g></svg>
